<svg xmlns="http://www.w3.org/2000/svg" preserveAspectRatio="xMidYMid" width="23" height="16" viewBox="0 0 23 16"><defs><style>.cls-2 { fill: #e8e6e1; filter: url(#color-overlay-1); }</style><filter id="color-overlay-1" filterUnits="userSpaceOnUse"><feFlood flood-color="#2c373c" flood-opacity="1"/><feComposite operator="in" in2="SourceGraphic"/><feBlend in2="SourceGraphic" result="colorOverlay"/></filter></defs><path d="M22 9H1c-.552 0-1-.448-1-1s.448-1 1-1h21c.552 0 1 .448 1 1s-.448 1-1 1zm0-7H1c-.552 0-1-.448-1-1s.448-1 1-1h21c.552 0 1 .448 1 1s-.448 1-1 1zM1 14h21c.552 0 1 .448 1 1s-.448 1-1 1H1c-.552 0-1-.448-1-1s.448-1 1-1z" id="path-1" class="cls-2" fill-rule="evenodd"/></svg>