<?xml version="1.0" encoding="utf-8"?>
<!-- Generator: Adobe Illustrator 16.0.4, SVG Export Plug-In . SVG Version: 6.00 Build 0)  -->
<!DOCTYPE svg PUBLIC "-//W3C//DTD SVG 1.1//EN" "http://www.w3.org/Graphics/SVG/1.1/DTD/svg11.dtd">
<svg version="1.1" id="Шар_1" xmlns="http://www.w3.org/2000/svg" xmlns:xlink="http://www.w3.org/1999/xlink" x="0px" y="0px"
	 width="134px" height="134px" viewBox="0 0 134 134" enable-background="new 0 0 134 134" xml:space="preserve">
<g>
	<g>
		<path fill="#F5AE0A" d="M49.965,63.344h-1c-3.309,0-6-2.691-6-6c0-1.648,0.675-3.204,1.843-4.326
			c-0.528-0.896-0.812-1.911-0.812-2.939c0-3.231,2.628-5.859,5.859-5.859c0.667,0,1.319,0.116,1.948,0.346
			c0.98-1.681,2.784-2.752,4.771-2.752c0.573,0,1.145,0.093,1.692,0.273c1.056-3.211,4.038-5.429,7.511-5.429
			c3.615,0,6.709,2.449,7.628,5.862c0.509-0.116,1.03-0.175,1.56-0.175c3.859,0,7,3.14,7,7c0,2.08-0.923,4.022-2.541,5.365
			c-1.454,2.659-6.898,4.635-12.875,4.635h-0.245c-6.132,0-13.109-2.147-14.093-5.293l-1.687-0.828
			c-0.223-0.109-0.371-0.126-0.439-0.126c-0.086,0.021-0.12,0.094-0.12,0.247V63.344z M49.856,46.219
			c-2.128,0-3.859,1.731-3.859,3.859c0,0.904,0.321,1.761,0.93,2.479l0.719,0.85l-0.921,0.625c-1.101,0.747-1.759,1.985-1.759,3.313
			c0,1.86,1.277,3.428,3,3.874v-7.874c0-1.323,0.872-2.247,2.12-2.247c0.231,0,0.468,0.033,0.706,0.097l-0.049-0.099l3.438,1.695
			l-0.071,0.631c0.327,1.396,5.485,3.922,12.195,3.922h0.245c6.195,0,10.467-2.144,11.168-3.691l0.103-0.225l0.194-0.152
			c1.24-0.964,1.951-2.397,1.951-3.932c0-2.757-2.243-5-5-5c-0.672,0-1.325,0.131-1.941,0.391l-1.23,0.518l-0.15-1.327
			c-0.342-3.004-2.863-5.27-5.865-5.27c-2.921,0-5.377,2.103-5.84,5l-0.236,1.48l-1.276-0.786c-0.579-0.357-1.202-0.538-1.852-0.538
			c-1.504,0-2.846,0.967-3.338,2.406l-0.396,1.155l-1.055-0.615C51.172,46.4,50.522,46.219,49.856,46.219z"/>
	</g>
	<g>
		<g>
			<path fill-rule="evenodd" clip-rule="evenodd" fill="#F5AE0A" d="M90.965,53.906c-1.156-0.469-2.773,0.945-5.125,1.281
				c-0.968,0.138-1.985,0.162-2.886,0.136v-3.428c0-1.211-0.752-2.408-2.068-3.48c0.047,0.303,0.079,0.612,0.079,0.929
				c0,1.927-0.925,3.623-2.337,4.721c-0.98,2.164-5.932,4.279-12.079,4.279h-0.245c-6.76,0-13.005-2.559-13.206-4.927
				c-0.003,0.04-0.144,0.08-0.144,0.119v-0.234l-1.989-0.977c-1.104-0.542-2-0.086-2,1.019v9c-0.003,0-0.007-0.001-0.01-0.001
				v15.782c0,3.842,7.537,7.219,16.834,7.219h0.332c9.297,0,16.833-3.377,16.833-7.219v-5.769c2.539-0.097,6.07-0.38,7.073-1.2
				c1.451-1.187,1.824-4.874,1.949-8.437S92.122,54.375,90.965,53.906z M57.965,75.938c0,1.657-1.12,2.553-2.5,2
				c-1.381-0.553-2.5-2.343-2.5-4v-13c0-1.657,1.119-2.552,2.5-2c1.38,0.552,2.5,2.343,2.5,4V75.938z M68.965,77.344
				c0,1.657-1.343,3-3,3c-1.657,0-3-1.343-3-3v-13c0-1.657,1.343-3,3-3c1.657,0,3,1.343,3,3V77.344z M78.965,73.938
				c0,1.657-1.119,3.447-2.5,4s-2.5-0.343-2.5-2v-13c0-1.657,1.119-3.448,2.5-4s2.5,0.343,2.5,2V73.938z M88.031,63.192
				c-0.073,2.102,0.066,3.488-1.368,4.508c-0.706,0.502-2.358,0.637-3.708,0.656V59.94c0.145-0.003,0.292-0.008,0.45-0.016
				c1.449-0.073,2.811-0.489,3.686-0.617C87.626,59.229,88.105,61.092,88.031,63.192z M52.966,53.307
				c0.019,0.037,0.13,0.073,0.133,0.11c0.001-0.013,0.008-0.026,0.01-0.04L52.966,53.307z M66.241,52.435
				c0.125-1.958,1.735-3.511,3.725-3.511c1.663,0,3.058,1.091,3.548,2.59c0.589-0.289,1.149-0.625,1.676-1.008
				c-0.851-2.049-2.867-3.491-5.224-3.491c-2.85,0-5.185,2.115-5.577,4.856C64.984,52.107,65.601,52.302,66.241,52.435z
				 M60.965,47.924c0.836,0,1.601,0.283,2.225,0.746c0.624-0.281,1.219-0.612,1.776-0.997c-1.024-1.024-2.438-1.658-4.001-1.658
				c-2.286,0-4.244,1.362-5.136,3.313c0.646,0.16,1.311,0.264,1.995,0.307C58.493,48.607,59.647,47.924,60.965,47.924z"/>
		</g>
	</g>
</g>
<g>
</g>
<g>
</g>
<g>
</g>
<g>
</g>
<g>
</g>
<g>
</g>
<g>
</g>
<g>
</g>
<g>
</g>
<g>
</g>
<g>
</g>
<g>
</g>
<g>
</g>
<g>
</g>
<g>
</g>
</svg>
