<svg width="40" height="40" viewBox="0 0 40 40" xmlns="http://www.w3.org/2000/svg"><title>Design</title><desc>Created with Sketch.</desc><g fill="none" fill-rule="evenodd"><g fill="#fff"><g transform="translate(1 1)"><path d="M1 0h32c.553 0 1 .455 1 1v32c0 .553-.455 1-1 1H1c-.553 0-1-.455-1-1V1c0-.553.455-1 1-1zm31.39 1.61l.016 30.78-30.796.016V1.61h30.78zM37 6c.553 0 1 .455 1 1v30c0 .553-.455 1-1 1H7c-.553 0-1-.455-1-1v-3h1.61v2.406l28.796-.016-.016-28.78H34V6h3z"/><circle cx="3.5" cy="3.5" r=".5"/><circle cx="5.5" cy="3.5" r=".5"/><circle cx="7.5" cy="3.5" r=".5"/><path d="M32.467 6H33V5H1v1H32.467z"/></g><circle id="Oval-7" cx="9" cy="19" r="3"/><circle id="Oval-7" cx="27" cy="19" r="3"/><circle cx="18" cy="19" r="3"/><rect id="Rectangle-11" x="6" y="24" width="6" height="1" rx="2"/><rect id="Rectangle-11" x="15" y="24" width="6" height="1" rx="2"/><rect id="Rectangle-11" x="24" y="24" width="6" height="1" rx="2"/><rect id="Rectangle-11" x="6" y="26" width="6" height="1" rx="2"/><rect id="Rectangle-11" x="15" y="26" width="6" height="1" rx="2"/><rect id="Rectangle-11" x="24" y="26" width="6" height="1" rx="2"/><rect id="Rectangle-11" x="6" y="28" width="3" height="1" rx="2"/><rect id="Rectangle-11" x="15" y="28" width="4" height="1" rx="2"/><rect x="24" y="28" width="4" height="1" rx="2"/><rect x="6" y="10" width="24" height="2" rx="2"/></g></g></svg>