<svg width="40" height="40" viewBox="0 0 40 40" xmlns="http://www.w3.org/2000/svg"><title>Development</title><desc>Created with Sketch.</desc><g fill="none" fill-rule="evenodd"><g fill="#fff"><g transform="translate(1 1)"><path d="M1 0h32c.553 0 1 .455 1 1v32c0 .553-.455 1-1 1H1c-.553 0-1-.455-1-1V1c0-.553.455-1 1-1zm31.39 1.61l.016 30.78-30.796.016V1.61h30.78zM37 6c.553 0 1 .455 1 1v30c0 .553-.455 1-1 1H7c-.553 0-1-.455-1-1v-3h1.61v2.406l28.796-.016-.016-28.78H34V6h3z"/><circle cx="3.5" cy="3.5" r=".5"/><circle cx="5.5" cy="3.5" r=".5"/><circle cx="7.5" cy="3.5" r=".5"/><path d="M32.467 6H33V5H1v1H32.467z"/><rect id="Rectangle-3" x="6" y="9" width="13" height="1" rx="4"/><rect id="Rectangle-3" x="6" y="12" width="17" height="1" rx="4"/><rect id="Rectangle-3" x="9" y="15" width="19" height="1" rx="4"/><rect id="Rectangle-3" x="9" y="18" width="19" height="1" rx="4"/><rect id="Rectangle-3" x="12" y="21" width="15" height="1" rx="4"/><rect id="Rectangle-3" x="6" y="24" width="17" height="1" rx="4"/><rect x="6" y="27" width="14" height="1" rx="4"/></g></g></g></svg>