<?xml version="1.0" encoding="utf-8"?>
<!-- Generator: Adobe Illustrator 16.0.4, SVG Export Plug-In . SVG Version: 6.00 Build 0)  -->
<!DOCTYPE svg PUBLIC "-//W3C//DTD SVG 1.1//EN" "http://www.w3.org/Graphics/SVG/1.1/DTD/svg11.dtd">
<svg version="1.1" id="Шар_1" xmlns="http://www.w3.org/2000/svg" xmlns:xlink="http://www.w3.org/1999/xlink" x="0px" y="0px"
	 width="134px" height="134px" viewBox="0 0 134 134" enable-background="new 0 0 134 134" xml:space="preserve">
<path fill="#ED002D" d="M84.114,55.75c-0.042,0-0.083,0.006-0.125,0.006v-3.205c0-3.841-7.536-7.552-16.834-7.552h-0.332
	c-9.297,0-16.834,3.711-16.834,7.552v26.229c0,3.842,7.537,7.219,16.834,7.219h0.332c9.298,0,16.834-3.377,16.834-7.219v-5.787
	c0.042,0,0.083,0.006,0.125,0.006c4.764,0,8.625-3.861,8.625-8.625S88.878,55.75,84.114,55.75z M54.133,53.073
	c-0.003,0.04-0.144,0.08-0.144,0.119v-0.238C53.989,52.994,54.13,53.033,54.133,53.073C54.333,50.701,60.579,48,67.339,48h0.245
	c6.762,0,12.094,2.701,12.265,5.073c0.003-0.04,0.141-0.079,0.141-0.119v0.238c0-0.04-0.138-0.08-0.141-0.119
	C79.678,55.441,74.346,58,67.584,58h-0.245C60.579,58,54.333,55.441,54.133,53.073z M84.114,69.083
	c-0.043,0-0.082-0.012-0.125-0.013V59.68c0.043-0.001,0.082-0.013,0.125-0.013c2.6,0,4.708,2.107,4.708,4.708
	S86.714,69.083,84.114,69.083z"/>
<g>
</g>
<g>
</g>
<g>
</g>
<g>
</g>
<g>
</g>
<g>
</g>
<g>
</g>
<g>
</g>
<g>
</g>
<g>
</g>
<g>
</g>
<g>
</g>
<g>
</g>
<g>
</g>
<g>
</g>
</svg>
