<?xml version="1.0" encoding="utf-8"?>
<!-- Generator: Adobe Illustrator 16.0.4, SVG Export Plug-In . SVG Version: 6.00 Build 0)  -->
<!DOCTYPE svg PUBLIC "-//W3C//DTD SVG 1.1//EN" "http://www.w3.org/Graphics/SVG/1.1/DTD/svg11.dtd">
<svg version="1.1" id="Шар_1" xmlns="http://www.w3.org/2000/svg" xmlns:xlink="http://www.w3.org/1999/xlink" x="0px" y="0px"
	 width="136px" height="136px" viewBox="0 0 136 136" enable-background="new 0 0 136 136" xml:space="preserve">
<g>
	<g>
		<path fill-rule="evenodd" clip-rule="evenodd" fill="#D7DADB" d="M136,19v-1h-18V0h-1v18H19V0h-1v18H0v1h18v98H0v1h18v18h1v-18h98
			v18h1v-18h18v-1h-18V19H136z M117,117H19V19h98V117z"/>
	</g>
</g>
<g>
	<path fill-rule="evenodd" clip-rule="evenodd" fill="#F5F7F7" d="M43,117c-13.234,0-24-10.767-24-24V43c0-13.234,10.766-24,24-24
		h50c13.233,0,24,10.766,24,24v50c0,13.233-10.767,24-24,24H43z"/>
	<path fill="#2C373C" d="M93,20c12.683,0,23,10.318,23,23v50c0,12.683-10.317,23-23,23H43c-12.682,0-23-10.317-23-23V43
		c0-12.682,10.318-23,23-23H93 M93,18H43c-13.807,0-25,11.193-25,25v50c0,13.807,11.193,25,25,25h50c13.807,0,25-11.193,25-25V43
		C118,29.193,106.807,18,93,18L93,18z"/>
</g>
<g>
	<path fill="#D7DADB" d="M42.5,21C54.355,21,64,30.645,64,42.5S54.355,64,42.5,64S21,54.355,21,42.5S30.645,21,42.5,21 M42.5,20
		C30.074,20,20,30.074,20,42.5S30.074,65,42.5,65S65,54.926,65,42.5S54.926,20,42.5,20L42.5,20z"/>
</g>
<g>
	<path fill="#D7DADB" d="M93.5,21c11.855,0,21.5,9.645,21.5,21.5S105.355,64,93.5,64S72,54.355,72,42.5S81.645,21,93.5,21 M93.5,20
		C81.074,20,71,30.074,71,42.5S81.074,65,93.5,65S116,54.926,116,42.5S105.926,20,93.5,20L93.5,20z"/>
</g>
<g>
	<path fill="#D7DADB" d="M42.5,72C54.355,72,64,81.645,64,93.5S54.355,115,42.5,115S21,105.355,21,93.5S30.645,72,42.5,72 M42.5,71
		C30.074,71,20,81.074,20,93.5S30.074,116,42.5,116S65,105.926,65,93.5S54.926,71,42.5,71L42.5,71z"/>
</g>
<g>
	<path fill="#D7DADB" d="M93.5,72c11.855,0,21.5,9.645,21.5,21.5S105.355,115,93.5,115S72,105.355,72,93.5S81.645,72,93.5,72
		 M93.5,71C81.074,71,71,81.074,71,93.5S81.074,116,93.5,116S116,105.926,116,93.5S105.926,71,93.5,71L93.5,71z"/>
</g>
<g>
	<path fill-rule="evenodd" clip-rule="evenodd" fill="#D7DADB" d="M43,46h-1v-7h1V46z"/>
</g>
<g>
	<path fill-rule="evenodd" clip-rule="evenodd" fill="#D7DADB" d="M39,43v-1h7v1H39z"/>
</g>
<g>
	<path fill-rule="evenodd" clip-rule="evenodd" fill="#D7DADB" d="M94,46h-1v-7h1V46z"/>
</g>
<g>
	<path fill-rule="evenodd" clip-rule="evenodd" fill="#D7DADB" d="M90,43v-1h7v1H90z"/>
</g>
<g>
	<path fill-rule="evenodd" clip-rule="evenodd" fill="#D7DADB" d="M43,98h-1v-7h1V98z"/>
</g>
<g>
	<path fill-rule="evenodd" clip-rule="evenodd" fill="#D7DADB" d="M39,95v-1h7v1H39z"/>
</g>
<g>
	<path fill-rule="evenodd" clip-rule="evenodd" fill="#D7DADB" d="M94,98h-1v-7h1V98z"/>
</g>
<g>
	<path fill-rule="evenodd" clip-rule="evenodd" fill="#D7DADB" d="M90,95v-1h7v1H90z"/>
</g>
<g>
</g>
<g>
</g>
<g>
</g>
<g>
</g>
<g>
</g>
<g>
</g>
<g>
</g>
<g>
</g>
<g>
</g>
<g>
</g>
<g>
</g>
<g>
</g>
<g>
</g>
<g>
</g>
<g>
</g>
</svg>
