<svg xmlns="http://www.w3.org/2000/svg" preserveAspectRatio="xMidYMid" width="12" height="14" viewBox="0 0 12 14"><defs><style>.cls-2 { fill: #ffffff; }</style></defs><path d="M10.27 2.203c1.07.693 1.73 1.76 1.73 3.272 0 2.632-2.006 3.92-4.687 4.222L9.36 12.66S8.63 14 6 14c-2.626 0-3.367-1.34-3.367-1.34L4.68 9.7C2.002 9.405 0 8.15 0 5.474 0 3.94.66 2.87 1.73 2.185L1.558 0 3.74 1.4c.697-.148 1.46-.217 2.26-.217.797 0 1.557.072 2.252.223L10.442 0l-.172 2.203z" id="path-1" class="cls-2" fill-rule="evenodd"/></svg>