<svg width="44" height="40" viewBox="0 0 44 40" xmlns="http://www.w3.org/2000/svg"><title>Mobile Games</title><desc>Created with Sketch.</desc><g fill="none" fill-rule="evenodd"><g><path d="M5.096 35.823c-4.74-1.1-6.437-8.976-4.03-17.158 2.41-8.18 6.23-13.885 10.75-12.47 1.18.37 4.05 1.745 4.05 1.745 1 .467 2.686 1.06 3.745 1.322l.456.112c1.068.262 2.81.26 3.868 0l.455-.112c1.067-.263 2.733-.86 3.744-1.336 0 0 2.77-1.36 4.05-1.73 4.61-1.332 8.34 4.288 10.75 12.47 2.407 8.18.71 16.056-4.03 17.157-4.164.968-9.24-7.172-9.24-7.172-.62-.906-2.024-1.64-3.125-1.64h-9.074c-1.105 0-2.497.746-3.127 1.64 0 0-5.08 8.14-9.244 7.173z" id="Oval-15" stroke="#fff" stroke-width="1.61"/><circle id="Oval-15" fill="#fff" cx="32.5" cy="14.5" r="1.5"/><circle fill="#fff" cx="32.5" cy="20.5" r="1.5"/><circle fill="#fff" cx="29.5" cy="17.5" r="1.5"/><circle fill="#fff" cx="35.5" cy="17.5" r="1.5"/><path d="M12.625 14.122c0-.612-.504-1.122-1.125-1.122-.626 0-1.125.502-1.125 1.122v.258c0 1.102-.89 1.995-1.995 1.995h-.258C7.51 16.375 7 16.88 7 17.5c0 .626.502 1.125 1.122 1.125h.258c1.102 0 1.995.89 1.995 1.995v.258c0 .612.504 1.122 1.125 1.122.626 0 1.125-.502 1.125-1.122v-.258c0-1.102.89-1.995 1.995-1.995h.258c.612 0 1.122-.504 1.122-1.125 0-.626-.502-1.125-1.122-1.125h-.258c-1.102 0-1.995-.89-1.995-1.995v-.258z" fill="#fff"/><circle stroke="#fff" stroke-width=".6" cx="22" cy="18" r="2"/></g></g></svg>