<svg width="17" height="17" viewBox="0 0 17 17" xmlns="http://www.w3.org/2000/svg"><title>rss</title><desc>Created with Sketch.</desc><g fill="none" fill-rule="evenodd"><g fill="#E96800"><path d="M3.02 12.67c-1.178 0-2.133.95-2.133 2.124 0 1.173.955 2.124 2.133 2.124 1.177 0 2.132-.95 2.132-2.124 0-1.173-.956-2.124-2.132-2.124zM.89 6.372v3.066c1.998 0 3.876.778 5.287 2.19 1.414 1.416 2.192 3.3 2.192 5.304h3.078c0-5.823-4.737-10.56-10.558-10.56zM.895.936v3.067c7.12 0 12.913 5.802 12.913 12.933h3.078c0-8.823-7.174-16-15.99-16z"/></g></g></svg>