<?xml version="1.0" encoding="utf-8"?>
<!-- Generator: Adobe Illustrator 16.2.1, SVG Export Plug-In . SVG Version: 6.00 Build 0)  -->
<!DOCTYPE svg PUBLIC "-//W3C//DTD SVG 1.1//EN" "http://www.w3.org/Graphics/SVG/1.1/DTD/svg11.dtd">
<svg version="1.1" id="Шар_1" xmlns="http://www.w3.org/2000/svg" xmlns:xlink="http://www.w3.org/1999/xlink" x="0px" y="0px"
	 width="640px" height="250px" viewBox="0 0 640 250" enable-background="new 0 0 640 250" xml:space="preserve">
<g>
	<g>
		<circle fill="#2C373C" cx="34" cy="15" r="12"/>
	</g>
</g>
<g>
	<path fill="#222D32" d="M34.818,21.009h-2.897v-7.006h-1.449v-2.415h1.449v-1.449c0-1.97,0.817-3.141,3.141-3.141h1.934v2.415
		h-1.208c-0.904,0-0.965,0.337-0.965,0.967l-0.004,1.208h2.191l-0.257,2.415h-1.935V21.009z"/>
	<path fill="#FFFFFF" d="M34.818,22.009h-2.897v-7.006h-1.449v-2.415h1.449v-1.449c0-1.97,0.817-3.141,3.141-3.141h1.934v2.415
		h-1.208c-0.904,0-0.965,0.337-0.965,0.967l-0.004,1.208h2.191l-0.257,2.415h-1.935V22.009z"/>
</g>
<g>
	<g>
		<circle fill="#2C373C" cx="61" cy="15" r="12"/>
	</g>
</g>
<g>
	<path fill="#222D32" d="M68.33,13.591c-0.513,0.087-1.255-0.004-1.648-0.168c0.817-0.067,1.371-0.439,1.584-0.943
		c-0.294,0.181-1.21,0.379-1.715,0.19c-0.024-0.119-0.052-0.231-0.08-0.334c-0.384-1.415-1.703-2.555-3.083-2.417
		c0.111-0.045,0.224-0.087,0.338-0.126c0.151-0.054,1.044-0.199,0.903-0.515c-0.119-0.277-1.209,0.209-1.414,0.273
		c0.271-0.103,0.719-0.277,0.767-0.589c-0.415,0.057-0.822,0.253-1.137,0.539c0.113-0.122,0.2-0.271,0.218-0.433
		c-1.107,0.709-1.754,2.135-2.277,3.521c-0.41-0.399-0.775-0.714-1.102-0.889c-0.916-0.491-2.013-1.005-3.732-1.644
		c-0.054,0.569,0.281,1.327,1.243,1.831c-0.208-0.028-0.589,0.034-0.894,0.107c0.124,0.653,0.529,1.19,1.629,1.45
		c-0.503,0.033-0.763,0.148-0.998,0.394c0.229,0.455,0.788,0.989,1.792,0.879c-1.117,0.482-0.456,1.375,0.453,1.241
		c-1.55,1.604-3.993,1.484-5.396,0.145c3.663,4.997,11.627,2.955,12.813-1.858C67.483,14.253,68.006,13.938,68.33,13.591z"/>
	<path fill="#FFFFFF" d="M68.33,14.591c-0.513,0.087-1.255-0.004-1.648-0.168c0.817-0.067,1.371-0.439,1.584-0.943
		c-0.294,0.181-1.21,0.379-1.715,0.19c-0.024-0.119-0.052-0.231-0.08-0.334c-0.384-1.415-1.703-2.555-3.083-2.417
		c0.111-0.045,0.224-0.087,0.338-0.126c0.151-0.054,1.044-0.199,0.903-0.515c-0.119-0.277-1.209,0.209-1.414,0.273
		c0.271-0.103,0.719-0.277,0.767-0.589c-0.415,0.057-0.822,0.253-1.137,0.539c0.113-0.122,0.2-0.271,0.218-0.433
		c-1.107,0.709-1.754,2.135-2.277,3.521c-0.41-0.399-0.775-0.714-1.102-0.889c-0.916-0.491-2.013-1.005-3.732-1.644
		c-0.054,0.569,0.281,1.327,1.243,1.831c-0.208-0.028-0.589,0.034-0.894,0.107c0.124,0.653,0.529,1.19,1.629,1.45
		c-0.503,0.033-0.763,0.148-0.998,0.394c0.229,0.455,0.788,0.989,1.792,0.879c-1.117,0.482-0.456,1.375,0.453,1.241
		c-1.55,1.604-3.993,1.484-5.396,0.145c3.663,4.997,11.627,2.955,12.813-1.858C67.483,15.253,68.006,14.938,68.33,14.591z"/>
</g>
<g>
	<g>
		<circle fill="#2C373C" cx="88.001" cy="15" r="12"/>
	</g>
</g>
<g>
	<path fill="#222D32" d="M87.998,16.71l3.36,4.964c0,0-0.732,1.366-3.356,1.366s-3.364-1.366-3.364-1.366L87.998,16.71z"/>
	<path fill="#FFFFFF" d="M87.998,17.71l3.36,4.964c0,0-0.732,1.366-3.356,1.366s-3.364-1.366-3.364-1.366L87.998,17.71z"/>
</g>
<g>
	<path fill="#222D32" d="M88.001,9.968c3.31,0,5.993,1.271,5.993,4.378s-2.684,4.378-5.993,4.378s-5.993-1.218-5.993-4.378
		C82.008,11.186,84.692,9.968,88.001,9.968z"/>
	<path fill="#FFFFFF" d="M88.001,10.968c3.31,0,5.993,1.271,5.993,4.378s-2.684,4.378-5.993,4.378s-5.993-1.218-5.993-4.378
		C82.008,12.186,84.692,10.968,88.001,10.968z"/>
</g>
<g>
	<path fill="#222D32" d="M83.859,12.578l-0.295-3.816l3.266,2.141L83.859,12.578z"/>
	<path fill="#FFFFFF" d="M83.859,13.578l-0.295-3.816l3.266,2.141L83.859,13.578z"/>
</g>
<g>
	<path fill="#222D32" d="M92.144,12.578l0.294-3.816l-3.265,2.141L92.144,12.578z"/>
	<path fill="#FFFFFF" d="M92.144,13.578l0.294-3.816l-3.265,2.141L92.144,13.578z"/>
</g>
<path fill="#D7DADB" d="M171.5,39.299l5.501,3.117v6.169l-5.501,3.117l-5.501-3.117v-6.169L171.5,39.299 M171.5,37l-7.501,4.25v8.5
	L171.5,54l7.501-4.25v-8.5L171.5,37L171.5,37z"/>
<path fill="#D7DADB" d="M191.5,41.537l0.895,2.189l0.469,1.147l1.236,0.091l2.358,0.174l-1.808,1.528l-0.944,0.8l0.295,1.203
	l0.563,2.297l-2.013-1.246l-1.053-0.652l-1.054,0.652l-2.012,1.246l0.563-2.297l0.295-1.203l-0.944-0.8l-1.808-1.528l2.358-0.174
	l1.235-0.091l0.47-1.147L191.5,41.537 M191.5,36.25l-2.746,6.72l-7.24,0.535l5.543,4.688l-1.729,7.051l6.172-3.823l6.172,3.823
	l-1.729-7.051l5.543-4.688l-7.24-0.535L191.5,36.25L191.5,36.25z"/>
<path fill="#D7DADB" d="M214,39c1.654,0,3,1.346,3,3v5c0,1.654-1.346,3-3,3h-5c-1.654,0-3-1.346-3-3v-5c0-1.654,1.346-3,3-3H214
	 M214,37h-5c-2.762,0-5,2.239-5,5v5c0,2.761,2.238,5,5,5h5c2.762,0,5-2.239,5-5v-5C219,39.239,216.762,37,214,37L214,37z"/>
<path fill="#D7DADB" d="M229.5,39c3.033,0,5.5,2.467,5.5,5.5s-2.467,5.5-5.5,5.5s-5.5-2.467-5.5-5.5S226.467,39,229.5,39 M229.5,37
	c-4.143,0-7.5,3.358-7.5,7.5s3.357,7.5,7.5,7.5s7.5-3.358,7.5-7.5S233.643,37,229.5,37L229.5,37z"/>
<g>
	<path fill="#2C373C" d="M221.428,28.26c-0.191,0-0.384-0.073-0.529-0.22l-8.969-8.968c-0.142-0.141-0.221-0.332-0.221-0.53
		s0.079-0.39,0.221-0.53l9.041-9.042c0.293-0.293,0.768-0.293,1.061,0c0.293,0.293,0.293,0.768,0,1.062l-8.512,8.511l8.438,8.438
		c0.293,0.293,0.293,0.768,0,1.061C221.812,28.187,221.62,28.26,221.428,28.26z"/>
</g>
<g>
	<path fill="#2C373C" d="M226.531,28.26c-0.192,0-0.385-0.073-0.53-0.22c-0.293-0.293-0.293-0.768,0-1.061l8.438-8.438l-8.512-8.511
		c-0.293-0.293-0.293-0.768,0-1.062c0.293-0.293,0.768-0.293,1.062,0l9.04,9.042c0.142,0.141,0.221,0.332,0.221,0.53
		s-0.079,0.39-0.221,0.53l-8.969,8.968C226.915,28.187,226.725,28.26,226.531,28.26z"/>
</g>
<g>
	<path fill="#919699" d="M248.428,28.26c-0.191,0-0.384-0.073-0.529-0.22l-8.969-8.968c-0.142-0.141-0.221-0.332-0.221-0.53
		s0.079-0.39,0.221-0.53l9.041-9.042c0.293-0.293,0.768-0.293,1.061,0c0.293,0.293,0.293,0.768,0,1.062l-8.512,8.511l8.438,8.438
		c0.293,0.293,0.293,0.768,0,1.061C248.812,28.187,248.62,28.26,248.428,28.26z"/>
</g>
<g>
	<path fill="#919699" d="M254.531,28.26c-0.192,0-0.385-0.073-0.53-0.22c-0.293-0.293-0.293-0.768,0-1.061l8.438-8.438l-8.512-8.511
		c-0.293-0.293-0.293-0.768,0-1.062c0.293-0.293,0.768-0.293,1.061,0l9.041,9.042c0.142,0.141,0.221,0.332,0.221,0.53
		s-0.079,0.39-0.221,0.53l-8.969,8.968C254.915,28.187,254.725,28.26,254.531,28.26z"/>
</g>
<g>
	<path fill="#ED002D" d="M276.428,28.26c-0.191,0-0.384-0.073-0.529-0.22l-8.969-8.968c-0.142-0.141-0.221-0.332-0.221-0.53
		s0.079-0.39,0.221-0.53l9.041-9.042c0.293-0.293,0.768-0.293,1.061,0c0.293,0.293,0.293,0.768,0,1.062l-8.512,8.511l8.438,8.438
		c0.293,0.293,0.293,0.768,0,1.061C276.812,28.187,276.62,28.26,276.428,28.26z"/>
</g>
<g>
	<path fill="#ED002D" d="M282.531,28.26c-0.192,0-0.385-0.073-0.53-0.22c-0.293-0.293-0.293-0.768,0-1.061l8.438-8.438l-8.512-8.511
		c-0.293-0.293-0.293-0.768,0-1.062c0.293-0.293,0.768-0.293,1.062,0l9.041,9.042c0.141,0.141,0.22,0.332,0.22,0.53
		s-0.079,0.39-0.22,0.53l-8.97,8.968C282.915,28.187,282.725,28.26,282.531,28.26z"/>
</g>
<g>
	
		<linearGradient id="gradient_1_" gradientUnits="userSpaceOnUse" x1="18.001" y1="282.999" x2="3.9987" y2="297.0013" gradientTransform="matrix(1 0 0 -1 0 301)">
		<stop  offset="0" style="stop-color:#D95B29"/>
		<stop  offset="0.1134" style="stop-color:#DE642B"/>
		<stop  offset="0.2984" style="stop-color:#EA7C31"/>
		<stop  offset="0.5" style="stop-color:#FB9E3A"/>
		<stop  offset="0.6497" style="stop-color:#F69537"/>
		<stop  offset="0.8929" style="stop-color:#EA7D31"/>
		<stop  offset="1" style="stop-color:#E3702D"/>
	</linearGradient>
	<path id="gradient" fill="url(#gradient_1_)" d="M19,15.588C19,17.472,17.472,19,15.589,19H6.411C4.527,19,3,17.472,3,15.588V6.412
		C3,4.527,4.527,3,6.411,3h9.178C17.472,3,19,4.527,19,6.412V15.588z"/>
	<g id="lines__x3C_Group_x3E_">
		<circle id="circle" fill="#FFFFFF" cx="7.263" cy="14.703" r="1.429"/>
		<g>
			<path fill="#FFFFFF" d="M5.836,11.102c1.339,0,2.597,0.523,3.542,1.473c0.947,0.952,1.469,2.219,1.469,3.567h2.062
				c0-3.916-3.173-7.103-7.074-7.103L5.836,11.102L5.836,11.102z"/>
		</g>
		<g>
			<path fill="#FFFFFF" d="M5.839,7.445c4.77,0,8.651,3.902,8.651,8.699h2.062c0-5.934-4.806-10.761-10.713-10.761V7.445z"/>
		</g>
	</g>
</g>
<g>
	<g>
		<path fill="#D7DADB" d="M157.507,183.363L157,182.5l-27.747,16.273v-54.1L156,160.361l0.507-0.861l-27.254-15.984v-20.584h-1
			v19.999l-48.512-28.455l25.766-15.112L105,98.5l-26.247,15.395L52.506,98.5L52,99.362l25.765,15.112l-47.511,27.868v-19.411h-1
			v19.999L1,159.5l0.506,0.861l27.747-16.274v54.101L2.506,182.5L2,183.363l27.253,15.984v20.584h1v-19.998l48.511,28.455L53,243.5
			l0.506,0.863l26.247-15.396L106,244.363l0.507-0.863l-25.765-15.111l47.511-27.867v19.41h1v-19.996L157.507,183.363z
			 M79.753,227.809l-49.5-29.033v-55.274l48.5-28.447l49.5,29.034v55.273L79.753,227.809z"/>
	</g>
</g>
<g>
	<polygon fill="#F5F7F7" points="30.26,199.512 30.26,142.846 79.253,114.514 128.245,142.846 128.245,199.512 79.253,227.844 	"/>
	<path fill="#2C373C" d="M79.253,115.67l47.992,27.753v55.514L79.253,226.69L31.26,198.936v-55.512L79.253,115.67 M79.253,113.359
		L29.26,142.27v57.82L79.253,229l49.992-28.91v-57.82L79.253,113.359L79.253,113.359z"/>
</g>
<g>
	<g>
		<path fill="#D7DADB" d="M304.174,154.034H314v-0.998h-8.443l7.736-5.583l-0.586-0.809l-8.855,6.391h-45.709l-13.117-40.118
			l4.449-13.607L248.523,99l-4.023,12.31L240.475,99l-0.951,0.31l4.449,13.608l-13.115,40.118h-44.709l-8.855-6.392l-0.586,0.81
			l7.736,5.583H176v0.998h9.826l36.17,26.102l-13.68,41.84l-7.609,5.491l0.586,0.81l6.497-4.688l-5.265,16.103l0.951,0.311
			l5.69-17.406L245,196.734l34.523,24.914l6,18.352l0.951-0.311l-5.574-17.049l7.807,5.635l0.586-0.81l-8.919-6.437l-13.181-40.31
			L304.174,154.034z M302.468,154.034l-35.6,25.688l-8.399-25.688H302.468z M266.018,180.338L245,195.504l-21.827-15.751
			l8.409-25.719h25.835L266.018,180.338z M244.5,114.526l12.591,38.51h-25.182L244.5,114.526z M187.533,154.034h42.996
			l-8.207,25.104L187.533,154.034z M209.693,220.982l13.154-40.232l21.299,15.37L209.693,220.982z M278.997,220.037l-33.144-23.917
			l20.489-14.786L278.997,220.037z"/>
	</g>
</g>
<g>
	<polygon fill="#F5F7F7" points="244.5,199.206 209.898,220.73 219.59,181.023 187.566,154.15 229.104,151.617 244.5,113.771 
		259.896,151.618 302.375,154.15 269.408,181.014 279.1,220.73 	"/>
	<path fill="#2C373C" d="M244.5,116.425l14.232,34.986l0.476,1.167l1.259,0.074l39.288,2.344l-30.489,24.843l-0.979,0.798
		l0.299,1.229l8.962,36.724l-31.991-19.903l-1.057-0.658l-1.057,0.658l-31.991,19.901l8.962-36.724l0.295-1.208l-0.952-0.8
		l-29.627-24.858l38.405-2.343l1.257-0.077l0.474-1.166L244.5,116.425 M244.5,111.118l-16.086,39.54l-43.41,2.648l33.467,28.084
		l-10.123,41.484l36.152-22.491l36.152,22.491l-10.123-41.484l34.467-28.084l-44.41-2.648L244.5,111.118L244.5,111.118z"/>
</g>
<g>
	<g>
		<path fill="#D7DADB" d="M466,117v-1h-18V98h-1v18h-98V98h-1v18h-18v1h18v98h-18v1h18v18h1v-18h98v18h1v-18h18v-1h-18v-98H466z
			 M447,215h-98v-98h98V215z"/>
	</g>
</g>
<g>
	<path fill="#F5F7F7" d="M373,215c-13.234,0-24-10.768-24-24v-50c0-13.234,10.766-24,24-24h50c13.232,0,24,10.766,24,24v50
		c0,13.232-10.768,24-24,24H373z"/>
	<path fill="#2C373C" d="M423,118c12.684,0,23,10.318,23,23v50c0,12.684-10.316,23-23,23h-50c-12.682,0-23-10.316-23-23v-50
		c0-12.682,10.318-23,23-23H423 M423,116h-50c-13.807,0-25,11.193-25,25v50c0,13.807,11.193,25,25,25h50c13.807,0,25-11.193,25-25
		v-50C448,127.193,436.807,116,423,116L423,116z"/>
</g>
<g>
	<path fill="#D7DADB" d="M372.5,119c11.855,0,21.5,9.645,21.5,21.5c0,11.855-9.645,21.5-21.5,21.5s-21.5-9.645-21.5-21.5
		C351,128.645,360.645,119,372.5,119 M372.5,118c-12.426,0-22.5,10.074-22.5,22.5s10.074,22.5,22.5,22.5s22.5-10.074,22.5-22.5
		S384.926,118,372.5,118L372.5,118z"/>
</g>
<g>
	<path fill="#D7DADB" d="M423.5,119c11.855,0,21.5,9.645,21.5,21.5c0,11.855-9.645,21.5-21.5,21.5s-21.5-9.645-21.5-21.5
		C402,128.645,411.645,119,423.5,119 M423.5,118c-12.426,0-22.5,10.074-22.5,22.5s10.074,22.5,22.5,22.5s22.5-10.074,22.5-22.5
		S435.926,118,423.5,118L423.5,118z"/>
</g>
<g>
	<path fill="#D7DADB" d="M372.5,170c11.855,0,21.5,9.645,21.5,21.5s-9.645,21.5-21.5,21.5s-21.5-9.645-21.5-21.5
		S360.645,170,372.5,170 M372.5,169c-12.426,0-22.5,10.074-22.5,22.5s10.074,22.5,22.5,22.5s22.5-10.074,22.5-22.5
		S384.926,169,372.5,169L372.5,169z"/>
</g>
<g>
	<path fill="#D7DADB" d="M423.5,170c11.855,0,21.5,9.645,21.5,21.5s-9.645,21.5-21.5,21.5s-21.5-9.645-21.5-21.5
		S411.645,170,423.5,170 M423.5,169c-12.426,0-22.5,10.074-22.5,22.5s10.074,22.5,22.5,22.5s22.5-10.074,22.5-22.5
		S435.926,169,423.5,169L423.5,169z"/>
</g>
<g>
	<path fill="#D7DADB" d="M373,144h-1v-7h1V144z"/>
</g>
<g>
	<path fill="#D7DADB" d="M369,141v-1h7v1H369z"/>
</g>
<g>
	<path fill="#D7DADB" d="M424,144h-1v-7h1V144z"/>
</g>
<g>
	<path fill="#D7DADB" d="M420,141v-1h7v1H420z"/>
</g>
<g>
	<path fill="#D7DADB" d="M373,196h-1v-7h1V196z"/>
</g>
<g>
	<path fill="#D7DADB" d="M369,193v-1h7v1H369z"/>
</g>
<g>
	<path fill="#D7DADB" d="M424,196h-1v-7h1V196z"/>
</g>
<g>
	<path fill="#D7DADB" d="M420,193v-1h7v1H420z"/>
</g>
<g>
	<g>
		<polygon fill="#D7DADB" points="626,165 558,165 558,98 557,98 557,165 490,165 490,166 557,166 557,234 558,234 558,166 626,166 
					"/>
	</g>
</g>
<g>
	<path fill="#F5F7F7" d="M557.5,214c-26.743,0-48.5-21.757-48.5-48.5s21.757-48.5,48.5-48.5s48.5,21.757,48.5,48.5
		S584.243,214,557.5,214z"/>
	<path d="M557.5,118c26.191,0,47.5,21.309,47.5,47.5S583.691,213,557.5,213S510,191.691,510,165.5S531.309,118,557.5,118 M557.5,116
		c-27.338,0-49.5,22.162-49.5,49.5s22.162,49.5,49.5,49.5s49.5-22.162,49.5-49.5S584.838,116,557.5,116L557.5,116z"/>
</g>
<path fill="#D7DADB" d="M558,169h-1v-7h1V169z"/>
<path fill="#D7DADB" d="M554,166v-1h7v1H554z"/>
</svg>
