<svg xmlns="http://www.w3.org/2000/svg" preserveAspectRatio="xMidYMid"><path d="M3.008 2.837C5.22 3.945 7.09 3.88 7.09 3.88S6.38 1.43 8.572.345c2.192-1.086 3.7.746 3.7.746s.382-.105.667-.21c.283-.103.695-.288.695-.288l-.674 1.195 1.04-.11s-.128.186-.545.565c-.416.378-.587.574-.587.574s.15 2.95-1.418 5.22c-1.566 2.27-3.59 3.632-6.53 3.92-2.94.286-4.855-.895-4.855-.895s1.286-.072 2.105-.383c.82-.31 1.998-1.13 1.998-1.13s-1.676-.51-2.277-1.086c-.6-.573-.75-.915-.75-.915l1.653-.022S1.053 6.607.56 5.883C.064 5.16 0 4.457 0 4.457l1.272.51S.215 3.54.065 2.43C-.085 1.325.258.728.258.728s.537 1 2.75 2.11z"/></svg>