<?xml version="1.0" encoding="utf-8"?>
<!-- Generator: Adobe Illustrator 16.0.4, SVG Export Plug-In . SVG Version: 6.00 Build 0)  -->
<!DOCTYPE svg PUBLIC "-//W3C//DTD SVG 1.1//EN" "http://www.w3.org/Graphics/SVG/1.1/DTD/svg11.dtd">
<svg version="1.1" id="Шар_1" xmlns="http://www.w3.org/2000/svg" xmlns:xlink="http://www.w3.org/1999/xlink" x="0px" y="0px"
	 width="19px" height="6px" viewBox="0 0 19 6" enable-background="new 0 0 19 6" xml:space="preserve">
<g>
	<g>
		<path fill-rule="evenodd" clip-rule="evenodd" fill="#4F565A" d="M11.985,5h1V0h-1V5z M5.985,5h1V0h-1V5z M8.985,5h1V0h-1V5z
			 M2.985,4.535V0.464L0.95,2.5L2.985,4.535z M15.985,0.464v4.071L18.021,2.5L15.985,0.464z"/>
	</g>
	<g>
		<path fill-rule="evenodd" clip-rule="evenodd" fill="#FFFFFF" d="M11.985,6h1V1h-1V6z M5.985,6h1V1h-1V6z M8.985,6h1V1h-1V6z
			 M2.985,5.535V1.464L0.95,3.5L2.985,5.535z M15.985,1.464v4.071L18.021,3.5L15.985,1.464z"/>
	</g>
</g>
<g>
</g>
<g>
</g>
<g>
</g>
<g>
</g>
<g>
</g>
<g>
</g>
<g>
</g>
<g>
</g>
<g>
</g>
<g>
</g>
<g>
</g>
<g>
</g>
<g>
</g>
<g>
</g>
<g>
</g>
</svg>
