<svg xmlns="http://www.w3.org/2000/svg" preserveAspectRatio="xMidYMid" width="16" height="11" viewBox="0 0 16 11"><defs><style>.cls-2 { fill: #ffffff; }</style></defs><path d="M15.723 1.77c-.196-.84-.89-1.46-1.73-1.55C12.01 0 10.004 0 8.004 0S3.994 0 2.01.22C1.174.31.478.93.283 1.77.002 2.965 0 4.27 0 5.5s0 2.535.28 3.73c.194.84.89 1.46 1.728 1.55 1.984.22 3.99.22 5.99.22s4.008 0 5.992-.22c.838-.09 1.533-.71 1.73-1.55.278-1.195.28-2.5.28-3.73s.002-2.535-.277-3.73zM6.667 8.088V2.91l4.5 2.59-4.5 2.588z" id="path-1" class="cls-2" fill-rule="evenodd"/></svg>