<?xml version="1.0" encoding="utf-8"?>
<!-- Generator: Adobe Illustrator 16.0.4, SVG Export Plug-In . SVG Version: 6.00 Build 0)  -->
<!DOCTYPE svg PUBLIC "-//W3C//DTD SVG 1.1//EN" "http://www.w3.org/Graphics/SVG/1.1/DTD/svg11.dtd">
<svg version="1.1" id="Шар_1" xmlns="http://www.w3.org/2000/svg" xmlns:xlink="http://www.w3.org/1999/xlink" x="0px" y="0px"
	 width="134px" height="134px" viewBox="0 0 134 134" enable-background="new 0 0 134 134" xml:space="preserve">
<g>
	<g>
		<path fill-rule="evenodd" clip-rule="evenodd" fill="#ED002D" d="M96.062,63.507c-0.376-1.118-0.93-2.156-1.662-3.113
			c-1.201-1.572-2.695-2.776-4.482-3.611c-1.771-0.828-3.741-1.243-5.906-1.25v-1.982c0-3.841-7.536-7.552-16.834-7.552h-0.332
			c-9.297,0-16.834,3.711-16.834,7.552v26.229c0,3.842,7.537,7.219,16.834,7.219h0.332c9.298,0,16.834-3.377,16.834-7.219V76.08
			c0.618-0.109,1.271-0.352,1.691-0.667c0.681-0.51,0.996-0.956,1.289-1.649v2.225H87.5c2.9,0,5.146-1.326,6.738-2.791
			s2.388-3.521,2.388-6.167C96.626,65.8,96.438,64.625,96.062,63.507z M80.011,54.192c0-0.04-0.014-0.08-0.017-0.119
			c-0.115,1.554-2.476,3.172-5.983,4.113V67h0.505l3.495,1.018V77h-9v-8.982L72.381,67h0.63v-8.571
			C71.377,58.785,69.549,59,67.605,59H67.36c-6.762,0-13.124-2.545-13.33-4.927c-0.003,0.04-0.02,0.08-0.02,0.119v-0.238
			c0,0.04,0.016,0.079,0.02,0.119C54.236,51.687,60.598,49,67.36,49h0.245c6.763,0,12.212,2.687,12.389,5.073
			c0.003-0.04,0.017-0.079,0.017-0.119V54.192z M86.141,71.376c-0.59,0.521-1.344,0.62-2.13,0.635v-6.016
			c0.793,0.021,1.582,0.15,2.153,0.679c0.71,0.657,0.847,1.061,0.847,2.243C87.011,70.108,86.822,70.774,86.141,71.376z
			 M92.315,70.454c-0.693,0.981-1.114,1.378-2.325,1.563V61.991h-2.999v2.388c-0.293-0.693-0.702-1.423-1.352-1.813
			c-0.448-0.27-1.039-0.521-1.629-0.637V59c0.055-0.003,0.108-0.011,0.164-0.011c1.621,0,2.908,0.104,4.3,0.748
			c1.393,0.645,2.302,1.344,3.229,2.535c0.576,0.713,0.693,0.965,0.977,1.82s0.581,1.864,0.581,2.84
			C93.262,68.466,93.009,69.473,92.315,70.454z"/>
	</g>
</g>
<g>
</g>
<g>
</g>
<g>
</g>
<g>
</g>
<g>
</g>
<g>
</g>
<g>
</g>
<g>
</g>
<g>
</g>
<g>
</g>
<g>
</g>
<g>
</g>
<g>
</g>
<g>
</g>
<g>
</g>
</svg>
