<?xml version="1.0" encoding="utf-8"?>
<!-- Generator: Adobe Illustrator 16.0.4, SVG Export Plug-In . SVG Version: 6.00 Build 0)  -->
<!DOCTYPE svg PUBLIC "-//W3C//DTD SVG 1.1//EN" "http://www.w3.org/Graphics/SVG/1.1/DTD/svg11.dtd">
<svg version="1.1" id="Шар_1" xmlns="http://www.w3.org/2000/svg" xmlns:xlink="http://www.w3.org/1999/xlink" x="0px" y="0px"
	 width="134px" height="134px" viewBox="0 0 134 134" enable-background="new 0 0 134 134" xml:space="preserve">
<g>
	<g>
		<path fill="#ED002D" d="M84.114,55.75c-0.042,0-0.083,0.006-0.125,0.006v-3.205c0-3.841-7.536-7.552-16.833-7.552h-0.332
			c-9.297,0-16.834,3.711-16.834,7.552v26.229c0,3.842,7.537,7.219,16.834,7.219h0.332c9.297,0,16.833-3.377,16.833-7.219v-5.787
			c0.042,0,0.083,0.006,0.125,0.006c4.764,0,8.625-3.861,8.625-8.625S88.878,55.75,84.114,55.75z M75.646,74.037
			c-2.076,2.93-6.551,4.01-10.787,2.378c-4.235-1.632-6.828-5.435-6.402-9c2.076-2.931,6.211-3.49,10.336-2.419
			C74.061,66.363,76.072,70.471,75.646,74.037z M79.989,53.192c0-0.04-0.138-0.08-0.141-0.119C79.678,55.441,74.346,58,67.584,58
			h-0.245c-6.76,0-13.005-2.559-13.206-4.927c-0.003,0.04-0.144,0.08-0.144,0.119v-0.238c0,0.04,0.14,0.079,0.144,0.119
			C54.334,50.701,60.579,48,67.339,48h0.245c6.762,0,12.094,2.701,12.265,5.073c0.003-0.04,0.141-0.079,0.141-0.119V53.192z
			 M84.114,69.083c-0.043,0-0.082-0.012-0.125-0.013V59.68c0.043-0.001,0.082-0.013,0.125-0.013c2.6,0,4.708,2.107,4.708,4.708
			S86.714,69.083,84.114,69.083z M70.065,71.693c-0.62-0.479-1.284-1.345-2.039-2.229l-0.577-0.683
			c-0.203-0.221-0.393-0.458-0.708-0.764c-0.584-0.554-1.383-1.057-2.246-1.252c-0.869-0.183-1.663-0.119-2.335,0.079
			c-0.682,0.196-1.281,0.465-1.922,0.864l-0.008,0.2c1.24,0.118,2.523,0.021,3.643,0.46c0.555,0.219,1.043,0.581,1.457,1.02
			c0.402,0.445,0.804,0.946,1.231,1.399c0.857,0.898,1.75,1.871,3,2.313c1.236,0.437,2.546,0.29,3.769,0.094l-0.027-0.197
			C71.984,72.554,70.785,72.255,70.065,71.693z"/>
	</g>
</g>
<g>
</g>
<g>
</g>
<g>
</g>
<g>
</g>
<g>
</g>
<g>
</g>
<g>
</g>
<g>
</g>
<g>
</g>
<g>
</g>
<g>
</g>
<g>
</g>
<g>
</g>
<g>
</g>
<g>
</g>
</svg>
