<?xml version="1.0" encoding="utf-8"?>
<!-- Generator: Adobe Illustrator 16.0.4, SVG Export Plug-In . SVG Version: 6.00 Build 0)  -->
<!DOCTYPE svg PUBLIC "-//W3C//DTD SVG 1.1//EN" "http://www.w3.org/Graphics/SVG/1.1/DTD/svg11.dtd">
<svg version="1.1" id="Шар_1" xmlns="http://www.w3.org/2000/svg" xmlns:xlink="http://www.w3.org/1999/xlink" x="0px" y="0px"
	 width="136px" height="136px" viewBox="0 0 136 136" enable-background="new 0 0 136 136" xml:space="preserve">
<g>
	<g>
		<polygon fill-rule="evenodd" clip-rule="evenodd" fill="#D7DADB" points="136,67 68,67 68,0 67,0 67,67 0,67 0,68 67,68 67,136 
			68,136 68,68 136,68 		"/>
	</g>
</g>
<g>
	<path fill-rule="evenodd" clip-rule="evenodd" fill="#F5F7F7" d="M67.5,116C40.757,116,19,94.243,19,67.5S40.757,19,67.5,19
		S116,40.757,116,67.5S94.243,116,67.5,116z"/>
	<path d="M67.5,20C93.691,20,115,41.309,115,67.5S93.691,115,67.5,115S20,93.691,20,67.5S41.309,20,67.5,20 M67.5,18
		C40.162,18,18,40.162,18,67.5C18,94.838,40.162,117,67.5,117S117,94.838,117,67.5C117,40.162,94.838,18,67.5,18L67.5,18z"/>
</g>
<path fill-rule="evenodd" clip-rule="evenodd" fill="#D7DADB" d="M68,71h-1v-7h1V71z"/>
<path fill-rule="evenodd" clip-rule="evenodd" fill="#D7DADB" d="M64,68v-1h7v1H64z"/>
<g>
</g>
<g>
</g>
<g>
</g>
<g>
</g>
<g>
</g>
<g>
</g>
<g>
</g>
<g>
</g>
<g>
</g>
<g>
</g>
<g>
</g>
<g>
</g>
<g>
</g>
<g>
</g>
<g>
</g>
</svg>
