<?xml version="1.0" encoding="utf-8"?>
<!-- Generator: Adobe Illustrator 16.0.4, SVG Export Plug-In . SVG Version: 6.00 Build 0)  -->
<!DOCTYPE svg PUBLIC "-//W3C//DTD SVG 1.1//EN" "http://www.w3.org/Graphics/SVG/1.1/DTD/svg11.dtd">
<svg version="1.1" id="Шар_1" xmlns="http://www.w3.org/2000/svg" xmlns:xlink="http://www.w3.org/1999/xlink" x="0px" y="0px"
	 width="138px" height="141px" viewBox="0 0 138 141" enable-background="new 0 0 138 141" xml:space="preserve">
<g>
	<g>
		<path fill="#D7DADB" d="M128.174,55.034H138v-0.998h-8.443l7.736-5.583l-0.586-0.809l-8.856,6.391H82.143L69.025,13.917
			L73.475,0.31L72.524,0L68.5,12.31L64.475,0l-0.951,0.31l4.449,13.608L54.857,54.036H10.149l-8.856-6.391l-0.586,0.809l7.736,5.583
			H0v0.998h9.826l36.17,26.102l-13.68,41.84l-7.609,5.491l0.586,0.809l6.497-4.688l-5.265,16.103l0.951,0.31l5.691-17.406L69,97.735
			l34.524,24.914l6,18.351l0.95-0.31l-5.574-17.049l7.807,5.634l0.586-0.809l-8.919-6.437L91.193,81.72L128.174,55.034z
			 M126.468,55.034l-35.6,25.689l-8.399-25.689H126.468z M90.018,81.338L69,96.504L47.173,80.753l8.409-25.719h25.835L90.018,81.338
			z M68.5,15.526l12.591,38.51H55.909L68.5,15.526z M11.533,55.034H54.53l-8.208,25.104L11.533,55.034z M33.693,121.982
			L46.848,81.75l21.299,15.37L33.693,121.982z M102.997,121.037L69.853,97.12l20.49-14.786L102.997,121.037z"/>
	</g>
</g>
<g>
	<polygon fill="#F5F7F7" points="68.5,100.206 33.899,121.731 43.59,82.023 11.567,55.151 53.103,52.617 68.5,14.771 83.897,52.618 
		126.375,55.151 93.408,82.014 103.1,121.731 	"/>
	<path fill="#2C373C" d="M68.5,17.425l14.233,34.986l0.475,1.167l1.259,0.075l39.288,2.343L93.266,80.839l-0.979,0.798l0.299,1.228
		l8.962,36.724L69.557,99.686L68.5,99.028l-1.057,0.657l-31.991,19.902l8.962-36.724l0.295-1.208l-0.952-0.799L14.13,55.997
		l38.405-2.343l1.257-0.077l0.474-1.166L68.5,17.425 M68.5,12.118l-16.086,39.54l-43.41,2.648L42.471,82.39l-10.124,41.485
		L68.5,101.384l36.152,22.491L94.529,82.39l34.467-28.084l-44.41-2.648L68.5,12.118L68.5,12.118z"/>
</g>
<g>
</g>
<g>
</g>
<g>
</g>
<g>
</g>
<g>
</g>
<g>
</g>
<g>
</g>
<g>
</g>
<g>
</g>
<g>
</g>
<g>
</g>
<g>
</g>
<g>
</g>
<g>
</g>
<g>
</g>
</svg>
