<?xml version="1.0" encoding="utf-8"?>
<!-- Generator: Adobe Illustrator 16.0.4, SVG Export Plug-In . SVG Version: 6.00 Build 0)  -->
<!DOCTYPE svg PUBLIC "-//W3C//DTD SVG 1.1//EN" "http://www.w3.org/Graphics/SVG/1.1/DTD/svg11.dtd">
<svg version="1.1" id="Шар_1" xmlns="http://www.w3.org/2000/svg" xmlns:xlink="http://www.w3.org/1999/xlink" x="0px" y="0px"
	 width="158px" height="147px" viewBox="0 0 158 147" enable-background="new 0 0 158 147" xml:space="preserve">
<g>
	<g>
		<path fill="#D7DADB" d="M157.306,85.363L156.8,84.5l-27.747,16.274v-54.1L155.8,62.362l0.506-0.862l-27.253-15.985V24.931h-1
			v19.998L79.541,16.475l25.765-15.112L104.8,0.5L78.553,15.895L52.306,0.5L51.8,1.362l25.765,15.112L30.053,44.342V24.931h-1
			v19.998L0.8,61.5l0.506,0.862l27.747-16.275v54.101L2.306,84.5L1.8,85.363l27.253,15.984v20.584h1v-19.997l48.511,28.454
			L52.8,145.5l0.506,0.863l26.247-15.395l26.247,15.395l0.506-0.863l-25.764-15.111l47.511-27.867v19.41h1v-19.997L157.306,85.363z
			 M79.553,129.809l-49.5-29.034V45.501l48.5-28.447l49.5,29.034v55.274L79.553,129.809z"/>
	</g>
</g>
<g>
	<polygon fill="#F5F7F7" points="30.06,101.772 30.06,45.105 79.053,16.774 128.045,45.105 128.045,101.772 79.053,130.104 	"/>
	<path fill="#2C373C" d="M79.053,17.93l47.992,27.753v55.514l-47.992,27.753L31.06,101.196V45.683L79.053,17.93 M79.053,15.619
		L29.06,44.529v57.821l49.993,28.91l49.992-28.91V44.529L79.053,15.619L79.053,15.619z"/>
</g>
<g>
</g>
<g>
</g>
<g>
</g>
<g>
</g>
<g>
</g>
<g>
</g>
<g>
</g>
<g>
</g>
<g>
</g>
<g>
</g>
<g>
</g>
<g>
</g>
<g>
</g>
<g>
</g>
<g>
</g>
</svg>
