<svg width="32" height="32" viewBox="0 0 32 32" fill="none" xmlns="http://www.w3.org/2000/svg">
<rect width="32" height="32" fill="white"/>
<path opacity="0.8" fill-rule="evenodd" clip-rule="evenodd" d="M32 0H0V32H32V0ZM24 13.8214C24 11.6614 23.065 10.1371 21.5492 9.14714L21.7928 6L18.6903 8.00857C17.7057 7.79286 16.6291 7.69 15.5 7.69C14.3667 7.69 13.2857 7.78857 12.2983 8L9.20717 6L9.45083 9.12143C7.935 10.1 7 11.6286 7 13.82C7 17.6429 9.83617 19.4357 13.63 19.8571L10.7301 24.0857C10.7301 24.0857 11.7798 26 15.5 26C19.2258 26 20.26 24.0857 20.26 24.0857L17.3601 19.8529C21.1582 19.4214 24 17.5814 24 13.8214Z" fill="#040918"/>
</svg>
