<svg width="32" height="32" viewBox="0 0 32 32" fill="none" xmlns="http://www.w3.org/2000/svg">
<rect width="32" height="32" fill="white"/>
<path opacity="0.8" fill-rule="evenodd" clip-rule="evenodd" d="M32 0H0V32H32V0ZM8.01354 11.4427C8.1877 11.5988 8.27664 11.828 8.25303 12.06V20.4109C8.30471 20.7122 8.20922 21.0199 7.9958 21.2399L6 23.6473V23.9647H11.6592V23.6473L9.6634 21.2399C9.44842 21.0203 9.34701 20.7146 9.38842 20.4109V13.1887L14.3557 23.9647H14.9323L19.1989 13.1887V21.7778C19.1989 22.0071 19.1989 22.0511 19.0481 22.2011L17.5135 23.6825V24H24.9645V23.6825L23.4832 22.2363C23.3524 22.1372 23.2876 21.9743 23.3147 21.8131V11.1869C23.2876 11.0257 23.3524 10.8628 23.4832 10.7637L25 9.31746V9H19.7488L16.0056 18.2857L11.7479 9H6.2395V9.31746L8.01354 11.4427Z" fill="#040918"/>
</svg>
