<svg width="32" height="32" viewBox="0 0 32 32" fill="none" xmlns="http://www.w3.org/2000/svg">
<rect width="32" height="32" fill="white"/>
<g opacity="0.8">
<path d="M15.9985 19.3324C14.1568 19.3324 12.6643 17.8399 12.6643 15.9982C12.6643 14.1565 14.1568 12.6641 15.9985 12.6641C17.8402 12.6641 19.3326 14.1565 19.3326 15.9982C19.3326 17.8399 17.8402 19.3324 15.9985 19.3324Z" fill="#040918"/>
<path fill-rule="evenodd" clip-rule="evenodd" d="M20.0391 7.86156C18.9833 7.81393 18.6697 7.80202 15.9984 7.80202C13.3271 7.80202 13.0136 7.80996 11.9578 7.86156C10.9813 7.90522 10.4534 8.07192 10.1002 8.20688C9.63182 8.38549 9.29841 8.6038 8.94912 8.95309C8.59983 9.30238 8.38549 9.63579 8.20291 10.1042C8.06398 10.4574 7.90125 10.9853 7.85759 11.9617C7.80996 13.0175 7.79805 13.3311 7.79805 16.0024C7.79805 18.6737 7.80996 18.9872 7.85759 20.043C7.90125 21.0195 8.06795 21.5474 8.20291 21.9006C8.38152 22.369 8.59983 22.7024 8.94912 23.0517C9.29841 23.401 9.63182 23.6153 10.1002 23.7979C10.4534 23.9368 10.9813 24.0996 11.9578 24.1432C13.0136 24.1909 13.3271 24.2028 15.9984 24.2028C18.6697 24.2028 18.9833 24.1909 20.0391 24.1432C21.0155 24.0996 21.5434 23.9329 21.8967 23.7979C22.365 23.6193 22.6984 23.401 23.0477 23.0517C23.397 22.7024 23.6113 22.369 23.7939 21.9006C23.9329 21.5474 24.0956 21.0195 24.1393 20.043C24.1869 18.9872 24.1988 18.6737 24.1988 16.0024C24.1988 13.3311 24.1869 13.0175 24.1393 11.9617C24.0956 10.9853 23.9289 10.4574 23.7939 10.1042C23.6153 9.63579 23.397 9.30238 23.0477 8.95309C22.6984 8.6038 22.365 8.38946 21.8967 8.20688C21.5434 8.06795 21.0155 7.90522 20.0391 7.86156ZM15.9985 10.8621C13.1645 10.8621 10.8623 13.1603 10.8623 15.9982C10.8623 18.8362 13.1645 21.1344 15.9985 21.1344C18.8325 21.1344 21.1346 18.8322 21.1346 15.9982C21.1346 13.1642 18.8325 10.8621 15.9985 10.8621ZM22.5357 10.6601C22.5357 11.3221 21.999 11.8588 21.337 11.8588C20.675 11.8588 20.1383 11.3221 20.1383 10.6601C20.1383 9.99803 20.675 9.46136 21.337 9.46136C21.999 9.46136 22.5357 9.99803 22.5357 10.6601Z" fill="#040918"/>
<path fill-rule="evenodd" clip-rule="evenodd" d="M32 0H0V32H32V0ZM11.8744 6.05954C12.9421 6.01191 13.2835 6 15.9984 6C18.7134 6 19.0547 6.01191 20.1264 6.05557C21.1941 6.1032 21.9205 6.27387 22.5555 6.51997C23.2105 6.77796 23.7701 7.11932 24.3258 7.675C24.8815 8.23069 25.2268 8.78638 25.4808 9.44527C25.7269 10.0843 25.8976 10.8107 25.9452 11.8744C25.9929 12.9421 26.0048 13.2795 26.0048 15.9984C26.0048 18.7173 25.9929 19.0547 25.9452 20.1224C25.8976 21.1901 25.7269 21.9165 25.4808 22.5516C25.2228 23.2065 24.8815 23.7661 24.3258 24.3218C23.7701 24.8775 23.2144 25.2228 22.5555 25.4769C21.9165 25.723 21.1901 25.8936 20.1264 25.9413C19.0587 25.9889 18.7213 26.0008 16.0024 26.0008C13.2835 26.0008 12.9461 25.9889 11.8784 25.9413C10.8107 25.8936 10.0843 25.723 9.44924 25.4769C8.79432 25.2189 8.23466 24.8775 7.67897 24.3218C7.12328 23.7661 6.77796 23.2105 6.52393 22.5516C6.27784 21.9125 6.10717 21.1862 6.05954 20.1224C6.01191 19.0547 6 18.7134 6 15.9984C6 13.2835 6.01191 12.9421 6.05954 11.8784C6.10717 10.8107 6.27784 10.0843 6.52393 9.44924C6.78193 8.79432 7.12328 8.23466 7.67897 7.67897C8.23466 7.12328 8.79035 6.77796 9.44924 6.52393C10.0843 6.27784 10.8107 6.10717 11.8744 6.05954Z" fill="#040918"/>
</g>
</svg>
