<svg width="32" height="32" viewBox="0 0 32 32" fill="none" xmlns="http://www.w3.org/2000/svg">
<rect width="32" height="32" fill="white"/>
<g opacity="0.8">
<path d="M14.1671 11.9682V19.0291L20.3546 15.5L14.1671 11.9682Z" fill="#040918"/>
<path fill-rule="evenodd" clip-rule="evenodd" d="M32 0H0V32H32V0ZM24.2404 8.3C25.3954 8.42273 26.3496 9.26818 26.6191 10.4136C27 12.0317 27 13.7976 27 15.4644V15.5C27 17.1773 26.9972 18.9568 26.615 20.5864C26.3441 21.7318 25.3885 22.5773 24.2362 22.7C21.5082 23 18.7472 23 15.9973 23C13.2473 23 10.489 23 7.761 22.7C6.60875 22.5773 5.65175 21.7318 5.385 20.5864C5 18.9568 5 17.1773 5 15.5C5 13.8227 5.00275 12.0432 5.38912 10.4136C5.65725 9.26818 6.61425 8.42273 7.76375 8.3C10.4917 8 13.2555 8 16.0055 8C18.7555 8 21.5138 8 24.2404 8.3Z" fill="#040918"/>
</g>
</svg>
