<svg width="32" height="32" viewBox="0 0 32 32" fill="none" xmlns="http://www.w3.org/2000/svg">
<rect width="32" height="32" fill="white"/>
<g opacity="0.8">
<path d="M17.0797 13.5762V13.6155H17.0543C17.0582 13.6089 17.0629 13.6019 17.0676 13.5949C17.0718 13.5886 17.076 13.5823 17.0797 13.5762Z" fill="#040918"/>
<path fill-rule="evenodd" clip-rule="evenodd" d="M32 0H0V32H32V0ZM25 24V17.0358C25 13.3052 23.0965 11.5693 20.5574 11.5693C18.508 11.5693 17.5924 12.7498 17.0797 13.5762V11.8547H13.2208C13.2728 12.9949 13.2208 24 13.2208 24H17.0801V17.2173C17.0801 16.8539 17.1063 16.4925 17.208 16.2329C17.4871 15.5067 18.1215 14.7559 19.1875 14.7559C20.584 14.7559 21.142 15.8699 21.142 17.5022V24H25ZM7 8.09802C7 6.90626 7.86356 6 9.18381 6C10.5042 6 11.3158 6.90626 11.3412 8.09802C11.3412 9.26398 10.5042 10.1976 9.15837 10.1976H9.13259C7.83857 10.1976 7 9.26381 7 8.09802ZM11.087 24H7.22921V11.8547H11.087V24Z" fill="#040918"/>
</g>
</svg>
