<svg width="22" height="26" viewBox="0 0 22 26" fill="none" xmlns="http://www.w3.org/2000/svg">
<path d="M22.0001 9.20457V15.5944C22.0001 16.4964 21.2944 17.2276 20.421 17.2276C19.5515 17.2276 18.8458 16.4964 18.8458 15.5944V9.20457C18.8458 8.30253 19.5476 7.57136 20.421 7.57136C21.2944 7.57136 22.0001 8.30253 22.0001 9.20457ZM2.46585 7.57136C1.59636 7.57136 0.890625 8.30253 0.890625 9.20457V15.5904C0.890625 16.4924 1.59636 17.2276 2.46585 17.2276C3.34313 17.2276 4.04496 16.4924 4.04496 15.5904V9.20457C4.04496 8.30253 3.34313 7.57136 2.46585 7.57136ZM4.40093 19.286C4.40093 19.9814 4.9546 20.5417 5.63304 20.5417H7.04059V24.0982C7.04059 25.0003 7.75023 25.7314 8.61971 25.7314C9.4931 25.7314 10.1988 25.0003 10.1988 24.0982V20.5417H12.6552V24.0982C12.6552 25.0003 13.3648 25.7314 14.2343 25.7314C15.1077 25.7314 15.8134 25.0003 15.8134 24.0982V20.5417H17.221C17.8994 20.5417 18.4531 19.9854 18.4531 19.29V7.61904H4.40093V19.286ZM18.418 7.29914H4.36974C4.553 5.12549 5.99956 3.26974 8.06605 2.2922L6.76765 0.3689C6.68967 0.257635 6.70918 0.106632 6.80665 0.0351042C6.90803 -0.0324497 7.05229 -0.000659535 7.13417 0.114579L8.47934 2.10941C9.36833 1.75177 10.3548 1.55308 11.3958 1.55308C12.4369 1.55308 13.4194 1.75177 14.3123 2.10941L15.6575 0.114579C15.7394 -0.000659535 15.8836 -0.0324497 15.985 0.0351042C16.0825 0.106632 16.102 0.257635 16.024 0.3689L14.7256 2.2922C16.7882 3.26974 18.2387 5.12549 18.418 7.29914ZM9.21235 4.52148C9.21235 4.08437 8.86144 3.73467 8.43255 3.73467C8.00365 3.73467 7.65274 4.08834 7.65274 4.52148C7.65274 4.96257 8.00365 5.31623 8.43255 5.31623C8.86144 5.31623 9.21235 4.96257 9.21235 4.52148ZM15.2325 4.52148C15.2325 4.08437 14.8855 3.73467 14.4566 3.73467C14.0277 3.73467 13.6807 4.08834 13.6807 4.52148C13.6807 4.96257 14.0277 5.31623 14.4566 5.31623C14.8855 5.31623 15.2325 4.96257 15.2325 4.52148Z" fill="#111B39"/>
</svg>
