<svg width="54" height="66" viewBox="0 0 54 66" fill="none" xmlns="http://www.w3.org/2000/svg">
<path d="M53.2465 24.0164V40.134C53.2465 42.4093 51.4663 44.2536 49.2633 44.2536C47.0701 44.2536 45.29 42.4093 45.29 40.134V24.0164C45.29 21.7411 47.0603 19.8968 49.2633 19.8968C51.4663 19.8968 53.2465 21.7411 53.2465 24.0164ZM3.97333 19.8968C1.78014 19.8968 0 21.7411 0 24.0164V40.1239C0 42.3993 1.78014 44.2536 3.97333 44.2536C6.18619 44.2536 7.95648 42.3993 7.95648 40.1239V24.0164C7.95648 21.7411 6.18619 19.8968 3.97333 19.8968ZM8.85437 49.4457C8.85437 51.1998 10.2509 52.6131 11.9622 52.6131H15.5126V61.584C15.5126 63.8593 17.3026 65.7036 19.4958 65.7036C21.6988 65.7036 23.4789 63.8593 23.4789 61.584V52.6131H29.6749V61.584C29.6749 63.8593 31.4648 65.7036 33.658 65.7036C35.861 65.7036 37.6412 63.8593 37.6412 61.584V52.6131H41.1916C42.9029 52.6131 44.2994 51.2098 44.2994 49.4557V20.017H8.85437V49.4457ZM44.2109 19.2101H8.7757C9.23794 13.7273 12.8867 9.04641 18.0992 6.58065L14.8242 1.72934C14.6275 1.44868 14.6767 1.0678 14.9225 0.887375C15.1783 0.716977 15.5421 0.797165 15.7487 1.08784L19.1417 6.11958C21.3841 5.21747 23.8723 4.71631 26.4982 4.71631C29.1242 4.71631 31.6025 5.21747 33.8547 6.11958L37.2478 1.08784C37.4543 0.797165 37.8182 0.716977 38.0739 0.887375C38.3198 1.0678 38.369 1.44868 38.1723 1.72934L34.8973 6.58065C40.0999 9.04641 43.7585 13.7273 44.2109 19.2101ZM20.9907 12.2038C20.9907 11.1012 20.1055 10.2191 19.0237 10.2191C17.9418 10.2191 17.0567 11.1112 17.0567 12.2038C17.0567 13.3164 17.9418 14.2085 19.0237 14.2085C20.1055 14.2085 20.9907 13.3164 20.9907 12.2038ZM36.1758 12.2038C36.1758 11.1012 35.3005 10.2191 34.2186 10.2191C33.1368 10.2191 32.2615 11.1112 32.2615 12.2038C32.2615 13.3164 33.1368 14.2085 34.2186 14.2085C35.3005 14.2085 36.1758 13.3164 36.1758 12.2038Z" fill="#111B39"/>
</svg>
