<svg width="23" height="27" viewBox="0 0 23 27" fill="none" xmlns="http://www.w3.org/2000/svg">
<path d="M18.766 13.8403C18.7329 10.5415 21.4743 8.95947 21.5968 8.88086C20.0564 6.64186 17.657 6.33514 16.8019 6.29968C14.7599 6.0943 12.8174 7.49391 11.7811 7.49391C10.7473 7.49391 9.14813 6.33005 7.45457 6.36063C5.22883 6.39349 3.17656 7.64618 2.0305 9.62628C-0.282003 13.6123 1.43828 19.5174 3.69219 22.7501C4.79354 24.3325 6.10682 26.1098 7.83111 26.0463C9.49158 25.9805 10.1195 24.979 12.127 24.979C14.1344 24.979 14.6988 26.0463 16.456 26.0135C18.2428 25.9806 19.3748 24.4008 20.4686 22.8136C21.7333 20.9778 22.2541 19.2005 22.2848 19.1093C22.2451 19.0913 18.8005 17.7805 18.766 13.8403ZM15.4642 4.15958C16.3794 3.05666 16.9971 1.5265 16.8286 0C15.5104 0.0533168 13.9125 0.872249 12.9667 1.97267C12.118 2.94886 11.3751 4.5069 11.5742 6.00287C13.0459 6.11694 14.5481 5.26 15.4642 4.15958Z" fill="#111B39"/>
</svg>
