<svg width="54" height="67" viewBox="0 0 54 67" fill="none" xmlns="http://www.w3.org/2000/svg">
<path d="M44.9828 35.6338C44.8994 27.313 51.8142 23.3224 52.1231 23.1242C48.2378 17.4765 42.1854 16.7028 40.0286 16.6134C34.8778 16.0953 29.9782 19.6257 27.3641 19.6257C24.7566 19.6257 20.7227 16.69 16.4509 16.7671C10.8367 16.85 5.6601 20.0098 2.76929 25.0044C-3.06375 35.0588 1.27548 49.9536 6.96072 58.1078C9.73875 62.0993 13.0514 66.5822 17.4007 66.4221C21.5891 66.256 23.1729 63.7299 28.2366 63.7299C33.3002 63.7299 34.7237 66.4221 39.156 66.3394C43.663 66.2563 46.5185 62.2716 49.2774 58.268C52.4675 53.6375 53.7811 49.1544 53.8586 48.9243C53.7585 48.8789 45.0699 45.5725 44.9828 35.6338ZM36.6544 11.2152C38.9629 8.43324 40.521 4.57357 40.0959 0.723145C36.7708 0.85763 32.7403 2.9233 30.3546 5.699C28.214 8.16132 26.3401 12.0913 26.8423 15.8647C30.5543 16.1525 34.3435 13.9909 36.6544 11.2152Z" fill="#111B39"/>
</svg>
