<svg width="54" height="86" viewBox="0 0 54 86" fill="none" xmlns="http://www.w3.org/2000/svg">
<path d="M37.3304 43.603L34.8181 70.2886H39.4045C42.782 70.2886 43.8085 71.5691 44.1414 73.4016L46.2249 82.6512C46.5292 84.7121 44.8655 85.7642 41.488 85.7642H11.9866C8.60905 85.7642 7.20629 84.3994 7.69427 82.6512L9.77777 73.4016C10.6648 71.4237 11.1371 70.2886 14.5146 70.2886H17.8611L15.3488 43.603H10.349C3.42304 43.603 0 39.6709 0 33.4516V33.2994L2.60235 10.6568L2.63244 10.5214C3.99861 4.38065 6.9882 0.946533 12.9181 0.946533H40.1838C46.1079 0.946533 48.8838 4.27216 50.2741 10.5214L50.3042 10.6568L52.8744 33.0192C54.1501 39.1149 49.9675 43.603 42.753 43.603H37.3304ZM42.753 42.2889C49.2061 42.2889 52.7225 38.4951 51.5903 33.2334L49.0288 10.9463L49.0058 10.8097C47.7334 5.09065 45.3712 2.26061 40.1838 2.26061H12.9181C7.70924 2.26061 5.14831 5.20236 3.90082 10.8097L3.87781 10.9463L1.30865 33.2999L1.29999 33.4516C1.29999 38.9799 4.18063 42.2889 10.349 42.2889H42.753ZM40.1838 3.57466C45.2715 3.57466 46.8145 6.94958 47.7375 11.098L50.3066 33.4516C51.2295 37.5999 48.7635 40.9749 42.753 40.9749H10.349C4.33842 40.9749 2.59997 37.5999 2.59997 33.4516L5.16913 11.098C6.09205 6.94958 7.83049 3.57466 12.9181 3.57466H40.1838Z" fill="#111B39"/>
</svg>
