<svg width="75" height="59" viewBox="0 0 75 59" fill="none" xmlns="http://www.w3.org/2000/svg">
<path fill-rule="evenodd" clip-rule="evenodd" d="M41.1834 5.0125H33.5275C33.3137 5.0125 33.1407 4.83863 33.1407 4.62372V0.917244C33.1407 0.612997 33.3866 0.365872 33.6893 0.365872L35.8453 0.176745C36.9049 0.0841822 37.9709 0.0858007 39.0297 0.183192L41.0224 0.365872C41.3251 0.365872 41.571 0.612997 41.571 0.917244V4.62372C41.5702 4.83782 41.3972 5.0125 41.1834 5.0125ZM11.1975 20.2562H33.1399V18.0951C23.0965 18.1675 13.8829 18.747 11.1975 20.2562ZM41.5702 18.1434V20.2562H63.8033C60.9065 18.9748 51.6112 18.3285 41.5702 18.1434ZM33.1399 20.2562V7.63239C33.1399 6.91604 33.7181 6.33491 34.4309 6.33491H40.2791C40.9919 6.33491 41.5702 6.91604 41.5702 7.63239V20.2562H33.1399ZM63.318 58.7361H14.1336C3.76346 58.7361 0 52.978 0 46.8971V34.0157C0 23.4049 5.61515 20.2562 11.1967 20.2562H63.8033C69.3848 20.2562 75 24.0231 75 35.1739V44.5815C75.0008 54.5878 69.1686 58.7361 63.318 58.7361ZM61.7789 57.1264C67.3394 57.1264 72.8824 53.265 72.8816 43.9511V35.1945C72.8816 24.8152 67.5449 21.309 62.2402 21.309H12.2424C6.93769 21.309 1.60101 24.2398 1.60101 34.1164V46.1065C1.60101 51.7667 5.17783 57.1264 15.0337 57.1264H61.7789ZM62.3175 55.9047H15.0622C5.52248 55.9047 2.70592 50.5012 2.70592 45.3037V34.2945C2.70592 25.2257 7.16268 22.3467 12.2981 22.3467H62.7019C67.8373 22.3467 72.0285 25.8093 72.0285 35.3398V43.3806C72.0285 51.9332 67.6999 55.9047 62.3175 55.9047Z" fill="#111B39"/>
</svg>
