<svg width="62" height="56" viewBox="0 0 62 56" fill="none" xmlns="http://www.w3.org/2000/svg">
<path fill-rule="evenodd" clip-rule="evenodd" d="M62 53.3711C62 54.5992 61.0086 55.5948 59.7857 55.5948H2.21429C0.99137 55.5948 0 54.5992 0 53.3711V14.4547H62V53.3711ZM2.21429 0H59.7857C61.0086 0 62 0.995626 62 2.22379V13.3428H0V2.22379C0 0.995626 0.99137 0 2.21429 0ZM8.85714 8.89518C10.0801 8.89518 11.0714 7.89955 11.0714 6.67138C11.0714 5.44321 10.0801 4.44759 8.85714 4.44759C7.63423 4.44759 6.64286 5.44321 6.64286 6.67138C6.64286 7.89955 7.63423 8.89518 8.85714 8.89518ZM16.6071 8.89518C17.8301 8.89518 18.8214 7.89955 18.8214 6.67138C18.8214 5.44321 17.8301 4.44759 16.6071 4.44759C15.3842 4.44759 14.3929 5.44321 14.3929 6.67138C14.3929 7.89955 15.3842 8.89518 16.6071 8.89518ZM24.3571 8.89518C25.5801 8.89518 26.5714 7.89955 26.5714 6.67138C26.5714 5.44321 25.5801 4.44759 24.3571 4.44759C23.1342 4.44759 22.1429 5.44321 22.1429 6.67138C22.1429 7.89955 23.1342 8.89518 24.3571 8.89518ZM25.7812 29.6394V27.8033L17.1875 32.8278V34.2295L25.7812 39.254V37.4179L18.8672 33.6076V33.4497L25.7812 29.6394ZM29.4531 42.4523L34.6289 24.5557H33.1445L27.9688 42.4523H29.4531ZM36.8164 29.6394L43.7305 33.4497V33.6076L36.8164 37.4179V39.254L45.4102 34.2295V32.8278L36.8164 27.8033V29.6394Z" fill="#111B39"/>
</svg>
