<svg width="49" height="87" viewBox="0 0 49 87" fill="none" xmlns="http://www.w3.org/2000/svg">
<path fill-rule="evenodd" clip-rule="evenodd" d="M45.8749 28.936H46.8733C48.0042 28.936 48.9249 29.8694 48.9249 31.0163V36.9566C48.9249 38.1035 48.0042 39.0369 46.8733 39.0369H45.8749V59.0738C45.8749 62.7283 44.1446 65.9726 41.4795 68.035L41.4821 68.0384C40.4236 68.8466 37.9133 71.0689 37.4608 74.2386C36.8452 78.5447 36.8373 81.7194 36.8373 81.7508C36.8304 81.8343 36.4424 84.8171 33.0819 85.4436C33.0427 85.4533 29.3867 86.3217 23.4314 86.3217C20.4389 86.3217 16.8658 86.1024 12.8793 85.4454C9.4962 84.8874 9.1204 81.8321 9.11691 81.8012C9.11678 81.797 9.11663 81.7848 9.11639 81.7647C9.11191 81.3923 9.07503 78.3249 8.49086 74.2386C8.10514 71.5425 6.25218 69.551 5.02799 68.4979C2.0037 66.48 0 63.0119 0 59.0738V28.2086C0 24.4751 1.80555 21.1692 4.56946 19.1151C5.70003 18.2203 7.98951 16.0743 8.42111 13.0509C9.03757 8.73991 9.04454 5.57014 9.04454 5.53874C9.05152 5.45518 9.43953 2.47243 12.8008 1.84635C12.8584 1.83132 21.0833 -0.120775 33.0026 1.84458C36.3857 2.40213 36.7615 5.45739 36.765 5.48834C36.7651 5.49252 36.7653 5.50476 36.7655 5.52481C36.77 5.89738 36.8069 8.9651 37.391 13.0509C37.7755 15.7389 39.6183 17.7258 40.8425 18.7815C43.8693 20.7992 45.8749 24.2687 45.8749 28.2086V28.936ZM34.7534 69.4471C40.3931 69.4471 44.9821 64.7934 44.9821 59.0738V28.2086C44.9821 24.8633 43.4057 21.8913 40.9742 19.993L40.9476 20.0293C40.7658 19.8925 40.542 19.7137 40.2967 19.5033C38.6976 18.4522 36.7966 17.8349 34.7534 17.8349H11.1215C8.88258 17.8349 6.81589 18.577 5.12946 19.8194C5.1025 19.8407 5.0742 19.864 5.04597 19.8872C5.00836 19.9182 4.97087 19.949 4.93687 19.9749L4.93241 19.9689C2.48304 21.8659 0.892857 24.8489 0.892857 28.2086V59.0738C0.892857 62.4226 2.4728 65.3973 4.90875 67.2951L4.93426 67.2602C5.11279 67.3945 5.33197 67.5695 5.57186 67.7749C7.17229 68.8284 9.0756 69.4471 11.1215 69.4471H34.7534ZM46.8733 38.1314C47.5124 38.1314 48.0321 37.6043 48.0321 36.9566V31.0163C48.0321 30.3685 47.5124 29.8415 46.8733 29.8415H45.8749V38.1314H46.8733ZM10.8204 19.1629H34.6588C39.522 19.1629 43.4792 23.2046 43.4792 28.1726V58.9857C43.4792 63.9537 39.522 67.9954 34.6588 67.9954H10.8204C5.95726 67.9954 2 63.9537 2 58.9857V28.1726C2 23.2046 5.95726 19.1629 10.8204 19.1629Z" fill="#111B39"/>
</svg>
