<?xml version="1.0" encoding="UTF-8" standalone="no"?>
<svg width="19px" height="20px" viewBox="0 0 19 20" version="1.1" xmlns="http://www.w3.org/2000/svg" xmlns:xlink="http://www.w3.org/1999/xlink" xmlns:sketch="http://www.bohemiancoding.com/sketch/ns">
    <!-- Generator: bin/sketchtool 1.4 (305) - http://www.bohemiancoding.com/sketch -->
    <title>icon_search</title>
    <desc>Created with bin/sketchtool.</desc>
    <defs></defs>
    <g id="Page-1" stroke="none" stroke-width="1" fill="none" fill-rule="evenodd" sketch:type="MSPage">
        <g id="blog" sketch:type="MSArtboardGroup" transform="translate(-16.000000, -108.000000)" fill="#F5F7F6">
            <path d="M30.4787759,121.105886 C31.404286,119.798489 31.9578101,118.196665 31.9578101,116.461451 C31.9578101,116.372524 31.9458375,116.287302 31.9321943,116.202651 C31.946116,116.116859 31.9580886,116.030212 31.9580886,115.93986 C31.9580886,111.561921 28.4785158,108 24.2017904,108 C24.1257783,108 24.0525505,108.012256 23.9793227,108.022802 C23.9055381,108.012256 23.8328671,108 23.756855,108 C19.4798512,108 16.0002784,111.561921 16.0002784,115.93986 C16.0002784,116.028787 16.0119726,116.114009 16.0258942,116.198945 C16.0116942,116.284737 16,116.371099 16,116.461451 C16,120.83939 19.4792943,124.401596 23.7562982,124.401596 C23.8323103,124.401596 23.9052596,124.38934 23.9790443,124.378509 C24.0522721,124.38934 24.124943,124.401596 24.2012335,124.401596 C25.6513107,124.401596 27.0053287,123.984324 28.1675065,123.272054 L32.3275687,127.530569 C32.6335661,127.843808 33.0339523,128 33.4346169,128 C33.8352814,128 34.2362244,127.843523 34.5416651,127.530569 C35.1528247,126.904945 35.1528247,125.890552 34.5413866,125.264643 L30.4787759,121.105886 Z M23.9790443,121.21961 C23.9052596,121.208779 23.8325887,121.196523 23.7562982,121.196523 C21.2058551,121.196523 19.1309751,119.072538 19.1309751,116.461736 C19.1309751,116.372809 19.1192809,116.287587 19.1053593,116.202936 C19.1195593,116.117144 19.1312535,116.030497 19.1312535,115.940145 C19.1312535,113.329343 21.206412,111.205358 23.756855,111.205358 C23.8325887,111.205358 23.9055381,111.193387 23.9793227,111.182842 C24.0525505,111.193387 24.1254998,111.205358 24.2017904,111.205358 C26.7522334,111.205358 28.8271135,113.329343 28.8271135,115.940145 C28.8271135,116.029072 28.8390861,116.114294 28.8527293,116.19923 C28.8388076,116.285022 28.8265566,116.371384 28.8265566,116.461736 C28.8265566,119.072538 26.7516765,121.196523 24.2012335,121.196523 C24.124943,121.196523 24.0519936,121.208779 23.9790443,121.21961 L23.9790443,121.21961 Z" id="icon_search" sketch:type="MSShapeGroup"></path>
        </g>
    </g>
</svg>