<?xml version="1.0" encoding="utf-8"?>
<!-- Generator: Adobe Illustrator 16.0.4, SVG Export Plug-In . SVG Version: 6.00 Build 0)  -->
<!DOCTYPE svg PUBLIC "-//W3C//DTD SVG 1.1//EN" "http://www.w3.org/Graphics/SVG/1.1/DTD/svg11.dtd">
<svg version="1.1" id="Шар_1" xmlns="http://www.w3.org/2000/svg" xmlns:xlink="http://www.w3.org/1999/xlink" x="0px" y="0px"
	 width="195.456px" height="39.105px" viewBox="0 0 195.456 39.105" enable-background="new 0 0 195.456 39.105"
	 xml:space="preserve">
<g>
	<g>
		<path fill="#2C373C" d="M3.745,20.474c0-1.091,0.973-1.475,2.212-1.475c1.445,0,2.653,0.383,3.745,0.855V17.23
			c-1.062-0.413-2.389-0.678-3.863-0.678c-3.214,0-5.101,1.74-5.101,4.099c0,4.629,6.546,3.715,6.546,6.31
			c0,1.238-1.15,1.74-2.625,1.74c-1.474,0-2.742-0.502-3.715-1.121L0,29.85c1.062,0.648,2.742,1.297,4.806,1.297
			c2.949,0,5.514-1.267,5.514-4.245C10.32,22.065,3.745,23.009,3.745,20.474z M18.617,28.641c-0.914,0-1.386-0.501-1.386-1.769
			v-7.549h3.42l0.766-2.418h-4.187v-4.157l-3.067,0.943v3.214h-2.447v2.418h2.447v8.227c0,2.27,1.386,3.597,3.715,3.597
			c1.386,0,2.919-0.412,3.892-1.091l-0.973-2.123C20.239,28.316,19.472,28.641,18.617,28.641z M30.045,12.63
			c0.561,0,1.121,0.147,1.681,0.354l0.619-2.447c-0.855-0.383-1.828-0.56-2.683-0.56c-2.536,0-4.481,1.504-4.481,4.835v2.093h-2.005
			v2.418h2.005v11.529h3.066V19.323h2.831l0.767-2.418h-3.597v-2.152C28.247,13.396,28.807,12.63,30.045,12.63z M44.445,21.534
			c0-3.39-1.946-4.982-5.396-4.982c-1.828,0-3.597,0.442-5.249,1.386l1.062,2.035c0.973-0.56,2.241-1.032,3.715-1.032
			c1.651,0,2.801,0.767,2.801,2.594v0.59l-2.506,0.089c-1.416,0.06-2.595,0.235-3.568,0.737c-1.416,0.707-2.329,1.916-2.329,3.773
			c0,2.684,1.917,4.423,4.541,4.423c1.74,0,3.037-0.736,4.069-1.71l0.501,1.416h2.624c-0.206-0.737-0.265-1.946-0.265-3.951V21.534z
			 M41.378,27.373c-0.561,0.501-1.622,1.327-3.037,1.327c-1.386,0-2.271-0.826-2.271-2.152c0-0.797,0.324-1.416,0.973-1.77
			c0.531-0.295,1.238-0.442,2.241-0.472l2.094-0.089V27.373z M51.825,28.376c-0.678,0-1.032-0.295-1.032-1.327V9.977h-3.067v17.927
			c0,2.035,1.062,3.155,3.214,3.155c0.737,0,1.651-0.147,2.388-0.472l-0.619-2.389C52.444,28.287,52.031,28.376,51.825,28.376z
			 M61.781,28.641c-2.536,0-4.187-1.71-4.187-4.747c0-2.771,1.651-4.836,4.364-4.836c1.356,0,2.418,0.384,3.391,1.032v-2.624
			c-0.796-0.472-2.035-0.914-3.686-0.914c-4.187,0-7.224,3.185-7.224,7.43c0,4.011,2.477,7.165,6.929,7.165
			c1.828,0,3.539-0.589,4.6-1.327l-0.885-2.122C64.11,28.228,63.137,28.641,61.781,28.641z M74.184,16.552
			c-4.099,0-6.811,3.125-6.811,7.283c0,4.157,2.742,7.312,6.811,7.312s6.782-3.154,6.782-7.312
			C80.965,19.677,78.252,16.552,74.184,16.552z M74.184,28.641c-2.33,0-3.656-2.005-3.656-4.806c0-2.771,1.327-4.777,3.656-4.777
			s3.627,2.006,3.627,4.777C77.811,26.636,76.513,28.641,74.184,28.641z M91.17,16.552c-1.74,0-3.332,0.796-4.806,2.005
			l-0.324-1.651h-2.595v13.947h3.066v-9.938c1.121-0.943,2.388-1.681,3.686-1.681c1.858,0,2.271,1.475,2.271,3.303v8.315h3.066
			v-9.288C95.534,17.731,93.381,16.552,91.17,16.552z M100.773,27.432c-1.002,0-1.769,0.796-1.769,1.828s0.767,1.857,1.769,1.857
			c0.974,0,1.77-0.825,1.77-1.857S101.747,27.432,100.773,27.432z M112.224,28.641c-2.535,0-4.187-1.71-4.187-4.747
			c0-2.771,1.651-4.836,4.364-4.836c1.355,0,2.418,0.384,3.391,1.032v-2.624c-0.797-0.472-2.035-0.914-3.686-0.914
			c-4.188,0-7.225,3.185-7.225,7.43c0,4.011,2.477,7.165,6.93,7.165c1.828,0,3.537-0.589,4.6-1.327l-0.885-2.122
			C114.554,28.228,113.581,28.641,112.224,28.641z M124.384,16.552c-4.099,0-6.812,3.125-6.812,7.283
			c0,4.157,2.742,7.312,6.812,7.312c4.068,0,6.781-3.154,6.781-7.312C131.166,19.677,128.453,16.552,124.384,16.552z
			 M124.384,28.641c-2.33,0-3.656-2.005-3.656-4.806c0-2.771,1.326-4.777,3.656-4.777c2.329,0,3.627,2.006,3.627,4.777
			C128.011,26.636,126.713,28.641,124.384,28.641z M150.009,16.552c-1.621,0-3.391,0.796-5.071,2.241
			c-0.679-1.474-2.005-2.241-3.656-2.241c-1.739,0-3.332,0.855-4.747,2.005l-0.324-1.651h-2.565v13.947h3.066v-9.996
			c1.091-0.914,2.358-1.622,3.627-1.622c1.828,0,2.182,1.445,2.182,3.214v8.404h3.066v-9.348c0-0.236,0-0.472-0.029-0.648
			c1.12-0.914,2.389-1.622,3.627-1.622c1.857,0,2.212,1.416,2.212,3.185v8.434h3.066v-9.288
			C154.462,17.938,152.398,16.552,150.009,16.552z"/>
	</g>
</g>
<linearGradient id="SVGID_1_" gradientUnits="userSpaceOnUse" x1="154.3872" y1="10.4292" x2="185.6331" y2="36.9767">
	<stop  offset="0" style="stop-color:#7EB5E0"/>
	<stop  offset="0.9951" style="stop-color:#6A7FCF"/>
</linearGradient>
<path fill-rule="evenodd" clip-rule="evenodd" fill="url(#SVGID_1_)" d="M172.23,30.218l-5.57-12.798L154.903,3.211L154.455,0
	l22.396,13.51l8.532,11.257l-7.347-11.731l0.711-1.66l-0.711-6.28l12.916,14.457l-2.015,4.385l3.318-0.118l3.199,2.725l-1.777,0.475
	l-4.267,3.674l-2.725,0.829l-7.466,2.845l-9.48,0.71l-3.317,1.659l-1.422-0.474l-6.162,2.844l-1.186-0.474L172.23,30.218z"/>
<g>
</g>
<g>
</g>
<g>
</g>
<g>
</g>
<g>
</g>
<g>
</g>
<g>
</g>
<g>
</g>
<g>
</g>
<g>
</g>
<g>
</g>
<g>
</g>
<g>
</g>
<g>
</g>
<g>
</g>
</svg>
