<svg width="177" height="38" viewBox="0 0 177 38" fill="none" xmlns="http://www.w3.org/2000/svg">
<g opacity="0.4">
<path fill-rule="evenodd" clip-rule="evenodd" d="M170.814 13.7303C168.505 13.7303 166.393 14.7788 164.437 16.3713L164.008 14.1966H160.565V32.5674H164.632V19.4785C166.12 18.2364 167.801 17.2643 169.523 17.2643C171.988 17.2643 172.535 19.2072 172.535 21.615V32.5674H176.604V20.3334C176.604 15.2846 173.747 13.7303 170.814 13.7303ZM148.278 29.6537C145.186 29.6537 143.426 27.0128 143.426 23.3234C143.426 19.6734 145.186 17.0312 148.278 17.0312C151.368 17.0312 153.09 19.6734 153.09 23.3234C153.09 27.0128 151.368 29.6537 148.278 29.6537ZM148.278 13.7303C142.839 13.7303 139.241 17.8478 139.241 23.3234C139.241 28.8002 142.879 32.9546 148.278 32.9546C153.675 32.9546 157.274 28.8002 157.274 23.3234C157.274 17.8478 153.675 13.7303 148.278 13.7303ZM131.822 29.6537C128.459 29.6537 126.267 27.4014 126.267 23.4011C126.267 19.7512 128.459 17.0312 132.057 17.0312C133.856 17.0312 135.265 17.537 136.556 18.3905V14.9342C135.5 14.3138 133.856 13.7303 131.666 13.7303C126.111 13.7303 122.081 17.9255 122.081 23.517C122.081 28.8002 125.368 32.9546 131.274 32.9546C133.699 32.9546 135.97 32.1788 137.377 31.2067L136.203 28.4116C134.912 29.1098 133.621 29.6537 131.822 29.6537ZM118.613 29.306C117.712 29.306 117.244 28.9174 117.244 27.5568V5.06982H113.175V28.683C113.175 31.3635 114.584 32.8387 117.439 32.8387C118.417 32.8387 119.629 32.6451 120.609 32.217L119.786 29.0716C119.434 29.1888 118.886 29.306 118.613 29.306ZM104.753 27.9836C104.01 28.6448 102.602 29.7328 100.723 29.7328C98.8857 29.7328 97.7116 28.6448 97.7116 26.8969C97.7116 25.8484 98.1414 25.0318 99.0025 24.5668C99.707 24.1782 100.645 23.9833 101.976 23.9451L104.753 23.8278V27.9836ZM108.822 20.2938C108.822 15.8273 106.24 13.7303 101.663 13.7303C99.2373 13.7303 96.8903 14.3138 94.6985 15.5559L96.1075 18.2364C97.3985 17.4988 99.0808 16.8757 101.036 16.8757C103.228 16.8757 104.753 17.8873 104.753 20.2938V21.071L101.428 21.1869C99.5491 21.2659 97.9849 21.4977 96.694 22.159C94.8166 23.0902 93.604 24.6827 93.604 27.1287C93.604 30.664 96.1473 32.9546 99.6287 32.9546C101.936 32.9546 103.658 31.9852 105.026 30.7022L105.692 32.5674H109.173C108.9 31.5966 108.822 30.0041 108.822 27.3632V20.2938ZM89.7166 8.56431C90.4596 8.56431 91.2039 8.75926 91.9469 9.0306L92.7681 5.80745C91.6338 5.30297 90.3428 5.06982 89.2085 5.06982C85.8439 5.06982 83.262 7.05087 83.262 11.4397V14.1966H80.6019V17.3815H83.262V32.5674H87.3311V17.3815H91.0858L92.1034 14.1966H87.3311V11.3607C87.3311 9.57459 88.0741 8.56431 89.7166 8.56431ZM74.5546 29.6537C73.342 29.6537 72.7157 28.9938 72.7157 27.325V17.3815H77.2545L78.2708 14.1966H72.7157V8.71974L68.6479 9.96316V14.1966H65.4001V17.3815H68.6479V28.2167C68.6479 31.2067 70.4868 32.9546 73.5768 32.9546C75.4157 32.9546 77.4496 32.4119 78.7405 31.5176L77.4496 28.7212C76.7066 29.227 75.689 29.6537 74.5546 29.6537ZM54.8233 18.8963C54.8233 17.4593 56.1142 16.9548 57.758 16.9548C59.6739 16.9548 61.2779 17.4593 62.7254 18.081V14.6247C61.3177 14.0794 59.5558 13.7303 57.6002 13.7303C53.3373 13.7303 50.8324 16.0222 50.8324 19.1294C50.8324 25.2267 59.5173 24.0228 59.5173 27.4396C59.5173 29.0716 57.9915 29.7328 56.0359 29.7328C54.0803 29.7328 52.3967 29.0716 51.1071 28.2562L49.8546 31.2462C51.2636 32.0998 53.4926 32.9546 56.231 32.9546C60.1435 32.9546 63.5466 31.2857 63.5466 27.3632C63.5466 20.9933 54.8233 22.2354 54.8233 18.8963Z" fill="white"/>
<path opacity="0.7" fill-rule="evenodd" clip-rule="evenodd" d="M29.7341 24.0668L22.6717 12.6673L23.3552 11.0552L22.6717 4.95166L35.0891 19.0001L33.1518 23.2612L29.7341 24.0668Z" fill="white"/>
<path fill-rule="evenodd" clip-rule="evenodd" d="M11.7338 16.9268L0.430705 3.12027L0 0L21.5314 13.1273L29.7341 24.0662L33.1518 23.2606L36.3417 23.1459L39.4182 25.793L37.7088 26.2545L33.6075 29.8247L30.9877 30.6303L23.8099 33.3949L14.6959 34.0848L11.506 35.697L10.1389 35.2364L4.21476 38L3.07551 37.5394L17.0888 29.3632L11.7338 16.9268Z" fill="white"/>
</g>
</svg>
