<?xml version="1.0" encoding="UTF-8"?>
<svg width="16px" height="15px" viewBox="0 0 16 15" version="1.1" xmlns="http://www.w3.org/2000/svg" xmlns:xlink="http://www.w3.org/1999/xlink">
    <!-- Generator: Sketch 46.2 (44496) - http://www.bohemiancoding.com/sketch -->
    <title>star</title>
    <desc>Created with Sketch.</desc>
    <defs></defs>
    <g id="main" stroke="none" stroke-width="1" fill="none" fill-rule="evenodd">
        <g id="OpenSource-catalog-1440" transform="translate(-1037.000000, -232.000000)" fill-rule="nonzero" fill="#ACB4B8">
            <g id="content" transform="translate(353.000000, 145.000000)">
                <g id="1" transform="translate(0.000000, 79.000000)">
                    <g id="stars" transform="translate(684.000000, 7.000000)">
                        <g id="star" transform="translate(0.000000, 1.000000)">
                            <path d="M15.9858982,5.70881932 C15.9521036,5.60681574 15.8624622,5.53242638 15.7544915,5.5169286 L10.5736174,4.77613462 L8.256687,0.157232043 C8.20857275,0.0608640165 8.10890751,0 8.00007765,0 C7.89124779,0 7.79129616,0.0608640165 7.7434683,0.157232043 L5.42625148,4.7764164 L0.24537738,5.51721038 C0.137406704,5.53270816 0.0480516614,5.60681574 0.0139707318,5.7091011 C-0.0195374092,5.8108229 0.00824284442,5.92297049 0.0864285066,5.99764162 L3.83561716,9.59312704 L2.95037217,14.6702004 C2.93204293,14.7758671 2.97614767,14.8826609 3.06407074,14.9457792 C3.1525666,15.0094609 3.26970189,15.0176325 3.36564401,14.9671943 L8.00007765,12.5703918 L12.6339385,14.9671943 C12.6757521,14.9888912 12.7218616,14.9995987 12.7673983,14.9995987 C12.8266819,14.9995987 12.8856792,14.9815649 12.9357982,14.9457792 C13.0240076,14.8826609 13.0681124,14.7758671 13.0494967,14.6702004 L12.1645381,9.59340882 L15.9137268,5.99764162 C15.9916261,5.92240693 16.0196927,5.81054113 15.9858982,5.70881932 Z" id="Shape"></path>
                        </g>
                    </g>
                </g>
            </g>
        </g>
    </g>
</svg>