<svg width="223" height="45" viewBox="0 0 223 45" fill="none" xmlns="http://www.w3.org/2000/svg">
<path fill-rule="evenodd" clip-rule="evenodd" d="M170.674 19.0629C168.829 19.0629 166.817 19.9783 164.904 21.64C164.131 19.9449 162.623 19.0629 160.744 19.0629C158.765 19.0629 156.953 20.0461 155.343 21.3686L154.974 19.47H152.055V35.509H155.544V24.0136C156.785 22.9625 158.228 22.1483 159.67 22.1483C161.751 22.1483 162.153 23.8101 162.153 25.8444V35.509H165.641V24.7588C165.641 24.4874 165.641 24.2172 165.608 24.0136C166.883 22.9625 168.326 22.1483 169.735 22.1483C171.849 22.1483 172.252 23.7767 172.252 25.8099V35.509H175.74V24.8278C175.74 20.6568 173.392 19.0629 170.674 19.0629ZM141.519 32.9652C138.868 32.9652 137.359 30.6595 137.359 27.4383C137.359 24.2517 138.868 21.9448 141.519 21.9448C144.168 21.9448 145.645 24.2517 145.645 27.4383C145.645 30.6595 144.168 32.9652 141.519 32.9652ZM141.519 19.0629C136.856 19.0629 133.769 22.6578 133.769 27.4383C133.769 32.22 136.889 35.8471 141.519 35.8471C146.148 35.8471 149.235 32.22 149.235 27.4383C149.235 22.6578 146.148 19.0629 141.519 19.0629ZM127.683 32.9652C124.799 32.9652 122.921 30.9987 122.921 27.5062C122.921 24.3195 124.799 21.9448 127.886 21.9448C129.428 21.9448 130.637 22.3864 131.743 23.1316V20.114C130.837 19.5723 129.428 19.0629 127.55 19.0629C122.785 19.0629 119.33 22.7256 119.33 27.6074C119.33 32.22 122.148 35.8471 127.215 35.8471C129.294 35.8471 131.239 35.1698 132.448 34.3211L131.441 31.8808C130.334 32.4903 129.227 32.9652 127.683 32.9652ZM114.655 31.5749C113.515 31.5749 112.642 32.4903 112.642 33.6771C112.642 34.8639 113.515 35.8138 114.655 35.8138C115.763 35.8138 116.668 34.8639 116.668 33.6771C116.668 32.4903 115.763 31.5749 114.655 31.5749ZM103.729 19.0629C101.749 19.0629 99.9381 19.9783 98.2611 21.3686L97.8924 19.47H94.94V35.509H98.4283V24.0815C99.7038 22.997 101.145 22.1483 102.622 22.1483C104.736 22.1483 105.205 23.8446 105.205 25.9468V35.509H108.694V24.8278C108.694 20.4199 106.245 19.0629 103.729 19.0629ZM84.4032 32.9652C81.7523 32.9652 80.2425 30.6595 80.2425 27.4383C80.2425 24.2517 81.7523 21.9448 84.4032 21.9448C87.0531 21.9448 88.5299 24.2517 88.5299 27.4383C88.5299 30.6595 87.0531 32.9652 84.4032 32.9652ZM84.4032 19.0629C79.7396 19.0629 76.654 22.6578 76.654 27.4383C76.654 32.22 79.7737 35.8471 84.4032 35.8471C89.0316 35.8471 92.1183 32.22 92.1183 27.4383C92.1183 22.6578 89.0316 19.0629 84.4032 19.0629ZM70.2916 32.9652C67.4074 32.9652 65.5279 30.9987 65.5279 27.5062C65.5279 24.3195 67.4074 21.9448 70.493 21.9448C72.0358 21.9448 73.2441 22.3864 74.3512 23.1316V20.114C73.4455 19.5723 72.0358 19.0629 70.1574 19.0629C65.3936 19.0629 61.9383 22.7256 61.9383 27.6074C61.9383 32.22 64.7565 35.8471 69.8218 35.8471C71.9016 35.8471 73.8483 35.1698 75.0554 34.3211L74.0485 31.8808C72.9415 32.4903 71.8344 32.9652 70.2916 32.9652ZM58.9642 32.6616C58.1916 32.6616 57.79 32.3224 57.79 31.1344V11.5016H54.3005V32.1177C54.3005 34.4579 55.5088 35.7459 57.9572 35.7459C58.7958 35.7459 59.8357 35.5769 60.6753 35.2031L59.9699 32.4569C59.6684 32.5593 59.1985 32.6616 58.9642 32.6616ZM47.078 31.507C46.4409 32.0843 45.2337 33.0342 43.6227 33.0342C42.0469 33.0342 41.04 32.0843 41.04 30.5583C41.04 29.6429 41.4086 28.9299 42.147 28.5239C42.7511 28.1847 43.5555 28.0145 44.6967 27.9811L47.078 27.8788V31.507ZM50.5675 24.7933C50.5675 20.8937 48.3535 19.0629 44.4282 19.0629C42.3484 19.0629 40.3357 19.5723 38.4561 20.6568L39.6644 22.997C40.7715 22.353 42.2141 21.8091 43.8912 21.8091C45.7707 21.8091 47.078 22.6923 47.078 24.7933V25.4718L44.2268 25.573C42.6158 25.642 41.2743 25.8444 40.1673 26.4217C38.5574 27.2348 37.5175 28.6251 37.5175 30.7607C37.5175 33.8473 39.6986 35.8471 42.684 35.8471C44.6626 35.8471 46.1394 35.0007 47.3124 33.8806L47.8836 35.509H50.869C50.6347 34.6615 50.5675 33.2711 50.5675 30.9654V24.7933ZM34.1839 14.5526C34.821 14.5526 35.4593 14.7228 36.0964 14.9597L36.8007 12.1456C35.8279 11.7052 34.7209 11.5016 33.7481 11.5016C30.8627 11.5016 28.6487 13.2312 28.6487 17.063V19.47H26.3675V22.2507H28.6487V35.509H32.1382V22.2507H35.358L36.2307 19.47H32.1382V16.994C32.1382 15.4346 32.7753 14.5526 34.1839 14.5526ZM21.1816 32.9652C20.1417 32.9652 19.6047 32.3891 19.6047 30.932V22.2507H23.4969L24.3684 19.47H19.6047V14.6883L16.1163 15.7739V19.47H13.3311V22.2507H16.1163V31.7106C16.1163 34.3211 17.6932 35.8471 20.3431 35.8471C21.92 35.8471 23.6642 35.3733 24.7712 34.5925L23.6642 32.151C23.027 32.5926 22.1544 32.9652 21.1816 32.9652ZM4.26089 23.5732C4.26089 22.3185 5.36793 21.8781 6.77761 21.8781C8.42053 21.8781 9.79607 22.3185 11.0374 22.8613V19.8437C9.8302 19.3676 8.31927 19.0629 6.64221 19.0629C2.98661 19.0629 0.838526 21.0639 0.838526 23.7767C0.838526 29.1001 8.28627 28.049 8.28627 31.0321C8.28627 32.4569 6.97785 33.0342 5.3008 33.0342C3.62375 33.0342 2.17994 32.4569 1.07404 31.7451L0 34.3556C1.2083 35.1008 3.11972 35.8471 5.46805 35.8471C8.82329 35.8471 11.7416 34.3901 11.7416 30.9654C11.7416 25.404 4.26089 26.4884 4.26089 23.5732Z" fill="#201E1E"/>
<path opacity="0.7" fill-rule="evenodd" clip-rule="evenodd" d="M211.188 28.4809L202.831 14.9903L203.639 13.0824L202.831 5.85925L217.526 22.4848L215.233 27.5276L211.188 28.4809Z" fill="#6981CE"/>
<path fill-rule="evenodd" clip-rule="evenodd" d="M189.886 20.0319L176.51 3.69265L176 0L201.481 15.5353L211.188 28.4809L215.233 27.5275L219.008 27.3918L222.649 30.5245L220.626 31.0707L215.773 35.2958L212.672 36.2491L204.178 39.5209L193.392 40.3374L189.617 42.2453L187.999 41.7001L180.988 44.9707L179.64 44.4257L196.224 34.7495L189.886 20.0319Z" fill="#4B6BD3"/>
</svg>
