<svg width="750" height="163" viewBox="0 0 750 163" fill="none" xmlns="http://www.w3.org/2000/svg">
<g clip-path="url(#clip0)">
<path fill-rule="evenodd" clip-rule="evenodd" d="M725.091 60.8672C715.208 60.8672 706.166 65.3558 697.794 72.1733L695.953 62.8634H681.214V141.51H698.629V85.4755C704.996 80.158 712.192 75.9965 719.565 75.9965C730.118 75.9965 732.458 84.3139 732.458 94.6219V141.51H749.878V89.1352C749.878 67.5212 737.649 60.8672 725.091 60.8672ZM628.613 129.036C615.379 129.036 607.842 117.73 607.842 101.936C607.842 86.3101 615.379 74.9984 628.613 74.9984C641.842 74.9984 649.214 86.3101 649.214 101.936C649.214 117.73 641.842 129.036 628.613 129.036ZM628.613 60.8672C605.331 60.8672 589.928 78.4945 589.928 101.936C589.928 125.382 605.502 143.167 628.613 143.167C651.719 143.167 667.128 125.382 667.128 101.936C667.128 78.4945 651.719 60.8672 628.613 60.8672ZM558.166 129.036C543.768 129.036 534.384 119.394 534.384 102.268C534.384 86.6428 543.768 74.9984 559.171 74.9984C566.873 74.9984 572.905 77.1637 578.432 80.8178V66.0212C573.911 63.3653 566.873 60.8672 557.496 60.8672C533.714 60.8672 516.465 78.8272 516.465 102.764C516.465 125.382 530.534 143.167 555.82 143.167C566.203 143.167 575.921 139.846 581.948 135.685L576.921 123.719C571.394 126.707 565.868 129.036 558.166 129.036ZM501.617 127.548C497.761 127.548 495.756 125.884 495.756 120.059V23.7913H478.336V124.88C478.336 136.356 484.368 142.671 496.591 142.671C500.777 142.671 505.968 141.842 510.16 140.01L506.638 126.544C505.133 127.046 502.787 127.548 501.617 127.548ZM442.28 121.886C439.099 124.717 433.073 129.375 425.03 129.375C417.164 129.375 412.137 124.717 412.137 117.234C412.137 112.745 413.977 109.249 417.664 107.259C420.68 105.595 424.695 104.761 430.392 104.597L442.28 104.095V121.886ZM459.7 88.966C459.7 69.8444 448.647 60.8672 429.052 60.8672C418.669 60.8672 408.621 63.3653 399.238 68.6828L405.27 80.158C410.797 77.0002 417.999 74.333 426.371 74.333C435.754 74.333 442.28 78.6637 442.28 88.966V92.293L428.046 92.7892C420.004 93.1275 413.307 94.12 407.781 96.9507C399.744 100.937 394.552 107.755 394.552 118.226C394.552 133.361 405.441 143.167 420.344 143.167C430.222 143.167 437.594 139.017 443.45 133.525L446.301 141.51H461.205C460.035 137.354 459.7 130.536 459.7 119.23V88.966ZM377.91 38.7513C381.091 38.7513 384.277 39.5859 387.458 40.7475L390.974 26.9491C386.118 24.7894 380.591 23.7913 375.735 23.7913C361.331 23.7913 350.278 32.2722 350.278 51.0611V62.8634H338.89V76.4983H350.278V141.51H367.698V76.4983H383.772L388.128 62.8634H367.698V50.7228C367.698 43.0764 370.879 38.7513 377.91 38.7513ZM313.001 129.036C307.81 129.036 305.129 126.211 305.129 119.067V76.4983H324.56L328.91 62.8634H305.129V39.4167L287.714 44.7399V62.8634H273.81V76.4983H287.714V122.884C287.714 135.685 295.587 143.167 308.815 143.167C316.687 143.167 325.394 140.844 330.921 137.015L325.394 125.044C322.214 127.209 317.857 129.036 313.001 129.036ZM228.53 82.9831C228.53 76.831 234.057 74.6713 241.094 74.6713C249.296 74.6713 256.163 76.831 262.359 79.4926V64.6961C256.333 62.3615 248.79 60.8672 240.418 60.8672C222.169 60.8672 211.445 70.679 211.445 83.9812C211.445 110.084 248.626 104.93 248.626 119.557C248.626 126.544 242.094 129.375 233.722 129.375C225.35 129.375 218.142 126.544 212.621 123.053L207.259 135.854C213.291 139.508 222.833 143.167 234.557 143.167C251.307 143.167 265.875 136.023 265.875 119.23C265.875 91.9603 228.53 97.2778 228.53 82.9831Z" fill="#201E1E"/>
<path opacity="0.7" fill-rule="evenodd" clip-rule="evenodd" d="M127.294 103.027L97.0596 54.2256L99.9859 47.324L97.0596 21.1946L150.219 81.3368L141.926 99.5788L127.294 103.027Z" fill="#6981CE"/>
<path fill-rule="evenodd" clip-rule="evenodd" d="M50.2331 72.4644L1.84387 13.358L0 0L92.177 56.1985L127.293 103.028L141.924 99.5798L155.581 99.0889L168.751 110.421L161.433 112.397L143.875 127.681L132.66 131.13L101.931 142.965L62.9138 145.919L49.2577 152.82L43.405 150.849L18.0436 162.68L13.1664 160.708L73.158 125.705L50.2331 72.4644Z" fill="#4B6BD3"/>
</g>
<defs>
<clipPath id="clip0">
<rect width="749.878" height="162.68" fill="white"/>
</clipPath>
</defs>
</svg>
