<?xml version="1.0" encoding="utf-8"?>
<!-- Generator: Adobe Illustrator 16.0.4, SVG Export Plug-In . SVG Version: 6.00 Build 0)  -->
<!DOCTYPE svg PUBLIC "-//W3C//DTD SVG 1.1//EN" "http://www.w3.org/Graphics/SVG/1.1/DTD/svg11.dtd">
<svg version="1.1" id="Шар_1" xmlns="http://www.w3.org/2000/svg" xmlns:xlink="http://www.w3.org/1999/xlink" x="0px" y="0px"
	 width="42.75px" height="41px" viewBox="0 0 42.75 41" enable-background="new 0 0 42.75 41" xml:space="preserve">
<path fill="#ED002D" d="M34.125,10.75c-0.042,0-0.083,0.006-0.125,0.006V7.552C34,3.711,26.464,0,17.166,0h-0.332
	C7.537,0,0,3.711,0,7.552v26.229C0,37.623,7.537,41,16.834,41h0.332C26.464,41,34,37.623,34,33.781v-5.787
	c0.042,0,0.083,0.006,0.125,0.006c4.764,0,8.625-3.861,8.625-8.625S38.889,10.75,34.125,10.75z M30,8.192
	c0-0.04-0.014-0.08-0.017-0.119c-0.115,1.554-2.476,3.172-5.983,4.113V21h0.505L28,22.018V31h-9v-8.982L22.371,21H23v-8.571
	C21.366,12.785,19.538,13,17.595,13H17.35c-6.762,0-13.124-2.545-13.33-4.927C4.016,8.112,4,8.152,4,8.192V7.954
	c0,0.04,0.016,0.079,0.02,0.119C4.226,5.687,10.588,3,17.35,3h0.245c6.763,0,12.212,2.687,12.389,5.073
	C29.987,8.033,30,7.994,30,7.954V8.192z M34.125,24.083c-0.043,0-0.082-0.012-0.125-0.013V14.68
	c0.043-0.001,0.082-0.013,0.125-0.013c2.6,0,4.708,2.107,4.708,4.708S36.725,24.083,34.125,24.083z"/>
<g>
</g>
<g>
</g>
<g>
</g>
<g>
</g>
<g>
</g>
<g>
</g>
<g>
</g>
<g>
</g>
<g>
</g>
<g>
</g>
<g>
</g>
<g>
</g>
<g>
</g>
<g>
</g>
<g>
</g>
</svg>
