<svg xmlns="http://www.w3.org/2000/svg" width="40" height="40" viewBox="0 0 40 40"><path fill-rule="evenodd" clip-rule="evenodd" d="M38 7h-3V2c0-.545-.447-1-1-1H2c-.545 0-1 .447-1 1v32c0 .545.447 1 1 1h5v3c0 .545.447 1 1 1h30c.545 0 1-.447 1-1V8c0-.545-.447-1-1-1zM2.61 2.61h30.78L33.392 6H2.61V2.61zm0 30.796V7h30.782l.015 26.39-30.797.016zm6 4V35H34c.545 0 1-.447 1-1V8.61h2.39l.017 28.78-28.797.016zM4.5 4c-.276 0-.5.224-.5.5s.224.5.5.5.5-.224.5-.5-.224-.5-.5-.5zm2 0c-.276 0-.5.224-.5.5s.224.5.5.5.5-.224.5-.5-.224-.5-.5-.5zm2 0c-.276 0-.5.224-.5.5s.224.5.5.5.5-.224.5-.5-.224-.5-.5-.5zM9 16c-1.657 0-3 1.343-3 3s1.343 3 3 3 3-1.343 3-3-1.343-3-3-3zm18 0c-1.657 0-3 1.343-3 3s1.343 3 3 3 3-1.343 3-3-1.343-3-3-3zm-9 0c-1.657 0-3 1.343-3 3s1.343 3 3 3 3-1.343 3-3-1.343-3-3-3zm-6.49 8H6.49c-.262 0-.49.224-.49.5 0 .27.22.5.49.5h5.02c.262 0 .49-.224.49-.5 0-.27-.22-.5-.49-.5zm9 0h-5.02c-.262 0-.49.224-.49.5 0 .27.22.5.49.5h5.02c.262 0 .49-.224.49-.5 0-.27-.22-.5-.49-.5zm9 0h-5.02c-.262 0-.49.224-.49.5 0 .27.22.5.49.5h5.02c.262 0 .49-.224.49-.5 0-.27-.22-.5-.49-.5zm-18 2H6.49c-.262 0-.49.224-.49.5 0 .27.22.5.49.5h5.02c.262 0 .49-.224.49-.5 0-.27-.22-.5-.49-.5zm9 0h-5.02c-.262 0-.49.224-.49.5 0 .27.22.5.49.5h5.02c.262 0 .49-.224.49-.5 0-.27-.22-.5-.49-.5zm9 0h-5.02c-.262 0-.49.224-.49.5 0 .27.22.5.49.5h5.02c.262 0 .49-.224.49-.5 0-.27-.22-.5-.49-.5zM8.503 28H6.496c-.28 0-.496.224-.496.5 0 .27.222.5.496.5h2.01c.278 0 .494-.224.494-.5 0-.27-.222-.5-.496-.5zm10.005 0h-3.02c-.275 0-.49.224-.49.5 0 .27.22.5.49.5h3.02c.275 0 .49-.224.49-.5 0-.27-.22-.5-.49-.5zm9 0h-3.02c-.275 0-.49.224-.49.5 0 .27.22.5.49.5h3.02c.275 0 .49-.224.49-.5 0-.27-.22-.5-.49-.5zM29 10H7c-.553 0-1 .448-1 1 0 .556.448 1 1 1h22c.553 0 1-.448 1-1 0-.556-.448-1-1-1z"/></svg>