<svg xmlns="http://www.w3.org/2000/svg" width="40" height="40" viewBox="0 0 40 40"><path fill-rule="evenodd" clip-rule="evenodd" d="M38 7h-3V2c0-.545-.447-1-1-1H2c-.545 0-1 .447-1 1v32c0 .545.447 1 1 1h5v3c0 .545.447 1 1 1h30c.545 0 1-.447 1-1V8c0-.545-.447-1-1-1zM2.61 2.61h30.78L33.392 6H2.61V2.61zm0 30.796V7h30.782l.015 26.39-30.797.016zm6 4V35H34c.545 0 1-.447 1-1V8.61h2.39l.017 28.78-28.797.016zM4.5 4c-.276 0-.5.224-.5.5s.224.5.5.5.5-.224.5-.5-.224-.5-.5-.5zm2 0c-.276 0-.5.224-.5.5s.224.5.5.5.5-.224.5-.5-.224-.5-.5-.5zm2 0c-.276 0-.5.224-.5.5s.224.5.5.5.5-.224.5-.5-.224-.5-.5-.5zm-1.006 7h12.013c.267 0 .493-.224.493-.5 0-.268-.22-.5-.494-.5H7.494c-.268 0-.494.224-.494.5 0 .268.22.5.494.5zm-.004 3h16.02c.275 0 .49-.224.49-.5 0-.268-.22-.5-.49-.5H7.49c-.275 0-.49.224-.49.5 0 .268.22.5.49.5zm21.002 2H10.508c-.28 0-.508.224-.508.5 0 .268.228.5.508.5h17.984c.28 0 .508-.224.508-.5 0-.268-.228-.5-.508-.5zm0 3H10.508c-.28 0-.508.224-.508.5 0 .268.228.5.508.5h17.984c.28 0 .508-.224.508-.5 0-.268-.228-.5-.508-.5zm-.99 3H13.498c-.276 0-.5.224-.5.5 0 .27.224.5.5.5h14c.276 0 .5-.224.5-.5 0-.27-.224-.5-.5-.5zm-3.992 3H7.49c-.275 0-.49.224-.49.5 0 .27.22.5.49.5h16.02c.275 0 .49-.224.49-.5 0-.27-.22-.5-.49-.5zm-3.008 3H7.498c-.278 0-.498.224-.498.5 0 .27.223.5.498.5h13.004c.278 0 .498-.224.498-.5 0-.27-.223-.5-.498-.5z"/></svg>