<svg xmlns="http://www.w3.org/2000/svg" width="40" height="40" viewBox="0 0 40 40"><path fill-rule="evenodd" clip-rule="evenodd" d="M35 18c0-3.847-1.46-7.345-3.842-10H34l4-4h-4V0l-4 4v2.842C27.345 4.462 23.848 3 20 3 11.716 3 5 9.716 5 18c0 5.176 2.622 9.74 6.61 12.436L7.8 37.1c-.22.387-.085.88.3 1.1.126.07.263.105.398.105.28 0 .55-.146.7-.405l3.795-6.64c1.87.99 3.976 1.582 6.21 1.7-.002.014-.01.025-.01.04v5c0 .444.36.805.806.805.443 0 .804-.36.804-.805v-5c0-.015-.008-.026-.008-.04 2.233-.118 4.34-.71 6.21-1.7L30.8 37.9c.148.26.42.405.7.405.135 0 .272-.034.398-.105.386-.22.52-.713.3-1.1l-3.81-6.664C32.38 27.74 35 23.176 35 18zM20 31.39c-7.383 0-13.39-6.007-13.39-13.39 0-7.383 6.007-13.39 13.39-13.39 3.402 0 6.503 1.286 8.867 3.384l-3.81 3.81C23.68 10.677 21.92 10 20 10c-4.418 0-8 3.582-8 8s3.582 8 8 8 8-3.582 8-8c0-1.92-.677-3.68-1.804-5.058l3.81-3.81c2.098 2.365 3.384 5.465 3.384 8.867 0 7.383-6.007 13.39-13.39 13.39zm.722-15.25c-.225-.088-.467-.14-.722-.14-1.104 0-2 .896-2 2s.896 2 2 2 2-.896 2-2c0-.255-.053-.497-.14-.722l3.185-3.185c.84 1.082 1.345 2.435 1.345 3.907 0 3.523-2.866 6.39-6.39 6.39s-6.39-2.866-6.39-6.39 2.867-6.39 6.39-6.39c1.472 0 2.825.505 3.906 1.345l-3.184 3.185z"/></svg>