<svg xmlns="http://www.w3.org/2000/svg" width="40" height="40" viewBox="0 0 40 40"><path d="M9 24c-.552 0-1 .447-1 1s.448 1 1 1 1-.447 1-1-.448-1-1-1zm26 0c-.553 0-1 .447-1 1s.447 1 1 1 1-.447 1-1-.447-1-1-1zM10.51 5H7.49c-.275 0-.49.224-.49.5 0 .268.22.5.49.5h3.02c.275 0 .49-.224.49-.5 0-.268-.22-.5-.49-.5zm26.5 7H17V4.007C17 2.897 16.107 2 15.006 2H2.994C1.894 2 1 2.9 1 4.007v22.985C1 28.102 1.893 29 2.994 29H4v7c0 1.1.9 2 2.007 2h30.985C38.1 38 39 37.108 39 36.01V13.99c0-1.09-.892-1.99-1.99-1.99zM2.993 27.39c-.212 0-.384-.178-.384-.397V4.007c0-.22.172-.397.384-.397h12.012c.212 0 .384.178.384.397v22.985c0 .22-.172.397-.384.397H2.994zm34.396 8.62c0 .21-.178.38-.397.38H6.007c-.215 0-.397-.178-.397-.39v-7h9.396c1.1 0 1.994-.898 1.994-2.008V13.61h20.01c.206 0 .38.175.38.38v22.02z"/></svg>