<svg xmlns="http://www.w3.org/2000/svg" width="44" height="40" viewBox="0 0 44 40"><path d="M42.933 18.666C40.763 11.292 37.52 6 33.525 6c-.438 0-.886.064-1.34.195-1.283.37-4.052 1.73-4.052 1.73-1.01.478-2.677 1.074-3.744 1.336l-.457.113c-.53.13-1.23.197-1.933.197-.7 0-1.4-.065-1.934-.196l-.455-.112c-1.058-.26-2.744-.854-3.745-1.322 0 0-2.867-1.375-4.05-1.745-.464-.146-.92-.216-1.37-.216-3.92 0-7.217 5.345-9.377 12.686-2.408 8.18-.71 16.056 4.03 17.158.233.055.47.08.707.08 4.01 0 8.534-7.252 8.534-7.252.63-.896 2.022-1.642 3.126-1.642h9.072c1.102 0 2.505.734 3.127 1.642 0 0 4.52 7.252 8.53 7.252.238 0 .476-.025.71-.08 4.74-1.102 6.436-8.977 4.028-17.158zm-1.907 13.537c-.66 1.132-1.496 1.82-2.486 2.052-.11.025-.225.038-.345.038-2.14 0-5.48-3.798-7.164-6.493l-.018-.03-.02-.028c-.915-1.335-2.83-2.342-4.455-2.342h-9.072c-1.627 0-3.496.98-4.444 2.325l-.025.036-.023.038c-1.688 2.697-5.027 6.495-7.168 6.495-.12 0-.233-.013-.344-.038-.99-.23-1.827-.92-2.487-2.052-1.7-2.915-1.843-8.05-.362-13.083 2.094-7.113 5.095-11.53 7.833-11.53.29 0 .59.047.89.142.88.275 3.066 1.292 3.85 1.667 1.097.512 2.873 1.14 4.043 1.426l.455.112c.638.157 1.46.243 2.32.243.858 0 1.682-.085 2.317-.242l.457-.112c1.157-.285 2.935-.918 4.07-1.454.734-.36 2.848-1.358 3.786-1.63.304-.086.604-.13.895-.13 2.803 0 5.742 4.302 7.862 11.51 1.482 5.03 1.34 10.165-.36 13.08zM32.5 16c.828 0 1.5-.67 1.5-1.5s-.672-1.5-1.5-1.5-1.5.67-1.5 1.5.672 1.5 1.5 1.5zm0 3c-.828 0-1.5.67-1.5 1.5 0 .828.672 1.5 1.5 1.5s1.5-.672 1.5-1.5c0-.83-.672-1.5-1.5-1.5zm-3-3c-.828 0-1.5.67-1.5 1.5s.672 1.5 1.5 1.5 1.5-.67 1.5-1.5-.672-1.5-1.5-1.5zm6 0c-.828 0-1.5.67-1.5 1.5s.672 1.5 1.5 1.5 1.5-.67 1.5-1.5-.672-1.5-1.5-1.5zm-20.622.375h-.258c-1.102 0-1.995-.89-1.995-1.995v-.26c0-.61-.504-1.12-1.125-1.12-.625 0-1.125.502-1.125 1.122v.26c0 1.1-.89 1.994-1.995 1.994h-.258C7.51 16.376 7 16.88 7 17.5c0 .625.502 1.125 1.122 1.125h.258c1.102 0 1.995.89 1.995 1.995v.26c0 .61.504 1.12 1.125 1.12.625 0 1.125-.502 1.125-1.122v-.258c0-1.102.89-1.995 1.995-1.995h.26c.61 0 1.12-.504 1.12-1.125 0-.625-.502-1.125-1.122-1.125zM22 16c-1.104 0-2 .896-2 2s.896 2 2 2 2-.896 2-2-.896-2-2-2zm0 3.4c-.772 0-1.4-.628-1.4-1.4s.628-1.4 1.4-1.4c.77 0 1.4.628 1.4 1.4s-.63 1.4-1.4 1.4z"/></svg>