<?xml version="1.0" encoding="UTF-8"?>
<svg width="28px" height="28px" viewBox="0 0 28 28" version="1.1" xmlns="http://www.w3.org/2000/svg" xmlns:xlink="http://www.w3.org/1999/xlink">
    <!-- Generator: sketchtool 51.1 (57501) - http://www.bohemiancoding.com/sketch -->
    <title>17C2A14D-13FB-433C-A363-381625AF4B48</title>
    <desc>Created with sketchtool.</desc>
    <defs></defs>
    <g id="industrial-landings" stroke="none" stroke-width="1" fill="none" fill-rule="evenodd">
        <g id="e-commerce" transform="translate(-716.000000, -2132.000000)">
            <g id="2" transform="translate(0.000000, 1628.000000)">
                <g id="txt" transform="translate(381.000000, 242.000000)">
                    <g id="Group-6" transform="translate(0.000000, 262.000000)">
                        <g id="2" transform="translate(335.000000, 0.000000)">
                            <g id="ic_hotels">
                                <rect id="Rectangle-7" x="0" y="0" width="28" height="28"></rect>
                                <g id="analysis-chart" transform="translate(2.000000, 2.000000)" fill="#979BA3">
                                    <path d="M19.6884807,18.3657272 C17.2060929,18.1066466 14.804591,17.3618725 12.6308497,16.1769551 C13.203318,15.8223047 13.7553943,15.4379289 14.2846397,15.0255258 C16.8231913,13.024002 18.7789205,10.4205703 19.9600965,7.47045919 C20.0023554,7.36478717 19.9829546,7.24539742 19.9092022,7.1572629 C19.8354498,7.06912837 19.7185505,7.02563882 19.6025392,7.04317632 C19.4865278,7.06071382 19.3890293,7.13661402 19.3467704,7.24228604 C18.2066448,10.0883166 16.3196654,12.5999348 13.8706446,14.5311506 C13.2765564,14.9969302 12.6524901,15.4259651 12.0021904,15.8156809 C11.3518907,15.4259651 10.7278245,14.9969302 10.1337363,14.5311506 C7.68464191,12.6000017 5.79764727,10.0883632 4.65761047,7.24228604 C4.62748034,7.12235793 4.52791394,7.0302045 4.40243704,7.00611092 C4.27696014,6.98201734 4.14839333,7.03036553 4.07294,7.13001993 C3.99748667,7.22967433 3.98886959,7.36251069 4.05085573,7.47045919 C5.22956843,10.4196246 7.18220823,13.0229628 9.71755074,15.0255258 C10.2459679,15.4393223 10.7973144,15.8251096 11.3691503,16.1811805 C9.19507365,17.3646215 6.79358974,18.1079522 4.31151932,18.3657272 C4.13005648,18.3750617 3.99079737,18.5245131 4.00047539,18.699536 C4.01015341,18.874559 4.16510368,19.008876 4.34656652,18.9995415 L4.38161373,18.9995415 C7.07255466,18.7172054 9.66994701,17.8838146 12,16.555131 C14.3303507,17.8824523 16.9277499,18.7144048 19.6183863,18.9953161 L19.6534335,18.9953161 C19.8348963,19.0046506 19.9898466,18.8703336 19.9995246,18.6953106 C20.0092026,18.5202876 19.8699435,18.3708363 19.6884807,18.3615017 L19.6884807,18.3657272 Z" id="Shape" stroke="#979BA3" fill-rule="nonzero"></path>
                                    <rect id="Rectangle-30" x="0" y="0" width="2" height="24" rx="1"></rect>
                                    <rect id="Rectangle-30-Copy" transform="translate(12.000000, 23.000000) rotate(90.000000) translate(-12.000000, -23.000000) " x="11" y="11" width="2" height="24" rx="1"></rect>
                                </g>
                            </g>
                        </g>
                    </g>
                </g>
            </g>
        </g>
    </g>
</svg>