<?xml version="1.0" encoding="UTF-8"?>
<svg width="28px" height="28px" viewBox="0 0 28 28" version="1.1" xmlns="http://www.w3.org/2000/svg" xmlns:xlink="http://www.w3.org/1999/xlink">
    <!-- Generator: sketchtool 51.1 (57501) - http://www.bohemiancoding.com/sketch -->
    <title>46D11F5B-0A3A-4881-9296-CADD60EC02A8</title>
    <desc>Created with sketchtool.</desc>
    <defs></defs>
    <g id="industrial-landings" stroke="none" stroke-width="1" fill="none" fill-rule="evenodd" opacity="0.8">
        <g id="e-commerce" transform="translate(-390.000000, -4086.000000)">
            <g id="4" transform="translate(0.000000, 3503.000000)">
                <g id="txt" transform="translate(390.000000, 255.000000)">
                    <g id="Group-4" transform="translate(0.000000, 265.000000)">
                        <g id="1" transform="translate(0.000000, 63.000000)">
                            <g id="ic_hotels">
                                <rect id="Rectangle-7" x="0" y="0" width="28" height="28"></rect>
                                <path d="M8.84003483,18.0043817 L23.0701204,18.0043817 C24.6836773,18.0043817 26,16.6880589 26,15.0745021 L26,9.08735677 C26,9.08204901 26,9.07143351 26,9.06612576 C26,9.0502025 26,9.03958699 26,9.02366373 C26,9.01304823 26,9.00243272 25.9946922,8.99181721 C25.9946922,8.98120171 25.9893845,8.96527845 25.9893845,8.95466294 C25.9893845,8.94404744 25.9840767,8.93343193 25.9840767,8.92281643 C25.978769,8.91220092 25.978769,8.90158541 25.9734612,8.88566216 C25.9681535,8.87504665 25.9681535,8.86443114 25.9628457,8.85381564 C25.957538,8.84320013 25.957538,8.83258463 25.9522302,8.82196912 C25.9469225,8.81135362 25.9416147,8.80073811 25.936307,8.78481485 C25.9309992,8.77419934 25.9256915,8.76358384 25.9203837,8.75827609 C25.915076,8.74766058 25.9097682,8.73704507 25.9044604,8.72642957 C25.8991527,8.71581406 25.8938449,8.71050631 25.8885372,8.6998908 C25.8832294,8.6892753 25.8726139,8.67865979 25.8673062,8.66804429 C25.8619984,8.65742878 25.8566907,8.65212103 25.8460752,8.64150552 C25.8407674,8.63089002 25.8301519,8.62558226 25.8248442,8.61496676 C25.8195364,8.60435125 25.8089209,8.5990435 25.8036131,8.58842799 C25.7983054,8.57781249 25.7876899,8.57250473 25.7823821,8.56719698 C25.7717666,8.55658148 25.7664589,8.55127372 25.7558434,8.54065822 C25.7452279,8.53535046 25.7399201,8.52473496 25.7293046,8.5194272 C25.7186891,8.51411945 25.7080736,8.50350395 25.6974581,8.49819619 C25.6868426,8.49288844 25.6815348,8.48758069 25.6709193,8.48227293 C25.6603038,8.47696518 25.6496883,8.47165743 25.6390728,8.46104192 C25.6284573,8.45573417 25.6178418,8.45042642 25.6072263,8.44511866 C25.5966108,8.43981091 25.5859953,8.43450316 25.5753798,8.42919541 C25.5647643,8.42388765 25.5541488,8.4185799 25.5435332,8.41327215 C25.5329177,8.40796439 25.5223022,8.40796439 25.5116867,8.40265664 C25.5010712,8.39734889 25.485148,8.39204114 25.4745325,8.39204114 C25.463917,8.39204114 25.4533014,8.38673338 25.4479937,8.38673338 C25.4320704,8.38142563 25.4214549,8.38142563 25.4055317,8.38142563 C25.4002239,8.38142563 25.3949162,8.37611788 25.3843007,8.37611788 L7.34855626,5.88678176 L7.34855626,3.37090688 C7.34855626,3.34436811 7.34855626,3.31782935 7.34324851,3.29659834 C7.34324851,3.29129059 7.34324851,3.28598283 7.33794076,3.27536733 C7.33794076,3.25944407 7.332633,3.24352081 7.332633,3.22759755 C7.32732525,3.21167429 7.32732525,3.20105879 7.3220175,3.18513553 C7.3220175,3.17452002 7.31670975,3.16921227 7.31670975,3.15859676 C7.31140199,3.1426735 7.30609424,3.12675025 7.30078649,3.11082699 C7.30078649,3.10551923 7.29547873,3.09490373 7.29547873,3.08959597 C7.29017098,3.07367272 7.28486323,3.06305721 7.27424772,3.04713395 C7.26893997,3.0418262 7.26893997,3.03121069 7.26363222,3.02590294 C7.25832446,3.01528743 7.25301671,3.00467193 7.24240121,2.99405642 C7.23709345,2.98344092 7.2317857,2.97813316 7.22647795,2.96751766 C7.22117019,2.95690215 7.21586244,2.9515944 7.21055469,2.94097889 C7.20524693,2.93036339 7.19463143,2.91974788 7.18932368,2.90913238 C7.18401592,2.90382462 7.17870817,2.89851687 7.17340042,2.89320912 C7.16278491,2.88259361 7.15216941,2.87197811 7.1415539,2.8613626 C7.13624615,2.85605485 7.13093839,2.85074709 7.12563064,2.84543934 C7.11501514,2.83482384 7.10439963,2.82420833 7.08847637,2.81359282 C7.08316862,2.80828507 7.07255311,2.80297732 7.06724536,2.79766956 C7.05662985,2.78705406 7.04601435,2.78174631 7.03539884,2.7711308 C7.01947558,2.76051529 7.00355232,2.74989979 6.99293682,2.74459204 C6.98762907,2.73928428 6.98232131,2.73928428 6.97701356,2.73397653 C6.95578255,2.72336102 6.92924378,2.71274552 6.90801277,2.70213001 L2.99619887,1.05672661 C2.62996392,0.902801775 2.21065144,1.07264987 2.05672661,1.43888482 C1.90280177,1.80511977 2.07264987,2.22443225 2.43888482,2.37835708 L5.91015522,3.84329689 L5.91015522,7.09164167 L5.91015522,7.6064937 L5.91015522,11.5554619 L5.91015522,15.0851176 L5.91015522,19.54363 C5.91015522,21.0298008 7.02478334,22.2611995 8.46318438,22.4469708 C8.20310448,22.8822066 8.04917965,23.3917509 8.04917965,23.9331417 C8.04917965,25.5307753 9.34957911,26.825867 10.941905,26.825867 C12.5342309,26.825867 13.8346303,25.5254675 13.8346303,23.9331417 C13.8346303,23.4023664 13.691321,22.8981298 13.4365489,22.4735096 L19.8801609,22.4735096 C19.6253888,22.9034376 19.4820794,23.4023664 19.4820794,23.9331417 C19.4820794,25.5307753 20.7824789,26.825867 22.3748048,26.825867 C23.9671306,26.825867 25.2675301,25.5254675 25.2675301,23.9331417 C25.2675301,22.3408158 23.9671306,21.0404163 22.3748048,21.0404163 L8.84003483,21.0404163 C8.01202538,21.0404163 7.34324851,20.3663317 7.34324851,19.54363 L7.34324851,17.6009924 C7.77848425,17.8557646 8.29333628,18.0043817 8.84003483,18.0043817 Z M12.4068448,23.9278339 C12.4068448,24.7346124 11.7486834,25.387466 10.9472127,25.387466 C10.145742,25.387466 9.48758069,24.7293046 9.48758069,23.9278339 C9.48758069,23.1263632 10.145742,22.4682019 10.9472127,22.4682019 C11.7486834,22.4682019 12.4068448,23.1210555 12.4068448,23.9278339 Z M23.8397446,23.9278339 C23.8397446,24.7346124 23.1815832,25.387466 22.3801125,25.387466 C21.5786418,25.387466 20.9204805,24.7293046 20.9204805,23.9278339 C20.9204805,23.1263632 21.5786418,22.4682019 22.3801125,22.4682019 C23.1815832,22.4682019 23.8397446,23.1210555 23.8397446,23.9278339 Z M23.0701204,16.5712884 L8.84003483,16.5712884 C8.01202538,16.5712884 7.34324851,15.8972038 7.34324851,15.0745021 L7.34324851,11.5448464 L7.34324851,7.5958782 L7.34324851,7.33049055 L24.5669067,9.7030561 L24.5669067,15.0691943 C24.5669067,15.9025115 23.8928221,16.5712884 23.0701204,16.5712884 Z" id="Shape" stroke="#FFFFFF" stroke-width="0.5" fill="#FFFFFF" fill-rule="nonzero"></path>
                            </g>
                        </g>
                    </g>
                </g>
            </g>
        </g>
    </g>
</svg>