<?xml version="1.0" encoding="UTF-8"?>
<svg width="28px" height="28px" viewBox="0 0 28 28" version="1.1" xmlns="http://www.w3.org/2000/svg" xmlns:xlink="http://www.w3.org/1999/xlink">
    <!-- Generator: Sketch 51.2 (57519) - http://www.bohemiancoding.com/sketch -->
    <title>ic_chat</title>
    <desc>Created with Sketch.</desc>
    <defs></defs>
    <g id="industrial-landings" stroke="none" stroke-width="1" fill="none" fill-rule="evenodd">
        <g id="Artboard-Copy-2" transform="translate(-1039.000000, -775.000000)">
            <g id="ic_hotels" transform="translate(1039.000000, 775.000000)">
                <rect id="Rectangle-7" x="0" y="0" width="28" height="28"></rect>
                <g id="chat" opacity="0.6" transform="translate(3.000000, 3.000000)" fill="#556070" fill-rule="nonzero">
                    <path d="M17.905479,3.07511927 C15.9242236,1.09386385 13.2928001,0 10.4900486,0 C7.68729701,0 5.05587352,1.09386385 3.07461811,3.07511927 C-0.747315837,6.89705322 -1.02407657,13.0033615 2.38051976,17.1415934 C1.91046582,18.1036664 1.35694435,18.7450485 0.728741411,19.0525604 C0.346548017,19.2414606 0.131289668,19.6544052 0.192792053,20.0761358 C0.258687466,20.5022595 0.583771503,20.8317365 1.00989517,20.8976319 C1.24272563,20.9327762 1.4931282,20.9547413 1.75231683,20.9547413 C3.03947389,20.9547413 4.39252637,20.5110455 5.52153444,19.7334796 C7.04152197,20.5505828 8.75040967,20.9810995 10.4900486,20.9810995 C13.2928001,20.9810995 15.9242236,19.8916286 17.905479,17.9103732 C19.8867345,15.9291178 20.9762053,13.2933013 20.9762053,10.4949428 C20.9762053,7.69658423 19.8867345,5.05637468 17.905479,3.07511927 Z M17.0664108,17.0669119 C15.3091998,18.824123 12.9721091,19.790589 10.4900486,19.790589 C8.82948417,19.790589 7.19967096,19.3468932 5.78072307,18.512218 C5.68846949,18.4595017 5.58303683,18.4287505 5.48199719,18.4287505 C5.3545994,18.4287505 5.22280857,18.4726807 5.11737591,18.5517552 C3.77310949,19.5929028 2.42005701,19.7466587 1.82699829,19.7598378 C2.53427572,19.2326745 3.12733444,18.4155714 3.62374655,17.2777773 C3.71600013,17.0669119 3.67646288,16.8209024 3.52270692,16.6451813 C0.271866549,12.9726103 0.443194622,7.37589322 3.91368637,3.90540147 C5.67089738,2.14819046 8.00798802,1.1817244 10.4900486,1.1817244 C12.9721091,1.1817244 15.3091998,2.14819046 17.0664108,3.90540147 C20.6950515,7.53843524 20.6950515,13.4426642 17.0664108,17.0669119 Z" id="Shape" stroke="#556070" stroke-width="0.6" transform="translate(10.490801, 10.490550) scale(-1, 1) translate(-10.490801, -10.490550) "></path>
                    <circle id="Oval-2" cx="5.25" cy="10.25" r="1.25"></circle>
                    <circle id="Oval-2" cx="10.25" cy="10.25" r="1.25"></circle>
                    <circle id="Oval-2" cx="15.25" cy="10.25" r="1.25"></circle>
                </g>
            </g>
        </g>
    </g>
</svg>