<?xml version="1.0" encoding="UTF-8"?>
<svg width="28px" height="28px" viewBox="0 0 28 28" version="1.1" xmlns="http://www.w3.org/2000/svg" xmlns:xlink="http://www.w3.org/1999/xlink">
    <!-- Generator: Sketch 51.2 (57519) - http://www.bohemiancoding.com/sketch -->
    <title>ic_fingerprint</title>
    <desc>Created with Sketch.</desc>
    <defs></defs>
    <g id="industrial-landings" stroke="none" stroke-width="1" fill="none" fill-rule="evenodd">
        <g id="Artboard-Copy-2" transform="translate(-1039.000000, -852.000000)">
            <g id="ic_sales_copy" transform="translate(1039.000000, 852.000000)">
                <rect id="Rectangle-7" x="0" y="0" width="28" height="28"></rect>
                <g id="fingerprint" opacity="0.6" transform="translate(4.000000, 3.000000)" fill="#556070" fill-rule="nonzero" stroke="#556070" stroke-width="1.3">
                    <path d="M10.8095698,10.0889062 C10.6227963,10.1431762 10.5149611,10.3384073 10.5688787,10.5255332 C10.5783936,10.5583066 11.5193089,13.9054279 11.2602929,21.3397162 C11.2532449,21.534595 11.4054828,21.6977574 11.6000092,21.7041007 C11.604238,21.7044531 11.6084668,21.7044531 11.6126957,21.7044531 C11.8015835,21.7044531 11.9576979,21.5546819 11.9643936,21.3643844 C12.2276384,13.818032 11.2860183,10.4684439 11.2461968,10.3295973 C11.1922792,10.1424714 10.9974005,10.0360458 10.8095698,10.0889062 Z" id="Shape"></path>
                    <path d="M19.6707368,5.80724485 C18.1779588,2.27969336 14.738508,0 10.9078902,0 C9.64382151,0 8.4111167,0.247034325 7.24431121,0.73405492 C6.59800458,1.00364302 5.98729062,1.32432952 5.42908467,1.68695195 C5.2659222,1.79337757 5.21940503,2.01151487 5.32547826,2.17467735 C5.43190389,2.33783982 5.65039359,2.38435698 5.81320366,2.27828375 C6.33581693,1.93856751 6.9084714,1.63796796 7.51566133,1.38459039 C8.59648055,0.933162471 9.73756064,0.704805492 10.9078902,0.704805492 C14.4544714,0.704805492 17.6394874,2.81534554 19.0212586,6.08211899 C19.5956751,7.44027918 19.9061419,9.94092906 20.0400549,11.3110709 C20.0580275,11.4932632 20.2109703,11.6289382 20.3903432,11.6289382 C20.4016201,11.6289382 20.4132494,11.6282334 20.4252311,11.6271762 C20.6187002,11.6081465 20.7603661,11.4358215 20.7413364,11.242 C20.5732403,9.52016018 20.2511442,7.17914874 19.6707368,5.80724485 Z" id="Shape"></path>
                    <path d="M3.47151945,4.33522654 C3.61036613,4.19884668 3.61142334,3.97542334 3.47504348,3.83692906 C3.33866362,3.69843478 3.11559268,3.69702517 2.976746,3.83340503 C1.08152403,5.70043478 -0.806297483,9.17265904 0.962059497,15.1092357 C1.00751945,15.2625309 1.14742334,15.3612037 1.29966133,15.3612037 C1.33278719,15.3612037 1.36661785,15.35627 1.40009611,15.3464027 C1.58651716,15.2910755 1.69294279,15.0947872 1.63726316,14.9083661 C0.316810069,10.4744348 0.950782609,6.8186087 3.47151945,4.33522654 Z" id="Shape"></path>
                    <path d="M10.9078902,4.22883295 C10.5248284,4.22883295 10.1435286,4.27006407 9.77385812,4.35182151 C9.58391304,4.39375744 9.46374371,4.5815881 9.50567963,4.77188558 C9.54761556,4.96183066 9.73333181,5.07953318 9.92574371,5.04006407 C10.245373,4.96958352 10.5759268,4.93363844 10.9075378,4.93363844 C12.7516613,4.93363844 14.4079542,6.03102059 15.1265034,7.72995423 C15.9828421,9.752746 16.0388741,12.9994325 15.8411762,18.664659 C15.8341281,18.8591854 15.9863661,19.0227002 16.1808924,19.0290435 C16.1851213,19.0293959 16.1893501,19.0293959 16.1935789,19.0293959 C16.3824668,19.0293959 16.5385812,18.8796247 16.5452769,18.6893272 C16.7510801,12.7960961 16.6883524,9.6121373 15.7752769,7.45508009 C14.946778,5.49536842 13.0360503,4.22883295 10.9078902,4.22883295 Z" id="Shape"></path>
                    <path d="M7.37755149,6.67024714 C7.53683753,6.55853547 7.57560183,6.33863616 7.46353776,6.17935011 C7.35217849,6.02006407 7.13192677,5.98094737 6.97264073,6.09336384 C5.15776659,7.36765217 4.36908924,9.81579405 5.01151945,12.1881693 C5.01891991,12.2138947 5.73429748,14.8177986 5.73429748,18.8852311 C5.73429748,19.0801098 5.89182151,19.2376339 6.08670023,19.2376339 C6.28157895,19.2376339 6.43910297,19.0801098 6.43910297,18.8852311 C6.43910297,14.7222975 5.72090618,12.1078215 5.69095195,12.0010435 C5.12675515,9.91693364 5.80477803,7.77467735 7.37755149,6.67024714 Z" id="Shape"></path>
                </g>
            </g>
        </g>
    </g>
</svg>