<?xml version="1.0" encoding="UTF-8"?>
<svg width="28px" height="28px" viewBox="0 0 28 28" version="1.1" xmlns="http://www.w3.org/2000/svg" xmlns:xlink="http://www.w3.org/1999/xlink">
    <!-- Generator: sketchtool 51.1 (57501) - http://www.bohemiancoding.com/sketch -->
    <title>630031BF-524F-4F93-8628-96447766A834</title>
    <desc>Created with sketchtool.</desc>
    <defs></defs>
    <g id="industrial-landings" stroke="none" stroke-width="1" fill="none" fill-rule="evenodd">
        <g id="e-commerce" transform="translate(-1320.000000, -5105.000000)">
            <g id="3-copy-2" transform="translate(0.000000, 4462.000000)">
                <g id="txt" transform="translate(994.000000, 251.000000)">
                    <g id="Group-4" transform="translate(0.000000, 308.000000)">
                        <g id="2" transform="translate(326.000000, 84.000000)">
                            <g id="ic_sales_copy">
                                <rect id="Rectangle-7" x="0" y="0" width="28" height="28"></rect>
                                <g id="fingerprint" transform="translate(3.000000, 3.000000)" fill="#FFFFFF" fill-rule="nonzero" stroke="#FFFFFF" stroke-width="0.7">
                                    <path d="M10.8390526,10.0497544 C10.6344912,10.109193 10.516386,10.3230175 10.5754386,10.5279649 C10.5858596,10.5638596 11.616386,14.2297544 11.3327018,22.3720702 C11.3249825,22.5855088 11.4917193,22.7642105 11.7047719,22.7711579 C11.7094035,22.7715439 11.7140351,22.7715439 11.7186667,22.7715439 C11.9255439,22.7715439 12.0965263,22.6075088 12.1038596,22.3990877 C12.3921754,14.1340351 11.3608772,10.4654386 11.3172632,10.3133684 C11.2582105,10.1084211 11.0447719,9.99185965 10.8390526,10.0497544 Z" id="Shape"></path>
                                    <path d="M20.5441404,6.36031579 C18.909193,2.49680702 15.1421754,0 10.9467368,0 C9.5622807,0 8.21217544,0.270561404 6.93424561,0.803964912 C6.22638596,1.09922807 5.55750877,1.45045614 4.94614035,1.84761404 C4.7674386,1.96417544 4.71649123,2.20308772 4.83266667,2.38178947 C4.94922807,2.56049123 5.18852632,2.6114386 5.36684211,2.49526316 C5.93922807,2.12319298 6.56642105,1.79396491 7.2314386,1.51645614 C8.41519298,1.02203509 9.66494737,0.771929825 10.9467368,0.771929825 C14.8310877,0.771929825 18.3194386,3.08347368 19.832807,6.66136842 C20.4619298,8.14887719 20.8019649,10.8876842 20.9486316,12.3883158 C20.9683158,12.5878596 21.1358246,12.7364561 21.3322807,12.7364561 C21.3446316,12.7364561 21.3573684,12.7356842 21.3704912,12.7345263 C21.582386,12.7136842 21.7375439,12.5249474 21.7167018,12.3126667 C21.5325965,10.4268421 21.1798246,7.86287719 20.5441404,6.36031579 Z" id="Shape"></path>
                                    <path d="M3.80214035,3.74810526 C3.95421053,3.59873684 3.95536842,3.35403509 3.806,3.20235088 C3.65663158,3.05066667 3.41231579,3.04912281 3.26024561,3.19849123 C1.18452632,5.24333333 -0.883087719,9.04624561 1.05368421,15.5482105 C1.10347368,15.7161053 1.25670175,15.8241754 1.4234386,15.8241754 C1.4597193,15.8241754 1.49677193,15.8187719 1.5334386,15.8079649 C1.73761404,15.7473684 1.85417544,15.532386 1.79319298,15.3282105 C0.346982456,10.472 1.04133333,6.468 3.80214035,3.74810526 Z" id="Shape"></path>
                                    <path d="M10.9467368,4.63157895 C10.527193,4.63157895 10.1095789,4.67673684 9.70470175,4.7662807 C9.49666667,4.81221053 9.36505263,5.01792982 9.41098246,5.22635088 C9.45691228,5.43438596 9.66031579,5.56329825 9.87105263,5.52007018 C10.2211228,5.44287719 10.5831579,5.40350877 10.9463509,5.40350877 C12.9661053,5.40350877 14.7801404,6.60540351 15.5671228,8.46614035 C16.5050175,10.6815789 16.566386,14.2374737 16.3498596,20.4422456 C16.3421404,20.6552982 16.5088772,20.834386 16.7219298,20.8413333 C16.7265614,20.8417193 16.731193,20.8417193 16.7358246,20.8417193 C16.9427018,20.8417193 17.1136842,20.6776842 17.1210175,20.4692632 C17.3464211,14.0147719 17.2777193,10.5275789 16.2776842,8.16508772 C15.3702807,6.01873684 13.2775789,4.63157895 10.9467368,4.63157895 Z" id="Shape"></path>
                                    <path d="M8.08017544,6.30550877 C8.25463158,6.18315789 8.29708772,5.94231579 8.17435088,5.76785965 C8.05238596,5.59340351 7.81115789,5.5505614 7.63670175,5.67368421 C5.64898246,7.06933333 4.78519298,9.75063158 5.48880702,12.3489474 C5.49691228,12.3771228 6.28042105,15.2290175 6.28042105,19.6838246 C6.28042105,19.8972632 6.45294737,20.0697895 6.66638596,20.0697895 C6.87982456,20.0697895 7.05235088,19.8972632 7.05235088,19.6838246 C7.05235088,15.1244211 6.26575439,12.2609474 6.23294737,12.144 C5.61501754,9.86140351 6.35761404,7.51512281 8.08017544,6.30550877 Z" id="Shape"></path>
                                </g>
                            </g>
                        </g>
                    </g>
                </g>
            </g>
        </g>
    </g>
</svg>