<?xml version="1.0" encoding="UTF-8"?>
<svg width="28px" height="28px" viewBox="0 0 28 28" version="1.1" xmlns="http://www.w3.org/2000/svg" xmlns:xlink="http://www.w3.org/1999/xlink">
    <!-- Generator: Sketch 51.2 (57519) - http://www.bohemiancoding.com/sketch -->
    <title>ic_geoloc</title>
    <desc>Created with Sketch.</desc>
    <defs></defs>
    <g id="industrial-landings" stroke="none" stroke-width="1" fill="none" fill-rule="evenodd">
        <g id="Artboard-Copy-2" transform="translate(-21.000000, -813.000000)">
            <g id="ic_hotels" transform="translate(21.000000, 813.000000)">
                <rect id="Rectangle-7" x="0" y="0" width="28" height="28"></rect>
                <g id="Group-15" opacity="0.8" transform="translate(2.000000, 2.000000)" fill="#FFFFFF">
                    <path d="M6.08295844,11 C6.0283988,11.3252085 6,11.6592878 6,12 C6,12.3407122 6.0283988,12.6747915 6.08295844,13 L1,13 C0.44771525,13 6.76353751e-17,12.5522847 0,12 C-6.76353751e-17,11.4477153 0.44771525,11 1,11 L6.08295844,11 Z M17.9170416,11 L23,11 C23.5522847,11 24,11.4477153 24,12 C24,12.5522847 23.5522847,13 23,13 L17.9170416,13 C17.9716012,12.6747915 18,12.3407122 18,12 C18,11.6592878 17.9716012,11.3252085 17.9170416,11 Z" id="Combined-Shape"></path>
                    <path d="M13,6.08295844 C12.6747915,6.0283988 12.3407122,6 12,6 C11.6592878,6 11.3252085,6.0283988 11,6.08295844 L11,1 C11,0.44771525 11.4477153,1.01453063e-16 12,1.23259516e-32 C12.5522847,-1.01453063e-16 13,0.44771525 13,1 L13,6.08295844 Z M13,17.9170416 L13,23 C13,23.5522847 12.5522847,24 12,24 C11.4477153,24 11,23.5522847 11,23 L11,17.9170416 C11.3252085,17.9716012 11.6592878,18 12,18 C12.3407122,18 12.6747915,17.9716012 13,17.9170416 Z" id="Combined-Shape"></path>
                    <path d="M12,18 C8.6862915,18 6,15.3137085 6,12 C6,8.6862915 8.6862915,6 12,6 C15.3137085,6 18,8.6862915 18,12 C18,15.3137085 15.3137085,18 12,18 Z M12,16 C14.209139,16 16,14.209139 16,12 C16,9.790861 14.209139,8 12,8 C9.790861,8 8,9.790861 8,12 C8,14.209139 9.790861,16 12,16 Z" id="Oval-6" fill-rule="nonzero"></path>
                </g>
            </g>
        </g>
    </g>
</svg>