<?xml version="1.0" encoding="UTF-8"?>
<svg width="28px" height="28px" viewBox="0 0 28 28" version="1.1" xmlns="http://www.w3.org/2000/svg" xmlns:xlink="http://www.w3.org/1999/xlink">
    <!-- Generator: sketchtool 51.1 (57501) - http://www.bohemiancoding.com/sketch -->
    <title>F92B7563-2FA5-4B29-AF6D-2C010DB9D6FB</title>
    <desc>Created with sketchtool.</desc>
    <defs></defs>
    <g id="industrial-landings" stroke="none" stroke-width="1" fill="none" fill-rule="evenodd">
        <g id="e-commerce" transform="translate(-716.000000, -2195.000000)">
            <g id="2" transform="translate(0.000000, 1628.000000)">
                <g id="txt" transform="translate(381.000000, 242.000000)">
                    <g id="Group-6" transform="translate(0.000000, 262.000000)">
                        <g id="3-copy" transform="translate(335.000000, 63.000000)">
                            <g id="ic_hotels">
                                <rect id="Rectangle-7" x="0" y="0" width="28" height="28"></rect>
                                <g id="hand-shake" transform="translate(1.000000, 6.000000)" fill="#979BA3" fill-rule="nonzero" stroke="#979BA3" stroke-width="0.3">
                                    <path d="M20.5291836,11.1419141 C20.0189336,10.0780977 18.1935,8.60148047 16.4298672,7.17473047 C15.4461836,6.37954688 14.5166836,5.62773047 13.9241172,5.03516406 C13.7756836,4.88566406 13.5536172,4.83798047 13.3575508,4.90841406 C12.9924844,5.04059766 12.7671172,5.14241406 12.5894844,5.22148047 C12.318668,5.34279688 12.227668,5.38398047 11.8625508,5.42079688 C11.7011172,5.43704688 11.5559844,5.52373047 11.4660508,5.65804688 C10.7001172,6.80311328 9.90711719,6.70561328 9.37736719,6.52798047 C9.20836719,6.47166406 9.17805078,6.39904688 9.16180078,6.32973047 C9.04805078,5.85416406 9.61898438,4.74698047 10.3588672,4.00704688 C12.1193008,2.24554688 13.0271172,1.80461328 14.9446172,2.66154688 C17.1199336,3.63436328 19.2996172,4.39598047 19.3213008,4.40354688 C19.6062344,4.50211328 19.9128008,4.35261328 20.0113672,4.06986328 C20.1088672,3.78711328 19.9604336,3.47836328 19.6776836,3.37979688 C19.656,3.37223047 17.5196836,2.62579688 15.3876836,1.67136328 C12.9036172,0.560929688 11.54075,1.29217969 9.594,3.24004688 C8.853,3.98104688 7.84656641,5.48036328 8.10656641,6.57998047 C8.21813281,7.04798047 8.5475,7.39466406 9.03713281,7.55604688 C10.2645664,7.96123047 11.3846992,7.57336328 12.2188828,6.46623047 C12.5633828,6.41316406 12.7508164,6.33516406 13.0324492,6.20841406 C13.1342656,6.16291406 13.2534492,6.10984766 13.4116328,6.04591406 C14.0313164,6.62766406 14.8676328,7.30473047 15.7483828,8.01648047 C17.3408828,9.30454688 19.1468164,10.7649141 19.5530664,11.6099141 C19.7535,12.0269805 19.5378828,12.2989141 19.3916328,12.4234805 C19.1771328,12.6076641 18.8835664,12.6661641 18.7243164,12.5545469 C18.5488164,12.4342969 18.32025,12.4267305 18.1393164,12.5350469 C17.9573164,12.6433633 17.8555,12.8481133 17.87825,13.0582969 C17.9150664,13.4027969 17.5998164,13.5999805 17.4633164,13.6682305 C17.1166328,13.8437305 16.7548164,13.8134141 16.6193828,13.6877305 C16.4676992,13.5469141 16.2499492,13.5057305 16.0571328,13.5772305 C15.8643164,13.6497969 15.7299492,13.8274805 15.7104492,14.0332969 C15.6779492,14.3886133 15.4146992,14.7298633 15.0712656,14.8631133 C14.9055156,14.9259297 14.6650156,14.9638633 14.4494492,14.7666797 C14.3151328,14.6453633 14.1287656,14.5987461 13.9543828,14.6409961 C13.7778164,14.6843125 13.6358828,14.8121797 13.5741328,14.9822461 C13.5535664,15.0364297 13.5069492,15.1664297 12.9999492,15.1664297 C12.6391992,15.1664297 11.9902656,14.9226797 11.6728828,14.7124961 C11.2926328,14.4622461 8.90819922,12.6834297 6.84881641,10.9587461 C6.55956641,10.7149961 6.05906641,10.1928125 5.61706641,9.7313125 C5.22488281,9.3218125 4.86631641,8.95024609 4.68213281,8.79424609 C4.45138281,8.59924609 4.11013281,8.62849609 3.91838281,8.85817969 C3.72556641,9.08674609 3.75369922,9.42911328 3.98231641,9.62192969 C4.15025,9.76386328 4.47525,10.1072461 4.83381641,10.4809961 C5.317,10.9858125 5.81638281,11.5079961 6.15225,11.7896797 C8.16943359,13.4786133 10.5939336,15.3018633 11.0770664,15.6192461 C11.47575,15.8814297 12.3348164,16.2497461 13,16.2497461 C13.5340664,16.2497461 13.9446836,16.1273125 14.2295664,15.8879297 C14.6108828,16.0363633 15.04425,16.0374297 15.4613164,15.8749297 C15.95425,15.6842461 16.3593828,15.2996797 16.5890664,14.8338633 C17.0158828,14.9248633 17.5045,14.8609297 17.9486328,14.6377969 C18.3830664,14.4189805 18.6971992,14.0842305 18.8531992,13.6931133 C19.2843828,13.7158633 19.7285156,13.5631133 20.0957656,13.2478633 C20.7176836,12.7159805 20.8888164,11.8883477 20.5291836,11.1419141 Z" id="Shape"></path>
                                    <path d="M10.8333164,2.16648047 L5.95831641,2.16648047 C5.65931641,2.16648047 5.41663281,2.40916406 5.41663281,2.70816406 C5.41663281,3.00716406 5.65931641,3.24984766 5.95831641,3.24984766 L10.8333164,3.24984766 C11.1323164,3.24984766 11.375,3.00716406 11.375,2.70816406 C11.375,2.40916406 11.1323164,2.16648047 10.8333164,2.16648047 Z" id="Shape"></path>
                                    <path d="M22.11625,9.98923047 C21.9483164,9.74116406 21.6125,9.67291406 21.3644336,9.84191406 L19.7806172,10.9057305 C19.5325508,11.0725469 19.4664336,11.4094805 19.6333008,11.6575469 C19.7383672,11.8124805 19.9095508,11.8969805 20.0839844,11.8969805 C20.186918,11.8969805 20.2919844,11.8677305 20.385168,11.8049141 L21.9689844,10.7410977 C22.217,10.5742305 22.2830664,10.2373477 22.11625,9.98923047 Z" id="Shape"></path>
                                    <path d="M18.7535664,12.5740977 C18.36575,12.2685977 16.6313164,10.4930312 15.5588164,9.37503125 C15.3518828,9.15834766 15.0085,9.15078125 14.7928828,9.35878125 C14.5761992,9.56571484 14.5696992,9.90909766 14.7766328,10.1247148 C15.0550664,10.4150312 17.5109492,12.9749648 18.0818828,13.4256484 C18.1804492,13.5036484 18.2996328,13.541582 18.4166328,13.541582 C18.5758828,13.541582 18.7351328,13.470082 18.8434492,13.3346484 C19.02875,13.1005977 18.9886836,12.7593477 18.7535664,12.5740977 Z" id="Shape"></path>
                                    <path d="M16.5890664,13.6606641 C15.9401328,13.1417305 14.30975,11.4094805 13.9413828,11.0086641 C13.7376992,10.7876641 13.3964492,10.7746641 13.1754492,10.9761641 C12.9555156,11.1787305 12.9403828,11.5221641 13.1429492,11.7420977 C13.1624492,11.7626641 15.1081328,13.8632813 15.9119492,14.5067813 C16.0116328,14.5858477 16.1318828,14.6248477 16.2499492,14.6248477 C16.4081328,14.6248477 16.5662656,14.5544141 16.6735156,14.4222813 C16.8599336,14.1882305 16.822,13.8469805 16.5890664,13.6606641 Z" id="Shape"></path>
                                    <path d="M14.43325,14.7515977 C13.6608164,14.1005312 12.08025,12.4180977 11.7715,12.0876641 C11.56675,11.8688477 11.2233164,11.8569141 11.0055664,12.0616641 C10.78675,12.2664141 10.7758828,12.6087305 10.9795664,12.8275977 C11.42375,13.3031641 12.9360664,14.9065312 13.7345,15.5803477 C13.8363164,15.6659141 13.9598164,15.7081641 14.0833164,15.7081641 C14.2371328,15.7081641 14.391,15.6420977 14.49825,15.5153477 C14.6910664,15.2856641 14.6618164,14.9444141 14.43325,14.7515977 Z" id="Shape"></path>
                                    <path d="M6.331,1.23159766 C5.40256641,0.351914063 1.69,0.0669804688 0.574183594,0.0009140625 C0.420367188,-0.00665234375 0.278433594,0.0442304688 0.170117188,0.147164063 C0.06175,0.248980469 0,0.391980469 0,0.541480469 L0,10.2914805 C0,10.5904805 0.242683594,10.8331641 0.541683594,10.8331641 L3.79168359,10.8331641 C4.02568359,10.8331641 4.23368359,10.6825977 4.30625,10.4594141 C4.38531641,10.2167305 6.25193359,4.48809766 6.49781641,1.67141406 C6.51193359,1.50673047 6.45125,1.34423047 6.331,1.23159766 Z M3.39625,9.74984766 L1.08331641,9.74984766 L1.08331641,1.12216406 C2.82425,1.25973047 4.70275,1.55873047 5.38525,1.89023047 C5.09818359,4.26273047 3.79925,8.47798047 3.39625,9.74984766 Z" id="Shape"></path>
                                    <path d="M25.4583164,1.08316406 C21.2051328,1.08316406 18.8456328,2.17191406 18.7470664,2.21741406 C18.60625,2.28348047 18.5011328,2.40591406 18.4578164,2.55434766 C18.4145,2.70278125 18.4361328,2.86203125 18.5173828,2.99416406 C19.1868828,4.07209766 21.2831328,10.0585977 21.6861328,11.5189141 C21.7511328,11.7539805 21.9645664,11.9164805 22.2083164,11.9164805 L25.4583164,11.9164805 C25.7573164,11.9164805 26,11.6737969 26,11.3747969 L26,1.62479688 C26,1.32473047 25.7573164,1.08316406 25.4583164,1.08316406 Z M24.9166836,10.8331641 L22.6135,10.8331641 C22.1,9.16048047 20.5833164,4.79898047 19.73725,2.99634766 C20.5638164,2.71578125 22.3394336,2.23366406 24.9166836,2.17303125 L24.9166836,10.8331641 Z" id="Shape"></path>
                                </g>
                            </g>
                        </g>
                    </g>
                </g>
            </g>
        </g>
    </g>
</svg>