<?xml version="1.0" encoding="UTF-8"?>
<svg width="28px" height="28px" viewBox="0 0 28 28" version="1.1" xmlns="http://www.w3.org/2000/svg" xmlns:xlink="http://www.w3.org/1999/xlink">
    <!-- Generator: sketchtool 51.1 (57501) - http://www.bohemiancoding.com/sketch -->
    <title>6B464282-40F2-40E1-9903-29C8FCCE24A5</title>
    <desc>Created with sketchtool.</desc>
    <defs></defs>
    <g id="industrial-landings" stroke="none" stroke-width="1" fill="none" fill-rule="evenodd">
        <g id="e-commerce" transform="translate(-716.000000, -4086.000000)">
            <g id="4" transform="translate(0.000000, 3503.000000)">
                <g id="txt" transform="translate(390.000000, 255.000000)">
                    <g id="Group-4" transform="translate(0.000000, 265.000000)">
                        <g id="3-copy" transform="translate(326.000000, 63.000000)">
                            <g id="ic_hotels">
                                <rect id="Rectangle-7" x="0" y="0" width="28" height="28"></rect>
                                <g id="Group-9" opacity="0.8" fill="#FFFFFF">
                                    <path d="M10.2942559,10.2942559 L12.0209272,12.0209272 C12.1346417,12.7478218 12.7013634,13.3207926 13.4648944,13.4648944 L17.6671124,17.6671124 C17.4998833,19.1795244 16.432093,20.4067243 14.9865887,20.8358269 C14.9954109,20.889242 15,20.9440851 15,21 L15,22 C15,22.5522847 14.5522847,23 14,23 C13.4477153,23 13,22.5522847 13,22 L13,21 C13,20.9704235 13.001284,20.9411469 13.0037993,20.9122228 C11.2722962,20.5437637 10,19.0571571 10,17.25 C10,16.6977153 10.4477153,16.25 11,16.25 C11.5522847,16.25 12,16.6977153 12,17.25 C12,18.2239422 12.7945836,19 13.845,19 C14.8954165,19 15.6900001,18.2239422 15.6900001,17.25 C15.6900001,16.2760578 14.8954165,15.5 13.845,15.5 C11.7004363,15.5 10,13.8392094 10,11.75 C10,11.2321784 10.1044616,10.7406756 10.2942559,10.2942559 Z M11.554395,8.72596787 C11.97771,8.42218652 12.4688379,8.2016155 13.0037993,8.08777717 C13.001284,8.05885315 13,8.02957652 13,8 L13,7 C13,6.44771525 13.4477153,6 14,6 C14.5522847,6 15,6.44771525 15,7 L15,8 C15,8.05591492 14.9954109,8.110758 14.9865887,8.16417312 C16.5628694,8.63209709 17.6900001,10.0490603 17.6900001,11.75 C17.6900001,12.3022847 17.2422848,12.75 16.6900001,12.75 C16.1377153,12.75 15.6900001,12.3022847 15.6900001,11.75 C15.6900001,10.7760578 14.8954165,10 13.845,10 C13.5407415,10 13.2579473,10.0651113 13.0097103,10.1812832 L11.554395,8.72596787 Z M4.10050506,4.10050506 L5.51471863,5.51471863 C3.34314575,7.6862915 2,10.6862915 2,14 C2,20.627417 7.372583,26 14,26 C17.3137085,26 20.3137085,24.6568542 22.4852814,22.4852814 L23.8994949,23.8994949 C21.3659932,26.4329966 17.8659932,28 14,28 C6.2680135,28 0,21.7319865 0,14 C0,10.1340068 1.56700338,6.63400675 4.10050506,4.10050506 Z M5.61565781,2.78723069 C7.95281887,1.03680709 10.8553298,0 14,0 C21.7319865,0 28,6.2680135 28,14 C28,17.1446702 26.9631929,20.0471811 25.2127693,22.3843422 L23.7814958,20.9530687 C25.1784181,18.991431 26,16.5916609 26,14 C26,7.372583 20.627417,2 14,2 C11.4083391,2 9.00856902,2.82158193 7.04693128,4.21850416 L5.61565781,2.78723069 Z" id="Oval-6" fill-rule="nonzero"></path>
                                    <rect id="Rectangle-15-Copy-2" transform="translate(13.727922, 14.727922) scale(-1, 1) rotate(45.000000) translate(-13.727922, -14.727922) " x="12.7279221" y="-2.27207794" width="2" height="34" rx="1"></rect>
                                </g>
                            </g>
                        </g>
                    </g>
                </g>
            </g>
        </g>
    </g>
</svg>