<?xml version="1.0" encoding="UTF-8"?>
<svg width="28px" height="28px" viewBox="0 0 28 28" version="1.1" xmlns="http://www.w3.org/2000/svg" xmlns:xlink="http://www.w3.org/1999/xlink">
    <!-- Generator: sketchtool 51.1 (57501) - http://www.bohemiancoding.com/sketch -->
    <title>172B837A-9B46-4A5A-8CC0-A778CA7A3A0D</title>
    <desc>Created with sketchtool.</desc>
    <defs></defs>
    <g id="industrial-landings" stroke="none" stroke-width="1" fill="none" fill-rule="evenodd">
        <g id="e-commerce" transform="translate(-1320.000000, -5021.000000)">
            <g id="3-copy-2" transform="translate(0.000000, 4462.000000)">
                <g id="txt" transform="translate(994.000000, 251.000000)">
                    <g id="Group-4" transform="translate(0.000000, 308.000000)">
                        <g id="3-copy" transform="translate(326.000000, 0.000000)">
                            <g id="ic_hotels">
                                <rect id="Rectangle-7" x="0" y="0" width="28" height="28"></rect>
                                <path d="M24.0208333,15.625 C23.0160417,15.625 22.125,16.1233333 21.5860417,16.8897917 L17.388125,14.95875 C17.4747917,14.6527083 17.5208333,14.333125 17.5208333,14 C17.5208333,12.6458333 16.7570833,11.473125 15.6385417,10.8827083 L17.1741667,6.39229167 C17.2879167,6.40854167 17.404375,6.41666667 17.5208333,6.41666667 C19.0185417,6.41666667 20.2291667,5.20333333 20.2291667,3.70833333 C20.2291667,2.21333333 19.0185417,1 17.5208333,1 C16.0258333,1 14.8125,2.21333333 14.8125,3.70833333 C14.8125,4.70229167 15.34875,5.574375 16.1504167,6.04291667 L14.6147917,10.5333333 C14.414375,10.498125 14.2085417,10.4791667 14,10.4791667 C12.9329167,10.4791667 11.976875,10.953125 11.3322917,11.7033333 L6.04833333,8.418125 C6.110625,8.215 6.14583333,7.995625 6.14583333,7.77083333 C6.14583333,6.57375 5.17625,5.60416667 3.97916667,5.60416667 C2.78208333,5.60416667 1.8125,6.57375 1.8125,7.77083333 C1.8125,8.96791667 2.78208333,9.9375 3.97916667,9.9375 C4.55875,9.9375 5.08416667,9.71 5.47416667,9.33895833 L10.758125,12.6241667 C10.579375,13.0466667 10.4791667,13.5125 10.4791667,14 C10.4791667,14.5795833 10.62,15.129375 10.8691667,15.6114583 L6.02395833,19.1485417 C5.49041667,18.6420833 4.77,18.3333333 3.97916667,18.3333333 C2.33520833,18.3333333 1,19.6658333 1,21.3125 C1,22.9591667 2.33520833,24.2916667 3.97916667,24.2916667 C5.62583333,24.2916667 6.95833333,22.9591667 6.95833333,21.3125 C6.95833333,20.849375 6.85270833,20.4133333 6.66583333,20.0233333 L11.5110417,16.4889583 C12.1204167,17.0983333 12.9545833,17.4880625 13.8808333,17.518125 L14.560625,23.0888958 C13.75625,23.4033333 13.1875,24.1860417 13.1875,25.1041667 C13.1875,26.30125 14.1570833,27.2708333 15.3541667,27.2708333 C16.55125,27.2708333 17.5208333,26.30125 17.5208333,25.1041667 C17.5208333,24.0045833 16.7002083,23.0945833 15.6385417,22.9564583 L14.95875,17.3854167 C15.779375,17.1579167 16.478125,16.6352083 16.9358333,15.941875 L21.13375,17.8729167 C21.0741667,18.1058333 21.0416667,18.3522917 21.0416667,18.6041667 C21.0416667,20.2508333 22.376875,21.5833333 24.0208333,21.5833333 C25.6675,21.5833333 27,20.2508333 27,18.6041667 C27,16.9575 25.6675,15.625 24.0208333,15.625 Z M15.8958333,3.70833333 C15.8958333,2.811875 16.624375,2.08333333 17.5208333,2.08333333 C18.4172917,2.08333333 19.1458333,2.811875 19.1458333,3.70833333 C19.1458333,4.599375 18.4254167,5.32520833 17.5370833,5.33333333 L17.5208333,5.33333333 C17.1389583,5.33333333 16.7895833,5.20333333 16.5133333,4.98125 C16.136875,4.68604167 15.8958333,4.225625 15.8958333,3.70833333 Z M5.05979167,7.80333333 C5.04895833,8.20416667 4.82145833,8.548125 4.48833333,8.726875 C4.33666667,8.808125 4.16333333,8.85416667 3.97916667,8.85416667 C3.380625,8.85416667 2.89583333,8.369375 2.89583333,7.77083333 C2.89583333,7.17229167 3.380625,6.6875 3.97916667,6.6875 C4.57770833,6.6875 5.0625,7.17229167 5.0625,7.77083333 C5.0625,7.78166667 5.0625,7.7925 5.05979167,7.80333333 Z M3.97916667,23.2083333 C2.93375,23.2083333 2.08333333,22.3579167 2.08333333,21.3125 C2.08333333,20.2670833 2.93375,19.4166667 3.97916667,19.4166667 C4.40979167,19.4166667 4.80520833,19.5602083 5.12479167,19.8039583 C5.41729167,20.0236042 5.64208333,20.329375 5.76666667,20.6814583 C5.83708333,20.8791667 5.875,21.0904167 5.875,21.3125 C5.875,22.3579167 5.02458333,23.2083333 3.97916667,23.2083333 Z M15.3541667,24.0208333 C15.5058333,24.0208333 15.649375,24.0533333 15.779375,24.1102083 C16.1666667,24.2727083 16.4375,24.6572917 16.4375,25.1041667 C16.4375,25.7027083 15.9527083,26.1875 15.3541667,26.1875 C14.755625,26.1875 14.2708333,25.7027083 14.2708333,25.1041667 C14.2708333,24.7520833 14.43875,24.4379167 14.7014583,24.2402083 C14.8829167,24.1020833 15.1104167,24.0208333 15.3541667,24.0208333 Z M16.3860417,14.4983333 C16.3104792,14.86125 16.1533958,15.1970833 15.93375,15.4814583 C15.6520833,15.8497917 15.2675,16.1341667 14.8260417,16.29125 C14.56875,16.3860417 14.2897917,16.4375 14,16.4375 C13.9160417,16.4375 13.8320833,16.4320833 13.748125,16.4239583 C13.23625,16.3725 12.7704167,16.1585417 12.4020833,15.8389583 C12.1285417,15.600625 11.9064583,15.3 11.7602083,14.9614583 C11.6329167,14.66625 11.5625,14.34125 11.5625,14 C11.5625,13.7210417 11.6085417,13.455625 11.6979167,13.2064583 C11.8170833,12.8570833 12.0147917,12.5429167 12.269375,12.285625 C12.7108333,11.83875 13.3229167,11.5625 14,11.5625 C14.0866667,11.5625 14.1733333,11.5679167 14.2572917,11.5760417 C14.6310417,11.6139583 14.9777083,11.7385417 15.2810417,11.928125 C15.974375,12.35875 16.4375,13.1252083 16.4375,14 C16.4375,14.170625 16.4185417,14.3385417 16.3860417,14.4983333 Z M24.0208333,20.5 C22.9754167,20.5 22.125,19.6495833 22.125,18.6041667 C22.125,18.5147917 22.1304167,18.4254167 22.1466667,18.33875 C22.1954167,17.965 22.3579167,17.62375 22.5989583,17.3529167 C22.945625,16.9575 23.4547917,16.7083333 24.0208333,16.7083333 C25.06625,16.7083333 25.9166667,17.55875 25.9166667,18.6041667 C25.9166667,19.6495833 25.06625,20.5 24.0208333,20.5 Z" id="Shape" stroke="#FFFFFF" stroke-width="0.5" fill="#FFFFFF" fill-rule="nonzero"></path>
                            </g>
                        </g>
                    </g>
                </g>
            </g>
        </g>
    </g>
</svg>