<?xml version="1.0" encoding="UTF-8"?>
<svg width="28px" height="28px" viewBox="0 0 28 28" version="1.1" xmlns="http://www.w3.org/2000/svg" xmlns:xlink="http://www.w3.org/1999/xlink">
    <!-- Generator: sketchtool 51.1 (57501) - http://www.bohemiancoding.com/sketch -->
    <title>963E4E67-B643-4449-BA95-67FF945DFAE1</title>
    <desc>Created with sketchtool.</desc>
    <defs></defs>
    <g id="industrial-landings" stroke="none" stroke-width="1" fill="none" fill-rule="evenodd">
        <g id="e-commerce" transform="translate(-994.000000, -3074.000000)">
            <g id="3" transform="translate(0.000000, 2562.000000)">
                <g id="txt" transform="translate(994.000000, 248.000000)">
                    <g id="Group-4" transform="translate(0.000000, 264.000000)">
                        <g id="1">
                            <g id="ic_sales_copy-copy-2">
                                <rect id="Rectangle-7" x="0" y="0" width="28" height="28"></rect>
                                <g id="like" transform="translate(1.000000, 1.000000)" fill="#9599A1" fill-rule="nonzero" stroke="#9599A1" stroke-width="0.5">
                                    <path d="M25.9523422,11.9919837 C25.9523422,10.000945 24.3319756,8.3752831 22.3356415,8.3752831 L16.7437882,8.3752831 L16.7437882,4.34554786 C16.7437882,2.64045621 16.2460285,1.41194297 15.2610998,0.691780041 C13.704277,-0.452008147 11.5649695,0.199315682 11.4749491,0.231087576 C11.204888,0.315812627 11.0195519,0.564692464 11.0195519,0.850639511 L11.0195519,5.37813442 C11.0195519,8.94188187 6.88391039,10.1545092 6.70916497,10.2074623 C6.65621181,10.2233483 6.60855397,10.2392342 6.56619145,10.2657108 C6.25906314,9.65145418 5.62362525,9.22782892 4.89287169,9.22782892 L1.86395112,9.22782892 C0.836659878,9.22782892 0,10.0644888 0,11.09178 L0,22.1007413 C0,23.1280326 0.836659878,23.9646925 1.86395112,23.9646925 L3.61670061,23.9646925 C3.97678208,23.9646925 4.26802444,23.6734501 4.26802444,23.3133686 C4.26802444,22.9532872 3.97148676,22.6673401 3.61670061,22.6673401 L1.86395112,22.6673401 C1.55152749,22.6673401 1.29735234,22.413165 1.29735234,22.1007413 L1.29735234,11.09178 C1.29735234,10.7793564 1.55152749,10.5251813 1.86395112,10.5251813 L4.89816701,10.5251813 C5.21059063,10.5251813 5.46476578,10.7793564 5.46476578,11.09178 L5.46476578,21.4758941 C5.46476578,23.4669328 7.08513238,25.0925947 9.0814664,25.0925947 L20.1592668,25.0925947 C22.6162933,25.0925947 24.1784114,23.805833 24.4537678,21.5818004 L25.9470468,12.2090916 C25.9523422,12.1773198 25.9576375,12.1402525 25.9576375,12.1084807 L25.9576375,11.9919837 L25.9523422,11.9919837 Z M24.6549898,12.0502322 L23.1670061,21.3964644 C22.9710794,22.9850591 21.9596741,23.7952424 20.1592668,23.7952424 L19.7462322,23.7952424 L9.0814664,23.7952424 C7.80529532,23.7952424 6.76211813,22.7573605 6.76211813,21.4758941 L6.76211813,11.4624521 C6.85743381,11.4836334 6.95804481,11.4783381 7.0586558,11.4518615 C7.27576375,11.393613 12.3169043,9.93210591 12.3169043,5.3728391 L12.3169043,1.36958045 C12.8676171,1.2848554 13.8101833,1.23719756 14.493279,1.73495723 C15.1234216,2.20094501 15.4464358,3.0746721 15.4464358,4.34554786 L15.4464358,9.02660692 C15.4464358,9.38668839 15.7376782,9.67793075 16.0977597,9.67793075 L22.3409369,9.67793075 C23.6171079,9.67793075 24.6602851,10.7158126 24.6602851,11.997279 L24.6602851,12.0502322 L24.6549898,12.0502322 Z" id="Shape"></path>
                                </g>
                            </g>
                        </g>
                    </g>
                </g>
            </g>
        </g>
    </g>
</svg>