<?xml version="1.0" encoding="UTF-8"?>
<svg width="28px" height="28px" viewBox="0 0 28 28" version="1.1" xmlns="http://www.w3.org/2000/svg" xmlns:xlink="http://www.w3.org/1999/xlink">
    <!-- Generator: Sketch 51.2 (57519) - http://www.bohemiancoding.com/sketch -->
    <title>ic_like</title>
    <desc>Created with Sketch.</desc>
    <defs></defs>
    <g id="industrial-landings" stroke="none" stroke-width="1" fill="none" fill-rule="evenodd">
        <g id="e-commerce" transform="translate(-994.000000, -3111.000000)">
            <g id="3" transform="translate(-3.000000, 2562.000000)">
                <g id="txt" transform="translate(997.000000, 285.000000)">
                    <g id="Group-4" transform="translate(0.000000, 264.000000)">
                        <g id="1">
                            <g id="ic_sales_copy-copy-2">
                                <rect id="Rectangle-7" x="0" y="0" width="28" height="28"></rect>
                                <g id="like" opacity="0.4" transform="translate(3.000000, 2.000000)" fill="#556070" fill-rule="nonzero" stroke="#556070" stroke-width="0.8">
                                    <path d="M22.9529537,10.6080972 C22.9529537,8.84716871 21.5198576,7.40938932 19.7542458,7.40938932 L14.8086594,7.40938932 L14.8086594,3.84538243 C14.8086594,2.33735324 14.3684272,1.25082289 13.4973296,0.613891302 C12.1204334,-0.397705922 10.2283719,0.178342497 10.1487555,0.20644242 C9.90990614,0.281375548 9.74598992,0.501491611 9.74598992,0.754390917 L9.74598992,4.75862993 C9.74598992,7.91050461 6.08831663,8.982985 5.93376705,9.02981821 C5.88693385,9.04386817 5.84478396,9.05791813 5.8073174,9.08133473 C5.53568481,8.53806956 4.97368635,8.16340392 4.32738812,8.16340392 L1.64852881,8.16340392 C0.739964636,8.16340392 0,8.90336855 0,9.81193273 L0,19.548556 C0,20.4571202 0.739964636,21.1970848 1.64852881,21.1970848 L3.19870789,21.1970848 C3.51717368,21.1970848 3.77475631,20.9395022 3.77475631,20.6210364 C3.77475631,20.3025706 3.51249036,20.0496713 3.19870789,20.0496713 L1.64852881,20.0496713 C1.3722129,20.0496713 1.14741352,19.8248719 1.14741352,19.548556 L1.14741352,9.81193273 C1.14741352,9.53561682 1.3722129,9.31081744 1.64852881,9.31081744 L4.33207145,9.31081744 C4.60838735,9.31081744 4.83318674,9.53561682 4.83318674,9.81193273 L4.83318674,18.9959242 C4.83318674,20.7568527 6.2662828,22.1946321 8.03189463,22.1946321 L17.8294011,22.1946321 C20.0024618,22.1946321 21.3840413,21.0565852 21.627574,19.0895906 L22.9482704,10.8001133 C22.9529537,10.7720134 22.957637,10.7392302 22.957637,10.7111303 L22.957637,10.6080972 L22.9529537,10.6080972 Z M21.8055402,10.6596137 L20.4895271,18.9256744 C20.3162442,20.3306705 19.42173,21.0472186 17.8294011,21.0472186 L17.4641021,21.0472186 L8.03189463,21.0472186 C6.90321439,21.0472186 5.98060025,20.1292877 5.98060025,18.9959242 L5.98060025,10.1397652 C6.06490002,10.1584984 6.15388311,10.1538151 6.2428662,10.1303985 C6.43488234,10.078882 10.8934034,8.78628554 10.8934034,4.75394661 L10.8934034,1.21335632 C11.3804688,1.1384232 12.2140998,1.09627331 12.8182482,1.53650544 C13.3755633,1.94863764 13.6612458,2.72138552 13.6612458,3.84538243 L13.6612458,7.98543774 C13.6612458,8.30390353 13.9188285,8.56148616 14.2372943,8.56148616 L19.7589291,8.56148616 C20.8876093,8.56148616 21.8102235,9.47941697 21.8102235,10.6127805 L21.8102235,10.6596137 L21.8055402,10.6596137 Z" id="Shape"></path>
                                </g>
                            </g>
                        </g>
                    </g>
                </g>
            </g>
        </g>
    </g>
</svg>