<?xml version="1.0" encoding="UTF-8"?>
<svg width="28px" height="28px" viewBox="0 0 28 28" version="1.1" xmlns="http://www.w3.org/2000/svg" xmlns:xlink="http://www.w3.org/1999/xlink">
    <!-- Generator: sketchtool 51.1 (57501) - http://www.bohemiancoding.com/sketch -->
    <title>813DBFFC-3C84-461B-A7E3-40C8D261886A</title>
    <desc>Created with sketchtool.</desc>
    <defs></defs>
    <g id="industrial-landings" stroke="none" stroke-width="1" fill="none" fill-rule="evenodd">
        <g id="e-commerce" transform="translate(-390.000000, -4023.000000)">
            <g id="4" transform="translate(0.000000, 3503.000000)">
                <g id="txt" transform="translate(390.000000, 255.000000)">
                    <g id="Group-4" transform="translate(0.000000, 265.000000)">
                        <g id="3">
                            <g id="ic_sales_copy-copy">
                                <rect id="Rectangle-7" x="0" y="0" width="28" height="28"></rect>
                                <g id="Group" opacity="0.8" transform="translate(1.000000, 2.000000)">
                                    <rect id="Rectangle-5" stroke="#FFFFFF" stroke-width="2" stroke-linecap="round" stroke-linejoin="round" x="0" y="0" width="26" height="18" rx="2"></rect>
                                    <polyline id="Rectangle-9" stroke="#FFFFFF" stroke-width="2" stroke-linecap="round" stroke-linejoin="round" points="10 21 10 18 10 18 16 18 16 21"></polyline>
                                    <path d="M10.7664795,11.1590698 C10.7664795,12.3502808 11.7343384,13.3181396 13,13.3181396 C14.2656616,13.3181396 15.2335205,12.3502808 15.2335205,11.1590698 C15.2335205,9.96785889 14.2656616,9 13,9 C11.7343384,9 10.7664795,8.03214111 10.7664795,6.84093018 C10.7664795,5.64971924 11.7343384,4.68186035 13,4.68186035 C14.2656616,4.68186035 15.2335205,5.64971924 15.2335205,6.84093018" id="Shape" stroke="#FFFFFF" stroke-width="2" stroke-linecap="round" stroke-linejoin="round"></path>
                                    <path d="M13,4 L13,3" id="Shape" stroke="#FFFFFF" stroke-width="2" stroke-linecap="round" stroke-linejoin="round"></path>
                                    <path d="M13,15 L13,14" id="Shape" stroke="#FFFFFF" stroke-width="2" stroke-linecap="round" stroke-linejoin="round"></path>
                                    <rect id="Rectangle-11" fill="#FFFFFF" x="6" y="23" width="14" height="2" rx="1"></rect>
                                </g>
                            </g>
                        </g>
                    </g>
                </g>
            </g>
        </g>
    </g>
</svg>