<?xml version="1.0" encoding="UTF-8"?>
<svg width="28px" height="28px" viewBox="0 0 28 28" version="1.1" xmlns="http://www.w3.org/2000/svg" xmlns:xlink="http://www.w3.org/1999/xlink">
    <!-- Generator: Sketch 51.2 (57519) - http://www.bohemiancoding.com/sketch -->
    <title>ic_merchandising</title>
    <desc>Created with Sketch.</desc>
    <defs></defs>
    <g id="industrial-landings" stroke="none" stroke-width="1" fill="none" fill-rule="evenodd">
        <g id="Artboard-Copy-2" transform="translate(-331.000000, -202.000000)">
            <g id="ic_hotels" transform="translate(331.000000, 202.000000)">
                <rect id="Rectangle-7" x="0" y="0" width="28" height="28"></rect>
                <g id="Group" transform="translate(3.000000, 4.000000)" fill="#979BA3" fill-rule="nonzero">
                    <path d="M10.3631579,0.115789474 L2.08421053,0.318421053 C1.1,0.347368421 0.347368421,1.12894737 0.318421053,2.08421053 L0.115789474,10.3631579 C0.115789474,10.8552632 0.289473684,11.3473684 0.636842105,11.6947368 L9.63947368,20.6973684 C10.3921053,21.45 11.4052632,21.8842105 12.4763158,21.8842105 C13.5473684,21.8842105 14.5605263,21.4789474 15.3131579,20.6973684 L20.6973684,15.3421053 C21.45,14.5894737 21.8842105,13.5763158 21.8842105,12.5052632 C21.8842105,11.4342105 21.4789474,10.4210526 20.6973684,9.66842105 L11.6947368,0.636842105 C11.3473684,0.289473684 10.8552632,0.115789474 10.3631579,0.115789474 Z M20.1473684,12.5052632 C20.1473684,13.1131579 19.9157895,13.6921053 19.4815789,14.1263158 L14.1263158,19.4815789 C13.6921053,19.9157895 13.1131579,20.1473684 12.5052632,20.1473684 C11.8973684,20.1473684 11.3184211,19.9157895 10.8842105,19.4815789 L1.88157895,10.4789474 C1.85263158,10.45 1.85263158,10.45 1.85263158,10.4210526 L2.05526316,2.14210526 C2.05526316,2.11315789 2.08421053,2.05526316 2.14210526,2.05526316 L10.4210526,1.85263158 C10.4210526,1.85263158 10.4210526,1.85263158 10.4210526,1.85263158 C10.45,1.85263158 10.45,1.85263158 10.4789474,1.88157895 L19.4815789,10.8842105 C19.9157895,11.3184211 20.1473684,11.8973684 20.1473684,12.5052632 Z" id="Shape"></path>
                    <path d="M5.32631579,5.32631579 C4.08157895,6.57105263 4.08157895,8.59736842 5.32631579,9.84210526 C5.93421053,10.45 6.77368421,10.7684211 7.58421053,10.7684211 C8.39473684,10.7684211 9.20526316,10.45 9.84210526,9.84210526 C11.0868421,8.59736842 11.0868421,6.57105263 9.84210526,5.32631579 C8.59736842,4.08157895 6.57105263,4.11052632 5.32631579,5.32631579 Z M8.62631579,8.62631579 C8.07631579,9.17631579 7.15,9.17631579 6.57105263,8.62631579 C6.02105263,8.07631579 6.02105263,7.15 6.57105263,6.57105263 C6.86052632,6.28157895 7.23684211,6.13684211 7.58421053,6.13684211 C7.96052632,6.13684211 8.33684211,6.28157895 8.59736842,6.57105263 C9.17631579,7.12105263 9.17631579,8.04736842 8.62631579,8.62631579 Z" id="Shape"></path>
                </g>
            </g>
        </g>
    </g>
</svg>