<?xml version="1.0" encoding="UTF-8"?>
<svg width="28px" height="28px" viewBox="0 0 28 28" version="1.1" xmlns="http://www.w3.org/2000/svg" xmlns:xlink="http://www.w3.org/1999/xlink">
    <!-- Generator: sketchtool 51.1 (57501) - http://www.bohemiancoding.com/sketch -->
    <title>8E18C6A0-20CF-4998-BC37-234930C0DEA4</title>
    <desc>Created with sketchtool.</desc>
    <defs></defs>
    <g id="industrial-landings" stroke="none" stroke-width="1" fill="none" fill-rule="evenodd">
        <g id="e-commerce" transform="translate(-994.000000, -3134.000000)">
            <g id="3" transform="translate(0.000000, 2562.000000)">
                <g id="txt" transform="translate(994.000000, 248.000000)">
                    <g id="Group-4" transform="translate(0.000000, 264.000000)">
                        <g id="3" transform="translate(0.000000, 60.000000)">
                            <g id="ic_hotels">
                                <rect id="Rectangle-7" x="0" y="0" width="28" height="28"></rect>
                                <g id="Group" transform="translate(3.000000, 2.000000)" fill="#969AA2" fill-rule="nonzero">
                                    <path d="M10.9990222,23.3444444 C8.43088889,23.3444444 6.34211111,21.2544444 6.34211111,18.6848444 C6.34211111,18.1651556 6.76377778,17.7434889 7.28346667,17.7434889 L14.7170222,17.7434889 C15.2367111,17.7434889 15.6586222,18.1651556 15.6586222,18.6848444 C15.6586222,21.2544444 13.5683778,23.3444444 10.9990222,23.3444444 Z M8.38908889,19.6264444 C8.77531111,20.6954 9.79953333,21.4614889 10.9990222,21.4614889 C12.1997333,21.4614889 13.2244444,20.6954 13.6114,19.6264444 L8.38908889,19.6264444 Z" id="Shape"></path>
                                    <path d="M19.1998889,19.6264444 L2.80011111,19.6264444 C1.35422222,19.6264444 0.177955556,18.4509111 0.177955556,17.0067333 C0.177955556,15.7258444 1.10024444,14.6556667 2.31562222,14.4288222 L2.31562222,8.80488889 C2.31562222,4.01695556 6.21182222,0.122222222 11.0012222,0.122222222 C15.7886667,0.122222222 19.6838889,4.01671111 19.6838889,8.80488889 L19.6838889,14.4290667 C20.8987778,14.6559111 21.8218,15.7260889 21.8218,17.0069778 C21.8218,18.4509111 20.6450444,19.6264444 19.1998889,19.6264444 Z M2.80011111,16.2665556 C2.39237778,16.2665556 2.06091111,16.5985111 2.06091111,17.0067333 C2.06091111,17.4125111 2.39237778,17.7437333 2.80011111,17.7437333 L19.1998889,17.7437333 C19.6068889,17.7437333 19.9388444,17.4127556 19.9388444,17.0067333 C19.9388444,16.5985111 19.6068889,16.2665556 19.1998889,16.2665556 L18.7427778,16.2665556 C18.2228444,16.2665556 17.8011778,15.8446444 17.8011778,15.3249556 L17.8011778,8.80488889 C17.8011778,5.05511111 14.7507556,2.00517778 11.0014667,2.00517778 C7.25046667,2.00517778 4.19882222,5.05511111 4.19882222,8.80488889 L4.19882222,15.3252 C4.19882222,15.8448889 3.77691111,16.2668 3.25722222,16.2668 L2.80011111,16.2668 L2.80011111,16.2665556 Z" id="Shape"></path>
                                </g>
                            </g>
                        </g>
                    </g>
                </g>
            </g>
        </g>
    </g>
</svg>