<?xml version="1.0" encoding="UTF-8"?>
<svg width="28px" height="28px" viewBox="0 0 28 28" version="1.1" xmlns="http://www.w3.org/2000/svg" xmlns:xlink="http://www.w3.org/1999/xlink">
    <!-- Generator: Sketch 51.2 (57519) - http://www.bohemiancoding.com/sketch -->
    <title>ic_offline</title>
    <desc>Created with Sketch.</desc>
    <defs></defs>
    <g id="industrial-landings" stroke="none" stroke-width="1" fill="none" fill-rule="evenodd">
        <g id="Artboard-Copy-2" transform="translate(-1013.000000, -243.000000)">
            <g id="ic_hotels" transform="translate(1013.000000, 243.000000)">
                <rect id="Rectangle-7" x="0" y="0" width="28" height="28"></rect>
                <g id="noun_wifi_1029624" opacity="0.6" transform="translate(1.000000, 3.000000)" fill="#556070">
                    <path d="M16.9079885,13.4937749 L13.1718057,9.75759214 C13.3765037,9.75399278 13.5827276,9.75475077 13.790297,9.76 C15.8368317,9.79089109 18.2360396,10.7716832 20.3134653,12.5736634 C21.0522772,13.2146535 21.6392079,13.9817822 20.879802,14.8750495 C20.120396,15.7683168 19.3352475,15.3435644 18.5629703,14.6665347 C18.0364221,14.2035773 17.4819605,13.8126975 16.9079885,13.4937749 Z M13.0191883,12.4334019 C11.0347129,12.4010512 9.0353749,13.1055622 7.2980198,14.5429703 C7.18990099,14.6330693 7.07920792,14.7257426 6.97881188,14.8235644 C6.29148515,15.4928713 5.53207921,15.5958416 4.87306931,14.8750495 C4.21405941,14.1542574 4.57188119,13.4128713 5.20257426,12.7821782 C6.4858029,11.484731 8.39240088,10.4952871 10.622452,10.0366656 L13.0191883,12.4334019 Z M9.58293529,6.16872172 L7.38389947,3.96968591 C8.25506102,3.68390863 9.15148046,3.46663419 10.0653465,3.32178218 C10.9972277,3.16990099 11.9445545,3.10554455 12.490297,3.04633663 C17.2732673,3.14930693 21.1320792,4.61405941 24.4554455,7.45346535 C24.7125843,7.67149304 24.9575103,7.90352814 25.1891089,8.14851485 C25.830099,8.82554455 25.9819802,9.59009901 25.2869307,10.2774257 C24.5918812,10.9647525 23.9122772,10.7021782 23.2893069,10.1023762 C21.2685149,8.15108911 18.9130693,6.77386139 16.1560396,6.19980198 C13.8380044,5.70944839 11.6482689,5.70396051 9.58293529,6.16872172 Z M7.42764835,6.84186191 C5.76864869,7.51069787 4.19623946,8.50688192 2.70811881,9.82178218 C2.26019802,10.2079208 1.54455446,10.6249505 1.02970297,10.550297 C-0.177623762,10.3752475 -0.344950495,9.02633663 0.702772277,8.01980198 C2.07483508,6.68146475 3.65129653,5.58889637 5.36272379,4.77693735 L7.42764835,6.84186191 Z" id="Combined-Shape" fill-rule="nonzero"></path>
                    <path d="M15.3837624,18.8934653 C15.4097335,20.2912486 14.3047988,21.449018 12.9073267,21.4883168 C11.5841584,21.5346535 10.3253465,20.3067327 10.2970297,18.9732673 C10.3037349,17.5764185 11.4232161,16.4398024 12.819802,16.4118812 C13.4919106,16.3902789 14.1440639,16.6420791 14.6272607,17.1097515 C15.1104575,17.5774239 15.3834126,18.2210098 15.3837624,18.8934653 Z" id="Shape" fill-rule="nonzero"></path>
                    <rect id="Rectangle-15-Copy-2" transform="translate(11.727922, 11.727922) scale(-1, 1) rotate(45.000000) translate(-11.727922, -11.727922) " x="10.7279221" y="-3.27207794" width="2" height="30" rx="1"></rect>
                </g>
            </g>
        </g>
    </g>
</svg>