<?xml version="1.0" encoding="UTF-8"?>
<svg width="28px" height="28px" viewBox="0 0 28 28" version="1.1" xmlns="http://www.w3.org/2000/svg" xmlns:xlink="http://www.w3.org/1999/xlink">
    <!-- Generator: sketchtool 51.1 (57501) - http://www.bohemiancoding.com/sketch -->
    <title>E60B345C-A99A-4B65-B64C-98FD288CBF3D</title>
    <desc>Created with sketchtool.</desc>
    <defs></defs>
    <g id="industrial-landings" stroke="none" stroke-width="1" fill="none" fill-rule="evenodd">
        <g id="e-commerce" transform="translate(-390.000000, -2132.000000)">
            <g id="2" transform="translate(0.000000, 1628.000000)">
                <g id="txt" transform="translate(381.000000, 242.000000)">
                    <g id="Group-6" transform="translate(0.000000, 262.000000)">
                        <g id="1" transform="translate(9.000000, 0.000000)">
                            <g id="ic_hotels">
                                <rect id="Rectangle-7" x="0" y="0" width="28" height="28"></rect>
                                <g id="profits" transform="translate(1.000000, 6.000000)" fill="#979BA3" fill-rule="nonzero">
                                    <path d="M25.8657983,0.672756335 C25.8101999,0.538651072 25.7295137,0.418736842 25.6292135,0.318385965 C25.6226755,0.311847953 25.6161375,0.310732943 25.6106638,0.305309942 C25.512543,0.212612086 25.4002311,0.135220273 25.2737788,0.0828654971 C25.1701843,0.0403430799 25.0611667,0.0272670565 24.9521492,0.0174346979 C24.9194591,0.0152553606 24.8921921,0 24.8594513,0 L16.1369835,0 C15.5340673,0 15.046656,0.487360624 15.046656,1.09032749 C15.046656,1.69329435 15.5340166,2.18065497 16.1369835,2.18065497 L22.2383675,2.18065497 L13.6074318,10.8606004 L10.323424,6.65635478 C10.1337203,6.41323197 9.85131878,6.26275634 9.54605952,6.23984795 C9.22878857,6.21693957 8.93655465,6.32489279 8.71416089,6.53532554 L0.340589739,14.4629942 C-0.0966461286,14.8773216 -0.115145154,15.567462 0.298067322,16.0046979 C0.513973754,16.230386 0.801798316,16.3437622 1.09073789,16.3437622 C1.36006342,16.3437622 1.62933828,16.2445263 1.83977103,16.0461053 L9.34216479,8.94273294 L12.649081,13.1763743 C12.842079,13.4238558 13.1310186,13.5754464 13.4439309,13.5939454 C13.7568432,13.6113801 14.0610381,13.4958246 14.2823675,13.2744951 L23.7691239,3.73320468 L23.7691239,9.81279532 C23.7691239,10.4157115 24.2564845,10.9031228 24.8594513,10.9031228 C25.4623675,10.9031228 25.9497788,10.4157622 25.9497788,9.81279532 L25.9497788,1.09037817 L25.9497788,1.08926316 C25.9486638,0.946440546 25.9202817,0.805797271 25.8657983,0.672756335 Z" id="Shape"></path>
                                </g>
                            </g>
                        </g>
                    </g>
                </g>
            </g>
        </g>
    </g>
</svg>