<?xml version="1.0" encoding="UTF-8"?>
<svg width="28px" height="28px" viewBox="0 0 28 28" version="1.1" xmlns="http://www.w3.org/2000/svg" xmlns:xlink="http://www.w3.org/1999/xlink">
    <!-- Generator: Sketch 51.2 (57519) - http://www.bohemiancoding.com/sketch -->
    <title>ic_purchases</title>
    <desc>Created with Sketch.</desc>
    <defs></defs>
    <g id="industrial-landings" stroke="none" stroke-width="1" fill="none" fill-rule="evenodd">
        <g id="Artboard-Copy-2" transform="translate(-1013.000000, -298.000000)">
            <g id="ic_hotels-copy-4" transform="translate(1013.000000, 298.000000)">
                <rect id="Rectangle-7" x="0" y="0" width="28" height="28"></rect>
                <g id="Group" opacity="0.6" transform="translate(4.000000, 2.000000)" fill-rule="nonzero" stroke="#556070" stroke-width="2.1">
                    <path d="M2.89504279,5 L17.1049572,5 C17.6145064,5 18.0425706,5.38313579 18.0988409,5.88956847 L19.8766187,21.8895685 C19.9376084,22.4384753 19.5420733,22.9328941 18.9931665,22.9938837 C18.956497,22.9979581 18.9196301,23 18.882735,23 L1.11726502,23 C0.564980266,23 0.117265015,22.5522847 0.117265015,22 C0.117265015,21.9631048 0.119306893,21.926238 0.123381281,21.8895685 L1.90115906,5.88956847 C1.95742936,5.38313579 2.38549358,5 2.89504279,5 Z" id="Rectangle-8"></path>
                    <path d="M6,9 L6,4 C6,1.790861 7.790861,4.05812251e-16 10,0 C12.209139,-4.05812251e-16 14,1.790861 14,4 L14,9" id="Rectangle-34"></path>
                </g>
            </g>
        </g>
    </g>
</svg>