<?xml version="1.0" encoding="UTF-8"?>
<svg width="28px" height="28px" viewBox="0 0 28 28" version="1.1" xmlns="http://www.w3.org/2000/svg" xmlns:xlink="http://www.w3.org/1999/xlink">
    <!-- Generator: Sketch 51.2 (57519) - http://www.bohemiancoding.com/sketch -->
    <title>ic_rfid</title>
    <desc>Created with Sketch.</desc>
    <defs></defs>
    <g id="industrial-landings" stroke="none" stroke-width="1" fill="none" fill-rule="evenodd">
        <g id="Artboard-Copy-2" transform="translate(-718.000000, -849.000000)">
            <g id="ic_sales_copy-copy-3" transform="translate(718.000000, 849.000000)">
                <rect id="Rectangle-7" x="0" y="0" width="28" height="28"></rect>
                <g id="Group" opacity="0.6" transform="translate(2.000000, 1.000000)" fill="#556070" fill-rule="nonzero">
                    <path d="M19.7341447,8.17341744 C19.7341447,8.64604824 20.1173432,9.02924675 20.589974,9.02924675 C21.0626048,9.02924675 21.4458033,8.64604824 21.4458033,8.17341744 C21.4458033,5.62242672 19.3778627,3.55477551 16.8271614,3.55477551 C16.3542412,3.55477551 15.9716215,3.93797403 15.9716215,4.41060482 C15.9716215,4.88323562 16.3542412,5.26643414 16.8271614,5.26643414 C18.4328905,5.26614471 19.7341447,6.56768831 19.7341447,8.17341744 Z" id="Shape"></path>
                    <path d="M22.8246234,11.7819666 C22.3517032,11.7819666 21.9687941,12.1651651 21.9687941,12.6380853 C21.9687941,15.7795028 21.9687941,16.545321 21.9687941,19.6873173 C21.9687941,21.577551 20.4362894,23.1100557 18.5457662,23.1100557 C13.3557996,23.1100557 10.5420111,23.1100557 5.3517551,23.1100557 C3.46123191,23.1100557 1.92872727,21.577551 1.92872727,19.6873173 C1.92872727,14.4973506 1.92872727,11.6835622 1.92872727,6.49330612 C1.92872727,4.60278293 3.46123191,3.07027829 5.3517551,3.07027829 C8.4763859,3.07027829 9.22454917,3.07027829 12.3488905,3.07027829 C12.8215213,3.07027829 13.2047199,2.68707978 13.2047199,2.21444898 C13.2047199,1.74181818 12.8215213,1.35833024 12.3488905,1.35833024 C9.22454917,1.35833024 8.4763859,1.35833024 5.3517551,1.35833024 C2.51625974,1.35833024 0.217358071,3.65723191 0.217358071,6.4930167 C0.217358071,11.6832727 0.217358071,14.4973506 0.217358071,19.6870278 C0.217358071,22.5228126 2.51625974,24.8214249 5.3517551,24.8214249 C10.5420111,24.8214249 13.3557996,24.8214249 18.5457662,24.8214249 C21.381551,24.8214249 23.6804527,22.5228126 23.6804527,19.6870278 C23.6804527,16.5450315 23.6804527,15.7792134 23.6804527,12.6377959 C23.6804527,12.1651651 23.2969647,11.7819666 22.8246234,11.7819666 Z" id="Shape"></path>
                    <circle id="Oval" cx="16.8271614" cy="8.17341744" r="1.1956141"></circle>
                    <path d="M16.8271614,0.131747681 C16.3542412,0.131747681 15.9716215,0.514946197 15.9716215,0.987576994 C15.9716215,1.46020779 16.3542412,1.84340631 16.8271614,1.84340631 C20.3231243,1.84340631 23.1571725,4.67745455 23.1571725,8.17370686 C23.1571725,8.64633766 23.5403711,9.02953618 24.0130019,9.02953618 C24.4856327,9.02953618 24.8688312,8.64633766 24.8688312,8.17370686 C24.8688312,3.73219295 21.2680965,0.131747681 16.8271614,0.131747681 Z" id="Shape"></path>
                    <path d="M9.00082375,11.295154 L9.00082375,14.88518 C9.00082375,15.520757 9.51802597,16.0382486 10.153603,16.0382486 L13.7439184,16.0382486 C14.3794954,16.0382486 14.896987,15.520757 14.896987,14.88518 L14.896987,13.9459963 C16.4121262,13.9459963 17.2335139,13.9459963 18.8430056,13.9459963 C18.8430056,14.7980631 18.8430056,14.7601484 18.8430056,15.6125046 C17.385462,17.0700482 15.9284972,18.5273024 14.471243,19.9842672 C10.7382412,19.9842672 8.78780705,19.9842672 5.05451577,19.9842672 C5.05451577,17.2312579 5.05451577,14.979243 5.05451577,12.697128 C5.05451577,10.6769425 5.05451577,8.63302412 5.05451577,6.19635622 C8.17943599,6.19635622 9.22454917,6.19635622 12.34918,6.19635622 C12.8218108,6.19635622 13.2050093,5.8131577 13.2050093,5.3405269 C13.2050093,4.8678961 12.8218108,4.48469759 12.34918,4.48469759 C9.22483859,4.48469759 8.17943599,4.48469759 5.05451577,4.48469759 C4.1095436,4.48469759 3.34314657,5.25080519 3.34314657,6.19635622 C3.34314657,11.3869017 3.34314657,14.79459 3.34314657,19.9842672 C3.34314657,20.9298182 4.10925417,21.6959258 5.05451577,21.6959258 C8.78780705,21.6959258 10.7382412,21.6959258 14.471243,21.6959258 C14.9716586,21.6959258 15.3273618,21.5486085 15.6813284,21.1949314 C17.138872,19.7376772 18.5958367,18.2801336 20.0530909,16.8228794 C20.4073469,16.4689128 20.5543748,16.1134991 20.5543748,15.6127941 C20.5543748,14.7607273 20.5543748,14.7986419 20.5543748,13.9462857 C20.5543748,13.0007347 19.7879777,12.2346271 18.8427161,12.2346271 C17.2332245,12.2346271 16.4121262,12.2346271 14.8966976,12.2346271 L14.8966976,11.2954434 C14.8966976,10.6598664 14.3792059,10.1426642 13.7436289,10.1426642 L10.153603,10.1426642 C9.51802597,10.1423748 9.00082375,10.659577 9.00082375,11.295154 Z" id="Shape"></path>
                </g>
            </g>
        </g>
    </g>
</svg>