<?xml version="1.0" encoding="UTF-8"?>
<svg width="28px" height="28px" viewBox="0 0 28 28" version="1.1" xmlns="http://www.w3.org/2000/svg" xmlns:xlink="http://www.w3.org/1999/xlink">
    <!-- Generator: Sketch 51.2 (57519) - http://www.bohemiancoding.com/sketch -->
    <title>ic_rfid</title>
    <desc>Created with Sketch.</desc>
    <defs></defs>
    <g id="industrial-landings" stroke="none" stroke-width="1" fill="none" fill-rule="evenodd">
        <g id="Artboard-Copy-2" transform="translate(-718.000000, -849.000000)">
            <g id="ic_sales_copy-copy-3" transform="translate(718.000000, 849.000000)">
                <rect id="Rectangle-7" x="0" y="0" width="28" height="28"></rect>
                <g id="Group" opacity="0.6" transform="translate(3.000000, 3.000000)" fill="#556070" fill-rule="nonzero">
                    <path d="M18.1554131,7.51954404 C18.1554131,7.95436438 18.5079558,8.30690701 18.9427761,8.30690701 C19.3775964,8.30690701 19.7301391,7.95436438 19.7301391,7.51954404 C19.7301391,5.17263258 17.8276337,3.27039347 15.4809885,3.27039347 C15.0459019,3.27039347 14.6938918,3.6229361 14.6938918,4.05775644 C14.6938918,4.49257677 15.0459019,4.84511941 15.4809885,4.84511941 C16.9582593,4.84485314 18.1554131,6.04227325 18.1554131,7.51954404 Z" id="Shape"></path>
                    <path d="M20.9986535,10.8394093 C20.5635669,10.8394093 20.2112905,11.1919519 20.2112905,11.6270385 C20.2112905,14.5171426 20.2112905,15.2216953 20.2112905,18.1123319 C20.2112905,19.8513469 18.8013863,21.2612512 17.0621049,21.2612512 C12.2873357,21.2612512 9.69865024,21.2612512 4.92361469,21.2612512 C3.18433336,21.2612512 1.77442909,19.8513469 1.77442909,18.1123319 C1.77442909,13.3375626 1.77442909,10.7488772 1.77442909,5.97384163 C1.77442909,4.2345603 3.18433336,2.82465603 4.92361469,2.82465603 C7.79827503,2.82465603 8.48658523,2.82465603 11.3609793,2.82465603 C11.7957996,2.82465603 12.1483423,2.4721134 12.1483423,2.03729306 C12.1483423,1.60247273 11.7957996,1.24966382 11.3609793,1.24966382 C8.48658523,1.24966382 7.79827503,1.24966382 4.92361469,1.24966382 C2.31495896,1.24966382 0.199969425,3.36465336 0.199969425,5.97357536 C0.199969425,10.7486109 0.199969425,13.3375626 0.199969425,18.1120656 C0.199969425,20.7209876 2.31495896,22.8357109 4.92361469,22.8357109 C9.69865024,22.8357109 12.2873357,22.8357109 17.0621049,22.8357109 C19.6710269,22.8357109 21.7860165,20.7209876 21.7860165,18.1120656 C21.7860165,15.221429 21.7860165,14.5168763 21.7860165,11.6267722 C21.7860165,11.1919519 21.4332076,10.8394093 20.9986535,10.8394093 Z" id="Shape"></path>
                    <circle id="Oval" cx="15.4809885" cy="7.51954404" r="1.09996497"></circle>
                    <path d="M15.4809885,0.121207866 C15.0459019,0.121207866 14.6938918,0.473750501 14.6938918,0.908570835 C14.6938918,1.34339117 15.0459019,1.6959338 15.4809885,1.6959338 C18.6972744,1.6959338 21.3045987,4.30325818 21.3045987,7.51981032 C21.3045987,7.95463065 21.6571414,8.30717328 22.0919617,8.30717328 C22.526782,8.30717328 22.8793247,7.95463065 22.8793247,7.51981032 C22.8793247,3.43361751 19.5666488,0.121207866 15.4809885,0.121207866 Z" id="Shape"></path>
                    <path d="M8.28075785,10.3915417 L8.28075785,13.6943656 C8.28075785,14.2790964 8.7565839,14.7551887 9.34131473,14.7551887 L12.6444049,14.7551887 C13.2291357,14.7551887 13.7052281,14.2790964 13.7052281,13.6943656 L13.7052281,12.8303166 C15.0991561,12.8303166 15.8548328,12.8303166 17.3355651,12.8303166 C17.3355651,13.614218 17.3355651,13.5793365 17.3355651,14.3635043 C15.994625,15.7044444 14.6542174,17.0451182 13.3135436,18.3855258 C9.87918189,18.3855258 8.08478249,18.3855258 4.65015451,18.3855258 C4.65015451,15.8527573 4.65015451,13.7809036 4.65015451,11.6813578 C4.65015451,9.82278709 4.65015451,7.94238219 4.65015451,5.70064772 C7.52508111,5.70064772 8.48658523,5.70064772 11.3612456,5.70064772 C11.7960659,5.70064772 12.1486085,5.34810508 12.1486085,4.91328475 C12.1486085,4.47846442 11.7960659,4.12592178 11.3612456,4.12592178 C8.4868515,4.12592178 7.52508111,4.12592178 4.65015451,4.12592178 C3.78078011,4.12592178 3.07569484,4.83074078 3.07569484,5.70064772 C3.07569484,10.4759495 3.07569484,13.6110228 3.07569484,18.3855258 C3.07569484,19.2554327 3.78051384,19.9602517 4.65015451,19.9602517 C8.08478249,19.9602517 9.87918189,19.9602517 13.3135436,19.9602517 C13.7739259,19.9602517 14.1011728,19.8247199 14.4268221,19.4993368 C15.7677622,18.158663 17.1081698,16.8177229 18.4488436,15.4770491 C18.7747592,15.1513998 18.9100248,14.8244191 18.9100248,14.3637705 C18.9100248,13.5798691 18.9100248,13.6147506 18.9100248,12.8305829 C18.9100248,11.9606759 18.2049395,11.2558569 17.3352988,11.2558569 C15.8545665,11.2558569 15.0991561,11.2558569 13.7049618,11.2558569 L13.7049618,10.3918079 C13.7049618,9.80707711 13.2288695,9.33125106 12.6441386,9.33125106 L9.34131473,9.33125106 C8.7565839,9.33098479 8.28075785,9.80681083 8.28075785,10.3915417 Z" id="Shape"></path>
                </g>
            </g>
        </g>
    </g>
</svg>