<?xml version="1.0" encoding="UTF-8"?>
<svg width="28px" height="28px" viewBox="0 0 28 28" version="1.1" xmlns="http://www.w3.org/2000/svg" xmlns:xlink="http://www.w3.org/1999/xlink">
    <!-- Generator: sketchtool 51.1 (57501) - http://www.bohemiancoding.com/sketch -->
    <title>91BE69CE-B2B9-4308-B748-BE6E5155C21A</title>
    <desc>Created with sketchtool.</desc>
    <defs></defs>
    <g id="industrial-landings" stroke="none" stroke-width="1" fill="none" fill-rule="evenodd" opacity="0.8">
        <g id="e-commerce" transform="translate(-716.000000, -4023.000000)">
            <g id="4" transform="translate(0.000000, 3503.000000)">
                <g id="txt" transform="translate(390.000000, 255.000000)">
                    <g id="Group-4" transform="translate(0.000000, 265.000000)">
                        <g id="3-copy-3" transform="translate(326.000000, 0.000000)">
                            <g id="ic_hotels">
                                <rect id="Rectangle-7" x="0" y="0" width="28" height="28"></rect>
                                <g id="store" transform="translate(2.000000, 2.000000)" fill="#FFFFFF" fill-rule="nonzero">
                                    <path d="M23.6717949,7.93846154 L23.6307692,7.79487179 C23.6307692,7.79487179 23.6102564,7.75384615 23.6102564,7.73333333 L21.025641,0.553846154 C20.9025641,0.225641026 20.5948718,0 20.225641,0 L3.65128205,0 C3.3025641,0 2.97435897,0.225641026 2.85128205,0.553846154 L0.287179487,7.69230769 C0.266666667,7.73333333 0.266666667,7.77435897 0.246153846,7.81538462 L0.164102564,8.06153846 C0.143589744,8.12307692 0.123076923,8.18461538 0.123076923,8.26666667 C0.041025641,8.57435897 0,8.84102564 0,9.12820513 C0,10.6871795 0.984615385,12.0205128 2.37948718,12.5128205 L2.37948718,23.0153846 C2.37948718,23.4871795 2.74871795,23.8564103 3.22051282,23.8564103 L21.0051282,23.8564103 C21.4769231,23.8564103 21.8461538,23.4871795 21.8461538,23.0153846 L21.8461538,12.3692308 C23.0564103,11.774359 23.8974359,10.5435897 23.8974359,9.12820513 C23.8974359,8.88205128 23.8564103,8.61538462 23.7948718,8.34871795 C23.774359,8.18461538 23.7333333,8.06153846 23.6717949,7.93846154 Z M20.1435897,22.174359 L4.06153846,22.174359 L4.06153846,12.6974359 C4.1025641,12.6974359 4.16410256,12.6769231 4.20512821,12.6769231 C5.08717949,12.5333333 5.84615385,12.0820513 6.4,11.425641 C7.05641026,12.225641 8.06153846,12.7179487 9.16923077,12.7179487 C10.2769231,12.7179487 11.2820513,12.2051282 11.9384615,11.425641 C12.5948718,12.225641 13.6,12.7179487 14.7076923,12.7179487 C15.8153846,12.7179487 16.8205128,12.2051282 17.4769231,11.425641 C17.9487179,12 18.5846154,12.4102564 19.3230769,12.5948718 C19.3435897,12.5948718 19.3641026,12.6153846 19.3846154,12.6153846 C19.4666667,12.6358974 19.5487179,12.6564103 19.6512821,12.6769231 C19.6923077,12.6769231 19.7538462,12.6974359 19.7948718,12.6974359 C19.8564103,12.6974359 19.9384615,12.7179487 20,12.7179487 C20.0410256,12.7179487 20.1025641,12.7384615 20.1435897,12.7384615 L20.1435897,22.174359 Z M20.8,10.974359 C20.7794872,10.974359 20.7794872,10.974359 20.8,10.974359 C20.6974359,10.9948718 20.6153846,11.0153846 20.5333333,11.0358974 C20.4512821,11.0564103 20.3487179,11.0564103 20.2666667,11.0564103 C20.1435897,11.0564103 20.0205128,11.0358974 19.8974359,11.0153846 C19.7948718,10.9948718 19.6923077,10.9538462 19.6102564,10.9333333 C19.5897436,10.9333333 19.5897436,10.9333333 19.5692308,10.9128205 C18.9128205,10.6461538 18.4205128,10.0102564 18.3589744,9.27179487 C18.3589744,9.25128205 18.3589744,9.23076923 18.3589744,9.23076923 C18.3589744,9.18974359 18.3589744,9.16923077 18.3589744,9.12820513 C18.3589744,8.65641026 17.9897436,8.28717949 17.5179487,8.28717949 C17.0461538,8.28717949 16.6769231,8.65641026 16.6769231,9.12820513 C16.6769231,9.16923077 16.6769231,9.21025641 16.6564103,9.25128205 C16.6564103,9.25128205 16.6564103,9.27179487 16.6564103,9.27179487 C16.5948718,10.0307692 16.1025641,10.6461538 15.4461538,10.9128205 C15.425641,10.9128205 15.425641,10.9128205 15.4051282,10.9333333 C15.3025641,10.974359 15.2,10.9948718 15.0974359,11.0153846 C14.974359,11.0358974 14.8512821,11.0564103 14.7282051,11.0564103 C14.6051282,11.0564103 14.4820513,11.0358974 14.3589744,11.0153846 C14.2564103,10.9948718 14.1538462,10.9538462 14.0717949,10.9333333 C14.0512821,10.9333333 14.0512821,10.9333333 14.0307692,10.9128205 C13.374359,10.6461538 12.8820513,10.0102564 12.8205128,9.27179487 C12.8205128,9.25128205 12.8205128,9.25128205 12.8205128,9.23076923 C12.8205128,9.18974359 12.8,9.16923077 12.8,9.12820513 C12.8,8.65641026 12.4307692,8.28717949 11.9589744,8.28717949 C11.4871795,8.28717949 11.1179487,8.65641026 11.1179487,9.12820513 C11.1179487,9.16923077 11.1179487,9.21025641 11.0974359,9.25128205 C11.0974359,9.25128205 11.0974359,9.27179487 11.0974359,9.27179487 C11.0358974,10.0307692 10.5435897,10.6461538 9.88717949,10.9128205 C9.86666667,10.9128205 9.86666667,10.9128205 9.84615385,10.9333333 C9.74358974,10.974359 9.64102564,10.9948718 9.53846154,11.0153846 C9.41538462,11.0358974 9.29230769,11.0564103 9.16923077,11.0564103 C9.04615385,11.0564103 8.92307692,11.0358974 8.8,11.0153846 C8.6974359,10.9948718 8.59487179,10.9538462 8.49230769,10.9333333 C8.47179487,10.9333333 8.47179487,10.9333333 8.45128205,10.9128205 C7.79487179,10.6461538 7.3025641,10.0102564 7.24102564,9.27179487 C7.24102564,9.25128205 7.24102564,9.23076923 7.24102564,9.23076923 C7.24102564,9.18974359 7.24102564,9.16923077 7.24102564,9.12820513 C7.24102564,8.65641026 6.87179487,8.28717949 6.4,8.28717949 C5.92820513,8.28717949 5.55897436,8.65641026 5.55897436,9.12820513 C5.55897436,9.16923077 5.55897436,9.21025641 5.53846154,9.25128205 C5.53846154,9.25128205 5.53846154,9.27179487 5.53846154,9.27179487 C5.47692308,10.0307692 4.98461538,10.6461538 4.32820513,10.9128205 C4.30769231,10.9128205 4.30769231,10.9128205 4.28717949,10.9333333 C4.18461538,10.974359 4.1025641,10.9948718 4,11.0153846 C3.87692308,11.0358974 3.75384615,11.0564103 3.63076923,11.0564103 C3.56923077,11.0564103 3.48717949,11.0358974 3.42564103,11.0358974 C3.40512821,11.0358974 3.38461538,11.0358974 3.34358974,11.0153846 C3.32307692,11.0153846 3.3025641,11.0153846 3.28205128,11.0153846 C2.37948718,10.8512821 1.68205128,10.0717949 1.68205128,9.10769231 C1.68205128,8.94358974 1.7025641,8.77948718 1.76410256,8.57435897 C1.76410256,8.55384615 1.78461538,8.51282051 1.78461538,8.49230769 L4.24615385,1.66153846 L19.6307692,1.66153846 L22.0307692,8.32820513 C22.0307692,8.32820513 22.0512821,8.36923077 22.0512821,8.38974359 L22.0923077,8.51282051 C22.0923077,8.53333333 22.1128205,8.57435897 22.1128205,8.59487179 C22.174359,8.8 22.1948718,8.96410256 22.1948718,9.12820513 C22.1948718,9.98974359 21.6,10.7282051 20.8,10.974359 Z" id="Shape"></path>
                                </g>
                            </g>
                        </g>
                    </g>
                </g>
            </g>
        </g>
    </g>
</svg>