<?xml version="1.0" encoding="UTF-8"?>
<svg width="28px" height="28px" viewBox="0 0 28 28" version="1.1" xmlns="http://www.w3.org/2000/svg" xmlns:xlink="http://www.w3.org/1999/xlink">
    <!-- Generator: sketchtool 51.1 (57501) - http://www.bohemiancoding.com/sketch -->
    <title>54712036-66A5-443A-87D9-C04CB49CEE1F</title>
    <desc>Created with sketchtool.</desc>
    <defs></defs>
    <g id="industrial-landings" stroke="none" stroke-width="1" fill="none" fill-rule="evenodd">
        <g id="e-commerce" transform="translate(-994.000000, -5021.000000)">
            <g id="3-copy-2" transform="translate(0.000000, 4462.000000)">
                <g id="txt" transform="translate(994.000000, 251.000000)">
                    <g id="Group-4" transform="translate(0.000000, 308.000000)">
                        <g id="1">
                            <g id="ic_sales_copy-copy-2">
                                <rect id="Rectangle-7" x="0" y="0" width="28" height="28"></rect>
                                <g id="Group" transform="translate(3.000000, 1.000000)" fill="#FFFFFF" fill-rule="nonzero">
                                    <path d="M13.3571429,25.1428571 C13.3139664,25.1426204 13.2708776,25.1389421 13.2282857,25.1318571 L3.79971429,23.5604286 C3.42084314,23.4974409 3.14303395,23.1697856 3.14285714,22.7857143 L3.14285714,17.9457143 C3.11190035,17.019547 2.76410862,16.1320402 2.15757143,15.4314286 C-0.185741305,12.5710438 -0.640743266,8.60493421 0.993913493,5.28818686 C2.62857025,1.9714395 6.05110556,-0.0836283648 9.74697549,0.0323940551 C13.4428454,0.148416475 16.7297414,2.41410984 18.1531429,5.82685714 C18.260935,6.08623196 18.2221642,6.38341059 18.0514351,6.60644873 C17.880706,6.82948686 17.6039563,6.9444997 17.3254351,6.90816301 C17.0469138,6.87182633 16.808935,6.68966053 16.7011429,6.43028571 C15.5187352,3.58222455 12.7796053,1.68915545 9.69744918,1.58988868 C6.61529305,1.4906219 3.7600263,3.20351268 2.39680457,5.96958694 C1.03358284,8.73566121 1.41447688,12.0434494 3.37071429,14.4272857 C4.21484409,15.4077233 4.69006163,16.6521819 4.71428571,17.9457143 L4.71428571,22.121 L12.5714286,23.43 L12.5714286,20.4285714 C12.5715348,20.1977276 12.6731509,19.97861 12.8492936,19.8294032 C13.0254362,19.6801965 13.2582817,19.6159987 13.486,19.6538571 L17.2888571,20.2824286 L17.2888571,15.7142857 C17.2888571,15.2803477 17.6406334,14.9285714 18.0745714,14.9285714 L19.1635714,14.9285714 L18.3778571,13.3461429 C18.2529418,13.093505 18.2722959,12.7934165 18.428629,12.5589178 C18.5849621,12.324419 18.8545234,12.1911359 19.1357718,12.2092749 C19.4170203,12.2274139 19.6672275,12.3942193 19.7921429,12.6468571 L21.1435714,15.3654286 C21.265159,15.6107342 21.2502868,15.9016434 21.1043167,16.1332705 C20.9583467,16.3648977 20.7023298,16.503839 20.4285714,16.5 L18.8571429,16.5 L18.8571429,20.2871429 C18.8576693,20.7472788 18.655288,21.1842383 18.304,21.4814286 C17.9513572,21.7798987 17.4852395,21.9080667 17.0295714,21.8318571 L14.1428571,21.3541429 L14.1428571,24.3571429 C14.1428571,24.7910809 13.7910809,25.1428571 13.3571429,25.1428571 Z" id="Shape"></path>
                                    <path d="M8,11.7857143 L2.35714286,11.7857143 C1.0553288,11.7857143 1.59426241e-16,10.7303855 0,9.42857143 C-1.59426241e-16,8.12675738 1.0553288,7.07142857 2.35714286,7.07142857 L8,7.07142857 C8.43393802,7.07142857 8.78571429,7.42320484 8.78571429,7.85714286 C8.78571429,8.29108087 8.43393802,8.64285714 8,8.64285714 L2.35714286,8.64285714 C1.92320484,8.64285714 1.57142857,8.99463341 1.57142857,9.42857143 C1.57142857,9.86250945 1.92320484,10.2142857 2.35714286,10.2142857 L8,10.2142857 C8.43393802,10.2142857 8.78571429,10.566062 8.78571429,11 C8.78571429,11.433938 8.43393802,11.7857143 8,11.7857143 Z" id="Shape"></path>
                                    <path d="M21.2142857,14.1428571 C21.1711093,14.1426204 21.1280204,14.1389421 21.0854286,14.1318571 L11.6568571,12.5604286 C11.277986,12.4974409 11.0001768,12.1697856 11,11.7857143 L11,7.07142857 C11.0001768,6.68735728 11.277986,6.35970194 11.6568571,6.29671429 L21.0854286,4.72528571 C21.3131242,4.68763642 21.5458579,4.75199735 21.7218571,4.90128571 C21.8979824,5.0503373 21.9996912,5.26926987 22,5.5 L22,13.3571429 C22,13.7910809 21.6482237,14.1428571 21.2142857,14.1428571 Z M12.5714286,11.121 L20.4285714,12.43 L20.4285714,6.42714286 L12.5714286,7.73614286 L12.5714286,11.121 Z" id="Shape"></path>
                                </g>
                            </g>
                        </g>
                    </g>
                </g>
            </g>
        </g>
    </g>
</svg>