<?xml version="1.0" encoding="UTF-8"?>
<svg width="28px" height="28px" viewBox="0 0 28 28" version="1.1" xmlns="http://www.w3.org/2000/svg" xmlns:xlink="http://www.w3.org/1999/xlink">
    <!-- Generator: Sketch 51.2 (57519) - http://www.bohemiancoding.com/sketch -->
    <title>ic_wallet</title>
    <desc>Created with Sketch.</desc>
    <defs></defs>
    <g id="industrial-landings" stroke="none" stroke-width="1" fill="none" fill-rule="evenodd">
        <g id="e-commerce" transform="translate(-1320.000000, -3171.000000)">
            <g id="3" transform="translate(-3.000000, 2562.000000)">
                <g id="txt" transform="translate(997.000000, 285.000000)">
                    <g id="Group-4" transform="translate(0.000000, 264.000000)">
                        <g id="2" transform="translate(326.000000, 60.000000)">
                            <g id="ic_sales_copy">
                                <g id="ic_hotels">
                                    <rect id="Rectangle-7" x="0" y="0" width="28" height="28"></rect>
                                    <g id="wallet" opacity="0.4" transform="translate(0.000000, 1.000000)" fill="#556070">
                                        <path d="M19.0987705,14.9774501 L17.8147541,13.6934338 L17.8147541,13.1459016 C17.8147541,12.3467213 18.4647541,11.6967213 19.2639344,11.6967213 L23.627459,11.6967213 L23.627459,7.98319672 C23.627459,7.17336066 22.9668033,6.51270492 22.1569672,6.51270492 L10.6340253,6.51270492 L9.35533674,5.23401639 L20.3081967,5.23401639 L20.3135246,3.84877049 C20.3135246,3.53442623 20.052459,3.27868852 19.7381148,3.27868852 L7.40000887,3.27868852 L6.12132034,2 L19.7381148,2 C20.7610656,2 21.5922131,2.83114754 21.5922131,3.85409836 L21.5868852,5.23401639 L22.1569672,5.23401639 C23.670082,5.23401639 24.9061475,6.4647541 24.9061475,7.98319672 L24.9061475,11.6967213 L25.5241803,11.6967213 C26.3233607,11.6967213 26.9733607,12.3467213 26.9786885,13.1459016 L26.9786885,16.379918 C26.9786885,17.1790984 26.3286885,17.8290984 25.5295082,17.8290984 L24.9114754,17.8290984 L24.9114754,20.7901551 L23.627459,19.5061387 L23.627459,17.8290984 L21.9504187,17.8290984 L20.6717302,16.5504098 L25.5241803,16.5504098 C25.620082,16.5504098 25.6946721,16.4758197 25.6946721,16.379918 L25.6946721,13.1459016 C25.6946721,13.05 25.6147541,12.9754098 25.5241803,12.9754098 L19.2692623,12.9754098 C19.1733607,12.9754098 19.0987705,13.0553279 19.0987705,13.1459016 L19.0987705,14.9774501 Z M22.7614155,22.8827358 L23.7027038,23.8240241 C23.2632949,24.1224452 22.7331248,24.2971311 22.1622951,24.2971311 L2.85409836,24.2971311 C1.83114754,24.2971311 1,23.4659836 1,22.4430328 L1,4.25368852 C1,4.24303279 1,4.23237705 1,4.22172131 C1.01084311,3.38680165 1.47774922,2.66221982 2.16119182,2.28251216 L3.16170958,3.28302992 C2.66666041,3.32998626 2.27868852,3.75191905 2.27868852,4.25901639 C2.27868852,4.79713115 2.71557377,5.23401639 3.25368852,5.23401639 L5.11269605,5.23401639 L6.39138457,6.51270492 L3.25368852,6.51270492 C2.90204918,6.51270492 2.57172131,6.43278689 2.27336066,6.28893443 L2.27336066,22.4377049 C2.27336066,22.757377 2.53442623,23.0131148 2.84877049,23.0131148 L22.1569672,23.0131148 C22.3721861,23.0131148 22.5768688,22.9664551 22.7614155,22.8827358 Z" id="Shape" stroke="#556070" stroke-width="0.5" fill-rule="nonzero"></path>
                                        <rect id="Rectangle-15-Copy-2" transform="translate(12.779699, 13.340359) scale(-1, 1) rotate(45.000000) translate(-12.779699, -13.340359) " x="11.6761454" y="-3.62931099" width="2.20710678" height="33.9393398" rx="1.10355339"></rect>
                                    </g>
                                </g>
                            </g>
                        </g>
                    </g>
                </g>
            </g>
        </g>
    </g>
</svg>