<?xml version="1.0" encoding="UTF-8" standalone="no"?>
<svg width="166px" height="161px" viewBox="0 0 166 161" version="1.1" xmlns="http://www.w3.org/2000/svg" xmlns:xlink="http://www.w3.org/1999/xlink" xmlns:sketch="http://www.bohemiancoding.com/sketch/ns">
    <!-- Generator: bin/sketchtool 1.4 (305) - http://www.bohemiancoding.com/sketch -->
    <title>arrow-ripple-icon</title>
    <desc>Created with bin/sketchtool.</desc>
    <defs>
        <linearGradient x1="13.1512232%" y1="107.821906%" x2="100%" y2="9.35251799%" id="linearGradient-1">
            <stop stop-color="#00CDA0" offset="0%"></stop>
            <stop stop-color="#00B6A6" offset="100%"></stop>
        </linearGradient>
    </defs>
    <g id="Sylius" stroke="none" stroke-width="1" fill="none" fill-rule="evenodd" sketch:type="MSPage">
        <g id="sylius_land_v" sketch:type="MSArtboardGroup" transform="translate(-974.000000, -2881.000000)" fill="url(#linearGradient-1)">
            <g id="Group" sketch:type="MSLayerGroup" transform="translate(0.000000, 2652.000000)">
                <path d="M1086.22294,279.443401 C1084.89684,278.135388 1082.95047,277.676424 1081.17858,278.255924 L980.299978,311.209912 C978.349634,311.847031 976.991026,313.614008 976.879578,315.659807 C976.767466,317.705606 977.925069,319.609676 979.794481,320.455414 L1012.06075,335.048207 C1014.56302,336.180053 1017.51176,335.072712 1018.64548,332.573247 C1019.7792,330.074445 1018.66936,327.131249 1016.16642,325.999404 L995.557778,316.678402 L1075.07944,290.700263 L1049.73822,371.209643 L1032.00269,334.43162 C1030.81059,331.959309 1027.83731,330.920183 1025.36157,332.110972 C1024.6,332.477216 1023.9751,333.013005 1023.50874,333.649461 C1023.29181,333.805098 1023.08218,333.974643 1022.88715,334.169355 L975.457286,381.520762 C973.514238,383.460596 973.514238,386.605788 975.457286,388.544959 C976.428478,389.514545 977.702172,390 978.975203,390 C980.248235,390 981.521929,389.515207 982.493121,388.544959 L1026.07271,345.037455 L1046.22959,386.836926 C1047.0628,388.564828 1048.81148,389.649651 1050.71074,389.649651 C1050.83015,389.649651 1050.95022,389.645677 1051.07096,389.636405 C1053.10688,389.489378 1054.84693,388.115799 1055.45923,386.171329 L1087.47209,284.46551 C1088.03132,282.689923 1087.54904,280.751414 1086.22294,279.443401 Z M1065.01521,229 C1034.43925,229 1007.19214,247.251257 995.600852,275.49706 C994.559342,278.035599 995.775985,280.936408 998.318731,281.976196 C1000.86148,283.015984 1003.76709,281.801353 1004.8086,279.262813 C1014.86217,254.76422 1038.49517,238.934279 1065.01521,238.934279 C1100.87502,238.934279 1130.04926,268.060259 1130.04926,303.860749 C1130.04926,333.266876 1110.19488,359.072158 1081.76695,366.614262 C1079.11143,367.318934 1077.53059,370.039602 1078.23643,372.690729 C1078.82883,374.914683 1080.84087,376.383632 1083.04197,376.383632 C1083.46521,376.383632 1083.89508,376.329325 1084.32296,376.216074 C1117.10534,367.518282 1140,337.765117 1140,303.861412 C1140.00066,262.582497 1106.36252,229 1065.01521,229 Z M1080.75158,343.491898 C1078.18827,344.480027 1076.91192,347.355008 1077.90168,349.91474 C1078.66391,351.886363 1080.54792,353.094372 1082.5447,353.094372 C1083.14042,353.094372 1083.74675,352.986419 1084.33517,352.759918 C1094.17512,348.968335 1102.57952,342.383895 1108.64217,333.719879 C1114.84745,324.849893 1118.12788,314.423537 1118.12788,303.568019 C1118.12788,274.502307 1094.4418,250.855413 1065.32793,250.855413 C1045.03771,250.855413 1026.30379,262.686476 1017.60154,280.995352 C1016.42337,283.473623 1017.4808,286.436025 1019.96384,287.612243 C1022.44688,288.7878 1025.41419,287.732117 1026.5917,285.253846 C1033.65539,270.392165 1048.86012,260.789029 1065.32793,260.789029 C1088.95496,260.789029 1108.17714,279.979406 1108.17714,303.567357 C1108.17647,321.127188 1097.15504,337.17171 1080.75158,343.491898 Z" id="arrow-ripple-icon" sketch:type="MSShapeGroup"></path>
            </g>
        </g>
    </g>
</svg>