<?xml version="1.0" encoding="UTF-8" standalone="no"?>
<svg width="66px" height="42px" viewBox="0 0 66 42" version="1.1" xmlns="http://www.w3.org/2000/svg" xmlns:xlink="http://www.w3.org/1999/xlink" xmlns:sketch="http://www.bohemiancoding.com/sketch/ns">
    <!-- Generator: bin/sketchtool 1.4 (305) - http://www.bohemiancoding.com/sketch -->
    <title>auditory_icon</title>
    <desc>Created with bin/sketchtool.</desc>
    <defs></defs>
    <g id="Adaptive" stroke="none" stroke-width="1" fill="none" fill-rule="evenodd" sketch:type="MSPage">
        <g id="adaptive_land_v" sketch:type="MSArtboardGroup" transform="translate(-348.000000, -2429.000000)">
            <g id="3-Benefits" sketch:type="MSLayerGroup" transform="translate(0.000000, 2161.000000)">
                <g id="b1" transform="translate(312.000000, 268.000000)" sketch:type="MSShapeGroup">
                    <g id="auditory_icon" transform="translate(36.000000, 0.000000)">
                        <path d="M45,24 C44.13,24 43.14,24 42.09,24.15 C45.57,26.67 48,30 48,34.5 L48,42 L66,42 L66,34.5 C66,27.51 51.99,24 45,24 L45,24 Z M45,18 C49.9705627,18 54,13.9705627 54,9 C54,4.02943725 49.9705627,0 45,0 C40.0294373,0 36,4.02943725 36,9 C36,13.9705627 40.0294373,18 45,18 L45,18 Z" id="Shape" fill="#E31A54"></path>
                        <path d="M21,24 C14.01,24 0,27.51 0,34.5 L0,42 L42,42 L42,34.5 C42,27.51 27.99,24 21,24 Z M21,18 C25.9705627,18 30,13.9705627 30,9 C30,4.02943725 25.9705627,0 21,0 C16.0294373,0 12,4.02943725 12,9 C12,13.9705627 16.0294373,18 21,18 Z" id="Path" fill="#4770BC"></path>
                    </g>
                </g>
            </g>
        </g>
    </g>
</svg>