<?xml version="1.0" encoding="UTF-8" standalone="no"?>
<svg width="61px" height="81px" viewBox="0 0 61 81" version="1.1" xmlns="http://www.w3.org/2000/svg" xmlns:xlink="http://www.w3.org/1999/xlink" xmlns:sketch="http://www.bohemiancoding.com/sketch/ns">
    <!-- Generator: bin/sketchtool 1.4 (305) - http://www.bohemiancoding.com/sketch -->
    <title>ball1_icon</title>
    <desc>Created with bin/sketchtool.</desc>
    <defs></defs>
    <g id="Adaptive" stroke="none" stroke-width="1" fill="none" fill-rule="evenodd" sketch:type="MSPage">
        <g id="adaptive_land_v" sketch:type="MSArtboardGroup" transform="translate(-210.000000, -5100.000000)">
            <g id="4" sketch:type="MSLayerGroup" transform="translate(0.000000, 4924.000000)">
                <g id="ball1_icon" transform="translate(210.000000, 176.000000)" sketch:type="MSShapeGroup">
                    <path d="M30.5,80.63 C30.5,80.63 61,47.9746849 61,31.13 C61,14.2853151 47.3446849,0.63 30.5,0.63 C13.6553151,0.63 0,14.2853151 0,31.13 C0,47.9746849 30.5,80.63 30.5,80.63 Z" id="Oval-5" fill="#9DF6FF"></path>
                    <path d="M22.622,50 L40.148,50 L40.148,47.148 L33.018,47.148 L33.018,17.662 L30.074,17.662 L22.76,24.93 L24.784,26.954 L28.234,23.55 C29.522,22.262 29.844,21.618 29.844,21.618 L29.936,21.618 C29.936,21.618 29.89,22.492 29.89,23.412 L29.89,47.148 L22.622,47.148 L22.622,50 Z" id="1" fill="#32BFCE"></path>
                </g>
            </g>
        </g>
    </g>
</svg>