<?xml version="1.0" encoding="UTF-8" standalone="no"?>
<svg width="61px" height="81px" viewBox="0 0 61 81" version="1.1" xmlns="http://www.w3.org/2000/svg" xmlns:xlink="http://www.w3.org/1999/xlink" xmlns:sketch="http://www.bohemiancoding.com/sketch/ns">
    <!-- Generator: bin/sketchtool 1.4 (305) - http://www.bohemiancoding.com/sketch -->
    <title>ball4_icon</title>
    <desc>Created with bin/sketchtool.</desc>
    <defs></defs>
    <g id="Adaptive" stroke="none" stroke-width="1" fill="none" fill-rule="evenodd" sketch:type="MSPage">
        <g id="adaptive_land_v" sketch:type="MSArtboardGroup" transform="translate(-973.000000, -5100.000000)">
            <g id="4" sketch:type="MSLayerGroup" transform="translate(0.000000, 4924.000000)">
                <g id="ball4_icon" transform="translate(973.000000, 176.000000)" sketch:type="MSShapeGroup">
                    <path d="M30.5,80.63 C30.5,80.63 61,47.9746849 61,31.13 C61,14.2853151 47.3446849,0.63 30.5,0.63 C13.6553151,0.63 0,14.2853151 0,31.13 C0,47.9746849 30.5,80.63 30.5,80.63 Z" id="Oval-5" fill="#9DF6FF"></path>
                    <path d="M18.248,41.03 L34.394,41.03 L34.394,50 L37.568,50 L37.568,41.03 L42.168,41.03 L42.168,38.27 L37.568,38.27 L37.568,17.662 L34.118,17.662 L18.248,38.96 L18.248,41.03 Z M22.066,38.27 L22.066,38.178 L32.876,24.102 C33.704,22.952 34.486,21.618 34.486,21.618 L34.578,21.618 C34.578,21.618 34.394,23.32 34.394,24.7 L34.394,38.27 L22.066,38.27 Z" id="4" fill="#32BFCE"></path>
                </g>
            </g>
        </g>
    </g>
</svg>