<?xml version="1.0" encoding="UTF-8" standalone="no"?>
<svg width="58px" height="66px" viewBox="0 0 58 66" version="1.1" xmlns="http://www.w3.org/2000/svg" xmlns:xlink="http://www.w3.org/1999/xlink" xmlns:sketch="http://www.bohemiancoding.com/sketch/ns">
    <!-- Generator: bin/sketchtool 1.4 (305) - http://www.bohemiancoding.com/sketch -->
    <title>barcode-search-icon</title>
    <desc>Created with bin/sketchtool.</desc>
    <defs>
        <linearGradient x1="13.1512232%" y1="107.821906%" x2="100%" y2="9.35251799%" id="linearGradient-1">
            <stop stop-color="#00CDA0" offset="0%"></stop>
            <stop stop-color="#00B6A6" offset="100%"></stop>
        </linearGradient>
    </defs>
    <g id="Sylius" stroke="none" stroke-width="1" fill="none" fill-rule="evenodd" sketch:type="MSPage">
        <g id="sylius_land_v" sketch:type="MSArtboardGroup" transform="translate(-691.000000, -2147.000000)" fill="url(#linearGradient-1)">
            <g id="Group" sketch:type="MSLayerGroup" transform="translate(0.000000, 1729.000000)">
                <g id="b5" transform="translate(634.500000, 417.500000)" sketch:type="MSShapeGroup">
                    <path d="M60.8593956,32.3445339 L64.9852239,32.3445339 C65.6885787,32.3445339 66.2576028,31.7782364 66.2576028,31.077654 L66.2576028,1.76567611 C66.2576028,1.06643119 65.688713,0.5 64.9852239,0.5 L60.8593956,0.5 C60.1560409,0.5 59.5870167,1.06643119 59.5870167,1.76567611 L59.5870167,31.077654 C59.5870167,31.7782364 60.1559065,32.3445339 60.8593956,32.3445339 Z M72.1564601,32.3445339 L73.3549572,32.3445339 C73.3424644,32.0612514 73.3139864,31.7801089 73.3139864,31.493884 C73.3139864,28.5501806 74.0198934,25.7190946 75.3314968,23.1747687 L75.3314968,1.76567611 C75.3314968,1.06643119 74.7619353,0.5 74.0583119,0.5 L72.1564601,0.5 C71.452971,0.5 70.8840811,1.06643119 70.8840811,1.76567611 L70.8840811,31.077654 C70.8842155,31.7782364 71.452971,32.3445339 72.1564601,32.3445339 Z M86.8895655,1.76567611 C86.8895655,1.06643119 86.3198697,0.5 85.6162463,0.5 L81.4916269,0.5 C80.7880035,0.5 80.2191137,1.06643119 80.2191137,1.76567611 L80.2191137,17.2236968 C82.2011609,15.6423708 84.4654365,14.5136547 86.8894312,13.8684447 L86.8894312,1.76567611 L86.8895655,1.76567611 Z M97.3330937,14.1308622 L97.3330937,1.76567611 C97.3330937,1.06643119 96.7640695,0.5 96.0607148,0.5 L91.9348865,0.5 C91.2315317,0.5 90.6625075,1.06643119 90.6625075,1.76567611 L90.6625075,13.276066 C90.9925577,13.2588123 91.3204585,13.2285848 91.6554789,13.2285848 C93.6137496,13.2285848 95.522721,13.5450373 97.3330937,14.1308622 Z M105.395882,0.5 L103.49309,0.5 C102.7896,0.5 102.220711,1.06643119 102.220711,1.76567611 L102.220711,16.5795569 C103.06753,17.1760819 103.88023,17.8343993 104.629123,18.5805904 C105.388628,19.3381504 106.06243,20.1585728 106.668261,21.0157764 L106.668261,1.76567611 C106.668126,1.06643119 106.099236,0.5 105.395882,0.5 Z M113.227487,0.5 L111.325635,0.5 C110.622146,0.5 110.053256,1.06643119 110.053256,1.76567611 L110.053256,31.077654 C110.053256,31.7782364 110.622012,32.3445339 111.325635,32.3445339 L113.227487,32.3445339 C113.930976,32.3445339 114.5,31.7782364 114.5,31.077654 L114.5,1.76567611 C114.5,1.06643119 113.93111,0.5 113.227487,0.5 Z M102.270816,20.9292402 C99.4328145,18.1045742 95.663365,16.5491957 91.6556133,16.5491957 C87.6470555,16.5491957 83.880024,18.1033705 81.0460525,20.9248264 C78.210469,23.7486899 76.6495481,27.5015807 76.6495481,31.4937502 C76.6495481,33.7918425 77.1837807,36.0046022 78.1651996,38.0117882 L57.9234672,58.2369259 C56.0255109,60.1276157 56.0255109,63.1923629 57.9234672,65.0826514 C58.8358403,65.9909476 60.0711439,66.5 61.3588365,66.5 C62.6465291,66.5 63.8835791,65.9908138 64.7933999,65.0837214 L85.0129678,44.8837287 C87.0564041,45.8912673 89.3127542,46.4372348 91.6570909,46.4372348 C95.6656487,46.4372348 99.4350981,44.8826587 102.270816,42.0604003 C105.106265,39.2378743 106.668126,35.4855185 106.668126,31.493884 C106.665843,27.5041219 105.104922,23.7517661 102.270816,20.9292402 Z M99.1265408,38.9297144 C97.1311949,40.9153667 94.4781667,42.0094415 91.6572252,42.0094415 C88.8369554,42.0094415 86.1860765,40.9165704 84.1924769,38.9307844 C82.1968623,36.9439284 81.0961578,34.3022324 81.0961578,31.4925465 C81.0961578,28.684198 82.1952503,26.0423683 84.1901932,24.0555123 C86.1837928,22.0706625 88.8346718,20.9769889 91.6556133,20.9769889 C94.475883,20.9769889 97.1290456,22.0718663 99.1265408,24.0597923 C101.122155,26.0454446 102.220711,28.6864718 102.220711,31.4948202 C102.220711,34.3030349 101.122155,36.9440621 99.1265408,38.9297144 L99.1265408,38.9297144 Z" id="barcode-search-icon"></path>
                </g>
            </g>
        </g>
    </g>
</svg>