<?xml version="1.0" encoding="UTF-8" standalone="no"?>
<svg width="64px" height="60px" viewBox="0 0 64 60" version="1.1" xmlns="http://www.w3.org/2000/svg" xmlns:xlink="http://www.w3.org/1999/xlink" xmlns:sketch="http://www.bohemiancoding.com/sketch/ns">
    <!-- Generator: bin/sketchtool 1.4 (305) - http://www.bohemiancoding.com/sketch -->
    <title>bill-icon</title>
    <desc>Created with bin/sketchtool.</desc>
    <defs>
        <linearGradient x1="13.1512232%" y1="107.821906%" x2="100%" y2="9.35251799%" id="linearGradient-1">
            <stop stop-color="#00CDA0" offset="0%"></stop>
            <stop stop-color="#00B6A6" offset="100%"></stop>
        </linearGradient>
    </defs>
    <g id="Sylius" stroke="none" stroke-width="1" fill="none" fill-rule="evenodd" sketch:type="MSPage">
        <g id="sylius_land_v" sketch:type="MSArtboardGroup" transform="translate(-1029.000000, -2149.000000)" fill="url(#linearGradient-1)">
            <g id="Group" sketch:type="MSLayerGroup" transform="translate(0.000000, 1729.000000)">
                <g id="b6" transform="translate(1000.500000, 420.500000)" sketch:type="MSShapeGroup">
                    <path d="M81.6790943,0 L39.3210358,0 C33.6294794,0 29,4.59631728 29,10.2460999 C29,15.897045 33.6296095,20.4936206 39.3210358,20.4936206 L39.4359077,20.4936206 L39.4359077,52.7152449 C39.4359077,53.5519723 39.7637413,54.3374214 40.3589155,54.9279613 L43.5262829,58.0749241 C44.4528032,58.9786879 46.0278357,58.989796 46.9747806,58.061491 L48.9510191,56.0972871 L50.9415677,58.0749241 C51.8683482,58.9764921 53.4431206,58.9909585 54.3903256,58.0626535 L56.3685155,56.0972871 L58.3599748,58.0749241 C59.2845437,58.9764921 60.8610073,58.9909585 61.8078221,58.0626535 L63.7869226,56.0972871 L65.9702687,58.2682833 C66.8945774,59.1699804 68.4718215,59.1822511 69.4187664,58.2560127 L71.5941768,56.0972871 L73.7897516,58.2765499 C74.2448159,58.7366337 74.8784975,59 75.5281806,59 C76.1764326,59 76.7870878,58.7517459 77.2608855,58.288433 L80.6418651,54.9279613 C81.2362587,54.3374214 81.5640923,53.5518431 81.5640923,52.7152449 L81.5640923,20.4934914 L81.6790943,20.4934914 C87.3705206,20.4934914 92,15.8969158 92,10.2459707 C92,4.59631728 87.3703905,0 81.6790943,0 L81.6790943,0 Z M77.36548,52.2855148 L75.8657712,53.7763309 C75.7767877,53.8648086 75.6561918,53.9144077 75.5303921,53.9144077 C75.4044624,53.9144077 75.2837363,53.8646794 75.194883,53.7764601 L73.3121812,51.9060296 C72.8508724,51.4551164 72.2395668,51.2067332 71.5919652,51.2067332 C70.9399405,51.2067332 70.3273339,51.4593789 69.865765,51.918171 L68.0239123,53.7450731 C67.9349289,53.8332925 67.8143329,53.8828916 67.6885333,53.8827625 C67.5627336,53.8827625 67.4420076,53.8330341 67.3532843,53.7445565 L65.5050571,51.9059004 C64.5820493,51.0053658 63.0057158,50.9930952 62.0587709,51.918171 L60.4134883,53.5508098 C60.2283664,53.7346108 59.9282425,53.7344817 59.7431206,53.5506806 L58.0869102,51.9060296 C57.1646829,51.005495 55.5883495,50.9932243 54.6404939,51.9183002 L52.9953414,53.5508098 C52.906358,53.6390291 52.7857621,53.6886283 52.6599624,53.6886283 C52.5341628,53.6886283 52.4135668,53.6389 52.3247135,53.5506806 L50.6692837,51.9061587 C49.7449749,51.0056241 48.1699424,50.9923202 47.2206558,51.9194627 L45.577845,53.5505515 C45.4888616,53.6389 45.3682656,53.6884991 45.242466,53.6884991 C45.1166663,53.6884991 44.9959403,53.6387708 44.907087,53.5504223 L43.6347802,52.2856439 L43.6347802,13.5033692 L77.3656101,13.5033692 L77.36548,52.2855148 L77.36548,52.2855148 Z M81.6790943,14.2401233 L81.5640923,14.2401233 L81.5640923,12.9859364 C81.5640923,10.9731666 79.9158176,9.33432797 77.8858509,9.33432797 L43.1141491,9.33432797 C41.086394,9.33432797 39.4359077,10.9720042 39.4359077,12.9852906 L39.4359077,14.2401233 L39.3210358,14.2401233 C37.1028249,14.2401233 35.2983088,12.4487414 35.2983088,10.2460999 C35.2983088,8.04487918 37.102955,6.25349729 39.3210358,6.25349729 L81.6790943,6.25349729 C83.8971751,6.25349729 85.7016912,8.04487918 85.7016912,10.2460999 C85.7016912,12.4487414 83.8971751,14.2401233 81.6790943,14.2401233 Z M49.702955,22.8978878 L62.0374357,22.8978878 C63.1973424,22.8978878 64.1363516,21.9645455 64.1363516,20.8131735 C64.1363516,19.662189 63.1973424,18.7288466 62.0374357,18.7288466 L49.702955,18.7288466 C48.5422677,18.7288466 47.6032585,19.662189 47.6032585,20.8131735 C47.6032585,21.9645455 48.5422677,22.8978878 49.702955,22.8978878 Z M49.702955,31.1645424 L70.4346604,31.1645424 C71.5952175,31.1645424 72.5343569,30.2310708 72.5343569,29.0800863 C72.5343569,27.9288435 71.5952175,26.995372 70.4346604,26.995372 L49.702955,26.995372 C48.5422677,26.995372 47.6032585,27.9288435 47.6032585,29.0800863 C47.6032585,30.2310708 48.5422677,31.1645424 49.702955,31.1645424 Z M49.702955,39.5597156 L70.4346604,39.5597156 C71.5952175,39.5597156 72.5343569,38.6267607 72.5343569,37.4753887 C72.5343569,36.3240167 71.5952175,35.3910618 70.4346604,35.3910618 L49.702955,35.3910618 C48.5422677,35.3910618 47.6032585,36.3240167 47.6032585,37.4753887 C47.6032585,38.6267607 48.5422677,39.5597156 49.702955,39.5597156 Z" id="bill-icon"></path>
                </g>
            </g>
        </g>
    </g>
</svg>