<?xml version="1.0" encoding="UTF-8" standalone="no"?>
<svg width="172px" height="172px" viewBox="0 0 172 172" version="1.1" xmlns="http://www.w3.org/2000/svg" xmlns:xlink="http://www.w3.org/1999/xlink" xmlns:sketch="http://www.bohemiancoding.com/sketch/ns">
    <!-- Generator: bin/sketchtool 1.4 (305) - http://www.bohemiancoding.com/sketch -->
    <title>box-lights-icon</title>
    <desc>Created with bin/sketchtool.</desc>
    <defs>
        <linearGradient x1="13.1512232%" y1="107.821906%" x2="100%" y2="9.35251799%" id="linearGradient-1">
            <stop stop-color="#00CDA0" offset="0%"></stop>
            <stop stop-color="#00B6A6" offset="100%"></stop>
        </linearGradient>
    </defs>
    <g id="Sylius" stroke="none" stroke-width="1" fill="none" fill-rule="evenodd" sketch:type="MSPage">
        <g id="sylius_land_v" sketch:type="MSArtboardGroup" transform="translate(-306.000000, -3095.000000)" fill="url(#linearGradient-1)">
            <g id="Group" sketch:type="MSLayerGroup" transform="translate(0.000000, 2652.000000)">
                <path d="M450.648279,443 L333.351171,443 C318.269227,443 306,455.269227 306,470.351171 L306,587.648829 C306,602.730223 318.269227,615 333.351171,615 L450.648829,615 C465.730223,615 478,602.730773 478,587.648829 L478,470.351171 C477.99945,455.269227 465.730223,443 450.648279,443 L450.648279,443 Z M450.648279,606.755849 L333.351171,606.755849 C322.815299,606.755849 314.243602,598.184152 314.243602,587.648279 L314.243602,503.76084 L444.851928,503.76084 C447.128811,503.76084 448.973729,501.915922 448.973729,499.639039 C448.973729,497.362156 447.128811,495.517238 444.851928,495.517238 L314.243602,495.517238 L314.243602,470.351171 C314.243602,459.815299 322.815299,451.243602 333.351171,451.243602 L450.648829,451.243602 C461.184701,451.243602 469.756398,459.815299 469.756398,470.351171 L469.756398,555.001968 L331.546372,555.001968 C329.269489,555.001968 327.424571,556.846886 327.424571,559.123769 C327.424571,561.400652 329.269489,563.24557 331.546372,563.24557 L469.755299,563.24557 L469.755299,587.648279 C469.755849,598.184152 461.184152,606.755849 450.648279,606.755849 Z M432.883318,482.432994 C428.678531,482.432994 425.257437,479.011899 425.257437,474.807113 C425.257437,470.602326 428.678531,467.181231 432.883318,467.181231 C437.088104,467.181231 440.509199,470.602326 440.509199,474.807113 C440.509199,479.011899 437.088654,482.432994 432.883318,482.432994 Z M398.053551,470.478672 C396.970342,470.478672 395.904719,470.918331 395.140812,471.681688 C394.371409,472.451091 393.931751,473.511768 393.931751,474.600473 C393.931751,475.683133 394.371409,476.743809 395.140812,477.513212 C395.909665,478.282615 396.970342,478.722274 398.053551,478.722274 C399.136211,478.722274 400.196338,478.282615 400.966291,477.513212 C401.735694,476.744359 402.175352,475.683133 402.175352,474.600473 C402.175352,473.512317 401.735694,472.451641 400.966291,471.681688 C400.202933,470.918331 399.136211,470.478672 398.053551,470.478672 Z M378.268908,470.478672 C377.180752,470.478672 376.120075,470.918331 375.350123,471.681688 C374.586216,472.451091 374.147107,473.511768 374.147107,474.600473 C374.147107,475.683133 374.586766,476.743809 375.350123,477.513212 C376.119526,478.277119 377.180203,478.722274 378.268908,478.722274 C379.351567,478.722274 380.411694,478.27657 381.181647,477.513212 C381.95105,476.744359 382.390708,475.683133 382.390708,474.600473 C382.390708,473.512317 381.95105,472.451641 381.181647,471.681688 C380.418289,470.918331 379.351567,470.478672 378.268908,470.478672 Z M359.033837,470.478672 C357.950628,470.478672 356.890501,470.918331 356.120548,471.681688 C355.351695,472.451091 354.912036,473.511768 354.912036,474.600473 C354.912036,475.683133 355.351695,476.743809 356.120548,477.513212 C356.889951,478.282615 357.950628,478.722274 359.033837,478.722274 C360.121443,478.722274 361.18212,478.282615 361.952072,477.513212 C362.715979,476.744359 363.155638,475.683133 363.155638,474.600473 C363.155638,473.512317 362.71543,472.451641 361.952072,471.681688 C361.18212,470.918331 360.121443,470.478672 359.033837,470.478672 Z M339.249193,470.478672 C338.165984,470.478672 337.100361,470.918331 336.336454,471.681688 C335.567051,472.451091 335.127392,473.511768 335.127392,474.600473 C335.127392,475.683133 335.567051,476.743809 336.336454,477.513212 C337.100361,478.282615 338.165984,478.722274 339.249193,478.722274 C340.331853,478.722274 341.398025,478.282615 342.161932,477.513212 C342.931335,476.744359 343.370994,475.683133 343.370994,474.600473 C343.370994,473.512317 342.931335,472.451641 342.161932,471.681688 C341.398575,470.918331 340.331853,470.478672 339.249193,470.478672 Z M432.883318,545.084366 C441.633626,545.084366 448.752801,537.965192 448.752801,529.214883 C448.752801,520.464575 441.633626,513.345401 432.883318,513.345401 C424.13301,513.345401 417.013835,520.464575 417.013835,529.214883 C417.013835,537.965192 424.13301,545.084366 432.883318,545.084366 Z M432.883318,521.589002 C437.088104,521.589002 440.509199,525.010097 440.509199,529.214883 C440.509199,533.41967 437.088104,536.840764 432.883318,536.840764 C428.678531,536.840764 425.257437,533.41967 425.257437,529.214883 C425.257437,525.010097 428.678531,521.589002 432.883318,521.589002 Z M398.053551,533.130044 C399.136211,533.130044 400.202384,532.690386 400.966291,531.920983 C401.735694,531.157076 402.175352,530.090903 402.175352,529.008244 C402.175352,527.920088 401.735694,526.859411 400.966291,526.095504 C400.202384,525.326102 399.136211,524.886443 398.053551,524.886443 C396.970342,524.886443 395.904719,525.326102 395.140812,526.095504 C394.371409,526.859411 393.931751,527.919539 393.931751,529.008244 C393.931751,530.095849 394.371409,531.157076 395.140812,531.920983 C395.904719,532.690935 396.970892,533.130044 398.053551,533.130044 Z M378.268908,533.130044 C379.351567,533.130044 380.411694,532.690386 381.181647,531.920983 C381.95105,531.157076 382.390708,530.090903 382.390708,529.008244 C382.390708,527.925584 381.95105,526.859411 381.181647,526.095504 C380.412244,525.326102 379.351567,524.886443 378.268908,524.886443 C377.180752,524.886443 376.120075,525.326102 375.350123,526.095504 C374.586216,526.859411 374.147107,527.925584 374.147107,529.008244 C374.147107,530.090903 374.586766,531.157076 375.350123,531.920983 C376.120075,532.690935 377.180752,533.130044 378.268908,533.130044 Z M359.033837,533.130044 C360.121443,533.130044 361.18212,532.690386 361.952072,531.920983 C362.715979,531.15158 363.161134,530.090903 363.161134,529.008244 C363.161134,527.925584 362.71543,526.864907 361.952072,526.095504 C361.182669,525.326102 360.121993,524.886443 359.033837,524.886443 C357.950628,524.886443 356.890501,525.326102 356.120548,526.095504 C355.356641,526.859411 354.912036,527.919539 354.912036,529.008244 C354.912036,530.090903 355.357191,531.157076 356.120548,531.920983 C356.889951,532.690935 357.950628,533.130044 359.033837,533.130044 Z M339.249193,533.130044 C340.331853,533.130044 341.398025,532.690386 342.161932,531.920983 C342.931335,531.157076 343.370994,530.090903 343.370994,529.008244 C343.370994,527.925584 342.931335,526.859411 342.161932,526.095504 C341.398025,525.326102 340.331853,524.886443 339.249193,524.886443 C338.165984,524.886443 337.100361,525.326102 336.336454,526.095504 C335.567051,526.859411 335.127392,527.925584 335.127392,529.008244 C335.127392,530.090903 335.567051,531.157076 336.336454,531.920983 C337.100361,532.690935 338.166534,533.130044 339.249193,533.130044 Z M432.883318,569.951465 C424.13301,569.951465 417.013835,577.070639 417.013835,585.820948 C417.013835,594.571256 424.13301,601.69043 432.883318,601.69043 C441.633626,601.69043 448.752801,594.571256 448.752801,585.820948 C448.752801,577.070639 441.633626,569.951465 432.883318,569.951465 Z M432.883318,593.446829 C428.678531,593.446829 425.257437,590.025734 425.257437,585.820948 C425.257437,581.616161 428.678531,578.195067 432.883318,578.195067 C437.088104,578.195067 440.509199,581.616161 440.509199,585.820948 C440.509199,590.025734 437.088654,593.446829 432.883318,593.446829 Z M398.053551,582.042081 C396.970342,582.042081 395.904719,582.481739 395.140812,583.245097 C394.371409,584.0145 393.931751,585.075177 393.931751,586.163882 C393.931751,587.246541 394.371409,588.312714 395.140812,589.076621 C395.904719,589.846024 396.970342,590.285682 398.053551,590.285682 C399.136211,590.285682 400.202384,589.846024 400.966291,589.076621 C401.735694,588.307768 402.175352,587.246541 402.175352,586.163882 C402.175352,585.075726 401.735694,584.015049 400.966291,583.245097 C400.202933,582.481739 399.136211,582.042081 398.053551,582.042081 Z M378.268908,582.042081 C377.180752,582.042081 376.120075,582.481739 375.350123,583.245097 C374.586216,584.0145 374.147107,585.075177 374.147107,586.163882 C374.147107,587.246541 374.586766,588.307218 375.350123,589.076621 C376.119526,589.846024 377.180203,590.285682 378.268908,590.285682 C379.351567,590.285682 380.411694,589.846024 381.181647,589.076621 C381.95105,588.307768 382.390708,587.246541 382.390708,586.163882 C382.390708,585.075726 381.95105,584.015049 381.181647,583.245097 C380.412244,582.481739 379.351567,582.042081 378.268908,582.042081 Z M359.033837,582.042081 C357.950628,582.042081 356.890501,582.481739 356.120548,583.245097 C355.351695,584.0145 354.912036,585.075177 354.912036,586.163882 C354.912036,587.246541 355.351695,588.307218 356.120548,589.076621 C356.889951,589.846024 357.950628,590.285682 359.033837,590.285682 C360.121443,590.285682 361.18212,589.846024 361.952072,589.076621 C362.715979,588.307768 363.161134,587.246541 363.161134,586.163882 C363.161134,585.075726 362.71543,584.015049 361.952072,583.245097 C361.18212,582.481739 360.121443,582.042081 359.033837,582.042081 Z M339.249193,582.042081 C338.165984,582.042081 337.100361,582.481739 336.336454,583.245097 C335.567051,584.0145 335.127392,585.075177 335.127392,586.163882 C335.127392,587.246541 335.567051,588.307218 336.336454,589.076621 C337.100361,589.846024 338.165984,590.285682 339.249193,590.285682 C340.331853,590.285682 341.398025,589.846024 342.161932,589.076621 C342.931335,588.307768 343.370994,587.246541 343.370994,586.163882 C343.370994,585.075726 342.931335,584.015049 342.161932,583.245097 C341.398575,582.481739 340.331853,582.042081 339.249193,582.042081 Z" id="box-lights-icon" sketch:type="MSShapeGroup"></path>
            </g>
        </g>
    </g>
</svg>