<?xml version="1.0" encoding="UTF-8" standalone="no"?>
<svg width="68px" height="59px" viewBox="0 0 68 59" version="1.1" xmlns="http://www.w3.org/2000/svg" xmlns:xlink="http://www.w3.org/1999/xlink" xmlns:sketch="http://www.bohemiancoding.com/sketch/ns">
    <!-- Generator: bin/sketchtool 1.4 (305) - http://www.bohemiancoding.com/sketch -->
    <title>box-hand-icon</title>
    <desc>Created with bin/sketchtool.</desc>
    <defs>
        <linearGradient x1="13.1512232%" y1="107.821906%" x2="100%" y2="9.35251799%" id="linearGradient-1">
            <stop stop-color="#00CDA0" offset="0%"></stop>
            <stop stop-color="#00B6A6" offset="100%"></stop>
        </linearGradient>
    </defs>
    <g id="Sylius" stroke="none" stroke-width="1" fill="none" fill-rule="evenodd" sketch:type="MSPage">
        <g id="sylius_land_v" sketch:type="MSArtboardGroup" transform="translate(-686.000000, -1948.000000)" fill="url(#linearGradient-1)">
            <g id="Group" sketch:type="MSLayerGroup" transform="translate(0.000000, 1729.000000)">
                <g id="b2" transform="translate(622.500000, 219.500000)" sketch:type="MSShapeGroup">
                    <path d="M128.965515,39.2519305 C127.896625,38.7449538 125.917612,38.2935818 122.55886,39.0236728 C122.326698,39.0662105 106.944987,41.7965452 104.073259,42.3115847 C103.630662,42.3908215 103.36034,42.9274078 103.36034,42.9274078 C97.6817835,51.6547203 88.6762279,45.4133595 88.7173123,45.2860245 C93.7936697,46.6907408 98.1064149,44.7306715 99.7234681,42.7924272 C103.500167,38.2659184 97.5287268,37.5936564 94.3648122,36.825476 C82.5138502,33.9489007 82.0141528,36.8969282 75.1506947,37.5481994 L64.6298916,39.0354888 C64.3914629,39.1076361 64.1942579,39.2765356 64.0868815,39.50104 C63.9793658,39.7254054 63.9712881,39.9846628 64.0645984,40.2152837 L64.4895083,41.2641292 C65.5485103,43.878806 66.6135009,47.7746173 67.7333634,50.4215449 C67.8053655,50.5921126 67.929315,50.73599 68.0876639,50.8326033 C68.1227598,50.8540112 68.1696934,50.8804235 68.228465,50.9083649 C68.4384827,51.0080365 68.6752401,51.0672556 68.8684063,51.0669776 L76.3452054,50.9194858 C76.7371086,50.9169836 93.3482873,60.5409235 101.32367,57.3525443 L126.165511,46.2357545 C127.154043,45.7688132 128.175999,45.2860245 129.19336,44.816859 C130.303752,44.3048778 130.993691,43.1284192 130.999958,41.9849065 C131.006504,40.7894033 130.248323,39.8603861 128.965515,39.2519305 Z M77.4987936,11.1672511 L78.2445794,11.1672511 L78.2445794,29.0329346 C78.2445794,30.4034539 79.3577571,31.5145768 80.7309501,31.5145768 L114.294934,31.5145768 C115.667988,31.5145768 116.781166,30.4034539 116.781166,29.0329346 L116.781166,11.1672511 L117.527091,11.1672511 C118.213827,11.1672511 118.770346,10.6116202 118.770346,9.92643 L118.770346,1.24082113 C118.770346,0.555491959 118.213827,0 117.527091,0 L77.4987936,0 C76.8121971,0 76.2556779,0.555491959 76.2556779,1.24082113 L76.2556779,9.92656901 C76.2556779,10.6116202 76.8120578,11.1672511 77.4987936,11.1672511 Z M94.7159319,3.613756 L100.309953,3.613756 C101.408507,3.613756 102.298993,4.50273775 102.298993,5.5991254 C102.298993,6.69565207 101.408228,7.5843558 100.309953,7.5843558 L94.7159319,7.5843558 C93.6175168,7.5843558 92.7270304,6.69551306 92.7270304,5.5991254 C92.7268911,4.50273775 93.6173775,3.613756 94.7159319,3.613756 L94.7159319,3.613756 Z" id="box-hand-icon"></path>
                </g>
            </g>
        </g>
    </g>
</svg>