<?xml version="1.0" encoding="UTF-8" standalone="no"?>
<svg width="60px" height="60px" viewBox="0 0 60 60" version="1.1" xmlns="http://www.w3.org/2000/svg" xmlns:xlink="http://www.w3.org/1999/xlink" xmlns:sketch="http://www.bohemiancoding.com/sketch/ns">
    <!-- Generator: bin/sketchtool 1.4 (305) - http://www.bohemiancoding.com/sketch -->
    <title>checkmark_icon</title>
    <desc>Created with bin/sketchtool.</desc>
    <defs></defs>
    <g id="Adaptive" stroke="none" stroke-width="1" fill="none" fill-rule="evenodd" sketch:type="MSPage">
        <g id="adaptive_land_v" sketch:type="MSArtboardGroup" transform="translate(-690.000000, -2642.000000)">
            <g id="3-Benefits" sketch:type="MSLayerGroup" transform="translate(0.000000, 2161.000000)">
                <g id="b5" transform="translate(643.000000, 481.000000)" sketch:type="MSShapeGroup">
                    <g id="checkmark_icon" transform="translate(47.000000, 0.000000)">
                        <path d="M17.7,24.3 L13.5,28.5 L27,42 L57,12 L52.8,7.8 L27,33.6 L17.7,24.3 L17.7,24.3 Z" id="Shape" fill="#E31A54"></path>
                        <path d="M54,30 C54,43.2 43.2,54 30,54 C16.8,54 6,43.2 6,30 C6,16.8 16.8,6 30,6 C32.4,6 34.5,6.3 36.6,6.9 L41.4,2.1 C37.8,0.9 33.9,0 30,0 C13.5,0 0,13.5 0,30 C0,46.5 13.5,60 30,60 C46.5,60 60,46.5 60,30 L54,30 L54,30 Z" id="Shape-path" fill="#4770BC"></path>
                    </g>
                </g>
            </g>
        </g>
    </g>
</svg>