<?xml version="1.0" encoding="UTF-8" standalone="no"?>
<svg width="86px" height="86px" viewBox="0 0 86 86" version="1.1" xmlns="http://www.w3.org/2000/svg" xmlns:xlink="http://www.w3.org/1999/xlink" xmlns:sketch="http://www.bohemiancoding.com/sketch/ns">
    <!-- Generator: bin/sketchtool 1.4 (305) - http://www.bohemiancoding.com/sketch -->
    <title>checkmark-icon</title>
    <desc>Created with bin/sketchtool.</desc>
    <defs>
        <linearGradient x1="89.4444444%" y1="12.5%" x2="5%" y2="86.9444444%" id="linearGradient-1">
            <stop stop-color="#1F9EFF" stop-opacity="0.95" offset="0%"></stop>
            <stop stop-color="#32BFCE" offset="100%"></stop>
        </linearGradient>
    </defs>
    <g id="Proektirovanie" stroke="none" stroke-width="1" fill="none" fill-rule="evenodd" sketch:type="MSPage">
        <g id="proektir_land_v" sketch:type="MSArtboardGroup" transform="translate(-349.000000, -2361.000000)">
            <g id="Решив-заказать-проек-+-Oval-3-+-Path-50" sketch:type="MSLayerGroup" transform="translate(0.000000, 2286.000000)">
                <g id="checkmark-icon" transform="translate(349.000000, 75.000000)" sketch:type="MSShapeGroup">
                    <path d="M43,83 L43,83 C65.09139,83 83,65.09139 83,43 C83,20.90861 65.09139,3 43,3 C20.90861,3 3,20.90861 3,43 C3,65.09139 20.90861,83 43,83 L43,83 Z M43,86 L43,86 C19.2517558,86 0,66.7482442 0,43 C0,19.2517558 19.2517558,0 43,0 C66.7482442,0 86,19.2517558 86,43 C86,66.7482442 66.7482442,86 43,86 L43,86 Z" id="Shape" fill="url(#linearGradient-1)"></path>
                    <path d="M23,41.5 L38.0591186,56.5591186 L67.0620635,27.5561736" id="Path-50" stroke="url(#linearGradient-1)" stroke-width="3"></path>
                </g>
            </g>
        </g>
    </g>
</svg>