<?xml version="1.0" encoding="UTF-8" standalone="no"?>
<svg width="64px" height="61px" viewBox="0 0 64 61" version="1.1" xmlns="http://www.w3.org/2000/svg" xmlns:xlink="http://www.w3.org/1999/xlink" xmlns:sketch="http://www.bohemiancoding.com/sketch/ns">
    <!-- Generator: bin/sketchtool 1.4 (305) - http://www.bohemiancoding.com/sketch -->
    <title>delivery-icon</title>
    <desc>Created with bin/sketchtool.</desc>
    <defs>
        <linearGradient x1="13.1512232%" y1="107.821906%" x2="100%" y2="9.35251799%" id="linearGradient-1">
            <stop stop-color="#00CDA0" offset="0%"></stop>
            <stop stop-color="#00B6A6" offset="100%"></stop>
        </linearGradient>
    </defs>
    <g id="Sylius" stroke="none" stroke-width="1" fill="none" fill-rule="evenodd" sketch:type="MSPage">
        <g id="sylius_land_v" sketch:type="MSArtboardGroup" transform="translate(-1030.000000, -1946.000000)" fill="url(#linearGradient-1)">
            <g id="Group" sketch:type="MSLayerGroup" transform="translate(0.000000, 1729.000000)">
                <g id="b3" transform="translate(1022.500000, 217.500000)" sketch:type="MSShapeGroup">
                    <path d="M27.2493479,0 C16.9978138,0 8.65792112,8.38469796 8.65792112,18.6908865 C8.65792112,28.9972054 16.9978138,37.381773 27.2493479,37.381773 C29.0149577,37.381773 30.7183158,37.1169601 32.3385422,36.6522663 L35.8492705,18.5119976 C36.3697195,15.8311421 38.7185485,13.886443 41.4342725,13.886443 L45.1949149,13.886443 C43.0771948,5.90463607 35.8452501,0 27.2493479,0 L27.2493479,0 Z M27.2493479,4.42163182 C28.5819203,4.42163182 30.9224491,7.86093956 31.7302927,14.174986 C30.3912358,14.3760404 28.9256007,14.5164655 27.2493479,14.5164655 C25.5750405,14.5164655 24.1091461,14.3761708 22.7722939,14.174986 C23.5779328,7.86106994 25.9165162,4.42163182 27.2493479,4.42163182 L27.2493479,4.42163182 Z M12.9234495,18.6241291 C12.9292856,17.4471396 13.0899724,16.3075706 13.3638793,15.2124631 C14.6469098,16.1913972 16.3169374,16.9772304 18.2244288,17.5573153 C18.2159989,17.9349116 18.2016032,18.3130294 18.2016032,18.6907561 C18.2016032,20.0158636 18.27423,21.3401887 18.3993816,22.6422179 C15.806345,21.72287 13.7543781,20.1920143 12.9234495,18.6241291 L12.9234495,18.6241291 Z M14.8091529,25.8078466 C16.1606601,26.4643374 17.6371891,26.9811854 19.1781745,27.3673871 C19.5217253,28.808668 19.9528173,30.1644161 20.4772866,31.3785655 C18.1077071,30.0951814 16.1438003,28.1545242 14.8091529,25.8078466 L14.8091529,25.8078466 Z M18.5908051,13.145332 C16.7292243,12.4499863 15.5629154,11.6325998 15.1591882,10.9972315 C16.4771055,8.91002099 18.3056152,7.17967551 20.4772866,6.0030771 C19.5863112,8.06512319 18.9573112,10.5270615 18.5908051,13.145332 L18.5908051,13.145332 Z M22.4765991,18.4741859 L22.4765991,18.4741859 C22.47621,18.4910056 22.4759506,18.4981768 22.4765991,18.4741859 L22.4765991,18.4741859 Z M27.2493479,32.9602715 C26.324653,32.9602715 24.9129693,31.2719102 23.859232,28.1568711 C25.0085514,28.266786 26.1498299,28.3241556 27.2493479,28.3241556 C28.3506817,28.3241556 29.4898852,28.266786 30.6411498,28.1568711 C29.5855969,31.2717798 28.1737835,32.9602715 27.2493479,32.9602715 L27.2493479,32.9602715 Z M31.663891,23.7069456 C30.2602481,23.9132154 28.7838488,24.0368209 27.2493479,24.0368209 C25.7147174,24.0368209 24.2381884,23.9132154 22.8386956,23.7069456 C22.6230199,22.2131194 22.4856774,20.3135336 22.4820461,18.4749682 C24.0334067,18.6911473 25.6433875,18.8040611 27.2493479,18.8040611 C28.8611444,18.8040611 30.4706065,18.6908865 32.0259876,18.4741859 C32.0259876,18.5505917 32.0344175,18.6144806 32.0344175,18.6908865 C32.0345471,20.552139 31.8802152,22.1933008 31.663891,23.7069456 L31.663891,23.7069456 Z M35.9117815,13.145332 C35.541255,10.528235 34.912255,8.06512319 34.0208905,6.00412018 C36.1947667,7.18084898 38.0232764,8.91106408 39.339378,10.9982746 C38.9352617,11.6336429 37.7693419,12.4498559 35.9117815,13.145332 Z M65.4229091,34.7190411 L64.0859273,34.7075671 C63.4884421,34.7020909 62.9573585,34.325277 62.7536144,33.7609687 L57.4809077,19.1202458 C57.2767744,18.5516348 56.7398548,18.1739081 56.1378304,18.1739081 L41.4344022,18.1739081 C40.7511914,18.1739081 40.1639517,18.6603763 40.0347798,19.3345995 L34.9808614,45.4408984 L30.6351841,45.4408984 L10.8755031,45.4408984 C9.2869212,45.4408984 8,46.7354957 8,48.3316745 C8,49.9291572 9.2869212,51.2237545 10.8755031,51.2237545 L30.085425,51.2237545 L35.5933907,51.2237545 L41.6530608,51.2237545 L45.2033448,51.2237545 C45.4325083,45.0459609 50.4676216,40.0811432 56.6668389,40.0811432 C62.8660562,40.0811432 67.9011695,45.0459609 68.1304627,51.2237545 L69.5713268,51.2237545 C70.360495,51.2237545 71,50.5810845 71,49.7888625 L71,40.3700774 C70.9997406,37.2678161 68.5109753,34.7439447 65.4229091,34.7190411 Z M56.1772564,29.5208334 C56.0502891,29.6933334 55.8483606,29.7950341 55.6339819,29.7950341 L43.4124454,29.7950341 C43.2127216,29.7950341 43.0229841,29.7071543 42.8940715,29.553169 C42.7650292,29.4002269 42.708484,29.1973471 42.7420739,28.9995523 L43.762351,22.8453585 C43.8165617,22.5169175 44.0996766,22.2750525 44.4329818,22.2750525 L53.8347822,22.2750525 C54.1367023,22.2750525 54.4014011,22.4750638 54.4866079,22.7659537 L56.2859372,28.9188437 C56.3480591,29.1248528 56.3064283,29.3479423 56.1772564,29.5208334 Z M56.6665795,43.2968399 C52.0855135,43.2968399 48.3602768,47.0434662 48.3602768,51.6490719 C48.3602768,56.2536345 52.0855135,60 56.6665795,60 C61.2459595,60 64.9732714,56.2536345 64.9732714,51.6490719 C64.9732714,47.0435966 61.2459595,43.2968399 56.6665795,43.2968399 Z M56.6665795,55.7127956 C54.4365473,55.7127956 52.6247676,53.8901372 52.6247676,51.6492023 C52.6247676,49.4080065 54.4365473,47.5846962 56.6665795,47.5846962 C58.8968712,47.5846962 60.7085211,49.4080065 60.7085211,51.6492023 C60.7085211,53.8900068 58.8968712,55.7127956 56.6665795,55.7127956 L56.6665795,55.7127956 Z" id="delivery-icon"></path>
                </g>
            </g>
        </g>
    </g>
</svg>