<?xml version="1.0" encoding="UTF-8" standalone="no"?>
<svg width="57px" height="52px" viewBox="0 0 57 52" version="1.1" xmlns="http://www.w3.org/2000/svg" xmlns:xlink="http://www.w3.org/1999/xlink" xmlns:sketch="http://www.bohemiancoding.com/sketch/ns">
    <!-- Generator: bin/sketchtool 1.4 (305) - http://www.bohemiancoding.com/sketch -->
    <title>friendly_icon</title>
    <desc>Created with bin/sketchtool.</desc>
    <defs></defs>
    <g id="Adaptive" stroke="none" stroke-width="1" fill="none" fill-rule="evenodd" sketch:type="MSPage">
        <g id="adaptive_land_v" sketch:type="MSArtboardGroup" transform="translate(-693.000000, -2415.000000)">
            <g id="3-Benefits" sketch:type="MSLayerGroup" transform="translate(0.000000, 2161.000000)">
                <g id="b2" transform="translate(617.000000, 254.000000)" sketch:type="MSShapeGroup">
                    <g id="friendly_icon" transform="translate(76.000000, 0.000000)">
                        <path d="M0,52 L10.45,52 L10.45,20.8 L0,20.8 L0,52 L0,52 Z" id="Shape" fill="#E31A54"></path>
                        <path d="M57,23.4 C57,20.54 54.64875,18.2 51.775,18.2 L35.31625,18.2 L37.92875,6.24 L37.92875,5.46 C37.92875,4.42 37.40625,3.38 36.88375,2.6 L34.01,0 L16.7675,17.16 C15.7225,17.94 15.2,19.24 15.2,20.8 L15.2,46.8 C15.2,49.66 17.55125,52 20.425,52 L43.9375,52 C46.0275,52 47.85625,50.7 48.64,48.88 L56.4775,30.42 C56.73875,29.9 56.73875,29.12 56.73875,28.6 L56.73875,23.4 L57,23.4 C57,23.66 57,23.4 57,23.4 L57,23.4 L57,23.4 Z" id="Shape-path" fill="#4770BC"></path>
                    </g>
                </g>
            </g>
        </g>
    </g>
</svg>