<?xml version="1.0" encoding="UTF-8" standalone="no"?>
<svg width="12px" height="14px" viewBox="0 0 12 14" version="1.1" xmlns="http://www.w3.org/2000/svg" xmlns:xlink="http://www.w3.org/1999/xlink" xmlns:sketch="http://www.bohemiancoding.com/sketch/ns">
    <!-- Generator: bin/sketchtool 1.4 (305) - http://www.bohemiancoding.com/sketch -->
    <title>github_icon</title>
    <desc>Created with bin/sketchtool.</desc>
    <defs></defs>
    <g id="Adaptive" stroke="none" stroke-width="1" fill="none" fill-rule="evenodd" sketch:type="MSPage">
        <g id="adaptive_land_v" sketch:type="MSArtboardGroup" transform="translate(-1400.000000, -27.000000)" fill-opacity="0.6" fill="#FFFFFF">
            <g id="Header" sketch:type="MSLayerGroup">
                <g id="social" transform="translate(1279.000000, 27.000000)" sketch:type="MSShapeGroup">
                    <path d="M131.268861,2.20326653 C132.339243,2.89615584 133,3.96429601 133,5.47527665 C133,8.10705844 130.994672,9.39536623 128.312962,9.69735194 L128.312962,9.69735194 L130.360921,12.6605967 C130.360921,12.6605967 129.628066,14 127.001001,14 C124.373936,14 123.633072,12.6605967 123.633072,12.6605967 L125.67985,9.69906186 C123.001745,9.40534343 121,8.14955975 121,5.47527665 C121,3.9391287 121.660481,2.87101808 122.730242,2.18443702 L122.730242,2.18443702 L122.557817,0 L124.740118,1.40109871 C125.437672,1.25205411 126.20062,1.18251856 127,1.18251856 C127.796638,1.18251856 128.556998,1.25453933 129.252487,1.40627726 L131.442183,0 L131.268861,2.20326653 Z" id="github_icon"></path>
                </g>
            </g>
        </g>
    </g>
</svg>