<?xml version="1.0" encoding="UTF-8" standalone="no"?>
<svg width="59px" height="59px" viewBox="0 0 59 59" version="1.1" xmlns="http://www.w3.org/2000/svg" xmlns:xlink="http://www.w3.org/1999/xlink" xmlns:sketch="http://www.bohemiancoding.com/sketch/ns">
    <!-- Generator: bin/sketchtool 1.4 (305) - http://www.bohemiancoding.com/sketch -->
    <title>graph-up-icon</title>
    <desc>Created with bin/sketchtool.</desc>
    <defs>
        <linearGradient x1="13.1512232%" y1="107.821906%" x2="100%" y2="9.35251799%" id="linearGradient-1">
            <stop stop-color="#00CDA0" offset="0%"></stop>
            <stop stop-color="#00B6A6" offset="100%"></stop>
        </linearGradient>
    </defs>
    <g id="Sylius" stroke="none" stroke-width="1" fill="none" fill-rule="evenodd" sketch:type="MSPage">
        <g id="sylius_land_v" sketch:type="MSArtboardGroup" transform="translate(-349.000000, -2141.000000)" fill="url(#linearGradient-1)">
            <g id="Group" sketch:type="MSLayerGroup" transform="translate(0.000000, 1729.000000)">
                <g id="b4" transform="translate(324.500000, 412.500000)" sketch:type="MSShapeGroup">
                    <path d="M29.2703099,28.9436392 C29.0508465,28.9824881 28.8348496,28.9999402 28.6226777,28.9999402 C26.9021131,28.9999402 25.3763881,27.7678916 25.0578315,26.0194513 C24.7035343,24.0479583 26.0137405,22.1608572 27.9855644,21.8069137 C36.8602061,20.2063382 46.3931187,15.6822921 56.3443983,8.41503422 L52.1601297,3.33837717 L72.125444,-1.77635684e-15 L65.0349585,18.9606626 L60.9607803,14.0187217 C49.8800291,22.1821344 39.4868343,27.1029177 29.2703099,28.9436392 L29.2703099,28.9436392 Z M35.8760872,39.875127 L32.2509961,39.875127 C30.2510819,39.875127 28.6259051,41.4962625 28.6259051,43.4995517 L28.6259051,54.3748581 C28.6259051,56.378745 30.2509624,57.9998805 32.2509961,57.9998805 L35.8760872,57.9998805 C37.879707,57.9998805 39.5008197,56.378745 39.5008197,54.3748581 L39.5008197,43.4995517 C39.5008197,41.4962625 37.879707,39.875127 35.8760872,39.875127 L35.8760872,39.875127 Z M64.8753814,25.3751569 L61.2502903,25.3751569 C59.2470291,25.3751569 57.6259164,26.9962923 57.6259164,28.9999402 L57.6259164,54.3748581 C57.6259164,56.378745 59.2470291,57.9998805 61.2502903,57.9998805 L64.8753814,57.9998805 C66.8793597,57.9998805 68.5004725,56.378745 68.5004725,54.3748581 L68.5004725,28.9999402 C68.5004725,26.9964119 66.8792402,25.3751569 64.8753814,25.3751569 L64.8753814,25.3751569 Z M79.3755066,18.1249925 L75.7499374,18.1249925 C73.7465567,18.1249925 72.125444,19.7464866 72.125444,21.7501345 L72.125444,54.3749776 C72.125444,56.3788645 73.7465567,58 75.7499374,58 L79.3755066,58 C81.3788873,58 83,56.3788645 83,54.3749776 L83,21.7500149 C83.0001195,19.7464866 81.3788873,18.1249925 79.3755066,18.1249925 L79.3755066,18.1249925 Z M50.3757343,32.6248431 L46.7508823,32.6248431 C44.7509681,32.6248431 43.1257912,34.2465762 43.1257912,36.2499851 L43.1257912,54.3749776 C43.1257912,56.3788645 44.7508485,58 46.7508823,58 L50.3757343,58 C52.3795931,58 54.0007058,56.3788645 54.0007058,54.3749776 L54.0007058,36.2499851 C54.0007058,34.2465762 52.3795931,32.6248431 50.3757343,32.6248431 L50.3757343,32.6248431 Z" id="graph-up-icon"></path>
                </g>
            </g>
        </g>
    </g>
</svg>