<?xml version="1.0" encoding="UTF-8" standalone="no"?>
<svg width="86px" height="86px" viewBox="0 0 86 86" version="1.1" xmlns="http://www.w3.org/2000/svg" xmlns:xlink="http://www.w3.org/1999/xlink" xmlns:sketch="http://www.bohemiancoding.com/sketch/ns">
    <!-- Generator: bin/sketchtool 1.4 (305) - http://www.bohemiancoding.com/sketch -->
    <title>graph_icon</title>
    <desc>Created with bin/sketchtool.</desc>
    <defs>
        <linearGradient x1="89.4444444%" y1="12.5%" x2="5%" y2="86.9444444%" id="linearGradient-1">
            <stop stop-color="#1F9EFF" stop-opacity="0.95" offset="0%"></stop>
            <stop stop-color="#32BFCE" offset="100%"></stop>
        </linearGradient>
    </defs>
    <g id="Adaptive" stroke="none" stroke-width="1" fill="none" fill-rule="evenodd" sketch:type="MSPage">
        <g id="adaptive_land_v" sketch:type="MSArtboardGroup" transform="translate(-262.000000, -1664.000000)" fill="url(#linearGradient-1)">
            <g id="2" sketch:type="MSLayerGroup" transform="translate(0.000000, 1226.000000)">
                <g id="html-range" transform="translate(262.000000, 436.000000)" sketch:type="MSShapeGroup">
                    <g id="graph_icon" transform="translate(0.000000, 2.000000)">
                        <path d="M43,83 L43,83 C65.09139,83 83,65.09139 83,43 C83,20.90861 65.09139,3 43,3 C20.90861,3 3,20.90861 3,43 C3,65.09139 20.90861,83 43,83 L43,83 Z M43,86 L43,86 C19.2517558,86 0,66.7482442 0,43 C0,19.2517558 19.2517558,0 43,0 C66.7482442,0 86,19.2517558 86,43 C86,66.7482442 66.7482442,86 43,86 L43,86 Z" id="Shape"></path>
                        <path d="M19.5,53.85 C19.5,50.86875 21.9272788,48.45 24.9230769,48.45 C25.4861731,48.45 26.0176346,48.5590125 26.5295505,48.7171875 L31.2571178,42.438225 C30.6832885,41.5840125 30.3461538,40.5539625 30.3461538,39.45 C30.3461538,36.46875 32.7752404,34.05 35.7692308,34.05 C38.7632212,34.05 41.1923077,36.46875 41.1923077,39.45 C41.1923077,40.0125 41.0828293,40.5399 40.9221707,41.0496375 L47.2261587,45.7570875 C48.087637,45.1875 49.1185865,44.85 50.2307692,44.85 C50.4567308,44.85 50.6685697,44.8887 50.8874135,44.916825 L57.1790865,32.390625 C56.2399904,31.4203125 55.6538462,30.1054125 55.6538462,28.65 C55.6538462,25.66875 58.0829327,23.25 61.0769231,23.25 C64.0709135,23.25 66.5,25.66875 66.5,28.65 C66.5,31.63125 64.0709135,34.05 61.0769231,34.05 C60.8509615,34.05 60.6391226,34.0113 60.4202788,33.983175 L54.1321082,46.509375 C55.0713173,47.4796875 55.6538462,48.794475 55.6538462,50.25 C55.6538462,53.23125 53.2247596,55.65 50.2307692,55.65 C47.2367788,55.65 44.8076923,53.23125 44.8076923,50.25 C44.8076923,49.6909875 44.9171707,49.1601 45.0760216,48.6503625 L38.7720337,43.9429125 C37.912363,44.5125 36.8796058,44.85 35.7692308,44.85 C35.2061346,44.85 34.6746731,44.7409875 34.1645649,44.5828125 L29.4353029,50.858175 C30.0090192,51.7159875 30.3461538,52.74255 30.3461538,53.85 C30.3461538,56.83125 27.918875,59.25 24.9230769,59.25 C21.9272788,59.25 19.5,56.83125 19.5,53.85 Z M59.2692308,28.65 C59.2692308,29.64495 60.0777212,30.45 61.0769231,30.45 C62.076125,30.45 62.8846154,29.64495 62.8846154,28.65 C62.8846154,27.65505 62.076125,26.85 61.0769231,26.85 C60.0777212,26.85 59.2692308,27.65505 59.2692308,28.65 Z M48.4230769,50.25 C48.4230769,51.24495 49.2315673,52.05 50.2307692,52.05 C51.2299712,52.05 52.0384615,51.24495 52.0384615,50.25 C52.0384615,49.25505 51.2299712,48.45 50.2307692,48.45 C49.2315673,48.45 48.4230769,49.25505 48.4230769,50.25 Z M33.9615385,39.45 C33.9615385,40.44495 34.7700288,41.25 35.7692308,41.25 C36.7684327,41.25 37.5769231,40.44495 37.5769231,39.45 C37.5769231,38.45505 36.7684327,37.65 35.7692308,37.65 C34.7700288,37.65 33.9615385,38.45505 33.9615385,39.45 Z M23.1153846,53.85 C23.1153846,54.84495 23.923875,55.65 24.9230769,55.65 C25.9222788,55.65 26.7307692,54.84495 26.7307692,53.85 C26.7307692,52.85505 25.9222788,52.05 24.9230769,52.05 C23.923875,52.05 23.1153846,52.85505 23.1153846,53.85 Z" id="Path"></path>
                    </g>
                </g>
            </g>
        </g>
    </g>
</svg>