<?xml version="1.0" encoding="UTF-8"?>
<svg width="24px" height="24px" viewBox="0 0 24 24" version="1.1" xmlns="http://www.w3.org/2000/svg" xmlns:xlink="http://www.w3.org/1999/xlink">
    <!-- Generator: Sketch 44.1 (41455) - http://www.bohemiancoding.com/sketch -->
    <title>Group 3</title>
    <desc>Created with Sketch.</desc>
    <defs></defs>
    <g id="Page-1" stroke="none" stroke-width="1" fill="none" fill-rule="evenodd">
        <g id="Group-2" transform="translate(-855.000000, -567.000000)">
            <g id="Group-3" transform="translate(855.000000, 567.000000)">
                <circle id="Oval" fill="#2D363B" cx="12" cy="12" r="12"></circle>
                <g id="linkedin-logo" transform="translate(7.000000, 6.000000)" fill-rule="nonzero" fill="#FFFFFF">
                    <path d="M11,6.74409127 L11,11 L8.64234383,11 L8.64234383,7.02912638 C8.64234383,6.03161055 8.30133429,5.35084501 7.44794091,5.35084501 C6.79648328,5.35084501 6.4088004,5.8096311 6.23824448,6.25342942 C6.17604745,6.41208559 6.16003785,6.6329142 6.16003785,6.85500071 L6.16003785,11 L3.80158887,11 C3.80158887,11 3.83335232,4.27464343 3.80158887,3.57784634 L6.15980768,3.57784634 L6.15980768,4.62990691 C6.15502526,4.63777549 6.14881067,4.64625963 6.14430957,4.65388733 L6.15980768,4.65388733 L6.15980768,4.62990691 C6.4731201,4.12489964 7.03266321,3.40347979 8.28509452,3.40347979 C9.83677232,3.40345302 11,4.46429214 11,6.74409127 Z M1.33455083,0 C0.527728502,0 0,0.553824556 0,1.28212271 C0,1.9945499 0.512460563,2.56518216 1.30324772,2.56518216 L1.31900157,2.56518216 C2.14144988,2.56518216 2.65293862,1.99465696 2.65293862,1.28212271 C2.63744051,0.553824556 2.14144988,0 1.33455083,0 Z M0.14007119,11 L2.49762506,11 L2.49762506,3.57784634 L0.14007119,3.57784634 L0.14007119,11 Z" id="LinkedIn"></path>
                </g>
            </g>
        </g>
    </g>
</svg>