<?xml version="1.0" encoding="UTF-8"?>
<svg width="13px" height="13px" viewBox="0 0 13 13" version="1.1" xmlns="http://www.w3.org/2000/svg" xmlns:xlink="http://www.w3.org/1999/xlink">
    <!-- Generator: Sketch 44.1 (41455) - http://www.bohemiancoding.com/sketch -->
    <title>linkedin-logo</title>
    <desc>Created with Sketch.</desc>
    <defs></defs>
    <g id="Page-1" stroke="none" stroke-width="1" fill="none" fill-rule="evenodd">
        <g id="Group" transform="translate(-1148.000000, -548.000000)" fill-rule="nonzero" fill="#616669">
            <g id="linkedin-logo" transform="translate(1148.000000, 548.000000)">
                <path d="M13,7.97028968 L13,13 L10.2136791,13 L10.2136791,8.30714936 C10.2136791,7.12826702 9.8106678,6.32372592 8.80211198,6.32372592 C8.03220752,6.32372592 7.57403683,6.86592766 7.37247075,7.39041659 C7.29896517,7.57791933 7.28004473,7.83889859 7.28004473,8.10136447 L7.28004473,13 L4.49278685,13 C4.49278685,13 4.53032547,5.05185133 4.49278685,4.22836385 L7.27977271,4.22836385 L7.27977271,5.47170817 C7.27412076,5.48100739 7.26677625,5.49103411 7.26145677,5.50004866 L7.27977271,5.50004866 L7.27977271,5.47170817 C7.65005103,4.87488139 8.31132924,4.0222943 9.79147534,4.0222943 C11.6252764,4.02226267 13,5.27598163 13,7.97028968 Z M1.57719644,0 C0.623679138,0 0,0.654519929 0,1.51523594 C0,2.35719534 0.605635211,3.03157892 1.54020185,3.03157892 L1.55882004,3.03157892 C2.53080441,3.03157892 3.1352911,2.35732186 3.1352911,1.51523594 C3.11697515,0.654519929 2.53080441,0 1.57719644,0 Z M0.165538679,13 L2.95173871,13 L2.95173871,4.22836385 L0.165538679,4.22836385 L0.165538679,13 Z" id="LinkedIn"></path>
            </g>
        </g>
    </g>
</svg>