<?xml version="1.0" encoding="UTF-8" standalone="no"?>
<svg width="64px" height="61px" viewBox="0 0 64 61" version="1.1" xmlns="http://www.w3.org/2000/svg" xmlns:xlink="http://www.w3.org/1999/xlink" xmlns:sketch="http://www.bohemiancoding.com/sketch/ns">
    <!-- Generator: bin/sketchtool 1.4 (305) - http://www.bohemiancoding.com/sketch -->
    <title>manage-icon</title>
    <desc>Created with bin/sketchtool.</desc>
    <defs>
        <linearGradient x1="13.1512232%" y1="107.821906%" x2="100%" y2="9.35251799%" id="linearGradient-1">
            <stop stop-color="#00CDA0" offset="0%"></stop>
            <stop stop-color="#00B6A6" offset="100%"></stop>
        </linearGradient>
    </defs>
    <g id="Sylius" stroke="none" stroke-width="1" fill="none" fill-rule="evenodd" sketch:type="MSPage">
        <g id="sylius_land_v" sketch:type="MSArtboardGroup" transform="translate(-348.000000, -1942.000000)" fill="url(#linearGradient-1)">
            <g id="Group" sketch:type="MSLayerGroup" transform="translate(0.000000, 1729.000000)">
                <g id="b1" transform="translate(331.500000, 213.500000)" sketch:type="MSShapeGroup">
                    <path d="M79.1617964,50.1950593 L72.4792344,38.13246 L72.4792344,23.9350371 C72.4792344,20.8543924 70.0130185,18.3483009 66.9825318,18.3483009 L62.4061418,18.3483009 L62.4061418,11.9156145 L65.4926554,11.9156145 C67.5612611,11.9156145 69.2427133,10.2052097 69.2427133,8.10227666 L69.2427133,3.8134691 C69.2427133,1.7104048 67.5613902,0 65.4926554,0 L52.9264954,0 C50.8578897,0 49.1763084,1.71027357 49.1763084,3.8134691 L49.1763084,8.10227666 C49.1763084,10.2052097 50.8578897,11.9156145 52.9264954,11.9156145 L56.013009,11.9156145 L56.013009,18.3483009 L30.017565,18.3483009 C26.9870783,18.3483009 24.5208624,20.8543924 24.5208624,23.9350371 L24.5208624,38.13246 L17.8383004,50.1950593 C16.7021422,52.2422169 16.7227972,54.7767867 17.888518,56.8078021 C19.055917,58.8389488 21.2182451,60.1 23.5322589,60.1 L73.4678379,60.1 C75.7817226,60.1 77.9441798,58.8389488 79.1115788,56.8078021 C80.2771705,54.7767867 80.2978255,52.2422169 79.1617964,50.1950593 L79.1617964,50.1950593 Z M53.4584927,8.49559233 C53.1605432,8.49559233 52.9156515,8.24781789 52.9156515,7.94308683 L52.9156515,3.73853308 C52.9156515,3.43380201 53.1605432,3.18602757 53.4584927,3.18602757 L65.7776955,3.18602757 C66.0774522,3.18602757 66.3206657,3.43380201 66.3206657,3.73853308 L66.3206657,7.94308683 C66.3206657,8.24781789 66.0775813,8.49559233 65.7776955,8.49559233 L53.4584927,8.49559233 L53.4584927,8.49559233 Z M66.3592649,32.9197477 L31.8788454,32.9197477 L31.8788454,24.359587 L66.3592649,24.359587 L66.3592649,32.9197477 L66.3592649,32.9197477 Z" id="manage-icon"></path>
                </g>
            </g>
        </g>
    </g>
</svg>