<?xml version="1.0" encoding="UTF-8"?>
<svg width="14px" height="11px" viewBox="0 0 14 11" version="1.1" xmlns="http://www.w3.org/2000/svg" xmlns:xlink="http://www.w3.org/1999/xlink">
    <!-- Generator: Sketch 46.2 (44496) - http://www.bohemiancoding.com/sketch -->
    <title>Shape</title>
    <desc>Created with Sketch.</desc>
    <defs></defs>
    <g id="user-journey" stroke="none" stroke-width="1" fill="none" fill-rule="evenodd">
        <g id="Artboard" transform="translate(-47.000000, -69.000000)" fill-rule="nonzero" fill="#FFFFFF">
            <g id="medium-(1)" transform="translate(47.000000, 69.000000)">
                <path d="M1.66013072,2.24397413 C1.67752465,2.07388682 1.61198779,1.90577444 1.48366013,1.79129923 L0.176470586,0.232804228 L0.176470586,0 L4.23529411,0 L7.37254902,6.80952377 L10.130719,0 L14,0 L14,0.232804228 L12.882353,1.29335685 C12.7859995,1.36604639 12.7382033,1.48551681 12.75817,1.6037625 L12.75817,9.39623757 C12.7382033,9.51448325 12.7859995,9.63395358 12.882353,9.70664318 L13.9738562,10.7671958 L13.9738562,11 L8.48366015,11 L8.48366015,10.7671958 L9.61437916,9.68077601 C9.72549016,9.57084065 9.72549016,9.53850675 9.72549016,9.37037039 L9.72549016,3.07172253 L6.58169935,10.9741328 L6.15686275,10.9741328 L2.49673202,3.07172253 L2.49673202,8.36801883 C2.46621518,8.59068997 2.54093801,8.81487115 2.6993464,8.9758966 L4.16993463,10.7413287 L4.16993463,10.9741328 L0,10.9741328 L0,10.7413287 L1.47058824,8.9758966 C1.62784328,8.81460419 1.69820896,8.58893589 1.66013072,8.36801883 L1.66013072,2.24397413 Z" id="Shape"></path>
            </g>
        </g>
    </g>
</svg>