<?xml version="1.0" encoding="UTF-8" standalone="no"?>
<svg width="162px" height="166px" viewBox="0 0 162 166" version="1.1" xmlns="http://www.w3.org/2000/svg" xmlns:xlink="http://www.w3.org/1999/xlink" xmlns:sketch="http://www.bohemiancoding.com/sketch/ns">
    <!-- Generator: bin/sketchtool 1.4 (305) - http://www.bohemiancoding.com/sketch -->
    <title>puzzle-icon</title>
    <desc>Created with bin/sketchtool.</desc>
    <defs>
        <linearGradient x1="89.4444444%" y1="12.5%" x2="5%" y2="86.9444444%" id="linearGradient-1">
            <stop stop-color="#FF631F" stop-opacity="0.95" offset="0%"></stop>
            <stop stop-color="#E31A54" offset="100%"></stop>
        </linearGradient>
    </defs>
    <g id="Sylius" stroke="none" stroke-width="1" fill="none" fill-rule="evenodd" sketch:type="MSPage">
        <g id="sylius_land_v" sketch:type="MSArtboardGroup" transform="translate(-356.000000, -1098.000000)" fill="url(#linearGradient-1)">
            <g id="Rectangle-6-+-Хорошо,-если-этот-сп" sketch:type="MSLayerGroup" transform="translate(0.000000, 640.000000)">
                <g id="puzzle-icon" transform="translate(356.000000, 458.000000)" sketch:type="MSShapeGroup">
                    <path d="M162,50.1624438 C162,44.5290742 157.425157,39.9463874 151.800395,39.9463874 L99.0837317,39.9463874 C97.1624367,39.9463874 95.6056451,41.50569 95.6056451,43.430084 L95.6056451,59.8824217 C95.6056451,61.0812779 96.2205708,62.1965253 97.2352446,62.8338095 C98.2489909,63.4706292 99.5205794,63.5412321 100.596468,63.0191421 C102.129144,62.2778115 103.776366,61.9020368 105.494077,61.9020368 C111.711969,61.9020368 116.771425,66.9691896 116.771425,73.1975746 C116.771425,79.4254951 111.711969,84.4926479 105.494077,84.4926479 C103.77683,84.4926479 102.129144,84.1164086 100.596468,83.3755425 C99.5196519,82.853917 98.2485272,82.9249844 97.2352446,83.5608751 C96.2205708,84.1981594 95.6056451,85.3129423 95.6056451,86.5122629 L95.6056451,99.4990192 L87.3704635,99.4990192 C87.5253542,98.5361255 87.6032634,97.555581 87.6032634,96.5615663 C87.6032634,86.4918252 79.4232674,78.2995643 69.3697421,78.2995643 C59.3148255,78.2995643 51.1362208,86.4922897 51.1362208,96.5615663 C51.1362208,97.555581 51.2141299,98.535661 51.3690207,99.4990192 L39.6501875,99.4990192 C37.7288925,99.4990192 36.1721009,101.058322 36.1721009,102.982716 L36.1721009,155.783944 C36.1721009,161.417313 40.7469442,166 46.3717058,166 L151.801323,166 C157.425157,166 162,161.417313 162,155.783944 L162,50.1624438 L162,50.1624438 Z M43.1282741,155.783944 L43.1282741,106.465948 L56.0760313,106.465948 C57.2724931,106.465948 58.3854808,105.849566 59.0217388,104.834184 C59.6584605,103.818803 59.7280222,102.547022 59.2081642,101.46754 C58.4670999,99.9309976 58.092394,98.2801899 58.092394,96.5606373 C58.092394,90.3327168 63.1509232,85.2660285 69.3697421,85.2660285 C75.5876335,85.2660285 80.6470901,90.3327168 80.6470901,96.5606373 C80.6470901,98.2806544 80.270993,99.9314621 79.53132,101.467076 C79.0105345,102.546557 79.0810237,103.818803 79.7168179,104.83372 C80.3535396,105.849566 81.4655999,106.465948 82.6634529,106.465948 L95.6056451,106.465948 L95.6056451,114.719057 C94.6456932,114.564846 93.6690465,114.486811 92.6780236,114.486811 L92.6761687,114.486811 L92.6724587,114.486811 C82.6184696,114.486811 74.4398649,122.679536 74.4398649,132.748813 C74.4398649,142.819483 82.6189334,151.011744 92.6724587,151.011744 L92.6761687,151.011744 L92.6780236,151.011744 C93.6690465,151.011744 94.6452294,150.933709 95.6056451,150.779497 L95.6056451,159.032607 L46.3717058,159.032607 C44.5830418,159.032607 43.1282741,157.575493 43.1282741,155.783944 L43.1282741,155.783944 Z M155.043827,155.783944 C155.043827,157.575493 153.589059,159.032607 151.801323,159.032607 L102.567383,159.032607 L102.567383,146.063966 C102.567383,144.86511 101.95153,143.750791 100.937784,143.113042 C100.302917,142.714508 99.5692726,142.537536 98.8444394,142.588166 C98.4085192,142.617893 97.9758452,142.730765 97.5709959,142.926781 C96.0383191,143.668111 94.3920247,144.043886 92.6752412,144.044351 C86.4582773,144.042493 81.4002118,138.976269 81.4002118,132.748813 C81.4002118,126.521821 86.4578135,121.455598 92.6752412,121.454204 C94.391561,121.454669 96.0383191,121.830908 97.5709959,122.571774 C98.1098675,122.833283 98.697896,122.945691 99.2775771,122.912712 C99.8572582,122.881126 100.429519,122.704619 100.937784,122.385048 C101.95153,121.747764 102.567383,120.633445 102.567383,119.434125 L102.567383,106.465483 L110.799782,106.465483 C110.646747,107.422803 110.569765,108.395916 110.569765,109.383892 L110.569765,109.392253 L110.569765,109.402007 C110.569765,119.472677 118.748833,127.664938 128.802359,127.664938 C138.856348,127.664938 147.03588,119.472213 147.03588,109.402007 L147.03588,109.383892 C147.03588,108.395916 146.958898,107.422339 146.805863,106.465483 L155.043827,106.465483 L155.043827,155.783944 L155.043827,155.783944 Z M155.043827,99.4804395 L142.09607,99.4804395 C140.899608,99.4804395 139.78662,100.096822 139.150362,101.112668 C138.828987,101.625468 138.653228,102.203297 138.623084,102.789022 C138.59155,103.368709 138.703776,103.957686 138.963473,104.497427 C139.70361,106.032576 140.079243,107.682455 140.079243,109.402936 C140.069041,115.62296 135.014222,120.680359 128.801895,120.680359 C122.587714,120.680359 117.530576,115.618316 117.525474,109.394111 C117.526402,107.677345 117.902499,106.029789 118.640317,104.497892 C118.901406,103.957686 119.013632,103.369638 118.981633,102.789022 C118.951954,102.203297 118.776194,101.625003 118.455283,101.112668 C117.818561,100.096822 116.705574,99.4804395 115.508648,99.4804395 L102.560891,99.4804395 L102.560891,91.2264011 C103.52177,91.3815417 104.500272,91.4595765 105.492686,91.4595765 C115.546675,91.4595765 123.726207,83.2668512 123.726207,73.1971101 C123.726207,63.12644 115.546211,54.9341791 105.492686,54.9341791 C104.499808,54.9341791 103.52177,55.0122139 102.560891,55.1673545 L102.560891,46.9133161 L151.799468,46.9133161 C153.588132,46.9133161 155.042899,48.3708948 155.042899,50.1619793 L155.042899,99.4804395 L155.043827,99.4804395 Z M28.0396379,86.9846714 C27.6755981,86.9846714 27.3097034,86.9275388 26.9572573,86.8118801 C26.0803157,86.524359 25.3540912,85.9000806 24.9367208,85.0760702 L1.10626253,37.9755635 C-0.124516387,35.5416208 -0.336447798,32.7727787 0.511277848,30.1790505 C1.35900349,27.5853223 3.16436232,25.4779181 5.59438551,24.2446895 L52.6181167,0.375794025 C54.3307265,-0.491414177 56.4240709,0.192783832 57.2926651,1.90862052 L62.5895591,12.37829 C63.3774617,11.8046413 64.2145212,11.2918411 65.0993464,10.842212 C67.6824054,9.53187762 70.4504986,8.86718832 73.3289631,8.86718832 C80.2443268,8.86718832 86.4812318,12.703435 89.605481,18.8779388 C94.1506446,27.8603021 90.5519843,38.8715702 81.5840858,43.4236004 C80.6992606,43.8732295 79.7907843,44.2462173 78.8632946,44.5430282 L84.1611161,55.0131622 C85.0297103,56.7294634 84.3442953,58.8257197 82.6312217,59.6952504 L67.9796659,67.1327104 C66.9116614,67.675238 65.6410005,67.6283243 64.6156605,67.0114777 C63.5893931,66.3937022 62.9526714,65.2914606 62.9290204,64.093069 C62.8965582,62.3883801 62.486144,60.7454688 61.7098351,59.2098553 C59.7778739,55.3907949 55.918589,53.0181653 51.639615,53.0181653 C49.863472,53.0181653 48.1522534,53.429706 46.5527973,54.2416395 C43.8663232,55.6053906 41.8699015,57.9352869 40.9336006,60.8030659 C39.9963722,63.6703804 40.2296358,66.7313885 41.5911908,69.4226602 C42.3684272,70.9578092 43.4480253,72.2597827 44.8012329,73.2937439 C45.7523737,74.0206752 46.2638843,75.1870168 46.1544405,76.3807635 C46.0459242,77.5745102 45.3312933,78.6289091 44.2632888,79.1705078 L29.611733,86.6084322 C29.1201634,86.8583294 28.5803644,86.9846714 28.0396379,86.9846714 Z M52.6598537,8.16580407 L8.73811207,30.4600687 C7.9655131,30.8521007 7.39139693,31.5218994 7.1224249,32.3468388 C6.85252538,33.1713136 6.91930464,34.0524566 7.31163281,34.8263017 L29.5695322,78.8193511 L36.9208161,75.0876154 C36.3485549,74.2989065 35.8365806,73.4595678 35.3872118,72.5728509 C33.1853511,68.2214817 32.807399,63.27231 34.3229173,58.6357421 C35.8384356,54.0001032 39.0647087,50.232137 43.4095345,48.0267248 C45.9554939,46.7345056 48.8024238,46.0512366 51.6400787,46.0512366 C58.5545149,46.0512366 64.7914198,49.8870188 67.9156691,56.0615226 C68.3641104,56.948704 68.7369613,57.8581811 69.0332943,58.7871668 L76.3841144,55.0558955 L70.5302628,43.4877004 C69.9895362,42.4179733 70.0359107,41.1447984 70.6526914,40.1173401 C71.2694721,39.0898819 72.3708662,38.4521331 73.567328,38.429373 C75.2683442,38.397323 76.9076824,37.9867113 78.4403592,37.2091502 C83.9862843,34.3938589 86.211796,27.5834643 83.4010382,22.0281295 C81.4681496,18.2081401 77.6088647,15.835046 73.3289631,15.835046 C71.5537477,15.835046 69.8425291,16.2465867 68.2440005,17.0580557 C66.7131786,17.8346878 65.4133017,18.9164917 64.3800781,20.2728109 C63.6538536,21.2259503 62.489854,21.7350345 61.2971021,21.6282011 C60.1062053,21.5190453 59.0535044,20.8032618 58.5127779,19.7339992 L52.6598537,8.16580407 L52.6598537,8.16580407 Z" id="Shape"></path>
                </g>
            </g>
        </g>
    </g>
</svg>