<?xml version="1.0" encoding="UTF-8" standalone="no"?>
<svg width="60px" height="54px" viewBox="0 0 60 54" version="1.1" xmlns="http://www.w3.org/2000/svg" xmlns:xlink="http://www.w3.org/1999/xlink" xmlns:sketch="http://www.bohemiancoding.com/sketch/ns">
    <!-- Generator: bin/sketchtool 1.4 (305) - http://www.bohemiancoding.com/sketch -->
    <title>smm_icon</title>
    <desc>Created with bin/sketchtool.</desc>
    <defs></defs>
    <g id="Adaptive" stroke="none" stroke-width="1" fill="none" fill-rule="evenodd" sketch:type="MSPage">
        <g id="adaptive_land_v" sketch:type="MSArtboardGroup" transform="translate(-351.000000, -2648.000000)">
            <g id="3-Benefits" sketch:type="MSLayerGroup" transform="translate(0.000000, 2161.000000)">
                <g id="b4" transform="translate(293.000000, 487.000000)" sketch:type="MSShapeGroup">
                    <g id="smm_icon" transform="translate(58.000000, 0.000000)">
                        <path d="M0,54 L0,0 L6,0 L6,48 L12,48 L24,48 L30,48 L42,48 L48,48 L60,48 L60,54 L0,54 Z" id="Shape" fill="#4770BC"></path>
                        <path d="M48,0 L60,0 L60,43 L48,43 L48,0 Z M30,19 L42,19 L42,43 L30,43 L30,19 Z M12,33 L24,33 L24,43 L12,43 L12,33 Z" id="Rectangle-8" fill="#E31A54"></path>
                    </g>
                </g>
            </g>
        </g>
    </g>
</svg>