<?xml version="1.0" encoding="UTF-8" standalone="no"?>
<svg width="161px" height="139px" viewBox="0 0 161 139" version="1.1" xmlns="http://www.w3.org/2000/svg" xmlns:xlink="http://www.w3.org/1999/xlink" xmlns:sketch="http://www.bohemiancoding.com/sketch/ns">
    <!-- Generator: bin/sketchtool 1.4 (305) - http://www.bohemiancoding.com/sketch -->
    <title>speed-icon</title>
    <desc>Created with bin/sketchtool.</desc>
    <defs>
        <linearGradient x1="89.4444444%" y1="12.5%" x2="5%" y2="86.9444444%" id="linearGradient-1">
            <stop stop-color="#FF631F" stop-opacity="0.95" offset="0%"></stop>
            <stop stop-color="#E31A54" offset="100%"></stop>
        </linearGradient>
    </defs>
    <g id="Sylius" stroke="none" stroke-width="1" fill="none" fill-rule="evenodd" sketch:type="MSPage">
        <g id="sylius_land_v" sketch:type="MSArtboardGroup" transform="translate(-894.000000, -905.000000)" fill="url(#linearGradient-1)">
            <g id="Rectangle-6-+-Хорошо,-если-этот-сп" sketch:type="MSLayerGroup" transform="translate(0.000000, 640.000000)">
                <g id="speed-icon" transform="translate(894.000000, 265.000000)" sketch:type="MSShapeGroup">
                    <path d="M161,80.7376175 C161,58.6806298 152.132331,38.6645832 137.788551,24.07834 C137.676643,23.9290415 137.557344,23.7829197 137.421682,23.646857 C137.28602,23.5107942 137.140856,23.3911437 136.991997,23.2794346 C122.448682,8.89331475 102.491544,0 80.5,0 C58.5084557,0 38.551318,8.89384417 24.0074754,23.2794346 C23.8586164,23.3916731 23.7134525,23.5113236 23.5777902,23.646857 C23.4421279,23.7829197 23.3228295,23.9285121 23.2109213,24.07834 C8.86766885,38.6645832 0,58.6806298 0,80.7376175 C0,102.30065 8.37147213,122.57188 23.5719836,137.820966 C23.5740951,137.823084 23.5762066,137.825731 23.578318,137.827849 C23.5799016,137.828907 23.5809574,137.830496 23.582541,137.831555 C23.5846525,137.833672 23.5867639,137.83579 23.5888754,137.837908 C24.3616754,138.612989 25.3746557,139 26.3876361,139 C27.4011443,139 28.4146525,138.612459 29.1874525,137.836849 C29.2534361,137.770671 29.3130852,137.700257 29.3732623,137.630372 L41.5733672,125.393726 C43.1194951,123.842505 43.1194951,121.328786 41.5733672,119.778094 C40.0272393,118.227932 37.5203902,118.227932 35.9747902,119.778094 L26.4541475,129.326839 C15.3525377,116.936659 8.91200984,101.342916 8.0262459,84.70832 L21.4905967,84.70832 C23.6770295,84.70832 25.4496131,82.9310336 25.4496131,80.7376175 C25.4496131,78.5442014 23.6770295,76.766915 21.4905967,76.766915 L8.02730164,76.766915 C8.94790492,59.6812469 15.770082,44.1446821 26.4800131,32.1738082 L35.9747902,41.6966117 C36.7475902,42.4716928 37.7610984,42.8592334 38.7740787,42.8592334 C39.787059,42.8592334 40.8005672,42.4716928 41.5733672,41.6966117 C43.1194951,40.1453906 43.1194951,37.6316712 41.5733672,36.0809795 L32.079118,26.5576466 C44.0152885,15.8161022 59.5056,8.97378765 76.5409836,8.05099639 L76.5409836,21.5545615 C76.5409836,23.7479775 78.3135672,25.525264 80.5,25.525264 C82.6864328,25.525264 84.4590164,23.7479775 84.4590164,21.5545615 L84.4590164,8.05099639 C101.4944,8.97378765 116.984711,15.8166316 128.920882,26.558176 L119.426105,36.0809795 C117.879977,37.6322006 117.879977,40.14592 119.426105,41.6966117 C120.198905,42.4716928 121.212413,42.8592334 122.225393,42.8592334 C123.238374,42.8592334 124.251882,42.4716928 125.024682,41.6966117 L134.519459,32.1738082 C145.22939,44.1452115 152.052095,59.6812469 152.97217,76.766915 L139.508348,76.766915 C137.321915,76.766915 135.549331,78.5442014 135.549331,80.7376175 C135.549331,82.9310336 137.321915,84.70832 139.508348,84.70832 L152.972698,84.70832 C152.086934,101.342916 145.646934,116.937189 134.545325,129.327369 L125.024682,119.778094 C123.479082,118.227932 120.972233,118.227932 119.426105,119.778094 C117.879977,121.329315 117.879977,123.843034 119.426105,125.393726 L131.823105,137.827319 C132.595905,138.6024 133.609413,138.989941 134.622393,138.989941 C135.12862,138.989941 135.635374,138.893056 136.112039,138.699285 C136.588705,138.505515 137.035282,138.21486 137.42221,137.827319 C152.626416,122.577704 161,102.302767 161,80.7376175 Z M99.1112222,34.0445664 C97.0675872,33.2247511 94.7493072,34.2185311 93.9312157,36.2646114 L82.4179063,65.0459285 C81.8813657,64.9884723 81.3448252,64.9491041 80.8077535,64.9491041 C75.2001083,64.9491041 70.1348471,68.0597208 67.5876077,73.0669251 C64.9250918,78.3012944 65.6071889,84.5555119 69.410783,89.7957332 C69.7996421,90.3314594 70.2883721,90.8214334 70.8270375,91.213519 C73.9171921,93.4633561 77.3685819,94.652381 80.8077535,94.652381 C86.4153987,94.652381 91.4811911,91.5417643 94.0278992,86.5345599 C96.6904151,81.3001906 96.0083181,75.0465052 92.2073801,69.8100079 C91.818521,69.2726857 91.3287286,68.7811157 90.7884695,68.3874341 C90.4978876,68.1756972 90.2009311,67.9825805 89.9039745,67.7899957 L101.328038,39.2315875 C102.146129,37.1865712 101.153795,34.8638497 99.1112222,34.0445664 Z M86.9269715,82.9121572 C85.7471136,85.2311546 83.4022722,86.6718165 80.8072223,86.6718165 C79.105167,86.6718165 77.391956,86.0765061 75.7132747,84.9018453 C73.8008531,82.1519261 73.4252748,79.170586 74.6880043,76.6887959 C75.8673309,74.3697984 78.2121723,72.9291366 80.8077535,72.9291366 C81.6354071,72.9291366 82.4651856,73.0727772 83.2928392,73.3520783 C83.3199318,73.3632503 83.3448995,73.3776144 83.3725234,73.3887865 C83.4596448,73.4233666 83.5472975,73.4515627 83.6349501,73.4797588 C84.3946065,73.771828 85.1510755,74.1740216 85.9011698,74.6985758 C87.8130602,77.448495 88.1891698,80.4303671 86.9269715,82.9121572 L86.9269715,82.9121572 Z" id="Shape"></path>
                </g>
            </g>
        </g>
    </g>
</svg>