<?xml version="1.0" encoding="UTF-8" standalone="no"?>
<svg width="161px" height="139px" viewBox="0 0 161 139" version="1.1" xmlns="http://www.w3.org/2000/svg" xmlns:xlink="http://www.w3.org/1999/xlink" xmlns:sketch="http://www.bohemiancoding.com/sketch/ns">
    <!-- Generator: bin/sketchtool 1.4 (305) - http://www.bohemiancoding.com/sketch -->
    <title>speed-blue-icon</title>
    <desc>Created with bin/sketchtool.</desc>
    <defs>
        <linearGradient x1="89.4444444%" y1="12.5%" x2="5%" y2="86.9444444%" id="linearGradient-1">
            <stop stop-color="#1F9EFF" stop-opacity="0.95" offset="0%"></stop>
            <stop stop-color="#32BFCE" offset="100%"></stop>
        </linearGradient>
    </defs>
    <g id="Ember" stroke="none" stroke-width="1" fill="none" fill-rule="evenodd" sketch:type="MSPage">
        <g id="ember_land_v" sketch:type="MSArtboardGroup" transform="translate(-894.000000, -836.000000)" fill="url(#linearGradient-1)">
            <g id="Rectangle-6-+-Хорошо,-если-этот-сп" sketch:type="MSLayerGroup" transform="translate(0.000000, 640.000000)">
                <path d="M1055,276.737618 C1055,254.68063 1046.13233,234.664583 1031.78855,220.07834 C1031.67664,219.929042 1031.55734,219.78292 1031.42168,219.646857 C1031.28602,219.510794 1031.14086,219.391144 1030.992,219.279435 C1016.44868,204.893315 996.491544,196 974.5,196 C952.508456,196 932.551318,204.893844 918.007475,219.279435 C917.858616,219.391673 917.713452,219.511324 917.57779,219.646857 C917.442128,219.78292 917.32283,219.928512 917.210921,220.07834 C902.867669,234.664583 894,254.68063 894,276.737618 C894,298.30065 902.371472,318.57188 917.571984,333.820966 C917.574095,333.823084 917.576207,333.825731 917.578318,333.827849 C917.579902,333.828907 917.580957,333.830496 917.582541,333.831555 C917.584652,333.833672 917.586764,333.83579 917.588875,333.837908 C918.361675,334.612989 919.374656,335 920.387636,335 C921.401144,335 922.414652,334.612459 923.187452,333.836849 C923.253436,333.770671 923.313085,333.700257 923.373262,333.630372 L935.573367,321.393726 C937.119495,319.842505 937.119495,317.328786 935.573367,315.778094 C934.027239,314.227932 931.52039,314.227932 929.97479,315.778094 L920.454148,325.326839 C909.352538,312.936659 902.91201,297.342916 902.026246,280.70832 L915.490597,280.70832 C917.67703,280.70832 919.449613,278.931034 919.449613,276.737618 C919.449613,274.544201 917.67703,272.766915 915.490597,272.766915 L902.027302,272.766915 C902.947905,255.681247 909.770082,240.144682 920.480013,228.173808 L929.97479,237.696612 C930.74759,238.471693 931.761098,238.859233 932.774079,238.859233 C933.787059,238.859233 934.800567,238.471693 935.573367,237.696612 C937.119495,236.145391 937.119495,233.631671 935.573367,232.080979 L926.079118,222.557647 C938.015289,211.816102 953.5056,204.973788 970.540984,204.050996 L970.540984,217.554561 C970.540984,219.747978 972.313567,221.525264 974.5,221.525264 C976.686433,221.525264 978.459016,219.747978 978.459016,217.554561 L978.459016,204.050996 C995.4944,204.973788 1010.98471,211.816632 1022.92088,222.558176 L1013.4261,232.080979 C1011.87998,233.632201 1011.87998,236.14592 1013.4261,237.696612 C1014.1989,238.471693 1015.21241,238.859233 1016.22539,238.859233 C1017.23837,238.859233 1018.25188,238.471693 1019.02468,237.696612 L1028.51946,228.173808 C1039.22939,240.145212 1046.0521,255.681247 1046.97217,272.766915 L1033.50835,272.766915 C1031.32191,272.766915 1029.54933,274.544201 1029.54933,276.737618 C1029.54933,278.931034 1031.32191,280.70832 1033.50835,280.70832 L1046.9727,280.70832 C1046.08693,297.342916 1039.64693,312.937189 1028.54532,325.327369 L1019.02468,315.778094 C1017.47908,314.227932 1014.97223,314.227932 1013.4261,315.778094 C1011.87998,317.329315 1011.87998,319.843034 1013.4261,321.393726 L1025.8231,333.827319 C1026.5959,334.6024 1027.60941,334.989941 1028.62239,334.989941 C1029.12862,334.989941 1029.63537,334.893056 1030.11204,334.699285 C1030.5887,334.505515 1031.03528,334.21486 1031.42221,333.827319 C1046.62642,318.577704 1055,298.302767 1055,276.737618 Z M993.111222,230.044566 C991.067587,229.224751 988.749307,230.218531 987.931216,232.264611 L976.417906,261.045929 C975.881366,260.988472 975.344825,260.949104 974.807753,260.949104 C969.200108,260.949104 964.134847,264.059721 961.587608,269.066925 C958.925092,274.301294 959.607189,280.555512 963.410783,285.795733 C963.799642,286.331459 964.288372,286.821433 964.827037,287.213519 C967.917192,289.463356 971.368582,290.652381 974.807753,290.652381 C980.415399,290.652381 985.481191,287.541764 988.027899,282.53456 C990.690415,277.300191 990.008318,271.046505 986.20738,265.810008 C985.818521,265.272686 985.328729,264.781116 984.788469,264.387434 C984.497888,264.175697 984.200931,263.98258 983.903974,263.789996 L995.328038,235.231587 C996.146129,233.186571 995.153795,230.86385 993.111222,230.044566 Z M980.926971,278.912157 C979.747114,281.231155 977.402272,282.671816 974.807222,282.671816 C973.105167,282.671816 971.391956,282.076506 969.713275,280.901845 C967.800853,278.151926 967.425275,275.170586 968.688004,272.688796 C969.867331,270.369798 972.212172,268.929137 974.807753,268.929137 C975.635407,268.929137 976.465186,269.072777 977.292839,269.352078 C977.319932,269.36325 977.3449,269.377614 977.372523,269.388786 C977.459645,269.423367 977.547297,269.451563 977.63495,269.479759 C978.394607,269.771828 979.151076,270.174022 979.90117,270.698576 C981.81306,273.448495 982.18917,276.430367 980.926971,278.912157 L980.926971,278.912157 Z" id="speed-blue-icon" sketch:type="MSShapeGroup"></path>
            </g>
        </g>
    </g>
</svg>