<?xml version="1.0" encoding="UTF-8" standalone="no"?>
<svg width="52px" height="11px" viewBox="0 0 52 11" version="1.1" xmlns="http://www.w3.org/2000/svg" xmlns:xlink="http://www.w3.org/1999/xlink" xmlns:sketch="http://www.bohemiancoding.com/sketch/ns">
    <!-- Generator: bin/sketchtool 1.4 (305) - http://www.bohemiancoding.com/sketch -->
    <title>stars-icon</title>
    <desc>Created with bin/sketchtool.</desc>
    <defs></defs>
    <g id="Mobile-Design" stroke="none" stroke-width="1" fill="none" fill-rule="evenodd" sketch:type="MSPage">
        <g id="mob_design_land_v" sketch:type="MSArtboardGroup" transform="translate(-694.000000, -1656.000000)" fill="#89E0E9">
            <g id="Hint" sketch:type="MSLayerGroup" transform="translate(0.000000, 1562.000000)">
                <path d="M699.706339,102.1 L696.179628,104.854102 L697.70912,100.648936 L694,98.145898 L698.47199,98.3010643 L699.706339,94 L700.940688,98.3010643 L705.412678,98.145898 L701.703558,100.648936 L703.233051,104.854102 L699.706339,102.1 Z M719.706339,102.1 L716.179628,104.854102 L717.70912,100.648936 L714,98.145898 L718.47199,98.3010643 L719.706339,94 L720.940688,98.3010643 L725.412678,98.145898 L721.703558,100.648936 L723.233051,104.854102 L719.706339,102.1 Z M739.706339,102.1 L736.179628,104.854102 L737.70912,100.648936 L734,98.145898 L738.47199,98.3010643 L739.706339,94 L740.940688,98.3010643 L745.412678,98.145898 L741.703558,100.648936 L743.233051,104.854102 L739.706339,102.1 Z" id="stars-icon" sketch:type="MSShapeGroup"></path>
            </g>
        </g>
    </g>
</svg>