<?xml version="1.0" encoding="UTF-8" standalone="no"?>
<svg width="186px" height="38px" viewBox="0 0 186 38" version="1.1" xmlns="http://www.w3.org/2000/svg" xmlns:xlink="http://www.w3.org/1999/xlink" xmlns:sketch="http://www.bohemiancoding.com/sketch/ns">
    <!-- Generator: bin/sketchtool 1.4 (305) - http://www.bohemiancoding.com/sketch -->
    <title>stfalcon_logo</title>
    <desc>Created with bin/sketchtool.</desc>
    <defs></defs>
    <g id="Adaptive" stroke="none" stroke-width="1" fill="none" fill-rule="evenodd" sketch:type="MSPage">
        <g id="adaptive_land_v" sketch:type="MSArtboardGroup" transform="translate(-24.000000, -12.000000)" fill="#FFFFFF">
            <g id="Header" sketch:type="MSLayerGroup">
                <g id="stfalcon_logo" transform="translate(24.000000, 12.000000)" sketch:type="MSShapeGroup">
                    <path d="M142.35548,16.5737 C140.817184,16.5737 139.138439,17.3299 137.543204,18.70265 C136.898847,17.30235 135.6405,16.5737 134.073735,16.5737 C132.42251,16.5737 130.911735,17.38595 129.568929,18.47845 L129.26051,16.91 L126.826378,16.91 L126.826378,30.15965 L129.735949,30.15965 L129.735949,20.66345 C130.771286,19.79515 131.974592,19.12255 133.177898,19.12255 C134.913582,19.12255 135.248571,20.4953 135.248571,22.17585 L135.248571,30.15965 L138.158143,30.15965 L138.158143,21.27905 C138.158143,21.05485 138.158143,20.8316 138.130622,20.66345 C139.19348,19.79515 140.397735,19.12255 141.572571,19.12255 C143.335776,19.12255 143.671714,20.46775 143.671714,22.14735 L143.671714,30.15965 L146.581286,30.15965 L146.581286,21.33605 C146.581286,17.8904 144.622592,16.5737 142.35548,16.5737 L142.35548,16.5737 Z M118.037878,28.05825 C115.826755,28.05825 114.568408,26.1535 114.568408,23.49255 C114.568408,20.8601 115.826755,18.9544 118.037878,18.9544 C120.248051,18.9544 121.479827,20.8601 121.479827,23.49255 C121.479827,26.1535 120.248051,28.05825 118.037878,28.05825 L118.037878,28.05825 Z M118.037878,16.5737 C114.148959,16.5737 111.574378,19.5434 111.574378,23.49255 C111.574378,27.44265 114.17648,30.43895 118.037878,30.43895 C121.899276,30.43895 124.473857,27.44265 124.473857,23.49255 C124.473857,19.5434 121.899276,16.5737 118.037878,16.5737 L118.037878,16.5737 Z M106.498286,28.05825 C104.092622,28.05825 102.525857,26.43375 102.525857,23.5486 C102.525857,20.91615 104.092622,18.9544 106.667204,18.9544 C107.953071,18.9544 108.961837,19.3192 109.884245,19.9348 L109.884245,17.442 C109.128857,16.99455 107.953071,16.5737 106.387255,16.5737 C102.412929,16.5737 99.5308776,19.59945 99.5308776,23.6322 C99.5308776,27.44265 101.8815,30.43895 106.107306,30.43895 C107.842041,30.43895 109.463847,29.8794 110.472612,29.1783 L109.632765,27.1624 C108.709408,27.6659 107.786051,28.05825 106.498286,28.05825 L106.498286,28.05825 Z M95.6315204,26.9097 C94.6806429,26.9097 93.9527755,27.6659 93.9527755,28.6463 C93.9527755,29.6267 94.6806429,30.4114 95.6315204,30.4114 C96.5558265,30.4114 97.3102653,29.6267 97.3102653,28.6463 C97.3102653,27.6659 96.5558265,26.9097 95.6315204,26.9097 L95.6315204,26.9097 Z M86.5184694,16.5737 C84.8672449,16.5737 83.3564694,17.3299 81.9576735,18.47845 L81.6502041,16.91 L79.187602,16.91 L79.187602,30.15965 L82.0971735,30.15965 L82.0971735,20.7195 C83.1609796,19.82365 84.3633367,19.12255 85.5951122,19.12255 C87.3583163,19.12255 87.7492959,20.5238 87.7492959,22.2604 L87.7492959,30.15965 L90.6598163,30.15965 L90.6598163,21.33605 C90.6598163,17.6947 88.6166633,16.5737 86.5184694,16.5737 L86.5184694,16.5737 Z M70.399102,28.05825 C68.1879796,28.05825 66.9286837,26.1535 66.9286837,23.49255 C66.9286837,20.8601 68.1879796,18.9544 70.399102,18.9544 C72.6092755,18.9544 73.841051,20.8601 73.841051,23.49255 C73.841051,26.1535 72.6092755,28.05825 70.399102,28.05825 L70.399102,28.05825 Z M70.399102,16.5737 C66.5092347,16.5737 63.935602,19.5434 63.935602,23.49255 C63.935602,27.44265 66.5377041,30.43895 70.399102,30.43895 C74.259551,30.43895 76.8341327,27.44265 76.8341327,23.49255 C76.8341327,19.5434 74.259551,16.5737 70.399102,16.5737 L70.399102,16.5737 Z M58.6289082,28.05825 C56.2232449,28.05825 54.6555306,26.43375 54.6555306,23.5486 C54.6555306,20.91615 56.2232449,18.9544 58.7968776,18.9544 C60.0836939,18.9544 61.0915102,19.3192 62.0148673,19.9348 L62.0148673,17.442 C61.2594796,16.99455 60.0836939,16.5737 58.5169286,16.5737 C54.543551,16.5737 51.6615,19.59945 51.6615,23.6322 C51.6615,27.44265 54.0121224,30.43895 58.2369796,30.43895 C59.9717143,30.43895 61.5954184,29.8794 62.6022857,29.1783 L61.7624388,27.1624 C60.8390816,27.6659 59.9157245,28.05825 58.6289082,28.05825 L58.6289082,28.05825 Z M49.1808673,27.80745 C48.5365102,27.80745 48.2015204,27.5272 48.2015204,26.54585 L48.2015204,10.32745 L45.291,10.32745 L45.291,27.3581 C45.291,29.29135 46.2988163,30.35535 48.3410204,30.35535 C49.0404184,30.35535 49.9077857,30.2157 50.6081327,29.90695 L50.0197653,27.63835 C49.7682857,27.7229 49.3763571,27.80745 49.1808673,27.80745 L49.1808673,27.80745 Z M39.2668776,26.85365 C38.735449,27.33055 37.7285816,28.11525 36.3848265,28.11525 C35.0704898,28.11525 34.2306429,27.33055 34.2306429,26.0699 C34.2306429,25.3137 34.5381122,24.7247 35.154,24.38935 C35.6579082,24.1091 36.3288367,23.9685 37.2806633,23.94095 L39.2668776,23.8564 L39.2668776,26.85365 L39.2668776,26.85365 Z M42.177398,21.30755 C42.177398,18.0861 40.3306837,16.5737 37.0567041,16.5737 C35.3219694,16.5737 33.6432245,16.99455 32.0755102,17.8904 L33.0833265,19.82365 C34.0066837,19.29165 35.2099898,18.8423 36.6087857,18.8423 C38.1765,18.8423 39.2668776,19.5719 39.2668776,21.30755 L39.2668776,21.86805 L36.8887347,21.95165 C35.5449796,22.00865 34.4261327,22.17585 33.5027755,22.65275 C32.1599694,23.3244 31.292602,24.47295 31.292602,26.2371 C31.292602,28.7869 33.1117959,30.43895 35.6019184,30.43895 C37.2521939,30.43895 38.4839694,29.73975 39.4623673,28.81445 L39.9387551,30.15965 L42.4288776,30.15965 C42.2333878,29.4595 42.177398,28.31095 42.177398,26.4062 L42.177398,21.30755 L42.177398,21.30755 Z M28.5120918,12.8478 C29.0435204,12.8478 29.575898,12.9884 30.1073265,13.1841 L30.6947449,10.85945 C29.8833673,10.4956 28.9600102,10.32745 28.1486327,10.32745 C25.7420204,10.32745 23.8953061,11.75625 23.8953061,14.92165 L23.8953061,16.91 L21.992602,16.91 L21.992602,19.2071 L23.8953061,19.2071 L23.8953061,30.15965 L26.8058265,30.15965 L26.8058265,19.2071 L29.4914388,19.2071 L30.2193061,16.91 L26.8058265,16.91 L26.8058265,14.86465 C26.8058265,13.57645 27.3372551,12.8478 28.5120918,12.8478 L28.5120918,12.8478 Z M17.6671531,28.05825 C16.7997857,28.05825 16.3518673,27.5823 16.3518673,26.37865 L16.3518673,19.2071 L19.5983265,19.2071 L20.3252449,16.91 L16.3518673,16.91 L16.3518673,12.9599 L13.4422959,13.8567 L13.4422959,16.91 L11.1191939,16.91 L11.1191939,19.2071 L13.4422959,19.2071 L13.4422959,27.0218 C13.4422959,29.1783 14.7575816,30.43895 16.9677551,30.43895 C18.2830408,30.43895 19.7378265,30.04755 20.6611837,29.4025 L19.7378265,27.38565 C19.206398,27.75045 18.4785306,28.05825 17.6671531,28.05825 L17.6671531,28.05825 Z M3.55392857,20.2996 C3.55392857,19.26315 4.47728571,18.8993 5.65307143,18.8993 C7.02339796,18.8993 8.17071429,19.26315 9.20605102,19.71155 L9.20605102,17.21875 C8.19918367,16.82545 6.93893878,16.5737 5.54014286,16.5737 C2.49107143,16.5737 0.699397959,18.2267 0.699397959,20.46775 C0.699397959,24.8653 6.91141837,23.997 6.91141837,26.4613 C6.91141837,27.63835 5.82009184,28.11525 4.42129592,28.11525 C3.0225,28.11525 1.8182449,27.63835 0.895836735,27.0503 L0,29.2068 C1.00781633,29.8224 2.60210204,30.43895 4.56079592,30.43895 C7.35933673,30.43895 9.79346939,29.2353 9.79346939,26.4062 C9.79346939,21.812 3.55392857,22.70785 3.55392857,20.2996 L3.55392857,20.2996 Z" id="Fill-1"></path>
                    <path d="M163.442755,29.5564 L158.156939,17.3983 L146.999786,3.9007 L146.574643,0.85025 L167.82799,13.6838 L175.924684,24.37795 L168.95348,13.2335 L169.628204,11.65745 L168.95348,5.6905 L181.2105,19.42465 L179.298306,23.5904 L182.44702,23.4783 L185.483755,26.0661 L183.796469,26.51735 L179.748122,30.00765 L177.162153,30.7952 L170.077071,33.49795 L161.080745,34.17245 L157.932031,35.7485 L156.582582,35.2982 L150.734969,38 L149.610429,37.5497 L163.442755,29.5564" id="Fill-4"></path>
                </g>
            </g>
        </g>
    </g>
</svg>