<?xml version="1.0" encoding="UTF-8" standalone="no"?>
<svg width="60px" height="60px" viewBox="0 0 60 60" version="1.1" xmlns="http://www.w3.org/2000/svg" xmlns:xlink="http://www.w3.org/1999/xlink" xmlns:sketch="http://www.bohemiancoding.com/sketch/ns">
    <!-- Generator: bin/sketchtool 1.4 (305) - http://www.bohemiancoding.com/sketch -->
    <title>time_icon</title>
    <desc>Created with bin/sketchtool.</desc>
    <defs></defs>
    <g id="Adaptive" stroke="none" stroke-width="1" fill="none" fill-rule="evenodd" sketch:type="MSPage">
        <g id="adaptive_land_v" sketch:type="MSArtboardGroup" transform="translate(-1030.000000, -2411.000000)">
            <g id="3-Benefits" sketch:type="MSLayerGroup" transform="translate(0.000000, 2161.000000)">
                <g id="b3" transform="translate(972.000000, 250.000000)" sketch:type="MSShapeGroup">
                    <g id="time_icon" transform="translate(58.000000, 0.000000)">
                        <path d="M30,54 C43.254834,54 54,43.254834 54,30 C54,16.745166 43.254834,6 30,6 C16.745166,6 6,16.745166 6,30 C6,43.254834 16.745166,54 30,54 L30,54 Z M30,1.33226763e-15 C37.9564947,6.66133815e-16 45.5871121,3.16070521 51.2132034,8.78679656 C56.8392948,14.4128879 60,22.0435053 60,30 C60,46.5685425 46.5685425,60 30,60 C13.41,60 0,46.5 0,30 C-2.66453526e-15,13.4314575 13.4314575,3.99680289e-15 30,0 L30,1.33226763e-15 Z" id="Shape" fill="#4770BC"></path>
                        <path d="M31.5,15 L31.5,30.75 L45,38.76 L42.75,42.45 L27,33 L27,15 L31.5,15 L31.5,15 Z" id="Path" fill="#E31A54"></path>
                    </g>
                </g>
            </g>
        </g>
    </g>
</svg>