<?xml version="1.0" encoding="UTF-8" standalone="no"?>
<svg width="86px" height="86px" viewBox="0 0 86 86" version="1.1" xmlns="http://www.w3.org/2000/svg" xmlns:xlink="http://www.w3.org/1999/xlink" xmlns:sketch="http://www.bohemiancoding.com/sketch/ns">
    <!-- Generator: bin/sketchtool 1.4 (305) - http://www.bohemiancoding.com/sketch -->
    <title>tools_icon</title>
    <desc>Created with bin/sketchtool.</desc>
    <defs>
        <linearGradient x1="89.4444444%" y1="12.5%" x2="5%" y2="86.9444444%" id="linearGradient-1">
            <stop stop-color="#FF631F" stop-opacity="0.95" offset="0%"></stop>
            <stop stop-color="#E31A54" offset="100%"></stop>
        </linearGradient>
    </defs>
    <g id="Adaptive" stroke="none" stroke-width="1" fill="none" fill-rule="evenodd" sketch:type="MSPage">
        <g id="adaptive_land_v" sketch:type="MSArtboardGroup" transform="translate(-772.000000, -1664.000000)" fill="url(#linearGradient-1)">
            <g id="2" sketch:type="MSLayerGroup" transform="translate(0.000000, 1226.000000)">
                <g id="support" transform="translate(772.000000, 436.000000)" sketch:type="MSShapeGroup">
                    <g id="tools_icon" transform="translate(0.000000, 2.000000)">
                        <path d="M43,83 L43,83 C65.09139,83 83,65.09139 83,43 C83,20.90861 65.09139,3 43,3 C20.90861,3 3,20.90861 3,43 C3,65.09139 20.90861,83 43,83 L43,83 Z M43,86 L43,86 C19.2517558,86 0,66.7482442 0,43 C0,19.2517558 19.2517558,0 43,0 C66.7482442,0 86,19.2517558 86,43 C86,66.7482442 66.7482442,86 43,86 L43,86 Z" id="Shape"></path>
                        <path d="M50.8294839,45.0899598 C50.5472854,44.8077683 50.1720486,44.6523954 49.7729489,44.6523954 C49.3738493,44.6523954 48.9986125,44.8077683 48.716414,45.0899598 L47.4189715,46.3873704 L45.5161093,44.4845551 L51.3472275,38.6538489 C52.2877997,39.058301 53.3090765,39.2722571 54.3633324,39.2722571 L54.3634665,39.2722571 C56.4076289,39.2722571 58.3284552,38.4748818 59.7716221,37.0273266 C61.7415148,35.0513159 62.4765714,32.1588866 61.6897672,29.4786707 C61.6440524,29.3227616 61.5192416,29.2025118 61.361854,29.1624286 C61.2044663,29.1222112 61.0374263,29.1683271 60.9226701,29.2834827 L56.113365,34.1072815 C55.8247316,33.9902491 55.0975846,33.5911592 53.7518801,32.2495096 C52.4061755,30.90786 52.0045287,30.1819375 51.886421,29.8935793 L56.6954579,25.0695125 C56.8102142,24.9543569 56.8556608,24.787321 56.8151744,24.6299372 C56.7745539,24.4725534 56.6540331,24.3481479 56.497852,24.3028364 C55.8046224,24.1018839 55.0863235,24 54.3627961,24 C52.3184996,24 50.3980755,24.7971072 48.9551767,26.2446624 C46.6904839,28.5164044 46.1573232,31.8681154 47.3489916,34.6506174 L41.5153263,40.4840048 L35.5445165,34.5133423 C35.5392881,34.5031539 35.5356684,34.4926974 35.5299038,34.4826431 L32.8006895,29.8038947 C32.7535001,29.7230579 32.6894189,29.6537501 32.6126019,29.6003951 L28.0086783,26.4060679 C27.7540964,26.2293798 27.4098277,26.2604812 27.1909061,26.4793974 L25.1397725,28.5304805 C24.9207167,28.7493967 24.8898827,29.093791 25.0664411,29.3482326 L28.2608471,33.9520426 C28.3142034,34.0288577 28.3835129,34.0930713 28.4643517,34.1401256 L33.1433495,36.8692726 C33.1536722,36.8753052 33.1645312,36.8797291 33.175122,36.8850914 L39.1445911,42.8544133 L34.6524744,47.3464192 C33.7119023,46.9419671 32.6907595,46.728011 31.6365036,46.728011 C29.592073,46.728011 27.6713808,47.5252522 26.2282139,48.9729415 C24.2583212,50.9489522 23.5233987,53.8415156 24.3103369,56.5213293 C24.3560517,56.6772384 24.4807285,56.7974882 24.6382502,56.8375714 C24.7956378,56.8775206 24.9626778,56.8316729 25.0774341,56.7165173 L29.8867392,51.8925845 C30.1753726,52.0097509 30.9023855,52.4091089 32.2479559,53.7503563 C33.5939286,55.09214 33.9955754,55.8179285 34.1135491,56.1062866 L29.3045122,60.9303535 C29.1897559,61.0455091 29.1443092,61.212545 29.1847957,61.3699287 C29.2254162,61.5273125 29.345937,61.6517181 29.5021181,61.6968955 C30.1952136,61.8979821 30.9135125,62 31.6371739,62 C33.6812023,62 35.6017605,61.2027588 37.0446593,59.7552036 C38.4847428,58.3105976 39.276105,56.3918295 39.2730216,54.3520073 C39.2714129,53.3008608 39.0573174,52.2830946 38.6540619,51.3458971 L43.1453742,46.8548296 L45.0482364,48.7576448 L43.7509279,50.0549213 C43.4687294,50.3372469 43.3132186,50.7124744 43.3132186,51.1115642 C43.3132186,51.5107881 43.4685953,51.8858816 43.7507938,52.1680731 L52.9157415,61.3326607 C53.1979399,61.6148522 53.5730427,61.7702251 53.9721423,61.7702251 C54.371242,61.7702251 54.7464788,61.6148522 55.0288113,61.3326607 L59.9938953,56.3675651 C60.2762278,56.0853736 60.4317386,55.7101461 60.4317386,55.3109222 C60.4317386,54.9118324 60.2763619,54.5366048 59.9941634,54.2544133 L50.8294839,45.0899598 L50.8294839,45.0899598 Z M54.0734925,58.0726452 C53.7467858,58.3994779 53.2173788,58.3994779 52.8909402,58.0726452 L47.0111578,52.1931419 C46.6845852,51.8667114 46.6845852,51.3373174 47.0111578,51.0106188 C47.3377305,50.6840542 47.8671375,50.6840542 48.1937101,51.0108869 L54.0733584,56.8902561 C54.399931,57.2166867 54.4000651,57.7462146 54.0734925,58.0726452 L54.0734925,58.0726452 Z M56.7340675,55.4121358 C56.4076289,55.7387003 55.8779538,55.7387003 55.5515152,55.4121358 L49.672001,49.5324984 C49.3454283,49.2060679 49.3454283,48.6765399 49.6718669,48.3501094 C49.9984396,48.0235448 50.5279806,48.0235448 50.8544192,48.3501094 L56.7340675,54.2297467 C57.0605061,54.5563113 57.0605061,55.0857052 56.7340675,55.4121358 L56.7340675,55.4121358 Z" id="Shape"></path>
                    </g>
                </g>
            </g>
        </g>
    </g>
</svg>