<?xml version="1.0" encoding="UTF-8" standalone="no"?>
<svg width="14px" height="12px" viewBox="0 0 14 12" version="1.1" xmlns="http://www.w3.org/2000/svg" xmlns:xlink="http://www.w3.org/1999/xlink" xmlns:sketch="http://www.bohemiancoding.com/sketch/ns">
    <!-- Generator: bin/sketchtool 1.4 (305) - http://www.bohemiancoding.com/sketch -->
    <title>twitter_icon</title>
    <desc>Created with bin/sketchtool.</desc>
    <defs></defs>
    <g id="Adaptive" stroke="none" stroke-width="1" fill="none" fill-rule="evenodd" sketch:type="MSPage">
        <g id="adaptive_land_v" sketch:type="MSArtboardGroup" transform="translate(-1316.000000, -28.000000)" fill-opacity="0.6" fill="#FFFFFF">
            <g id="Header" sketch:type="MSLayerGroup">
                <g id="social" transform="translate(1279.000000, 27.000000)" sketch:type="MSShapeGroup">
                    <path d="M40.0075714,3.83686445 C42.2202846,4.94464964 44.0902824,4.88073896 44.0902824,4.88073896 C44.0902824,4.88073896 43.3813547,2.43082921 45.5725855,1.34434775 C47.763816,0.257866118 49.2716975,2.08963898 49.2716975,2.08963898 C49.2716975,2.08963898 49.6538575,1.98560687 49.9386042,1.88157476 C50.2233509,1.77754265 50.6354843,1.59177102 50.6354843,1.59177102 L49.9602657,2.78695066 L51,2.67765741 C51,2.67765741 50.8718499,2.86346604 50.455731,3.24192235 C50.039612,3.62037865 49.868109,3.81589375 49.868109,3.81589375 C49.868109,3.81589375 50.0167578,6.76484718 48.4502539,9.03526631 C46.8837498,11.3056853 44.8597348,12.6683318 41.9195275,12.9551216 C38.9793201,13.2419114 37.064448,12.060372 37.064448,12.060372 C37.064448,12.060372 38.3503459,11.9875969 39.1697479,11.6769079 C39.98915,11.366219 41.1676346,10.5478192 41.1676346,10.5478192 C41.1676346,10.5478192 39.4919877,10.0365337 38.8904734,9.46133754 C38.2889592,8.88614138 38.1385806,8.5452844 38.1385806,8.5452844 L39.7927449,8.52398084 C39.7927449,8.52398084 38.05265,7.6079277 37.558549,6.88360661 C37.0644479,6.15928554 37,5.45626799 37,5.45626799 L38.2717365,5.96553745 C38.2717365,5.96553745 37.2148266,4.54021484 37.064448,3.43242965 C36.9140694,2.32464445 37.2577918,1.72814473 37.2577918,1.72814473 C37.2577918,1.72814473 37.7948582,2.72907924 40.0075714,3.83686445 Z" id="twitter_icon"></path>
                </g>
            </g>
        </g>
    </g>
</svg>