<?xml version="1.0" encoding="UTF-8" standalone="no"?>
<svg width="138px" height="125px" viewBox="0 0 138 125" version="1.1" xmlns="http://www.w3.org/2000/svg" xmlns:xlink="http://www.w3.org/1999/xlink" xmlns:sketch="http://www.bohemiancoding.com/sketch/ns">
    <!-- Generator: bin/sketchtool 1.4 (305) - http://www.bohemiancoding.com/sketch -->
    <title>window-code-icon</title>
    <desc>Created with bin/sketchtool.</desc>
    <defs>
        <linearGradient x1="89.4444444%" y1="12.5%" x2="5%" y2="86.9444444%" id="linearGradient-1">
            <stop stop-color="#1F9EFF" stop-opacity="0.95" offset="0%"></stop>
            <stop stop-color="#32BFCE" offset="100%"></stop>
        </linearGradient>
    </defs>
    <g id="Ember" stroke="none" stroke-width="1" fill="none" fill-rule="evenodd" sketch:type="MSPage">
        <g id="ember_land_v" sketch:type="MSArtboardGroup" transform="translate(-380.000000, -1055.000000)" fill="url(#linearGradient-1)">
            <g id="Rectangle-6-+-Хорошо,-если-этот-сп" sketch:type="MSLayerGroup" transform="translate(0.000000, 640.000000)">
                <path d="M509.708071,415 L388.292984,415 C383.719316,415 380,418.709481 380,423.269059 L380,531.731292 C380,536.29087 383.719316,540 388.292984,540 L509.708423,540 C514.280684,540 518,536.29087 518,531.731292 L518,423.269059 C518.001055,418.709832 514.280332,415 509.708071,415 L509.708071,415 Z M485,423.872488 C485,422.286233 486.343191,421 487.99977,421 L491.00023,421 C492.657843,421 494,422.285903 494,423.872488 L494,427.127842 C494,428.714097 492.656809,430 491.00023,430 L487.99977,430 C486.343191,430 485,428.714097 485,427.127842 L485,423.872488 L485,423.872488 Z M470,423.872488 C470,422.286233 471.343778,421 473.00023,421 L475.99977,421 C477.656222,421 479,422.285903 479,423.872488 L479,427.127842 C479,428.714097 477.656222,430 475.99977,430 L473.00023,430 C471.343778,430 470,428.714097 470,427.127842 L470,423.872488 L470,423.872488 Z M510,532 L388,532 L388,437 L510,437 L510,532 L510,532 L510,532 Z M509,427.127842 C509,428.714097 507.65686,430 506.000345,430 L503,430 C501.342105,430 500,428.714097 500,427.127842 L500,423.872488 C500,422.286233 501.34314,421 503,421 L506.000345,421 C507.657205,421 509,422.285903 509,423.872488 L509,427.127842 Z M421.618931,489.111172 L436.021507,495.742748 C436.393877,495.913421 436.790219,496 437.200032,496 C437.733816,496 438.25413,495.849899 438.706407,495.565068 C439.516216,495.0526 440,494.179346 440,493.229007 L440,493.156217 C440,492.081999 439.364163,491.095491 438.379927,490.642927 L429.372039,486.49887 L438.379927,482.35436 C439.364163,481.901344 440,480.915062 440,479.841297 L440,479.769185 C440,478.81749 439.516216,477.943783 438.706407,477.433123 C438.258696,477.149875 437.737012,477 437.198434,477 C436.792274,477 436.384973,477.088388 436.020365,477.256121 L421.618703,483.88702 C420.635381,484.340036 420,485.32677 420,486.400083 L420,486.598334 C419.999772,487.670065 420.634696,488.656347 421.618931,489.111172 Z M441.56809,504.753009 C442.122696,505.53368 443.014741,506 443.954268,506 L444.030433,506 C445.320416,506 446.450597,505.150658 446.843714,503.888545 L456.859637,471.967315 C457.146943,471.046079 456.987623,470.029149 456.432777,469.246991 C455.878171,468.466072 454.986126,468 454.046357,468 L453.970433,468 C452.679969,468 451.548583,468.849094 451.155466,470.111208 L441.138578,502.034916 C440.853442,502.957392 441.013966,503.972834 441.56809,504.753009 Z M458,479.841071 C458,480.913706 458.635366,481.900214 459.619808,482.355491 L468.62749,486.49887 L459.619808,490.642475 C458.635823,491.095491 458,492.081999 458,493.155764 L458,493.228554 C458,494.17912 458.483317,495.052374 459.29402,495.565068 C459.744689,495.849447 460.265219,496 460.799676,496 C461.209023,496 461.605128,495.913421 461.980001,495.741844 L476.381334,489.110494 C477.364634,488.656347 478,487.670065 478,486.597882 L478,486.399631 C478,485.326318 477.364634,484.339584 476.380421,483.886568 L461.979087,477.255669 C461.615858,477.088388 461.209023,477 460.802872,477 C460.265219,477 459.742863,477.149423 459.295161,477.432219 C458.484458,477.943783 458.000685,478.817264 458.000685,479.768959 L458.000685,479.840845 L458,479.840845 L458,479.841071 Z" id="window-code-icon" sketch:type="MSShapeGroup"></path>
            </g>
        </g>
    </g>
</svg>