<?xml version="1.0" encoding="UTF-8"?>
<svg width="28px" height="28px" viewBox="0 0 28 28" version="1.1" xmlns="http://www.w3.org/2000/svg" xmlns:xlink="http://www.w3.org/1999/xlink">
    <!-- Generator: Sketch 50 (54983) - http://www.bohemiancoding.com/sketch -->
    <title>ic_block</title>
    <desc>Created with Sketch.</desc>
    <defs></defs>
    <g id="industrial-landings" stroke="none" stroke-width="1" fill="none" fill-rule="evenodd">
        <g id="transport2" transform="translate(-710.000000, -2035.000000)">
            <g id="2" transform="translate(0.000000, 1470.000000)">
                <g id="1-copy-5" transform="translate(710.000000, 565.000000)">
                    <g id="ic_block">
                        <rect id="Rectangle-7" x="0" y="0" width="28" height="28"></rect>
                        <path d="M7.52941176,11.0588235 L7.52941176,6.63433354 C7.52941176,3.52257705 10.4256071,1 14,1 C17.5736072,1 20.4705882,3.52499992 20.4705882,6.63433354 L20.4705882,11.0588235 L21.7832341,11.0588235 C23.0075201,11.0588235 24,12.0614202 24,13.2923512 L24,24.4723547 C24,25.705898 23.0081969,26.7058824 21.7832341,26.7058824 L6.21676588,26.7058824 C4.99247989,26.7058824 4,25.7032857 4,24.4723547 L4,13.2923512 C4,12.0588079 4.99180311,11.0588235 6.21676588,11.0588235 L7.52941176,11.0588235 Z M6.35294118,13.2941176 L6.35294118,24.4705882 L21.6470588,24.4705882 L21.6470588,13.2941176 L6.35294118,13.2941176 Z M18.1176471,11.0588235 L18.1176471,6.63433354 C18.1176471,4.80408078 16.3165541,3.23529412 14,3.23529412 C11.6818702,3.23529412 9.88235294,4.80237438 9.88235294,6.63433354 L9.88235294,11.0588235 L18.1176471,11.0588235 Z M12.8235294,17.5237604 C12.8235294,16.9066198 13.3457233,16.4063285 14,16.4063285 C14.6497468,16.4063285 15.1764706,16.9022471 15.1764706,17.5237604 L15.1764706,20.8771319 C15.1764706,21.4942725 14.6542767,21.9945638 14,21.9945638 C13.3502532,21.9945638 12.8235294,21.4986452 12.8235294,20.8771319 L12.8235294,17.5237604 Z" id="block" fill="#7C828C" fill-rule="nonzero" opacity="0.8"></path>
                    </g>
                </g>
            </g>
        </g>
    </g>
</svg>