<?xml version="1.0" encoding="UTF-8"?>
<svg width="28px" height="28px" viewBox="0 0 28 28" version="1.1" xmlns="http://www.w3.org/2000/svg" xmlns:xlink="http://www.w3.org/1999/xlink">
    <!-- Generator: Sketch 49.2 (51160) - http://www.bohemiancoding.com/sketch -->
    <title>ic_control</title>
    <desc>Created with Sketch.</desc>
    <defs></defs>
    <g id="transport&amp;logistic" stroke="none" stroke-width="1" fill="none" fill-rule="evenodd">
        <g transform="translate(-994.000000, -2735.000000)" id="3">
            <g transform="translate(0.000000, 2262.000000)">
                <g id="txt" transform="translate(994.000000, 236.000000)">
                    <g id="Group-7" transform="translate(0.000000, 237.000000)">
                        <g id="ic_control">
                            <rect id="Rectangle-7" x="0" y="0" width="28" height="28"></rect>
                            <path d="M2.03051611,15.5488198 C1.81465032,12.7665496 2.75006875,10.12819 4.64489069,8.11344257 C6.49174246,6.12268028 9.13010213,4.97139606 11.8644021,4.97139606 C14.8625381,4.97139606 17.6687934,6.33854607 19.5396303,8.6411145 L23.9528864,4.25184342 C24.2886777,3.91605219 24.8163496,3.91605219 25.1281557,4.25184342 C25.463947,4.58763465 25.463947,5.11530659 25.1281557,5.42711273 L12.6798951,17.8034181 C12.5119995,17.9713137 12.3201188,18.043269 12.0802679,18.043269 C12.0802679,18.043269 12.0802679,18.043269 12.0802679,18.043269 C11.8644021,18.043269 11.6485364,17.9473286 11.4806407,17.8034181 L7.4031758,13.677983 C7.06738457,13.3421917 7.06738457,12.8145198 7.4031758,12.5027137 C7.73896703,12.1909075 8.26663896,12.1669224 8.5784451,12.5027137 L12.104253,16.0285216 L18.3403759,9.8403689 C16.7813452,7.8496066 14.4068215,6.6743373 11.8644021,6.6743373 C9.60980388,6.6743373 7.42716089,7.63374081 5.86813017,9.28871188 C4.30909946,10.967668 3.54157665,13.150311 3.68548718,15.4768645 C3.97330823,19.5063593 7.2112951,22.7683313 11.2407899,23.0561523 C15.4861504,23.3679585 19.2997794,20.3218523 19.9473768,16.148447 C20.019332,15.7407005 20.0433171,15.3089689 20.0433171,14.8772374 C20.0433171,14.4215207 20.4270785,14.0377593 20.8827952,14.0377593 C21.3385119,14.0377593 21.7222733,14.4215207 21.7222733,14.8772374 C21.7222733,15.3809242 21.6743031,15.884611 21.6023478,16.3882979 C20.8588101,21.1853155 16.6374346,24.7351085 11.816432,24.7351085 C11.5765811,24.7351085 11.3607153,24.7351085 11.1208644,24.7111234 C6.27587667,24.327362 2.36630734,20.3938076 2.03051611,15.5488198 Z" id="Shape" stroke="#FFFFFF" stroke-width="0.5" fill="#FFFFFF" fill-rule="nonzero" opacity="0.8"></path>
                        </g>
                    </g>
                </g>
            </g>
        </g>
    </g>
</svg>