<?xml version="1.0" encoding="UTF-8"?>
<svg width="28px" height="28px" viewBox="0 0 28 28" version="1.1" xmlns="http://www.w3.org/2000/svg" xmlns:xlink="http://www.w3.org/1999/xlink">
    <!-- Generator: Sketch 49.2 (51160) - http://www.bohemiancoding.com/sketch -->
    <title>ic_chains</title>
    <desc>Created with Sketch.</desc>
    <defs></defs>
    <g id="transport&amp;logistic" stroke="none" stroke-width="1" fill="none" fill-rule="evenodd">
        <g transform="translate(-665.000000, -1885.000000)" id="2">
            <g transform="translate(0.000000, 1470.000000)">
                <g id="Group-4" transform="translate(390.000000, 399.000000)">
                    <g id="2" transform="translate(274.000000, 0.000000)">
                        <g id="ic_sales_copy_5" transform="translate(1.000000, 16.000000)">
                            <rect id="Rectangle-7" x="0" y="0" width="28" height="28"></rect>
                            <g id="noun_1181433_cc" opacity="0.8" transform="translate(2.000000, 2.000000)" fill="#7C828C">
                                <path d="M17.8170257,8.32711966 L20.6391176,8.32711966 L20.6391176,4.17073835 C20.6391176,3.05820699 20.2079647,2.01152444 19.424991,1.22447435 C18.6401358,0.434915728 17.5956482,0 16.4840576,0 C15.3724669,0 14.3279793,0.434915728 13.5434378,1.22416078 C12.7601505,2.01152444 12.3289975,3.05820699 12.3289975,4.17073835 L12.3289975,19.3178466 C12.3289975,19.679388 12.1894607,20.0192932 11.9354725,20.2745358 C11.6839927,20.5275834 11.3506723,20.666493 10.9960294,20.666493 C10.6413865,20.666493 10.3080661,20.5272698 10.0562728,20.2742222 C9.80259808,20.0192932 9.66306131,19.6797015 9.66306131,19.3178466 L9.66306131,11.0597784 C9.66306131,9.94724704 9.23190837,8.90056448 8.44893463,8.11351439 C7.6640795,7.32364221 6.61959191,6.88872648 5.50361132,6.88872648 C4.39358848,6.88872648 3.35035515,7.32301508 2.56581359,8.11194656 C1.78378055,8.89868309 1.35294118,9.94411138 1.35294118,11.0553885 L1.35294118,14.5331465 L4.17503314,14.5331465 L4.17503314,11.0553885 C4.17503314,10.6947878 4.31425634,10.3561368 4.56699036,10.101835 C4.81784297,9.84972808 5.15022269,9.71081844 5.50800124,9.71081844 C5.86264413,9.71081844 6.19596455,9.85004165 6.44775787,10.1030892 C6.70143258,10.3580182 6.84096935,10.6976099 6.84096935,11.0594648 L6.84096935,19.317533 C6.84096935,20.4300644 7.27212228,21.4764334 8.05509602,22.2634835 C8.83995115,23.0536692 9.88443874,23.4882714 10.9960294,23.4882714 C12.1076201,23.4882714 13.1521077,23.0533557 13.9366492,22.2637971 C14.7199365,21.4764334 15.1510895,20.4300644 15.1510895,19.317533 L15.1510895,4.17073835 C15.1510895,3.80888345 15.2906262,3.46929172 15.5446145,3.21404918 C15.7960943,2.96131517 16.1297283,2.82209196 16.4840576,2.82209196 C16.8383869,2.82209196 17.1720209,2.96131517 17.4238142,3.21436275 C17.6774889,3.46929172 17.8170257,3.80888345 17.8170257,4.17073835 L17.8170257,8.32711966 Z" id="Shape" stroke="#FFFFFF" stroke-width="0.5" fill-rule="nonzero"></path>
                                <circle id="Oval-2" cx="2.70588235" cy="17.9411765" r="2.70588235"></circle>
                                <circle id="Oval-2-Copy" cx="19.2117812" cy="11.8529412" r="2.70588235"></circle>
                            </g>
                        </g>
                    </g>
                </g>
            </g>
        </g>
    </g>
</svg>