<?xml version="1.0" encoding="UTF-8"?>
<svg width="28px" height="28px" viewBox="0 0 28 28" version="1.1" xmlns="http://www.w3.org/2000/svg" xmlns:xlink="http://www.w3.org/1999/xlink">
    <!-- Generator: Sketch 50 (54983) - http://www.bohemiancoding.com/sketch -->
    <title>ic_chain</title>
    <desc>Created with Sketch.</desc>
    <defs></defs>
    <g id="industrial-landings" stroke="none" stroke-width="1" fill="none" fill-rule="evenodd">
        <g id="transport2" transform="translate(-387.000000, -3697.000000)">
            <g id="4" transform="translate(-21.000000, 3179.000000)">
                <g id="Group-4" transform="translate(408.000000, 228.000000)">
                    <g id="1-copy-2" transform="translate(0.000000, 290.000000)">
                        <g id="ic_chain">
                            <rect id="Rectangle-7" x="0" y="0" width="28" height="28"></rect>
                            <path d="M23.2380318,23.2591478 C20.8866642,25.6084388 17.0765462,25.6084388 14.7251787,23.2591478 L11.3008149,19.8430223 C11.1750096,19.7138776 11.1508809,19.5166421 11.2418445,19.3609791 C11.332808,19.2053161 11.5164882,19.1295163 11.6907585,19.1757244 C12.494512,19.3992774 13.3290095,19.4919994 14.162232,19.4503326 C14.4231755,19.4386945 14.6767642,19.5385325 14.8597367,19.7249408 L16.5623073,21.413781 C17.8919012,22.7424279 20.0465945,22.7424279 21.3761884,21.413781 C22.0149246,20.7756202 22.3738112,19.909743 22.3738112,19.0068404 C22.3738112,18.1039378 22.0149246,17.2380607 21.3761884,16.5998999 L17.66074,12.8762132 C17.0225792,12.237477 16.156702,11.8785904 15.2537994,11.8785904 C14.3508968,11.8785904 13.4850196,12.237477 12.8468589,12.8762132 C12.7419286,12.9722097 12.5810681,12.9722097 12.4761378,12.8762132 L10.9987459,11.3960752 C10.9027494,11.2911449 10.9027494,11.1302844 10.9987459,11.0253542 C13.3501134,8.67606317 17.1602314,8.67606317 19.511599,11.0253542 L23.2380318,14.7462948 C25.5873227,17.0976623 25.5873227,20.9077803 23.2380318,23.2591478 Z M7.61008119,5.59909686 C8.93967506,4.27044995 11.0943684,4.27044995 12.4239623,5.59909686 L14.129279,7.30441355 C14.3122515,7.49082179 14.5658402,7.59065987 14.8267837,7.57902172 C15.6600061,7.53735493 16.4945036,7.63007688 17.2982572,7.85362988 C17.4725275,7.89983802 17.6562076,7.82403819 17.7471712,7.66837519 C17.8381348,7.51271218 17.8140061,7.31547676 17.6882008,7.18633204 L14.2748213,3.76196825 C11.9234538,1.41267725 8.11333578,1.41267725 5.76196825,3.76196825 C3.41267725,6.11333578 3.41267725,9.92345378 5.76196825,12.2748213 L9.48290886,15.9902698 C11.8342764,18.3395608 15.6443944,18.3395608 17.9957619,15.9902698 C18.0917584,15.8853395 18.0917584,15.724479 17.9957619,15.6195487 L16.5156239,14.1394107 C16.4106936,14.0434142 16.2498332,14.0434142 16.1449029,14.1394107 C15.5067421,14.7781469 14.6408649,15.1370336 13.7379623,15.1370336 C12.8350598,15.1370336 11.9691826,14.7781469 11.3310218,14.1394107 L7.61008119,10.412978 C6.97134501,9.77481718 6.61245836,8.90894 6.61245836,8.00603741 C6.61245836,7.10313482 6.97134501,6.23725764 7.61008119,5.59909686 Z" id="Shape" stroke="#FFFFFF" stroke-width="0.2" fill="#7C828C" fill-rule="nonzero" opacity="0.8"></path>
                        </g>
                    </g>
                </g>
            </g>
        </g>
    </g>
</svg>