<?xml version="1.0" encoding="UTF-8"?>
<svg width="28px" height="28px" viewBox="0 0 28 28" version="1.1" xmlns="http://www.w3.org/2000/svg" xmlns:xlink="http://www.w3.org/1999/xlink">
    <!-- Generator: Sketch 50 (54983) - http://www.bohemiancoding.com/sketch -->
    <title>ic_dispatcher</title>
    <desc>Created with Sketch.</desc>
    <defs></defs>
    <g id="industrial-landings" stroke="none" stroke-width="1" fill="none" fill-rule="evenodd">
        <g id="transport2" transform="translate(-890.000000, -2909.000000)">
            <g id="3" transform="translate(-104.000000, 2009.000000)">
                <g id="txt" transform="translate(994.000000, 544.000000)">
                    <g id="Group-9" transform="translate(0.000000, 356.000000)">
                        <g id="ic_dispatcher">
                            <rect id="Rectangle-7" x="0" y="0" width="28" height="28"></rect>
                            <g id="headset" opacity="0.8" transform="translate(2.000000, 2.000000)" fill="#FFFFFF" fill-rule="nonzero">
                                <path d="M5.625,9.515625 L3.77254687,9.515625 C4.08548437,5.25 7.65590625,1.875 12,1.875 C15.4375312,1.875 18.5480625,4.04015625 19.7402344,7.26276563 C19.9198594,7.74834375 20.4591094,7.99635937 20.9447812,7.81678125 C21.4303594,7.63710937 21.6784219,7.09785938 21.4987969,6.61223437 C20.7882656,4.69148437 19.5259687,3.04785937 17.8484531,1.85901562 C16.1323594,0.64284375 14.1099844,0 12,0 C9.29554687,0 6.75290625,1.0531875 4.84054687,2.96554688 C2.953125,4.85296875 1.90335937,7.35440625 1.87626562,10.0193906 C0.755859375,10.6686094 0,11.8801406 0,13.265625 L0,16.453125 C0,18.520875 1.68225,20.203125 3.75,20.203125 L5.625,20.203125 C6.14278125,20.203125 6.5625,19.7834062 6.5625,19.265625 L6.5625,10.453125 C6.5625,9.93534375 6.14278125,9.515625 5.625,9.515625 Z M4.6875,18.328125 L3.75,18.328125 C2.716125,18.328125 1.875,17.487 1.875,16.453125 L1.875,13.265625 C1.875,12.23175 2.716125,11.390625 3.75,11.390625 L4.6875,11.390625 L4.6875,18.328125 Z" id="Shape"></path>
                                <path d="M20.25,9.515625 L18.375,9.515625 C17.8572188,9.515625 17.4375,9.93534375 17.4375,10.453125 L17.4375,16.875 L17.4375,19.265625 L17.4375,20.25 C17.4375,20.7669375 17.0169375,21.1875 16.5,21.1875 L13.640625,21.1875 L13.640625,21.2172188 C13.3208437,20.6405156 12.706125,20.25 12,20.25 C10.9644844,20.25 10.125,21.0894844 10.125,22.125 C10.125,23.1605156 10.9644844,24 12,24 C12.706125,24 13.3208437,23.6094844 13.640625,23.0327812 L13.640625,23.0625 L16.5,23.0625 C18.0508125,23.0625 19.3125,21.8008125 19.3125,20.25 L19.3125,20.203125 L20.25,20.203125 C22.31775,20.203125 24,18.520875 24,16.453125 L24,13.265625 C24,11.197875 22.31775,9.515625 20.25,9.515625 Z M22.125,16.453125 C22.125,17.487 21.283875,18.328125 20.25,18.328125 L19.3125,18.328125 L19.3125,16.875 L19.3125,11.390625 L20.25,11.390625 C21.283875,11.390625 22.125,12.23175 22.125,13.265625 L22.125,16.453125 Z" id="Shape"></path>
                            </g>
                        </g>
                    </g>
                </g>
            </g>
        </g>
    </g>
</svg>