<?xml version="1.0" encoding="UTF-8"?>
<svg width="28px" height="28px" viewBox="0 0 28 28" version="1.1" xmlns="http://www.w3.org/2000/svg" xmlns:xlink="http://www.w3.org/1999/xlink">
    <!-- Generator: Sketch 50 (54983) - http://www.bohemiancoding.com/sketch -->
    <title>ic_driver</title>
    <desc>Created with Sketch.</desc>
    <defs></defs>
    <g id="industrial-landings" stroke="none" stroke-width="1" fill="none" fill-rule="evenodd">
        <g id="transport2" transform="translate(-390.000000, -2035.000000)">
            <g id="2" transform="translate(0.000000, 1470.000000)">
                <g id="1-copy-3" transform="translate(390.000000, 565.000000)">
                    <g id="ic_driver">
                        <rect id="Rectangle-7" x="0" y="0" width="28" height="28"></rect>
                        <g id="driver" opacity="0.8" transform="translate(2.000000, 2.000000)" fill="#7C828C" fill-rule="nonzero">
                            <path d="M12,0 C5.37,0 0,5.37 0,12 C0,18.63 5.37,24 12,24 C18.63,24 24,18.63 24,12 C24,5.37 18.63,0 12,0 Z M4.92,4.92 C6.81,3.03 9.33,1.98 12,1.98 C14.67,1.98 17.19,3.03 19.08,4.92 C19.74,5.58 20.359375,6.57498047 20.809375,7.35498047 L15.24,9.63 C14.52,8.64 13.35,8.01 12.03,8.01 C10.71,8.01 9.54,8.64 8.82,9.63 L3.13623047,7.35498047 C3.55623047,6.57498047 4.29,5.58 4.92,4.92 Z M12,14.00125 C10.8948321,14.00125 9.99875,13.1051679 9.99875,12 C9.99875,10.8948321 10.8948321,9.99875 12,9.99875 C13.1051679,9.99875 14.00125,10.8948321 14.00125,12 C14.00125,13.1051679 13.1051679,14.00125 12,14.00125 Z M2.01,12 C2.01,11.37 1.99399435,10.5186338 2.38993173,9.20213467 L8.04740638,11.4879028 C8.04740638,11.5779028 8.04,11.91 8.04,12 C8.04,13.83 9.35747681,15.36 11.0074768,15.84 L11.0074768,21.87 C8.96747681,21.54 6.48,20.58 4.98,19.08 C3.03,17.19 2.01,14.67 2.01,12 Z M19.08,19.08 C17.58,20.58 15.0133887,21.54 12.9733887,21.87 L12.9733887,15.84 C14.6233887,15.36 16.02,13.83 16.02,12 C16.02,11.91 16.0060715,11.5617601 16.0060715,11.4717601 L21.5652047,9.22572451 C22.0722863,10.4807955 22.05,11.37 22.05,12 C21.99,14.67 20.97,17.19 19.08,19.08 Z" id="Shape" transform="translate(12.000000, 12.000000) rotate(360.000000) translate(-12.000000, -12.000000) "></path>
                        </g>
                    </g>
                </g>
            </g>
        </g>
    </g>
</svg>