<?xml version="1.0" encoding="UTF-8"?>
<svg width="28px" height="28px" viewBox="0 0 28 28" version="1.1" xmlns="http://www.w3.org/2000/svg" xmlns:xlink="http://www.w3.org/1999/xlink">
    <!-- Generator: Sketch 49.2 (51160) - http://www.bohemiancoding.com/sketch -->
    <title>ic_it</title>
    <desc>Created with Sketch.</desc>
    <defs></defs>
    <g id="transport&amp;logistic" stroke="none" stroke-width="1" fill="none" fill-rule="evenodd">
        <g transform="translate(-664.000000, -2004.000000)" id="2">
            <g transform="translate(0.000000, 1470.000000)">
                <g id="Group-4" transform="translate(390.000000, 399.000000)">
                    <g id="2" transform="translate(274.000000, 0.000000)">
                        <g id="ic_sales_copy_3" transform="translate(0.000000, 135.000000)">
                            <rect id="Rectangle-7" x="0" y="0" width="28" height="28"></rect>
                            <path d="M25.0565818,9.32872727 C24.452,7.89985455 23.5869091,6.61650909 22.4850909,5.51469091 C21.3832727,4.41287273 20.1001455,3.54778182 18.6712727,2.94341818 C17.1909091,2.31745455 15.6193455,2 14,2 C12.3804364,2 10.8088727,2.31745455 9.32872727,2.94341818 C7.89963636,3.548 6.61650909,4.41287273 5.51490909,5.51469091 C4.41309091,6.61650909 3.54778182,7.89985455 2.94341818,9.32872727 C2.31723636,10.8088727 2,12.3806545 2,14 C2,15.6193455 2.31723636,17.1909091 2.9432,18.6712727 C3.54778182,20.1001455 4.41265455,21.3834909 5.51469091,22.4850909 C6.61650909,23.5871273 7.89985455,24.4522182 9.32850909,25.0565818 C10.8090909,25.6827636 12.3806545,26 14,26 C15.6193455,26 17.1906909,25.6827636 18.6710545,25.0568 C20.0999273,24.4522182 21.3832727,23.5873455 22.4848727,22.4853091 C23.5869091,21.3834909 24.452,20.1001455 25.0563636,18.6714909 C25.6825455,17.1913455 26,15.6195636 26,14 C26,12.3802182 25.6825455,10.8086545 25.0565818,9.32872727 Z M20.7538118,6.87401581 C21.2943758,7.43575078 21.7636006,8.05372542 22.16,8.72 L19.3257547,8.72 C19.2425257,8.48247013 19.1537764,8.2469252 19.0595068,8.01535012 C18.8790357,7.5722698 18.6752096,7.13271825 18.4535486,6.70882558 L16.7745306,7.65629847 C16.9550017,8.00167616 17.1203981,8.35940452 17.2698706,8.72 L10.64,8.72 C10.7372421,8.50695093 10.8389428,8.29544569 10.9470132,8.0887925 C11.1370386,7.725771 11.3472343,7.36627826 11.5716554,7.02045947 C11.7941657,6.67839 12.0359969,6.34271641 12.2901427,6.02292226 C12.5434391,5.70401029 12.8145704,5.39414078 13.095893,5.10213564 C13.1986553,4.99517001 13.3037532,4.88996876 13.4105496,4.78631134 C13.5169214,4.68309502 13.625204,4.58186363 13.7358222,4.48195552 C13.8458034,4.38248851 13.9572708,4.28522698 14.0706491,4.18995038 C14.1799934,4.09798199 14.2912485,4.00821908 14.4031406,3.92 C15.5254584,3.98484102 16.6150791,4.24530785 17.6488599,4.69941555 C18.8119429,5.21020401 19.856552,5.94198125 20.7538118,6.87401581 Z M18.0721524,11.1571789 C18.1537304,11.5816956 18.2155885,12.0166313 18.257104,12.4495718 C18.2988271,12.8889411 18.32,13.3376209 18.32,13.7825322 C18.32,14.2276651 18.2988271,14.6759016 18.257104,15.1154925 C18.2157961,15.5486547 18.1537304,15.9835904 18.0719448,16.4085505 C18.010917,16.727326 17.9343209,17.0452148 17.850252,17.36 L10.0395243,17.36 C9.99966941,17.1879765 9.96085241,17.0157313 9.92784758,16.8432645 C9.84626961,16.4178611 9.78420393,15.9827037 9.742896,15.5502065 C9.70117291,15.1108372 9.68,14.6623791 9.68,14.2172462 C9.68,13.7723349 9.70117291,13.3240984 9.742896,12.8845075 C9.78399635,12.4520103 9.84626961,12.0168529 9.92764001,11.5918929 C9.98887538,11.272674 10.0656791,10.9545636 10.1495404,10.64 L17.9604757,10.64 C18.0003306,10.8118018 18.03894,10.9842687 18.0721524,11.1571789 Z M4.7451825,9.88718007 C5.27428622,8.64916934 6.03253116,7.53728788 6.99775709,6.58182479 C7.96343993,5.62636169 9.08721421,4.87659328 10.3384668,4.35308902 C10.7508296,4.18062194 11.1723307,4.03821793 11.6,3.92 C11.4524175,4.0825214 11.3068912,4.24685111 11.1668477,4.41457139 C10.8515787,4.79228107 10.5520731,5.18897795 10.2758699,5.59358617 C9.99692537,6.00226307 9.73648571,6.42698868 9.50071928,6.85578298 C9.26198293,7.2906803 9.04266532,7.74117425 8.84870631,8.19483274 C8.8094119,8.28660421 8.77514353,8.38086211 8.73767677,8.47353773 L7.37813606,8.47353773 L7.37813606,10.5078807 L8.0778963,10.5078807 C8.03151977,10.6952663 7.98537169,10.8826519 7.94653419,11.0707156 C7.84327215,11.571164 7.76422643,12.0829143 7.71236696,12.5915 C7.6593652,13.107319 7.63240741,13.6335357 7.63240741,14.1556837 C7.63240741,14.6780578 7.65913675,15.2042745 7.71236696,15.7200935 C7.76445489,16.2286793 7.84327215,16.7404295 7.94676265,17.241104 C7.95498706,17.2808867 7.96595294,17.3204433 7.97463426,17.36 L4.50598923,17.36 C4.11875658,16.262811 3.92,15.1138593 3.92,13.9341664 C3.92,12.5300177 4.1978023,11.1683641 4.7451825,9.88718007 Z M7.24303347,21.1253059 C6.70347039,20.5637773 6.23529827,19.9458093 5.84,19.28 L8.69394336,19.28 C8.77698566,19.5174426 8.86532402,19.752901 8.95938213,19.984391 C9.13923648,20.427088 9.34260537,20.866478 9.56398088,21.2904354 L11.2392321,20.3435311 C11.058954,19.9980599 10.8939287,19.6402425 10.7452152,19.28 L17.36,19.28 C17.2627643,19.4931913 17.1615035,19.7043983 17.0536756,19.9109756 C16.8632291,20.2758479 16.653505,20.6349881 16.4304347,20.9786956 C16.2073645,21.3224031 15.9664994,21.6577329 15.7137712,21.9758663 C15.461043,22.294661 15.19052,22.6046371 14.9096168,22.8969759 C14.8058139,23.0050046 14.7001045,23.1112695 14.5924884,23.2153298 C14.4848724,23.319831 14.3759853,23.4221275 14.2639206,23.5228808 C14.1531269,23.6231931 14.0404266,23.7213008 13.9251843,23.8180856 C13.8190511,23.9073746 13.7112232,23.9944589 13.6023362,24.08 C12.4740625,24.0173875 11.37926,23.7561345 10.3405958,23.2991071 C9.18054579,22.7885063 8.13849209,22.0572184 7.24303347,21.1253059 Z M23.2505921,18.1189322 C22.7189263,19.3578806 21.9572393,20.4706042 20.9871098,21.426791 C20.0165213,22.3829777 18.8875349,23.133314 17.6302233,23.6572148 C17.2278009,23.8248359 16.8168848,23.9637284 16.4,24.08 C16.5450832,23.9207486 16.68833,23.7599138 16.8260673,23.5956859 C17.1414856,23.2190474 17.4426711,22.82205 17.7209003,22.4162305 C17.9998183,22.00928 18.2619782,21.5840065 18.5000341,21.1523991 C18.7396969,20.717851 18.9600765,20.2670159 19.1549747,19.8125613 C19.1944594,19.7207204 19.2291233,19.6261649 19.2667715,19.5331929 L20.604889,19.5331929 L20.604889,17.4973091 L19.9299764,17.4973091 C19.9765775,17.3100077 20.0227195,17.1224802 20.061745,16.9347265 C20.1657367,16.4348039 20.2451651,15.9224398 20.2975053,15.412564 C20.3507637,14.8963544 20.377852,14.3697391 20.377852,13.8469694 C20.377852,13.3244259 20.3509933,12.7978106 20.2975053,12.2813748 C20.2449356,11.771499 20.1657367,11.2593611 20.0619746,10.7596647 C20.0537104,10.7196257 20.0426914,10.680039 20.033968,10.64 L23.4911732,10.64 C23.8805105,11.7382462 24.08,12.8882943 24.08,14.0688807 C24.08,15.474093 23.8008525,16.8367779 23.2505921,18.1189322 Z" id="Shape" fill-opacity="0.8" fill="#7C828C" fill-rule="nonzero"></path>
                        </g>
                    </g>
                </g>
            </g>
        </g>
    </g>
</svg>