<?xml version="1.0" encoding="UTF-8"?>
<svg width="28px" height="28px" viewBox="0 0 28 28" version="1.1" xmlns="http://www.w3.org/2000/svg" xmlns:xlink="http://www.w3.org/1999/xlink">
    <!-- Generator: Sketch 50 (54983) - http://www.bohemiancoding.com/sketch -->
    <title>ic_key</title>
    <desc>Created with Sketch.</desc>
    <defs></defs>
    <g id="industrial-landings" stroke="none" stroke-width="1" fill="none" fill-rule="evenodd">
        <g id="transport2" transform="translate(-390.000000, -1965.000000)">
            <g id="2" transform="translate(0.000000, 1470.000000)">
                <g id="1-copy-2" transform="translate(390.000000, 495.000000)">
                    <g id="ic_key">
                        <rect id="Rectangle-7" x="0" y="0" width="28" height="28"></rect>
                        <g id="key" opacity="0.8" transform="translate(3.000000, 3.000000)" fill="#7C828C" fill-rule="nonzero">
                            <circle id="Oval" cx="16.3196881" cy="6.27958285" r="1.43469786"></circle>
                            <path d="M22.7075906,7.43967057 C22.2287602,6.22044639 21.3507251,4.46128265 19.8868402,3.00434698 C18.4281559,1.55243275 16.6876433,0.699504873 15.4843801,0.239594542 C14.1633821,-0.2652846 12.6622846,0.0529493177 11.6602378,1.0502885 L8.13904094,4.55498635 C7.09525341,5.59384211 6.7944152,7.19236452 7.39039766,8.53268616 C7.57520468,8.94838986 7.77619688,9.3549922 7.99095322,9.74783041 L0.262639376,17.4760994 C0.0944658869,17.6442729 0,17.872345 0,18.110191 L0,22.0556101 C0,22.5508499 0.401446394,22.9522963 0.89668616,22.9522963 L4.84210526,22.9522963 C5.33734503,22.9522963 5.73879142,22.5508499 5.73879142,22.0556101 L5.73879142,20.441575 L7.35282651,20.4415302 C7.84806628,20.4415302 8.24951267,20.0400838 8.24951267,19.5448441 L8.24951267,17.9308538 L9.86354776,17.9308538 C10.3587875,17.9308538 10.7602339,17.5294074 10.7602339,17.0341676 C10.7602339,16.5389279 10.3587875,16.1374815 9.86354776,16.1374815 L7.35282651,16.1374815 C6.85758674,16.1374815 6.45614035,16.5389279 6.45614035,17.0341676 L6.45614035,18.6481579 L4.84210526,18.6482027 C4.3468655,18.6482027 3.9454191,19.0496491 3.9454191,19.5448889 L3.9454191,21.158924 L1.79337232,21.158924 L1.79337232,18.4815984 L9.74496101,10.5300546 C10.0371014,10.2379142 10.0918441,9.78405653 9.8775809,9.43085185 C9.56683431,8.91866472 9.28137427,8.37132749 9.02918129,7.80403899 C8.73331969,7.13865302 8.88405263,6.34378558 9.40426511,5.82599415 L12.9254172,2.32134113 C13.4281442,1.82103509 14.181271,1.66146979 14.8442359,1.91478363 C15.8853782,2.31273294 17.3858928,3.04523587 18.6217953,4.27539961 C19.8652749,5.51300585 20.6223021,7.03571345 21.0383645,8.09514815 C21.298,8.75636452 21.1402281,9.50756335 20.636425,10.0089903 L17.0727251,13.5560117 C16.553768,14.0724581 15.7792105,14.22346 15.0992982,13.9406901 C14.5385556,13.707462 13.9954776,13.430386 13.4852632,13.1172183 C13.0632378,12.8581657 12.5110585,12.9903372 12.2520058,13.4124074 C11.9929532,13.8344776 12.1250799,14.3866569 12.5471501,14.6457096 C13.1368109,15.0076121 13.7637739,15.3275049 14.4105536,15.5965107 C15.7619493,16.1586881 17.3034873,15.8565497 18.3378148,14.8271092 L21.9015146,11.2801326 C22.9123041,10.2740955 23.2286998,8.76663158 22.7075906,7.43967057 Z" id="Shape"></path>
                        </g>
                    </g>
                </g>
            </g>
        </g>
    </g>
</svg>