<?xml version="1.0" encoding="UTF-8"?>
<svg width="35px" height="29px" viewBox="0 0 35 29" version="1.1" xmlns="http://www.w3.org/2000/svg" xmlns:xlink="http://www.w3.org/1999/xlink">
    <!-- Generator: Sketch 49.2 (51160) - http://www.bohemiancoding.com/sketch -->
    <title>ic_price</title>
    <desc>Created with Sketch.</desc>
    <defs></defs>
    <g id="transport&amp;logistic" stroke="none" stroke-width="1" fill="none" fill-rule="evenodd">
        <g transform="translate(-1297.000000, -2823.000000)" id="3">
            <g transform="translate(0.000000, 2262.000000)">
                <g id="txt" transform="translate(994.000000, 236.000000)">
                    <g id="Group-10" transform="translate(303.000000, 325.000000)">
                        <g id="ic_price">
                            <rect id="Rectangle-7" x="3" y="1" width="28" height="28"></rect>
                            <g id="gas-station" opacity="0.8" fill="#FFFFFF" fill-rule="nonzero">
                                <path d="M31.4712523,6.55514052 L28.7731193,5.44987874 C26.4023125,4.47959906 23.7351619,5.11233826 22.1361403,7.02448035 L20.7385894,8.69570072 C17.5411692,6.55900527 13.1723642,7.13257969 10.6467019,10.1530526 C7.8948736,13.4436034 9.41731707,11.6185319 3.19772286,19.0857411 C2.89724433,19.4465269 2.94453925,19.9833294 3.30352756,20.2855756 L5.90707072,22.4776848 C6.26707856,22.7807835 6.80425828,22.7329856 7.10541651,22.3710063 L8.55230138,20.632096 L11.6996512,23.2820644 C13.5223467,24.8167681 16.2515754,24.6725788 17.7838743,22.8400051 L19.9682202,20.2278317 C19.9682768,20.2277749 19.9683901,20.2276612 19.9684467,20.2276044 L24.374408,14.9588129 C25.076242,14.11948 25.1340155,12.9454484 24.6073709,12.0274566 L26.0413417,10.3127009 C26.256916,10.055013 26.6251367,9.97339857 26.9576738,10.1094605 L29.6549006,11.2140971 C30.0961877,11.3950015 30.5994964,11.1754496 30.7695315,10.7292983 L31.9436918,7.64909221 C32.1087426,7.2161265 31.8989457,6.73030464 31.4712523,6.55514052 Z M16.4821594,21.7439505 C15.5863878,22.8151684 13.9376358,22.9404318 12.7919658,21.9757787 L9.64144404,19.3231391 L11.2750731,17.3597891 C11.9667118,16.5328462 13.1072841,16.2859 14.119792,16.6492433 C13.3838603,17.7618936 13.2710888,19.1800297 13.84129,20.448293 C14.0341514,20.8773371 14.5371768,21.0685854 14.9651534,20.8748364 C15.3929034,20.681201 15.5832726,20.1762828 15.3902413,19.747125 C15.0663136,19.0265763 15.1241437,18.2278234 15.5299738,17.603382 L18.1206595,19.7846926 L16.4821594,21.7439505 Z M23.0727497,13.8627583 L19.212974,18.478407 C17.8429505,17.3248927 17.5376575,17.0678299 15.9585168,15.7382989 C14.3730889,14.4028572 11.5613914,14.3646075 9.97194211,16.2653827 C9.4851159,16.8504377 6.83376805,20.0369812 6.34694184,20.6221499 L5.04551011,19.5263795 C10.6194578,12.8342232 9.19596549,14.5405673 11.9484735,11.2491072 C14.0616787,8.72207196 17.809306,8.39305666 20.3277749,10.5134974 C23.1630915,12.9007765 22.9670017,12.7476642 23.0924606,12.8118304 C23.3169275,13.1360147 23.3206657,13.5661956 23.0727497,13.8627583 Z M29.4927385,9.30593344 L27.5996954,8.53059631 C26.5810136,8.11365795 25.4315487,8.38924875 24.7396834,9.2165895 L23.3726618,10.8512652 L22.0709469,9.75521067 L23.4380251,8.12047809 C24.5605858,6.77793201 26.4467753,6.33928284 28.131211,7.02862927 L30.0597678,7.81862972 L29.4927385,9.30593344 Z" id="Shape" transform="translate(17.500000, 14.666667) rotate(-20.000000) translate(-17.500000, -14.666667) "></path>
                                <path d="M28.6485568,21.2910013 L26.9330045,18.5318151 C26.7407173,18.2225426 26.2590827,18.222914 26.0669955,18.5318151 L24.3183454,21.3441459 C24.3170455,21.3462507 24.3157456,21.3483863 24.3144457,21.350522 C24.1087594,21.6937798 24,22.0838062 24,22.4784443 C24,23.7585576 25.1214919,24.8 26.5,24.8 C27.8785081,24.8 29,23.7585576 29,22.4784443 C29,22.0596945 28.8784414,21.6491161 28.6485568,21.2910013 Z M26.4999954,23.288683 C25.9035481,23.288683 25.4183143,22.838084 25.4183143,22.2842098 C25.4183143,22.1141304 25.4647994,21.9462607 25.5527703,21.798613 L26.4999954,20.2752413 L27.4261891,21.7648872 C27.4271265,21.7663827 27.4280639,21.7678781 27.4290253,21.7693736 C27.5288699,21.92432 27.5816524,22.1023454 27.5816524,22.2841875 C27.5816764,22.838084 27.0964186,23.288683 26.4999954,23.288683 Z" id="Shape"></path>
                            </g>
                        </g>
                    </g>
                </g>
            </g>
        </g>
    </g>
</svg>