<?xml version="1.0" encoding="UTF-8"?>
<svg width="28px" height="28px" viewBox="0 0 28 28" version="1.1" xmlns="http://www.w3.org/2000/svg" xmlns:xlink="http://www.w3.org/1999/xlink">
    <!-- Generator: Sketch 50 (54983) - http://www.bohemiancoding.com/sketch -->
    <title>ic_parking</title>
    <desc>Created with Sketch.</desc>
    <defs></defs>
    <g id="industrial-landings" stroke="none" stroke-width="1" fill="none" fill-rule="evenodd">
        <g id="transport2" transform="translate(-710.000000, -1895.000000)">
            <g id="2" transform="translate(0.000000, 1470.000000)">
                <g id="1-copy" transform="translate(710.000000, 425.000000)">
                    <g id="ic_parking">
                        <rect id="Rectangle-7" x="0" y="0" width="28" height="28"></rect>
                        <g id="parking" opacity="0.8" transform="translate(3.000000, 3.000000)" fill="#7C828C" fill-rule="nonzero" stroke="#7B828D" stroke-width="0.4">
                            <path d="M19.421875,0 L2.578125,0 C1.15654688,0 0,1.15654688 0,2.578125 L0,19.421875 C0,20.8434531 1.15654688,22 2.578125,22 L19.421875,22 C20.8434531,22 22,20.8434531 22,19.421875 L22,2.578125 C22,1.15654688 20.8434531,0 19.421875,0 Z M20.28125,19.421875 C20.28125,19.8957344 19.8957344,20.28125 19.421875,20.28125 L2.578125,20.28125 C2.10426563,20.28125 1.71875,19.8957344 1.71875,19.421875 L1.71875,2.578125 C1.71875,2.10426563 2.10426563,1.71875 2.578125,1.71875 L19.421875,1.71875 C19.8957344,1.71875 20.28125,2.10426563 20.28125,2.578125 L20.28125,19.421875 Z" id="Shape"></path>
                            <path d="M12.2890625,4.296875 L6.2734375,4.296875 L6.2734375,17.703125 L7.9921875,17.703125 L7.9921875,12.890625 L12.2890625,12.890625 C14.6583594,12.890625 16.5859375,10.9630469 16.5859375,8.59375 C16.5859375,6.22445313 14.6583594,4.296875 12.2890625,4.296875 Z M12.2890625,11.171875 L7.9921875,11.171875 L7.9921875,6.015625 L12.2890625,6.015625 C13.7106406,6.015625 14.8671875,7.17217188 14.8671875,8.59375 C14.8671875,10.0153281 13.7106406,11.171875 12.2890625,11.171875 Z" id="Shape"></path>
                        </g>
                    </g>
                </g>
            </g>
        </g>
    </g>
</svg>