<?xml version="1.0" encoding="UTF-8"?>
<svg width="28px" height="28px" viewBox="0 0 28 28" version="1.1" xmlns="http://www.w3.org/2000/svg" xmlns:xlink="http://www.w3.org/1999/xlink">
    <!-- Generator: Sketch 49.2 (51160) - http://www.bohemiancoding.com/sketch -->
    <title>ic_route</title>
    <desc>Created with Sketch.</desc>
    <defs></defs>
    <g id="transport&amp;logistic" stroke="none" stroke-width="1" fill="none" fill-rule="evenodd">
        <g transform="translate(-994.000000, -2824.000000)" id="3">
            <g transform="translate(0.000000, 2262.000000)">
                <g id="txt" transform="translate(994.000000, 236.000000)">
                    <g id="Group-9" transform="translate(0.000000, 326.000000)">
                        <g id="ic_route">
                            <rect id="Rectangle-7" x="0" y="0" width="28" height="28"></rect>
                            <g id="noun_1062251_cc" transform="translate(1.000000, 3.000000)" fill="#FFFFFF" fill-rule="nonzero" opacity="0.8">
                                <path d="M8.08888889,0 C6.18456684,0 4.62222222,1.56234491 4.62222222,3.46666667 C4.62222222,5.37098842 6.18456684,6.93333333 8.08888889,6.93333333 C9.69377269,6.93333333 11.0498527,5.82185038 11.4381944,4.33333333 L21.2333333,4.33333333 C22.928791,4.33333333 24.2666667,5.67120898 24.2666667,7.36666667 C24.2666667,9.0234976 22.7843466,10.4 21.0888889,10.4 C20.7763378,10.3955797 20.4856184,10.5597919 20.3280529,10.8297565 C20.1704874,11.099721 20.1704874,11.4336123 20.3280529,11.7035769 C20.4856184,11.9735414 20.7763378,12.1377536 21.0888889,12.1333333 C23.7146312,12.1333333 26,10.0310357 26,7.36666667 C26,4.74092436 23.8590756,2.6 21.2333333,2.6 L11.4381944,2.6 C11.0498527,1.11148296 9.69377269,0 8.08888889,0 Z M8.08888889,1.73333333 C9.05644769,1.73333333 9.82222222,2.49910787 9.82222222,3.46666667 C9.82222222,4.43422576 9.05644769,5.2 8.08888889,5.2 C7.12133009,5.2 6.35555556,4.43422576 6.35555556,3.46666667 C6.35555556,2.49910787 7.12133009,1.73333333 8.08888889,1.73333333 Z M4.76666667,10.4 C2.14092436,10.4 0,12.5409244 0,15.1666667 C0,17.792409 2.14092436,19.9333333 4.76666667,19.9333333 L10.3277778,19.9333333 L9.20833333,21.0527778 C8.86929187,21.3918193 8.86929187,21.9415141 9.20833334,22.2805555 C9.54737481,22.619597 10.0970696,22.619597 10.4361111,22.2805556 L13.0361111,19.6805556 C13.1992726,19.517927 13.2909807,19.2970353 13.2909807,19.0666667 C13.2909807,18.836298 13.1992726,18.6154063 13.0361111,18.4527778 L10.4361111,15.8527778 C10.2724387,15.6848352 10.0477004,15.59038 9.81319444,15.5909722 C9.4596641,15.5901225 9.1410479,15.8040709 9.00804006,16.1316275 C8.87503222,16.4591842 8.9542924,16.8346946 9.20833333,17.0805556 L10.3277778,18.2 L4.76666667,18.2 C3.07120898,18.2 1.73333333,16.8621244 1.73333333,15.1666667 C1.73333333,13.471209 3.07120898,12.1333333 4.76666667,12.1333333 L18.2,12.1333333 C18.5125511,12.1377536 18.8032705,11.9735414 18.960836,11.7035769 C19.1184015,11.4336123 19.1184015,11.099721 18.960836,10.8297565 C18.8032705,10.5597919 18.5125511,10.3955797 18.2,10.4 L4.76666667,10.4 Z M17.9111111,15.6 C16.0067891,15.6 14.4444444,17.1623449 14.4444444,19.0666667 C14.4444444,20.9709884 16.0067891,22.5333333 17.9111111,22.5333333 C19.8154332,22.5333333 21.3777778,20.9709884 21.3777778,19.0666667 C21.3777778,17.1623449 19.8154332,15.6 17.9111111,15.6 Z M17.9111111,17.3333333 C18.8786699,17.3333333 19.6444444,18.0991076 19.6444444,19.0666667 C19.6444444,20.0342255 18.8786699,20.8 17.9111111,20.8 C16.9435523,20.8 16.1777778,20.0342255 16.1777778,19.0666667 C16.1777778,18.0991076 16.9435523,17.3333333 17.9111111,17.3333333 Z" id="Shape"></path>
                            </g>
                        </g>
                    </g>
                </g>
            </g>
        </g>
    </g>
</svg>