<?xml version="1.0" encoding="UTF-8"?>
<svg width="28px" height="28px" viewBox="0 0 28 28" version="1.1" xmlns="http://www.w3.org/2000/svg" xmlns:xlink="http://www.w3.org/1999/xlink">
    <!-- Generator: Sketch 50 (54983) - http://www.bohemiancoding.com/sketch -->
    <title>ic_route</title>
    <desc>Created with Sketch.</desc>
    <defs></defs>
    <g id="industrial-landings" stroke="none" stroke-width="1" fill="none" fill-rule="evenodd">
        <g id="transport2" transform="translate(-707.000000, -3697.000000)">
            <g id="4" transform="translate(-21.000000, 3179.000000)">
                <g id="Group-4" transform="translate(408.000000, 228.000000)">
                    <g id="1-copy-4" transform="translate(320.000000, 290.000000)">
                        <g id="ic_route">
                            <rect id="Rectangle-7" x="0" y="0" width="28" height="28"></rect>
                            <path d="M9.08888889,3 C7.18456684,3 5.62222222,4.56234491 5.62222222,6.46666667 C5.62222222,8.37098842 7.18456684,9.93333333 9.08888889,9.93333333 C10.6937727,9.93333333 12.0498527,8.82185038 12.4381944,7.33333333 L22.2333333,7.33333333 C23.928791,7.33333333 25.2666667,8.67120898 25.2666667,10.3666667 C25.2666667,12.0234976 23.7843466,13.4 22.0888889,13.4 C21.7763378,13.3955797 21.4856184,13.5597919 21.3280529,13.8297565 C21.1704874,14.099721 21.1704874,14.4336123 21.3280529,14.7035769 C21.4856184,14.9735414 21.7763378,15.1377536 22.0888889,15.1333333 C24.7146312,15.1333333 27,13.0310357 27,10.3666667 C27,7.74092436 24.8590756,5.6 22.2333333,5.6 L12.4381944,5.6 C12.0498527,4.11148296 10.6937727,3 9.08888889,3 Z M9.08888889,4.73333333 C10.0564477,4.73333333 10.8222222,5.49910787 10.8222222,6.46666667 C10.8222222,7.43422576 10.0564477,8.2 9.08888889,8.2 C8.12133009,8.2 7.35555556,7.43422576 7.35555556,6.46666667 C7.35555556,5.49910787 8.12133009,4.73333333 9.08888889,4.73333333 Z M5.76666667,13.4 C3.14092436,13.4 1,15.5409244 1,18.1666667 C1,20.792409 3.14092436,22.9333333 5.76666667,22.9333333 L11.3277778,22.9333333 L10.2083333,24.0527778 C9.86929187,24.3918193 9.86929187,24.9415141 10.2083333,25.2805555 C10.5473748,25.619597 11.0970696,25.619597 11.4361111,25.2805556 L14.0361111,22.6805556 C14.1992726,22.517927 14.2909807,22.2970353 14.2909807,22.0666667 C14.2909807,21.836298 14.1992726,21.6154063 14.0361111,21.4527778 L11.4361111,18.8527778 C11.2724387,18.6848352 11.0477004,18.59038 10.8131944,18.5909722 C10.4596641,18.5901225 10.1410479,18.8040709 10.0080401,19.1316275 C9.87503222,19.4591842 9.9542924,19.8346946 10.2083333,20.0805556 L11.3277778,21.2 L5.76666667,21.2 C4.07120898,21.2 2.73333333,19.8621244 2.73333333,18.1666667 C2.73333333,16.471209 4.07120898,15.1333333 5.76666667,15.1333333 L19.2,15.1333333 C19.5125511,15.1377536 19.8032705,14.9735414 19.960836,14.7035769 C20.1184015,14.4336123 20.1184015,14.099721 19.960836,13.8297565 C19.8032705,13.5597919 19.5125511,13.3955797 19.2,13.4 L5.76666667,13.4 Z M18.9111111,18.6 C17.0067891,18.6 15.4444444,20.1623449 15.4444444,22.0666667 C15.4444444,23.9709884 17.0067891,25.5333333 18.9111111,25.5333333 C20.8154332,25.5333333 22.3777778,23.9709884 22.3777778,22.0666667 C22.3777778,20.1623449 20.8154332,18.6 18.9111111,18.6 Z M18.9111111,20.3333333 C19.8786699,20.3333333 20.6444444,21.0991076 20.6444444,22.0666667 C20.6444444,23.0342255 19.8786699,23.8 18.9111111,23.8 C17.9435523,23.8 17.1777778,23.0342255 17.1777778,22.0666667 C17.1777778,21.0991076 17.9435523,20.3333333 18.9111111,20.3333333 Z" id="route" fill="#7C828C" fill-rule="nonzero" opacity="0.8"></path>
                        </g>
                    </g>
                </g>
            </g>
        </g>
    </g>
</svg>