<?xml version="1.0" encoding="UTF-8"?>
<svg width="28px" height="28px" viewBox="0 0 28 28" version="1.1" xmlns="http://www.w3.org/2000/svg" xmlns:xlink="http://www.w3.org/1999/xlink">
    <!-- Generator: Sketch 50 (54983) - http://www.bohemiancoding.com/sketch -->
    <title>ic_stoke</title>
    <desc>Created with Sketch.</desc>
    <defs></defs>
    <g id="industrial-landings" stroke="none" stroke-width="1" fill="none" fill-rule="evenodd">
        <g id="transport2" transform="translate(-707.000000, -3627.000000)">
            <g id="4" transform="translate(-21.000000, 3179.000000)">
                <g id="Group-4" transform="translate(408.000000, 228.000000)">
                    <g id="1-copy" transform="translate(320.000000, 220.000000)">
                        <g id="ic_stoke">
                            <rect id="Rectangle-7" x="0" y="0" width="28" height="28"></rect>
                            <g id="stoke" opacity="0.8" transform="translate(3.000000, 3.000000)" fill-rule="nonzero">
                                <g id="Group-7" transform="translate(0.000000, 11.000000)">
                                    <path d="M1,0 L11,0 L11,11 L1,11 C0.44771525,11 6.76353751e-17,10.5522847 0,10 L0,1 C-6.76353751e-17,0.44771525 0.44771525,1.01453063e-16 1,0 Z" id="Rectangle-5" stroke="#7C828C" stroke-width="2"></path>
                                    <rect id="Rectangle-6" fill="#7C828C" x="4.4" y="0" width="2.2" height="3.3"></rect>
                                </g>
                                <g id="Group-7" transform="translate(11.000000, 11.000000)">
                                    <path d="M0,0 L10,0 C10.5522847,-1.01453063e-16 11,0.44771525 11,1 L11,10 C11,10.5522847 10.5522847,11 10,11 L0,11 L0,0 Z" id="Rectangle-5" stroke="#7C828C" stroke-width="2"></path>
                                    <rect id="Rectangle-6" fill="#7C828C" x="4.4" y="0" width="2.2" height="3.3"></rect>
                                </g>
                                <g id="Group-7" transform="translate(5.500000, 0.000000)">
                                    <path d="M1,0 L10,0 C10.5522847,-1.01453063e-16 11,0.44771525 11,1 L11,11 L0,11 L0,1 C-6.76353751e-17,0.44771525 0.44771525,1.01453063e-16 1,0 Z" id="Rectangle-5" stroke="#7C828C" stroke-width="2"></path>
                                    <rect id="Rectangle-6" fill="#7C828C" x="4.4" y="0" width="2.2" height="3.3"></rect>
                                </g>
                            </g>
                        </g>
                    </g>
                </g>
            </g>
        </g>
    </g>
</svg>