<?xml version="1.0" encoding="UTF-8"?>
<svg width="28px" height="28px" viewBox="0 0 28 28" version="1.1" xmlns="http://www.w3.org/2000/svg" xmlns:xlink="http://www.w3.org/1999/xlink">
    <!-- Generator: Sketch 50 (54983) - http://www.bohemiancoding.com/sketch -->
    <title>ic_tool</title>
    <desc>Created with Sketch.</desc>
    <defs></defs>
    <g id="industrial-landings" stroke="none" stroke-width="1" fill="none" fill-rule="evenodd">
        <g id="transport2" transform="translate(-390.000000, -1895.000000)">
            <g id="2" transform="translate(0.000000, 1470.000000)">
                <g id="1" transform="translate(390.000000, 425.000000)">
                    <g id="ic_tool">
                        <rect id="Rectangle-7" x="0" y="0" width="28" height="28"></rect>
                        <path d="M24.9584428,7.42630086 C25.0916639,8.80188049 24.6461448,10.1705433 23.7320469,11.1938665 C22.817949,12.2171897 21.5206073,12.7996415 20.1608096,12.7972018 C20.0362274,12.7972018 19.9165309,12.7972018 19.7870632,12.7823033 C19.177974,12.7294159 18.5770535,12.9530242 18.1455105,13.3931408 L13.2330662,18.3940629 C12.802673,18.8343979 12.5831462,19.4439726 12.6321407,20.0626923 C12.7371595,21.4240591 12.2775832,22.7680766 11.3645421,23.7697469 C10.451501,24.7714172 9.16812069,25.3395458 7.82473624,25.3367531 C7.66839788,25.3367531 7.50961674,25.3367531 7.35572117,25.3144054 C6.9915118,25.2792587 6.68063681,25.0320787 6.55937268,24.6812201 C6.43160711,24.3256288 6.51939809,23.926963 6.78410906,23.6606745 L8.19359704,22.2279376 C8.48619882,21.9302854 8.48619882,21.4479334 8.19359704,21.1502811 L7.12609921,20.0602092 C6.8290785,19.7732748 6.36295045,19.7732748 6.06592974,20.0602092 L4.65644176,21.4929461 C4.39696557,21.7632683 4.00681609,21.8561021 3.65626423,21.7309324 C3.30571237,21.6057627 3.05838324,21.2853079 3.02221739,20.9094224 C2.89202089,19.5363288 3.33822544,18.1711829 4.25090594,17.1502964 C5.16358644,16.1294098 6.4578928,15.5476925 7.81496509,15.5484538 C7.93954722,15.5484538 8.05924377,15.5484538 8.18871147,15.5633523 C8.79766391,15.6152028 9.39816697,15.3917498 9.8302642,14.9525148 L14.747594,9.94166037 C15.1779872,9.50132535 15.397514,8.89175072 15.3485196,8.27303096 C15.2374873,6.82966647 15.7611525,5.41045141 16.7785878,4.39732087 C17.7960231,3.38419032 19.2026985,2.88123212 20.6200535,3.02380095 C20.985179,3.05802349 21.297214,3.30536712 21.4188448,3.65698621 C21.5466103,4.01257752 21.4588193,4.41124331 21.1941084,4.67753188 L19.7846204,6.11275181 C19.4933585,6.41096666 19.4933585,6.89219346 19.7846204,7.19040831 L20.854561,8.27799712 C21.1515817,8.56493155 21.6177098,8.56493155 21.9147305,8.27799712 L23.3242185,6.84526026 C23.5833654,6.57510317 23.9730269,6.48203863 24.3234156,6.60661765 C24.6738043,6.73119667 24.9214488,7.05085225 24.9584428,7.42630086 Z M23.9813281,7.56783639 L22.6035964,8.97574245 C22.2796966,9.30508425 21.8403356,9.4901149 21.382203,9.4901149 C20.9240704,9.4901149 20.4847093,9.30508425 20.1608096,8.97574245 L19.0957545,7.89063672 C18.4224,7.20444742 18.4224,6.09374655 19.0957545,5.40755724 L20.4734863,4.00710042 C19.3508794,3.90875337 18.2425227,4.31719428 17.442725,5.12396734 C16.6429273,5.93074041 16.2326178,7.05421041 16.3207487,8.1960555 C16.3902839,9.10425109 16.0653999,9.99790264 15.4315743,10.6418888 L10.5191301,15.6428108 C9.88335987,16.2894875 8.99945235,16.6183574 8.10321393,16.5416856 C6.98152625,16.4551815 5.87903354,16.8736207 5.0876083,17.6862262 C4.29618306,18.4988317 3.89563466,19.6236583 3.99200375,20.7629207 L5.36729272,19.3525316 C5.69119246,19.0231898 6.13055351,18.8381591 6.58868612,18.8381591 C7.04681872,18.8381591 7.48617978,19.0231898 7.81007952,19.3525316 L8.88002013,20.4401204 C9.55337462,21.1263097 9.55337462,22.2370106 8.88002013,22.9231999 L7.50228838,24.3236567 C7.609771,24.3236567 7.71725362,24.3360721 7.82473624,24.3360721 C8.89307657,24.3364821 9.91316631,23.8839028 10.6393012,23.087345 C11.3654361,22.2907872 11.731797,21.2224532 11.6501404,20.1396678 C11.5785993,19.2313964 11.9017129,18.336797 12.5344292,17.6913514 L17.4542018,12.6929124 C18.088263,12.0483097 18.969028,11.7196119 19.8627896,11.7940377 C19.960501,11.7940377 20.0606553,11.7940377 20.1608096,11.7940377 C21.2338268,11.7937312 22.2576465,11.336507 22.9836771,10.5333826 C23.7097078,9.7302582 24.0715436,8.65469075 23.9813281,7.56783639 Z" id="tool" stroke="#7B828D" stroke-width="0.7" fill="#7C828C" fill-rule="nonzero" opacity="0.8"></path>
                    </g>
                </g>
            </g>
        </g>
    </g>
</svg>