<?xml version="1.0" encoding="UTF-8"?>
<svg width="28px" height="28px" viewBox="0 0 28 28" version="1.1" xmlns="http://www.w3.org/2000/svg" xmlns:xlink="http://www.w3.org/1999/xlink">
    <!-- Generator: Sketch 50 (54983) - http://www.bohemiancoding.com/sketch -->
    <title>ic_telematics</title>
    <desc>Created with Sketch.</desc>
    <defs></defs>
    <g id="industrial-landings" stroke="none" stroke-width="1" fill="none" fill-rule="evenodd" opacity="0.8">
        <g id="transport2" transform="translate(-710.000000, -1965.000000)" fill="#7C828C" fill-rule="nonzero" stroke="#FFFFFF" stroke-width="0.7">
            <g id="2" transform="translate(0.000000, 1470.000000)">
                <g id="1-copy-4" transform="translate(0.000000, 495.000000)">
                    <g id="ic_telematics">
                        <g id="icon" transform="translate(711.000000, 4.000000)">
                            <g id="Group-12">
                                <circle id="Oval" cx="12.9158095" cy="17.0498095" r="3.00361905"></circle>
                                <path d="M20.0942857,9.81314286 C20.0497143,9.76733333 20.0026667,9.72647619 19.9568571,9.68438095 L19.8219048,9.55685714 C19.799619,9.53333333 19.7748571,9.516 19.746381,9.49371429 C15.8624762,5.96514286 9.91838095,6.10504762 6.21152381,9.81190476 L5.77695238,10.2477143 L5.1752381,10.8494286 C4.44228571,11.582381 4.446,12.7771429 5.18019048,13.5113333 C5.91561905,14.248 7.11038095,14.2492381 7.84209524,13.5162857 L8.87961905,12.4787619 C11.2369524,10.1226667 15.0713333,10.1226667 17.4274286,12.4775238 L18.1764762,13.2030476 C18.902,13.9285714 20.085619,13.9273333 20.8148571,13.1968571 C21.1677143,12.8452381 21.3620952,12.376 21.3633333,11.8770476 C21.3645714,11.3805714 21.1726667,10.9113333 20.8198095,10.5609524 L20.0942857,9.81314286 Z" id="Shape"></path>
                                <path d="M25.2113333,6.10009524 L24.5873333,5.47609524 C24.5848571,5.47361905 24.583619,5.46990476 24.5786667,5.46866667 L24.0859048,4.97342857 C23.9992381,4.888 23.9051429,4.81371429 23.8060952,4.74933333 C17.4757143,-0.80847619 7.84704762,-0.637619048 1.71847619,5.25819048 C1.6887619,5.28542857 1.65533333,5.304 1.62561905,5.33371429 L0.498952381,6.46161905 C-0.169619048,7.12895238 -0.165904762,8.2147619 0.506380952,8.88704762 C1.17742857,9.55809524 2.2632381,9.56304762 2.93180952,8.8932381 L4.05847619,7.76780952 C4.06590476,7.75790476 4.07209524,7.7492381 4.07952381,7.74304762 C9.03561905,2.95533333 16.8975238,2.92561905 21.8932381,7.6452381 L22.7797143,8.53295238 C23.4470476,9.20028571 24.5353333,9.19780952 25.206381,8.5267619 C25.8761905,7.85447619 25.8786667,6.76742857 25.2113333,6.10009524 Z" id="Shape"></path>
                            </g>
                        </g>
                    </g>
                </g>
            </g>
        </g>
    </g>
</svg>