<?xml version="1.0" encoding="UTF-8"?>
<svg width="212px" height="57px" viewBox="0 0 212 57" version="1.1" xmlns="http://www.w3.org/2000/svg" xmlns:xlink="http://www.w3.org/1999/xlink">
    <!-- Generator: Sketch 46.2 (44496) - http://www.bohemiancoding.com/sketch -->
    <title>academy_ukr</title>
    <desc>Created with Sketch.</desc>
    <defs>
        <polygon id="path-1" points="19.9279441 0.139864865 0.134713287 0.139864865 0.134713287 22.5519324 19.9279441 22.5519324 19.9279441 0.139864865"></polygon>
        <polygon id="path-3" points="0 45 171.164056 45 171.164056 0.139864865 0 0.139864865"></polygon>
    </defs>
    <g id="Large" stroke="none" stroke-width="1" fill="none" fill-rule="evenodd">
        <g id="academy_ukr">
            <g id="Page-1" transform="translate(20.000000, 7.000000)">
                <polygon id="Fill-1" fill="#FFFFFF" points="0 23 4 23 4 0 0 0"></polygon>
                <polygon id="Fill-2" fill="#FFFFFF" points="7 0 7 3.59577816 14.060838 3.59577816 14.060838 23 17.939162 23 17.939162 3.59577816 25 3.59577816 25 0"></polygon>
                <g id="Group-34">
                    <g id="Group-5" transform="translate(34.881119, 0.000000)">
                        <mask id="mask-2" fill="white">
                            <use xlink:href="#path-1"></use>
                        </mask>
                        <g id="Clip-4"></g>
                        <path d="M12.9036084,13.4923378 L10.937035,7.49395946 C10.5617622,6.23152703 10.0626014,4.02166216 10.0626014,4.02166216 L10.0000559,4.02166216 C10.0000559,4.02166216 9.5008951,6.23152703 9.12562238,7.49395946 L7.12777622,13.4923378 L12.9036084,13.4923378 Z M7.90839161,0.1395 L12.1542657,0.1395 L19.9279441,22.5519324 L15.8071608,22.5519324 L13.9031329,16.8077432 L6.12945455,16.8077432 L4.2566993,22.5519324 L0.134713287,22.5519324 L7.90839161,0.1395 Z" id="Fill-3" fill="#FFFFFF" mask="url(#mask-2)"></path>
                    </g>
                    <polygon id="Fill-6" fill="#FFFFFF" points="57.1827832 6.45287838 61.1472028 6.45287838 61.1472028 12.6093649 63.0825035 12.6093649 66.9543077 6.45287838 71.3565455 6.45287838 66.2987832 14.1235541 66.2987832 14.1867973 71.9807972 22.5519324 67.3909231 22.5519324 63.2075944 16.0184189 61.1472028 16.0184189 61.1472028 22.5519324 57.1827832 22.5519324"></polygon>
                    <path d="M79.2853846,19.8692027 C81.5021399,19.8692027 82.9382797,17.5960946 82.9382797,15.6392027 L82.9382797,15.1977162 L82.2514825,15.1977162 C80.2536364,15.1977162 76.880993,15.4810946 76.880993,17.7542027 C76.880993,18.8281216 77.6928811,19.8692027 79.2853846,19.8692027 M82.2202098,12.4502838 L82.907007,12.4502838 L82.907007,12.2301486 C82.907007,10.1139324 81.5646853,9.38906757 79.9096364,9.38906757 C78.3496084,9.38906757 76.7571049,10.0519054 75.4761259,10.9348784 L74.0099161,8.06217568 C75.320965,6.98947297 77.8805175,6.07366216 80.2536364,6.07366216 C84.4056923,6.07366216 86.8726294,8.41001351 86.8726294,12.4819054 L86.8726294,22.5521757 L83.1884615,22.5521757 L83.1884615,21.1948784 C83.1884615,20.5320405 83.2810769,20.0273108 83.2810769,20.0273108 L83.2197343,20.0273108 C82.2514825,21.7312297 80.3474545,22.9316351 78.1932448,22.9316351 C75.320965,22.9316351 72.9478462,21.0367703 72.9478462,18.1008243 C72.9478462,13.2712297 78.6924056,12.4502838 82.2202098,12.4502838" id="Fill-8" fill="#FFFFFF"></path>
                    <path d="M101.0156,19.3323649 L101.0156,9.67317568 L97.0499776,9.67317568 L97.0499776,10.4308784 C97.0499776,12.8608784 96.7697259,16.554527 95.1146769,19.3323649 L101.0156,19.3323649 Z M91.1502573,19.3323649 C92.8979217,16.7442568 93.2731944,12.5775 93.2731944,9.79966216 L93.2731944,6.45263514 L104.98002,6.45263514 L104.98002,19.3323649 L107.258117,19.3323649 L107.258117,26.3402027 L103.668971,26.3402027 L103.668971,22.5516892 L92.8678517,22.5516892 L92.8678517,26.3402027 L89.1836839,26.3402027 L89.1836839,19.3323649 L91.1502573,19.3323649 Z" id="Fill-10" fill="#FFFFFF"></path>
                    <path d="M120.183978,12.5137703 C120.152705,10.3671486 118.77911,9.10471622 117.001376,9.10471622 C114.969852,9.10471622 113.534915,10.4620135 113.159642,12.5137703 L120.183978,12.5137703 Z M117.093992,6.07390541 C121.65139,6.07390541 124.148397,9.45133784 124.148397,13.7129595 C124.148397,14.2189054 124.085852,14.7552568 124.023306,15.2599865 L113.065824,15.2599865 C113.316006,18.0694459 115.438943,19.5216081 117.843334,19.5216081 C119.465908,19.5216081 121.119754,18.795527 122.400733,17.7544459 L123.961964,20.6259324 C122.338187,22.0780946 119.84118,22.9306622 117.560677,22.9306622 C112.286411,22.9306622 108.976313,19.0801216 108.976313,14.5022838 C108.976313,9.54741892 112.316481,6.07390541 117.093992,6.07390541 L117.093992,6.07390541 Z" id="Fill-12" fill="#FFFFFF"></path>
                    <path d="M128.238269,6.45287838 L132.733122,6.45287838 L136.104562,14.7547703 C136.479835,15.6389595 136.885178,16.8077432 136.885178,16.8077432 L136.947723,16.8077432 C136.947723,16.8077432 137.384338,15.6705811 137.729541,14.7547703 L141.162324,6.45287838 L145.595835,6.45287838 L147.031975,22.5519324 L143.222716,22.5519324 L142.66101,13.8401757 C142.629737,12.7662568 142.692283,11.0927432 142.692283,11.0927432 L142.629737,11.0927432 C142.629737,11.0927432 142.193122,12.2931486 141.695164,13.4290946 L138.571499,20.5317973 L135.292674,20.5317973 L132.172618,13.4607162 C131.7348,12.3563919 131.204366,11.0927432 131.204366,11.0927432 L131.141821,11.0927432 C131.141821,11.0927432 131.234436,12.7662568 131.171891,13.8401757 L130.611387,22.5519324 L126.802129,22.5519324 L128.238269,6.45287838 Z" id="Fill-14" fill="#FFFFFF"></path>
                    <mask id="mask-4" fill="white">
                        <use xlink:href="#path-3"></use>
                    </mask>
                    <g id="Clip-17"></g>
                    <path d="M150.653958,22.5522973 L154.61958,22.5522973 L154.61958,6.45324324 L150.653958,6.45324324 L150.653958,22.5522973 Z M150.653958,3.70702703 L154.61958,3.70702703 L154.61958,0.139864865 L150.653958,0.139864865 L150.653958,3.70702703 Z" id="Fill-16" fill="#FFFFFF" mask="url(#mask-4)"></path>
                    <path d="M167.199997,14.3131622 L167.199997,9.07248649 L165.139606,9.07248649 C163.422011,9.07248649 162.266123,9.79978378 162.266123,11.6301892 C162.266123,13.4605946 163.484557,14.3131622 165.108333,14.3131622 L167.199997,14.3131622 Z M160.799913,17.4072162 C161.173983,16.8076216 161.51678,16.4281622 161.51678,16.4281622 L161.51678,16.3965405 C159.739046,15.7337027 158.302906,13.9665405 158.302906,11.6618108 C158.302906,8.34762162 160.581004,6.45275676 164.016193,6.45275676 L171.164417,6.45275676 L171.164417,22.5518108 L167.199997,22.5518108 L167.199997,17.091 L165.139606,17.091 L161.580529,22.5518108 L157.302179,22.5518108 L160.799913,17.4072162 Z" id="Fill-18" fill="#FFFFFF" mask="url(#mask-4)"></path>
                    <path d="M2.97584056,42.1553919 C4.32537902,42.1553919 4.94361678,41.5801216 4.94361678,40.6922838 C4.94361678,39.7217432 4.22795245,39.1951216 2.9590014,39.1951216 L1.10549091,39.1951216 L1.10549091,42.1553919 L2.97584056,42.1553919 Z M2.84593846,38.3413378 C3.95130909,38.3413378 4.52023217,37.8159324 4.52023217,36.9268784 C4.52023217,36.0390405 3.93446993,35.6109324 2.77978462,35.6109324 L1.10549091,35.6109324 L1.10549091,38.3413378 L2.84593846,38.3413378 Z M0.00012027972,34.7571486 L2.9590014,34.7571486 C4.61765874,34.7571486 5.65807832,35.4966081 5.65807832,36.8612027 C5.65807832,37.7162027 5.21905734,38.3899865 4.42280559,38.685527 L4.42280559,38.7195811 C5.48006434,38.9336351 6.08146294,39.7387703 6.08146294,40.7093108 C6.08146294,42.1383649 4.95925315,43.0274189 3.12258182,43.0274189 L0.00012027972,43.0274189 L0.00012027972,34.7571486 Z" id="Fill-19" fill="#FFFFFF" mask="url(#mask-4)"></path>
                    <path d="M8.17661538,43.0272973 L9.28198601,43.0272973 L9.28198601,34.757027 L8.17661538,34.757027 L8.17661538,43.0272973 Z M8.1273007,32.8645946 L9.3300979,32.8645946 L9.3300979,31.4683784 L8.1273007,31.4683784 L8.1273007,32.8645946 Z" id="Fill-20" fill="#FFFFFF" mask="url(#mask-4)"></path>
                    <path d="M17.1680056,42.0735405 L17.1680056,35.7115135 L14.306551,35.7115135 L14.306551,36.2040811 C14.306551,37.4361081 14.1922853,40.2163784 12.972649,42.0735405 L17.1680056,42.0735405 Z M11.7854881,42.0735405 C13.1675021,40.248 13.2168168,37.2232703 13.2168168,36.1055676 L13.2168168,34.7567838 L18.2733762,34.7567838 L18.2733762,42.0735405 L19.4280615,42.0735405 L19.4280615,44.9997568 L18.3708028,44.9997568 L18.3708028,43.0270541 L11.8336,43.0270541 L11.8336,44.9997568 L10.7775441,44.9997568 L10.7775441,42.0735405 L11.7854881,42.0735405 Z" id="Fill-21" fill="#FFFFFF" mask="url(#mask-4)"></path>
                    <path d="M25.1483245,41.2349595 C25.7665622,41.8759054 26.7263944,42.2383378 27.6200727,42.2383378 C28.5305902,42.2383378 29.2618909,41.7773919 29.2618909,40.9053649 C29.2618909,39.0652297 24.9041566,39.5748243 24.9041566,36.8614459 C24.9041566,35.348473 26.1887441,34.5591486 27.6850238,34.5591486 C28.5799049,34.5591486 29.5385343,34.8242838 30.2060867,35.4640135 L29.6852755,36.3019865 C29.213779,35.8252297 28.3682126,35.5455 27.6357091,35.5455 C26.7745063,35.5455 25.9938909,35.9249595 25.9938909,36.8286081 C25.9938909,38.7198243 30.3684643,38.1603649 30.3684643,40.8895541 C30.3684643,42.2541486 29.213779,43.2246892 27.6044364,43.2246892 C26.5147021,43.2246892 25.3431776,42.8464459 24.5625622,42.0242838 L25.1483245,41.2349595 Z" id="Fill-22" fill="#FFFFFF" mask="url(#mask-4)"></path>
                    <path d="M32.6922685,35.7595541 L31.6193734,35.7595541 L31.6193734,34.8218514 L32.7091077,34.8218514 L32.7091077,32.4709054 L33.7976392,32.4709054 L33.7976392,34.8218514 L35.862842,34.8218514 L35.862842,35.7595541 L33.7976392,35.7595541 L33.7976392,39.9032027 C33.7976392,41.8260405 35.0172755,42.0899595 35.6511497,42.0899595 C35.7654154,42.0899595 35.8796811,42.0899595 36.0252196,42.0571216 L36.0252196,43.0605 C35.927793,43.077527 35.7654154,43.0921216 35.5537231,43.0921216 C34.6107301,43.0921216 32.6922685,42.7795541 32.6922685,40.0187432 L32.6922685,35.7595541 Z" id="Fill-23" fill="#FFFFFF" mask="url(#mask-4)"></path>
                    <path d="M38.967021,35.7595541 L37.9422378,35.7595541 L37.9422378,34.8218514 L38.967021,34.8218514 L38.967021,34.4448243 C38.967021,31.7302297 40.8854825,31.3860405 41.796,31.3860405 C41.9920559,31.3860405 42.1375944,31.4018514 42.299972,31.4346892 L42.299972,32.4222568 C42.235021,32.4052297 42.0894825,32.3894189 41.9102657,32.3894189 C41.2751888,32.3894189 40.0892308,32.6192838 40.0892308,34.4606351 L40.0892308,34.8218514 L42.1700699,34.8218514 L42.1700699,35.7595541 L40.0892308,35.7595541 L40.0892308,43.0276622 L38.967021,43.0276622 L38.967021,35.7595541 Z" id="Fill-24" fill="#FFFFFF" mask="url(#mask-4)"></path>
                    <path d="M46.0880615,42.2872297 C47.6649287,42.2872297 48.5922853,40.6429054 48.5922853,39.1956081 L48.5922853,38.8173649 L48.1207888,38.8173649 C46.8518378,38.8173649 44.2501874,38.8672297 44.2501874,40.7085811 C44.2501874,41.4820946 44.8684252,42.2872297 46.0880615,42.2872297 M48.1039497,37.929527 L48.5922853,37.929527 L48.5922853,37.7008784 C48.5922853,36.1052027 47.7298797,35.5627703 46.5751944,35.5627703 C45.7464671,35.5627703 44.9165371,35.8583108 44.2501874,36.3508784 L43.7462154,35.4970946 C44.3969287,34.9376351 45.551614,34.5593919 46.6401455,34.5593919 C48.6079217,34.5593919 49.6976559,35.6612838 49.6976559,37.7325 L49.6976559,43.0266892 L48.6416,43.0266892 L48.6416,42.0573649 C48.6416,41.6462838 48.6897119,41.3665541 48.6897119,41.3665541 L48.6572364,41.3665541 C48.2338517,42.3687162 47.2102713,43.2249324 45.8920056,43.2249324 C44.5099916,43.2249324 43.1279776,42.4027703 43.1279776,40.8070946 C43.1279776,38.0949324 46.5427189,37.929527 48.1039497,37.929527" id="Fill-25" fill="#FFFFFF" mask="url(#mask-4)"></path>
                    <path d="M52.2483077,31.4683784 L53.3536783,31.4683784 L53.3536783,40.8235135 C53.3536783,41.9095946 53.8576503,42.0737838 54.281035,42.0737838 C54.345986,42.0737838 54.4434126,42.0737838 54.5408392,42.0567568 L54.5408392,43.0601351 C54.4434126,43.0771622 54.3135105,43.092973 54.1342937,43.092973 C53.4679441,43.092973 52.2483077,42.8789189 52.2483077,41.0716216 L52.2483077,31.4683784 Z" id="Fill-26" fill="#FFFFFF" mask="url(#mask-4)"></path>
                    <path d="M59.9871049,34.5587838 C61.06,34.5587838 62.2471608,34.9382432 62.9784615,35.7433784 L62.4095385,36.5813514 C61.8406154,35.9902703 60.9300979,35.5621622 60.0195804,35.5621622 C58.231021,35.5621622 56.8321678,36.9267568 56.8321678,38.8994595 C56.8321678,40.8405405 58.231021,42.2051351 60.0520559,42.2051351 C60.995049,42.2051351 62.0198322,41.7940541 62.6693427,41.0704054 L63.1745175,41.9095946 C62.4588531,42.7147297 61.2392168,43.2243243 59.9871049,43.2243243 C57.5634685,43.2243243 55.6943217,41.4656757 55.6943217,38.8994595 C55.6943217,36.3514865 57.5803077,34.5587838 59.9871049,34.5587838" id="Fill-27" fill="#FFFFFF" mask="url(#mask-4)"></path>
                    <path d="M68.6352168,42.2052568 C70.3913007,42.2052568 71.8226294,40.7907973 71.8226294,38.8509324 C71.8226294,36.9767432 70.3913007,35.5622838 68.6352168,35.5622838 C66.8791329,35.5622838 65.4646434,36.9767432 65.4646434,38.8509324 C65.4646434,40.7907973 66.8791329,42.2052568 68.6352168,42.2052568 M68.6352168,34.5589054 C71.0263776,34.5589054 72.9604755,36.401473 72.9604755,38.8509324 C72.9604755,41.3502568 71.0263776,43.2244459 68.6352168,43.2244459 C66.2452587,43.2244459 64.3255944,41.3502568 64.3255944,38.8509324 C64.3255944,36.401473 66.2452587,34.5589054 68.6352168,34.5589054" id="Fill-28" fill="#FFFFFF" mask="url(#mask-4)"></path>
                    <path d="M75.0232727,34.7571486 L76.113007,34.7571486 L76.113007,36.0548514 C76.113007,36.4172838 76.0480559,36.7128243 76.0480559,36.7128243 L76.0793287,36.7128243 C76.3884476,35.9563378 77.4625455,34.5589054 79.381007,34.5589054 C81.4137343,34.5589054 82.1293986,35.726473 82.1293986,37.7660676 L82.1293986,43.0274189 L81.0228252,43.0274189 L81.0228252,38.0616081 C81.0228252,36.7626892 80.8111329,35.6109324 79.2342657,35.6109324 C77.495021,35.6109324 76.1286434,37.0594459 76.1286434,38.9822838 L76.1286434,43.0274189 L75.0232727,43.0274189 L75.0232727,34.7571486 Z" id="Fill-29" fill="#FFFFFF" mask="url(#mask-4)"></path>
                    <polygon id="Fill-30" fill="#FFFFFF" mask="url(#mask-4)" points="84.5662657 43.0272973 85.9001678 43.0272973 85.9001678 41.6627027 84.5662657 41.6627027"></polygon>
                    <path d="M92.1578406,34.5587838 C93.2319385,34.5587838 94.4190993,34.9382432 95.1504,35.7433784 L94.5814769,36.5813514 C94.0125538,35.9902703 93.1008336,35.5621622 92.1903161,35.5621622 C90.4017566,35.5621622 89.0041063,36.9267568 89.0041063,38.8994595 C89.0041063,40.8405405 90.4017566,42.2051351 92.2239944,42.2051351 C93.1669874,42.2051351 94.1905678,41.7940541 94.8412811,41.0704054 L95.3452531,41.9095946 C94.6307916,42.7147297 93.4099524,43.2243243 92.1578406,43.2243243 C89.735407,43.2243243 87.8662601,41.4656757 87.8662601,38.8994595 C87.8662601,36.3514865 89.7522462,34.5587838 92.1578406,34.5587838" id="Fill-31" fill="#FFFFFF" mask="url(#mask-4)"></path>
                    <path d="M100.806554,42.2052568 C102.562638,42.2052568 103.993966,40.7907973 103.993966,38.8509324 C103.993966,36.9767432 102.562638,35.5622838 100.806554,35.5622838 C99.0504699,35.5622838 97.6359804,36.9767432 97.6359804,38.8509324 C97.6359804,40.7907973 99.0504699,42.2052568 100.806554,42.2052568 M100.806554,34.5589054 C103.196512,34.5589054 105.133015,36.401473 105.133015,38.8509324 C105.133015,41.3502568 103.196512,43.2244459 100.806554,43.2244459 C98.4165958,43.2244459 96.4981343,41.3502568 96.4981343,38.8509324 C96.4981343,36.401473 98.4165958,34.5589054 100.806554,34.5589054" id="Fill-32" fill="#FFFFFF" mask="url(#mask-4)"></path>
                    <path d="M107.194008,34.7571486 L108.283743,34.7571486 L108.283743,36.0548514 C108.283743,36.4172838 108.218792,36.7128243 108.218792,36.7128243 L108.251267,36.7128243 C108.657813,35.5951216 109.976078,34.5589054 111.259463,34.5589054 C112.772582,34.5589054 113.551994,35.2837703 113.780526,36.6313378 L113.813001,36.6313378 C114.267659,35.5793108 115.45482,34.5589054 116.821197,34.5589054 C118.80461,34.5589054 119.537113,35.726473 119.537113,37.7660676 L119.537113,43.0274189 L118.43054,43.0274189 L118.43054,38.0445811 C118.43054,36.6799865 118.153897,35.5951216 116.674456,35.5951216 C115.032638,35.5951216 113.927267,37.3209324 113.927267,39.0321486 L113.927267,43.0274189 L112.820694,43.0274189 L112.820694,38.0445811 C112.820694,36.795527 112.641477,35.5951216 111.097085,35.5951216 C109.438428,35.5951216 108.300582,37.3549865 108.300582,39.0321486 L108.300582,43.0274189 L107.194008,43.0274189 L107.194008,34.7571486 Z" id="Fill-33" fill="#FFFFFF" mask="url(#mask-4)"></path>
                </g>
            </g>
        </g>
    </g>
</svg>