<?xml version="1.0" encoding="UTF-8"?>
<svg width="212px" height="57px" viewBox="0 0 212 57" version="1.1" xmlns="http://www.w3.org/2000/svg" xmlns:xlink="http://www.w3.org/1999/xlink">
    <!-- Generator: Sketch 46.2 (44496) - http://www.bohemiancoding.com/sketch -->
    <title>logo_academy</title>
    <desc>Created with Sketch.</desc>
    <defs></defs>
    <g id="mainpage" stroke="none" stroke-width="1" fill="none" fill-rule="evenodd">
        <g id="landing-v4.2" transform="translate(-1048.000000, -8542.000000)" fill="#FFFFFF">
            <g id="Group-7" transform="translate(-30.000000, 8472.000000)">
                <path d="M1078.20542,97.5680017 L1083.22698,97.5680017 L1083.22698,70 L1078.20542,70 L1078.20542,97.5680017 Z M1096.18497,74.3099312 L1087.11797,74.3099312 L1087.11797,70 L1110.23453,70 L1110.23453,74.3099312 L1101.16754,74.3099312 L1101.16754,97.5680017 L1096.18497,97.5680017 L1096.18497,74.3099312 M1137.51798,86.4244134 L1135.06643,79.046218 C1134.59861,77.4933862 1133.97635,74.7751824 1133.97635,74.7751824 L1133.89838,74.7751824 C1133.89838,74.7751824 1133.27612,77.4933862 1132.8083,79.046218 L1130.31776,86.4244134 L1137.51798,86.4244134 Z M1131.29089,70 L1136.58384,70 L1146.27459,97.5680017 L1141.13758,97.5680017 L1138.7625,90.5024671 L1129.07325,90.5024671 L1126.73715,97.5680017 L1121.60014,97.5680017 L1131.29089,70 L1131.29089,70 Z M1158.37791,77.2989082 C1161.06337,77.2989082 1164.0997,78.1920109 1166.00696,80.2504855 L1163.78782,83.6284185 C1162.5433,82.3867514 1160.59705,81.4936486 1158.6508,81.4936486 C1154.99222,81.4936486 1152.61864,84.249252 1152.61864,87.6286809 C1152.61864,90.9662222 1154.99222,93.8400084 1158.80674,93.8400084 C1160.90743,93.8400084 1163.16556,92.7539237 1164.64399,91.3162826 L1166.55125,94.8109023 C1164.68297,96.7915857 1161.57018,98.0347488 1158.37791,98.0347488 C1151.80145,98.0347488 1147.59858,93.4136528 1147.59858,87.6675765 C1147.59858,82.036691 1151.80145,77.2989082 1158.37791,77.2989082 M1176.5149,94.26786 C1179.27683,94.26786 1181.06863,91.471865 1181.06863,89.064826 L1181.06863,88.5217836 L1180.21246,88.5217836 C1177.72043,88.5217836 1173.51755,88.870348 1173.51755,91.666343 C1173.51755,92.9872973 1174.52966,94.26786 1176.5149,94.26786 Z M1180.17348,85.1438507 L1181.02815,85.1438507 L1181.02815,84.8715815 C1181.02815,82.2700646 1179.3563,81.3769618 1177.29309,81.3769618 C1175.34685,81.3769618 1173.36311,82.1922734 1171.76623,83.2783581 L1169.93694,79.7463388 C1171.57131,78.4253845 1174.76357,77.2989082 1177.72043,77.2989082 C1182.89793,77.2989082 1185.97174,80.1726943 1185.97174,85.1812503 L1185.97174,97.5680017 L1181.37901,97.5680017 L1181.37901,95.898483 C1181.37901,95.0831715 1181.49597,94.4623379 1181.49597,94.4623379 L1181.418,94.4623379 C1180.21246,96.5582122 1177.83888,98.0347488 1175.15342,98.0347488 C1171.57131,98.0347488 1168.61445,95.704005 1168.61445,92.0926985 C1168.61445,86.1521442 1175.77568,85.1438507 1180.17348,85.1438507 L1180.17348,85.1438507 Z M1199.82638,93.878904 C1202.39488,93.878904 1204.80895,92.0164033 1204.80895,87.6286809 C1204.80895,84.5604168 1203.21207,81.5310482 1199.86686,81.5310482 C1197.1814,81.5310482 1194.88579,83.7451052 1194.88579,87.6675765 C1194.88579,91.4329694 1196.90851,93.878904 1199.82638,93.878904 Z M1198.89374,77.2989082 C1201.11138,77.2989082 1203.40699,78.1157157 1204.692,79.9019212 L1204.76847,79.9019212 C1204.76847,79.9019212 1204.692,79.3962784 1204.692,78.7365493 L1204.692,70 L1209.5951,70 L1209.5951,97.5680017 L1204.96339,97.5680017 L1204.96339,95.8595874 C1204.96339,95.1220671 1205.04136,94.6179203 1205.04136,94.6179203 L1204.96339,94.6179203 C1203.79684,96.6360034 1201.53872,98.0347488 1198.69881,98.0347488 C1193.36688,98.0347488 1189.90322,93.8026088 1189.90322,87.6675765 C1189.90322,81.3769618 1193.63977,77.2989082 1198.89374,77.2989082 L1198.89374,77.2989082 Z M1227.6931,85.2201459 C1227.65262,82.5812293 1225.94028,81.0269015 1223.72264,81.0269015 C1221.19311,81.0269015 1219.40281,82.6964201 1218.93649,85.2201459 L1227.6931,85.2201459 Z M1223.83959,77.2989082 C1229.52089,77.2989082 1232.63369,81.454753 1232.63369,86.6951866 C1232.63369,87.3175161 1232.55722,87.9772453 1232.47925,88.5980788 L1218.81803,88.5980788 C1219.12991,92.0552989 1221.77639,93.8400084 1224.77373,93.8400084 C1226.79795,93.8400084 1228.85965,92.9469057 1230.45503,91.666343 L1232.40128,95.1998583 C1230.37856,96.9860637 1227.26427,98.0347488 1224.42286,98.0347488 C1217.84641,98.0347488 1213.72,93.296966 1213.72,87.6675765 C1213.72,81.5714398 1217.88539,77.2989082 1223.83959,77.2989082 L1223.83959,77.2989082 Z M1236.76009,77.7656553 L1241.50876,77.7656553 L1241.50876,80.0949032 C1241.50876,80.8713191 1241.43229,81.4936486 1241.43229,81.4936486 L1241.50876,81.4936486 C1242.44289,79.5518608 1244.89445,77.2989082 1248.00724,77.2989082 C1251.00458,77.2989082 1252.95083,78.6976537 1253.76801,81.3769618 L1253.84598,81.3769618 C1254.93456,79.3184872 1257.50307,77.2989082 1260.61736,77.2989082 C1264.78275,77.2989082 1267.11585,79.629652 1267.11585,84.8326859 L1267.11585,97.5680017 L1262.21275,97.5680017 L1262.21275,85.7631883 C1262.21275,83.5117317 1261.74493,81.8048134 1259.4898,81.8048134 C1256.10411,81.8048134 1254.43076,85.2201459 1254.43076,88.67587 L1254.43076,97.5680017 L1249.48717,97.5680017 L1249.48717,85.7631883 C1249.48717,83.6284185 1249.13631,81.8048134 1246.80171,81.8048134 C1243.33805,81.8048134 1241.70368,85.3757283 1241.70368,88.67587 L1241.70368,97.5680017 L1236.76009,97.5680017 L1236.76009,77.7656553 M1273.69381,101.568264 C1275.05528,101.568264 1276.41975,100.751457 1277.15897,99.0041468 L1277.89818,97.2568369 L1269.52992,77.7656553 L1275.09576,77.7656553 L1279.25965,89.1815128 C1279.6495,90.2287019 1279.99887,91.860821 1279.99887,91.860821 L1280.07684,91.860821 C1280.07684,91.860821 1280.4262,90.3079891 1280.73808,89.259304 L1284.63058,77.7656553 L1290,77.7656553 L1281.16692,100.558475 C1279.80394,104.168285 1276.92356,105.721117 1274.00569,105.721117 C1271.6321,105.721117 1269.88078,104.440554 1269.88078,104.440554 L1271.51515,100.751457 C1271.51515,100.751457 1272.60523,101.568264 1273.69381,101.568264 M1082.58073,121.762558 C1084.38453,121.762558 1085.88545,120.265078 1085.88545,117.675529 C1085.88545,115.187707 1084.54797,113.591491 1082.6422,113.591491 C1080.93886,113.591491 1079.33748,114.804735 1079.33748,117.696473 C1079.33748,119.738491 1080.41257,121.762558 1082.58073,121.762558 Z M1078,108.535064 L1079.37797,108.535064 L1079.37797,113.5511 C1079.37797,114.035799 1079.31649,114.400819 1079.31649,114.400819 L1079.35847,114.400819 C1079.96574,113.145688 1081.28373,112.33636 1082.84463,112.33636 C1085.60206,112.33636 1087.28441,114.521994 1087.28441,117.656081 C1087.28441,120.891895 1085.37865,122.99525 1082.68269,122.99525 C1081.24325,122.99525 1079.94625,122.185922 1079.297,120.912839 L1079.25651,120.912839 C1079.25651,120.912839 1079.31649,121.256916 1079.31649,121.741615 L1079.31649,122.7529 L1078,122.7529 L1078,108.535064 L1078,108.535064 Z M1090.1393,125.767309 C1091.02996,125.767309 1091.67921,125.037268 1092.08555,124.108262 L1092.69282,122.652669 L1088.45696,112.580206 L1089.97737,112.580206 L1092.95671,120.001785 C1093.15914,120.507427 1093.34207,121.074406 1093.34207,121.074406 L1093.38255,121.074406 C1093.38255,121.074406 1093.525,120.507427 1093.72742,120.001785 L1096.66628,112.580206 L1098.14621,112.580206 L1093.11865,124.877198 C1092.59086,126.171225 1091.55776,127 1090.19928,127 C1089.14519,127 1088.39548,126.394126 1088.39548,126.394126 L1088.92327,125.300562 C1088.92327,125.300562 1089.49006,125.767309 1090.1393,125.767309 M1104.68818,120.547819 C1105.45888,121.337699 1106.65542,121.783502 1107.76949,121.783502 C1108.90455,121.783502 1109.81769,121.216524 1109.81769,120.143903 C1109.81769,117.878983 1104.38529,118.5058 1104.38529,115.169755 C1104.38529,113.30875 1105.98667,112.33636 1107.85045,112.33636 C1108.96602,112.33636 1110.16256,112.660989 1110.99324,113.449373 L1110.34399,114.481602 C1109.75622,113.89368 1108.70212,113.5511 1107.79048,113.5511 C1106.71539,113.5511 1105.74227,114.016351 1105.74227,115.127867 C1105.74227,117.454123 1111.19566,116.76597 1111.19566,120.122959 C1111.19566,121.801454 1109.75622,122.99525 1107.74999,122.99525 C1106.39152,122.99525 1104.93108,122.531494 1103.95946,121.520209 L1104.68818,120.547819 M1114.05206,113.812897 L1112.71457,113.812897 L1112.71457,112.660989 L1114.07305,112.660989 L1114.07305,109.767755 L1115.43152,109.767755 L1115.43152,112.660989 L1118.00603,112.660989 L1118.00603,113.812897 L1115.43152,113.812897 L1115.43152,118.911212 C1115.43152,121.276363 1116.95193,121.600992 1117.74213,121.600992 C1117.88457,121.600992 1118.02552,121.600992 1118.20845,121.559105 L1118.20845,122.793292 C1118.08699,122.814235 1117.88457,122.833683 1117.62068,122.833683 C1116.44513,122.833683 1114.05206,122.449215 1114.05206,119.053331 L1114.05206,113.812897 M1121.87603,113.812897 L1120.59852,113.812897 L1120.59852,112.660989 L1121.87603,112.660989 L1121.87603,112.195738 C1121.87603,108.858196 1124.2676,108.434833 1125.40267,108.434833 C1125.64557,108.434833 1125.8285,108.452785 1126.03092,108.494672 L1126.03092,109.707916 C1125.94995,109.688468 1125.76702,109.667524 1125.54361,109.667524 C1124.75342,109.667524 1123.27349,109.951761 1123.27349,112.215186 L1123.27349,112.660989 L1125.86898,112.660989 L1125.86898,113.812897 L1123.27349,113.812897 L1123.27349,122.7529 L1121.87603,122.7529 L1121.87603,113.812897 M1130.7526,121.843342 C1132.71834,121.843342 1133.87439,119.820771 1133.87439,118.040549 L1133.87439,117.575298 L1133.28662,117.575298 C1131.70473,117.575298 1128.46148,117.636633 1128.46148,119.901554 C1128.46148,120.853 1129.23218,121.843342 1130.7526,121.843342 Z M1133.26562,116.483229 L1133.87439,116.483229 L1133.87439,116.200488 C1133.87439,114.239253 1132.7993,113.570547 1131.35986,113.570547 C1130.32676,113.570547 1129.29216,113.935568 1128.46148,114.541441 L1127.83322,113.49126 C1128.64441,112.803107 1130.08385,112.33636 1131.44233,112.33636 C1133.89388,112.33636 1135.25236,113.691722 1135.25236,116.24088 L1135.25236,122.7529 L1133.93437,122.7529 L1133.93437,121.559105 C1133.93437,121.053462 1133.99584,120.710881 1133.99584,120.710881 L1133.95536,120.710881 C1133.42756,121.943573 1132.15155,122.99525 1130.50969,122.99525 C1128.78686,122.99525 1127.06252,121.983964 1127.06252,120.022728 C1127.06252,116.685187 1131.32088,116.483229 1133.26562,116.483229 L1133.26562,116.483229 Z M1138.43263,108.535064 L1139.81059,108.535064 L1139.81059,120.043672 C1139.81059,121.37809 1140.43885,121.580048 1140.96664,121.580048 C1141.04611,121.580048 1141.16757,121.580048 1141.29052,121.559105 L1141.29052,122.793292 C1141.16757,122.814235 1141.00713,122.833683 1140.78372,122.833683 C1139.95154,122.833683 1138.43263,122.57039 1138.43263,120.347357 L1138.43263,108.535064 M1148.07989,112.33636 C1149.41738,112.33636 1150.8973,112.803107 1151.80895,113.793449 L1151.09973,114.824182 C1150.3905,114.097134 1149.25544,113.570547 1148.12038,113.570547 C1145.89074,113.570547 1144.14691,115.249042 1144.14691,117.675529 C1144.14691,120.06312 1145.89074,121.741615 1148.16086,121.741615 C1149.33641,121.741615 1150.61391,121.235972 1151.4236,120.347357 L1152.05336,121.37809 C1151.1612,122.368432 1149.64079,122.99525 1148.07989,122.99525 C1145.05856,122.99525 1142.72846,120.832056 1142.72846,117.675529 C1142.72846,114.541441 1145.07955,112.33636 1148.07989,112.33636 M1158.86072,121.741615 C1161.04988,121.741615 1162.83419,120.001785 1162.83419,117.615689 C1162.83419,115.311873 1161.04988,113.570547 1158.86072,113.570547 C1156.67157,113.570547 1154.90825,115.311873 1154.90825,117.615689 C1154.90825,120.001785 1156.67157,121.741615 1158.86072,121.741615 Z M1158.86072,112.33636 C1161.84157,112.33636 1164.25264,114.602777 1164.25264,117.615689 C1164.25264,120.689938 1161.84157,122.99525 1158.86072,122.99525 C1155.87988,122.99525 1153.4883,120.689938 1153.4883,117.615689 C1153.4883,114.602777 1155.87988,112.33636 1158.86072,112.33636 L1158.86072,112.33636 Z M1166.82414,112.580206 L1168.18262,112.580206 L1168.18262,114.177917 C1168.18262,114.622225 1168.10015,114.987245 1168.10015,114.987245 L1168.14063,114.987245 C1168.52599,114.056742 1169.86497,112.33636 1172.25654,112.33636 C1174.79056,112.33636 1175.68122,113.772505 1175.68122,116.281271 L1175.68122,122.7529 L1174.30325,122.7529 L1174.30325,116.644796 C1174.30325,115.04858 1174.03935,113.630387 1172.07361,113.630387 C1169.90395,113.630387 1168.20211,115.412104 1168.20211,117.777256 L1168.20211,122.7529 L1166.82414,122.7529 L1166.82414,112.580206 M1178.71904,122.7529 L1180.3804,122.7529 L1180.3804,121.074406 L1178.71904,121.074406 L1178.71904,122.7529 Z M1188.18488,112.33636 C1189.52236,112.33636 1191.00379,112.803107 1191.91544,113.793449 L1191.20621,114.824182 C1190.49699,114.097134 1189.36043,113.570547 1188.22537,113.570547 C1185.99573,113.570547 1184.2534,115.249042 1184.2534,117.675529 C1184.2534,120.06312 1185.99573,121.741615 1188.26735,121.741615 C1189.44289,121.741615 1190.7189,121.235972 1191.53009,120.347357 L1192.15834,121.37809 C1191.26619,122.368432 1189.74578,122.99525 1188.18488,122.99525 C1185.16505,122.99525 1182.83345,120.832056 1182.83345,117.675529 C1182.83345,114.541441 1185.18604,112.33636 1188.18488,112.33636 M1198.96571,121.741615 C1201.15486,121.741615 1202.94067,120.001785 1202.94067,117.615689 C1202.94067,115.311873 1201.15486,113.570547 1198.96571,113.570547 C1196.77656,113.570547 1195.01474,115.311873 1195.01474,117.615689 C1195.01474,120.001785 1196.77656,121.741615 1198.96571,121.741615 Z M1198.96571,112.33636 C1201.94656,112.33636 1204.35913,114.602777 1204.35913,117.615689 C1204.35913,120.689938 1201.94656,122.99525 1198.96571,122.99525 C1195.98636,122.99525 1193.59479,120.689938 1193.59479,117.615689 C1193.59479,114.602777 1195.98636,112.33636 1198.96571,112.33636 L1198.96571,112.33636 Z M1206.92913,112.580206 L1208.28761,112.580206 L1208.28761,114.177917 C1208.28761,114.622225 1208.20664,114.987245 1208.20664,114.987245 L1208.24712,114.987245 C1208.75393,113.612435 1210.39579,112.33636 1211.99717,112.33636 C1213.88344,112.33636 1214.85507,113.227967 1215.13846,114.885518 L1215.18044,114.885518 C1215.74722,113.591491 1217.22715,112.33636 1218.93049,112.33636 C1221.40303,112.33636 1222.31618,113.772505 1222.31618,116.281271 L1222.31618,122.7529 L1220.93671,122.7529 L1220.93671,116.623852 C1220.93671,114.945357 1220.59185,113.612435 1218.74756,113.612435 C1216.69935,113.612435 1215.32288,115.735237 1215.32288,117.838591 L1215.32288,122.7529 L1213.94342,122.7529 L1213.94342,116.623852 C1213.94342,115.087476 1213.72,113.612435 1211.79475,113.612435 C1209.72705,113.612435 1208.3086,115.775629 1208.3086,117.838591 L1208.3086,122.7529 L1206.92913,122.7529 L1206.92913,112.580206" id="logo_academy"></path>
            </g>
        </g>
    </g>
</svg>