<svg width="260" height="80" viewBox="0 0 260 80" fill="none" xmlns="http://www.w3.org/2000/svg">
<path opacity="0.7" fill-rule="evenodd" clip-rule="evenodd" d="M99.7347 31.9861C99.5295 31.786 99.2467 31.6712 98.9558 31.6712H94.8322C94.542 31.6712 94.2584 31.786 94.0554 31.9861C93.8503 32.1877 93.7316 32.4646 93.7316 32.7473V55.1426C93.7316 55.4267 93.8503 55.7043 94.0554 55.9045C94.2584 56.1039 94.542 56.2187 94.8322 56.2187H98.9558C99.2511 56.2187 99.5273 56.106 99.7332 55.9045C99.9406 55.7014 100.056 55.431 100.056 55.1426V32.7473C100.056 32.4646 99.9377 32.1877 99.7347 31.9861ZM83.4481 56.2187C83.1593 56.2187 82.8758 56.1039 82.6714 55.903C82.4654 55.7043 82.3482 55.4267 82.3482 55.1426V42.1548C82.3562 39.9797 81.6579 38.8542 81.0372 38.0737C80.4326 37.3068 78.9538 36.5464 77.0603 36.5278H76.7209C73.0598 36.5278 70.6482 39.3233 70.5998 43.7789V55.1426C70.5998 55.4296 70.4855 55.7 70.2781 55.903C70.0692 56.106 69.7938 56.2187 69.5006 56.2187H65.3749C65.0862 56.2187 64.8026 56.1039 64.5981 55.903C64.3937 55.7043 64.275 55.4267 64.275 55.1426V32.7465C64.275 32.4639 64.3937 32.1863 64.5981 31.9861C64.8026 31.7853 65.0862 31.6705 65.3749 31.6705H69.5006C69.7894 31.6705 70.0729 31.7853 70.2781 31.9861C70.4825 32.1863 70.5998 32.4639 70.5998 32.7465V33.9058C72.7697 32.0894 74.9095 30.956 78.2166 30.9625H78.4841C82.1356 30.9445 84.7093 32.1805 86.2504 34.2257C87.7812 36.2595 88.665 38.7939 88.6723 41.8212V55.1426C88.6723 55.4296 88.5579 55.7 88.3506 55.903C88.1424 56.106 87.8662 56.2187 87.5731 56.2187H83.4481ZM123.117 48.6706C122.029 49.926 120.13 50.4726 117.726 50.4769C115.319 50.474 113.532 49.7904 112.324 48.6325C111.118 47.4697 111.143 45.7631 111.137 43.4367C111.143 41.1103 111.118 39.403 112.324 38.2408C113.532 37.083 115.319 36.3993 117.726 36.3958C120.13 36.3993 121.907 37.0787 123.102 38.2379C123.489 38.6138 124.025 38.8334 124.657 38.4675C125.872 37.7623 127.806 36.5722 128.193 36.3369C128.76 35.9919 128.846 35.2817 128.504 34.8046C128.294 34.5507 128.065 34.3054 127.817 34.0715C125.377 31.7609 121.879 30.4926 117.726 30.4954C113.571 30.4926 110.064 31.7594 107.613 34.0701C105.158 36.3757 104.552 39.682 104.558 43.5206C104.552 47.3556 105.16 50.6297 107.62 52.8937C110.078 55.162 113.578 56.3779 117.726 56.3765H117.732C121.875 56.3765 125.364 55.1591 127.81 52.8908C128.059 52.6613 128.288 52.4202 128.5 52.1677C128.785 51.8987 129.037 51.002 128.253 50.5637C127.279 50.0214 125.592 48.9417 124.743 48.4575C124.144 48.1175 123.563 48.1548 123.117 48.6706ZM166.619 31.1683H162.102V43.6591C162.102 49.129 158.145 52.6383 152.835 52.6383C148.319 52.6383 146.828 50.4052 146.828 45.4367V31.1683H142.311V46.7136C142.311 53.596 145.756 56.3765 151.81 56.3765C156.049 56.3765 159.354 54.827 162.102 51.5443V55.6928H166.619V31.1683ZM179.246 52.6383C175.707 52.6383 173.704 51.0888 173.704 48.7645C173.704 45.7559 176.406 45.3449 181.295 44.799C185.066 44.3879 187.581 43.8865 188.884 43.1117V46.7588C188.884 49.8578 185.019 52.6383 179.246 52.6383ZM181.946 30.3943C174.263 30.3943 170.212 33.2659 169.886 39.055H174.589C174.822 35.5443 177.197 34.1318 182.272 34.1318C186.789 34.1318 188.884 35.2717 188.884 37.9151C188.884 40.8786 185.998 40.7415 180.456 41.3341C173.332 42.1096 168.907 43.2939 168.907 48.9919C168.907 53.5508 172.214 56.3765 178.501 56.3765C183.111 56.3765 186.743 54.7359 189.024 51.9102C189.49 54.5537 190.794 55.9662 193.401 55.9662C194.24 55.9662 195.544 55.875 196.988 55.6469V52.0924C196.428 52.1835 196.01 52.228 195.636 52.228C193.867 52.228 193.401 50.9984 193.401 48.446V38.5077C193.401 32.5356 190.282 30.3943 181.946 30.3943ZM135.627 49.2036C133.604 49.2036 131.963 50.809 131.963 52.7904C131.963 54.771 133.604 56.3765 135.627 56.3765C137.651 56.3765 139.291 54.771 139.291 52.7904C139.291 50.809 137.651 49.2036 135.627 49.2036ZM100.558 25.5786C100.558 27.56 98.9176 29.1655 96.8943 29.1655C94.8703 29.1655 93.2303 27.56 93.2303 25.5786C93.2303 23.5973 94.8703 21.9918 96.8943 21.9918C98.9176 21.9918 100.558 23.5973 100.558 25.5786Z" fill="white"/>
</svg>
