<svg width="260" height="80" viewBox="0 0 260 80" fill="none" xmlns="http://www.w3.org/2000/svg">
<path opacity="0.7" fill-rule="evenodd" clip-rule="evenodd" d="M107.254 67.3526C112.993 72.7891 127.78 72.2504 137.503 69.2301C147.226 66.2098 155.356 59.5048 150.596 55.2074C144.859 50.0273 130.648 50.3663 120.526 53.415C110.31 56.4919 102.603 62.9479 107.254 67.3526ZM102.7 69.4927C96.8377 64.0328 103.869 55.952 118.4 51.4389C132.934 46.9282 149.464 47.6937 155.324 53.1524C161.186 58.6123 154.158 66.6943 139.624 71.2075C125.093 75.7218 108.561 74.9526 102.7 69.4927ZM26.6911 33.4724C26.6911 40.0507 32.8678 45.3823 40.4898 45.3823C48.1092 45.3823 54.286 40.052 54.286 33.4724C54.286 26.8955 48.1092 21.5626 40.4898 21.5626C32.8678 21.5626 26.6911 26.8955 26.6911 33.4724ZM53.8601 20.4353C53.8601 19.5338 55.1617 18.8008 56.7771 18.8008C58.3912 18.8008 59.6764 19.5325 59.6764 20.4353V46.6769C59.6764 47.5784 58.3874 48.3127 56.7733 48.3127C55.2285 48.3127 53.9647 47.6394 53.8576 46.7923V44.6545C50.245 47.044 45.4481 48.4995 40.1823 48.4995C28.9377 48.4995 19.8226 41.8577 19.8226 33.6618C19.8226 25.4686 28.9377 18.8242 40.1823 18.8242C45.4468 18.8242 50.2438 20.281 53.8588 22.6692V20.4353H53.8601ZM152.669 33.6495C152.669 25.4501 161.904 18.8008 173.299 18.8008C184.691 18.8008 193.63 25.1442 193.63 33.3462C193.63 33.7571 193.374 34.8744 190.872 34.8744H160.593C160.593 34.8744 159.942 34.8653 159.727 35.3112C159.537 35.7039 159.832 36.1537 159.889 36.4285C161.298 41.5301 166.49 45.5287 173.3 45.5287C177.914 45.5287 182.5 44.1509 186.612 42.3376L190.622 40.3558C191.409 39.9631 192.31 40.4763 192.872 41.3875C193.414 42.2624 193.046 43.2125 192.335 43.6467L190.383 44.6745C187.928 45.9331 181.552 48.4995 173.299 48.4995C161.904 48.4995 152.669 41.8502 152.669 33.6495ZM186.469 31.3916C186.747 31.0339 186.687 30.7085 186.518 30.2212C184.808 25.3308 179.537 21.7716 173.299 21.7716C166.846 21.7716 161.957 25.1701 159.994 30.2186C159.9 30.5439 159.607 30.9613 159.833 31.3333C160.105 31.7818 160.592 31.7247 160.592 31.7247H185.432C185.432 31.7247 186.206 31.7351 186.469 31.3916ZM106.173 33.6489C106.173 25.4498 115.537 18.8021 127.09 18.8021L127.205 18.8008H146.637C147.522 18.8008 148.24 19.6628 148.24 20.7424C148.24 21.7754 147.584 22.6204 146.749 22.693H141.206C145.386 25.4057 148.01 29.3108 148.01 33.6489C148.01 41.8505 138.645 48.4995 127.09 48.4995C115.537 48.4995 106.173 41.8505 106.173 33.6489ZM113.095 33.6489C113.095 40.2097 119.36 45.5275 127.09 45.5275C134.822 45.5275 141.09 40.2097 141.09 33.6489C141.09 27.0906 134.822 21.7728 127.09 21.7728C119.36 21.7715 113.095 27.0906 113.095 33.6489ZM101.738 31.1449C101.751 31.2291 101.74 45.8132 101.74 45.8132C101.74 46.6868 100.421 47.3983 98.7693 47.3983C97.1884 47.3983 95.895 46.7459 95.7854 45.925V43.1709L95.7686 38.1591L95.7751 31.16C95.7751 31.16 95.8395 29.1135 95.4643 28.0199C95.3727 27.7509 95.3276 27.453 95.0658 27.0884C92.675 23.7272 88.3628 21.4984 83.4316 21.4984C78.5352 21.4984 74.2423 23.7096 71.836 27.0319C71.5936 27.3688 71.3692 27.717 71.1642 28.0765V38.2848L71.1913 43.1948L71.1642 45.8144C71.1642 46.688 69.845 47.3995 68.1931 47.3995C66.6147 47.3995 65.3187 46.7471 65.2117 45.9263V20.3847C65.2117 19.5111 66.5464 18.8008 68.1983 18.8008C69.8502 18.8008 71.1655 19.5098 71.1655 20.3847V20.9906C71.1655 20.9906 71.1461 21.4218 71.3963 21.5625C71.6748 21.7209 71.8335 21.6857 72.1868 21.4884C75.1785 19.8203 79.0368 18.8511 83.5696 18.8511C100.144 18.8537 101.693 27.4831 101.738 31.1449ZM199.165 8.32813C199.165 7.43073 200.406 6.70142 201.941 6.70142C203.477 6.70142 204.7 7.42943 204.7 8.32813V46.8689C204.7 47.7676 203.475 48.4995 201.939 48.4995C200.469 48.4995 199.267 47.8296 199.165 46.9852V8.32813ZM211.733 7.99171H208.021V6.70142H216.878V7.99171H213.168V16.6009H211.733V7.99171ZM214.665 10.1153H215.887V11.5257C216.498 10.5031 216.988 10.0013 217.693 10.0013C218.142 10.0013 218.591 10.2167 219.092 10.6336L218.427 11.7817C218.045 11.4383 217.706 11.2672 217.285 11.2672C216.647 11.2672 216.103 11.8552 215.886 12.9323V16.6009H214.664V10.1153H214.665ZM222.555 15.9682C221.967 16.4058 221.459 16.601 220.818 16.5997C219.708 16.5997 219.092 15.9943 219.092 15.0632C219.092 14.1607 219.761 13.482 221.084 13.0183L222.514 12.5099C222.527 12.4117 222.527 12.3259 222.527 12.2414C222.527 11.4806 222.193 11.171 221.39 11.171C220.724 11.171 220.001 11.4681 219.279 12.0599V10.8056C219.907 10.2685 220.696 10.0013 221.538 10.0013C223.13 10.0013 223.757 10.721 223.757 12.2861V14.9787C223.757 15.3889 223.811 15.6003 223.998 15.6003C224.198 15.6003 224.373 15.4585 224.627 15.2472V16.0229C224.185 16.4195 223.745 16.6009 223.277 16.6009C222.823 16.6009 222.596 16.4182 222.555 15.9682ZM222.516 15.19H222.517V13.3291C221.087 13.7952 220.377 14.1756 220.377 14.8531C220.377 15.374 220.712 15.6699 221.287 15.6699C221.699 15.6699 222.114 15.5157 222.516 15.19ZM225.799 10.3503H226.776V16.6009H225.799V10.3503ZM226.288 7.80137C226.591 7.80137 226.841 8.10547 226.841 8.5085C226.841 8.9091 226.591 9.21443 226.288 9.21443C225.985 9.21443 225.734 8.9091 225.734 8.5085C225.734 8.10547 225.984 7.80137 226.288 7.80137ZM229.056 10.1016H230.345V10.8964C230.973 10.2882 231.589 10.0013 232.332 10.0013C233.732 10.0013 234.59 10.8659 234.59 12.2917V16.6009H233.303V12.6218C233.303 11.5718 232.876 11.0805 231.946 11.0805C231.274 11.0805 230.815 11.3255 230.344 11.9172V16.5997H229.055V10.1016H229.056ZM235.698 14.6927C236.488 15.2261 237.197 15.4649 237.737 15.4649C238.39 15.4649 238.765 15.1976 238.765 14.7892C238.765 14.2992 238.182 14.1173 237.28 13.6396C236.281 13.1186 235.753 12.657 235.753 11.7288C235.753 10.6918 236.531 10.0013 237.864 10.0013C238.571 10.0013 239.21 10.1708 239.833 10.5223V11.7561C239.114 11.3514 238.474 11.1262 237.876 11.1262C237.35 11.1262 237.058 11.3217 237.058 11.6595C237.058 12.1632 237.558 12.3897 238.488 12.8525C239.542 13.3859 240.126 13.7658 240.126 14.7632C240.126 15.8572 239.252 16.6009 237.864 16.6009C237.074 16.6009 236.379 16.419 235.698 16.0391V14.6927Z" fill="white"/>
</svg>
