<svg width="260" height="80" viewBox="0 0 260 80" fill="none" xmlns="http://www.w3.org/2000/svg">
<path opacity="0.7" fill-rule="evenodd" clip-rule="evenodd" d="M127.212 44.9369C127.212 46.0549 126.958 46.962 126.47 47.6159C125.983 48.2699 125.304 48.6074 124.457 48.6074C123.546 48.6074 122.846 48.2488 122.338 47.5738C121.829 46.8987 121.575 45.9283 121.575 44.6626V26.732H115.62V45.6119C115.62 48.3542 116.383 50.4848 117.908 51.9615C119.434 53.4381 121.617 54.1764 124.457 54.1764C127.191 54.1764 129.331 53.4381 130.878 52.0037C132.425 50.5692 133.188 48.5863 133.188 46.0549H133.209V26.732H127.212V44.9369ZM111.212 42.8696C110.555 41.8148 109.453 40.9288 107.863 40.1905C109.177 39.4522 110.131 38.5662 110.724 37.5537C111.318 36.5411 111.614 35.2332 111.614 33.6089C111.614 31.626 110.851 29.9595 109.347 28.6727C107.842 27.3859 105.892 26.732 103.54 26.732H93.961V53.8811H104.939C106.973 53.8811 108.668 53.2061 110.067 51.8982C111.466 50.5692 112.165 48.9449 112.165 47.0253C112.165 45.3166 111.847 43.9243 111.212 42.8696ZM105.151 48.4808C104.6 49.0926 103.815 49.409 102.798 49.409H99.8737V31.0775H101.845C104.324 31.0775 105.553 32.301 105.553 34.7269C105.553 35.7817 105.257 36.6255 104.663 37.2583C104.07 37.8912 103.286 38.2076 102.29 38.2076H101.845V42.3211H102.29C104.748 42.3211 105.977 43.5235 105.977 45.9072C105.977 47.0042 105.702 47.8691 105.151 48.4808ZM148.425 40.2116C147.726 39.4522 146.518 38.4186 144.844 37.0896C143.233 35.8028 142.428 34.6847 142.428 33.7355C142.428 33.2081 142.682 32.744 143.191 32.3221C143.699 31.9002 144.272 31.6893 144.929 31.6893C146.37 31.6893 147.896 32.5964 149.464 34.4105V27.5758C147.726 26.5843 145.988 26.0991 144.25 26.0991C141.962 26.0991 140.054 26.7742 138.571 28.1453C137.087 29.5165 136.346 31.2463 136.346 33.3347C136.346 34.305 136.536 35.2754 136.876 36.2247C137.215 37.1739 137.744 38.1232 138.444 39.0514C139.143 40.0007 140.627 41.414 142.873 43.3337C144.293 44.5361 144.992 45.6119 144.992 46.5823C144.992 47.2362 144.717 47.7847 144.166 48.2277C143.593 48.6707 142.915 48.9027 142.089 48.9027C140.245 48.9027 138.401 47.9323 136.558 45.9494V52.3623C138.465 53.7756 140.415 54.4718 142.428 54.4718C144.865 54.4718 146.878 53.7123 148.425 52.1724C149.972 50.6325 150.756 48.6707 150.756 46.2659C150.756 45.0423 150.545 43.9243 150.121 42.8907C149.697 41.8781 149.125 40.971 148.425 40.2116ZM206.069 41.5828C207.7 40.7179 208.887 39.7265 209.629 38.6295C210.371 37.5537 210.731 36.1825 210.731 34.4949C210.731 33.1237 210.392 31.7737 209.735 30.4869C209.057 29.2001 207.955 28.2508 206.408 27.6391C204.861 27.0273 203.314 26.732 201.745 26.732H192.802V53.8811H198.821V31.0986H201.173C203.356 31.0986 204.437 32.3854 204.437 34.9801C204.437 36.1192 204.161 37.0685 203.653 37.8068C203.229 38.4396 202.318 38.7983 200.834 38.9037V42.4688L204.882 53.86H211.006L206.069 41.5828ZM186.72 29.5165C185.809 28.4196 184.834 27.5758 183.774 27.0062C182.715 26.4367 181.316 26.1413 179.599 26.1413C177.501 26.1413 175.785 26.6265 174.407 27.618C173.051 28.5883 171.949 29.9806 171.122 31.7737C170.317 33.5667 169.893 36.3723 169.893 40.1905C169.893 45.4009 170.783 49.0926 172.521 51.2653C174.259 53.417 176.611 54.4929 179.557 54.4929C182.439 54.4929 184.791 53.4592 186.614 51.3708C188.437 49.2824 189.348 45.5064 189.348 40.0218C189.348 37.3638 189.136 35.2121 188.712 33.5878C188.288 31.9635 187.631 30.6134 186.72 29.5165ZM182.905 45.7807C182.693 46.8143 182.27 47.5948 181.697 48.1011C181.125 48.6074 180.489 48.8605 179.79 48.8605C178.942 48.8605 178.201 48.6074 177.586 48.08C176.971 47.5526 176.569 46.8354 176.378 45.9283C176.187 45.0213 176.103 43.1438 176.103 40.2749V38.524C176.103 36.1614 176.378 34.4527 176.887 33.398C177.438 32.3221 178.328 31.7737 179.578 31.7737C180.447 31.7737 181.168 32.069 181.761 32.7018C182.354 33.3136 182.757 34.1363 182.948 35.1489C183.138 36.1614 183.244 37.849 183.244 40.2327C183.244 42.8907 183.138 44.747 182.905 45.7807ZM153.872 53.86H159.784V42.6164H165.761V37.5747H159.784V32.0268H166.736V26.732H153.872V53.86ZM71.6031 42.3C70.0772 39.2202 68.5726 35.0434 66.3685 34.6215C66.3685 34.6215 65.754 34.5371 65.4361 34.5371H49.0968V31.3096H67.2163C68.5726 31.4151 69.3567 32.1534 70.0349 32.9972C72.2812 35.8028 74.4216 39.6631 75.1634 42.3211C74.4004 42.3 73.0865 42.3 71.6031 42.3ZM65.1606 47.1308C65.966 47.1308 66.6229 47.7847 66.6229 48.5863C66.6229 48.7551 66.6017 48.9027 66.5381 49.0715C66.3474 49.641 65.7964 50.0418 65.1606 50.0418C64.5249 50.0418 63.9739 49.641 63.7831 49.0715C63.7407 48.9238 63.6984 48.7551 63.6984 48.6074C63.6984 47.7847 64.3553 47.1308 65.1606 47.1308ZM68.2547 49.0082C68.2759 48.8394 68.2971 48.6918 68.2971 48.523C68.2971 47.6581 67.958 46.8565 67.3647 46.2448C66.7501 45.633 65.9447 45.2955 65.097 45.2955C63.3169 45.2955 61.897 46.7299 61.8758 48.5019C61.8758 48.6707 61.897 48.8183 61.9182 48.9871C62.0241 49.6621 62.3208 50.2739 62.8083 50.7802C63.4228 51.3919 64.2282 51.7294 65.0759 51.7294C66.6653 51.7294 68.0004 50.5481 68.2547 49.0082ZM83.2801 29.4954C84.9331 32.5331 86.8404 36.8786 86.8404 39.1358C86.8404 41.3929 84.9119 45.7807 83.2801 48.8394C79.2323 56.4125 76.9224 56.4125 76.0747 56.4125H53.4624C51.0465 56.4125 49.0968 54.4929 49.0968 52.1302V48.755C52.8902 48.755 57.6585 48.755 60.8374 48.755C60.8162 48.5863 60.8162 48.4597 60.8162 48.291C60.8162 45.9283 62.7447 44.0087 65.0759 44.0087C66.2415 44.0087 67.3223 44.4517 68.1276 45.2744C68.9329 46.076 69.3779 47.1518 69.3779 48.3121C69.3779 48.4808 69.3567 48.6285 69.3567 48.7972C73.4468 48.7972 75.9476 48.8184 76.1595 48.8184C77.0919 48.8184 77.1767 48.2066 77.1767 47.8901C77.1767 47.7003 77.1767 46.3291 77.1767 45.1689H75.333V43.9454H77.1979C77.1979 43.7344 77.1979 43.6079 77.1979 43.6079C77.1979 41.2031 74.125 35.1278 71.0945 31.7104H74.4216C75.0786 31.7104 75.6297 32.2378 75.6721 32.8917H75.1634V36.4145L75.3753 36.3724C76.1594 36.2458 76.7317 35.6762 76.7317 35.0223V33.0815V32.9761C76.7317 32.3432 76.4773 31.7526 76.0323 31.3096C75.5873 30.8666 74.9939 30.6134 74.3581 30.6134L69.9289 30.5923C69.0176 29.7486 68.1276 29.6853 67.3647 29.6853H49.0968V26.3101C49.0968 23.9475 51.0465 22.0278 53.4624 22.0278H76.0747C76.9436 22.0278 79.2323 22.0278 83.2801 29.4954ZM65.2242 38.2498C65.648 38.2498 66.0507 38.4818 66.2626 38.8404L66.6017 39.5999H49.0968V38.2498H65.2242ZM57.3619 44.2197C57.1499 44.5783 56.6413 44.8314 56.1115 44.8314H49.0968V44.0509H57.4678L57.3619 44.2197Z" fill="white"/>
</svg>
