<svg width="260" height="80" viewBox="0 0 260 80" fill="none" xmlns="http://www.w3.org/2000/svg">
<path opacity="0.7" d="M68.7273 36.6454C75.6458 32.5298 81.6048 28.75 81.6048 28.75V35.5882C81.5936 35.5882 68.0613 45.8433 52.9574 52.3485C37.6248 59.016 30.9974 52.4192 29.9697 51.5868C27.7568 49.793 24.3437 43.6 26.9241 37.4652C31.5337 26.6732 43.2057 23.2188 45.9512 23.0398C47.3277 22.8442 48.2579 23.1064 49.203 24.3924C49.8819 25.2498 50.7483 29.3452 50.7483 29.3452C49.6478 29.2762 48.5443 29.3984 47.4777 29.7073C34.8005 32.3751 28.0981 44.3283 31.0011 47.2043C34.0879 50.2384 42.6769 48.9065 49.7319 46.6341C52.4035 45.7942 57.3624 43.1929 62.5853 40.2248L59.1385 30.5938C56.9181 35.3634 54.4989 42.4346 53.6288 42.9965C50.2269 45.8433 44.9048 46.0264 44.9048 46.0264L55.7178 23.6391H63.4179L68.7273 36.6454ZM104.103 20.7159C106.631 20.7143 109.097 21.5832 111.161 23.2027L109.576 25.4772C107.867 24.1732 106.457 23.4453 104.308 23.4453C100.577 23.4453 97.6597 26.0307 97.6597 29.7951C97.6597 33.5594 100.577 36.1713 104.308 36.1713C106.569 36.1713 108.066 35.4132 109.873 34.0371L111.454 36.3116C109.299 37.9856 106.734 38.8877 104.103 38.897C98.9784 38.897 94.1307 35.5307 94.1307 29.7988C94.1307 24.067 98.9716 20.7386 104.103 20.7386V20.7159ZM123.145 29.7268C125.536 29.7268 127.08 28.6237 127.08 26.7168C127.08 24.81 125.611 23.8282 123.124 23.8282H118.215V29.7268H123.145ZM114.84 21.0078H123.38C127.36 21.0078 130.596 22.7895 130.596 26.6524C130.596 29.6662 128.604 31.247 125.912 31.9255L131.094 38.5747H127.138L122.444 32.4638H118.215V38.5861H114.84V21.0078ZM145.285 16L142.662 19.0858H139.778L141.77 16H145.285ZM134.36 33.5177V21.0078H148.708V23.8168H137.777V28.0702H147.82V30.8072H137.777V33.5177C137.777 35.0341 138.432 35.7922 139.768 35.7922H149.002V38.6013H138.928C136.034 38.6013 134.36 36.7058 134.36 33.5329V33.5177ZM160.436 35.7922C164.28 35.7922 166.859 33.4078 166.859 29.8443C166.859 26.2809 164.28 23.8434 160.436 23.8434H156.456V35.7922H160.436ZM153.064 21.0078H160.211C166.316 21.0078 170.388 24.5219 170.388 29.7913C170.388 35.0606 166.316 38.5747 160.211 38.5747H153.064V21.0078ZM173.982 21.0191H177.374V38.5861H173.982V21.0191ZM180.742 23.8282V21.0191H196.303V23.8282H190.219V38.5861H186.827V23.8282H180.742ZM106.823 56.808L103.741 49.9119L100.656 56.808H106.823ZM108.052 59.5087H99.4271L97.5503 63.7003H94.1307L102.232 46.3421H105.652L113.753 63.7003H109.935L108.055 59.5087H108.052ZM124.613 46.0312C127.109 46.0302 129.545 46.8887 131.583 48.4885L130.02 50.736C128.333 49.4474 126.935 48.7282 124.812 48.7282C121.126 48.7282 118.243 51.2342 118.243 54.9538C118.243 58.6734 120.812 61.303 124.7 61.303C126.261 61.3338 127.796 60.8685 129.126 59.962V56.6207H124.4V53.9686H132.468V61.258C130.154 63.0674 127.386 64.0228 124.555 63.9888C118.658 63.9888 114.746 60.1193 114.746 54.9987C114.746 49.3201 119.529 46.0462 124.603 46.0462L124.613 46.0312ZM144.924 54.9351C147.287 54.9351 148.813 53.845 148.813 51.9609C148.813 50.0767 147.361 49.1066 144.9 49.1066H140.053V54.9351H144.924ZM136.701 46.3197H145.17C149.103 46.3197 152.3 48.0802 152.3 51.8972C152.3 54.8751 150.332 56.4372 147.672 57.1077L152.806 63.6891H148.88L144.232 57.6396H140.053V63.6891H136.701V46.3197ZM156.563 46.3309H159.918V63.6891H156.563V46.3309ZM173.549 46.0312C176.047 46.0297 178.484 46.8882 180.523 48.4885L178.957 50.736C177.269 49.4474 175.875 48.7282 173.752 48.7282C170.062 48.7282 167.179 51.2829 167.179 55.0025C167.179 58.7221 170.062 61.303 173.752 61.303C175.983 61.303 177.465 60.5538 179.247 59.1941L180.81 61.4416C178.681 63.0951 176.148 63.9866 173.549 63.9963C168.486 63.9963 163.692 60.6699 163.692 55.0062C163.692 49.3425 168.476 46.0537 173.549 46.0537V46.0312ZM185.502 55.01C185.502 58.5048 188.118 61.2843 191.916 61.2843C195.714 61.2843 198.33 58.5048 198.33 55.01C198.33 51.5151 195.717 48.7357 191.916 48.7357C188.115 48.7357 185.502 51.5114 185.502 55.01ZM182.015 55.01C182.015 50.0992 186.127 46.02 191.916 46.02C197.705 46.02 201.817 50.088 201.817 55.01C201.817 59.932 197.705 64 191.916 64C186.127 64 182.015 59.932 182.015 55.01ZM204.922 46.3309H208.274V60.9134H218.219V63.6891H204.922V46.3309ZM220.319 58.6809V46.3197H234.496V49.0953H223.694V53.2981H233.615V56.0026H223.671V58.6809C223.671 60.1792 224.319 60.9284 225.635 60.9284H234.8V63.7041H224.832C221.973 63.7041 220.319 61.8312 220.319 58.6959V58.6809ZM77.8017 58.2918V63.3777H26.5604V58.2918H77.8017ZM67.3674 53.4556C66.9323 52.2236 65.9705 49.265 65.4004 47.8083C67.5207 46.6014 69.5819 45.2276 71.662 43.9375L76.2902 54.804H69.2427C68.4385 54.7827 67.7135 54.2613 67.3674 53.4556ZM81.6048 26.0822C81.6048 26.0822 73.5409 31.2139 71.6543 31.9922C69.9215 32.7539 69.269 31.7467 69.0627 31.3971C68.5976 30.6063 67.8324 28.005 67.7274 27.6096C68.2333 27.6676 68.7445 27.6066 69.2277 27.4307C70.4541 27.0852 81.5748 20.1847 81.6048 20.1888V26.0822Z" fill="white"/>
</svg>
