<svg width="260" height="80" viewBox="0 0 260 80" fill="none" xmlns="http://www.w3.org/2000/svg">
<path opacity="0.7" fill-rule="evenodd" clip-rule="evenodd" d="M17.2035 35.0002L6.32194 51.9138C5.50772 51.4645 3.98003 46.534 6.00453 42.6117L13.5905 27.923C14.115 26.9064 14.7029 26.0872 15.3349 25.4118C16.3285 24.4487 17.4187 23.9788 18.5228 24.0007C20.2616 24.0459 21.9935 25.3543 23.3197 27.923L30.9058 42.6117C32.9303 46.534 31.4026 51.4645 30.5884 51.9138L19.7331 35.0016C19.3977 34.481 18.963 34.2097 18.4551 34.1878C18.0025 34.1933 17.5498 34.4645 17.2035 35.0002ZM18.4551 56.88C15.535 56.88 12.8302 56.3758 10.6166 55.3963C12.7612 51.8303 18.4551 48.9259 18.4551 48.9259C18.4551 48.9259 24.1491 51.8303 26.2937 55.3963C24.0801 56.3758 21.3753 56.88 18.4551 56.88ZM62.7527 48.6602C60.3004 48.6602 57.9861 47.8149 56.0609 46.1024L57.7556 44.094C59.2916 45.4174 60.8275 46.1709 62.8203 46.1709C64.5633 46.1709 65.6631 45.3722 65.6631 44.116C65.6631 42.9748 65.0214 42.3583 62.042 41.65C58.6278 40.8513 56.7012 39.8471 56.7012 36.8551C56.7012 34.1152 58.9935 32.2205 62.18 32.2205C64.5163 32.2205 66.3725 32.9288 67.9995 34.2303L66.487 36.3537C65.0449 35.2797 63.6 34.7098 62.133 34.7098C60.4839 34.7098 59.5206 35.5537 59.5206 36.6496C59.5206 37.8826 60.2548 38.4306 63.3254 39.1622C66.7161 39.9841 68.4812 41.1938 68.4812 43.8886C68.4812 46.8792 66.1199 48.6602 62.7527 48.6602ZM76.1003 48.4314V32.4493H79.1019L83.983 40.0061L88.8642 32.4493H91.8671V48.4314H89.0477V36.9702L83.983 44.505H83.8919L78.8742 37.0154V48.4314H76.1003ZM98.9122 48.4314L105.971 32.3343H108.583L115.641 48.4314H112.663L111.034 44.5735H103.451L101.802 48.4314H98.9149H98.9122ZM104.482 42.0843H110.005L107.231 35.6907L104.482 42.0843ZM122.689 48.4314V32.4493H129.837C133.596 32.4493 135.796 34.4577 135.796 37.5401C135.796 40.1664 134.215 41.7418 131.969 42.3816L136.3 48.4314H132.977L128.988 42.8611H125.507V48.4314H122.689ZM125.507 40.3718H129.632C131.648 40.3718 132.931 39.3211 132.931 37.6552C132.931 35.9427 131.693 35.0057 129.608 35.0057H125.507V40.3718ZM147.495 48.4314V35.0523H142.407V32.4493H155.423V35.0523H150.336V48.4314H147.495ZM170.18 48.6602C167.609 48.6602 165.632 47.8149 163.703 46.1024L164.484 45.212C166.252 46.834 167.883 47.5875 170.249 47.5875C172.659 47.5875 174.314 46.2394 174.314 44.3681C174.314 42.6775 173.417 41.6966 169.766 40.965C165.908 40.1896 164.346 38.8882 164.346 36.4222C164.346 34.0467 166.528 32.2205 169.513 32.2205C171.856 32.2205 173.395 32.8603 175.026 34.1618L174.267 35.0975C172.752 33.796 171.237 33.2932 169.467 33.2932C167.102 33.2932 165.54 34.6413 165.54 36.3537C165.54 38.0429 166.413 39.0704 170.225 39.8472C173.947 40.6006 175.506 41.924 175.506 44.2995C175.506 46.8792 173.28 48.6602 170.18 48.6602ZM183.741 48.4314V32.4493H195.179V33.5453H184.935V39.8239H194.145V40.9198H184.935V47.3354H195.292V48.4314H183.741ZM203.434 48.4314V32.4493H214.872V33.5453H204.629V39.8239H213.838V40.9198H204.629V47.3354H214.986V48.4314H203.434ZM223.127 48.4314V32.4493H228.479C233.531 32.4493 237.023 35.8962 237.023 40.4404C237.023 44.938 233.531 48.4314 228.48 48.4314H223.128H223.127ZM224.322 47.3354H228.479C232.957 47.3354 235.782 44.2996 235.782 40.4404C235.782 36.6497 232.957 33.5453 228.479 33.5453H224.322V47.3354ZM250.838 48.6602C248.267 48.6602 246.291 47.8149 244.362 46.1024L245.143 45.212C246.911 46.834 248.542 47.5875 250.907 47.5875C253.318 47.5875 254.973 46.2394 254.973 44.3681C254.973 42.6775 254.077 41.6966 250.425 40.965C246.567 40.1896 245.005 38.8882 245.005 36.4222C245.005 34.0467 247.187 32.2205 250.172 32.2205C252.515 32.2205 254.054 32.8603 255.685 34.1618L254.926 35.0975C253.41 33.796 251.895 33.2932 250.126 33.2932C247.761 33.2932 246.198 34.6413 246.198 36.3537C246.198 38.0429 247.072 39.0704 250.884 39.8472C254.604 40.6006 256.166 41.924 256.166 44.2995C256.166 46.8792 253.939 48.6602 250.838 48.6602Z" fill="white"/>
</svg>
