<svg width="260" height="80" viewBox="0 0 260 80" fill="none" xmlns="http://www.w3.org/2000/svg">
<path opacity="0.7" fill-rule="evenodd" clip-rule="evenodd" d="M237.38 49.3467V32.6275H246.531V35.2001H240.885V39.3232H246.09V41.8958H240.885V46.7789H246.714V49.3467H237.38ZM67.448 49.3467V32.6275H73.09L75.7144 43.9983H75.7584L78.5498 32.6275H84.0088V49.3467H80.5927V36.4494H80.5439L77.3186 49.3467H73.9736L70.9097 36.4494H70.8626V49.3467H67.448ZM87.3051 49.3467V32.6275H96.4591V35.2001H90.8131V39.3232H96.0149V41.8958H90.8131V46.7789H96.646V49.3467H87.3051ZM99.3616 32.6275H102.87V49.3515H99.3616V32.6275ZM106.31 49.3467V32.6275H111.042L115.507 44.2102H115.552V32.6275H118.823V49.3467H114.209L109.631 37.1226H109.581V49.3467H106.31ZM122.173 49.3467V32.6275H130.88V35.2001H125.681V39.4833H130.65V42.0511H125.681V49.3467H122.173ZM133.019 49.3467V32.6275H142.169V35.2001H136.525V39.3232H141.725V41.8958H136.525V46.7789H142.354V49.3467H133.019ZM148.535 49.3515H145.029V32.6275H151.511C153.898 32.6275 155.435 34.1588 155.435 37.0047C155.435 39.1351 154.595 40.7318 152.322 41.1038V41.1524C153.089 41.2409 155.358 41.4289 155.358 44.4405C155.358 45.5057 155.435 48.6544 155.754 49.3515H152.322C151.856 48.3285 151.949 47.1979 151.949 46.108C151.949 44.1194 152.131 42.428 149.438 42.428H148.535V49.3515ZM148.535 39.8562H150.09C151.482 39.8562 151.881 38.4659 151.881 37.4007C151.881 35.8032 151.208 35.1993 150.09 35.1993H148.535V39.8562ZM158.502 49.3467V32.6275H163.235L167.699 44.2102H167.742V32.6275H171.017V49.3467H166.399L161.817 37.1226H161.775V49.3467H158.502ZM174.484 49.3515V32.6275H180.706C183.378 32.6275 185.584 33.3948 185.584 36.9577C185.584 38.8802 184.628 40.2697 182.724 40.6433V40.6903C185.211 41.0337 185.859 42.6351 185.859 44.9257C185.859 49.1627 182.171 49.3515 180.685 49.3515H174.484ZM177.984 39.4602H180.335C181.098 39.4602 182.171 38.9511 182.171 37.3337C182.171 36.1004 181.33 35.2001 180.146 35.2001H177.984V39.4602ZM177.984 46.7773H179.936C180.685 46.7773 182.355 46.7542 182.355 44.4166C182.355 42.9371 181.795 42.028 180.032 42.028H177.984V46.7773ZM200.425 32.6275V44.4883C200.425 46.986 199.011 49.6279 194.731 49.6279C190.878 49.6279 189.022 47.6345 189.022 44.4883V32.6275H192.534V44.2517C192.534 46.3168 193.413 47.1262 194.689 47.1262C196.225 47.1262 196.915 46.108 196.915 44.2517V32.6275H200.425ZM208.305 49.6279C203.956 49.6279 203.149 47.0824 203.326 44.1863H206.835C206.835 45.7798 206.909 47.1278 208.831 47.1278C210.019 47.1278 210.598 46.3638 210.598 45.2276C210.598 42.2168 203.539 42.028 203.539 37.0525C203.539 34.4361 204.789 32.3534 209.065 32.3534C212.478 32.3534 214.175 33.8808 213.942 37.3736H210.53C210.53 36.1275 210.323 34.8559 208.906 34.8559C207.767 34.8559 207.089 35.4782 207.089 36.6366C207.089 39.8092 214.154 39.5303 214.154 44.7839C214.154 49.1196 210.969 49.6279 208.305 49.6279ZM216.849 46.2937H219.638V49.3515H216.849V46.2937ZM222.816 32.6275H228.666C233.267 32.6275 234.125 35.6853 234.125 40.8999C234.125 43.4693 234.525 49.3515 228.532 49.3515H222.816V32.6275ZM226.324 46.7773H228.021C230.156 46.7773 230.577 45.1759 230.577 40.9899C230.577 37.9098 230.577 35.2001 228.138 35.2001H226.324V46.7773ZM36.7377 20.6193L41.0135 22.0757L50.2554 19.1661C49.5939 18.508 48.4746 17.3249 48.0887 16.7298L36.1393 20.4903C36.3374 20.5142 36.5372 20.5492 36.7377 20.6193ZM42.1439 15.4669C42.0425 15.6438 41.8771 15.929 41.6654 16.2414L47.0222 14.5539C45.6792 13.5795 43.1514 13.7476 42.1439 15.4669ZM26.911 12.092L24.1228 12.9692C24.0501 13.7548 23.9974 14.9323 23.9662 16.1346L32.501 13.4465C30.6579 12.8824 28.5256 12.3629 26.911 12.092ZM45.8214 24.7663C45.982 25.2666 45.9644 25.7988 45.7878 26.3L51.4674 24.5105C51.5824 23.3123 51.6806 22.2869 51.2468 21.4607L44.8379 23.478C45.3085 23.7951 45.6536 24.2373 45.8214 24.7663ZM24.3689 21.6877L35.3301 18.234C36.3822 17.4516 37.7307 16.3633 36.363 15.0654C36.2983 15.0033 36.2096 14.9379 36.1058 14.8718L23.9391 18.704C23.9431 19.547 23.9638 20.2202 24.007 20.5174C24.0741 21.0217 24.245 21.3938 24.3689 21.6877ZM29.8239 41.7468L30.0931 42.5961L52.8527 35.4304C52.6801 34.5819 52.5227 33.7597 52.3989 33.0737C52.3661 32.8777 52.3341 32.6817 52.3046 32.4865L28.0767 40.1143C28.7518 40.2234 29.4923 40.6903 29.8239 41.7468ZM32.4954 53.1949L42.3069 50.106C42.2734 49.1858 41.8947 48.5914 41.2036 48.0114C40.9799 47.8234 40.8586 47.6393 40.8234 47.4545L32.4563 50.09L32.7727 51.1082C33.0179 51.8843 32.9197 52.6188 32.4994 53.1917C32.4978 53.1917 32.4978 53.1949 32.4954 53.1949ZM43.5477 29.5649L40.7523 33.3876C40.6916 33.4696 40.6284 33.5469 40.5581 33.6266L51.9283 30.0438C51.8356 29.5386 51.7214 28.9706 51.5704 28.3045C51.4745 27.8902 51.4202 27.4871 51.3882 27.0983L43.5477 29.5649ZM33.8991 23.3792C33.6555 22.6048 33.7538 21.8686 34.174 21.2958C34.2427 21.2025 34.3234 21.1165 34.4072 21.0384L16.8263 26.574C16.8263 26.7509 16.8191 26.9031 16.7968 27.0051C16.5419 28.1213 15.894 29.1857 15.1694 30.2119L34.1684 24.2333L33.8991 23.3792ZM22.1543 56.4566L30.1698 53.931C30.0907 53.9087 30.0165 53.8952 29.9358 53.8689L25.3771 52.3217L16.8207 55.0154C18.4537 55.3994 21.5631 56.0607 22.0089 56.3475C22.068 56.3817 22.1072 56.4176 22.1543 56.4566ZM20.8521 49.7307C20.6835 49.2049 20.7091 48.6464 20.9136 48.1253L13.7209 50.3872C13.7209 50.3872 13.721 50.392 13.7226 50.392C13.9878 51.1513 14.1547 52.2906 14.5629 53.2387L21.7676 50.9712C21.3338 50.6613 21.0095 50.235 20.8521 49.7307ZM18.5048 21.2384C17.0172 20.9213 16.7424 22.4861 16.74 24.0875L22.386 22.3108C21.0231 21.9817 19.3013 21.4105 18.5048 21.2384ZM44.1756 63.4383L31.3905 67.4625C31.3945 67.4785 31.4057 67.5064 31.4081 67.5183C31.4353 67.8705 31.6534 68.5469 32.0129 68.7429C32.68 69.1117 34.4704 69.1739 36.5116 68.9659L44.2938 66.5168C44.8139 66.0372 45.0656 65.5018 44.9138 64.9059C44.7396 64.2167 44.5647 63.9944 44.1756 63.4383ZM43.5828 52.2675L20.3575 59.5782C20.1043 60.6808 19.5035 61.8711 19.6473 62.9204L45.831 54.6791C45.2638 53.853 44.3426 53.0467 43.5828 52.2675ZM47.833 56.6056L19.8279 65.4237C19.9717 65.5878 20.2536 65.7432 20.7961 65.9782C22.1918 66.5774 23.8344 66.7981 25.5816 66.7295L47.9728 59.6834C48.2533 59.0173 48.2397 57.4987 48.0863 57.0398C48.02 56.8407 47.9313 56.7068 47.833 56.6056ZM36.8415 32.7446L36.5395 31.7742L13.2735 39.0961C12.8357 40.4704 11.6972 41.3978 12.0759 42.5881L38.3419 34.319C37.7435 34.1461 37.1339 33.6728 36.8415 32.7446ZM25.9132 41.1086C26.0314 40.9437 26.1608 40.7987 26.2998 40.6744L12.9164 44.8867C13.0594 45.7599 13.1952 46.8673 13.3222 47.8775L23.2512 44.7496L25.9132 41.1086ZM12.7391 36.7968L37.3617 29.0996L38.3595 32.2714C38.4729 32.6315 38.6791 32.8187 38.9051 32.8187C39.0881 32.8187 39.2903 32.6984 39.4692 32.4506L44.1365 26.0729C44.5368 25.5176 44.337 24.8826 43.6891 24.6643L36.2232 22.118C36.0938 22.0757 35.974 22.0479 35.8701 22.0479C35.4499 22.0479 35.2517 22.3849 35.4171 22.9059L36.4118 26.0769L13.0355 33.3788C12.6216 34.1277 12.354 34.8599 12.3812 35.5881C12.3972 35.9905 12.5521 36.4135 12.7391 36.7968ZM28.3083 42.2208C28.1949 41.8599 27.9904 41.6719 27.7611 41.6719C27.5782 41.6719 27.3776 41.793 27.2011 42.036L22.537 48.4225C22.1327 48.9746 22.3365 49.6128 22.9844 49.8319L30.4495 52.3703C30.5813 52.4117 30.7011 52.4356 30.8074 52.4356C31.2252 52.4356 31.4233 52.1073 31.2563 51.5823L30.2593 48.4145L53.7299 41.0616C53.7443 39.9645 53.5437 38.6691 53.3847 37.8468L29.3054 45.3878L28.3083 42.2208Z" fill="white"/>
</svg>
