<svg width="260" height="80" viewBox="0 0 260 80" fill="none" xmlns="http://www.w3.org/2000/svg">
<path opacity="0.7" fill-rule="evenodd" clip-rule="evenodd" d="M66.8477 32.9052C64.6624 32.9052 62.8912 31.1967 62.8912 29.0881V15.0831C62.8912 12.9753 64.6624 11.2629 66.8477 11.2629C69.0314 11.2629 70.8027 12.9753 70.8027 15.0831V29.0881C70.8027 31.1967 69.0314 32.9052 66.8477 32.9052ZM57.6069 39.3847C56.9322 41.391 54.7009 42.488 52.6229 41.8353L38.8317 37.509C36.7537 36.857 35.6165 34.7034 36.2912 32.6956C36.9666 30.6924 39.1964 29.5946 41.2752 30.2473L55.0672 34.5713C57.1452 35.2233 58.2823 37.3776 57.6069 39.3847ZM76.0873 39.386C76.7636 41.3923 78.995 42.4908 81.0722 41.8381L94.8657 37.5103C96.9421 36.8598 98.0785 34.7047 97.4038 32.6984C96.73 30.6952 94.4978 29.5959 92.4198 30.2486L78.6279 34.5749C76.5507 35.2253 75.4127 37.3805 76.0873 39.386ZM47.957 67.4009C46.1881 66.1619 45.7964 63.7739 47.079 62.0677L55.6008 50.7331C56.8842 49.0276 59.3571 48.649 61.1268 49.8865C62.8933 51.127 63.2851 53.515 62.0001 55.222L53.4807 66.5551C52.1973 68.2613 49.7235 68.64 47.957 67.4009ZM85.7407 67.4009C87.508 66.1619 87.899 63.7739 86.6172 62.0677L78.0961 50.7331C76.8128 49.0276 74.3382 48.649 72.5701 49.8865C70.8036 51.127 70.4111 53.515 71.6944 55.222L80.2147 66.5551C81.4996 68.2613 83.9718 68.64 85.7407 67.4009ZM140.557 35.4772C140.557 37.7148 138.668 39.5302 136.339 39.5302C134.009 39.5302 132.122 37.7148 132.122 35.4772C132.122 33.2404 134.009 31.4249 136.339 31.4249C138.668 31.4249 140.557 33.2404 140.557 35.4772ZM151.479 35.4772C151.479 37.7148 149.589 39.5302 147.26 39.5302C144.93 39.5302 143.04 37.7148 143.04 35.4772C143.04 33.2404 144.93 31.4249 147.26 31.4249C149.589 31.4249 151.479 33.2404 151.479 35.4772ZM144.361 42.7496C144.358 42.3747 144.041 42.0686 143.649 42.0686H139.95C139.557 42.0686 139.24 42.3747 139.237 42.7496L139.236 57.4103C139.236 57.789 139.554 58.0951 139.95 58.0951H143.649C144.043 58.0951 144.361 57.789 144.361 57.4103V42.7496ZM136.57 42.071H132.807C132.495 42.071 132.244 42.2481 132.101 42.5558L129.192 48.809L126.284 42.5558C126.143 42.2481 125.887 42.071 125.578 42.071H121.814C121.375 42.071 121.074 42.4504 121.295 42.8642L126.629 52.5429V57.412C126.629 57.7914 126.948 58.0976 127.342 58.0976H131.042C131.438 58.0976 131.754 57.7914 131.754 57.412V52.5429L137.091 42.8642C137.313 42.4504 137.008 42.071 136.57 42.071ZM190.307 42.0731H177.821C177.427 42.0738 177.109 42.38 177.109 42.7563V45.8536C177.109 46.2314 177.427 46.5399 177.821 46.5399H181.757L181.755 57.4148C181.755 57.7943 182.074 58.1004 182.468 58.1004H185.707C186.1 58.1004 186.42 57.7943 186.42 57.4148V46.5399H190.307C190.702 46.5399 191.021 46.2314 191.021 45.8536V42.7563C191.021 42.38 190.702 42.0731 190.307 42.0731ZM207.256 57.3027L201.535 42.6816C201.403 42.2984 201.083 42.0724 200.594 42.0724H196.277C195.785 42.0724 195.468 42.2984 195.335 42.6816L189.613 57.3027C189.441 57.7416 189.701 58.102 190.19 58.102H193.827C194.12 58.102 194.44 57.8829 194.535 57.6172L195.274 55.4705H201.597L202.336 57.6172C202.432 57.8829 202.751 58.102 203.046 58.102H206.68C207.169 58.102 207.43 57.7416 207.256 57.3027ZM196.591 51.7999L198.434 46.5438L200.281 51.7999H196.591ZM161.634 42.0731H158.227C157.933 42.0731 157.614 42.2922 157.521 42.5579L154.368 51.8312L151.209 42.5579C151.113 42.2922 150.795 42.0731 150.502 42.0731H147.092C146.606 42.0731 146.346 42.4327 146.518 42.8709L151.728 57.4919C151.86 57.8775 152.18 58.1019 152.67 58.1019H156.059C156.55 58.1019 156.867 57.8775 157.001 57.4919L162.21 42.8709C162.385 42.4327 162.122 42.0731 161.634 42.0731ZM218.725 52.7763C221.21 52.1076 222.901 50.3578 222.901 47.608C222.901 44.2459 219.972 42.0724 216.471 42.0724H209.5C209.105 42.0724 208.786 42.3793 208.786 42.7564V57.4141C208.786 57.7936 209.105 58.0997 209.5 58.0997H212.735C213.13 58.0997 213.448 57.7936 213.448 57.4141V53.0848H213.464L216.939 57.5485C217.227 57.8852 217.512 58.0997 217.928 58.0997H221.696C222.24 58.0997 222.428 57.5218 222.144 57.1798L218.725 52.7763ZM213.448 45.7758H216.056C217.712 45.7758 218.286 46.5086 218.286 47.5805C218.286 48.4966 217.839 49.444 216.121 49.444H213.448V45.7758ZM114.496 49.231L119.842 43.0244C120.228 42.5816 120.002 42.0732 119.426 42.0732H115.418C115.035 42.0732 114.653 42.2274 114.333 42.593L110.665 47.0614V42.8992C110.665 42.3495 110.375 42.0732 109.801 42.0732H106.859C106.285 42.0732 105.997 42.3495 105.997 42.8992V57.2729C105.997 57.8264 106.285 58.102 106.859 58.102H109.81C110.385 58.102 110.671 57.8264 110.671 57.2729V51.7037L115.603 57.5485C115.89 57.8882 116.178 58.102 116.592 58.102H120.765C121.307 58.102 121.497 57.5241 121.21 57.1813L114.496 49.231ZM162.262 54.6926C162.171 54.5369 162.14 54.3514 162.193 54.1681C162.244 53.9926 162.363 53.8544 162.512 53.7673L164.961 52.2626C165.129 52.1497 165.348 52.1046 165.559 52.1611C165.739 52.2123 165.869 52.3359 165.973 52.468C167.086 53.7918 168.242 54.6743 169.881 54.6743C170.834 54.6743 171.427 54.2216 171.427 53.4963C171.427 52.6627 171.158 52.1092 168.142 51.332C164.907 50.4968 163.116 48.7188 163.116 46.398C163.116 44.0589 165.213 41.5709 169.101 41.5709C172.918 41.5709 174.627 43.0145 175.527 43.8123V43.8138C175.661 43.9383 175.742 44.11 175.742 44.3017C175.742 44.4834 175.667 44.646 175.547 44.7666L173.618 46.7087C173.49 46.8622 173.293 46.9607 173.072 46.9607C172.882 46.9607 172.768 46.9011 172.586 46.7744C171.863 46.1919 170.663 45.4277 169.137 45.4277C168.438 45.4277 167.698 45.7445 167.698 46.3308C167.698 46.9194 168.177 47.3599 170.704 47.9913C174.674 48.9792 176.295 50.7289 176.295 53.3261C176.295 56.4302 173.584 58.5975 169.705 58.5975C166.179 58.5975 163.711 56.6638 162.262 54.6926Z" fill="white"/>
</svg>
