<svg width="260" height="80" viewBox="0 0 260 80" fill="none" xmlns="http://www.w3.org/2000/svg">
<path opacity="0.7" fill-rule="evenodd" clip-rule="evenodd" d="M39.4835 48.9986C39.4835 49.6251 39.8551 49.7753 40.3083 49.3327L48.7377 41.0905C49.1915 40.6468 49.1915 39.9223 48.7377 39.4797L40.3083 31.2359C39.8551 30.7927 39.4835 30.9428 39.4835 31.57V48.9986ZM20.1182 26.9526C20.7589 26.9526 21.2828 27.465 21.2828 28.0921V34.4152C21.2828 35.0423 21.8074 35.5547 22.4481 35.5547H28.8363C29.4765 35.5547 30.0004 35.0423 30.0004 34.4152V28.0921C30.0004 27.465 30.525 26.9526 31.1663 26.9526H34.7633C35.4034 26.9526 35.5576 26.5904 35.1038 26.1472L26.3637 17.6002C25.9099 17.157 25.1697 17.157 24.7159 17.6002L15.9748 26.1472C15.5215 26.5898 15.6745 26.9526 16.3152 26.9526H20.1182ZM11.7996 31.3688C11.7996 30.7423 11.4281 30.5915 10.9748 31.0353L2.3395 39.4782C1.88685 39.922 1.88685 40.6459 2.3395 41.0896L10.9748 49.5337C11.4281 49.9758 11.7996 49.8261 11.7996 49.1996V31.3688ZM31.166 53.8145C30.5253 53.8145 30.0002 53.3021 30.0002 52.6744V45.9678C30.0002 45.3412 29.4768 44.8277 28.8361 44.8277H22.4484C21.8077 44.8277 21.2826 45.3412 21.2826 45.9678V52.6744C21.2826 53.3021 20.7592 53.8145 20.1179 53.8145H16.5175C15.8767 53.8145 15.7238 54.1767 16.177 54.6199L24.7134 62.9678C25.1683 63.4104 25.908 63.4104 26.3612 62.9678L34.8993 54.6199C35.3526 54.1767 35.1996 53.8145 34.5589 53.8145H31.166ZM73.1329 32.7233V41.3591C73.1329 41.6516 73.1456 41.975 73.1645 42.2933C72.9299 41.9041 72.6699 41.4935 72.4168 41.1313L64.9859 30.514H61.1496V46.2485C61.1496 46.3975 61.1168 46.4296 60.9644 46.4296H59.3839V50.185H63.2742C64.8156 50.185 65.5334 49.4825 65.5334 47.9752V39.3664C65.5334 39.0784 65.5208 38.7595 65.5018 38.4456C65.7364 38.8348 65.9964 39.2421 66.25 39.5947L73.7086 50.185H77.515V34.4506C77.515 34.3015 77.5489 34.2689 77.7008 34.2689H79.2813V30.514H75.3921C73.8708 30.514 73.1329 31.2367 73.1329 32.7233ZM90.8655 30.1954C85.0433 30.1954 80.4817 34.5971 80.4817 40.2171C80.4817 45.9855 85.0433 50.5037 90.8655 50.5037C96.6884 50.5037 101.249 45.9855 101.249 40.2171C101.249 34.5971 96.6884 30.1954 90.8655 30.1954ZM90.8655 46.4569C87.5768 46.4569 85.0013 43.716 85.0013 40.2171C85.0013 36.8671 87.5768 34.2427 90.8655 34.2427C94.1543 34.2427 96.7298 36.8671 96.7298 40.2171C96.7298 43.716 94.1543 46.4569 90.8655 46.4569ZM119.319 34.2689H120.219V30.5135H117.552C116.019 30.5135 115.376 30.9561 114.908 32.3268L111.186 42.8474C111.054 43.2169 110.925 43.6573 110.814 44.078C110.702 43.6579 110.575 43.2186 110.443 42.8497L106.748 32.3313C106.28 30.9561 105.636 30.5135 104.103 30.5135H101.436V34.2689H102.337C102.636 34.2689 102.69 34.3078 102.792 34.589L108.651 50.1851H113.003L118.864 34.5845C118.964 34.3078 119.02 34.2689 119.319 34.2689ZM135.567 46.1103L129.763 30.5136H125.464L119.629 46.121C119.524 46.4297 119.492 46.4297 119.204 46.4297H118.33V50.1852H120.889C122.422 50.1852 123.065 49.7437 123.53 48.3786L124.655 45.3487H130.572L131.693 48.3691C132.161 49.7437 132.803 50.1852 134.339 50.1852H136.87V46.4297H136.022C135.738 46.4297 135.695 46.4297 135.567 46.1103ZM127.609 36.092C127.74 36.5667 127.888 37.0734 128.025 37.4778L129.496 41.6731H125.755L127.203 37.4744C127.34 37.0712 127.484 36.5655 127.609 36.092ZM156.454 30.5138H147.213V34.2692H148.978V50.1848H153.361V43.675H156.454C160.312 43.675 163.006 40.9528 163.006 37.0545C163.006 33.2039 160.312 30.5138 156.454 30.5138ZM153.361 34.2692H155.857C157.539 34.2692 158.542 35.3098 158.542 37.0545C158.542 38.8588 157.544 39.8937 155.803 39.8937H153.361V34.2692ZM174.687 30.1954C168.864 30.1954 164.303 34.5971 164.303 40.2171C164.303 45.9855 168.864 50.5037 174.687 50.5037C180.509 50.5037 185.07 45.9855 185.07 40.2171C185.07 34.5971 180.509 30.1954 174.687 30.1954ZM174.687 46.4569C171.397 46.4569 168.821 43.716 168.821 40.2171C168.821 36.8671 171.397 34.2427 174.687 34.2427C177.975 34.2427 180.551 36.8671 180.551 40.2171C180.551 43.716 177.975 46.4569 174.687 46.4569ZM194.192 38.1784C192.484 37.4624 191.01 36.8442 191.01 35.7789C191.01 34.8273 192.002 34.1625 193.423 34.1625C194.564 34.1625 195.565 34.6574 195.565 35.2216V36.4747H199.622V34.3177C199.622 31.3148 195.837 30.1955 193.45 30.1955C189.545 30.1955 186.599 32.6529 186.599 35.9122C186.599 39.5637 189.812 41.0018 192.394 42.1582C194.155 42.9462 195.674 43.6268 195.674 44.7337C195.674 46.0836 194.417 46.5628 193.341 46.5628C190.853 46.5628 188.999 44.4918 188.98 44.471L188.659 44.1071L186.102 47.1741L186.307 47.4278C186.41 47.5538 188.846 50.5033 193.287 50.5033C196.679 50.5033 200.111 48.4571 200.111 44.5481C200.111 40.6593 196.829 39.2836 194.192 38.1784ZM215.428 32.7233V38.512H207.747V32.7233C207.747 31.2367 207.008 30.514 205.487 30.514H201.597V34.2689H203.178C203.331 34.2689 203.364 34.3015 203.364 34.4506V50.185H207.747V42.2663H215.428V50.185H219.81V34.4506C219.81 34.3015 219.843 34.2689 219.997 34.2689H221.577V30.514H217.687C216.188 30.514 215.428 31.2575 215.428 32.7233ZM240.678 35.9962V32.617C240.678 31.1434 240.034 30.514 238.527 30.514H225.049C223.561 30.514 222.926 31.1434 222.926 32.617V35.9962H226.875V34.4506C226.875 34.288 226.893 34.2689 227.061 34.2689H229.611V50.185H233.993V34.2689H236.515C236.683 34.2689 236.702 34.288 236.702 34.4506V35.9962H240.678ZM256.708 46.4297C256.422 46.4297 256.379 46.4297 256.252 46.1103L250.447 30.5136H246.148L240.313 46.121C240.208 46.4297 240.178 46.4297 239.887 46.4297H239.016V50.1852H241.573C243.107 50.1852 243.751 49.7437 244.215 48.3786L245.34 45.3493H251.256L252.377 48.3691C252.846 49.7437 253.489 50.1852 255.023 50.1852H257.554V46.4297H256.708ZM248.293 36.092C248.425 36.5667 248.573 37.0734 248.711 37.4778L250.18 41.6731H246.439L247.886 37.4744C248.024 37.0712 248.167 36.5655 248.293 36.092Z" fill="white"/>
</svg>
