<svg width="260" height="80" viewBox="0 0 260 80" fill="none" xmlns="http://www.w3.org/2000/svg">
<path opacity="0.7" fill-rule="evenodd" clip-rule="evenodd" d="M27.9618 46.4513H41.101V33.2993H27.9618V46.4513ZM14.8226 34.3286V21.8936C14.8226 20.9292 15.61 20.1473 16.5672 20.1473H52.4957C53.4592 20.1473 54.2403 20.9355 54.2403 21.8936V34.3286C51.7292 34.9224 49.8605 37.1804 49.8605 39.8753C49.8605 42.5702 51.7292 44.8283 54.2403 45.422V57.857C54.2403 58.8215 53.4529 59.6033 52.4957 59.6033H16.5672C15.6037 59.6033 14.8226 58.8152 14.8226 57.857V45.422C17.3337 44.8283 19.2023 42.5702 19.2023 39.8753C19.2023 37.1804 17.3337 34.9224 14.8226 34.3286ZM73.5909 54.0308C73.3389 54.0308 73.1346 53.8265 73.1346 53.5745V35.1498H68.1344C67.8824 35.1498 67.6781 34.9455 67.6781 34.6935V30.8859C67.6781 30.6338 67.8824 30.4295 68.1344 30.4295H83.7639C84.0159 30.4295 84.2202 30.6338 84.2202 30.8859V34.6935C84.2202 34.9455 84.0159 35.1498 83.7639 35.1498H78.7292V53.5745C78.7292 53.8265 78.5249 54.0308 78.2729 54.0308H73.5909ZM86.3383 32.3851C86.3383 30.5644 87.8233 29.1146 89.7227 29.1146C91.6567 29.1146 93.1417 30.5644 93.1417 32.3851C93.1417 34.172 91.6567 35.6555 89.7227 35.6555C87.8233 35.6555 86.3383 34.172 86.3383 32.3851ZM87.5544 54.0308C87.3024 54.0308 87.0981 53.8265 87.0981 53.5745V38.2359C87.0981 37.9839 87.3024 37.7796 87.5544 37.7796H91.9256C92.1776 37.7796 92.3819 37.9839 92.3819 38.2359V53.5745C92.3819 53.8265 92.1776 54.0308 91.9256 54.0308H87.5544ZM113.425 44.152H108.141C107.934 42.7022 107.002 41.7244 104.86 41.7244C102.339 41.7244 101.165 43.6799 101.165 45.9052C101.165 48.1642 102.305 50.086 105.068 50.086C106.898 50.086 107.727 49.3105 108.176 47.9282H113.46C112.941 51.6032 110.11 54.4691 104.826 54.4691C98.9895 54.4691 95.8814 50.4231 95.8814 45.9052C95.8814 41.421 98.9895 37.3413 104.826 37.3413C110.455 37.3413 113.08 40.6455 113.425 44.152ZM132.725 37.7796C132.829 37.7796 132.929 37.8148 133.01 37.8794C133.207 38.0368 133.239 38.3239 133.082 38.5208L127.181 45.9052L133.051 53.2906C133.115 53.3713 133.15 53.4713 133.15 53.5745C133.15 53.8265 132.946 54.0308 132.694 54.0308H127.582C127.438 54.0308 127.303 53.9632 127.217 53.8484L122.243 47.2201V53.5745C122.243 53.8265 122.039 54.0308 121.787 54.0308H117.415C117.163 54.0308 116.959 53.8265 116.959 53.5745V30.8859C116.959 30.6338 117.163 30.4295 117.415 30.4295H121.787C122.039 30.4295 122.243 30.6338 122.243 30.8859V44.6577L127.252 37.9626C127.338 37.8474 127.473 37.7796 127.617 37.7796H132.725ZM152.369 47.1527H140.385C140.489 49.1082 141.317 50.7603 144.08 50.7603C145.911 50.7603 146.808 49.9511 147.154 48.9059H152.334C151.851 51.9741 148.881 54.4691 144.115 54.4691C138.278 54.4691 135.136 50.9289 135.136 45.9052C135.136 41.1512 138.209 37.3413 143.977 37.3413C149.191 37.3413 152.541 40.7804 152.541 44.7589C152.541 45.4332 152.541 46.1749 152.369 47.1527ZM143.942 40.7804C141.87 40.7804 140.385 41.9941 140.385 44.1857H147.361C147.361 42.0953 145.945 40.7804 143.942 40.7804ZM166.643 50.086V54.0308C165.849 54.1656 164.674 54.3005 163.12 54.3005C160.634 54.3005 157.215 53.9971 157.215 48.5688V41.6233H155.047C154.795 41.6233 154.59 41.419 154.59 41.1669V38.2359C154.59 37.9839 154.795 37.7796 155.047 37.7796H157.215V33.4145C157.215 33.1625 157.419 32.9582 157.671 32.9582H162.008C162.26 32.9582 162.464 33.1625 162.464 33.4145V37.7796H165.807C166.059 37.7796 166.263 37.9839 166.263 38.2359V41.1669C166.263 41.419 166.059 41.6233 165.807 41.6233H162.464V47.4224C162.464 49.8163 163.431 50.1872 164.743 50.1872C165.4 50.1872 166.159 50.1534 166.643 50.086ZM178.327 44.4554C181.263 45.2983 183.68 46.0738 183.68 49.2431C183.68 53.0867 180.296 54.4691 176.151 54.4691C171.42 54.4691 168.485 52.345 168.485 48.6025H173.665C173.665 50.322 174.77 50.9963 176.324 50.9963C177.602 50.9963 178.5 50.558 178.5 49.4791C178.5 48.2316 177.187 48.063 174.045 47.0516C171.282 46.2087 168.899 45.4332 168.899 42.2976C168.899 38.926 171.766 37.3413 176.255 37.3413C181.09 37.3413 183.438 39.7352 183.438 42.837H178.223C178.223 41.4884 177.498 40.7129 176.048 40.7129C174.977 40.7129 174.079 41.185 174.079 42.1627C174.079 43.3428 175.53 43.5451 178.327 44.4554ZM187.249 53.5745V30.8859C187.249 30.6338 187.453 30.4295 187.705 30.4295H197.264C203.894 30.4295 205.103 34.3406 205.103 36.8019C205.103 39.7352 202.824 41.6233 200.89 42.0616C202.444 42.0953 205.31 43.8822 205.31 47.4224C205.31 49.8837 203.998 54.0308 197.367 54.0308H187.705C187.453 54.0308 187.249 53.8265 187.249 53.5745ZM192.809 40.0386H196.158C198.887 40.0386 199.508 38.3865 199.508 37.2065C199.508 36.1613 198.99 34.4417 196.158 34.4417H192.809V40.0386ZM196.331 44.0508H192.809V49.85H196.297C199.025 49.85 199.647 48.2653 199.647 46.9504C199.647 45.8715 199.025 44.0508 196.331 44.0508ZM217.374 54.4691C211.641 54.4691 208.153 50.558 208.153 45.9052C208.153 41.2524 211.641 37.3413 217.374 37.3413C223.176 37.3413 226.63 41.2524 226.63 45.9052C226.63 50.558 223.176 54.4691 217.374 54.4691ZM217.374 50.0523C219.792 50.0523 221.38 48.1979 221.38 45.9052C221.38 43.6462 219.792 41.7581 217.374 41.7581C214.991 41.7581 213.437 43.6462 213.437 45.9052C213.437 48.1979 214.991 50.0523 217.374 50.0523ZM239.868 45.8378L245.067 53.3139C245.121 53.3904 245.149 53.4813 245.149 53.5745C245.149 53.8265 244.945 54.0308 244.693 54.0308H239.717C239.554 54.0308 239.403 53.9439 239.322 53.8028L236.725 49.3105L234.129 53.8028C234.047 53.9439 233.897 54.0308 233.734 54.0308H228.761C228.667 54.0308 228.576 54.002 228.499 53.9483C228.292 53.8038 228.242 53.5193 228.387 53.3129L233.617 45.8378L228.489 38.4973C228.436 38.4206 228.407 38.3294 228.407 38.2359C228.407 37.9839 228.611 37.7796 228.863 37.7796H233.836C234 37.7796 234.151 37.8673 234.232 38.0093L236.725 42.365L239.218 38.0093C239.3 37.8673 239.451 37.7796 239.614 37.7796H244.59C244.683 37.7796 244.774 37.8081 244.85 37.8611C245.057 38.0048 245.109 38.2892 244.965 38.4962L239.868 45.8378Z" fill="white"/>
</svg>
