<svg width="149" height="121" viewBox="0 0 149 121" xmlns="http://www.w3.org/2000/svg"><g fill="none" fill-rule="evenodd"><g fill="#fff"><path d="M33.082 69.012c.847 0 1.622.484 2.116.83.21.14.564-.415.493-.553-.634-1.038-1.69-1.452-3.173-1.452-4.442 0-14.67 5.252-14.67 14.03 0 3.662 3.315 6.22 6.842 6.22 10.226 0 19.817-12.993 19.817-20.458 0-5.806-4.23-8.5-8.604-8.5-10.72 0-21.792 10.85-24.26 13.477C5.998 79.103.497 88.917.497 96.867c0 8.64 2.61 13.753 13.33 13.753 6.488 0 12.27-4.7 15.516-8.57 4.725-5.6 6.206-8.57 6.98-10.02.213-.347-.492-1.038-.774-.76-1.058 1.104-3.456 5.528-7.265 9.95-3.455 3.94-7.97 8.018-14.316 8.018-6.56 0-9.945-3.11-9.945-9.26 0-8.848 9.17-21.703 9.804-22.532 9.872-13.27 19.11-17.348 21.58-17.348 3.244 0 5.924 1.313 5.924 4.7 0 7.948-10.438 22.186-16.645 22.186-2.116 0-4.232-1.383-4.232-3.732 0-5.6 7.828-14.24 12.624-14.24zm14.03 34.212c9.804 0 13.612-13.96 13.612-17.97 0-3.524-1.904-6.428-6.488-6.428-10.085 0-14.81 12.233-14.81 16.656 0 4.08 2.398 7.742 7.687 7.742zm6.913-23.43c2.75 0 2.89 1.936 2.89 2.972 0 1.59-4.936 19.49-10.366 19.49-2.187 0-3.033-1.865-3.033-3.73 0-2.63 5.29-18.732 10.508-18.732zm19.254.483h6.064v-.967h-5.642l3.95-9.953c3.384-8.155 8.18-11.887 12.623-11.887.917 0 2.187.207 2.187.76 0 .69-.917.69-.917 1.59 0 1.244 1.27 2.143 2.468 2.143 1.764 0 2.82-1.106 2.82-2.35 0-2.143-2.82-3.11-5.218-3.11-8.745 0-15.728 5.46-18.337 12.854l-3.95 9.953h-6.275v.967h5.854l-10.932 27.37c-2.82 6.704-8.18 11.887-12.624 11.887-.916 0-2.186-.207-2.186-.76 0-.69.917-.69.917-1.59 0-1.244-1.27-2.143-2.468-2.143-1.763 0-2.82 1.107-2.82 2.35 0 2.144 2.82 3.11 5.22 3.11 8.18 0 15.444-5.666 18.335-12.853l10.932-27.37zm42.665-20.664c0-2.143-2.82-3.11-5.22-3.11-8.744 0-15.727 5.46-18.336 12.854l-3.95 9.953h-6.277v.967h5.854l-10.933 27.37c-2.82 6.704-8.18 11.887-12.624 11.887-.916 0-2.186-.207-2.186-.76 0-.69.916-.69.916-1.59 0-1.244-1.27-2.143-2.468-2.143-1.764 0-2.82 1.107-2.82 2.35 0 2.144 2.82 3.11 5.218 3.11 8.182 0 15.445-5.666 18.337-12.853l10.932-27.37h6.064v-.967H92.81l3.95-9.953c3.386-8.155 8.182-11.887 12.624-11.887.917 0 2.187.207 2.187.76 0 .69-.915.69-.915 1.59 0 1.244 1.27 2.143 2.468 2.143 1.765 0 2.822-1.107 2.822-2.35zm-9.142 19.213c-7.053 0-14.67 9.47-14.67 17.348 0 4.01 2.54 7.05 6.7 7.05 2.257 0 4.303-1.105 5.713-2.902 1.2-1.52 2.75-4.147 3.738-6.22.14-.347-.705-.69-.847-.347-.987 1.936-2.257 4.147-3.386 5.53-1.34 1.658-2.82 2.694-4.865 2.694-2.256-.07-3.455-1.245-3.455-3.388 0-1.45 1.2-4.77 2.75-8.017.564.068 1.27.138 1.975.138 4.303 0 10.438-1.935 10.438-8.293 0-2.418-1.622-3.594-4.09-3.594zm-6.63 10.782c-.353 0-.775 0-1.198-.07.987-2.003 4.372-9.744 7.123-9.744.775 0 1.058.83 1.058 1.52 0 2.143-1.41 8.294-6.982 8.294zm26.022-10.782c-7.053 0-14.67 9.47-14.67 17.348 0 4.01 2.54 7.05 6.7 7.05 2.257 0 4.303-1.105 5.713-2.902 1.2-1.52 2.75-4.147 3.738-6.22.14-.347-.706-.69-.847-.347-.988 1.936-2.258 4.147-3.387 5.53-1.34 1.658-2.82 2.694-4.866 2.694-2.257-.07-3.455-1.245-3.455-3.388 0-1.45 1.198-4.77 2.75-8.017.564.068 1.27.138 1.975.138 4.303 0 10.438-1.935 10.438-8.293 0-2.418-1.62-3.594-4.09-3.594zm-6.63 10.782c-.353 0-.775 0-1.198-.07.987-2.003 4.372-9.744 7.123-9.744.775 0 1.058.83 1.058 1.52 0 2.143-1.41 8.294-6.983 8.294zm12.948-19.304c-.254-.07-.528-.123-.82-.16-.294-.036-.575-.058-.845-.065-.27-.01-.486.005-.648.04l-3.145 5.594.727.49 5.362-5.08-.05-.578c-.133-.09-.326-.172-.58-.242zM61.56 46.694h1.634l.232.79h1.644l-1.684-4.623H61.48l-1.764 4.623h1.62l.224-.79zm.8-2.632h.032l.465 1.517h-.97l.473-1.518zm6.315 3.42h1.69v-4.62H68.98v2.148l.04.466h-.033l-1.683-2.615h-1.667v4.623h1.378v-1.967l-.03-.6h.03l1.66 2.567zm4.63-4.78c-.73 0-1.385.056-1.962.163v4.618l.232.04c.155.026.396.053.726.08.33.025.667.038 1.015.038.93 0 1.637-.21 2.123-.635.486-.424.73-1.03.73-1.822 0-.8-.25-1.414-.75-1.84-.5-.426-1.204-.64-2.112-.64zm.93 3.397c-.197.19-.5.286-.905.286h-.385V43.96h.36c.417 0 .726.097.926.29.2.193.302.505.302.934 0 .42-.098.724-.297.915zm5.345-1.346h22.236v-.385H79.58v.384zm-22.236-.385H35.107v.384h22.237v-.385zm-40.14-17.093L7.602 19.41l9.605-7.77-3.02-3.02L1.13 19.45l13.052 10.845 3.02-3.016zm7.292.42c.865.827 1.917 1.45 3.156 1.87 1.24.42 2.64.63 4.202.63 1.085 0 2.124-.088 3.118-.267.994-.178 1.956-.452 2.885-.82v-4.145c-.387.166-.804.32-1.25.46-.444.14-.896.264-1.354.37-.458.11-.917.19-1.375.25-.458.057-.894.085-1.307.085-.852 0-1.626-.137-2.323-.41-.696-.273-1.294-.67-1.79-1.184-.498-.516-.882-1.143-1.153-1.88-.27-.74-.406-1.573-.406-2.503 0-.89.126-1.71.378-2.453.25-.745.616-1.378 1.094-1.9.478-.52 1.064-.93 1.762-1.222.698-.293 1.484-.44 2.363-.44.84 0 1.726.11 2.662.326.936.216 1.804.52 2.604.916v-4.525c-.696-.203-1.48-.372-2.352-.506-.872-.135-1.946-.2-3.225-.2-1.562 0-2.98.24-4.25.725-1.27.483-2.36 1.17-3.263 2.062-.904.892-1.604 1.967-2.102 3.228-.497 1.26-.745 2.667-.745 4.22 0 1.604.23 3.017.688 4.24.46 1.22 1.12 2.244 1.986 3.072zm18.43.086c.8.833 1.774 1.46 2.924 1.88 1.148.42 2.452.63 3.91.63 1.537 0 2.906-.248 4.106-.744 1.2-.498 2.214-1.197 3.04-2.102.826-.903 1.46-1.988 1.898-3.255.438-1.267.658-2.664.658-4.19 0-1.63-.21-3.066-.63-4.307-.42-1.24-1.03-2.282-1.83-3.122-.8-.84-1.774-1.474-2.924-1.9-1.148-.426-2.46-.64-3.93-.64-1.512 0-2.867.246-4.067.735-1.2.49-2.217 1.18-3.05 2.07-.832.892-1.47 1.968-1.916 3.228-.445 1.26-.668 2.66-.668 4.2 0 1.668.213 3.13.64 4.383.425 1.255 1.04 2.3 1.84 3.133zm2.7-9.996c.175-.738.45-1.385.824-1.938.374-.555.852-.99 1.433-1.31.58-.318 1.284-.477 2.11-.477 1.498 0 2.63.506 3.398 1.52.77 1.01 1.153 2.522 1.153 4.533 0 .866-.09 1.675-.27 2.425-.183.753-.453 1.404-.814 1.958-.362.554-.834.986-1.415 1.3-.58.31-1.265.467-2.053.467-1.433 0-2.562-.513-3.39-1.537-.826-1.024-1.238-2.55-1.238-4.573 0-.84.088-1.63.263-2.368zM64.05 27.65c.612.846 1.37 1.497 2.274 1.955.903.46 1.937.688 3.1.688.696 0 1.332-.08 1.906-.238.574-.16 1.113-.382 1.617-.668.503-.287.975-.633 1.413-1.04.44-.408.865-.86 1.278-1.356l.116 2.865h4.086V2.875h-4.725v7.58c-.388-.102-.83-.184-1.327-.247-.496-.064-.99-.096-1.48-.096-1.46 0-2.81.207-4.048.62-1.24.414-2.31 1.05-3.214 1.91-.904.858-1.61 1.94-2.12 3.245-.51 1.305-.766 2.85-.766 4.63 0 1.49.16 2.84.484 4.05.324 1.208.792 2.236 1.405 3.082zm3.417-10.064c.232-.808.564-1.492.997-2.053.433-.56.952-.992 1.56-1.298.606-.306 1.29-.458 2.053-.458.555 0 1.106.045 1.655.133.55.09 1.01.204 1.385.345v8.478c-.813 1.107-1.582 1.98-2.305 2.615-.723.638-1.484.955-2.285.955-.542 0-1.026-.11-1.452-.334-.426-.224-.784-.577-1.075-1.06-.29-.485-.51-1.105-.658-1.863-.148-.757-.223-1.67-.223-2.74-.002-1.005.114-1.912.347-2.72zM85.94 27.802c.827.82 1.834 1.44 3.022 1.86 1.188.422 2.53.63 4.028.63.594 0 1.207-.02 1.84-.065.632-.045 1.258-.11 1.878-.2.62-.09 1.227-.19 1.82-.306.594-.114 1.143-.24 1.646-.38v-3.705c-1.175.33-2.308.57-3.398.716-1.09.148-2.113.22-3.07.22-.825 0-1.577-.114-2.255-.343-.677-.23-1.258-.563-1.74-1.002-.485-.44-.86-.984-1.125-1.634-.265-.647-.396-1.398-.396-2.252h12.935c.04-.445.067-.922.087-1.432.02-.51.03-.923.03-1.24 0-1.262-.19-2.42-.563-3.476-.376-1.057-.925-1.968-1.647-2.73-.723-.765-1.62-1.36-2.69-1.786-1.072-.426-2.306-.64-3.7-.64-1.406 0-2.682.252-3.824.755-1.144.5-2.114 1.215-2.915 2.138-.8.923-1.42 2.03-1.86 3.322-.437 1.292-.657 2.728-.657 4.306 0 1.59.22 2.99.658 4.2.436 1.21 1.07 2.224 1.895 3.046zm3.68-13.118c.762-.782 1.736-1.174 2.925-1.174.542 0 1.048.09 1.52.268.472.178.884.45 1.24.82.354.37.635.838.842 1.404.206.566.303 1.23.29 1.994h-8.172c.142-1.425.593-2.53 1.355-3.312zm32.946-11.81h-4.61L104.442 33.96h4.59l13.536-31.086zm-1.208 8.765l9.585 7.847-9.585 7.79 3 3.017 13.053-10.845L124.36 8.62l-3.002 3.017zm19.61-9.136h-1.68l-.91 1.33c-.11.173-.22.354-.32.535h-.02V.502h-1.395v6.43h1.396V5.546l.357-.436 1.083 1.82h1.718l-1.837-2.634 1.61-1.792zm6.014-.1c-.33 0-.606.072-.854.218-.21.126-.413.308-.578.534h-.02c-.19-.462-.65-.752-1.23-.752-.77 0-1.165.416-1.357.697h-.028l-.064-.597h-1.174c.02.39.036.86.036 1.412V6.93h1.36V4.35c0-.108.01-.235.055-.344.082-.227.294-.498.65-.498.442 0 .644.38.644.942v2.48h1.36V4.34c0-.108.02-.253.055-.353.092-.263.322-.48.644-.48.448 0 .66.372.66 1.015V6.93h1.358V4.323c0-1.32-.652-1.92-1.516-1.92z"/></g></g></svg>