<?xml version="1.0" encoding="UTF-8"?>
<svg width="58px" height="54px" viewBox="0 0 58 54" version="1.1" xmlns="http://www.w3.org/2000/svg" xmlns:xlink="http://www.w3.org/1999/xlink">
    <!-- Generator: Sketch 50.2 (55047) - http://www.bohemiancoding.com/sketch -->
    <title>ecommerce</title>
    <desc>Created with Sketch.</desc>
    <defs></defs>
    <g id="industrial-landings" stroke="none" stroke-width="1" fill="none" fill-rule="evenodd">
        <g id="icons-copy-3" transform="translate(-297.000000, -35.000000)">
            <g id="ecommerce" transform="translate(296.000000, 32.000000)">
                <rect id="Rectangle" x="0" y="0" width="60" height="60"></rect>
                <g id="014_online_shop_store_digital_computer_cart_ecommerce" transform="translate(2.000000, 4.000000)" fill="#7590D5">
                    <path d="M53.2,44.8 L35.4666667,44.8 L35.4666667,50.4 L38.2666667,50.4 C38.7828,50.4 39.2,50.8172 39.2,51.3333333 C39.2,51.8494667 38.7828,52.2666667 38.2666667,52.2666667 L34.5333333,52.2666667 L21.4666667,52.2666667 L17.7333333,52.2666667 C17.2172,52.2666667 16.8,51.8494667 16.8,51.3333333 C16.8,50.8172 17.2172,50.4 17.7333333,50.4 L20.5333333,50.4 L20.5333333,44.8 L2.8,44.8 C1.25626667,44.8 0,43.5437333 0,42 L0,2.8 C0,1.25626667 1.25626667,0 2.8,0 L53.2,0 C54.7437333,0 56,1.25626667 56,2.8 L56,42 C56,43.5437333 54.7437333,44.8 53.2,44.8 Z M22.4,50.4 L33.6,50.4 L33.6,44.8 L22.4,44.8 L22.4,50.4 Z M54.1333333,2.8 C54.1333333,2.2848 53.7152,1.86666667 53.2,1.86666667 L2.8,1.86666667 C2.2848,1.86666667 1.86666667,2.2848 1.86666667,2.8 L1.86666667,35.4666667 L54.1333333,35.4666667 L54.1333333,2.8 Z M54.1333333,37.3333333 L1.86666667,37.3333333 L1.86666667,42 C1.86666667,42.5152 2.2848,42.9333333 2.8,42.9333333 L21.4666667,42.9333333 L34.5333333,42.9333333 L53.2,42.9333333 C53.7152,42.9333333 54.1333333,42.5152 54.1333333,42 L54.1333333,37.3333333 Z M28.6626667,40.796 C28.5693333,40.88 28.4666667,40.9453333 28.3546667,40.992 C28.2426667,41.0386667 28.1213333,41.0666667 28,41.0666667 C27.8786667,41.0666667 27.7573333,41.0386667 27.6453333,40.992 C27.5333333,40.9453333 27.4306667,40.88 27.3373333,40.796 C27.2533333,40.7017333 27.188,40.6 27.1310667,40.488 C27.0853333,40.376 27.0666667,40.2546667 27.0666667,40.1333333 C27.0666667,39.8906667 27.1693333,39.6470667 27.3373333,39.4706667 C27.6826667,39.1253333 28.308,39.1253333 28.6626667,39.4706667 C28.8306667,39.6470667 28.9333333,39.8906667 28.9333333,40.1333333 C28.9333333,40.2546667 28.9053333,40.376 28.8586667,40.488 C28.812,40.6 28.7466667,40.7017333 28.6626667,40.796 Z" id="Shape" stroke="#7590D5" stroke-width="0.3" fill-rule="nonzero"></path>
                    <path d="M20,5 L21.565,5 C22.509,5 23.333,5.671 23.523,6.595 L23.815,8 L47,8 C47.308,8 47.599,8.142 47.788,8.385 C47.978,8.627 48.045,8.943 47.97,9.242 L44.97,21.242 C44.858,21.687 44.459,22 44,22 L25.414,22 L25.121,22.293 C24.732,22.683 24.732,23.317 25.121,23.707 C25.308,23.894 25.565,24 25.828,24 L43,24 C43.553,24 44,24.447 44,25 C44,25.553 43.553,26 43,26 L42,26 L42,26.278 C42.595,26.625 43,27.263 43,28 C43,29.102 42.103,30 41,30 C39.897,30 39,29.102 39,28 C39,27.263 39.405,26.625 40,26.278 L40,26 L28,26 L28,26.278 C28.595,26.625 29,27.263 29,28 C29,29.102 28.103,30 27,30 C25.897,30 25,29.102 25,28 C25,27.263 25.405,26.625 26,26.278 L26,26 L25.828,26 C25.027,26 24.273,25.687 23.707,25.121 C22.537,23.951 22.537,22.049 23.707,20.879 L23.929,20.657 L22.019,9.198 L21.565,7 L20,7 C19.447,7 19,6.553 19,6 C19,5.447 19.447,5 20,5 Z M25.847,20 L43.219,20 L45.719,10 L24.181,10 L25.847,20 Z" id="Combined-Shape"></path>
                    <rect id="Rectangle-2" x="30" y="9" width="2" height="10" rx="1"></rect>
                    <rect id="Rectangle-2" x="37" y="11" width="2" height="10" rx="1"></rect>
                    <rect id="Rectangle-2" transform="translate(36.000000, 17.000000) rotate(90.000000) translate(-36.000000, -17.000000) " x="35" y="8" width="2" height="18" rx="1"></rect>
                    <rect id="Rectangle-2" transform="translate(32.000000, 13.000000) rotate(90.000000) translate(-32.000000, -13.000000) " x="31" y="4" width="2" height="18" rx="1"></rect>
                    <g id="Group" transform="translate(13.000000, 17.500000) scale(-1, 1) translate(-13.000000, -17.500000) translate(5.000000, 8.000000)">
                        <path d="M1.2496582,18.0413086 L9.58334961,18.0413086 C10.1586372,18.0413086 10.625,17.5749458 10.625,16.9996582 L10.625,16.9996582 C10.625,16.4243706 10.1586372,15.9580078 9.58334961,15.9580078 L1.2496582,15.9580078 C0.674370578,15.9580078 0.208007812,16.4243706 0.208007812,16.9996582 L0.208007812,16.9996582 C0.208007813,17.5749458 0.674370578,18.0413086 1.2496582,18.0413086 Z" id="Fill-5"></path>
                        <path d="M4.3746582,2.41630859 L9.54135742,2.41630859 C10.116645,2.41630859 10.5830078,1.94994583 10.5830078,1.3746582 L10.5830078,1.3746582 C10.5830078,0.799370578 10.116645,0.333007812 9.54135742,0.333007812 L4.3746582,0.333007812 C3.79937058,0.333007812 3.33300781,0.799370578 3.33300781,1.3746582 L3.33300781,1.3746582 C3.33300781,1.94994583 3.79937058,2.41630859 4.3746582,2.41630859 Z" id="Fill-2"></path>
                        <path d="M3.33364258,7.62529297 L9.58334961,7.62529297 C10.1586372,7.62529297 10.625,7.1589302 10.625,6.58364258 L10.625,6.58364258 C10.625,6.00835495 10.1586372,5.54199219 9.58334961,5.54199219 L3.33364258,5.54199219 C2.75835495,5.54199219 2.29199219,6.00835495 2.29199219,6.58364258 L2.29199219,6.58364258 C2.29199219,7.1589302 2.75835495,7.62529297 3.33364258,7.62529297 Z" id="Fill-3"></path>
                        <path d="M2.29165039,12.8333008 L9.54135742,12.8333008 C10.116645,12.8333008 10.5830078,12.366938 10.5830078,11.7916504 L10.5830078,11.7916504 C10.5830078,11.2163628 10.116645,10.75 9.54135742,10.75 L2.29165039,10.75 C1.71636277,10.75 1.25,11.2163628 1.25,11.7916504 L1.25,11.7916504 C1.25,12.366938 1.71636277,12.8333008 2.29165039,12.8333008 Z" id="Fill-4"></path>
                        <path d="M12.7086426,2.41630859 L13.7086426,2.41630859 C14.2839302,2.41630859 14.750293,1.94994583 14.750293,1.3746582 L14.750293,1.3746582 C14.750293,0.799370578 14.2839302,0.333007813 13.7086426,0.333007813 L12.7086426,0.333007812 C12.133355,0.333007813 11.6669922,0.799370578 11.6669922,1.3746582 L11.6669922,1.3746582 C11.6669922,1.94994583 12.133355,2.41630859 12.7086426,2.41630859 Z" id="Fill-9"></path>
                        <path d="M12.7086426,12.8333008 L14.7086426,12.8333008 C15.2839302,12.8333008 15.750293,12.366938 15.750293,11.7916504 L15.750293,11.7916504 C15.750293,11.2163628 15.2839302,10.75 14.7086426,10.75 L12.7086426,10.75 C12.133355,10.75 11.6669922,11.2163628 11.6669922,11.7916504 L11.6669922,11.7916504 C11.6669922,12.366938 12.133355,12.8333008 12.7086426,12.8333008 Z" id="Fill-10"></path>
                    </g>
                </g>
            </g>
        </g>
    </g>
</svg>