<?xml version="1.0" encoding="UTF-8"?>
<svg width="61px" height="60px" viewBox="0 0 61 60" version="1.1" xmlns="http://www.w3.org/2000/svg" xmlns:xlink="http://www.w3.org/1999/xlink">
    <!-- Generator: Sketch 46.2 (44496) - http://www.bohemiancoding.com/sketch -->
    <title>features2</title>
    <desc>Created with Sketch.</desc>
    <defs></defs>
    <g id="mainpage" stroke="none" stroke-width="1" fill="none" fill-rule="evenodd">
        <g id="landing-v4.2" transform="translate(-686.000000, -7411.000000)" fill="#D7C76E">
            <g id="full-cycle" transform="translate(220.000000, 7279.000000)">
                <path d="M514.007,171.001 C514.007,170.449 514.454,170.001 515.007,170.001 L521.008,170.001 C521.561,170.001 522.008,170.449 522.008,171.001 L522.008,177.001 C522.008,177.553 521.561,178.001 521.008,178.001 L515.007,178.001 C514.454,178.001 514.007,177.553 514.007,177.001 L514.007,171.001 Z M516.007,176.001 L520.008,176.001 L520.008,172.001 L516.007,172.001 L516.007,176.001 Z M515.007,184.001 L521.008,184.001 C521.561,184.001 522.008,184.449 522.008,185.001 C522.008,185.554 521.561,186.001 521.008,186.001 L515.007,186.001 C514.454,186.001 514.007,185.554 514.007,185.001 C514.007,184.449 514.454,184.001 515.007,184.001 Z M515.007,180.001 L521.008,180.001 C521.561,180.001 522.008,180.449 522.008,181.001 C522.008,181.553 521.561,182.001 521.008,182.001 L515.007,182.001 C514.454,182.001 514.007,181.553 514.007,181.001 C514.007,180.449 514.454,180.001 515.007,180.001 Z M504.295,167.291 C504.666,166.921 505.336,166.921 505.716,167.291 C505.895,167.481 506.006,167.731 506.006,168.001 C506.006,168.131 505.976,168.261 505.926,168.381 C505.876,168.501 505.805,168.611 505.716,168.711 C505.525,168.89 505.265,169.001 505.006,169.001 C504.746,169.001 504.485,168.89 504.295,168.711 C504.206,168.611 504.135,168.501 504.086,168.381 C504.036,168.261 504.006,168.131 504.006,168.001 C504.006,167.731 504.115,167.481 504.295,167.291 Z M507.296,168.711 C507.256,168.661 507.206,168.611 507.176,168.551 C507.136,168.501 507.106,168.441 507.086,168.381 C507.056,168.321 507.036,168.261 507.025,168.201 C507.016,168.131 507.006,168.061 507.006,168.001 C507.006,167.741 507.115,167.481 507.296,167.291 C507.666,166.921 508.336,166.921 508.716,167.291 C508.896,167.481 509.006,167.741 509.006,168.001 C509.006,168.261 508.896,168.521 508.716,168.711 C508.526,168.89 508.266,169.001 508.006,169.001 C507.736,169.001 507.485,168.89 507.296,168.711 Z M510.806,168.981 C510.747,168.971 510.686,168.951 510.626,168.921 C510.566,168.901 510.506,168.871 510.446,168.83 C510.396,168.791 510.346,168.751 510.297,168.711 C510.257,168.661 510.207,168.611 510.176,168.551 C510.136,168.501 510.106,168.441 510.086,168.381 C510.056,168.321 510.037,168.261 510.026,168.201 C510.016,168.131 510.006,168.071 510.006,168.001 C510.006,167.741 510.116,167.481 510.297,167.291 C510.346,167.251 510.396,167.211 510.446,167.171 C510.506,167.131 510.566,167.1 510.626,167.08 C510.686,167.051 510.747,167.031 510.806,167.021 C511.136,166.961 511.476,167.061 511.717,167.291 C511.896,167.481 512.007,167.741 512.007,168.001 C512.007,168.271 511.896,168.521 511.717,168.711 C511.526,168.89 511.266,169.001 511.006,169.001 C510.936,169.001 510.877,168.991 510.806,168.981 Z M504.006,171.001 C504.006,170.449 504.453,170.001 505.006,170.001 L511.006,170.001 C511.559,170.001 512.007,170.449 512.007,171.001 L512.007,177.001 C512.007,177.553 511.559,178.001 511.006,178.001 L505.006,178.001 C504.453,178.001 504.006,177.553 504.006,177.001 L504.006,171.001 Z M506.006,176.001 L510.006,176.001 L510.006,172.001 L506.006,172.001 L506.006,176.001 Z M505.006,184.001 L511.006,184.001 C511.559,184.001 512.007,184.449 512.007,185.001 C512.007,185.554 511.559,186.001 511.006,186.001 L505.006,186.001 C504.453,186.001 504.006,185.554 504.006,185.001 C504.006,184.449 504.453,184.001 505.006,184.001 Z M505.006,180.001 L511.006,180.001 C511.559,180.001 512.007,180.449 512.007,181.001 C512.007,181.553 511.559,182.001 511.006,182.001 L505.006,182.001 C504.453,182.001 504.006,181.553 504.006,181.001 C504.006,180.449 504.453,180.001 505.006,180.001 Z M505.006,156 C504.453,156 504.006,155.553 504.006,155 C504.006,154.448 504.453,154 505.006,154 L521.008,154 C521.561,154 522.008,154.448 522.008,155 L522.008,165.001 C522.008,165.553 521.561,166.001 521.008,166.001 L505.006,166.001 C504.453,166.001 504.006,165.553 504.006,165.001 C504.006,164.449 504.453,164.001 505.006,164.001 L520.008,164.001 L520.008,156 L505.006,156 Z M505.006,147 L522.008,147 C522.561,147 523.008,147.448 523.008,148 C523.008,148.552 522.561,149 522.008,149 L505.006,149 C504.453,149 504.006,148.552 504.006,148 C504.006,147.448 504.453,147 505.006,147 Z M525.009,192.002 L491.004,192.002 C490.451,192.002 490.003,191.554 490.003,191.002 L490.003,183.001 C490.003,182.449 490.451,182.001 491.004,182.001 C491.556,182.001 492.004,182.449 492.004,183.001 L492.004,190.002 L524.008,190.002 L524.008,152 L505.006,152 C504.453,152 504.006,151.553 504.006,151 C504.006,150.448 504.453,150 505.006,150 L524.008,150 L524.008,147 C524.008,146.449 523.56,146 523.008,146 L505.006,146 C504.453,146 504.006,145.552 504.006,145 C504.006,144.448 504.453,144 505.006,144 L523.008,144 C524.663,144 526.009,145.346 526.009,147 L526.009,191.002 C526.009,191.554 525.561,192.002 525.009,192.002 Z M517.715,141.706 C517.623,141.799 517.512,141.872 517.389,141.923 C517.267,141.973 517.138,142 517.007,142 C516.877,142 516.748,141.973 516.625,141.923 C516.503,141.872 516.392,141.799 516.299,141.706 L513.3,138.707 C512.909,138.316 512.909,137.683 513.3,137.293 C513.691,136.902 514.323,136.902 514.714,137.293 L516.007,138.586 L516.007,134 L505.006,134 C504.453,134 504.006,133.552 504.006,133 C504.006,132.448 504.453,132 505.006,132 L517.007,132 C517.56,132 518.007,132.448 518.007,133 L518.007,138.586 L519.301,137.293 C519.691,136.902 520.324,136.902 520.715,137.293 C521.106,137.683 521.106,138.316 520.715,138.707 L517.715,141.706 Z M501.005,186.001 L495.004,186.001 C494.452,186.001 494.004,185.554 494.004,185.001 C494.004,184.449 494.452,184.001 495.004,184.001 L501.005,184.001 C501.558,184.001 502.005,184.449 502.005,185.001 C502.005,185.554 501.558,186.001 501.005,186.001 Z M501.005,180.001 L467,180.001 C466.448,180.001 466,179.553 466,179.001 L466,133 C466,132.448 466.448,132 467,132 L493.004,132 C493.138,132 493.268,132.027 493.389,132.077 C493.511,132.128 493.62,132.202 493.712,132.294 L501.711,140.292 C501.803,140.384 501.877,140.494 501.928,140.615 C501.978,140.736 502.005,140.867 502.005,141 L502.005,179.001 C502.005,179.553 501.558,180.001 501.005,180.001 Z M494.004,135.414 L494.004,140 L498.591,140 L494.004,135.414 Z M500.005,142 L493.004,142 C492.451,142 492.004,141.552 492.004,141 L492.004,134 L468,134 L468,178.001 L500.005,178.001 L500.005,142 Z M473.001,140 L474.001,140 C474.554,140 475.001,140.448 475.001,141 C475.001,141.552 474.554,142 474.001,142 L473.001,142 C472.448,142 472.001,141.552 472.001,141 C472.001,140.448 472.448,140 473.001,140 Z M473.001,144 L474.001,144 C474.554,144 475.001,144.448 475.001,145 C475.001,145.552 474.554,146 474.001,146 L473.001,146 C472.448,146 472.001,145.552 472.001,145 C472.001,144.448 472.448,144 473.001,144 Z M473.001,148 L474.001,148 C474.554,148 475.001,148.448 475.001,149 C475.001,149.552 474.554,150 474.001,150 L473.001,150 C472.448,150 472.001,149.552 472.001,149 C472.001,148.448 472.448,148 473.001,148 Z M473.001,152 L474.001,152 C474.554,152 475.001,152.448 475.001,153 C475.001,153.553 474.554,154 474.001,154 L473.001,154 C472.448,154 472.001,153.553 472.001,153 C472.001,152.448 472.448,152 473.001,152 Z M473.001,156 L474.001,156 C474.554,156 475.001,156.448 475.001,157 C475.001,157.553 474.554,158.001 474.001,158.001 L473.001,158.001 C472.448,158.001 472.001,157.553 472.001,157 C472.001,156.448 472.448,156 473.001,156 Z M473.001,160.001 L474.001,160.001 C474.554,160.001 475.001,160.448 475.001,161.001 C475.001,161.553 474.554,162.001 474.001,162.001 L473.001,162.001 C472.448,162.001 472.001,161.553 472.001,161.001 C472.001,160.448 472.448,160.001 473.001,160.001 Z M473.001,164.001 L474.001,164.001 C474.554,164.001 475.001,164.449 475.001,165.001 C475.001,165.553 474.554,166.001 474.001,166.001 L473.001,166.001 C472.448,166.001 472.001,165.553 472.001,165.001 C472.001,164.449 472.448,164.001 473.001,164.001 Z M473.001,168.001 L474.001,168.001 C474.554,168.001 475.001,168.449 475.001,169.001 C475.001,169.553 474.554,170.001 474.001,170.001 L473.001,170.001 C472.448,170.001 472.001,169.553 472.001,169.001 C472.001,168.449 472.448,168.001 473.001,168.001 Z M473.001,172.001 L474.001,172.001 C474.554,172.001 475.001,172.449 475.001,173.001 C475.001,173.553 474.554,174.001 474.001,174.001 L473.001,174.001 C472.448,174.001 472.001,173.553 472.001,173.001 C472.001,172.449 472.448,172.001 473.001,172.001 Z M478.002,140 L481.002,140 C481.555,140 482.002,140.448 482.002,141 C482.002,141.552 481.555,142 481.002,142 L478.002,142 C477.449,142 477.002,141.552 477.002,141 C477.002,140.448 477.449,140 478.002,140 Z M478.002,144 L483.002,144 C483.555,144 484.003,144.448 484.003,145 C484.003,145.552 483.555,146 483.002,146 L478.002,146 C477.449,146 477.002,145.552 477.002,145 C477.002,144.448 477.449,144 478.002,144 Z M478.002,148 L485.003,148 C485.556,148 486.003,148.448 486.003,149 C486.003,149.552 485.556,150 485.003,150 L478.002,150 C477.449,150 477.002,149.552 477.002,149 C477.002,148.448 477.449,148 478.002,148 Z M478.002,152 L481.002,152 C481.555,152 482.002,152.448 482.002,153 C482.002,153.553 481.555,154 481.002,154 L478.002,154 C477.449,154 477.002,153.553 477.002,153 C477.002,152.448 477.449,152 478.002,152 Z M478.002,156 L480.002,156 C480.555,156 481.002,156.448 481.002,157 C481.002,157.553 480.555,158.001 480.002,158.001 L478.002,158.001 C477.449,158.001 477.002,157.553 477.002,157 C477.002,156.448 477.449,156 478.002,156 Z M478.002,160.001 L484.003,160.001 C484.555,160.001 485.003,160.448 485.003,161.001 C485.003,161.553 484.555,162.001 484.003,162.001 L478.002,162.001 C477.449,162.001 477.002,161.553 477.002,161.001 C477.002,160.448 477.449,160.001 478.002,160.001 Z M478.002,164.001 L479.002,164.001 C479.555,164.001 480.002,164.449 480.002,165.001 C480.002,165.553 479.555,166.001 479.002,166.001 L478.002,166.001 C477.449,166.001 477.002,165.553 477.002,165.001 C477.002,164.449 477.449,164.001 478.002,164.001 Z M478.002,168.001 L487.003,168.001 C487.556,168.001 488.003,168.449 488.003,169.001 C488.003,169.553 487.556,170.001 487.003,170.001 L478.002,170.001 C477.449,170.001 477.002,169.553 477.002,169.001 C477.002,168.449 477.449,168.001 478.002,168.001 Z M478.002,172.001 L485.003,172.001 C485.556,172.001 486.003,172.449 486.003,173.001 C486.003,173.553 485.556,174.001 485.003,174.001 L478.002,174.001 C477.449,174.001 477.002,173.553 477.002,173.001 C477.002,172.449 477.449,172.001 478.002,172.001 Z M489.003,172.001 L495.004,172.001 C495.557,172.001 496.004,172.449 496.004,173.001 C496.004,173.553 495.557,174.001 495.004,174.001 L489.003,174.001 C488.45,174.001 488.003,173.553 488.003,173.001 C488.003,172.449 488.45,172.001 489.003,172.001 Z M495.004,170.001 L491.004,170.001 C490.451,170.001 490.003,169.553 490.003,169.001 C490.003,168.449 490.451,168.001 491.004,168.001 L495.004,168.001 C495.557,168.001 496.004,168.449 496.004,169.001 C496.004,169.553 495.557,170.001 495.004,170.001 Z M495.004,166.001 L493.004,166.001 C492.451,166.001 492.004,165.553 492.004,165.001 C492.004,164.449 492.451,164.001 493.004,164.001 L495.004,164.001 C495.557,164.001 496.004,164.449 496.004,165.001 C496.004,165.553 495.557,166.001 495.004,166.001 Z M495.004,162.001 L488.003,162.001 C487.45,162.001 487.003,161.553 487.003,161.001 C487.003,160.448 487.45,160.001 488.003,160.001 L495.004,160.001 C495.557,160.001 496.004,160.448 496.004,161.001 C496.004,161.553 495.557,162.001 495.004,162.001 Z M495.004,158.001 L490.003,158.001 C489.451,158.001 489.003,157.553 489.003,157 C489.003,156.448 489.451,156 490.003,156 L495.004,156 C495.557,156 496.004,156.448 496.004,157 C496.004,157.553 495.557,158.001 495.004,158.001 Z M490.003,165.001 C490.003,165.553 489.556,166.001 489.003,166.001 L483.002,166.001 C482.45,166.001 482.002,165.553 482.002,165.001 C482.002,164.449 482.45,164.001 483.002,164.001 L489.003,164.001 C489.556,164.001 490.003,164.449 490.003,165.001 Z M483.002,157 C483.002,156.448 483.45,156 484.003,156 L486.003,156 C486.556,156 487.003,156.448 487.003,157 C487.003,157.553 486.556,158.001 486.003,158.001 L484.003,158.001 C483.45,158.001 483.002,157.553 483.002,157 Z M495.004,154 L485.003,154 C484.45,154 484.003,153.553 484.003,153 C484.003,152.448 484.45,152 485.003,152 L495.004,152 C495.557,152 496.004,152.448 496.004,153 C496.004,153.553 495.557,154 495.004,154 Z M495.004,150 L489.003,150 C488.45,150 488.003,149.552 488.003,149 C488.003,148.448 488.45,148 489.003,148 L495.004,148 C495.557,148 496.004,148.448 496.004,149 C496.004,149.552 495.557,150 495.004,150 Z M495.004,146 L493.004,146 C492.451,146 492.004,145.552 492.004,145 C492.004,144.448 492.451,144 493.004,144 L495.004,144 C495.557,144 496.004,144.448 496.004,145 C496.004,145.552 495.557,146 495.004,146 Z M489.003,146 L487.003,146 C486.45,146 486.003,145.552 486.003,145 C486.003,144.448 486.45,144 487.003,144 L489.003,144 C489.556,144 490.003,144.448 490.003,145 C490.003,145.552 489.556,146 489.003,146 Z M489.003,142 L485.003,142 C484.45,142 484.003,141.552 484.003,141 C484.003,140.448 484.45,140 485.003,140 L489.003,140 C489.556,140 490.003,140.448 490.003,141 C490.003,141.552 489.556,142 489.003,142 Z M474.293,182.295 C474.386,182.203 474.496,182.129 474.619,182.078 C474.864,181.977 475.139,181.977 475.384,182.078 C475.506,182.129 475.617,182.203 475.71,182.295 L478.709,185.294 C479.1,185.685 479.1,186.318 478.709,186.708 C478.514,186.904 478.258,187.001 478.002,187.001 C477.746,187.001 477.49,186.904 477.295,186.708 L476.002,185.415 L476.002,190.002 L487.003,190.002 C487.556,190.002 488.003,190.449 488.003,191.002 C488.003,191.554 487.556,192.002 487.003,192.002 L475.001,192.002 C474.449,192.002 474.001,191.554 474.001,191.002 L474.001,185.415 L472.708,186.708 C472.318,187.099 471.684,187.099 471.294,186.708 C470.903,186.318 470.903,185.685 471.294,185.294 L474.293,182.295 Z" id="features2"></path>
            </g>
        </g>
    </g>
</svg>