<?xml version="1.0" encoding="UTF-8"?>
<svg width="56px" height="56px" viewBox="0 0 56 56" version="1.1" xmlns="http://www.w3.org/2000/svg" xmlns:xlink="http://www.w3.org/1999/xlink">
    <!-- Generator: Sketch 46.2 (44496) - http://www.bohemiancoding.com/sketch -->
    <title>features4</title>
    <desc>Created with Sketch.</desc>
    <defs></defs>
    <g id="mainpage" stroke="none" stroke-width="1" fill="none" fill-rule="evenodd">
        <g id="landing-v4.2" transform="translate(-351.000000, -7688.000000)" fill="#D7C76E">
            <g id="full-cycle" transform="translate(220.000000, 7279.000000)">
                <path d="M186.892605,416.447 L180.892605,428.447 C180.748605,428.734 180.475605,428.935 180.158605,428.987 C179.840605,429.035 179.517605,428.933 179.291605,428.706 L174.335605,423.751 L168.917605,436.393 C168.791605,436.688 168.531605,436.904 168.218605,436.975 C168.145605,436.991 168.071605,436.999 167.998605,436.999 C167.757605,436.999 167.521605,436.912 167.337605,436.749 L162.468605,432.453 C161.713605,432.796 160.881605,432.999 159.999605,432.999 C159.565605,432.999 159.144605,432.948 158.736605,432.86 L153.908605,443.415 C153.745605,443.771 153.390605,443.999 152.999605,443.999 L147.676605,443.999 L143.928605,453.37 C143.803605,453.682 143.529605,453.911 143.200605,453.978 C142.872605,454.047 142.530605,453.943 142.292605,453.706 L137.313605,448.726 L132.910605,458.412 C132.742605,458.781 132.379605,458.999 131.999605,458.999 C131.860605,458.999 131.720605,458.97 131.586605,458.909 C131.083605,458.68 130.861605,458.087 131.089605,457.585 L136.089605,446.585 C136.225605,446.286 136.498605,446.074 136.821605,446.015 C137.143605,445.957 137.474605,446.059 137.706605,446.292 L142.634605,451.219 L146.070605,442.627 C146.222605,442.248 146.590605,441.999 146.999605,441.999 L152.357605,441.999 L156.884605,432.102 C155.161605,431.047 153.999605,429.164 153.999605,426.999 C153.999605,423.691 156.690605,421 159.999605,421 C163.307605,421 165.998605,423.691 165.998605,426.999 C165.998605,428.683 165.297605,430.201 164.176605,431.292 L167.624605,434.335 L173.079605,421.606 C173.209605,421.301 173.483605,421.08 173.809605,421.018 C174.135605,420.954 174.470605,421.058 174.705605,421.293 L179.724605,426.311 L185.103605,415.552 C185.350605,415.059 185.950605,414.857 186.445605,415.105 C186.939605,415.352 187.139605,415.953 186.892605,416.447 Z M159.999605,422.999 C157.793605,422.999 155.998605,424.794 155.998605,426.999 C155.998605,429.205 157.793605,430.999 159.999605,430.999 C160.798605,430.999 161.539605,430.758 162.165605,430.352 C162.172605,430.349 162.179605,430.344 162.186605,430.341 C163.275605,429.625 163.998605,428.397 163.998605,426.999 C163.998605,424.794 162.204605,422.999 159.999605,422.999 Z M159.999605,428.999 C158.896605,428.999 157.998605,428.102 157.998605,426.999 C157.998605,425.896 158.896605,424.999 159.999605,424.999 C161.101605,424.999 161.998605,425.896 161.998605,426.999 C161.998605,428.102 161.101605,428.999 159.999605,428.999 Z M159.999605,419 C159.448605,419 158.999605,418.549 158.999605,418 C158.999605,417.449 159.448605,417 159.999605,417 C160.548605,417 160.998605,417.449 160.998605,418 C160.998605,418.549 160.548605,419 159.999605,419 Z M159.999605,415 C159.448605,415 158.999605,414.55 158.999605,414 C158.999605,413.45 159.448605,413 159.999605,413 C160.548605,413 160.998605,413.45 160.998605,414 C160.998605,414.55 160.548605,415 159.999605,415 Z M159.999605,411 C159.448605,411 158.999605,410.55 158.999605,410 C158.999605,409.45 159.448605,409 159.999605,409 C160.548605,409 160.998605,409.45 160.998605,410 C160.998605,410.55 160.548605,411 159.999605,411 Z M159.999605,434.999 C160.548605,434.999 160.998605,435.449 160.998605,435.999 C160.998605,436.549 160.548605,436.999 159.999605,436.999 C159.448605,436.999 158.999605,436.549 158.999605,435.999 C158.999605,435.449 159.448605,434.999 159.999605,434.999 Z M159.999605,438.999 C160.548605,438.999 160.998605,439.449 160.998605,439.999 C160.998605,440.549 160.548605,440.999 159.999605,440.999 C159.448605,440.999 158.999605,440.549 158.999605,439.999 C158.999605,439.449 159.448605,438.999 159.999605,438.999 Z M159.999605,442.999 C160.548605,442.999 160.998605,443.449 160.998605,443.999 C160.998605,444.549 160.548605,444.999 159.999605,444.999 C159.448605,444.999 158.999605,444.549 158.999605,443.999 C158.999605,443.449 159.448605,442.999 159.999605,442.999 Z M159.999605,446.999 C160.548605,446.999 160.998605,447.448 160.998605,447.999 C160.998605,448.549 160.548605,448.999 159.999605,448.999 C159.448605,448.999 158.999605,448.549 158.999605,447.999 C158.999605,447.448 159.448605,446.999 159.999605,446.999 Z M159.999605,450.999 C160.548605,450.999 160.998605,451.448 160.998605,451.999 C160.998605,452.548 160.548605,452.999 159.999605,452.999 C159.448605,452.999 158.999605,452.548 158.999605,451.999 C158.999605,451.448 159.448605,450.999 159.999605,450.999 Z M159.999605,454.999 C160.548605,454.999 160.998605,455.448 160.998605,455.999 C160.998605,456.548 160.548605,456.999 159.999605,456.999 C159.448605,456.999 158.999605,456.548 158.999605,455.999 C158.999605,455.448 159.448605,454.999 159.999605,454.999 Z M159.999605,458.999 C160.548605,458.999 160.998605,459.448 160.998605,459.998 C160.998605,460.548 160.548605,460.998 159.999605,460.998 C159.448605,460.998 158.999605,460.548 158.999605,459.998 C158.999605,459.448 159.448605,458.999 159.999605,458.999 Z M159.999605,462.998 C160.548605,462.998 160.998605,463.448 160.998605,463.998 C160.998605,464.548 160.548605,464.998 159.999605,464.998 C159.448605,464.998 158.999605,464.548 158.999605,463.998 C158.999605,463.448 159.448605,462.998 159.999605,462.998 Z" id="features4"></path>
            </g>
        </g>
    </g>
</svg>