<?xml version="1.0" encoding="UTF-8"?>
<svg width="56px" height="56px" viewBox="0 0 56 56" version="1.1" xmlns="http://www.w3.org/2000/svg" xmlns:xlink="http://www.w3.org/1999/xlink">
    <!-- Generator: Sketch 46.2 (44496) - http://www.bohemiancoding.com/sketch -->
    <title>features9</title>
    <desc>Created with Sketch.</desc>
    <defs></defs>
    <g id="mainpage" stroke="none" stroke-width="1" fill="none" fill-rule="evenodd">
        <g id="landing-v4.2" transform="translate(-1032.000000, -7954.000000)" fill="#D7C76E">
            <g id="full-cycle" transform="translate(220.000000, 7279.000000)">
                <path d="M866.979736,690.570577 C866.960736,690.570577 866.950736,690.570577 866.930736,690.560577 C866.379736,690.541577 865.950736,690.070577 865.980736,689.521577 C866.000736,688.970577 866.470736,688.541577 867.020736,688.570577 C867.569736,688.591577 868.000736,689.060577 867.980736,689.610577 C867.950736,690.150577 867.510736,690.570577 866.979736,690.570577 Z M866.810736,686.570577 C866.720736,686.600577 866.629736,686.610577 866.550736,686.610577 C866.100736,686.610577 865.700736,686.310577 865.580736,685.861577 C865.439736,685.330577 865.750736,684.780577 866.290736,684.640577 C866.819736,684.501577 867.370736,684.810577 867.510736,685.350577 C867.660736,685.881577 867.339736,686.430577 866.810736,686.570577 Z M865.479736,682.800577 C865.310736,682.910577 865.120736,682.961577 864.939736,682.961577 C864.609736,682.961577 864.290736,682.800577 864.100736,682.501577 C863.800736,682.041577 863.930736,681.421577 864.400736,681.120577 C864.859736,680.820577 865.479736,680.961577 865.780736,681.421577 C866.069736,681.890577 865.940736,682.510577 865.479736,682.800577 Z M865.050736,696.030577 C865.065736,696.093577 865.061736,696.152577 865.065736,696.214577 C865.092736,696.313577 865.117736,696.414577 865.143736,696.514577 C865.205736,696.642577 865.244736,696.779577 865.248736,696.921577 C865.269736,697.010577 865.284736,697.101577 865.305736,697.189577 C865.325736,697.240577 865.357736,697.284577 865.369736,697.340577 C865.420736,697.568577 865.439736,697.801577 865.483736,698.031577 C865.608736,698.658577 865.718736,699.290577 865.797736,699.932577 C865.821736,700.134577 865.836736,700.335577 865.855736,700.538577 C865.936736,701.342577 865.990736,702.155577 865.990736,702.981577 C865.990736,703.831577 865.936736,704.668577 865.851736,705.496577 C865.835736,705.665577 865.822736,705.833577 865.802736,706.001577 C865.720736,706.674577 865.604736,707.337577 865.473736,707.994577 C865.432736,708.203577 865.415736,708.414577 865.369736,708.622577 C865.360736,708.664577 865.336736,708.698577 865.321736,708.738577 C865.315736,708.764577 865.311736,708.790577 865.305736,708.816577 C865.359736,708.866577 865.416736,708.909577 865.460736,708.970577 C865.770736,709.420577 865.660736,710.041577 865.209736,710.360577 C865.106736,710.434577 864.989736,710.477577 864.870736,710.506577 C864.595736,711.415577 864.276736,712.304577 863.906736,713.168577 C863.902736,713.179577 863.904736,713.190577 863.900736,713.200577 C863.889736,713.225577 863.871736,713.243577 863.859736,713.266577 C863.338736,714.472577 862.712736,715.619577 862.021736,716.722577 C861.999736,716.775577 861.991736,716.831577 861.960736,716.880577 C861.939736,716.913577 861.903736,716.926577 861.879736,716.956577 C861.180736,718.046577 860.404736,719.077577 859.556736,720.048577 C859.526736,720.099577 859.509736,720.154577 859.470736,720.200577 C859.427736,720.247577 859.370736,720.269577 859.321736,720.306577 C858.447736,721.281577 857.521736,722.209577 856.510736,723.043577 C856.498736,723.054577 856.492736,723.069577 856.479736,723.080577 C856.455736,723.100577 856.425736,723.108577 856.400736,723.125577 C855.394736,723.946577 854.314736,724.675577 853.192736,725.340577 C853.149736,725.376577 853.118736,725.421577 853.069736,725.450577 C853.035736,725.469577 852.996736,725.465577 852.961736,725.480577 C851.834736,726.132577 850.656736,726.700577 849.431736,727.180577 C849.392736,727.201577 849.362736,727.234577 849.319736,727.251577 C849.262736,727.275577 849.203736,727.273577 849.145736,727.284577 C848.683736,727.459577 848.227736,727.646577 847.753736,727.795577 C847.751736,727.983577 847.713736,728.172577 847.600736,728.340577 C847.410736,728.630577 847.089736,728.780577 846.769736,728.780577 C846.580736,728.780577 846.379736,728.731577 846.210736,728.610577 C846.080736,728.521577 845.986736,728.403577 845.912736,728.274577 C845.861736,728.286577 845.808736,728.294577 845.757736,728.306577 C845.714736,728.322577 845.677736,728.350577 845.631736,728.360577 C845.410736,728.409577 845.186736,728.427577 844.965736,728.470577 C844.316736,728.599577 843.662736,728.714577 842.998736,728.795577 C842.822736,728.815577 842.646736,728.827577 842.469736,728.844577 C841.653736,728.927577 840.828736,728.981577 839.990736,728.981577 C839.178736,728.981577 838.380736,728.926577 837.589736,728.848577 C837.347736,728.825577 837.105736,728.805577 836.863736,728.775577 C836.234736,728.695577 835.612736,728.591577 834.997736,728.467577 C834.781736,728.425577 834.563736,728.407577 834.349736,728.360577 C834.280736,728.345577 834.224736,728.308577 834.162736,728.280577 C833.981736,728.238577 833.797736,728.203577 833.617736,728.158577 C833.610736,728.489577 833.454736,728.813577 833.150736,729.001577 C832.990736,729.100577 832.810736,729.140577 832.640736,729.140577 C832.300736,729.140577 831.970736,728.970577 831.780736,728.650577 C831.581736,728.327577 831.604736,727.934577 831.783736,727.632577 C831.693736,727.602577 831.606736,727.565577 831.516736,727.534577 C831.447736,727.526577 831.379736,727.517577 831.310736,727.490577 C831.256736,727.472577 831.218736,727.434577 831.170736,727.407577 C829.915736,726.953577 828.694736,726.429577 827.537736,725.795577 C827.531736,725.792577 827.525736,725.794577 827.520736,725.791577 C827.509736,725.785577 827.504736,725.775577 827.494736,725.769577 C826.344736,725.136577 825.262736,724.402577 824.227736,723.609577 C824.164736,723.579577 824.099736,723.554577 824.040736,723.510577 C823.999736,723.478577 823.977736,723.433577 823.942736,723.396577 C822.935736,722.603577 821.992736,721.736577 821.112736,720.805577 C821.069736,720.771577 821.017736,720.752577 820.979736,720.711577 C820.935736,720.663577 820.915736,720.604577 820.882736,720.551577 C819.997736,719.590577 819.162736,718.581577 818.428736,717.494577 C818.417736,717.480577 818.400736,717.475577 818.390736,717.461577 C818.372736,717.433577 818.370736,717.402577 818.355736,717.373577 C817.648736,716.315577 817.038736,715.192577 816.490736,714.033577 C816.441736,713.970577 816.394736,713.906577 816.359736,713.830577 C816.339736,713.786577 816.341736,713.740577 816.327736,713.695577 C815.797736,712.529577 815.353736,711.320577 814.998736,710.071577 C814.975736,710.024577 814.945736,709.982577 814.930736,709.930577 C814.915736,709.870577 814.920736,709.809577 814.915736,709.749577 C814.886736,709.642577 814.859736,709.535577 814.832736,709.428577 C814.775736,709.306577 814.739736,709.178577 814.733736,709.046577 C814.713736,708.960577 814.698736,708.873577 814.678736,708.787577 C814.655736,708.732577 814.624736,708.682577 814.610736,708.622577 C814.560736,708.393577 814.541736,708.160577 814.496736,707.930577 C814.372736,707.304577 814.262736,706.673577 814.183736,706.032577 C814.158736,705.828577 814.144736,705.624577 814.124736,705.420577 C814.044736,704.616577 813.990736,703.805577 813.990736,702.981577 C813.990736,702.168577 814.044736,701.370577 814.122736,700.579577 C814.145736,700.339577 814.165736,700.100577 814.194736,699.860577 C814.274736,699.232577 814.378736,698.611577 814.502736,697.997577 C814.544736,697.779577 814.562736,697.557577 814.610736,697.340577 C814.625736,697.272577 814.662736,697.217577 814.689736,697.156577 C814.729736,696.985577 814.761736,696.811577 814.804736,696.641577 C814.477736,696.629577 814.163736,696.459577 813.979736,696.160577 C813.700736,695.691577 813.850736,695.070577 814.330736,694.791577 C814.648736,694.596577 815.031736,694.615577 815.331736,694.792577 C815.375736,694.661577 815.428736,694.534577 815.474736,694.404577 C815.481736,694.366577 815.468736,694.329577 815.479736,694.291577 C815.500736,694.234577 815.541736,694.192577 815.570736,694.141577 C816.022736,692.898577 816.540736,691.687577 817.168736,690.540577 C817.174736,690.527577 817.173736,690.513577 817.180736,690.501577 C817.191736,690.481577 817.210736,690.469577 817.222736,690.451577 C817.859736,689.298577 818.595736,688.212577 819.393736,687.175577 C819.420736,687.124577 819.433736,687.068577 819.470736,687.021577 C819.500736,686.983577 819.542736,686.963577 819.576736,686.930577 C820.371736,685.921577 821.240736,684.977577 822.173736,684.096577 C822.206736,684.052577 822.227736,684.000577 822.270736,683.961577 C822.318736,683.915577 822.378736,683.894577 822.432736,683.860577 C823.401736,682.970577 824.419736,682.133577 825.514736,681.396577 C825.520736,681.392577 825.523736,681.385577 825.530736,681.381577 C825.540736,681.374577 825.552736,681.373577 825.562736,681.367577 C826.659736,680.632577 827.826736,679.999577 829.033736,679.435577 C829.073736,679.409577 829.104736,679.371577 829.149736,679.350577 C829.189736,679.331577 829.231736,679.334577 829.271736,679.320577 C830.449736,678.784577 831.672736,678.336577 832.936736,677.979577 C832.976736,677.962577 833.007736,677.933577 833.050736,677.920577 C833.108736,677.906577 833.164736,677.911577 833.220736,677.906577 C833.326736,677.877577 833.432736,677.851577 833.538736,677.824577 C833.655736,677.768577 833.779736,677.734577 833.909736,677.728577 C834.003736,677.705577 834.100736,677.689577 834.195736,677.667577 C834.247736,677.646577 834.292736,677.614577 834.349736,677.601577 C834.576736,677.551577 834.807736,677.532577 835.035736,677.488577 C835.666736,677.363577 836.303736,677.253577 836.948736,677.173577 C837.137736,677.151577 837.325736,677.137577 837.513736,677.119577 C838.329736,677.036577 839.152736,676.981577 839.990736,676.981577 C840.814736,676.981577 841.624736,677.036577 842.426736,677.117577 C842.652736,677.138577 842.877736,677.157577 843.102736,677.184577 C843.737736,677.265577 844.365736,677.370577 844.986736,677.495577 C845.200736,677.537577 845.417736,677.554577 845.631736,677.601577 C845.700736,677.616577 845.756736,677.653577 845.818736,677.681577 C845.998736,677.723577 846.181736,677.758577 846.360736,677.803577 C846.364736,677.472577 846.519736,677.148577 846.830736,676.961577 C847.300736,676.680577 847.919736,676.830577 848.200736,677.310577 C848.397736,677.634577 848.375736,678.018577 848.189736,678.326577 C848.282736,678.357577 848.373736,678.395577 848.466736,678.428577 C848.534736,678.436577 848.603736,678.444577 848.670736,678.470577 C848.724736,678.489577 848.763736,678.528577 848.812736,678.554577 C850.065736,679.009577 851.285736,679.531577 852.440736,680.164577 C852.446736,680.168577 852.453736,680.167577 852.460736,680.171577 C852.470736,680.176577 852.475736,680.186577 852.485736,680.192577 C853.648736,680.832577 854.744736,681.575577 855.790736,682.380577 C855.836736,682.406577 855.887736,682.417577 855.930736,682.450577 C855.966736,682.478577 855.984736,682.517577 856.015736,682.549577 C857.031736,683.347577 857.983736,684.219577 858.869736,685.158577 C858.912736,685.191577 858.961736,685.210577 859.000736,685.251577 C859.045736,685.299577 859.067736,685.359577 859.101736,685.413577 C859.988736,686.378577 860.825736,687.391577 861.560736,688.481577 C861.565736,688.489577 861.574736,688.493577 861.580736,688.501577 L861.589736,688.501577 C861.607736,688.527577 861.609736,688.558577 861.624736,688.586577 C862.344736,689.664577 862.966736,690.810577 863.521736,691.994577 C863.553736,692.041577 863.595736,692.077577 863.620736,692.130577 C863.640736,692.174577 863.638736,692.220577 863.651736,692.264577 C864.184736,693.435577 864.630736,694.650577 864.986736,695.906577 C865.005736,695.949577 865.037736,695.984577 865.050736,696.030577 Z M846.265736,726.120577 C854.456736,723.895577 860.918736,717.443577 863.145736,709.258577 L853.051736,707.996577 C851.627736,711.679577 848.692736,714.615577 845.004736,716.036577 L846.265736,726.120577 Z M836.654736,726.721577 C837.006736,726.770577 837.358736,726.831577 837.711736,726.865577 C838.354736,726.926577 839.006736,726.955577 839.662736,726.964577 C839.880736,726.967577 840.098736,726.967577 840.316736,726.964577 C840.973736,726.955577 841.625736,726.926577 842.268736,726.865577 C842.621736,726.831577 842.972736,726.770577 843.324736,726.721577 C843.653736,726.675577 843.982736,726.630577 844.306736,726.571577 L843.064736,716.639577 C843.029736,716.647577 842.992736,716.650577 842.957736,716.657577 C842.586736,716.738577 842.207736,716.796577 841.826736,716.846577 C841.715736,716.860577 841.607736,716.884577 841.496736,716.896577 C841.001736,716.950577 840.499736,716.981577 839.990736,716.981577 C839.481736,716.981577 838.979736,716.950577 838.483736,716.896577 C838.373736,716.884577 838.264736,716.860577 838.153736,716.846577 C837.772736,716.796577 837.394736,716.738577 837.023736,716.657577 C836.987736,716.650577 836.951736,716.647577 836.915736,716.639577 L835.674736,726.571577 C835.998736,726.630577 836.326736,726.675577 836.654736,726.721577 Z M833.715736,726.120577 L834.975736,716.036577 C831.288736,714.615577 828.352736,711.679577 826.929736,707.996577 L816.835736,709.258577 C819.062736,717.443577 825.523736,723.895577 833.715736,726.120577 Z M826.109736,704.728577 C826.094736,704.609577 826.079736,704.491577 826.067736,704.372577 C826.021736,703.913577 825.990736,703.451577 825.990736,702.981577 C825.990736,702.510577 826.021736,702.048577 826.067736,701.589577 C826.079736,701.470577 826.094736,701.352577 826.109736,701.233577 C826.158736,700.843577 826.222736,700.457577 826.303736,700.077577 C826.315736,700.020577 826.318736,699.962577 826.331736,699.906577 L816.389736,698.663577 C816.385736,698.689577 816.378736,698.714577 816.373736,698.740577 C816.264736,699.347577 816.185736,699.957577 816.123736,700.567577 C816.114736,700.661577 816.096736,700.752577 816.087736,700.846577 C816.023736,701.558577 815.990736,702.271577 815.990736,702.981577 C815.990736,703.690577 816.023736,704.403577 816.087736,705.115577 C816.096736,705.209577 816.114736,705.301577 816.123736,705.395577 C816.185736,706.005577 816.264736,706.614577 816.373736,707.221577 C816.378736,707.247577 816.385736,707.272577 816.389736,707.298577 L826.331736,706.055577 C826.318736,705.999577 826.314736,705.941577 826.302736,705.884577 C826.222736,705.504577 826.158736,705.118577 826.109736,704.728577 Z M833.715736,679.841577 C825.523736,682.066577 819.062736,688.518577 816.835736,696.704577 L826.929736,697.965577 C828.352736,694.282577 831.288736,691.346577 834.975736,689.925577 L833.715736,679.841577 Z M843.324736,679.240577 C842.972736,679.191577 842.621736,679.130577 842.268736,679.096577 C841.625736,679.035577 840.973736,679.006577 840.316736,678.997577 C840.098736,678.994577 839.880736,678.994577 839.662736,678.997577 C839.006736,679.006577 838.354736,679.035577 837.711736,679.096577 C837.358736,679.130577 837.006736,679.191577 836.654736,679.240577 C836.326736,679.286577 835.998736,679.331577 835.674736,679.390577 L836.915736,689.322577 C836.951736,689.314577 836.988736,689.311577 837.024736,689.304577 C837.377736,689.227577 837.738736,689.173577 838.101736,689.123577 C838.232736,689.105577 838.361736,689.078577 838.492736,689.063577 C838.984736,689.011577 839.483736,688.981577 839.990736,688.981577 C840.496736,688.981577 840.995736,689.011577 841.488736,689.063577 C841.619736,689.078577 841.748736,689.105577 841.878736,689.123577 C842.241736,689.173577 842.602736,689.227577 842.956736,689.304577 C842.992736,689.311577 843.029736,689.314577 843.064736,689.322577 L844.306736,679.390577 C843.982736,679.331577 843.653736,679.286577 843.324736,679.240577 Z M843.596736,691.536577 C843.068736,691.370577 842.528736,691.251577 841.984736,691.160577 C841.873736,691.142577 841.762736,691.125577 841.650736,691.109577 C840.549736,690.956577 839.431736,690.956577 838.330736,691.109577 C838.218736,691.125577 838.107736,691.142577 837.996736,691.160577 C837.452736,691.251577 836.912736,691.370577 836.383736,691.536577 C832.634736,692.721577 829.681736,695.703577 828.525736,699.464577 C828.359736,700.005577 828.227736,700.553577 828.139736,701.109577 C828.133736,701.151577 828.130736,701.194577 828.123736,701.236577 C828.039736,701.812577 827.990736,702.395577 827.990736,702.981577 C827.990736,703.566577 828.039736,704.149577 828.123736,704.725577 C828.130736,704.767577 828.133736,704.810577 828.139736,704.852577 C828.227736,705.408577 828.359736,705.956577 828.524736,706.496577 C829.681736,710.258577 832.633736,713.240577 836.382736,714.424577 C836.910736,714.591577 837.450736,714.709577 837.995736,714.801577 C838.106736,714.819577 838.218736,714.836577 838.330736,714.852577 C839.431736,715.005577 840.549736,715.005577 841.649736,714.852577 C841.762736,714.836577 841.874736,714.819577 841.985736,714.801577 C842.529736,714.709577 843.069736,714.591577 843.597736,714.425577 C847.346736,713.240577 850.299736,710.258577 851.455736,706.496577 C851.621736,705.956577 851.753736,705.408577 851.841736,704.852577 C851.847736,704.810577 851.850736,704.767577 851.856736,704.725577 C851.941736,704.149577 851.990736,703.566577 851.990736,702.981577 C851.990736,702.395577 851.941736,701.812577 851.856736,701.236577 C851.850736,701.194577 851.847736,701.151577 851.841736,701.109577 C851.753736,700.553577 851.621736,700.005577 851.455736,699.464577 C850.298736,695.703577 847.346736,692.721577 843.596736,691.536577 Z M846.265736,679.841577 L845.004736,689.925577 C848.692736,691.346577 851.627736,694.282577 853.051736,697.965577 L863.145736,696.704577 C860.918736,688.518577 854.456736,682.066577 846.265736,679.841577 Z M863.892736,700.846577 C863.884736,700.752577 863.866736,700.661577 863.857736,700.567577 C863.794736,699.957577 863.716736,699.347577 863.607736,698.740577 C863.602736,698.714577 863.595736,698.689577 863.590736,698.663577 L853.648736,699.906577 C853.661736,699.962577 853.665736,700.020577 853.677736,700.077577 C853.758736,700.457577 853.822736,700.843577 853.871736,701.233577 C853.886736,701.352577 853.901736,701.470577 853.913736,701.589577 C853.959736,702.048577 853.990736,702.510577 853.990736,702.981577 C853.990736,703.451577 853.959736,703.913577 853.913736,704.372577 C853.901736,704.491577 853.886736,704.609577 853.871736,704.728577 C853.822736,705.118577 853.758736,705.504577 853.677736,705.884577 C853.665736,705.941577 853.661736,705.999577 853.648736,706.055577 L863.590736,707.298577 C863.595736,707.272577 863.602736,707.247577 863.607736,707.221577 C863.715736,706.614577 863.794736,706.005577 863.856736,705.395577 C863.866736,705.301577 863.884736,705.209577 863.892736,705.115577 C863.956736,704.403577 863.990736,703.690577 863.990736,702.981577 C863.990736,702.271577 863.956736,701.558577 863.892736,700.846577 Z M862.300736,679.981577 C862.069736,679.981577 861.839736,679.901577 861.660736,679.751577 C861.230736,679.401577 861.180736,678.760577 861.530736,678.341577 C861.879736,677.920577 862.510736,677.860577 862.940736,678.211577 C863.359736,678.560577 863.420736,679.191577 863.069736,679.620577 C862.870736,679.860577 862.579736,679.981577 862.300736,679.981577 Z M858.879736,677.930577 C858.760736,677.930577 858.630736,677.910577 858.510736,677.860577 C857.990736,677.651577 857.750736,677.070577 857.950736,676.550577 C858.160736,676.041577 858.750736,675.800577 859.260736,676.001577 C859.770736,676.211577 860.019736,676.800577 859.810736,677.310577 C859.650736,677.700577 859.270736,677.930577 858.879736,677.930577 Z M855.010736,677.021577 L854.930736,677.021577 C854.379736,676.970577 853.970736,676.490577 854.010736,675.941577 C854.050736,675.390577 854.530736,674.981577 855.080736,675.021577 C855.629736,675.060577 856.050736,675.541577 856.000736,676.090577 C855.960736,676.620577 855.520736,677.021577 855.010736,677.021577 Z M851.260736,677.291577 C851.180736,677.310577 851.109736,677.320577 851.030736,677.320577 C850.580736,677.320577 850.170736,677.010577 850.060736,676.550577 C849.930736,676.010577 850.269736,675.470577 850.800736,675.350577 C851.339736,675.220577 851.879736,675.550577 852.010736,676.090577 C852.129736,676.630577 851.800736,677.171577 851.260736,677.291577 Z M830.470736,677.780577 C830.360736,677.780577 830.240736,677.760577 830.129736,677.720577 C829.609736,677.530577 829.339736,676.961577 829.530736,676.441577 C829.720736,675.920577 830.300736,675.660577 830.819736,675.850577 C831.339736,676.041577 831.600736,676.610577 831.410736,677.130577 C831.260736,677.530577 830.879736,677.780577 830.470736,677.780577 Z M826.560736,677.001577 L826.520736,677.001577 C825.970736,676.970577 825.540736,676.501577 825.569736,675.950577 C825.589736,675.400577 826.060736,674.970577 826.609736,675.001577 C827.160736,675.021577 827.589736,675.490577 827.560736,676.041577 C827.540736,676.580577 827.100736,677.001577 826.560736,677.001577 Z M822.859736,677.390577 C822.780736,677.420577 822.690736,677.430577 822.600736,677.430577 C822.160736,677.430577 821.760736,677.130577 821.640736,676.691577 C821.500736,676.151577 821.809736,675.600577 822.350736,675.461577 C822.879736,675.320577 823.430736,675.640577 823.569736,676.170577 C823.710736,676.700577 823.400736,677.251577 822.859736,677.390577 Z M819.500736,678.881577 C819.339736,678.990577 819.150736,679.041577 818.960736,679.041577 C818.629736,679.041577 818.310736,678.881577 818.120736,678.580577 C817.819736,678.120577 817.950736,677.501577 818.419736,677.200577 C818.890736,676.900577 819.500736,677.030577 819.800736,677.501577 C820.100736,677.961577 819.970736,678.580577 819.500736,678.881577 Z M815.980736,681.680577 C815.750736,681.680577 815.530736,681.610577 815.340736,681.450577 C814.919736,681.100577 814.859736,680.470577 815.209736,680.041577 C815.559736,679.620577 816.189736,679.560577 816.620736,679.910577 C817.040736,680.271577 817.100736,680.900577 816.750736,681.320577 C816.550736,681.560577 816.270736,681.680577 815.980736,681.680577 Z M813.939736,685.100577 C813.810736,685.100577 813.680736,685.080577 813.560736,685.030577 C813.050736,684.820577 812.800736,684.240577 813.010736,683.731577 C813.220736,683.220577 813.800736,682.970577 814.310736,683.180577 C814.819736,683.380577 815.069736,683.961577 814.859736,684.481577 C814.710736,684.870577 814.330736,685.100577 813.939736,685.100577 Z M814.030736,688.060577 C813.990736,688.580577 813.550736,688.981577 813.030736,688.981577 L812.959736,688.981577 C812.410736,688.941577 811.990736,688.461577 812.030736,687.910577 C812.080736,687.361577 812.550736,686.941577 813.109736,686.981577 C813.660736,687.030577 814.069736,687.510577 814.030736,688.060577 Z M813.050736,715.390577 C813.600736,715.420577 814.030736,715.880577 814.000736,716.430577 C813.979736,716.970577 813.530736,717.390577 812.999736,717.390577 L812.959736,717.390577 C812.410736,717.360577 811.979736,716.900577 812.000736,716.340577 C812.030736,715.791577 812.490736,715.360577 813.050736,715.390577 Z M813.170736,719.380577 C813.709736,719.240577 814.250736,719.560577 814.400736,720.090577 C814.540736,720.620577 814.220736,721.170577 813.690736,721.320577 C813.600736,721.340577 813.520736,721.350577 813.430736,721.350577 C812.990736,721.350577 812.590736,721.050577 812.470736,720.610577 C812.319736,720.070577 812.640736,719.521577 813.170736,719.380577 Z M812.370736,692.180577 C812.240736,691.651577 812.569736,691.110577 813.109736,690.981577 C813.650736,690.850577 814.189736,691.191577 814.320736,691.731577 C814.440736,692.260577 814.109736,692.800577 813.570736,692.930577 C813.490736,692.950577 813.420736,692.950577 813.339736,692.950577 C812.890736,692.950577 812.480736,692.640577 812.370736,692.180577 Z M814.729736,712.830577 C814.729736,712.830577 814.729736,712.830577 814.720736,712.830577 C814.580736,713.231577 814.189736,713.481577 813.790736,713.481577 C813.669736,713.481577 813.560736,713.461577 813.439736,713.421577 C812.919736,713.231577 812.660736,712.660577 812.850736,712.140577 C813.040736,711.620577 813.620736,711.350577 814.129736,711.541577 C814.649736,711.740577 814.919736,712.310577 814.729736,712.830577 Z M814.500736,723.150577 C814.970736,722.850577 815.580736,722.990577 815.879736,723.450577 C816.180736,723.920577 816.050736,724.541577 815.580736,724.830577 C815.410736,724.941577 815.230736,724.990577 815.040736,724.990577 C814.710736,724.990577 814.390736,724.830577 814.200736,724.530577 C813.899736,724.070577 814.040736,723.450577 814.500736,723.150577 Z M818.319736,726.211577 C818.740736,726.560577 818.800736,727.190577 818.450736,727.620577 C818.250736,727.850577 817.970736,727.980577 817.680736,727.980577 C817.450736,727.980577 817.230736,727.900577 817.040736,727.751577 C816.620736,727.390577 816.560736,726.760577 816.910736,726.340577 C817.260736,725.910577 817.900736,725.850577 818.319736,726.211577 Z M821.470736,728.100577 C821.980736,728.310577 822.230736,728.890577 822.020736,729.400577 C821.859736,729.791577 821.490736,730.030577 821.100736,730.030577 C820.970736,730.030577 820.839736,730.000577 820.720736,729.950577 C820.210736,729.751577 819.959736,729.160577 820.170736,728.650577 C820.379736,728.140577 820.960736,727.890577 821.470736,728.100577 Z M825.050736,728.940577 C825.600736,728.990577 826.010736,729.470577 825.970736,730.021577 C825.930736,730.541577 825.490736,730.941577 824.970736,730.941577 L824.890736,730.941577 C824.339736,730.890577 823.930736,730.410577 823.979736,729.860577 C824.020736,729.310577 824.500736,728.900577 825.050736,728.940577 Z M828.720736,728.670577 C829.250736,728.541577 829.789736,728.870577 829.920736,729.410577 C830.040736,729.950577 829.709736,730.490577 829.170736,730.610577 C829.100736,730.630577 829.020736,730.640577 828.940736,730.640577 C828.490736,730.640577 828.080736,730.330577 827.970736,729.870577 C827.850736,729.330577 828.180736,728.791577 828.720736,728.670577 Z M850.660736,728.500577 C851.190736,728.650577 851.500736,729.210577 851.339736,729.740577 C851.220736,730.180577 850.819736,730.461577 850.379736,730.461577 C850.290736,730.461577 850.200736,730.450577 850.100736,730.420577 C849.569736,730.270577 849.270736,729.711577 849.420736,729.180577 C849.569736,728.650577 850.129736,728.350577 850.660736,728.500577 Z M854.310736,728.970577 C854.859736,728.961577 855.320736,729.390577 855.330736,729.941577 C855.350736,730.501577 854.910736,730.950577 854.359736,730.970577 L854.330736,730.970577 C853.790736,730.970577 853.350736,730.541577 853.330736,729.990577 C853.319736,729.441577 853.760736,728.981577 854.310736,728.970577 Z M857.930736,728.310577 C858.450736,728.130577 859.020736,728.410577 859.200736,728.930577 C859.379736,729.460577 859.100736,730.021577 858.580736,730.211577 C858.470736,730.240577 858.359736,730.260577 858.250736,730.260577 C857.840736,730.260577 857.450736,730.000577 857.309736,729.590577 C857.129736,729.070577 857.410736,728.500577 857.930736,728.310577 Z M862.569736,726.791577 C862.910736,727.240577 862.819736,727.860577 862.370736,728.191577 C862.189736,728.330577 861.980736,728.390577 861.770736,728.390577 C861.470736,728.390577 861.170736,728.250577 860.970736,727.990577 C860.640736,727.550577 860.729736,726.920577 861.170736,726.590577 C861.620736,726.260577 862.240736,726.350577 862.569736,726.791577 Z M865.150736,723.731577 C865.589736,724.060577 865.700736,724.680577 865.370736,725.130577 C865.180736,725.400577 864.870736,725.550577 864.560736,725.550577 C864.359736,725.550577 864.160736,725.490577 863.980736,725.360577 C863.530736,725.041577 863.430736,724.410577 863.750736,723.961577 C864.069736,723.521577 864.700736,723.410577 865.150736,723.731577 Z M865.410736,720.680577 C865.569736,720.160577 866.140736,719.870577 866.660736,720.041577 C867.190736,720.211577 867.480736,720.771577 867.310736,721.300577 C867.169736,721.720577 866.780736,721.990577 866.359736,721.990577 C866.250736,721.990577 866.149736,721.970577 866.050736,721.941577 C865.520736,721.771577 865.230736,721.211577 865.410736,720.680577 Z M866.189736,694.470577 C866.080736,694.470577 865.959736,694.450577 865.839736,694.410577 C865.330736,694.220577 865.060736,693.640577 865.250736,693.130577 C865.439736,692.610577 866.020736,692.340577 866.540736,692.530577 C867.050736,692.731577 867.319736,693.300577 867.129736,693.820577 C866.979736,694.220577 866.600736,694.470577 866.189736,694.470577 Z M866.690736,714.070577 C866.589736,714.100577 866.490736,714.120577 866.390736,714.120577 C865.970736,714.120577 865.569736,713.840577 865.439736,713.410577 C865.280736,712.890577 865.569736,712.330577 866.100736,712.160577 C866.620736,712.001577 867.180736,712.291577 867.350736,712.820577 C867.510736,713.350577 867.220736,713.910577 866.690736,714.070577 Z M865.980736,717.050577 C865.980736,716.501577 866.430736,716.050577 866.990736,716.060577 C867.540736,716.060577 867.990736,716.510577 867.980736,717.060577 C867.980736,717.610577 867.530736,718.060577 866.979736,718.060577 C866.430736,718.050577 865.980736,717.600577 865.980736,717.050577 Z" id="features9"></path>
            </g>
        </g>
    </g>
</svg>