<?xml version="1.0" encoding="UTF-8"?>
<svg width="60px" height="60px" viewBox="0 0 60 60" version="1.1" xmlns="http://www.w3.org/2000/svg" xmlns:xlink="http://www.w3.org/1999/xlink">
    <!-- Generator: Sketch 46.2 (44496) - http://www.bohemiancoding.com/sketch -->
    <title>features8</title>
    <desc>Created with Sketch.</desc>
    <defs></defs>
    <g id="mainpage" stroke="none" stroke-width="1" fill="none" fill-rule="evenodd" opacity="0.800000012">
        <g id="landing-v4.2" transform="translate(-690.000000, -7952.000000)" fill="#D7C76E">
            <g id="full-cycle" transform="translate(220.000000, 7279.000000)">
                <path d="M518,718 C518,718.55 517.55,719 517,719 C516.45,719 516,718.55 516,718 C516,717.45 516.45,717 517,717 C517.55,717 518,717.45 518,718 Z M514,718 C514,718.55 513.55,719 513,719 C512.45,719 512,718.55 512,718 C512,717.45 512.45,717 513,717 C513.55,717 514,717.45 514,718 Z M509,717 C509.55,717 510,717.45 510,718 C510,718.55 509.55,719 509,719 C508.45,719 508,718.55 508,718 C508,717.45 508.45,717 509,717 Z M528,729 L522,729 L522,731 L523,731 C523.552,731 524,731.447 524,732 C524,732.553 523.552,733 523,733 L515,733 C514.448,733 514,732.553 514,732 C514,731.447 514.448,731 515,731 L516,731 L516,729 L510,729 C508.897,729 508,728.103 508,727 L508,723 C508,722.447 508.448,722 509,722 C509.552,722 510,722.447 510,723 L528,723 L528,713 L510,713 L510,714 C510,714.553 509.552,715 509,715 C508.448,715 508,714.553 508,714 L508,713 C508,711.897 508.897,711 510,711 L528,711 C529.103,711 530,711.897 530,713 L530,727 C530,728.103 529.103,729 528,729 Z M518,731 L520,731 L520,729 L518,729 L518,731 Z M510,725 L510,727 L528,727 L528,725 L510,725 Z M500,698 C496.286,698 490,697.242 490,694.4 L490,688.467 L490,682.533 L490,676.6 C490,673.758 496.286,673 500,673 C503.714,673 510,673.758 510,676.6 L510,682.533 L510,688.467 L510,694.4 C510,697.242 503.714,698 500,698 Z M500,675 C495.107,675 492.475,676.073 492.036,676.6 C492.474,677.126 495.106,678.2 500,678.2 C504.894,678.2 507.526,677.126 507.964,676.6 C507.525,676.073 504.893,675 500,675 Z M508.005,678.897 C505.846,679.881 502.393,680.2 500,680.2 C497.609,680.2 494.159,679.882 492,678.899 L492,682.533 C492.225,682.953 494.869,684.134 500,684.134 C505.131,684.134 507.774,682.953 508.013,682.461 L508.005,678.897 Z M508.005,684.83 C505.846,685.815 502.393,686.134 500,686.134 C497.609,686.134 494.159,685.815 492,684.833 L492,688.467 C492.225,688.887 494.87,690.066 500,690.066 C505.13,690.066 507.774,688.887 508.013,688.394 L508.005,684.83 Z M508.005,690.764 C505.846,691.748 502.393,692.066 500,692.066 C497.609,692.066 494.159,691.748 492,690.766 L492,694.4 C492.225,694.82 494.87,696 500,696 C505.13,696 507.774,694.82 508.013,694.328 L508.005,690.764 Z M482,718 C482,717.45 482.45,717 483,717 C483.55,717 484,717.45 484,718 C484,718.55 483.55,719 483,719 C482.45,719 482,718.55 482,718 Z M486,718 C486,717.45 486.45,717 487,717 C487.55,717 488,717.45 488,718 C488,718.55 487.55,719 487,719 C486.45,719 486,718.55 486,718 Z M491,719 C490.45,719 490,718.55 490,718 C490,717.45 490.45,717 491,717 C491.55,717 492,717.45 492,718 C492,718.55 491.55,719 491,719 Z M492,713 L492,714 C492,714.553 491.552,715 491,715 C490.448,715 490,714.553 490,714 L490,713 L472,713 L472,723 L490,723 C490,722.447 490.448,722 491,722 C491.552,722 492,722.447 492,723 L492,727 C492,728.103 491.103,729 490,729 L484,729 L484,731 L485,731 C485.552,731 486,731.447 486,732 C486,732.553 485.552,733 485,733 L477,733 C476.448,733 476,732.553 476,732 C476,731.447 476.448,731 477,731 L478,731 L478,729 L472,729 C470.897,729 470,728.103 470,727 L470,713 C470,711.897 470.897,711 472,711 L490,711 C491.103,711 492,711.897 492,713 Z M480,731 L482,731 L482,729 L480,729 L480,731 Z M472,727 L490,727 L490,725 L472,725 L472,727 Z M495.38,717.08 C495.5,717.13 495.61,717.2 495.71,717.29 C495.89,717.48 496,717.74 496,718 C496,718.269 495.9,718.52 495.71,718.71 C495.61,718.8 495.5,718.87 495.38,718.93 C495.26,718.98 495.13,719 495,719 C494.73,719 494.48,718.899 494.29,718.71 C494.2,718.609 494.13,718.5 494.08,718.38 C494.03,718.26 494,718.13 494,718 C494,717.74 494.11,717.48 494.29,717.29 C494.57,717.01 495.01,716.92 495.38,717.08 Z M500,714 C499.45,714 499,713.55 499,713 C499,712.45 499.45,712 500,712 C500.55,712 501,712.45 501,713 C501,713.55 500.55,714 500,714 Z M500,710 C499.45,710 499,709.55 499,709 C499,708.45 499.45,708 500,708 C500.55,708 501,708.45 501,709 C501,709.55 500.55,710 500,710 Z M500,702 C499.45,702 499,701.55 499,701 C499,700.45 499.45,700 500,700 C500.55,700 501,700.45 501,701 C501,701.55 500.55,702 500,702 Z M500,706 C499.45,706 499,705.55 499,705 C499,704.45 499.45,704 500,704 C500.55,704 501,704.45 501,705 C501,705.55 500.55,706 500,706 Z M500,715 C501.654,715 503,716.346 503,718 C503,719.654 501.654,721 500,721 C498.346,721 497,719.654 497,718 C497,716.346 498.346,715 500,715 Z M500,719 C500.551,719 501,718.552 501,718 C501,717.448 500.551,717 500,717 C499.449,717 499,717.448 499,718 C499,718.552 499.449,719 500,719 Z M504.62,717.08 C504.86,716.97 505.14,716.97 505.38,717.08 C505.5,717.13 505.61,717.2 505.71,717.29 C505.89,717.48 506,717.74 506,718 C506,718.13 505.97,718.26 505.92,718.38 C505.87,718.5 505.8,718.609 505.71,718.71 C505.61,718.8 505.5,718.87 505.38,718.93 C505.26,718.98 505.13,719 505,719 C504.87,719 504.74,718.98 504.62,718.93 C504.5,718.87 504.39,718.8 504.29,718.71 C504.2,718.609 504.13,718.5 504.08,718.38 C504.03,718.26 504,718.13 504,718 C504,717.74 504.11,717.48 504.29,717.29 C504.39,717.2 504.5,717.13 504.62,717.08 Z" id="features8"></path>
            </g>
        </g>
    </g>
</svg>