<?xml version="1.0" encoding="UTF-8"?>
<svg width="52px" height="54px" viewBox="0 0 52 54" version="1.1" xmlns="http://www.w3.org/2000/svg" xmlns:xlink="http://www.w3.org/1999/xlink">
    <!-- Generator: Sketch 46.2 (44496) - http://www.bohemiancoding.com/sketch -->
    <title>features1</title>
    <desc>Created with Sketch.</desc>
    <defs></defs>
    <g id="mainpage" stroke="none" stroke-width="1" fill="none" fill-rule="evenodd">
        <g id="landing-v4.2" transform="translate(-353.000000, -7418.000000)" fill="#D7C76E">
            <g id="full-cycle" transform="translate(220.000000, 7279.000000)">
                <path d="M185,166 C185,166.385 184.779,166.735 184.433,166.901 L171.727,173 L184.433,179.099 C184.779,179.265 185,179.615 185,180 C185,180.385 184.779,180.735 184.433,180.901 L159.433,192.901 C159.296,192.967 159.148,193 159,193 C158.852,193 158.704,192.967 158.567,192.901 L133.567,180.901 C133.221,180.735 133,180.385 133,180 C133,179.615 133.221,179.265 133.567,179.099 L146.273,173 L133.567,166.901 C133.221,166.735 133,166.385 133,166 C133,165.615 133.221,165.265 133.567,165.099 L146.273,159 L133.567,152.901 C133.221,152.735 133,152.385 133,152 C133,151.615 133.221,151.265 133.567,151.099 L158.567,139.099 C158.841,138.967 159.159,138.967 159.433,139.099 L184.433,151.099 C184.779,151.265 185,151.615 185,152 C185,152.385 184.779,152.735 184.433,152.901 L171.727,159 L184.433,165.099 C184.779,165.265 185,165.615 185,166 Z M136.311,180 L159,190.891 L181.689,180 L169.417,174.109 L159.433,178.901 C159.159,179.033 158.841,179.033 158.567,178.901 L148.584,174.109 L136.311,180 Z M181.689,152 L159,141.109 L136.311,152 L159,162.891 L181.689,152 Z M169.417,160.109 L159.433,164.901 C159.159,165.033 158.841,165.033 158.567,164.901 L148.584,160.109 L136.311,166 L159,176.891 L181.689,166 L169.417,160.109 Z M158.29,168.71 C158.11,168.52 158,168.26 158,168 C158,167.74 158.11,167.48 158.29,167.29 C158.67,166.92 159.34,166.92 159.71,167.29 C159.89,167.48 160,167.74 160,168 C160,168.26 159.89,168.52 159.71,168.71 C159.52,168.89 159.26,169 159,169 C158.74,169 158.48,168.89 158.29,168.71 Z M162.9,168.77 C163.4,169 163.61,169.6 163.37,170.1 C163.2,170.46 162.84,170.67 162.47,170.67 C162.33,170.67 162.18,170.64 162.04,170.57 C161.54,170.33 161.33,169.73 161.57,169.23 C161.81,168.74 162.41,168.53 162.9,168.77 Z M166.38,170.43 C166.87,170.67 167.09,171.27 166.85,171.77 C166.67,172.12 166.31,172.33 165.94,172.33 C165.8,172.33 165.65,172.3 165.51,172.24 C165.01,172 164.8,171.4 165.04,170.9 C165.28,170.4 165.88,170.19 166.38,170.43 Z M155.96,170.57 C155.82,170.64 155.67,170.67 155.53,170.67 C155.16,170.67 154.8,170.46 154.63,170.1 C154.39,169.6 154.599,169 155.1,168.76 C155.59,168.53 156.19,168.74 156.43,169.23 C156.67,169.73 156.46,170.33 155.96,170.57 Z M152.49,172.23 C152.35,172.3 152.2,172.33 152.06,172.33 C151.68,172.33 151.33,172.12 151.15,171.77 C150.92,171.27 151.12,170.67 151.62,170.43 C152.12,170.19 152.72,170.4 152.96,170.9 C153.2,171.4 152.99,172 152.49,172.23 Z M158.29,154.71 C158.11,154.52 158,154.26 158,154 C158,153.74 158.11,153.48 158.29,153.29 C158.66,152.92 159.34,152.92 159.71,153.29 C159.89,153.48 160,153.74 160,154 C160,154.26 159.89,154.52 159.71,154.71 C159.52,154.89 159.26,155 159,155 C158.74,155 158.48,154.89 158.29,154.71 Z M162.9,154.76 C163.4,155 163.61,155.6 163.37,156.1 C163.2,156.46 162.84,156.67 162.47,156.67 C162.33,156.67 162.18,156.63 162.04,156.57 C161.54,156.33 161.33,155.73 161.57,155.23 C161.81,154.74 162.41,154.53 162.9,154.76 Z M166.38,156.43 C166.87,156.67 167.09,157.27 166.85,157.77 C166.67,158.13 166.32,158.33 165.94,158.33 C165.8,158.33 165.65,158.3 165.51,158.23 C165.01,158 164.8,157.4 165.04,156.9 C165.28,156.4 165.88,156.19 166.38,156.43 Z M155.96,156.57 C155.82,156.63 155.67,156.67 155.53,156.67 C155.16,156.67 154.8,156.46 154.63,156.1 C154.39,155.6 154.599,155 155.09,154.77 C155.59,154.53 156.19,154.74 156.43,155.23 C156.67,155.73 156.46,156.33 155.96,156.57 Z M152.49,158.23 C152.35,158.3 152.2,158.33 152.05,158.33 C151.68,158.33 151.33,158.12 151.15,157.77 C150.92,157.27 151.12,156.67 151.62,156.43 C152.12,156.19 152.72,156.4 152.96,156.9 C153.19,157.4 152.99,158 152.49,158.23 Z" id="features1"></path>
            </g>
        </g>
    </g>
</svg>