<?xml version="1.0" encoding="UTF-8"?>
<svg width="56px" height="58px" viewBox="0 0 56 58" version="1.1" xmlns="http://www.w3.org/2000/svg" xmlns:xlink="http://www.w3.org/1999/xlink">
    <!-- Generator: Sketch 46.2 (44496) - http://www.bohemiancoding.com/sketch -->
    <title>features6</title>
    <desc>Created with Sketch.</desc>
    <defs></defs>
    <g id="mainpage" stroke="none" stroke-width="1" fill="none" fill-rule="evenodd">
        <g id="landing-v4.2" transform="translate(-1032.000000, -7687.000000)" fill="#D7C76E">
            <g id="full-cycle" transform="translate(220.000000, 7279.000000)">
                <path d="M855.827,445.986 L844,445.986 C843.447,445.986 843,445.539 843,444.986 C843,444.433 843.447,443.986 844,443.986 L855.827,443.986 C861.437,443.986 866,439.591 866,434.19 C866,433.721 865.954,433.261 865.886,432.806 C865.872,432.71 865.858,432.615 865.841,432.52 C865.76,432.071 865.655,431.629 865.511,431.2 C865.501,431.171 865.488,431.143 865.478,431.114 C865.336,430.7 865.161,430.3 864.964,429.912 C864.932,429.848 864.902,429.783 864.868,429.719 C864.655,429.322 864.415,428.939 864.149,428.573 C864.108,428.518 864.064,428.465 864.022,428.411 C863.762,428.069 863.481,427.742 863.176,427.435 C863.146,427.405 863.119,427.373 863.089,427.343 C862.758,427.018 862.4,426.718 862.023,426.438 C861.967,426.397 861.91,426.357 861.854,426.316 C861.046,425.744 860.146,425.275 859.164,424.946 C858.117,424.595 856.997,424.394 855.827,424.394 C855.274,424.394 854.827,423.947 854.827,423.394 C854.827,422.842 855.274,422.395 855.827,422.395 C856.76,422.395 857.666,422.507 858.539,422.7 C858.54,422.634 858.552,422.56 858.552,422.494 C858.552,415.604 852.735,409.999 845.586,409.999 C840.454,409.999 835.803,412.999 833.752,417.506 C834.391,418.104 834.95,418.794 835.378,419.583 C835.642,420.068 835.461,420.676 834.976,420.938 C834.824,421.02 834.661,421.059 834.5,421.059 C834.144,421.059 833.801,420.87 833.62,420.536 C833.197,419.756 832.619,419.09 831.934,418.56 C831.928,418.556 831.92,418.556 831.914,418.551 C831.645,418.345 831.361,418.167 831.069,418.007 C831.002,417.97 830.933,417.939 830.864,417.905 C830.644,417.794 830.417,417.697 830.186,417.612 C830.081,417.574 829.977,417.536 829.87,417.504 C829.655,417.437 829.434,417.385 829.211,417.34 C829.105,417.319 829.001,417.293 828.893,417.276 C828.566,417.228 828.234,417.197 827.896,417.197 C824.594,417.197 821.894,419.604 821.523,422.685 C822.377,422.5 823.262,422.395 824.173,422.395 C824.726,422.395 825.173,422.842 825.173,423.394 C825.173,423.947 824.726,424.394 824.173,424.394 C822.983,424.394 821.846,424.602 820.784,424.965 C819.803,425.299 818.903,425.773 818.097,426.352 C818.054,426.383 818.01,426.413 817.968,426.445 C817.582,426.731 817.218,427.041 816.881,427.375 C816.861,427.394 816.843,427.416 816.823,427.436 C816.5,427.762 816.202,428.11 815.928,428.474 C815.904,428.507 815.878,428.537 815.854,428.57 C815.579,428.947 815.333,429.343 815.115,429.753 C815.089,429.803 815.065,429.854 815.039,429.904 C814.831,430.314 814.647,430.736 814.499,431.172 C814.496,431.182 814.492,431.19 814.489,431.2 C814.344,431.632 814.239,432.079 814.157,432.532 C814.141,432.624 814.127,432.716 814.113,432.809 C814.046,433.263 814,433.723 814,434.19 C814,439.591 818.564,443.986 824.173,443.986 L836,443.986 C836.553,443.986 837,444.433 837,444.986 C837,445.539 836.553,445.986 836,445.986 L824.173,445.986 C817.461,445.986 812,440.695 812,434.19 C812,433.653 812.05,433.128 812.122,432.609 C812.139,432.488 812.158,432.369 812.179,432.249 C812.359,431.201 812.68,430.201 813.126,429.266 C813.167,429.181 813.209,429.098 813.252,429.013 C813.487,428.549 813.744,428.096 814.039,427.668 C814.04,427.666 814.042,427.663 814.043,427.661 C814.343,427.226 814.678,426.817 815.033,426.425 C815.101,426.35 815.171,426.277 815.24,426.204 C815.979,425.429 816.821,424.751 817.748,424.19 C817.813,424.151 817.877,424.113 817.942,424.076 C818.426,423.795 818.924,423.534 819.449,423.32 C819.49,418.834 823.264,415.197 827.896,415.197 C828.282,415.197 828.662,415.224 829.038,415.273 C829.137,415.286 829.232,415.313 829.33,415.329 C829.602,415.374 829.873,415.422 830.137,415.492 C830.281,415.53 830.417,415.585 830.558,415.63 C830.764,415.697 830.971,415.759 831.172,415.841 C831.372,415.923 831.562,416.023 831.754,416.119 C831.863,416.174 831.977,416.216 832.083,416.276 C834.542,411.28 839.819,408 845.586,408 C853.838,408 860.552,414.502 860.552,422.494 C860.552,422.762 860.543,423.032 860.526,423.311 C861.046,423.523 861.542,423.778 862.024,424.056 C862.1,424.099 862.175,424.144 862.25,424.189 C862.717,424.471 863.168,424.774 863.59,425.113 C863.595,425.117 863.599,425.121 863.604,425.125 C864.003,425.447 864.372,425.8 864.725,426.167 C864.811,426.256 864.896,426.346 864.978,426.437 C865.322,426.818 865.648,427.213 865.94,427.635 C865.956,427.658 865.969,427.682 865.984,427.705 C866.261,428.111 866.505,428.538 866.73,428.976 C866.781,429.077 866.832,429.177 866.88,429.279 C867.104,429.748 867.305,430.23 867.463,430.73 C867.466,430.738 867.467,430.746 867.47,430.754 C867.621,431.236 867.732,431.733 867.819,432.238 C867.84,432.362 867.86,432.485 867.878,432.609 C867.95,433.128 868,433.653 868,434.19 C868,440.695 862.539,445.986 855.827,445.986 Z M813,451.983 C813.553,451.983 814,452.431 814,452.983 L814,456.982 C814,457.534 813.553,457.981 813,457.981 C812.447,457.981 812,457.534 812,456.982 L812,452.983 C812,452.431 812.447,451.983 813,451.983 Z M813,459.98 L816,459.98 C816.553,459.98 817,460.428 817,460.98 L817,464.979 C817,465.531 816.553,465.978 816,465.978 L813,465.978 C812.447,465.978 812,465.531 812,464.979 L812,460.98 C812,460.428 812.447,459.98 813,459.98 Z M814,463.979 L815,463.979 L815,461.98 L814,461.98 L814,463.979 Z M820,457.981 L817,457.981 C816.447,457.981 816,457.534 816,456.982 L816,452.983 C816,452.431 816.447,451.983 817,451.983 L820,451.983 C820.553,451.983 821,452.431 821,452.983 L821,456.982 C821,457.534 820.553,457.981 820,457.981 Z M819,453.983 L818,453.983 L818,455.982 L819,455.982 L819,453.983 Z M820,459.98 C820.553,459.98 821,460.428 821,460.98 L821,464.979 C821,465.531 820.553,465.978 820,465.978 C819.447,465.978 819,465.531 819,464.979 L819,460.98 C819,460.428 819.447,459.98 820,459.98 Z M824,451.983 C824.553,451.983 825,452.431 825,452.983 L825,456.982 C825,457.534 824.553,457.981 824,457.981 C823.447,457.981 823,457.534 823,456.982 L823,452.983 C823,452.431 823.447,451.983 824,451.983 Z M824,459.98 C824.553,459.98 825,460.428 825,460.98 L825,464.979 C825,465.531 824.553,465.978 824,465.978 C823.447,465.978 823,465.531 823,464.979 L823,460.98 C823,460.428 823.447,459.98 824,459.98 Z M837,431.991 C837,430.337 838.346,428.992 840,428.992 C841.654,428.992 843,430.337 843,431.991 C843,433.644 841.654,434.99 840,434.99 C838.346,434.99 837,433.644 837,431.991 Z M840,432.99 C840.552,432.99 841,432.542 841,431.991 C841,431.439 840.552,430.991 840,430.991 C839.448,430.991 839,431.439 839,431.991 C839,432.542 839.448,432.99 840,432.99 Z M840,435.989 C840.55,435.989 841,436.439 841,436.989 C841,437.539 840.55,437.989 840,437.989 C839.45,437.989 839,437.539 839,436.989 C839,436.439 839.45,435.989 840,435.989 Z M840,439.988 C840.55,439.988 841,440.438 841,440.987 C841,441.537 840.55,441.987 840,441.987 C839.45,441.987 839,441.537 839,440.987 C839,440.438 839.45,439.988 840,439.988 Z M840,443.986 C840.55,443.986 841,444.436 841,444.986 C841,445.536 840.55,445.986 840,445.986 C839.45,445.986 839,445.536 839,444.986 C839,444.436 839.45,443.986 840,443.986 Z M840,451.983 C840.55,451.983 841,452.433 841,452.983 C841,453.533 840.55,453.983 840,453.983 C839.45,453.983 839,453.533 839,452.983 C839,452.433 839.45,451.983 840,451.983 Z M840,447.985 C840.55,447.985 841,448.435 841,448.985 C841,449.534 840.55,449.984 840,449.984 C839.45,449.984 839,449.534 839,448.985 C839,448.435 839.45,447.985 840,447.985 Z M828,457.981 L837.184,457.981 C837.598,456.82 838.698,455.982 840,455.982 C841.302,455.982 842.402,456.82 842.816,457.981 L851,457.981 C851.553,457.981 852,458.428 852,458.981 C852,459.533 851.553,459.98 851,459.98 L842.816,459.98 C842.402,461.141 841.302,461.98 840,461.98 C838.698,461.98 837.598,461.141 837.184,459.98 L828,459.98 C827.447,459.98 827,459.533 827,458.981 C827,458.428 827.447,457.981 828,457.981 Z M840,459.98 C840.552,459.98 841,459.532 841,458.981 C841,458.429 840.552,457.981 840,457.981 C839.448,457.981 839,458.429 839,458.981 C839,459.532 839.448,459.98 840,459.98 Z M855,451.983 C855.553,451.983 856,452.431 856,452.983 L856,456.982 C856,457.534 855.553,457.981 855,457.981 C854.447,457.981 854,457.534 854,456.982 L854,452.983 C854,452.431 854.447,451.983 855,451.983 Z M855,459.98 C855.553,459.98 856,460.428 856,460.98 L856,464.979 C856,465.531 855.553,465.978 855,465.978 C854.447,465.978 854,465.531 854,464.979 L854,460.98 C854,460.428 854.447,459.98 855,459.98 Z M859,451.983 C859.553,451.983 860,452.431 860,452.983 L860,456.982 C860,457.534 859.553,457.981 859,457.981 C858.447,457.981 858,457.534 858,456.982 L858,452.983 C858,452.431 858.447,451.983 859,451.983 Z M859,459.98 L862,459.98 C862.553,459.98 863,460.428 863,460.98 L863,464.979 C863,465.531 862.553,465.978 862,465.978 L859,465.978 C858.447,465.978 858,465.531 858,464.979 L858,460.98 C858,460.428 858.447,459.98 859,459.98 Z M860,463.979 L861,463.979 L861,461.98 L860,461.98 L860,463.979 Z M866,457.981 L863,457.981 C862.447,457.981 862,457.534 862,456.982 L862,452.983 C862,452.431 862.447,451.983 863,451.983 L866,451.983 C866.553,451.983 867,452.431 867,452.983 L867,456.982 C867,457.534 866.553,457.981 866,457.981 Z M865,453.983 L864,453.983 L864,455.982 L865,455.982 L865,453.983 Z M866,459.98 C866.553,459.98 867,460.428 867,460.98 L867,464.979 C867,465.531 866.553,465.978 866,465.978 C865.447,465.978 865,465.531 865,464.979 L865,460.98 C865,460.428 865.447,459.98 866,459.98 Z" id="features6"></path>
            </g>
        </g>
    </g>
</svg>