<?xml version="1.0" encoding="UTF-8"?>
<svg width="44px" height="56px" viewBox="0 0 44 56" version="1.1" xmlns="http://www.w3.org/2000/svg" xmlns:xlink="http://www.w3.org/1999/xlink">
    <!-- Generator: Sketch 46.2 (44496) - http://www.bohemiancoding.com/sketch -->
    <title>features7</title>
    <desc>Created with Sketch.</desc>
    <defs></defs>
    <g id="mainpage" stroke="none" stroke-width="1" fill="none" fill-rule="evenodd">
        <g id="landing-v4.2" transform="translate(-357.000000, -7954.000000)" fill="#D7C76E">
            <g id="full-cycle" transform="translate(220.000000, 7279.000000)">
                <path d="M180,730.979 L144,730.979 C143.734,730.979 143.481,730.874 143.293,730.686 L137.293,724.688 C137.105,724.501 137,724.247 137,723.982 L137,675.999 C137,675.447 137.447,675 138,675 L180,675 C180.553,675 181,675.447 181,675.999 L181,729.979 C181,730.532 180.553,730.979 180,730.979 Z M143,727.566 L143,724.95 L140.383,724.95 L143,727.566 Z M179,676.999 L139,676.999 L139,722.951 L144,722.951 C144.553,722.951 145,723.398 145,723.95 L145,728.98 L179,728.98 L179,676.999 Z M145,719.952 C145,719.399 145.447,718.952 146,718.952 L156,718.952 C156.553,718.952 157,719.399 157,719.952 C157,720.504 156.553,720.952 156,720.952 L146,720.952 C145.447,720.952 145,720.504 145,719.952 Z M149,698.96 C144.037,698.96 140,694.924 140,689.963 C140,685.002 144.037,680.966 149,680.966 C153.963,680.966 158,685.002 158,689.963 C158,694.924 153.963,698.96 149,698.96 Z M149,682.965 C145.141,682.965 142,686.105 142,689.963 C142,693.821 145.141,696.96 149,696.96 C152.859,696.96 156,693.821 156,689.963 C156,686.105 152.859,682.965 149,682.965 Z M152.352,694.898 C152.235,694.941 152.117,694.961 152,694.961 C151.596,694.961 151.214,694.714 151.063,694.313 L150.557,692.962 L147.443,692.962 L146.936,694.313 C146.742,694.83 146.166,695.089 145.648,694.898 C145.132,694.703 144.87,694.127 145.063,693.61 L148.064,685.613 C148.21,685.224 148.583,684.965 149,684.965 C149.417,684.965 149.79,685.224 149.937,685.613 L152.937,693.61 C153.13,694.127 152.868,694.703 152.352,694.898 Z M149,688.811 L148.193,690.963 L149.807,690.963 L149,688.811 Z M169,680.966 C173.963,680.966 178,685.002 178,689.963 C178,694.924 173.963,698.96 169,698.96 C164.037,698.96 160,694.924 160,689.963 C160,685.002 164.037,680.966 169,680.966 Z M169,696.96 C172.859,696.96 176,693.821 176,689.963 C176,686.105 172.859,682.965 169,682.965 C165.141,682.965 162,686.105 162,689.963 C162,693.821 165.141,696.96 169,696.96 Z M167,684.965 L169,684.965 C170.654,684.965 172,686.31 172,687.964 C172,688.734 171.699,689.431 171.22,689.963 C171.699,690.495 172,691.191 172,691.962 C172,693.616 170.654,694.961 169,694.961 L167,694.961 C166.447,694.961 166,694.514 166,693.961 L166,689.963 L166,685.964 C166,685.412 166.447,684.965 167,684.965 Z M168,692.962 L169,692.962 C169.552,692.962 170,692.514 170,691.962 C170,691.411 169.552,690.963 169,690.963 L168,690.963 L168,692.962 Z M168,688.963 L169,688.963 C169.552,688.963 170,688.515 170,687.964 C170,687.412 169.552,686.964 169,686.964 L168,686.964 L168,688.963 Z M162.19,702.978 C162.26,702.988 162.319,703.008 162.38,703.038 C162.439,703.058 162.5,703.088 162.56,703.128 C162.609,703.168 162.66,703.208 162.71,703.248 C162.889,703.437 163,703.698 163,703.958 C163,704.227 162.899,704.477 162.71,704.668 C162.609,704.757 162.5,704.827 162.38,704.877 C162.26,704.927 162.13,704.957 162,704.957 C161.73,704.957 161.48,704.857 161.29,704.668 C161.1,704.477 161,704.227 161,703.958 C161,703.698 161.109,703.437 161.29,703.248 C161.519,703.018 161.87,702.908 162.19,702.978 Z M161.29,707.246 C161.519,707.016 161.87,706.907 162.19,706.976 C162.26,706.987 162.319,707.006 162.38,707.026 C162.439,707.056 162.5,707.087 162.55,707.126 C162.609,707.157 162.66,707.207 162.71,707.246 C162.8,707.346 162.87,707.447 162.92,707.576 C162.97,707.697 163,707.826 163,707.956 C163,708.086 162.97,708.216 162.92,708.336 C162.87,708.456 162.8,708.565 162.71,708.666 C162.52,708.855 162.27,708.956 162,708.956 C161.73,708.956 161.48,708.855 161.29,708.666 C161.2,708.565 161.13,708.456 161.08,708.336 C161.03,708.216 161,708.086 161,707.956 C161,707.826 161.03,707.697 161.08,707.576 C161.13,707.447 161.2,707.346 161.29,707.246 Z M162.71,711.245 C162.889,711.434 163,711.695 163,711.955 C163,712.085 162.97,712.215 162.92,712.335 C162.87,712.455 162.8,712.564 162.71,712.665 C162.52,712.854 162.27,712.954 162,712.954 C161.73,712.954 161.48,712.854 161.29,712.665 C161.2,712.564 161.13,712.455 161.08,712.335 C161.02,712.215 161,712.085 161,711.955 C161,711.695 161.109,711.434 161.29,711.245 C161.66,710.875 162.34,710.875 162.71,711.245 Z M161.44,715.123 C161.5,715.084 161.56,715.053 161.62,715.034 C161.68,715.003 161.74,714.984 161.8,714.973 C162,714.933 162.2,714.954 162.38,715.034 C162.51,715.084 162.62,715.154 162.71,715.244 C162.889,715.433 163,715.694 163,715.953 C163,716.223 162.899,716.473 162.71,716.663 C162.52,716.852 162.27,716.953 162,716.953 C161.73,716.953 161.48,716.852 161.29,716.663 C161.1,716.473 161,716.213 161,715.953 C161,715.683 161.109,715.433 161.29,715.244 C161.34,715.204 161.39,715.154 161.44,715.123 Z M162.19,718.972 C162.26,718.983 162.319,719.002 162.38,719.032 C162.439,719.052 162.5,719.082 162.55,719.122 C162.609,719.152 162.66,719.202 162.7,719.242 C162.8,719.332 162.87,719.442 162.92,719.572 C162.97,719.692 163,719.822 163,719.952 C163,720.221 162.899,720.471 162.7,720.662 C162.52,720.851 162.27,720.952 162,720.952 C161.73,720.952 161.48,720.851 161.29,720.662 C161.2,720.561 161.13,720.452 161.08,720.332 C161.02,720.212 161,720.082 161,719.952 C161,719.692 161.109,719.431 161.29,719.242 C161.519,719.012 161.87,718.902 162.19,718.972 Z M166,702.958 L176,702.958 C176.553,702.958 177,703.405 177,703.958 C177,704.51 176.553,704.957 176,704.957 L166,704.957 C165.447,704.957 165,704.51 165,703.958 C165,703.405 165.447,702.958 166,702.958 Z M166,706.957 L176,706.957 C176.553,706.957 177,707.404 177,707.956 C177,708.509 176.553,708.956 176,708.956 L166,708.956 C165.447,708.956 165,708.509 165,707.956 C165,707.404 165.447,706.957 166,706.957 Z M166,710.955 L176,710.955 C176.553,710.955 177,711.402 177,711.955 C177,712.507 176.553,712.954 176,712.954 L166,712.954 C165.447,712.954 165,712.507 165,711.955 C165,711.402 165.447,710.955 166,710.955 Z M166,714.954 L176,714.954 C176.553,714.954 177,715.401 177,715.953 C177,716.506 176.553,716.953 176,716.953 L166,716.953 C165.447,716.953 165,716.506 165,715.953 C165,715.401 165.447,714.954 166,714.954 Z M166,718.952 L176,718.952 C176.553,718.952 177,719.399 177,719.952 C177,720.504 176.553,720.952 176,720.952 L166,720.952 C165.447,720.952 165,720.504 165,719.952 C165,719.399 165.447,718.952 166,718.952 Z M141.62,703.038 C141.8,702.958 142,702.938 142.19,702.978 C142.26,702.988 142.319,703.008 142.38,703.038 C142.439,703.058 142.5,703.088 142.56,703.128 C142.609,703.168 142.66,703.208 142.71,703.248 C142.89,703.437 143,703.698 143,703.958 C143,704.227 142.899,704.477 142.71,704.668 C142.519,704.857 142.27,704.957 142,704.957 C141.729,704.957 141.48,704.857 141.29,704.668 C141.1,704.477 141,704.227 141,703.958 C141,703.698 141.109,703.437 141.29,703.248 C141.39,703.158 141.49,703.088 141.62,703.038 Z M141.29,707.246 C141.52,707.016 141.87,706.907 142.19,706.976 C142.26,706.987 142.319,707.006 142.38,707.026 C142.439,707.056 142.5,707.087 142.55,707.126 C142.609,707.157 142.66,707.207 142.71,707.246 C142.8,707.346 142.87,707.447 142.92,707.576 C142.97,707.697 143,707.826 143,707.956 C143,708.086 142.97,708.216 142.92,708.336 C142.87,708.456 142.8,708.565 142.71,708.666 C142.609,708.756 142.5,708.826 142.38,708.876 C142.26,708.926 142.13,708.956 142,708.956 C141.729,708.956 141.48,708.855 141.29,708.666 C141.2,708.565 141.13,708.456 141.08,708.336 C141.03,708.216 141,708.086 141,707.956 C141,707.826 141.03,707.697 141.08,707.576 C141.13,707.447 141.2,707.346 141.29,707.246 Z M142.71,711.245 C142.89,711.434 143,711.695 143,711.955 C143,712.085 142.97,712.215 142.92,712.335 C142.87,712.455 142.8,712.564 142.71,712.665 C142.519,712.854 142.27,712.954 142,712.954 C141.729,712.954 141.48,712.854 141.29,712.665 C141.2,712.564 141.13,712.455 141.08,712.335 C141.019,712.215 141,712.085 141,711.955 C141,711.695 141.109,711.434 141.29,711.245 C141.66,710.875 142.34,710.875 142.71,711.245 Z M141.44,715.123 C141.5,715.084 141.56,715.053 141.62,715.034 C141.859,714.933 142.14,714.933 142.38,715.034 C142.51,715.084 142.609,715.154 142.7,715.244 C142.89,715.433 143,715.683 143,715.953 C143,716.223 142.899,716.473 142.7,716.663 C142.519,716.852 142.27,716.953 142,716.953 C141.729,716.953 141.48,716.852 141.29,716.663 C141.1,716.473 141,716.223 141,715.953 C141,715.683 141.109,715.433 141.29,715.244 C141.34,715.204 141.39,715.154 141.44,715.123 Z M142.19,718.972 C142.26,718.983 142.319,719.002 142.38,719.032 C142.439,719.052 142.5,719.082 142.55,719.122 C142.609,719.152 142.66,719.202 142.7,719.242 C142.8,719.332 142.87,719.442 142.92,719.572 C142.97,719.692 143,719.822 143,719.952 C143,720.221 142.899,720.471 142.7,720.662 C142.519,720.851 142.27,720.952 142,720.952 C141.729,720.952 141.48,720.851 141.29,720.662 C141.2,720.561 141.13,720.452 141.08,720.332 C141.019,720.212 141,720.082 141,719.952 C141,719.692 141.109,719.431 141.29,719.242 C141.52,719.012 141.87,718.902 142.19,718.972 Z M146,702.958 L156,702.958 C156.553,702.958 157,703.405 157,703.958 C157,704.51 156.553,704.957 156,704.957 L146,704.957 C145.447,704.957 145,704.51 145,703.958 C145,703.405 145.447,702.958 146,702.958 Z M146,706.957 L156,706.957 C156.553,706.957 157,707.404 157,707.956 C157,708.509 156.553,708.956 156,708.956 L146,708.956 C145.447,708.956 145,708.509 145,707.956 C145,707.404 145.447,706.957 146,706.957 Z M146,714.954 L156,714.954 C156.553,714.954 157,715.401 157,715.953 C157,716.506 156.553,716.953 156,716.953 L146,716.953 C145.447,716.953 145,716.506 145,715.953 C145,715.401 145.447,714.954 146,714.954 Z M146,710.955 L156,710.955 C156.553,710.955 157,711.402 157,711.955 C157,712.507 156.553,712.954 156,712.954 L146,712.954 C145.447,712.954 145,712.507 145,711.955 C145,711.402 145.447,710.955 146,710.955 Z" id="features7"></path>
            </g>
        </g>
    </g>
</svg>