<?xml version="1.0" encoding="UTF-8"?>
<svg width="56px" height="56px" viewBox="0 0 56 56" version="1.1" xmlns="http://www.w3.org/2000/svg" xmlns:xlink="http://www.w3.org/1999/xlink">
    <!-- Generator: Sketch 46.2 (44496) - http://www.bohemiancoding.com/sketch -->
    <title>features3</title>
    <desc>Created with Sketch.</desc>
    <defs></defs>
    <g id="mainpage" stroke="none" stroke-width="1" fill="none" fill-rule="evenodd">
        <g id="landing-v4.2" transform="translate(-1032.000000, -7413.000000)" fill="#D7C76E">
            <g id="full-cycle" transform="translate(220.000000, 7279.000000)">
                <path d="M865,190.001 L849,190.001 C847.346,190.001 846,188.655 846,187.001 L846,153 C846,151.346 847.346,150 849,150 L865,150 C866.655,150 868,151.346 868,153 L868,187.001 C868,188.655 866.655,190.001 865,190.001 Z M866,153 C866,152.449 865.552,152 865,152 L849,152 C848.449,152 848,152.449 848,153 L848,158 L866,158 L866,153 Z M866,160 L848,160 L848,180.001 L866,180.001 L866,160 Z M866,182.001 L848,182.001 L848,187.001 C848,187.552 848.449,188.001 849,188.001 L865,188.001 C865.552,188.001 866,187.552 866,187.001 L866,182.001 Z M857,186.001 C856.74,186.001 856.48,185.89 856.29,185.711 C856.11,185.521 856,185.26 856,185.001 C856,184.731 856.11,184.481 856.29,184.291 C856.66,183.921 857.34,183.921 857.71,184.291 C857.89,184.481 858,184.731 858,185.001 C858,185.26 857.89,185.521 857.71,185.711 C857.52,185.89 857.26,186.001 857,186.001 Z M856,154 L858,154 C858.552,154 859,154.448 859,155 C859,155.553 858.552,156 858,156 L856,156 C855.448,156 855,155.553 855,155 C855,154.448 855.448,154 856,154 Z M832.29,185.711 C832.11,185.521 832,185.26 832,185.001 C832,184.74 832.11,184.481 832.29,184.291 C832.67,183.921 833.34,183.921 833.71,184.291 C833.889,184.481 834,184.74 834,185.001 C834,185.26 833.889,185.521 833.71,185.711 C833.52,185.89 833.26,186.001 833,186.001 C832.739,186.001 832.48,185.89 832.29,185.711 Z M853,148 C852.448,148 852,147.552 852,147 L852,144 L814,144 L814,180.001 L843,180.001 C843.552,180.001 844,180.448 844,181.001 C844,181.553 843.552,182.001 843,182.001 L814,182.001 L814,187.001 C814,187.552 814.448,188.001 815,188.001 L843,188.001 C843.552,188.001 844,188.448 844,189.001 C844,189.553 843.552,190.001 843,190.001 L815,190.001 C813.345,190.001 812,188.655 812,187.001 L812,137 C812,135.346 813.345,134 815,134 L851,134 C852.654,134 854,135.346 854,137 L854,147 C854,147.552 853.552,148 853,148 Z M852,137 C852,136.449 851.551,136 851,136 L815,136 C814.448,136 814,136.449 814,137 L814,142 L852,142 L852,137 Z M832,138 L834,138 C834.552,138 835,138.448 835,139 C835,139.552 834.552,140 834,140 L832,140 C831.448,140 831,139.552 831,139 C831,138.448 831.448,138 832,138 Z" id="features3"></path>
            </g>
        </g>
    </g>
</svg>