<?xml version="1.0" encoding="UTF-8"?>
<svg width="52px" height="60px" viewBox="0 0 52 60" version="1.1" xmlns="http://www.w3.org/2000/svg" xmlns:xlink="http://www.w3.org/1999/xlink">
    <!-- Generator: Sketch 46.2 (44496) - http://www.bohemiancoding.com/sketch -->
    <title>features5</title>
    <desc>Created with Sketch.</desc>
    <defs></defs>
    <g id="mainpage" stroke="none" stroke-width="1" fill="none" fill-rule="evenodd">
        <g id="landing-v4.2" transform="translate(-694.000000, -7686.000000)" fill="#D7C76E">
            <g id="full-cycle" transform="translate(220.000000, 7279.000000)">
                <path d="M525,466.978 L505,466.978 C504.447,466.978 504,466.531 504,465.979 L504,439.988 C504,439.436 504.447,438.989 505,438.989 L519,438.989 C519.134,438.989 519.264,439.016 519.385,439.066 C519.507,439.117 519.617,439.191 519.708,439.283 L525.706,445.278 C525.798,445.37 525.872,445.479 525.922,445.601 C525.973,445.722 526,445.852 526,445.986 L526,465.979 C526,466.531 525.553,466.978 525,466.978 Z M520,442.401 L520,444.986 L522.586,444.986 L520,442.401 Z M524,446.986 L519,446.986 C518.447,446.986 518,446.539 518,445.986 L518,440.988 L506,440.988 L506,464.979 L524,464.979 L524,446.986 Z M509,448.985 L512,448.985 C512.553,448.985 513,449.432 513,449.985 L513,453.983 C513,454.536 512.553,454.983 512,454.983 L509,454.983 C508.447,454.983 508,454.536 508,453.983 L508,449.985 C508,449.432 508.447,448.985 509,448.985 Z M510,452.983 L511,452.983 L511,450.984 L510,450.984 L510,452.983 Z M509,456.982 C509.553,456.982 510,457.429 510,457.982 L510,461.98 C510,462.533 509.553,462.98 509,462.98 C508.447,462.98 508,462.533 508,461.98 L508,457.982 C508,457.429 508.447,456.982 509,456.982 Z M513,456.982 L516,456.982 C516.553,456.982 517,457.429 517,457.982 L517,461.98 C517,462.533 516.553,462.98 516,462.98 L513,462.98 C512.447,462.98 512,462.533 512,461.98 L512,457.982 C512,457.429 512.447,456.982 513,456.982 Z M514,460.98 L515,460.98 L515,458.981 L514,458.981 L514,460.98 Z M516,454.983 C515.447,454.983 515,454.536 515,453.983 L515,449.985 C515,449.432 515.447,448.985 516,448.985 C516.553,448.985 517,449.432 517,449.985 L517,453.983 C517,454.536 516.553,454.983 516,454.983 Z M520,448.985 C520.553,448.985 521,449.432 521,449.985 L521,453.983 C521,454.536 520.553,454.983 520,454.983 C519.447,454.983 519,454.536 519,453.983 L519,449.985 C519,449.432 519.447,448.985 520,448.985 Z M520,456.982 C520.553,456.982 521,457.429 521,457.982 L521,461.98 C521,462.533 520.553,462.98 520,462.98 C519.447,462.98 519,462.533 519,461.98 L519,457.982 C519,457.429 519.447,456.982 520,456.982 Z M515.708,436.695 C515.616,436.788 515.505,436.861 515.382,436.912 C515.26,436.963 515.13,436.989 515,436.989 C514.87,436.989 514.74,436.963 514.618,436.912 C514.495,436.861 514.384,436.788 514.292,436.695 L509.293,431.698 C508.902,431.308 508.902,430.675 509.293,430.285 C509.684,429.894 510.316,429.894 510.707,430.285 L514,433.576 L514,421.995 L499,421.995 C498.447,421.995 498,421.548 498,420.995 C498,420.443 498.447,419.996 499,419.996 L515,419.996 C515.553,419.996 516,420.443 516,420.995 L516,433.577 L519.293,430.285 C519.684,429.894 520.316,429.894 520.707,430.285 C521.098,430.675 521.098,431.308 520.707,431.698 L515.708,436.695 Z M495,434.99 L475,434.99 C474.447,434.99 474,434.543 474,433.99 L474,408 C474,407.448 474.447,407 475,407 L489,407 C489.134,407 489.264,407.028 489.385,407.078 C489.507,407.129 489.617,407.203 489.708,407.295 L495.706,413.29 C495.798,413.382 495.872,413.491 495.923,413.613 C495.973,413.734 496,413.864 496,413.998 L496,433.99 C496,434.543 495.553,434.99 495,434.99 Z M490,410.413 L490,412.998 L492.586,412.998 L490,410.413 Z M494,414.997 L489,414.997 C488.447,414.997 488,414.55 488,413.998 L488,409 L476,409 L476,432.991 L494,432.991 L494,414.997 Z M479,416.997 C479.553,416.997 480,417.444 480,417.996 L480,421.995 C480,422.547 479.553,422.994 479,422.994 C478.447,422.994 478,422.547 478,421.995 L478,417.996 C478,417.444 478.447,416.997 479,416.997 Z M479,424.994 L482,424.994 C482.553,424.994 483,425.441 483,425.993 L483,429.992 C483,430.544 482.553,430.992 482,430.992 L479,430.992 C478.447,430.992 478,430.544 478,429.992 L478,425.993 C478,425.441 478.447,424.994 479,424.994 Z M480,428.992 L481,428.992 L481,426.993 L480,426.993 L480,428.992 Z M486,424.994 C486.553,424.994 487,425.441 487,425.993 L487,429.992 C487,430.544 486.553,430.992 486,430.992 C485.447,430.992 485,430.544 485,429.992 L485,425.993 C485,425.441 485.447,424.994 486,424.994 Z M486,422.994 L483,422.994 C482.447,422.994 482,422.547 482,421.995 L482,417.996 C482,417.444 482.447,416.997 483,416.997 L486,416.997 C486.553,416.997 487,417.444 487,417.996 L487,421.995 C487,422.547 486.553,422.994 486,422.994 Z M485,418.996 L484,418.996 L484,420.995 L485,420.995 L485,418.996 Z M490,416.997 C490.553,416.997 491,417.444 491,417.996 L491,421.995 C491,422.547 490.553,422.994 490,422.994 C489.447,422.994 489,422.547 489,421.995 L489,417.996 C489,417.444 489.447,416.997 490,416.997 Z M490,424.994 C490.553,424.994 491,425.441 491,425.993 L491,429.992 C491,430.544 490.553,430.992 490,430.992 C489.447,430.992 489,430.544 489,429.992 L489,425.993 C489,425.441 489.447,424.994 490,424.994 Z M484.292,437.284 C484.384,437.191 484.495,437.117 484.618,437.066 C484.74,437.016 484.87,436.989 485,436.989 L485,436.989 C485.001,436.989 485.002,436.99 485.003,436.99 C485.132,436.99 485.261,437.016 485.382,437.066 C485.505,437.117 485.616,437.191 485.708,437.284 L490.707,442.28 C491.098,442.671 491.098,443.303 490.707,443.694 C490.512,443.889 490.256,443.987 490,443.987 C489.744,443.987 489.488,443.889 489.293,443.694 L486,440.402 L486,451.984 L501,451.984 C501.553,451.984 502,452.431 502,452.983 C502,453.536 501.553,453.983 501,453.983 L485,453.983 C484.447,453.983 484,453.536 484,452.983 L484,440.402 L480.707,443.694 C480.316,444.084 479.684,444.084 479.293,443.694 C478.902,443.303 478.902,442.671 479.293,442.28 L484.292,437.284 Z" id="features5"></path>
            </g>
        </g>
    </g>
</svg>