<?xml version="1.0" encoding="UTF-8"?>
<svg width="176px" height="150px" viewBox="0 0 176 150" version="1.1" xmlns="http://www.w3.org/2000/svg" xmlns:xlink="http://www.w3.org/1999/xlink">
    <!-- Generator: Sketch 46.2 (44496) - http://www.bohemiancoding.com/sketch -->
    <title>fwdays</title>
    <desc>Created with Sketch.</desc>
    <defs>
        <linearGradient x1="49.9552721%" y1="99.3261596%" x2="49.9552721%" y2="0.0291280148%" id="linearGradient-1">
            <stop stop-color="#9ACA3C" offset="0%"></stop>
            <stop stop-color="#B7CA3F" offset="11.95%"></stop>
            <stop stop-color="#D1CA46" offset="26.87%"></stop>
            <stop stop-color="#E5CA4D" offset="42.57%"></stop>
            <stop stop-color="#F2C952" offset="59.19%"></stop>
            <stop stop-color="#FBC955" offset="77.37%"></stop>
            <stop stop-color="#FFC956" offset="100%"></stop>
        </linearGradient>
        <linearGradient x1="49.9944298%" y1="95.8230392%" x2="49.9944298%" y2="8.90343137%" id="linearGradient-2">
            <stop stop-color="#1F6AB4" offset="0%"></stop>
            <stop stop-color="#2B79B2" offset="8.371949%"></stop>
            <stop stop-color="#398DB1" offset="21.22%"></stop>
            <stop stop-color="#459FAF" offset="34.67%"></stop>
            <stop stop-color="#4EADAC" offset="48.71%"></stop>
            <stop stop-color="#55B7A8" offset="63.56%"></stop>
            <stop stop-color="#59BEA6" offset="79.79%"></stop>
            <stop stop-color="#5AC1A6" offset="100%"></stop>
        </linearGradient>
    </defs>
    <g id="Large" stroke="none" stroke-width="1" fill="none" fill-rule="evenodd">
        <g id="fwdays">
            <g id="fwdays-copy-8" transform="translate(3.000000, 2.000000)">
                <path d="M16.8767044,137.92881 L22.0719466,137.92881 L22.0719466,119.535039 L27.9970989,119.535039 L27.9970989,115.196885 L21.9860748,115.196885 L21.9860748,113.938821 C21.9860748,111.552836 23.0165361,110.468298 24.9915869,110.468298 C26.1079199,110.468298 27.0095735,110.685206 28.0400348,111.032258 L28.0400348,106.607341 C26.8807659,106.260289 25.6356252,106 23.832318,106 C21.5996519,106 19.9251523,106.607341 18.7229475,107.822024 C17.5207427,109.036707 16.8767044,110.945495 16.8767044,113.505006 L16.8767044,115.153504 L14,115.153504 L14,119.535039 L16.8767044,119.535039 L16.8767044,137.92881 Z M37.3141862,138.102336 L41.951262,138.102336 L47.0606324,122.441602 L52.127067,138.102336 L56.7641427,138.102336 L64.1920511,115.023359 L58.9968088,115.023359 L54.3597331,130.727475 L49.2932985,114.936596 L44.8709022,114.936596 L39.8474035,130.727475 L35.2961996,115.023359 L29.9721497,115.023359 L37.3141862,138.102336 Z M77.3304323,138.406007 C72.0063824,138.406007 66.8111401,134.111235 66.8111401,126.432703 C66.8111401,118.840934 71.9205106,114.546162 77.3304323,114.546162 C81.0658544,114.546162 83.4273281,116.45495 85.0588918,118.580645 L85.0588918,106.260289 L90.254134,106.260289 L90.254134,137.92881 L85.0588918,137.92881 L85.0588918,134.111235 C83.3843922,136.497219 81.0229185,138.406007 77.3304323,138.406007 Z M78.575573,133.850945 C82.0533798,133.850945 85.1447636,130.901001 85.1447636,126.432703 C85.1447636,122.007786 82.0533798,119.101224 78.575573,119.101224 C75.0118944,119.101224 72.0493182,121.877642 72.0493182,126.519466 C72.0493182,130.944383 75.0548303,133.850945 78.575573,133.850945 Z M115.75805,137.92881 L110.605744,137.92881 L110.605744,135.10901 C109.060052,136.974416 106.698578,138.406007 103.263708,138.406007 C98.9701189,138.406007 95.191761,135.933259 95.191761,131.248053 C95.191761,126.172414 99.0989266,123.743048 104.380041,123.743048 C107.127937,123.743048 108.888309,124.133482 110.64868,124.697442 L110.64868,124.263626 C110.64868,121.096774 108.673629,119.361513 105.067015,119.361513 C102.533798,119.361513 100.644619,119.925473 98.583696,120.793103 L97.1668117,116.585095 C99.6570931,115.457175 102.104439,114.676307 105.796925,114.676307 C112.494923,114.676307 115.75805,118.233593 115.75805,124.350389 L115.75805,137.92881 Z M110.734552,129.642937 L110.734552,128.341491 C109.403539,127.820912 107.557296,127.430478 105.53931,127.430478 C102.276182,127.430478 100.344067,128.775306 100.344067,131.074527 C100.344067,133.243604 102.276182,134.458287 104.723528,134.458287 C108.158399,134.458287 110.734552,132.506118 110.734552,129.642937 Z M125.719176,145 C129.368726,145 131.386713,143.264739 133.19002,138.579533 L142.206556,115.023359 L136.796635,115.023359 L130.914418,132.028921 L124.474035,115.023359 L118.935306,115.023359 L128.381201,137.92881 C127.522483,139.92436 126.62083,140.575083 125.16101,140.575083 C124.087612,140.575083 123.057151,140.228031 122.112562,139.707453 L120.35219,143.611791 C121.940818,144.479422 123.529446,145 125.719176,145 Z M153.584566,138.362625 C158.307514,138.362625 162,135.976641 162,131.16129 C162,126.953281 158.264578,125.434928 154.958515,124.393771 C154.829707,124.350389 154.657963,124.307008 154.529156,124.263626 C152.038874,123.439377 149.849144,122.745273 149.849144,121.183537 C149.849144,119.751947 151.008413,118.797553 153.0264,118.797553 C154.915579,118.797553 157.234117,119.621802 159.423847,120.96663 L161.484769,117.235818 C159.08036,115.630701 155.988976,114.632925 153.155207,114.632925 C148.646939,114.632925 145.083261,117.279199 145.083261,121.617353 C145.083261,126.085651 148.818683,127.47386 152.167682,128.471635 L152.554105,128.60178 C155.044386,129.339266 157.234117,129.946607 157.234117,131.638487 C157.234117,133.243604 155.94604,134.197998 153.713374,134.197998 C151.394836,134.197998 148.732811,133.243604 146.285466,131.378198 L143.966928,134.935484 C146.800696,137.191324 150.364375,138.362625 153.584566,138.362625 Z" id="fwdays" fill="#121314"></path>
                <g id="logo">
                    <polygon id="Shape" fill="url(#linearGradient-1)" points="38.5198198 77.2292333 0 39.512631 38.5198198 1.79602868 42.0216216 5.15483557 6.93213826 39.512631 42.0216216 73.8004513"></polygon>
                    <polygon id="Shape" fill="url(#linearGradient-2)" points="127.314936 80.8212907 102.577952 56.6629441 77.8409673 80.8212907 40.699431 44.5485546 5.36088193 79.1309107 1.82702703 75.6797184 40.699431 37.7166023 77.8409673 73.9893384 102.577952 49.8309919 127.314936 73.9893384 162.725605 39.4774147 166.259459 42.8581746"></polygon>
                    <path d="M43.8486486,3.59205736 C43.8486486,5.58051769 42.2173745,7.18411473 40.1945946,7.18411473 C38.1718147,7.18411473 36.5405405,5.58051769 36.5405405,3.59205736 C36.5405405,1.60359704 38.1718147,0 40.1945946,0 C42.2173745,0 43.8486486,1.60359704 43.8486486,3.59205736 L43.8486486,3.59205736 Z" id="Shape" fill="#F4772E"></path>
                    <ellipse id="Oval" fill="#C1B32D" cx="3.65405405" cy="39.512631" rx="3.65405405" ry="3.59205736"></ellipse>
                    <ellipse id="Oval" fill="#1363A5" cx="3.65405405" cy="77.2292333" rx="3.65405405" ry="3.59205736"></ellipse>
                    <ellipse id="Oval" fill="#32BCA9" cx="41.1081081" cy="41.3086597" rx="5.48108108" ry="5.38808605"></ellipse>
                    <ellipse id="Oval" fill="#1363A5" cx="78.5621622" cy="77.2292333" rx="3.65405405" ry="3.59205736"></ellipse>
                    <ellipse id="Oval" fill="#32BCA9" cx="102.313514" cy="53.8808605" rx="3.65405405" ry="3.59205736"></ellipse>
                    <ellipse id="Oval" fill="#1363A5" cx="127.775165" cy="77.2292333" rx="3.65405405" ry="3.59205736"></ellipse>
                    <ellipse id="Oval" fill="#32BCA9" cx="162.605405" cy="43.1046884" rx="5.48108108" ry="5.38808605"></ellipse>
                    <path d="M45.6756757,77.2292333 C45.6756757,79.2176936 44.0444015,80.8212907 42.0216216,80.8212907 C39.9988417,80.8212907 38.3675676,79.2176936 38.3675676,77.2292333 C38.3675676,75.240773 39.9988417,73.637176 42.0216216,73.637176 C44.0444015,73.637176 45.6756757,75.240773 45.6756757,77.2292333 L45.6756757,77.2292333 Z" id="Shape" fill="#4CB748"></path>
                </g>
            </g>
        </g>
    </g>
</svg>