<?xml version="1.0" encoding="UTF-8"?>
<svg width="22px" height="22px" viewBox="0 0 22 22" version="1.1" xmlns="http://www.w3.org/2000/svg" xmlns:xlink="http://www.w3.org/1999/xlink">
    <!-- Generator: sketchtool 51.2 (57519) - http://www.bohemiancoding.com/sketch -->
    <title>057C7BB7-3CF3-4581-9FE0-9935D3EC0CAF</title>
    <desc>Created with sketchtool.</desc>
    <defs></defs>
    <g id="vac" stroke="none" stroke-width="1" fill="none" fill-rule="evenodd">
        <g id="vacansia_v2" transform="translate(-809.000000, -640.000000)" fill-rule="nonzero">
            <g id="Group-3" transform="translate(809.000000, 212.000000)">
                <g id="Group-2" transform="translate(0.000000, 228.000000)">
                    <g id="Group-4" transform="translate(0.000000, 200.000000)">
                        <rect id="Rectangle-2" x="0" y="0" width="22" height="22"></rect>
                        <path d="M18.3717539,2 L3.62824607,2 C2.729,2 2,2.729 2,3.62824607 L2,18.3717068 C2,19.271 2.729,20 3.62824607,20 L18.3717068,20 C19.271,20 20,19.271 20,18.3717068 L20,3.62824607 C20,2.729 19.271,2 18.3717539,2 Z M7.56996335,17.5423874 C7.56996335,17.8040942 7.35782723,18.0162304 7.09612042,18.0162304 L5.07908377,18.0162304 C4.81737696,18.0162304 4.60524084,17.8040942 4.60524084,17.5423874 L4.60524084,9.08705236 C4.60524084,8.82534555 4.81737696,8.61320942 5.07908377,8.61320942 L7.09612042,8.61320942 C7.35782723,8.61320942 7.56996335,8.82534555 7.56996335,9.08705236 L7.56996335,17.5423874 Z M6.08760209,7.81616754 C5.02932461,7.81616754 4.17140314,6.95824607 4.17140314,5.89996859 C4.17140314,4.8416911 5.02932461,3.98376963 6.08760209,3.98376963 C7.14587958,3.98376963 8.00380105,4.8416911 8.00380105,5.89996859 C8.00380105,6.95824607 7.1459267,7.81616754 6.08760209,7.81616754 Z M18.1109424,17.580555 C18.1109424,17.8211518 17.9158639,18.0162304 17.675267,18.0162304 L15.5108377,18.0162304 C15.2702408,18.0162304 15.0751623,17.8211518 15.0751623,17.580555 L15.0751623,13.6145236 C15.0751623,13.0228796 15.2487068,11.021911 13.529,11.021911 C12.1950681,11.021911 11.9245026,12.3915131 11.8701728,13.0061518 L11.8701728,17.580555 C11.8701728,17.8211518 11.6751414,18.0162304 11.4344974,18.0162304 L9.34112565,18.0162304 C9.1005288,18.0162304 8.90545026,17.8211518 8.90545026,17.580555 L8.90545026,9.04888482 C8.90545026,8.80828796 9.1005288,8.61320942 9.34112565,8.61320942 L11.4344974,8.61320942 C11.6750942,8.61320942 11.8701728,8.80828796 11.8701728,9.04888482 L11.8701728,9.78655497 C12.3647958,9.04426702 13.0998743,8.47132984 14.6649791,8.47132984 C18.1307801,8.47132984 18.1109424,11.7092565 18.1109424,13.4883351 L18.1109424,17.580555 Z" id="Shape" fill="#0077B7"></path>
                    </g>
                </g>
            </g>
        </g>
    </g>
</svg>