<?xml version="1.0" encoding="UTF-8"?>
<svg width="22px" height="22px" viewBox="0 0 22 22" version="1.1" xmlns="http://www.w3.org/2000/svg" xmlns:xlink="http://www.w3.org/1999/xlink">
    <!-- Generator: sketchtool 51.2 (57519) - http://www.bohemiancoding.com/sketch -->
    <title>5105FF20-05BE-44AA-85E6-F6FF21EC4211</title>
    <desc>Created with sketchtool.</desc>
    <defs></defs>
    <g id="vac" stroke="none" stroke-width="1" fill="none" fill-rule="evenodd">
        <g id="vacansia_v2" transform="translate(-809.000000, -673.000000)" fill-rule="nonzero">
            <g id="Group-3" transform="translate(809.000000, 212.000000)">
                <g id="Group-2" transform="translate(0.000000, 228.000000)">
                    <g id="Group-4-Copy-3" transform="translate(0.000000, 233.000000)">
                        <path d="M20.645,11.10375 C20.645,11.7975 20.57,12.47125 20.425,13.12375 C20.7925,13.85375 21,14.67625 21,15.54625 C21,18.5575 18.52375,21 15.46875,21 C14.52125,21 13.6325,20.765 12.8525,20.3525 C12.285,20.455 11.7025,20.51 11.105,20.51 C5.8375,20.51 1.56625,16.29875 1.56625,11.10375 C1.56625,10.4575 1.63375,9.82375 1.76,9.21375 C1.2775,8.4025 1,7.46125 1,6.455 C1,3.44125 3.47625,1 6.5325,1 C7.61375,1 8.6225,1.3075 9.475,1.83625 C10.00625,1.74625 10.55125,1.69875 11.10625,1.69875 C16.375,1.69875 20.645,5.91 20.645,11.10375 Z M15.9663976,15.6994415 C16.412787,15.0820278 16.6397647,14.3758764 16.6410256,13.6022345 C16.6410256,12.9548249 16.509883,12.3986526 16.2501197,11.944966 C15.9903563,11.4950289 15.6259311,11.1200813 15.1656708,10.8263723 C14.7117154,10.5376626 14.1594031,10.291447 13.5175607,10.0927248 C12.8845452,9.89400255 12.1695655,9.71027822 11.3902755,9.54780092 C10.7736528,9.4090703 10.3260024,9.30033549 10.0586732,9.22784562 C9.79764883,9.1578554 9.53662451,9.05786937 9.2844271,8.93413665 C9.03979561,8.81415341 8.84686458,8.67292315 8.71067798,8.50794619 C8.58079631,8.35421767 8.51774696,8.17549264 8.51774696,7.9617725 C8.51774696,7.61182139 8.71319996,7.3168626 9.11419384,7.06064839 C9.53031957,6.79318576 10.0927198,6.65820461 10.7812187,6.65820461 C11.5252011,6.65820461 12.0649036,6.77818785 12.3889773,7.01940415 C12.7218778,7.2681194 13.0131659,7.61932034 13.2527534,8.06425818 C13.4595553,8.41170964 13.6474423,8.65542559 13.8277635,8.81165376 C14.0206945,8.97788054 14.3006336,9.06411849 14.656232,9.06411849 C15.047138,9.06411849 15.3800386,8.92913735 15.6448459,8.66167472 C15.9071312,8.39671173 16.0395348,8.09050451 16.0395348,7.75430148 C16.0395348,7.4056002 15.9373949,7.04440066 15.7381589,6.6819513 C15.5414449,6.32200158 15.2261982,5.9782996 14.8025065,5.653345 C14.3825978,5.33213987 13.8479393,5.07217619 13.2136628,4.87970308 C12.5819083,4.68722997 11.826577,4.58974359 10.9678448,4.58974359 C9.89222286,4.58974359 8.9426996,4.73472334 8.14449479,5.023433 C7.3336801,5.31464232 6.70570855,5.74333243 6.27571196,6.29200577 C5.84193241,6.8444286 5.62252066,7.4843392 5.62252066,8.19424002 C5.62252066,8.93913595 5.83184451,9.57279743 6.24544827,10.0802265 C6.6514861,10.5764072 7.20884239,10.9738517 7.89860231,11.2613115 C8.5719694,11.5437721 9.4206137,11.7899877 10.4205764,11.9987085 C11.1544709,12.1486876 11.7483958,12.2936673 12.1859583,12.4261488 C12.604606,12.5548808 12.9501165,12.7411048 13.2124018,12.9810713 C13.4608163,13.2097893 13.583132,13.5022485 13.583132,13.8721968 C13.583132,14.3421311 13.3511104,14.7270773 12.8706743,15.0457828 C12.3814113,15.3719872 11.72822,15.5394638 10.9325372,15.5394638 C10.3550051,15.5394638 9.88465694,15.4557255 9.53536352,15.2957479 C9.18859208,15.1345204 8.91747986,14.9295491 8.72707081,14.6833335 C8.53161782,14.4321186 8.34625272,14.1096636 8.17601947,13.727217 C8.02344003,13.3785157 7.83303098,13.1060538 7.61235825,12.9210797 C7.38033663,12.7298564 7.09535355,12.6336198 6.76497494,12.6336198 C6.36145908,12.6336198 6.02351454,12.7548529 5.75996825,12.9985688 C5.49389998,13.2422848 5.35897436,13.5422429 5.35897436,13.884695 C5.35897436,14.4383677 5.56451525,15.0095379 5.97433605,15.5844576 C6.3791129,16.1568776 6.91124944,16.6180632 7.5581358,16.9592655 C8.46352452,17.4291998 9.62237163,17.6666667 11.0044135,17.6666667 C12.1569556,17.6666667 13.1670063,17.4904413 14.0106066,17.1479891 C14.8642949,16.8030373 15.5212691,16.3156054 15.9663976,15.6994415 Z" id="Combined-Shape" fill="#03A9F4"></path>
                        <rect id="Rectangle-2" x="0" y="0" width="22" height="22"></rect>
                    </g>
                </g>
            </g>
        </g>
    </g>
</svg>