<?xml version="1.0" encoding="UTF-8"?>
<svg width="60px" height="60px" viewBox="0 0 60 60" version="1.1" xmlns="http://www.w3.org/2000/svg" xmlns:xlink="http://www.w3.org/1999/xlink">
    <!-- Generator: Sketch 46.2 (44496) - http://www.bohemiancoding.com/sketch -->
    <title>solutions_ondemand</title>
    <desc>Created with Sketch.</desc>
    <defs></defs>
    <g id="mainpage" stroke="none" stroke-width="1" fill="none" fill-rule="evenodd">
        <g id="landing-v4.2" transform="translate(-1072.000000, -1542.000000)" fill="#788C95">
            <g id="expertise" transform="translate(237.000000, 1432.000000)">
                <g id="solutions_ondemand" transform="translate(835.000000, 110.000000)">
                    <path d="M8,47 C8,47.553 7.553,48 7,48 C6.447,48 6,47.553 6,47 L6,45 C6,44.447 6.447,44 7,44 C7.553,44 8,44.447 8,45 L8,47 Z M8,41 C8,41.553 7.553,42 7,42 C6.447,42 6,41.553 6,41 L6,39 C6,38.447 6.447,38 7,38 C7.553,38 8,38.447 8,39 L8,41 Z M8,35 C8,35.553 7.553,36 7,36 C6.447,36 6,35.553 6,35 L6,33 C6,32.447 6.447,32 7,32 C7.553,32 8,32.447 8,33 L8,35 Z M8,29 C8,29.553 7.553,30 7,30 C6.447,30 6,29.553 6,29 L6,27 C6,26.447 6.447,26 7,26 C7.553,26 8,26.447 8,27 L8,29 Z M7,18 C6.447,18 6,17.553 6,17 L6,15 C6,14.447 6.447,14 7,14 C7.553,14 8,14.447 8,15 L8,17 C8,17.553 7.553,18 7,18 Z M8,23 C8,23.553 7.553,24 7,24 C6.447,24 6,23.553 6,23 L6,21 C6,20.447 6.447,20 7,20 C7.553,20 8,20.447 8,21 L8,23 Z M12,34 C12,34.553 11.553,35 11,35 C10.447,35 10,34.553 10,34 L10,33 C10,32.447 10.447,32 11,32 C11.553,32 12,32.447 12,33 L12,34 Z M12,29 C12,29.553 11.553,30 11,30 C10.447,30 10,29.553 10,29 L10,27 C10,26.447 10.447,26 11,26 C11.553,26 12,26.447 12,27 L12,29 Z M11,18 C10.447,18 10,17.553 10,17 L10,15 C10,14.447 10.447,14 11,14 C11.553,14 12,14.447 12,15 L12,17 C12,17.553 11.553,18 11,18 Z M12,23 C12,23.553 11.553,24 11,24 C10.447,24 10,23.553 10,23 L10,21 C10,20.447 10.447,20 11,20 C11.553,20 12,20.447 12,21 L12,23 Z M15.92,33.38 C15.87,33.5 15.8,33.609 15.71,33.71 C15.61,33.8 15.5,33.87 15.38,33.92 C15.26,33.97 15.13,34 15,34 C14.87,34 14.74,33.97 14.62,33.92 C14.5,33.87 14.39,33.8 14.29,33.71 C14.2,33.609 14.13,33.5 14.08,33.38 C14.019,33.26 14,33.13 14,33 C14,32.74 14.109,32.479 14.29,32.29 C14.66,31.92 15.34,31.92 15.71,32.29 C15.89,32.479 16,32.74 16,33 C16,33.13 15.97,33.26 15.92,33.38 Z M16,29 C16,29.553 15.553,30 15,30 C14.447,30 14,29.553 14,29 L14,27 C14,26.447 14.447,26 15,26 C15.553,26 16,26.447 16,27 L16,29 Z M15,18 C14.447,18 14,17.553 14,17 L14,15 C14,14.447 14.447,14 15,14 C15.553,14 16,14.447 16,15 L16,17 C16,17.553 15.553,18 15,18 Z M16,23 C16,23.553 15.553,24 15,24 C14.447,24 14,23.553 14,23 L14,21 C14,20.447 14.447,20 15,20 C15.553,20 16,20.447 16,21 L16,23 Z M54,30 C54,29.447 54.447,29 55,29 C55.553,29 56,29.447 56,30 L56,32 C56,32.553 55.553,33 55,33 C54.447,33 54,32.553 54,32 L54,30 Z M55,41 C55.553,41 56,41.447 56,42 L56,44 C56,44.553 55.553,45 55,45 C54.447,45 54,44.553 54,44 L54,42 C54,41.447 54.447,41 55,41 Z M54,36 C54,35.447 54.447,35 55,35 C55.553,35 56,35.447 56,36 L56,38 C56,38.553 55.553,39 55,39 C54.447,39 54,38.553 54,38 L54,36 Z M50,30 C50,29.447 50.447,29 51,29 C51.553,29 52,29.447 52,30 L52,32 C52,32.553 51.553,33 51,33 C50.447,33 50,32.553 50,32 L50,30 Z M51,41 C51.553,41 52,41.447 52,42 L52,44 C52,44.553 51.553,45 51,45 C50.447,45 50,44.553 50,44 L50,42 C50,41.447 50.447,41 51,41 Z M50,36 C50,35.447 50.447,35 51,35 C51.553,35 52,35.447 52,36 L52,38 C52,38.553 51.553,39 51,39 C50.447,39 50,38.553 50,38 L50,36 Z M59,60 L51,60 L42.75,60 L40.25,60 L19.75,60 L17.25,60 L9,60 L1,60 C0.447,60 0,59.553 0,59 L0,55 L0,51 C0,50.447 0.447,50 1,50 L2,50 L2,6 C2,5.672 2.161,5.365 2.431,5.178 C2.699,4.991 3.043,4.947 3.352,5.063 L19.352,11.063 C19.358,11.066 19.362,11.072 19.369,11.074 C19.443,11.104 19.504,11.153 19.568,11.199 C19.61,11.229 19.66,11.25 19.696,11.285 C19.744,11.332 19.773,11.392 19.811,11.447 C19.846,11.498 19.889,11.542 19.913,11.598 C19.934,11.647 19.937,11.702 19.95,11.753 C19.97,11.829 19.994,11.902 19.996,11.98 C19.996,11.987 20,11.993 20,12 L20,29 C20,29.553 19.553,30 19,30 C18.447,30 18,29.553 18,29 L18,12.693 L4,7.443 L4,50 L9,50 C9.553,50 10,50.447 10,51 C10,51.553 9.553,52 9,52 L3,52 L2,52 L2,54 L9,54 C9.553,54 10,54.447 10,55 L10,58 L15.03,58 C15.017,57.901 15,57.803 15,57.7 L15,55.95 C13.31,55.704 12,54.214 12,52.4 L12,49.9 C12,49.843 12.023,49.794 12.033,49.739 C12.022,49.628 12,49.521 12,49.407 L12,47.393 C12,45.716 12.223,42.669 13.715,41.106 L14.007,40.8 L12.621,40.8 C11.728,40.8 11,40.06 11,39.15 L11,37.85 C11,36.94 11.728,36.2 12.621,36.2 L14.482,36.2 C15.341,36.2 16.031,36.89 16.084,37.751 L16.928,35.63 C18.047,32.817 20.66,31 23.586,31 L36.414,31 C39.34,31 41.953,32.817 43.072,35.63 L43.916,37.751 C43.969,36.89 44.658,36.2 45.517,36.2 L47.379,36.2 C48.273,36.2 49,36.94 49,37.85 L49,39.15 C49,40.06 48.273,40.8 47.379,40.8 L45.993,40.8 L46.285,41.106 C47.772,42.664 47.994,45.714 47.994,47.393 L47.994,49.407 C47.994,49.521 47.972,49.628 47.962,49.739 C47.971,49.794 47.994,49.843 47.994,49.9 L47.994,52.4 C47.994,54.212 46.688,55.701 45,55.949 L45,57.7 C45,57.803 44.983,57.901 44.97,58 L50,58 L50,53 C50,52.447 50.447,52 51,52 L58,52 L58,50 L51,50 C50.447,50 50,49.553 50,49 C50,48.447 50.447,48 51,48 L58,48 L58,27 L56,27 L51,27 C50.447,27 50,26.553 50,26 C50,25.447 50.447,25 51,25 L55,25 L55,24 L51,24 C50.447,24 50,23.553 50,23 C50,22.447 50.447,22 51,22 L56,22 C56.553,22 57,22.447 57,23 L57,25 L59,25 C59.553,25 60,25.447 60,26 L60,49 L60,59 C60,59.553 59.553,60 59,60 Z M4,56 L2,56 L2,58 L4,58 L4,56 Z M8,56 L6,56 L6,58 L8,58 L8,56 Z M40,57.7 C40,57.862 40.114,58 40.25,58 L42.75,58 C42.886,58 43,57.862 43,57.7 L43,56 L40,56 L40,57.7 Z M38.03,58 C38.017,57.901 38,57.803 38,57.7 L38,56 L22,56 L22,57.7 C22,57.803 21.983,57.901 21.97,58 L38.03,58 Z M17,57.7 C17,57.862 17.114,58 17.25,58 L19.75,58 C19.886,58 20,57.862 20,57.7 L20,56 L17,56 L17,57.7 Z M14.104,38.5 L14.104,38.2 L13,38.2 L13,38.8 L14.122,38.8 C14.111,38.702 14.104,38.602 14.104,38.5 Z M41.215,36.37 C40.399,34.322 38.516,33 36.414,33 L23.586,33 C21.484,33 19.601,34.322 18.785,36.37 L17.607,39.332 L18.243,39.665 C18.786,39.949 19.394,40.1 20,40.1 L40,40.1 C40.606,40.1 41.214,39.949 41.757,39.665 L42.393,39.332 L41.215,36.37 Z M47,38.8 L47,38.2 L45.897,38.2 L45.897,38.5 C45.897,38.602 45.89,38.702 45.878,38.8 L47,38.8 Z M45.994,47.393 C45.994,45.113 45.551,43.233 44.838,42.486 L43.452,41.035 L42.685,41.436 C41.857,41.87 40.929,42.1 40,42.1 L20,42.1 C19.071,42.1 18.143,41.87 17.315,41.436 L16.548,41.035 L15.162,42.486 C14.306,43.384 14,45.609 14,47.393 L14,49.407 C14,50.289 14.665,51.007 15.482,51.007 L44.512,51.007 C45.329,51.007 45.994,50.289 45.994,49.407 L45.994,47.393 Z M45.941,52.681 C45.504,52.886 45.022,53.007 44.512,53.007 L15.482,53.007 C14.972,53.007 14.49,52.886 14.053,52.681 C14.18,53.424 14.757,54 15.482,54 L16,54 L21,54 L39,54 L44,54 L44.512,54 C45.237,54 45.814,53.424 45.941,52.681 Z M54,54 L52,54 L52,58 L54,58 L54,54 Z M58,54 L56,54 L56,58 L58,58 L58,54 Z M42.655,49.049 L38.931,49.049 C38.097,49.049 37.338,48.579 36.949,47.823 C36.545,47.037 36.611,46.104 37.124,45.387 C37.542,44.803 38.107,44.467 38.727,44.394 L42.403,43.966 C43.018,43.893 43.651,44.094 44.125,44.515 C44.615,44.951 44.896,45.584 44.896,46.251 L44.896,46.749 C44.896,48.018 43.891,49.049 42.655,49.049 Z M42.897,46.251 C42.897,46.113 42.825,46.035 42.794,46.008 C42.752,45.97 42.706,45.951 42.656,45.951 C42.648,45.951 42.641,45.951 42.634,45.952 L38.959,46.38 C38.9,46.387 38.842,46.424 38.802,46.48 C38.639,46.707 38.705,46.864 38.727,46.909 C38.775,47.002 38.844,47.049 38.931,47.049 L42.655,47.049 C42.786,47.049 42.897,46.911 42.897,46.749 L42.897,46.251 Z M35.766,48.237 C35.554,49.259 34.63,50 33.568,50 L26.432,50 C25.37,50 24.446,49.259 24.234,48.238 L23.962,46.92 C23.865,46.45 23.984,45.969 24.288,45.597 C24.597,45.218 25.057,45 25.55,45 L34.45,45 C34.943,45 35.403,45.218 35.712,45.597 C36.016,45.969 36.135,46.45 36.038,46.919 L35.766,48.237 Z M26.021,47 L26.193,47.833 C26.213,47.928 26.315,48 26.432,48 L33.568,48 C33.685,48 33.787,47.928 33.807,47.832 L33.98,47 L26.021,47 Z M21.006,49.049 L17.407,49.049 C16.194,49.049 15.208,48.018 15.208,46.749 L15.208,46.251 C15.208,45.574 15.491,44.936 15.983,44.497 C16.445,44.087 17.06,43.894 17.659,43.966 L21.209,44.394 C21.823,44.469 22.381,44.81 22.74,45.33 C23.291,46.128 23.347,47.069 22.934,47.857 C22.543,48.603 21.822,49.049 21.006,49.049 Z M21.144,46.537 C21.06,46.417 21.014,46.385 20.969,46.38 L17.421,45.952 C17.417,45.951 17.413,45.951 17.406,45.951 C17.387,45.951 17.352,45.957 17.311,45.993 C17.28,46.021 17.208,46.102 17.208,46.251 L17.208,46.749 C17.208,46.921 17.313,47.049 17.407,47.049 L21.006,47.049 C21.068,47.049 21.121,47.009 21.163,46.929 C21.215,46.829 21.237,46.674 21.144,46.537 Z M42,18 C42,17.447 42.447,17 43,17 C43.553,17 44,17.447 44,18 L44,20 C44,20.553 43.553,21 43,21 C42.447,21 42,20.553 42,20 L42,18 Z M43.71,29.29 C43.8,29.39 43.87,29.49 43.92,29.62 C43.97,29.74 44,29.87 44,30 C44,30.27 43.899,30.52 43.71,30.71 C43.52,30.899 43.269,31 43,31 C42.87,31 42.74,30.97 42.62,30.92 C42.5,30.87 42.39,30.8 42.29,30.71 C42.1,30.52 42,30.27 42,30 C42,29.87 42.019,29.74 42.08,29.62 C42.13,29.49 42.2,29.39 42.29,29.29 C42.66,28.92 43.34,28.92 43.71,29.29 Z M42,24 C42,23.447 42.447,23 43,23 C43.553,23 44,23.447 44,24 L44,26 C44,26.553 43.553,27 43,27 C42.447,27 42,26.553 42,26 L42,24 Z M39,23 C39.553,23 40,23.447 40,24 L40,26 C40,26.553 39.553,27 39,27 C38.447,27 38,26.553 38,26 L38,24 C38,23.447 38.447,23 39,23 Z M38,18 C38,17.447 38.447,17 39,17 C39.553,17 40,17.447 40,18 L40,20 C40,20.553 39.553,21 39,21 C38.447,21 38,20.553 38,20 L38,18 Z M35,23 C35.553,23 36,23.447 36,24 L36,26 C36,26.553 35.553,27 35,27 C34.447,27 34,26.553 34,26 L34,24 C34,23.447 34.447,23 35,23 Z M34,18 C34,17.447 34.447,17 35,17 C35.553,17 36,17.447 36,18 L36,20 C36,20.553 35.553,21 35,21 C34.447,21 34,20.553 34,20 L34,18 Z M48,15 L48,33 C48,33.553 47.553,34 47,34 C46.447,34 46,33.553 46,33 L46,15 L32,15 L32,28 C32,28.553 31.553,29 31,29 C30.447,29 30,28.553 30,28 L30,15 C29.447,15 29,14.553 29,14 C29,13.447 29.447,13 30,13 L30.307,13 L31.939,8.648 C32.085,8.259 32.458,8 32.875,8 L36.117,8 L37.008,0.876 C37.07,0.376 37.496,0 38,0 L40,0 C40.504,0 40.93,0.376 40.992,0.876 L41.883,8 L45,8 C45.409,8 45.776,8.249 45.929,8.629 L47.677,13 L48,13 C48.553,13 49,13.447 49,14 C49,14.553 48.553,15 48,15 Z M39.117,2 L38.883,2 L38.133,8 L39.867,8 L39.117,2 Z M44.323,10 L41,10 L37,10 L33.568,10 L32.443,13 L45.523,13 L44.323,10 Z M27,29 C26.447,29 26,28.553 26,28 L26,27 C26,26.447 26.447,26 27,26 C27.553,26 28,26.447 28,27 L28,28 C28,28.553 27.553,29 27,29 Z M27,24 L24,24 L24,28 C24,28.553 23.553,29 23,29 C22.447,29 22,28.553 22,28 L22,23 C22,22.447 22.447,22 23,22 L27,22 C27.553,22 28,22.447 28,23 C28,23.553 27.553,24 27,24 Z" id="Shape"></path>
                </g>
            </g>
        </g>
    </g>
</svg>