<?xml version="1.0" encoding="UTF-8"?>
<svg width="60px" height="60px" viewBox="0 0 60 60" version="1.1" xmlns="http://www.w3.org/2000/svg" xmlns:xlink="http://www.w3.org/1999/xlink">
    <!-- Generator: sketchtool 48.1 (47250) - http://www.bohemiancoding.com/sketch -->
    <title>DE00E96C-41FB-41DF-A36F-B7F9D5A2C56E</title>
    <desc>Created with sketchtool.</desc>
    <defs></defs>
    <g id="landing-v4.3" stroke="none" stroke-width="1" fill="none" fill-rule="evenodd" transform="translate(-564.000000, -1052.000000)">
        <g id="expertise" transform="translate(220.000000, 927.000000)" fill="#7590D5" fill-rule="nonzero">
            <g id="solutions_travel" transform="translate(344.000000, 125.000000)">
                <path d="M43,30 L51,30 C51.552,30 52,30.448 52,31 C52,31.552 51.552,32 51,32 L43,32 C42.448,32 42,31.552 42,31 C42,30.448 42.448,30 43,30 Z M43,46 L51,46 C51.552,46 52,46.448 52,47 C52,47.552 51.552,48 51,48 L43,48 C42.448,48 42,47.552 42,47 C42,46.448 42.448,46 43,46 Z M43,38 L51,38 C51.552,38 52,38.448 52,39 C52,39.552 51.552,40 51,40 L43,40 C42.448,40 42,39.552 42,39 C42,38.448 42.448,38 43,38 Z M56,55.899 L56,57 C56,58.654 54.654,60 53,60 C51.346,60 50,58.654 50,57 L50,56 L42.999,56 C42.447,56 42,55.552 42,55 C42,54.448 42.447,54 42.999,54 L55,54 C56.654,54 58,52.654 58,51 L58,15 C58,13.346 56.654,12 55,12 L53.781,12 L52.728,16.213 C52.17,18.442 50.176,20 47.877,20 L45,20 L45,23 C45,23.552 44.552,24 44,24 L38,24 C37.448,24 37,23.552 37,23 L37,20 L34.123,20 C31.824,20 29.83,18.442 29.273,16.212 L28.219,12 L27,12 C25.346,12 24,13.346 24,15 L24,19 C24,19.552 23.552,20 23,20 C22.448,20 22,19.552 22,19 L22,15 C22,12.243 24.243,10 27,10 L29,10 L34,10 L34,2 L32,2 C31.448,2 31,1.552 31,1 C31,0.448 31.448,0 32,0 L50,0 C50.552,0 51,0.448 51,1 C51,1.552 50.552,2 50,2 L48,2 L48,10 L53,10 L55,10 C57.757,10 60,12.243 60,15 L60,51 C60,53.414 58.279,55.434 56,55.899 Z M52,57 C52,57.551 52.449,58 53,58 C53.551,58 54,57.551 54,57 L54,56 L52,56 L52,57 Z M39,22 L43,22 L43,20 L39,20 L39,22 Z M46,2 L36,2 L36,10 L46,10 L46,2 Z M30.281,12 L31.213,15.728 C31.547,17.065 32.744,18 34.123,18 L38,18 L44,18 L47.877,18 C49.256,18 50.453,17.065 50.787,15.728 L51.719,12 L30.281,12 Z M27,27 L27,30 L37,30 C38.654,30 40,31.346 40,33 L40,57 C40,58.654 38.654,60 37,60 L3,60 C1.346,60 0,58.654 0,57 L0,33 C0,31.346 1.346,30 3,30 L13,30 L13,27 C13,25.346 14.346,24 16,24 L24,24 C25.654,24 27,25.346 27,27 Z M36,58 L37,58 C37.551,58 38,57.551 38,57 L38,33 C38,32.449 37.551,32 37,32 L36,32 L36,58 Z M33,58 L34,58 L34,32 L33,32 L33,58 Z M4,32 L3,32 C2.449,32 2,32.449 2,33 L2,57 C2,57.551 2.449,58 3,58 L4,58 L4,32 Z M7,32 L6,32 L6,58 L7,58 L7,32 Z M9,32 L9,58 L31,58 L31,32 L25,32 L25,34 C25,34.552 24.552,35 24,35 L16,35 C15.448,35 15,34.552 15,34 L15,32 L9,32 Z M23,33 L23,32 L21,32 L21,33 L23,33 Z M19,33 L19,32 L17,32 L17,33 L19,33 Z M15,27 L15,30 L16,30 L24,30 L25,30 L25,27 C25,26.449 24.551,26 24,26 L16,26 C15.449,26 15,26.449 15,27 Z" id="Shape"></path>
            </g>
        </g>
    </g>
</svg>