<?xml version="1.0" encoding="UTF-8"?>
<svg width="60px" height="60px" viewBox="0 0 60 60" version="1.1" xmlns="http://www.w3.org/2000/svg" xmlns:xlink="http://www.w3.org/1999/xlink">
    <!-- Generator: Sketch 46.2 (44496) - http://www.bohemiancoding.com/sketch -->
    <title>solutions_travel</title>
    <desc>Created with Sketch.</desc>
    <defs></defs>
    <g id="mainpage" stroke="none" stroke-width="1" fill="none" fill-rule="evenodd">
        <g id="landing-v4.2" transform="translate(-562.000000, -1542.000000)" fill="#788C95">
            <g id="expertise" transform="translate(237.000000, 1432.000000)">
                <g id="solutions_travel" transform="translate(325.000000, 110.000000)">
                    <path d="M53.996,53.96 C53.996,53.975 54,53.988 54,54.002 C54,55.544 53.399,56.937 52.44,58.001 L59,58.001 C59.552,58.001 60,58.448 60,59 C60,59.553 59.552,60 59,60 L1,60 C0.448,60 0,59.553 0,59 C0,58.448 0.448,58.001 1,58.001 L7.561,58.001 C6.601,56.937 6,55.544 6,54.002 C6,53.968 6.01,53.936 6.01,53.902 C2.622,53.416 0,50.523 0,47.004 L0,42.179 C0,41.303 0.128,40.433 0.38,39.594 L0.945,37.709 C2.201,33.525 5.756,30.616 10,30.112 L10,29.008 L7,29.008 C6.448,29.008 6,28.561 6,28.009 L6,27.009 C6,26.456 6.448,26.009 7,26.009 C7.553,26.009 8,26.456 8,27.009 L9,27.009 L9,26.009 C9,24.355 10.346,23.01 12,23.01 L13,23.01 L13,22.01 C13,20.357 14.346,19.011 16,19.011 L24,19.011 C25.302,19.011 26.402,19.849 26.816,21.011 L30,21.011 C31.654,21.011 33,22.356 33,24.01 L33,27.009 L34,27.009 C34,26.456 34.448,26.009 35,26.009 C35.552,26.009 36,26.456 36,27.009 L36,28.009 C36,28.561 35.552,29.008 35,29.008 L32,29.008 L32,30.035 C34.348,30.169 36.608,31.046 38.422,32.556 L45.557,38.501 C46.785,39.524 48.265,40.203 49.839,40.464 L54.641,41.265 C57.746,41.782 60,44.442 60,47.589 C60,50.985 57.339,53.745 53.996,53.96 Z M48,58.001 C50.206,58.001 52,56.207 52,54.002 C52,51.796 50.206,50.003 48,50.003 C45.795,50.003 44,51.796 44,54.002 C44,56.207 45.795,58.001 48,58.001 Z M43.561,58.001 C42.601,56.937 42,55.544 42,54.002 L18,54.002 C18,55.544 17.399,56.937 16.44,58.001 L43.561,58.001 Z M12,58.001 C14.206,58.001 16,56.207 16,54.002 C16,51.796 14.206,50.003 12,50.003 C9.795,50.003 8,51.796 8,54.002 C8,56.207 9.795,58.001 12,58.001 Z M12,25.01 C11.449,25.01 11,25.458 11,26.009 L11,27.009 L17,27.009 L17,26.009 C17,25.458 16.552,25.01 16,25.01 L12,25.01 Z M25,22.01 C25,21.459 24.551,21.011 24,21.011 L16,21.011 C15.449,21.011 15,21.459 15,22.01 L15,23.01 L16,23.01 C17.655,23.01 19,24.355 19,26.009 L19,27.009 L25,27.009 L25,22.01 Z M12,29.008 L12,30.008 L30,30.008 L30,29.008 L12,29.008 Z M31,24.01 C31,23.458 30.552,23.01 30,23.01 L27,23.01 L27,27.009 L31,27.009 L31,24.01 Z M39.438,36.007 L30,36.007 L30,40.006 L44.239,40.006 L39.438,36.007 Z M55,46.004 L57.705,46.004 C57.159,44.58 55.899,43.501 54.312,43.237 L49.511,42.436 C48.935,42.341 48.376,42.186 47.826,42.002 C47.82,42.002 47.815,42.005 47.809,42.005 L6.972,42.005 C6.232,42.005 5.554,41.664 5.112,41.071 C4.671,40.477 4.539,39.73 4.752,39.021 L5.139,37.729 C5.807,35.503 7.818,34.007 10.143,34.007 L37.018,34.007 C35.422,32.723 33.43,32.008 31.38,32.008 L11.298,32.008 C7.378,32.008 3.987,34.53 2.861,38.283 L2.296,40.168 C2.099,40.821 2,41.498 2,42.179 L2,47.004 C2,49.55 3.922,51.635 6.388,51.94 C7.233,49.65 9.419,48.003 12,48.003 C14.604,48.003 16.803,49.68 17.632,52.002 L42.369,52.002 C43.197,49.68 45.396,48.003 48,48.003 C50.603,48.003 52.801,49.678 53.63,51.998 C55.902,51.975 57.747,50.225 57.958,48.003 L55,48.003 C54.448,48.003 54,47.556 54,47.004 C54,46.451 54.448,46.004 55,46.004 Z M28,40.006 L28,36.007 L18,36.007 L18,40.006 L28,40.006 Z M16,40.006 L16,36.007 L10.143,36.007 C8.731,36.007 7.461,36.951 7.056,38.303 L6.668,39.595 C6.628,39.729 6.682,39.83 6.717,39.878 C6.753,39.925 6.833,40.006 6.972,40.006 L16,40.006 Z M33,46.004 L31,46.004 C30.448,46.004 30,45.557 30,45.004 C30,44.452 30.448,44.005 31,44.005 L33,44.005 C33.552,44.005 34,44.452 34,45.004 C34,45.557 33.552,46.004 33,46.004 Z M12,52.002 C13.103,52.002 14,52.9 14,54.002 C14,55.104 13.103,56.001 12,56.001 C10.897,56.001 10,55.104 10,54.002 C10,52.9 10.897,52.002 12,52.002 Z M48,52.002 C49.103,52.002 50,52.9 50,54.002 C50,55.104 49.103,56.001 48,56.001 C46.897,56.001 46,55.104 46,54.002 C46,52.9 46.897,52.002 48,52.002 Z M55.121,26.009 L44.879,26.009 C42.334,26.009 40.264,23.946 40.264,21.411 C40.264,19.708 41.208,18.168 42.676,17.373 C42.75,14.405 45.197,12.013 48.193,12.013 C50.098,12.013 51.857,13.011 52.855,14.58 C53.194,14.469 53.55,14.413 53.916,14.413 C55.642,14.413 57.073,15.698 57.296,17.358 C58.78,18.148 59.737,19.7 59.737,21.411 C59.737,23.946 57.666,26.009 55.121,26.009 Z M55.987,18.961 C55.982,18.96 55.978,18.956 55.973,18.954 C55.699,18.861 55.413,18.811 55.121,18.811 C54.569,18.811 54.121,18.364 54.121,17.811 C54.121,17.326 54.473,16.941 54.931,16.85 C54.675,16.583 54.317,16.412 53.916,16.412 C53.595,16.412 53.292,16.518 53.04,16.718 L53.04,16.718 C52.887,16.84 52.756,16.992 52.665,17.165 C52.486,17.506 52.139,17.7 51.779,17.7 C51.622,17.7 51.463,17.663 51.315,17.585 C50.826,17.328 50.638,16.724 50.895,16.236 C50.986,16.062 51.102,15.904 51.222,15.748 C50.598,14.693 49.446,14.013 48.193,14.013 C46.49,14.013 45.067,15.222 44.744,16.823 C44.789,16.821 44.834,16.812 44.879,16.812 C45.431,16.812 45.879,17.259 45.879,17.811 C45.879,18.364 45.431,18.811 44.879,18.811 C44.591,18.811 44.308,18.86 44.036,18.952 C44.033,18.953 44.031,18.955 44.027,18.957 C42.973,19.318 42.264,20.304 42.264,21.411 C42.264,22.844 43.437,24.01 44.879,24.01 L55.121,24.01 C56.563,24.01 57.737,22.844 57.737,21.411 C57.737,20.311 57.034,19.327 55.987,18.961 Z M43,10.014 L42,10.014 C41.448,10.014 41,9.566 41,9.014 C41,8.461 41.448,8.014 42,8.014 L43,8.014 C43.552,8.014 44,8.461 44,9.014 C44,9.566 43.552,10.014 43,10.014 Z M40.657,4.773 C40.462,4.968 40.206,5.066 39.95,5.066 C39.694,5.066 39.439,4.968 39.243,4.774 C38.852,4.383 38.852,3.751 39.242,3.359 L39.95,2.651 C40.339,2.261 40.972,2.261 41.364,2.65 C41.755,3.041 41.755,3.674 41.364,4.065 L40.657,4.773 Z M40.657,13.255 L41.364,13.963 C41.755,14.354 41.755,14.987 41.364,15.377 C41.168,15.572 40.913,15.669 40.657,15.669 C40.401,15.669 40.145,15.572 39.95,15.376 L39.242,14.669 C38.852,14.277 38.852,13.644 39.243,13.254 C39.634,12.865 40.267,12.864 40.657,13.255 Z M36,16.012 L36,17.012 C36,17.564 35.552,18.011 35,18.011 C34.448,18.011 34,17.564 34,17.012 L34,16.012 C34,15.459 34.448,15.012 35,15.012 C35.552,15.012 36,15.459 36,16.012 Z M35,14.013 C32.243,14.013 30,11.77 30,9.014 C30,6.258 32.243,4.015 35,4.015 C37.757,4.015 40,6.258 40,9.014 C40,11.77 37.757,14.013 35,14.013 Z M35,6.015 C33.346,6.015 32,7.36 32,9.014 C32,10.668 33.346,12.013 35,12.013 C36.655,12.013 38,10.668 38,9.014 C38,7.36 36.655,6.015 35,6.015 Z M35,3.015 C34.448,3.015 34,2.568 34,2.016 L34,1.016 C34,0.463 34.448,0.016 35,0.016 C35.552,0.016 36,0.463 36,1.016 L36,2.016 C36,2.568 35.552,3.015 35,3.015 Z M30.051,5.066 C29.794,5.066 29.538,4.968 29.343,4.773 L28.636,4.065 C28.246,3.674 28.246,3.041 28.637,2.65 C29.028,2.262 29.661,2.261 30.051,2.651 L30.758,3.359 C31.148,3.751 31.148,4.383 30.757,4.774 C30.562,4.968 30.306,5.066 30.051,5.066 Z M30.757,13.254 C31.148,13.644 31.148,14.277 30.758,14.669 L30.051,15.376 C29.856,15.572 29.6,15.669 29.344,15.669 C29.088,15.669 28.832,15.572 28.637,15.377 C28.246,14.987 28.246,14.354 28.636,13.963 L29.343,13.255 C29.733,12.864 30.365,12.864 30.757,13.254 Z M29,9.014 C29,9.566 28.552,10.014 28,10.014 L27,10.014 C26.448,10.014 26,9.566 26,9.014 C26,8.461 26.448,8.014 27,8.014 L28,8.014 C28.552,8.014 29,8.461 29,9.014 Z M15.121,16.012 L4.879,16.012 C2.334,16.012 0.264,13.949 0.264,11.414 C0.264,9.702 1.221,8.151 2.704,7.361 C2.928,5.7 4.358,4.415 6.084,4.415 C6.451,4.415 6.807,4.472 7.145,4.583 C8.143,3.013 9.903,2.016 11.808,2.016 C14.804,2.016 17.25,4.408 17.325,7.376 C18.793,8.17 19.736,9.711 19.736,11.414 C19.736,13.949 17.666,16.012 15.121,16.012 Z M15.973,8.959 C15.97,8.958 15.967,8.956 15.964,8.954 C15.692,8.863 15.41,8.814 15.121,8.814 C14.569,8.814 14.121,8.367 14.121,7.814 C14.121,7.261 14.569,6.814 15.121,6.814 C15.167,6.814 15.211,6.824 15.256,6.825 C14.934,5.225 13.511,4.015 11.808,4.015 C10.554,4.015 9.402,4.695 8.778,5.751 C8.898,5.906 9.015,6.065 9.106,6.238 C9.363,6.726 9.175,7.331 8.686,7.587 C8.537,7.666 8.378,7.703 8.222,7.703 C7.862,7.703 7.514,7.508 7.335,7.168 C7.244,6.995 7.113,6.842 6.959,6.72 C6.707,6.52 6.404,6.415 6.084,6.415 C5.684,6.415 5.326,6.585 5.069,6.853 C5.527,6.944 5.879,7.329 5.879,7.814 C5.879,8.367 5.431,8.814 4.879,8.814 C4.587,8.814 4.301,8.863 4.027,8.957 C4.022,8.958 4.018,8.962 4.013,8.964 C2.967,9.329 2.264,10.313 2.264,11.414 C2.264,12.847 3.437,14.013 4.879,14.013 L15.121,14.013 C16.563,14.013 17.737,12.847 17.737,11.414 C17.737,10.306 17.028,9.32 15.973,8.959 Z" id="Shape"></path>
                </g>
            </g>
        </g>
    </g>
</svg>