<?xml version="1.0" encoding="UTF-8"?>
<svg width="60px" height="60px" viewBox="0 0 60 60" version="1.1" xmlns="http://www.w3.org/2000/svg" xmlns:xlink="http://www.w3.org/1999/xlink">
    <!-- Generator: Sketch 51.2 (57519) - http://www.bohemiancoding.com/sketch -->
    <title>healthcare</title>
    <desc>Created with Sketch.</desc>
    <defs></defs>
    <g id="icons" stroke="none" stroke-width="1" fill="none" fill-rule="evenodd">
        <g id="icons-copy-3" transform="translate(-205.000000, -32.000000)">
            <g id="healthcare" transform="translate(205.000000, 32.000000)">
                <rect id="Rectangle" x="0" y="0" width="60" height="60"></rect>
                <g id="001-cardiogram" transform="translate(5.000000, 3.000000)" fill="#7590D5" fill-rule="nonzero" stroke="#7590D5" stroke-width="0.4">
                    <path d="M26.6666667,46.6666667 L14.1666667,46.6666667 C13.7064583,46.6666667 13.3333333,47.0397917 13.3333333,47.5 C13.3333333,47.9602083 13.7064583,48.3333333 14.1666667,48.3333333 L26.6666667,48.3333333 C27.126875,48.3333333 27.5,47.9602083 27.5,47.5 C27.5,47.0397917 27.126875,46.6666667 26.6666667,46.6666667 Z" id="Shape"></path>
                    <path d="M44.6583333,0 L5.34166667,0 C2.3934375,0.00458333333 0.00458333333,2.3934375 0,5.34166667 L0,47.9916667 C0.00458333333,50.9398958 2.3934375,53.32875 5.34166667,53.3333333 L44.6583333,53.3333333 C47.6065625,53.32875 49.9954167,50.9398958 50,47.9916667 L50,5.34166667 C49.9954167,2.3934375 47.6065625,0.00458333333 44.6583333,0 Z M48.3333333,47.9916667 C48.32875,50.019375 46.6860417,51.6620833 44.6583333,51.6666667 L5.34166667,51.6666667 C3.31395833,51.6620833 1.67125,50.019375 1.66666667,47.9916667 L1.66666667,5.34166667 C1.67125,3.31395833 3.31395833,1.67125 5.34166667,1.66666667 L44.6583333,1.66666667 C46.6860417,1.67125 48.32875,3.31395833 48.3333333,5.34166667 L48.3333333,47.9916667 Z" id="Shape"></path>
                    <path d="M42.5,6.66666667 L7.5,6.66666667 C7.03979167,6.66666667 6.66666667,7.03979167 6.66666667,7.5 L6.66666667,42.5 C6.66666667,42.9602083 7.03979167,43.3333333 7.5,43.3333333 L42.5,43.3333333 C42.9602083,43.3333333 43.3333333,42.9602083 43.3333333,42.5 L43.3333333,7.5 C43.3333333,7.03979167 42.9602083,6.66666667 42.5,6.66666667 Z M41.6666667,41.6666667 L8.33333333,41.6666667 L8.33333333,8.33333333 L41.6666667,8.33333333 L41.6666667,41.6666667 Z" id="Shape"></path>
                    <rect id="Rectangle-path" x="10" y="32" width="1.66666667" height="1.66666667"></rect>
                    <rect id="Rectangle-path" x="38.3333333" y="32" width="1.66666667" height="1.66666667"></rect>
                    <path d="M9.16666667,45 C7.7859375,45 6.66666667,46.1192708 6.66666667,47.5 C6.66666667,48.8807292 7.7859375,50 9.16666667,50 C10.5473958,50 11.6666667,48.8807292 11.6666667,47.5 C11.6666667,46.1192708 10.5473958,45 9.16666667,45 Z M9.16666667,48.3333333 C8.70645833,48.3333333 8.33333333,47.9602083 8.33333333,47.5 C8.33333333,47.0397917 8.70645833,46.6666667 9.16666667,46.6666667 C9.626875,46.6666667 10,47.0397917 10,47.5 C10,47.9602083 9.626875,48.3333333 9.16666667,48.3333333 Z" id="Shape"></path>
                    <path d="M35.9666667,32 L30.9666667,32 C30.66125,31.9991667 30.3798958,32.1654167 30.2333333,32.4333333 L29.3,34.1583333 L27.45,29.2083333 C27.3279167,28.8816667 27.0154167,28.6655208 26.6666667,28.6666667 C26.3079167,28.6764583 25.995625,28.9147917 25.8916667,29.2583333 L24.425,34.1583333 L22.5,22.6916667 C22.4303125,22.2873958 22.0767708,21.9940625 21.6666667,22 C21.274375,21.9885417 20.9273958,22.2523958 20.8333333,22.6333333 L18.5166667,32 L14.1666667,32 C13.7064583,32 13.3333333,32.373125 13.3333333,32.8333333 C13.3333333,33.2935417 13.7064583,33.6666667 14.1666667,33.6666667 L19.1666667,33.6666667 C19.5589583,33.678125 19.9059375,33.4142708 20,33.0333333 L21.525,26.925 L23.3333333,37.9666667 C23.3953125,38.3530208 23.7177083,38.6441667 24.1083333,38.6666667 L24.1666667,38.6666667 C24.5469792,38.6829167 24.89,38.439375 25,38.075 L26.7916667,32.1083333 L28.4583333,36.4583333 C28.5723958,36.7658333 28.8561458,36.9778125 29.1833333,37 C29.5257292,37.0392708 29.8569792,36.86375 30.0166667,36.5583333 L31.4583333,33.6666667 L35.9666667,33.6666667 C36.426875,33.6666667 36.8,33.2935417 36.8,32.8333333 C36.8,32.373125 36.426875,32 35.9666667,32 Z" id="Shape"></path>
                    <rect id="Rectangle-path" x="23.3333333" y="10" width="1.66666667" height="1.66666667"></rect>
                    <rect id="Rectangle-path" x="20" y="10" width="1.66666667" height="1.66666667"></rect>
                    <rect id="Rectangle-path" x="16.6666667" y="10" width="1.66666667" height="1.66666667"></rect>
                    <rect id="Rectangle-path" x="13.3333333" y="10" width="1.66666667" height="1.66666667"></rect>
                    <rect id="Rectangle-path" x="10" y="10" width="1.66666667" height="1.66666667"></rect>
                    <rect id="Rectangle-path" x="20" y="13.3333333" width="1.66666667" height="1.66666667"></rect>
                    <rect id="Rectangle-path" x="16.6666667" y="13.3333333" width="1.66666667" height="1.66666667"></rect>
                    <rect id="Rectangle-path" x="13.3333333" y="13.3333333" width="1.66666667" height="1.66666667"></rect>
                    <rect id="Rectangle-path" x="10" y="13.3333333" width="1.66666667" height="1.66666667"></rect>
                </g>
                <path d="M39.316,25.288 C38.682,25.806 38.027,26.341 37.841,26.628 C37.657,26.912 37.34,27.083 37.002,27.083 C36.654,27.081 36.338,26.905 36.157,26.616 C35.977,26.332 35.322,25.798 34.69,25.282 C32.805,23.744 30.224,21.638 30.013,18.706 C29.861,16.595 31.203,14.702 33.205,14.206 C34.646,13.847 36.032,14.314 37.024,15.418 C38.217,14.127 39.727,13.914 40.902,14.221 C42.839,14.73 44.11,16.568 43.992,18.689 C43.832,21.597 41.222,23.73 39.316,25.288 Z M40.3879023,16.155856 C39.4073778,15.9120119 38.5007421,16.4325252 37.8976497,17.5757788 C37.7289036,17.8955897 37.3814265,18.0962921 37.0019975,18.0962921 C36.591615,18.0887892 36.2441379,17.8693296 36.0883723,17.5363886 C35.6500319,16.5994646 34.9620672,16.0930192 34.1612722,16.0930192 C34.0075036,16.0930192 33.851738,16.1117765 33.6919784,16.1483531 C32.7873397,16.3584341 31.9216425,17.2043855 32.0145027,18.4142273 C32.1642773,20.3584149 34.3559792,22.0371876 35.9555721,23.2639109 C36.3479816,23.5649645 36.7024482,23.8369445 37.0059915,24.0929808 C37.3075377,23.8397581 37.6590088,23.5696539 38.0474243,23.2714138 C39.6639917,22.0306226 41.876662,20.3321548 41.9884937,18.4311088 C42.0623825,17.1584303 41.2106642,16.359372 40.3879023,16.155856 Z" id="Combined-Shape" fill="#7590D5"></path>
            </g>
        </g>
    </g>
</svg>