<?xml version="1.0" encoding="UTF-8"?>
<svg width="60px" height="60px" viewBox="0 0 60 60" version="1.1" xmlns="http://www.w3.org/2000/svg" xmlns:xlink="http://www.w3.org/1999/xlink">
    <!-- Generator: Sketch 46.2 (44496) - http://www.bohemiancoding.com/sketch -->
    <title>solutions_booking</title>
    <desc>Created with Sketch.</desc>
    <defs></defs>
    <g id="mainpage" stroke="none" stroke-width="1" fill="none" fill-rule="evenodd">
        <g id="landing-v4.2" transform="translate(-818.000000, -1542.000000)" fill="#788C95">
            <g id="expertise" transform="translate(237.000000, 1432.000000)">
                <g id="solutions_booking" transform="translate(581.000000, 110.000000)">
                    <path d="M53,44 C52.448,44 52,43.553 52,43 C52,42.447 52.448,42 53,42 C54.241,42 55.25,43.01 55.25,44.25 L55.25,45.75 C55.25,46.99 54.241,48 53,48 C52.448,48 52,47.553 52,47 C52,46.447 52.448,46 53,46 C53.138,46 53.25,45.888 53.25,45.75 L53.25,44.25 C53.25,44.112 53.138,44 53,44 Z M6,32 L32,32 C33.103,32 34,32.898 34,34 L34,38 C34,39.102 33.103,40 32,40 L6,40 C4.897,40 4,39.102 4,38 L4,34 C4,32.898 4.897,32 6,32 Z M27,38 L32.002,38 L32,34 L27,34 L27,38 Z M20,38 L25,38 L25,34 L20,34 L20,38 Z M13,38 L18,38 L18,34 L13,34 L13,38 Z M6,38 L11,38 L11,34 L6,34 L6,38 Z M16.71,25.71 C16.61,25.8 16.5,25.87 16.38,25.92 C16.26,25.97 16.13,26 16,26 C15.87,26 15.74,25.97 15.62,25.92 C15.5,25.87 15.39,25.8 15.29,25.71 C15.1,25.52 15,25.27 15,25 C15,24.74 15.11,24.48 15.29,24.29 C15.66,23.92 16.33,23.92 16.71,24.29 C16.89,24.48 17,24.74 17,25 C17,25.27 16.9,25.52 16.71,25.71 Z M15.29,18.29 C15.66,17.92 16.34,17.92 16.71,18.29 C16.8,18.39 16.87,18.5 16.92,18.62 C16.98,18.74 17,18.87 17,19 C17,19.13 16.98,19.26 16.92,19.38 C16.87,19.5 16.8,19.609 16.71,19.71 C16.61,19.8 16.5,19.87 16.38,19.92 C16.26,19.97 16.13,20 16,20 C15.73,20 15.48,19.899 15.29,19.71 C15.2,19.609 15.13,19.5 15.08,19.38 C15.03,19.26 15,19.13 15,19 C15,18.87 15.03,18.74 15.08,18.62 C15.13,18.49 15.2,18.39 15.29,18.29 Z M14.92,22.38 C14.87,22.5 14.8,22.609 14.71,22.71 C14.52,22.899 14.27,23 14,23 C13.73,23 13.48,22.899 13.29,22.71 C13.2,22.609 13.13,22.5 13.08,22.38 C13.02,22.26 13,22.13 13,22 C13,21.87 13.03,21.74 13.08,21.62 C13.13,21.5 13.2,21.39 13.29,21.29 C13.39,21.2 13.5,21.13 13.62,21.08 C13.86,20.979 14.14,20.979 14.38,21.08 C14.5,21.13 14.61,21.2 14.71,21.29 C14.8,21.39 14.87,21.5 14.92,21.62 C14.97,21.74 15,21.87 15,22 C15,22.13 14.97,22.26 14.92,22.38 Z M13.29,15.29 C13.34,15.25 13.39,15.2 13.45,15.17 C13.5,15.13 13.56,15.1 13.62,15.08 C13.68,15.05 13.74,15.03 13.8,15.019 C14.13,14.95 14.47,15.06 14.71,15.29 C14.8,15.39 14.87,15.49 14.92,15.62 C14.98,15.74 15,15.87 15,16 C15,16.13 14.98,16.26 14.92,16.38 C14.87,16.5 14.8,16.609 14.71,16.71 C14.61,16.8 14.5,16.87 14.38,16.92 C14.26,16.97 14.13,17 14,17 C13.73,17 13.48,16.899 13.29,16.71 C13.2,16.609 13.13,16.5 13.08,16.38 C13.03,16.26 13,16.13 13,16 C13,15.87 13.03,15.74 13.08,15.62 C13.13,15.49 13.2,15.39 13.29,15.29 Z M12.38,24.08 C12.5,24.13 12.61,24.2 12.71,24.29 C12.89,24.48 13,24.74 13,25 C13,25.27 12.9,25.52 12.71,25.71 C12.52,25.899 12.27,26 12,26 C11.73,26 11.48,25.899 11.29,25.71 C11.1,25.52 11,25.27 11,25 C11,24.74 11.11,24.48 11.29,24.29 C11.57,24.01 12.01,23.93 12.38,24.08 Z M11.29,18.29 C11.66,17.92 12.34,17.92 12.71,18.29 C12.8,18.39 12.87,18.5 12.92,18.62 C12.97,18.74 13,18.87 13,19 C13,19.13 12.97,19.26 12.92,19.38 C12.87,19.5 12.8,19.609 12.71,19.71 C12.52,19.899 12.27,20 12,20 C11.73,20 11.48,19.899 11.29,19.71 C11.2,19.609 11.13,19.5 11.079,19.38 C11.03,19.26 11,19.13 11,19 C11,18.87 11.03,18.74 11.079,18.62 C11.13,18.49 11.2,18.39 11.29,18.29 Z M10.92,22.38 C10.87,22.5 10.8,22.609 10.71,22.71 C10.52,22.899 10.27,23 10,23 C9.73,23 9.48,22.899 9.29,22.71 C9.2,22.609 9.13,22.5 9.08,22.38 C9.02,22.26 9,22.13 9,22 C9,21.87 9.03,21.74 9.08,21.62 C9.13,21.5 9.2,21.39 9.29,21.29 C9.39,21.2 9.5,21.13 9.62,21.08 C9.86,20.979 10.14,20.979 10.38,21.08 C10.51,21.13 10.61,21.2 10.71,21.29 C10.8,21.39 10.87,21.5 10.92,21.62 C10.97,21.74 11,21.87 11,22 C11,22.13 10.97,22.26 10.92,22.38 Z M9.29,15.29 C9.39,15.2 9.5,15.13 9.62,15.08 C9.99,14.92 10.43,15.01 10.71,15.29 C10.8,15.39 10.87,15.49 10.92,15.62 C10.97,15.74 11,15.87 11,16 C11,16.13 10.97,16.26 10.92,16.38 C10.87,16.5 10.8,16.609 10.71,16.71 C10.52,16.899 10.27,17 10,17 C9.73,17 9.48,16.899 9.29,16.71 C9.2,16.609 9.13,16.5 9.08,16.38 C9.03,16.26 9,16.13 9,16 C9,15.87 9.03,15.74 9.08,15.62 C9.13,15.49 9.2,15.39 9.29,15.29 Z M7.62,24.08 C7.98,23.93 8.43,24.01 8.71,24.29 C8.89,24.48 9,24.74 9,25 C9,25.27 8.9,25.52 8.71,25.71 C8.52,25.899 8.27,26 8,26 C7.73,26 7.48,25.899 7.29,25.71 C7.1,25.52 7,25.27 7,25 C7,24.74 7.11,24.48 7.29,24.29 C7.389,24.2 7.5,24.13 7.62,24.08 Z M7.29,18.29 C7.389,18.2 7.5,18.13 7.62,18.08 C7.99,17.93 8.43,18.019 8.71,18.29 C8.8,18.39 8.87,18.49 8.92,18.62 C8.97,18.74 9,18.87 9,19 C9,19.13 8.97,19.26 8.92,19.38 C8.87,19.5 8.8,19.609 8.71,19.71 C8.52,19.899 8.27,20 8,20 C7.73,20 7.48,19.899 7.29,19.71 C7.2,19.609 7.13,19.5 7.08,19.38 C7.03,19.26 7,19.13 7,19 C7,18.87 7.03,18.74 7.08,18.62 C7.13,18.5 7.2,18.39 7.29,18.29 Z M6.92,22.38 C6.87,22.5 6.8,22.609 6.71,22.71 C6.52,22.899 6.27,23 6,23 C5.73,23 5.48,22.899 5.29,22.71 C5.2,22.609 5.13,22.5 5.08,22.38 C5.03,22.26 5,22.13 5,22 C5,21.87 5.03,21.74 5.08,21.62 C5.13,21.5 5.2,21.39 5.29,21.29 C5.39,21.2 5.5,21.13 5.619,21.08 C5.98,20.93 6.43,21.01 6.71,21.29 C6.8,21.39 6.87,21.5 6.92,21.62 C6.97,21.74 7,21.87 7,22 C7,22.13 6.97,22.26 6.92,22.38 Z M5.29,15.29 C5.53,15.06 5.87,14.95 6.2,15.019 C6.26,15.03 6.32,15.05 6.38,15.08 C6.44,15.1 6.5,15.13 6.55,15.17 C6.61,15.2 6.66,15.25 6.71,15.29 C6.8,15.39 6.87,15.49 6.92,15.62 C6.97,15.74 7,15.87 7,16 C7,16.13 6.97,16.26 6.92,16.38 C6.87,16.5 6.8,16.609 6.71,16.71 C6.52,16.899 6.27,17 6,17 C5.87,17 5.74,16.97 5.619,16.92 C5.5,16.87 5.39,16.8 5.29,16.71 C5.2,16.609 5.13,16.5 5.08,16.38 C5.03,16.26 5,16.13 5,16 C5,15.87 5.03,15.74 5.08,15.62 C5.13,15.49 5.2,15.39 5.29,15.29 Z M4.71,24.29 C4.89,24.48 5,24.74 5,25 C5,25.27 4.9,25.52 4.71,25.71 C4.61,25.8 4.5,25.87 4.38,25.92 C4.26,25.97 4.13,26 4,26 C3.87,26 3.74,25.97 3.62,25.92 C3.5,25.87 3.39,25.8 3.29,25.71 C3.1,25.52 3,25.27 3,25 C3,24.74 3.11,24.48 3.29,24.29 C3.66,23.92 4.34,23.92 4.71,24.29 Z M3.08,18.62 C3.13,18.49 3.2,18.39 3.29,18.29 C3.66,17.92 4.34,17.92 4.71,18.29 C4.8,18.39 4.87,18.49 4.92,18.62 C4.97,18.74 5,18.87 5,19 C5,19.13 4.97,19.26 4.92,19.38 C4.87,19.5 4.8,19.609 4.71,19.71 C4.61,19.8 4.5,19.87 4.38,19.92 C4.26,19.97 4.13,20 4,20 C3.73,20 3.48,19.899 3.29,19.71 C3.2,19.609 3.13,19.5 3.08,19.38 C3.03,19.26 3,19.13 3,19 C3,18.87 3.03,18.74 3.08,18.62 Z M54.597,51.873 C54.854,52.547 55,53.261 55,54 C55,55.542 54.399,56.936 53.439,58 L59,58 C59.552,58 60,58.447 60,59 C60,59.553 59.552,60 59,60 L19,60 L1,60 C0.448,60 0,59.553 0,59 L0,20 C0,14.486 4.486,10 10,10 C15.514,10 20,14.486 20,20 L20,25 C20,25.553 19.552,26 19,26 C18.448,26 18,25.553 18,25 L18,23 C17.73,23 17.48,22.899 17.29,22.71 C17.1,22.52 17,22.27 17,22 C17,21.87 17.03,21.74 17.08,21.62 C17.13,21.5 17.2,21.39 17.29,21.29 C17.39,21.2 17.5,21.13 17.62,21.08 C17.74,21.03 17.87,21.005 18,21.005 L18,20 C18,16.602 15.867,13.7 12.873,12.542 C12.947,12.686 13,12.84 13,13 C13,13.13 12.98,13.26 12.92,13.38 C12.87,13.5 12.8,13.609 12.71,13.71 C12.52,13.899 12.27,14 12,14 C11.73,14 11.48,13.899 11.29,13.71 C11.1,13.519 11,13.269 11,13 C11,12.74 11.11,12.479 11.29,12.29 C11.353,12.227 11.434,12.189 11.512,12.148 C11.022,12.054 10.517,12 10,12 C9.483,12 8.978,12.054 8.487,12.148 C8.566,12.19 8.647,12.227 8.71,12.29 C8.89,12.479 9,12.74 9,13 C9,13.13 8.98,13.26 8.92,13.38 C8.87,13.5 8.8,13.609 8.71,13.71 C8.61,13.8 8.5,13.87 8.38,13.92 C8.26,13.97 8.13,14 8,14 C7.73,14 7.48,13.899 7.29,13.71 C7.1,13.519 7,13.269 7,13 C7,12.84 7.053,12.686 7.127,12.543 C4.133,13.7 2,16.603 2,20 L2,21.014 C2.262,21.013 2.522,21.102 2.71,21.29 C2.8,21.39 2.87,21.5 2.92,21.62 C2.98,21.74 3,21.87 3,22 C3,22.13 2.98,22.26 2.92,22.38 C2.87,22.5 2.8,22.609 2.71,22.71 C2.52,22.899 2.27,23 2,23 L2,58 L5.561,58 C4.601,56.936 4,55.542 4,54 C4,53.234 4.158,52.496 4.433,51.802 C4.177,51.62 4,51.337 4,51 C4,50.447 4.448,50 5,50 L53.343,50 C55.911,50 58,47.911 58,45.343 C58,44.1 57.516,42.931 56.636,42.051 L54.72,40.135 C54.674,40.089 54.625,40.046 54.579,40 L42,40 C38.692,40 36,37.309 36,34 C36,32.898 36.897,32 38,32 L41.898,32 C38.21,30.686 34.284,30 30.253,30 L5,30 C4.448,30 4,29.553 4,29 C4,28.447 4.448,28 5,28 L30.253,28 C40.03,28 49.221,31.808 56.134,38.721 L58.05,40.637 C59.308,41.894 60,43.565 60,45.343 C60,48.584 57.669,51.284 54.597,51.873 Z M13.454,52 L10,52 L6.546,52 C6.194,52.606 6,53.286 6,54 C6,56.206 7.794,58 10,58 C12.206,58 14,56.206 14,54 C14,53.286 13.806,52.606 13.454,52 Z M14.986,57.278 C14.818,57.53 14.641,57.776 14.439,58 L15.561,58 C15.354,57.771 15.155,57.537 14.986,57.278 Z M23.454,52 L20,52 L16.546,52 C16.193,52.606 16,53.286 16,54 C16,56.206 17.794,58 20,58 C22.206,58 24,56.206 24,54 C24,53.286 23.806,52.606 23.454,52 Z M25.651,52 C25.877,52.636 26,53.308 26,54 L33,54 C33,53.308 33.123,52.636 33.348,52 L25.651,52 Z M33.367,56 L25.633,56 C25.362,56.743 24.96,57.423 24.439,58 L34.561,58 C34.04,57.423 33.638,56.743 33.367,56 Z M42.454,52 L39,52 L35.546,52 C35.194,52.606 35,53.286 35,54 C35,56.206 36.795,58 39,58 C41.206,58 43,56.206 43,54 C43,53.286 42.806,52.606 42.454,52 Z M43.986,57.278 C43.818,57.53 43.641,57.776 43.439,58 L44.561,58 C44.354,57.771 44.155,57.537 43.986,57.278 Z M52.454,52 L49,52 L45.546,52 C45.194,52.606 45,53.286 45,54 C45,56.206 46.794,58 49,58 C51.206,58 53,56.206 53,54 C53,53.286 52.806,52.606 52.454,52 Z M46.423,33.995 C46.415,33.996 46.408,34 46.4,34 L38,34 C38,36.206 39.794,38 42,38 L52.377,38 C50.52,36.45 48.526,35.11 46.423,33.995 Z M51,54 C51,55.103 50.103,56 49,56 C47.897,56 47,55.103 47,54 C47,52.897 47.897,52 49,52 C50.103,52 51,52.897 51,54 Z M41,54 C41,55.103 40.103,56 39,56 C37.897,56 37,55.103 37,54 C37,52.897 37.897,52 39,52 C40.103,52 41,52.897 41,54 Z M22,54 C22,55.103 21.103,56 20,56 C18.897,56 18,55.103 18,54 C18,52.897 18.897,52 20,52 C21.103,52 22,52.897 22,54 Z M12,54 C12,55.103 11.103,56 10,56 C8.897,56 8,55.103 8,54 C8,52.897 8.897,52 10,52 C11.103,52 12,52.897 12,54 Z M59.001,16.727 C58.683,16.727 58.37,16.576 58.176,16.294 L56.023,13.162 L53.279,13.96 C53.188,13.986 53.094,14 53,14 C52.918,14 52.837,13.99 52.757,13.97 L49.411,13.131 L48.84,13.895 L59.635,28.403 C59.964,28.846 59.873,29.473 59.43,29.803 C59.25,29.936 59.041,30 58.833,30 C58.528,30 58.226,29.86 58.03,29.597 L45.043,12.141 L40.049,9.365 L38.707,10.707 C38.513,10.901 38.25,11.004 37.973,11 C37.698,10.992 37.439,10.872 37.255,10.668 L36.09,9.368 L32.169,10.871 L23.792,22.582 C23.47,23.029 22.847,23.134 22.396,22.813 C21.947,22.492 21.843,21.867 22.165,21.418 L37.187,0.418 C37.373,0.158 37.671,0.003 37.991,-2.89646711e-14 C38.312,-0.002 38.612,0.147 38.802,0.403 L46.504,10.755 L46.504,10.755 L47.595,12.221 L48.209,11.4 C48.21,11.399 48.21,11.399 48.21,11.398 L51.199,7.401 C51.48,7.023 51.984,6.895 52.414,7.09 L54.867,8.204 C55.033,8.279 55.175,8.398 55.278,8.548 L59.824,15.161 C60.137,15.616 60.021,16.238 59.566,16.552 C59.394,16.671 59.196,16.727 59.001,16.727 Z M38.016,2.696 L34.279,7.92 L36.017,7.254 C36.404,7.106 36.843,7.211 37.12,7.52 L38.04,8.546 L39.168,7.418 C39.483,7.103 39.97,7.032 40.361,7.251 L42.141,8.24 L38.016,2.696 Z M52.319,9.243 L50.71,11.395 L52.98,11.964 L54.829,11.426 L53.787,9.91 L52.319,9.243 Z" id="Shape"></path>
                </g>
            </g>
        </g>
    </g>
</svg>