<?xml version="1.0" encoding="UTF-8"?>
<svg width="45px" height="61px" viewBox="0 0 45 61" version="1.1" xmlns="http://www.w3.org/2000/svg" xmlns:xlink="http://www.w3.org/1999/xlink">
    <!-- Generator: sketchtool 48.1 (47250) - http://www.bohemiancoding.com/sketch -->
    <title>75F1D1BE-5AED-4DB6-80BA-AFF16C349DC6</title>
    <desc>Created with sketchtool.</desc>
    <defs></defs>
    <g id="landing-v4.3" stroke="none" stroke-width="1" fill="none" fill-rule="evenodd" transform="translate(-828.000000, -1052.000000)">
        <g id="expertise" transform="translate(220.000000, 927.000000)" fill="#7590D5" fill-rule="nonzero">
            <g id="solutions_healthcare" transform="translate(608.000000, 125.000000)">
                <path d="M43,24.086 L42,24.086 L42,36.079 C42.553,36.079 43,36.526 43,37.079 L43,45.074 C43,45.627 42.553,46.074 42,46.074 L42,47.073 C42,49.828 39.757,52.07 37,52.07 L36,52.07 L36,59.067 C36,59.619 35.553,60.066 35,60.066 C34.447,60.066 34,59.619 34,59.067 L34,52.07 L8,52.07 L8,59.067 C8,59.619 7.553,60.066 7,60.066 C6.447,60.066 6,59.619 6,59.067 L6,52.07 L5,52.07 C2.243,52.07 0,49.828 0,47.073 L0,13.092 C0,10.336 2.243,8.094 5,8.094 L6,8.094 L6,1.098 C6,0.546 6.447,0.099 7,0.099 C7.553,0.099 8,0.546 8,1.098 L8,8.094 L34,8.094 L34,1.098 C34,0.546 34.447,0.099 35,0.099 C35.553,0.099 36,0.546 36,1.098 L36,8.094 L37,8.094 C39.757,8.094 42,10.336 42,13.092 L42,14.091 L43,14.091 C44.103,14.091 45,14.988 45,16.09 L45,22.087 C45,23.189 44.103,24.086 43,24.086 Z M40,45.074 L40,37.079 L40,23.086 L40,15.091 L40,13.092 C40,11.438 38.654,10.093 37,10.093 L35,10.093 L7,10.093 L5,10.093 C3.346,10.093 2,11.438 2,13.092 L2,47.073 C2,48.727 3.346,50.071 5,50.071 L7,50.071 L35,50.071 L37,50.071 C38.654,50.071 40,48.727 40,47.073 L40,45.074 Z M43,16.09 L42,16.09 L42,22.087 L43,22.087 L43,16.09 Z M37,48.073 L5,48.073 C4.447,48.073 4,47.625 4,47.073 L4,13.092 C4,12.539 4.447,12.092 5,12.092 L37,12.092 C37.553,12.092 38,12.539 38,13.092 L38,47.073 C38,47.625 37.553,48.073 37,48.073 Z M36,14.091 L6,14.091 L6,46.074 L36,46.074 L36,14.091 Z M9,16.09 L11,16.09 C11.553,16.09 12,16.537 12,17.089 C12,17.642 11.553,18.089 11,18.089 L9,18.089 C8.447,18.089 8,17.642 8,17.089 C8,16.537 8.447,16.09 9,16.09 Z M9,20.088 L17,20.088 C17.553,20.088 18,20.535 18,21.087 C18,21.64 17.553,22.087 17,22.087 L9,22.087 C8.447,22.087 8,21.64 8,21.087 C8,20.535 8.447,20.088 9,20.088 Z M9,24.086 L17,24.086 C17.553,24.086 18,24.533 18,25.085 C18,25.638 17.553,26.085 17,26.085 L9,26.085 C8.447,26.085 8,25.638 8,25.085 C8,24.533 8.447,24.086 9,24.086 Z M9,37.539 L10.066,37.539 L12.549,34.247 C12.745,33.986 13.046,33.815 13.384,33.85 C13.71,33.862 14.011,34.031 14.188,34.306 L17.492,39.419 L22.231,31.565 C22.245,31.541 22.268,31.528 22.284,31.506 C22.322,31.454 22.366,31.409 22.414,31.364 C22.466,31.315 22.518,31.271 22.578,31.235 C22.6,31.222 22.613,31.201 22.636,31.189 C22.668,31.173 22.703,31.174 22.736,31.161 C22.802,31.136 22.866,31.117 22.936,31.106 C23,31.096 23.062,31.094 23.126,31.096 C23.187,31.099 23.246,31.105 23.307,31.119 C23.376,31.135 23.44,31.159 23.505,31.19 C23.537,31.205 23.573,31.207 23.604,31.225 C23.626,31.239 23.638,31.261 23.659,31.276 C23.715,31.316 23.761,31.362 23.808,31.413 C23.855,31.463 23.897,31.512 23.931,31.569 C23.945,31.592 23.967,31.606 23.98,31.63 L28.736,41.027 L30.582,38.016 C30.764,37.72 31.087,37.539 31.435,37.539 L33,37.539 C33.553,37.539 34,37.986 34,38.539 C34,39.091 33.553,39.538 33,39.538 L31.994,39.538 L29.505,43.598 C29.323,43.895 28.999,44.075 28.652,44.075 C28.639,44.075 28.625,44.075 28.611,44.074 C28.249,44.059 27.924,43.849 27.76,43.526 L23.01,34.144 L18.378,41.823 C18.2,42.118 17.882,42.3 17.537,42.306 C17.532,42.306 17.527,42.306 17.522,42.306 C17.183,42.306 16.866,42.134 16.682,41.849 L13.284,36.593 L11.364,39.14 C11.175,39.391 10.88,39.538 10.566,39.538 L9,39.538 C8.447,39.538 8,39.091 8,38.539 C8,37.986 8.447,37.539 9,37.539 Z M29.316,27.288 C28.682,27.806 28.027,28.341 27.841,28.628 C27.657,28.912 27.34,29.083 27.002,29.083 C27,29.083 26.997,29.083 26.995,29.083 C26.654,29.081 26.338,28.905 26.157,28.616 C25.977,28.332 25.322,27.798 24.69,27.282 C22.805,25.744 20.224,23.638 20.013,20.706 C19.861,18.595 21.203,16.702 23.205,16.206 C24.646,15.847 26.032,16.314 27.024,17.418 C28.217,16.127 29.727,15.914 30.902,16.221 C32.839,16.73 34.11,18.568 33.992,20.689 C33.832,23.597 31.222,25.73 29.316,27.288 Z M30.393,18.154 C29.411,17.894 28.503,18.449 27.899,19.668 C27.73,20.009 27.382,20.223 27.002,20.223 C26.994,20.223 26.986,20.223 26.98,20.223 C26.591,20.215 26.243,19.981 26.087,19.626 C25.648,18.627 24.959,18.087 24.157,18.087 C24.003,18.087 23.847,18.107 23.687,18.146 C22.781,18.37 21.914,19.272 22.007,20.562 C22.157,22.635 24.352,24.425 25.954,25.733 C26.347,26.054 26.702,26.344 27.006,26.617 C27.308,26.347 27.66,26.059 28.049,25.741 C29.668,24.418 31.884,22.607 31.996,20.58 C32.07,19.223 31.217,18.371 30.393,18.154 Z" id="Shape"></path>
            </g>
        </g>
    </g>
</svg>