<?xml version="1.0" encoding="UTF-8"?>
<svg width="60px" height="60px" viewBox="0 0 60 60" version="1.1" xmlns="http://www.w3.org/2000/svg" xmlns:xlink="http://www.w3.org/1999/xlink">
    <!-- Generator: Sketch 51.2 (57519) - http://www.bohemiancoding.com/sketch -->
    <title>travel_and_hospitality</title>
    <desc>Created with Sketch.</desc>
    <defs></defs>
    <g id="icons" stroke="none" stroke-width="1" fill="none" fill-rule="evenodd">
        <g id="icons-copy-3" transform="translate(-114.000000, -32.000000)">
            <g id="travel_and_hospitality" transform="translate(114.000000, 32.000000)">
                <rect id="Rectangle" x="0" y="0" width="60" height="60"></rect>
                <path d="M57.9860655,11 L56.9860655,11 C56.4340655,11 55.9870655,10.552 55.9870655,10 C55.9870655,9.448 56.4340655,9 56.9860655,9 L57.9860655,9 C58.5390655,9 58.9860655,9.448 58.9860655,10 C58.9860655,10.552 58.5390655,11 57.9860655,11 Z M55.6440655,5.757 C55.4490655,5.953 55.1930655,6.05 54.9370655,6.05 C54.6810655,6.05 54.4250655,5.953 54.2300655,5.757 C53.8400655,5.367 53.8400655,4.734 54.2300655,4.343 L54.9370655,3.636 C55.3280655,3.246 55.9600655,3.246 56.3510655,3.636 C56.7410655,4.027 56.7410655,4.66 56.3510655,5.05 L55.6440655,5.757 Z M49.9880655,15 C47.2310655,15 44.9890655,12.757 44.9890655,10 C44.9890655,7.243 47.2310655,5 49.9880655,5 C52.7440655,5 54.9870655,7.243 54.9870655,10 C54.9870655,12.757 52.7440655,15 49.9880655,15 Z M49.9880655,7 C48.3340655,7 46.9880655,8.346 46.9880655,10 C46.9880655,11.654 48.3340655,13 49.9880655,13 C51.6420655,13 52.9870655,11.654 52.9870655,10 C52.9870655,8.346 51.6420655,7 49.9880655,7 Z M49.9880655,4 C49.4350655,4 48.9880655,3.552 48.9880655,3 L48.9880655,2 C48.9880655,1.448 49.4350655,1 49.9880655,1 C50.5400655,1 50.9870655,1.448 50.9870655,2 L50.9870655,3 C50.9870655,3.552 50.5400655,4 49.9880655,4 Z M45.0390655,6.05 C44.7830655,6.05 44.5280655,5.953 44.3330655,5.758 L43.6240655,5.051 C43.2340655,4.661 43.2340655,4.027 43.6240655,3.637 C44.0140655,3.245 44.6480655,3.246 45.0380655,3.636 L45.7460655,4.343 C46.1370655,4.733 46.1370655,5.366 45.7470655,5.757 C45.5520655,5.953 45.2950655,6.05 45.0390655,6.05 Z M43.9890655,10 C43.9890655,10.552 43.5420655,11 42.9890655,11 L41.9890655,11 C41.4370655,11 40.9890655,10.552 40.9890655,10 C40.9890655,9.448 41.4370655,9 41.9890655,9 L42.9890655,9 C43.5420655,9 43.9890655,9.448 43.9890655,10 Z M45.0380655,16.364 C44.8430655,16.559 44.5870655,16.657 44.3320655,16.657 C44.0760655,16.657 43.8190655,16.559 43.6240655,16.363 C43.2340655,15.973 43.2340655,15.339 43.6240655,14.949 L44.3330655,14.242 C44.7230655,13.853 45.3570655,13.852 45.7470655,14.243 C46.1370655,14.634 46.1370655,15.267 45.7460655,15.657 L45.0380655,16.364 Z M48.9880655,18 L48.9880655,17 C48.9880655,16.448 49.4350655,16 49.9880655,16 C50.5400655,16 50.9870655,16.448 50.9870655,17 L50.9870655,18 C50.9870655,18.552 50.5400655,19 49.9880655,19 C49.4350655,19 48.9880655,18.552 48.9880655,18 Z M54.9370655,16.364 L54.2300655,15.657 C53.8400655,15.266 53.8400655,14.633 54.2300655,14.243 C54.6210655,13.852 55.2530655,13.852 55.6440655,14.243 L56.3510655,14.95 C56.7410655,15.34 56.7410655,15.973 56.3510655,16.364 C56.1550655,16.559 55.9000655,16.657 55.6440655,16.657 C55.3880655,16.657 55.1320655,16.559 54.9370655,16.364 Z M39.9900655,36 C42.4030655,36 44.4230655,37.721 44.8870655,40 L45.9880655,40 C46.5410655,40 46.9880655,40.448 46.9880655,41 C46.9880655,41.552 46.5410655,42 45.9880655,42 L44.6070655,42 L43.3610655,44.492 C45.8030655,44.679 48.0680655,44.92 50.0770655,45.212 C57.9280655,46.354 58.9860655,47.783 58.9860655,49.03 C58.9860655,49.582 58.5390655,50.03 57.9860655,50.03 C57.4760655,50.03 57.0540655,49.646 56.9940655,49.152 C55.9490655,47.86 46.0500655,46.03 30.4910655,46.03 C14.9330655,46.03 5.03406546,47.86 3.98806546,49.152 C3.92806546,49.646 3.50706546,50.03 2.99606546,50.03 C2.44406546,50.03 1.99606546,49.582 1.99606546,49.03 C1.99606546,47.783 3.05506546,46.354 10.9050655,45.212 C11.5300655,45.121 12.1820655,45.036 12.8530655,44.955 L11.3760655,42 L9.99506546,42 C9.44206546,42 8.99506546,41.552 8.99506546,41 C8.99506546,40.448 9.44206546,40 9.99506546,40 L11.4020655,40 L13.5860655,36.006 L10.2880655,32.707 L8.53806546,30.957 C8.14706546,30.566 8.14706546,29.934 8.53806546,29.543 C8.92906546,29.152 9.56106546,29.152 9.95206546,29.543 L11.0470655,30.638 C11.8980655,30.011 12.9150655,29.657 13.9940655,29.657 C15.3300655,29.657 16.5850655,30.177 17.5290655,31.122 L21.7130655,35.306 L17.7440655,20.494 C17.0160655,21.088 16.6570655,22.072 16.9160655,23.036 C16.9390655,23.123 16.9500655,23.21 16.9500655,23.295 C16.9500655,23.308 16.9440655,23.32 16.9430655,23.334 C16.9420655,23.374 16.9310655,23.411 16.9240655,23.45 C16.9110655,23.53 16.8940655,23.606 16.8630655,23.68 C16.8450655,23.721 16.8240655,23.758 16.8010655,23.796 C16.7620655,23.862 16.7180655,23.921 16.6650655,23.976 C16.6340655,24.009 16.6040655,24.04 16.5690655,24.068 C16.5050655,24.12 16.4330655,24.159 16.3550655,24.193 C16.3270655,24.207 16.3060655,24.23 16.2750655,24.241 C16.2630655,24.245 16.2510655,24.243 16.2390655,24.247 C16.2280655,24.25 16.2200655,24.258 16.2080655,24.261 C16.1800655,24.268 16.1520655,24.261 16.1230655,24.266 C16.0650655,24.277 16.0070655,24.295 15.9500655,24.295 C15.9220655,24.295 15.8960655,24.285 15.8680655,24.283 C15.8270655,24.279 15.7880655,24.272 15.7470655,24.264 C15.6690655,24.247 15.5950655,24.221 15.5230655,24.187 C15.4880655,24.17 15.4530655,24.157 15.4210655,24.136 C15.3350655,24.082 15.2580655,24.015 15.1910655,23.936 C15.1810655,23.924 15.1680655,23.917 15.1580655,23.904 C15.0940655,23.82 15.0410655,23.726 15.0050655,23.62 C14.9950655,23.592 14.9880655,23.567 14.9780655,23.539 C14.8060655,22.911 14.4020655,22.387 13.8390655,22.061 C13.2700655,21.732 12.6090655,21.645 11.9740655,21.815 C11.3390655,21.985 10.8090655,22.392 10.4810655,22.961 C10.1530655,23.529 10.0650655,24.192 10.2350655,24.826 C10.2580655,24.913 10.2690655,24.999 10.2690655,25.085 C10.2690655,25.113 10.2580655,25.138 10.2560655,25.165 C10.2520655,25.21 10.2440655,25.251 10.2350655,25.294 C10.2180655,25.371 10.1930655,25.443 10.1600655,25.514 C10.1410655,25.552 10.1240655,25.589 10.1010655,25.624 C10.0560655,25.694 10.0010655,25.753 9.93906546,25.81 C9.91206546,25.836 9.89006546,25.864 9.85906546,25.886 C9.76106546,25.958 9.65306546,26.017 9.52806546,26.051 C9.44106546,26.074 9.35406546,26.085 9.26806546,26.085 C9.24106546,26.085 9.21706546,26.075 9.19006546,26.072 C9.14506546,26.069 9.10306546,26.06 9.05906546,26.051 C8.98306546,26.034 8.91206546,26.01 8.84206546,25.976 C8.80306546,25.958 8.76706546,25.94 8.73006546,25.917 C8.66106546,25.872 8.60106546,25.816 8.54406546,25.755 C8.51906546,25.728 8.49106546,25.706 8.46806546,25.675 C8.39606546,25.577 8.33706546,25.468 8.30406546,25.344 C7.95306546,24.035 6.60106546,23.258 5.29306546,23.606 C3.98406546,23.956 3.20506546,25.307 3.55606546,26.617 C3.69806546,27.15 3.38206546,27.699 2.84906546,27.841 C2.76206546,27.865 2.67506546,27.875 2.58906546,27.876 C2.14806546,27.876 1.74306546,27.581 1.62406546,27.134 C-0.897934538,17.718 4.44906546,8.035 13.6040655,5.039 L13.3700655,4.167 C13.2280655,3.633 13.5440655,3.085 14.0770655,2.942 C14.6090655,2.799 15.1580655,3.116 15.3020655,3.649 L15.5350655,4.519 C19.9520655,3.586 24.4940655,4.283 28.4350655,6.558 C32.6630655,9 35.6880655,12.941 36.9540655,17.656 C36.9540655,17.659 36.9550655,17.663 36.9560655,17.665 C37.0980655,18.199 36.7820655,18.748 36.2490655,18.89 C35.7150655,19.034 35.1670655,18.717 35.0250655,18.183 C35.0240655,18.182 35.0240655,18.18 35.0240655,18.179 C34.8530655,17.546 34.4470655,17.018 33.8790655,16.69 C33.3110655,16.363 32.6520655,16.274 32.0140655,16.444 C30.7050655,16.795 29.9250655,18.146 30.2760655,19.456 C30.2990655,19.542 30.3100655,19.629 30.3100655,19.714 C30.3100655,19.742 30.2990655,19.767 30.2970655,19.794 C30.2930655,19.839 30.2850655,19.881 30.2750655,19.925 C30.2580655,20.001 30.2340655,20.072 30.2000655,20.142 C30.1820655,20.181 30.1640655,20.218 30.1410655,20.254 C30.0960655,20.323 30.0410655,20.382 29.9800655,20.439 C29.9530655,20.465 29.9300655,20.493 29.8990655,20.516 C29.8020655,20.588 29.6930655,20.647 29.5680655,20.68 C29.4810655,20.704 29.3950655,20.715 29.3090655,20.715 C29.2820655,20.715 29.2580655,20.704 29.2310655,20.702 C29.1850655,20.698 29.1430655,20.69 29.0980655,20.68 C29.0230655,20.663 28.9530655,20.639 28.8840655,20.606 C28.8440655,20.587 28.8070655,20.57 28.7700655,20.546 C28.7010655,20.501 28.6420655,20.446 28.5860655,20.386 C28.5600655,20.358 28.5310655,20.335 28.5080655,20.304 C28.4360655,20.206 28.3770655,20.098 28.3440655,19.973 C28.1740655,19.339 27.7670655,18.809 27.1990655,18.48 C26.6300655,18.152 25.9670655,18.066 25.3340655,18.235 C24.0310655,18.584 23.2560655,19.922 23.5930655,21.226 C23.5990655,21.257 23.6050655,21.282 23.6110655,21.313 C23.6150655,21.33 23.6090655,21.345 23.6110655,21.361 C23.6180655,21.409 23.6300655,21.457 23.6300655,21.505 C23.6300655,21.549 23.6150655,21.589 23.6090655,21.631 C23.6040655,21.675 23.5990655,21.717 23.5880655,21.759 C23.5670655,21.84 23.5320655,21.914 23.4920655,21.987 C23.4740655,22.018 23.4630655,22.052 23.4420655,22.081 C23.3730655,22.178 23.2910655,22.265 23.1900655,22.333 C23.1830655,22.338 23.1730655,22.34 23.1650655,22.345 C23.0810655,22.398 22.9900655,22.444 22.8890655,22.471 C22.8770655,22.474 22.8660655,22.47 22.8540655,22.473 C22.8420655,22.476 22.8340655,22.484 22.8220655,22.486 C22.7570655,22.499 22.6930655,22.505 22.6290655,22.505 C22.6050655,22.505 22.5830655,22.494 22.5590655,22.493 C22.5040655,22.489 22.4520655,22.478 22.3990655,22.465 C22.3330655,22.449 22.2710655,22.428 22.2100655,22.399 C22.1610655,22.377 22.1170655,22.352 22.0730655,22.322 C22.0150655,22.282 21.9640655,22.236 21.9150655,22.185 C21.8810655,22.148 21.8470655,22.114 21.8180655,22.073 C21.7720655,22.008 21.7410655,21.935 21.7120655,21.859 C21.6990655,21.825 21.6740655,21.799 21.6650655,21.764 C21.4060655,20.799 20.6020655,20.127 19.6750655,19.977 L23.9690655,36 L39.9900655,36 Z M3.00006546,22.62 C3.49706546,22.186 4.09806546,21.856 4.77606546,21.674 C5.73006546,21.418 6.71506546,21.502 7.61406546,21.872 C6.94106546,16.764 8.00606546,12.292 10.8000655,8.509 C5.92506546,11.494 2.92406546,16.877 3.00006546,22.62 Z M13.2250655,8.686 C10.2480655,12.121 9.04106546,16.192 9.53706546,20.986 C10.0730655,20.471 10.7190655,20.081 11.4560655,19.884 C12.2680655,19.667 13.1020655,19.693 13.8860655,19.929 C12.7410655,15.57 12.6580655,12.34 13.2250655,8.686 Z M29.1230655,16.108 C29.7000655,15.356 30.5130655,14.776 31.4970655,14.513 C32.1650655,14.334 32.8510655,14.311 33.5120655,14.442 C32.0970655,11.902 30.0180655,9.782 27.4350655,8.29 C25.0010655,6.885 22.3060655,6.161 19.5710655,6.117 C23.9290655,7.987 27.1360655,11.316 29.1230655,16.108 Z M22.7400655,17.577 C23.2900655,16.989 23.9840655,16.526 24.8160655,16.303 C25.5530655,16.106 26.3080655,16.121 27.0290655,16.298 C25.0630655,11.906 21.9850655,8.989 17.6960655,7.502 C20.0130655,10.383 21.5530655,13.224 22.7400655,17.577 Z M20.8650655,18.25 C19.6390655,13.655 18.0270655,10.938 15.3950655,7.859 C14.6570655,11.831 14.6390655,15.008 15.8630655,19.58 C16.4330655,18.885 17.2030655,18.344 18.1360655,18.093 C19.0750655,17.842 20.0200655,17.928 20.8650655,18.25 Z M38.6080655,44 L41.3710655,44 L42.3710655,42 L37.6080655,42 L38.6080655,44 Z M30.4910655,44.03 C32.5160655,44.03 34.5020655,44.064 36.4350655,44.126 L35.3720655,42 L20.6110655,42 L19.4280655,44.367 C22.8760655,44.148 26.6200655,44.03 30.4910655,44.03 Z M14.6120655,44 L17.3750655,44 L18.3750655,42 L13.6120655,42 L14.6120655,44 Z M17.5800655,40 L15.0590655,37.479 L13.6810655,40 L17.5800655,40 Z M23.2010655,38.001 C23.2000655,38.001 23.1990655,38 23.1980655,38 L21.9930655,38 C21.7270655,38 21.4730655,37.895 21.2860655,37.707 L16.1150655,32.536 C15.1650655,31.586 13.6060655,31.403 12.4770655,32.068 L20.4070655,40 L35.9900655,40 L42.8180655,40 C42.4050655,38.836 41.2930655,38 39.9900655,38 L23.2040655,38 C23.2030655,38 23.2020655,38.001 23.2010655,38.001 Z M3.63206546,55.829 C5.14306546,57.339 7.77706546,57.339 9.28806546,55.829 L11.7520655,53.364 C11.9400655,53.176 12.1940655,53.071 12.4590655,53.071 C12.7250655,53.071 12.9790655,53.176 13.1660655,53.364 L15.6300655,55.829 C17.1410655,57.339 19.7740655,57.339 21.2860655,55.829 L23.7500655,53.364 C23.9380655,53.176 24.1920655,53.071 24.4570655,53.071 C24.7230655,53.071 24.9770655,53.176 25.1640655,53.364 L27.6270655,55.829 C29.1390655,57.339 31.7720655,57.339 33.2840655,55.829 L35.7480655,53.364 C35.9360655,53.176 36.1890655,53.071 36.4550655,53.071 C36.7210655,53.071 36.9740655,53.176 37.1620655,53.364 L39.6250655,55.829 C41.1370655,57.339 43.7700655,57.339 45.2820655,55.829 L47.7460655,53.364 C47.9330655,53.176 48.1870655,53.071 48.4530655,53.071 C48.7180655,53.071 48.9720655,53.176 49.1600655,53.364 L51.6230655,55.829 C53.1350655,57.339 55.7680655,57.339 57.2790655,55.829 C57.6700655,55.438 58.3030655,55.438 58.6930655,55.829 C59.0840655,56.219 59.0840655,56.852 58.6930655,57.243 C57.5600655,58.376 56.0540655,59 54.4520655,59 C52.8490655,59 51.3430655,58.376 50.2090655,57.243 L48.4530655,55.485 L46.6950655,57.243 C45.5630655,58.376 44.0560655,59 42.4540655,59 C40.8520655,59 39.3450655,58.376 38.2110655,57.243 L36.4550655,55.485 L34.6980655,57.243 C33.5650655,58.376 32.0580655,59 30.4560655,59 C28.8540655,59 27.3470655,58.376 26.2140655,57.243 L24.4570655,55.485 L22.6990655,57.243 C21.5670655,58.376 20.0600655,59 18.4580655,59 C16.8560655,59 15.3490655,58.376 14.2160655,57.243 L12.4590655,55.485 L10.7020655,57.243 C9.56906546,58.376 8.06306546,59 6.46006546,59 C4.85806546,59 3.35106546,58.376 2.21806546,57.243 C1.82706546,56.853 1.82706546,56.219 2.21806546,55.829 C2.60806546,55.438 3.24106546,55.438 3.63206546,55.829 Z" id="Shape" fill="#7590D5" fill-rule="nonzero"></path>
            </g>
        </g>
    </g>
</svg>