<?xml version="1.0" encoding="UTF-8"?>
<svg width="60px" height="60px" viewBox="0 0 60 60" version="1.1" xmlns="http://www.w3.org/2000/svg" xmlns:xlink="http://www.w3.org/1999/xlink">
    <!-- Generator: sketchtool 48.1 (47250) - http://www.bohemiancoding.com/sketch -->
    <title>FDB1558C-CAB6-40D7-8387-0B4C6C4D05E5</title>
    <desc>Created with sketchtool.</desc>
    <defs></defs>
    <g id="landing-v4.3" stroke="none" stroke-width="1" fill="none" fill-rule="evenodd" transform="translate(-1074.000000, -1054.000000)">
        <g id="expertise" transform="translate(220.000000, 927.000000)" fill="#7590D5" fill-rule="nonzero">
            <g id="solutions_realestate" transform="translate(854.000000, 127.000000)">
                <path d="M59,59.99 L7,59.99 L3,59.99 L1,59.99 C0.447,59.99 0,59.542 0,58.99 C0,58.438 0.447,57.99 1,57.99 L2,57.99 L2,2.999 C2,1.345 3.346,0 5,0 C6.654,0 8,1.345 8,2.999 L8,3.999 L55,3.999 C56.654,3.999 58,5.345 58,6.999 C58,8.653 56.654,9.998 55,9.998 L44,9.998 L44,11.998 L51,11.998 C52.654,11.998 54,13.343 54,14.997 L54,40.993 C54,42.647 52.654,43.993 51,43.993 L15,43.993 C13.346,43.993 12,42.647 12,40.993 L12,14.997 C12,13.343 13.346,11.998 15,11.998 L22,11.998 L22,9.998 L8,9.998 L8,57.99 L59,57.99 C59.553,57.99 60,58.438 60,58.99 C60,59.542 59.553,59.99 59,59.99 Z M15,13.998 C14.448,13.998 14,14.446 14,14.997 L14,40.993 C14,41.544 14.448,41.993 15,41.993 L51,41.993 C51.552,41.993 52,41.544 52,40.993 L52,14.997 C52,14.446 51.552,13.998 51,13.998 L15,13.998 Z M42,11.998 L42,9.998 L24,9.998 L24,11.998 L42,11.998 Z M55,7.999 C55.552,7.999 56,7.55 56,6.999 C56,6.448 55.552,5.999 55,5.999 L8,5.999 C8,6.551 7.553,6.999 7,6.999 C6.447,6.999 6,6.551 6,5.999 L6,4.999 L6,2.999 C6,2.448 5.552,2 5,2 C4.448,2 4,2.448 4,2.999 L4,57.99 L6,57.99 L6,8.998 C6,8.446 6.447,7.999 7,7.999 L55,7.999 Z M49,39.993 C48.74,39.993 48.48,39.883 48.29,39.703 C48.109,39.513 48,39.253 48,38.993 C48,38.733 48.109,38.473 48.29,38.284 C48.66,37.914 49.34,37.914 49.71,38.284 C49.889,38.473 50,38.733 50,38.993 C50,39.253 49.889,39.513 49.71,39.703 C49.52,39.883 49.26,39.993 49,39.993 Z M49,31.995 L37,31.995 C36.447,31.995 36,31.547 36,30.995 C36,30.443 36.447,29.995 37,29.995 L49,29.995 C49.553,29.995 50,30.443 50,30.995 C50,31.547 49.553,31.995 49,31.995 Z M49,27.995 L37,27.995 C36.447,27.995 36,27.548 36,26.995 C36,26.443 36.447,25.996 37,25.996 L49,25.996 C49.553,25.996 50,26.443 50,26.995 C50,27.548 49.553,27.995 49,27.995 Z M45,21.996 L37,21.996 C36.447,21.996 36,21.548 36,20.996 C36,20.444 36.447,19.997 37,19.997 L45,19.997 C45.553,19.997 46,20.444 46,20.996 C46,21.548 45.553,21.996 45,21.996 Z M33,39.993 C32.45,39.993 32,39.543 32,38.993 C32,38.443 32.45,37.994 33,37.994 C33.55,37.994 34,38.443 34,38.993 C34,39.543 33.55,39.993 33,39.993 Z M32.998,25.996 C32.789,25.996 32.579,25.931 32.399,25.795 L31.999,25.495 L31.999,32.994 C31.999,33.547 31.552,33.994 30.999,33.994 L26.999,33.994 C26.446,33.994 25.999,33.547 25.999,32.994 L25.999,27.995 L23.999,27.995 L23.999,32.994 C23.999,33.547 23.552,33.994 22.999,33.994 L18.999,33.994 C18.446,33.994 17.999,33.547 17.999,32.994 L17.999,25.495 L17.599,25.795 C17.156,26.127 16.529,26.037 16.199,25.596 C15.867,25.154 15.957,24.527 16.399,24.196 L24.399,18.197 C24.755,17.93 25.243,17.93 25.599,18.197 L33.599,24.196 C34.041,24.527 34.131,25.154 33.799,25.596 C33.602,25.857 33.303,25.996 32.998,25.996 Z M24.999,20.246 L19.999,23.996 L19.999,31.995 L21.999,31.995 L21.999,26.995 C21.999,26.443 22.446,25.996 22.999,25.996 L26.999,25.996 C27.552,25.996 27.999,26.443 27.999,26.995 L27.999,31.995 L29.999,31.995 L29.999,23.996 L24.999,20.246 Z M16.08,38.613 C16.1,38.554 16.13,38.493 16.17,38.433 C16.21,38.383 16.25,38.333 16.29,38.284 C16.34,38.244 16.39,38.204 16.44,38.163 C16.5,38.123 16.56,38.093 16.62,38.073 C16.68,38.043 16.74,38.023 16.8,38.014 C16.93,37.983 17.069,37.983 17.19,38.014 C17.26,38.023 17.319,38.043 17.38,38.073 C17.439,38.093 17.5,38.123 17.55,38.163 C17.609,38.204 17.66,38.244 17.71,38.284 C17.75,38.333 17.79,38.383 17.83,38.433 C17.87,38.493 17.899,38.554 17.92,38.613 C17.95,38.673 17.97,38.733 17.98,38.793 C17.99,38.863 18,38.933 18,38.993 C18,39.063 17.99,39.123 17.98,39.193 C17.97,39.253 17.95,39.313 17.92,39.373 C17.899,39.433 17.87,39.493 17.83,39.553 C17.79,39.603 17.75,39.653 17.71,39.703 C17.66,39.743 17.609,39.783 17.55,39.823 C17.5,39.863 17.439,39.893 17.38,39.913 C17.319,39.943 17.26,39.963 17.19,39.973 C17.13,39.983 17.06,39.993 17,39.993 C16.93,39.993 16.87,39.983 16.8,39.973 C16.74,39.963 16.68,39.943 16.62,39.913 C16.56,39.893 16.5,39.863 16.44,39.823 C16.39,39.783 16.34,39.743 16.29,39.703 C16.25,39.653 16.21,39.603 16.17,39.553 C16.13,39.493 16.1,39.433 16.08,39.373 C16.05,39.313 16.03,39.253 16.02,39.193 C16.01,39.123 16,39.063 16,38.993 C16,38.933 16.01,38.863 16.02,38.793 C16.03,38.733 16.05,38.673 16.08,38.613 Z M21,37.994 C21.55,37.994 22,38.443 22,38.993 C22,39.543 21.55,39.993 21,39.993 C20.45,39.993 20,39.543 20,38.993 C20,38.443 20.45,37.994 21,37.994 Z M25,37.994 C25.55,37.994 26,38.443 26,38.993 C26,39.543 25.55,39.993 25,39.993 C24.45,39.993 24,39.543 24,38.993 C24,38.443 24.45,37.994 25,37.994 Z M29,37.994 C29.55,37.994 30,38.443 30,38.993 C30,39.543 29.55,39.993 29,39.993 C28.45,39.993 28,39.543 28,38.993 C28,38.443 28.45,37.994 29,37.994 Z M37,37.994 C37.55,37.994 38,38.443 38,38.993 C38,39.543 37.55,39.993 37,39.993 C36.45,39.993 36,39.543 36,38.993 C36,38.443 36.45,37.994 37,37.994 Z M41,37.994 C41.55,37.994 42,38.443 42,38.993 C42,39.543 41.55,39.993 41,39.993 C40.45,39.993 40,39.543 40,38.993 C40,38.443 40.45,37.994 41,37.994 Z M45,37.994 C45.55,37.994 46,38.443 46,38.993 C46,39.543 45.55,39.993 45,39.993 C44.45,39.993 44,39.543 44,38.993 C44,38.443 44.45,37.994 45,37.994 Z" id="Shape"></path>
            </g>
        </g>
    </g>
</svg>