<?xml version="1.0" encoding="UTF-8"?>
<svg width="52px" height="42px" viewBox="0 0 52 42" version="1.1" xmlns="http://www.w3.org/2000/svg" xmlns:xlink="http://www.w3.org/1999/xlink">
    <!-- Generator: sketchtool 48.1 (47250) - http://www.bohemiancoding.com/sketch -->
    <title>5A2F0D01-762D-4A2C-BBA1-22139A978058</title>
    <desc>Created with sketchtool.</desc>
    <defs></defs>
    <g id="landing-v4.3" stroke="none" stroke-width="1" fill="none" fill-rule="evenodd" transform="translate(-1131.000000, -1365.000000)">
        <g id="expertise" transform="translate(220.000000, 927.000000)" fill="#FFFFFF" fill-rule="nonzero">
            <g id="solutions_arrow" transform="translate(910.000000, 438.000000)">
                <path d="M52.921,21.382 C52.872,21.502 52.8,21.608 52.711,21.699 C52.709,21.701 52.708,21.705 52.706,21.707 C52.706,21.707 32.706,41.707 32.706,41.707 C32.51,41.902 32.255,42 31.999,42 C31.743,42 31.487,41.902 31.292,41.707 C30.901,41.316 30.901,40.684 31.292,40.293 C31.292,40.293 49.584,22 49.584,22 C49.584,22 1.999,22 1.999,22 C1.447,22 0.999,21.552 0.999,21 C0.999,20.448 1.447,20 1.999,20 C1.999,20 49.584,20 49.584,20 C49.584,20 31.292,1.707 31.292,1.707 C30.901,1.316 30.901,0.684 31.292,0.293 C31.682,-0.098 32.315,-0.098 32.706,0.293 C32.706,0.293 52.706,20.293 52.706,20.293 C52.709,20.296 52.71,20.301 52.713,20.305 C52.801,20.395 52.872,20.5 52.921,20.618 C53.023,20.862 53.023,21.138 52.921,21.382 Z" id="Shape"></path>
            </g>
        </g>
    </g>
</svg>