<?xml version="1.0" encoding="UTF-8"?>
<svg width="60px" height="60px" viewBox="0 0 60 60" version="1.1" xmlns="http://www.w3.org/2000/svg" xmlns:xlink="http://www.w3.org/1999/xlink">
    <!-- Generator: Sketch 46.2 (44496) - http://www.bohemiancoding.com/sketch -->
    <title>solutions_logistics</title>
    <desc>Created with Sketch.</desc>
    <defs></defs>
    <g id="mainpage" stroke="none" stroke-width="1" fill="none" fill-rule="evenodd">
        <g id="landing-v4.2" transform="translate(-308.000000, -1542.000000)" fill="#788C95">
            <g id="expertise" transform="translate(237.000000, 1432.000000)">
                <g id="solutions_logistics" transform="translate(71.000000, 110.000000)">
                    <path d="M57,56.001 L54.899,56.001 C54.748,56.744 54.418,57.417 53.976,58.001 L59,58.001 C59.552,58.001 60,58.448 60,59 C60,59.553 59.552,60 59,60 L1.001,60 C0.448,60 0,59.553 0,59 C0,58.448 0.448,58.001 1.001,58.001 L20.025,58.001 C19.583,57.417 19.253,56.744 19.101,56.001 L11,56.001 C10.448,56.001 10.001,55.554 10.001,55.001 L10.001,38.006 L10.001,34.007 L10.001,27.009 C10.001,25.355 11.346,24.01 13,24.01 L41,24.01 C42.655,24.01 44,25.355 44,27.009 L44,30.008 L50.137,30.008 C52.876,30.008 55.376,31.619 56.51,34.111 L56.74,34.618 L56.74,34.618 L59.373,40.408 C59.718,41.169 59.887,41.975 59.947,42.799 C59.961,42.868 59.988,42.932 59.988,43.005 C59.988,43.027 59.977,43.046 59.975,43.068 C59.978,43.148 60,43.224 60,43.304 L60,53.002 C60,54.656 58.655,56.001 57,56.001 Z M50,58.001 C51.655,58.001 53,56.655 53,55.001 C53,53.348 51.655,52.002 50,52.002 C48.346,52.002 47,53.348 47,55.001 C47,56.655 48.346,58.001 50,58.001 Z M24.001,58.001 C25.655,58.001 27,56.655 27,55.001 C27,53.348 25.655,52.002 24.001,52.002 C22.346,52.002 21,53.348 21,55.001 C21,56.655 22.346,58.001 24.001,58.001 Z M28,38.006 L28,40.548 L33.395,36.009 L28,31.47 L28,34.007 C28,34.56 27.553,35.007 27,35.007 L12,35.007 L12,37.006 L27,37.006 C27.553,37.006 28,37.454 28,38.006 Z M42,31.008 L42,27.009 C42,26.457 41.552,26.009 41,26.009 L13,26.009 C12.449,26.009 12,26.457 12,27.009 L12,33.007 L26.001,33.007 L26.001,30.619 C26.001,29.988 26.374,29.413 26.952,29.155 C27.529,28.896 28.207,29.004 28.678,29.426 L35.045,34.783 C35.053,34.79 35.061,34.797 35.07,34.805 C35.411,35.111 35.606,35.55 35.606,36.008 C35.606,36.466 35.411,36.905 35.07,37.211 L28.642,42.621 C28.36,42.875 27.986,43.011 27.604,43.011 C27.382,43.011 27.158,42.965 26.948,42.871 C26.372,42.614 26.001,42.042 26.001,41.412 L26.001,39.006 L12,39.006 L12,47.004 L14,47.004 L14,46.004 C14,45.451 14.448,45.004 15,45.004 C15.553,45.004 16,45.451 16,46.004 L16,47.004 L18,47.004 L18,46.004 C18,45.451 18.448,45.004 19,45.004 C19.553,45.004 20,45.451 20,46.004 L20,47.004 L22,47.004 L22,46.004 C22,45.451 22.448,45.004 23,45.004 C23.553,45.004 24.001,45.451 24.001,46.004 L24.001,47.004 L26.001,47.004 L26.001,46.004 C26.001,45.451 26.448,45.004 27,45.004 C27.553,45.004 28,45.451 28,46.004 L28,47.004 L30,47.004 L30,46.004 C30,45.451 30.448,45.004 31,45.004 C31.553,45.004 32,45.451 32,46.004 L32,47.004 L34,47.004 L34,46.004 C34,45.451 34.448,45.004 35,45.004 C35.553,45.004 36,45.451 36,46.004 L36,47.004 L38,47.004 L38,46.004 C38,45.451 38.448,45.004 39,45.004 C39.553,45.004 40.001,45.451 40.001,46.004 L40.001,47.004 L42,47.004 L42,31.008 Z M42,49.003 L12,49.003 L12,54.002 L19.101,54.002 C19.566,51.723 21.586,50.003 24.001,50.003 C26.415,50.003 28.435,51.723 28.899,54.002 L42,54.002 L42,49.003 Z M43,56.001 L28.899,56.001 C28.748,56.744 28.418,57.417 27.976,58.001 L46.025,58.001 C45.583,57.417 45.253,56.744 45.102,56.001 L43,56.001 Z M57.552,41.235 L55.175,36.007 L51,36.007 C50.449,36.007 50,36.455 50,37.006 L50,41.005 C50,41.557 50.449,42.005 51,42.005 L57.808,42.005 C57.737,41.745 57.665,41.484 57.552,41.235 Z M58,50.003 L57,50.003 C56.448,50.003 56.001,49.556 56.001,49.003 C56.001,48.451 56.448,48.003 57,48.003 L58,48.003 L58,44.005 L51,44.005 C49.346,44.005 48,42.659 48,41.005 L48,37.006 C48,35.352 49.346,34.007 51,34.007 L54.12,34.007 C53.187,32.772 51.723,32.008 50.137,32.008 L44,32.008 L44,54.002 L45.102,54.002 C45.566,51.723 47.586,50.003 50,50.003 C52.415,50.003 54.435,51.723 54.899,54.002 L57,54.002 C57.552,54.002 58,53.554 58,53.002 L58,50.003 Z M24.001,53.502 C24.827,53.502 25.5,54.175 25.5,55.001 C25.5,55.828 24.827,56.501 24.001,56.501 C23.173,56.501 22.501,55.828 22.501,55.001 C22.501,54.175 23.173,53.502 24.001,53.502 Z M24.001,55.501 C24.276,55.501 24.5,55.277 24.5,55.001 C24.5,54.726 24.276,54.502 24.001,54.502 C23.724,54.502 23.5,54.726 23.5,55.001 C23.5,55.277 23.724,55.501 24.001,55.501 Z M50,53.502 C50.828,53.502 51.5,54.175 51.5,55.001 C51.5,55.828 50.828,56.501 50,56.501 C49.173,56.501 48.5,55.828 48.5,55.001 C48.5,54.175 49.173,53.502 50,53.502 Z M50,55.501 C50.276,55.501 50.5,55.277 50.5,55.001 C50.5,54.726 50.276,54.502 50,54.502 C49.724,54.502 49.5,54.726 49.5,55.001 C49.5,55.277 49.724,55.501 50,55.501 Z M51.828,18.011 L38.172,18.011 C34.963,18.011 32.352,15.411 32.352,12.213 C32.352,9.999 33.625,7.995 35.584,7.024 C35.782,4.891 37.587,3.216 39.779,3.216 C40.321,3.216 40.846,3.316 41.336,3.511 C42.578,1.383 44.894,0.016 47.411,0.016 C51.284,0.016 54.436,3.156 54.436,7.014 L54.436,7.033 C56.385,8.005 57.649,10.001 57.649,12.213 C57.649,15.411 55.038,18.011 51.828,18.011 Z M53.072,8.625 C53.066,8.623 53.062,8.619 53.056,8.616 C52.662,8.484 52.25,8.414 51.828,8.414 C51.276,8.414 50.829,7.967 50.829,7.415 C50.829,6.862 51.276,6.415 51.828,6.415 C52.014,6.415 52.196,6.443 52.379,6.46 C52.098,3.968 49.99,2.016 47.411,2.016 C45.544,2.016 43.839,3.071 42.978,4.69 C43.184,4.93 43.366,5.189 43.512,5.466 C43.769,5.954 43.581,6.559 43.093,6.816 C42.944,6.894 42.785,6.931 42.628,6.931 C42.268,6.931 41.921,6.737 41.742,6.397 C41.599,6.126 41.396,5.884 41.154,5.693 L41.154,5.693 C40.758,5.381 40.283,5.215 39.779,5.215 C38.91,5.215 38.164,5.72 37.802,6.446 C37.926,6.438 38.047,6.415 38.172,6.415 C38.725,6.415 39.172,6.862 39.172,7.415 C39.172,7.967 38.725,8.414 38.172,8.414 C37.743,8.414 37.325,8.485 36.929,8.621 C36.922,8.624 36.916,8.63 36.909,8.632 C35.38,9.166 34.352,10.605 34.352,12.213 C34.352,14.307 36.066,16.012 38.172,16.012 L51.828,16.012 C53.935,16.012 55.649,14.307 55.649,12.213 C55.649,10.595 54.613,9.153 53.072,8.625 Z M17.122,20.011 L6.879,20.011 C4.334,20.011 2.264,17.948 2.264,15.413 C2.264,13.71 3.208,12.169 4.676,11.375 C4.75,8.407 7.197,6.015 10.193,6.015 C12.098,6.015 13.857,7.012 14.856,8.581 C15.194,8.471 15.55,8.414 15.917,8.414 C17.642,8.414 19.073,9.699 19.296,11.36 C20.78,12.15 21.737,13.701 21.737,15.413 C21.737,17.948 19.666,20.011 17.122,20.011 Z M17.987,12.963 C17.982,12.961 17.979,12.957 17.974,12.956 C17.699,12.862 17.413,12.813 17.122,12.813 C16.569,12.813 16.122,12.365 16.122,11.813 C16.122,11.328 16.474,10.943 16.932,10.852 C16.675,10.584 16.317,10.414 15.917,10.414 C15.596,10.414 15.294,10.519 15.042,10.719 C14.888,10.84 14.756,10.994 14.666,11.167 C14.486,11.507 14.139,11.702 13.779,11.702 C13.622,11.702 13.463,11.665 13.315,11.586 C12.826,11.33 12.638,10.725 12.895,10.237 C12.986,10.064 13.102,9.905 13.222,9.75 C12.598,8.694 11.447,8.014 10.193,8.014 C8.49,8.014 7.067,9.224 6.744,10.824 C6.79,10.823 6.834,10.813 6.879,10.813 C7.432,10.813 7.879,11.26 7.879,11.813 C7.879,12.365 7.432,12.813 6.879,12.813 C6.591,12.813 6.308,12.861 6.036,12.953 C6.033,12.955 6.031,12.957 6.028,12.958 C4.973,13.319 4.264,14.305 4.264,15.413 C4.264,16.846 5.437,18.011 6.879,18.011 L17.122,18.011 C18.563,18.011 19.737,16.846 19.737,15.413 C19.737,14.312 19.034,13.328 17.987,12.963 Z M2,34.007 C2,33.455 2.448,33.007 3.001,33.007 L8.001,33.007 C8.553,33.007 9,33.455 9,34.007 C9,34.56 8.553,35.007 8.001,35.007 L3.001,35.007 C2.448,35.007 2,34.56 2,34.007 Z M8.001,41.005 C8.553,41.005 9,41.453 9,42.005 C9,42.558 8.553,43.005 8.001,43.005 L7,43.005 C6.448,43.005 6,42.558 6,42.005 C6,41.453 6.448,41.005 7,41.005 L8.001,41.005 Z M4,38.006 C4,37.454 4.448,37.006 5,37.006 L8.001,37.006 C8.553,37.006 9,37.454 9,38.006 C9,38.559 8.553,39.006 8.001,39.006 L5,39.006 C4.448,39.006 4,38.559 4,38.006 Z M9,30.008 C9,30.561 8.553,31.008 8.001,31.008 L1.001,31.008 C0.448,31.008 0,30.561 0,30.008 C0,29.456 0.448,29.008 1.001,29.008 L8.001,29.008 C8.553,29.008 9,29.456 9,30.008 Z" id="Shape"></path>
                </g>
            </g>
        </g>
    </g>
</svg>