<?xml version="1.0" encoding="UTF-8"?>
<svg width="95px" height="49px" viewBox="0 0 95 25" version="1.1" xmlns="http://www.w3.org/2000/svg" xmlns:xlink="http://www.w3.org/1999/xlink">
    <!-- Generator: Sketch 46.2 (44496) - http://www.bohemiancoding.com/sketch -->
    <title>trusted_nic</title>
    <desc>Created with Sketch.</desc>
    <defs></defs>
    <g id="mainpage" stroke="none" stroke-width="1" fill="none" fill-rule="evenodd">
        <g id="landing-v4.2" transform="translate(-482.000000, -2126.000000)" opacity="0.4"  fill="#FFFFFF">
            <g id="Group-2" transform="translate(221.000000, 2032.000000)">
                <path d="M286.383237,101.266544 C286.236359,101.121025 286.033876,101.037574 285.825623,101.037574 L282.873889,101.037574 C282.666161,101.037574 282.463153,101.121025 282.317848,101.266544 C282.17097,101.413106 282.08599,101.614433 282.08599,101.819932 L282.08599,118.102895 C282.08599,118.309437 282.17097,118.511286 282.317848,118.656805 C282.463153,118.801802 282.666161,118.885253 282.873889,118.885253 L285.825623,118.885253 C286.037023,118.885253 286.234785,118.803366 286.382188,118.656805 C286.53064,118.5092 286.613522,118.312567 286.613522,118.102895 L286.613522,101.819932 C286.613522,101.614433 286.528542,101.413106 286.383237,101.266544 M274.724752,118.885253 C274.518073,118.885253 274.315066,118.801802 274.168712,118.655761 C274.021308,118.511286 273.937378,118.309437 273.937378,118.102895 L273.937378,108.65983 C273.943148,107.078423 273.443236,106.260076 272.998929,105.692606 C272.566162,105.135045 271.507587,104.582179 270.152108,104.568618 L269.909233,104.568618 C267.2885,104.568618 265.562153,106.601185 265.527531,109.84067 L265.527531,118.102895 C265.527531,118.311524 265.445699,118.508156 265.297247,118.655761 C265.147745,118.803366 264.950509,118.885253 264.740682,118.885253 L261.787374,118.885253 C261.580695,118.885253 261.377688,118.801802 261.231334,118.655761 C261.08498,118.511286 261,118.309437 261,118.102895 L261,101.819411 C261,101.613911 261.08498,101.412063 261.231334,101.266544 C261.377688,101.120504 261.580695,101.037052 261.787374,101.037052 L264.740682,101.037052 C264.947361,101.037052 265.150368,101.120504 265.297247,101.266544 C265.443601,101.412063 265.527531,101.613911 265.527531,101.819411 L265.527531,102.662271 C267.080772,101.34165 268.612506,100.517566 270.979873,100.52226 L271.17134,100.52226 C273.785254,100.509221 275.62753,101.40789 276.730693,102.894892 C277.826512,104.37355 278.459139,106.216264 278.464385,108.417299 L278.464385,118.102895 C278.464385,118.311524 278.382552,118.508156 278.2341,118.655761 C278.085123,118.803366 277.887362,118.885253 277.677535,118.885253 L274.724752,118.885253 M303.121097,113.39727 C302.342117,114.310022 300.982965,114.70746 299.261864,114.710589 C297.539188,114.708503 296.259771,114.211445 295.394761,113.369627 C294.531849,112.524159 294.549685,111.283338 294.545488,109.59188 C294.549685,107.900421 294.531849,106.659079 295.394761,105.814132 C296.259771,104.972315 297.539188,104.475256 299.261864,104.472648 C300.982965,104.475256 302.255039,104.969185 303.110082,105.812046 C303.387577,106.08535 303.771035,106.244951 304.223211,105.978949 C305.093467,105.466243 306.477272,104.600955 306.754243,104.429879 C307.160258,104.179003 307.222157,103.662647 306.977184,103.315801 C306.826634,103.131165 306.662969,102.952787 306.485666,102.782754 C304.73886,101.10277 302.235105,100.180631 299.261864,100.182717 C296.287573,100.180631 293.776999,101.101727 292.022849,102.781711 C290.265552,104.458044 289.831736,106.861971 289.835932,109.652903 C289.831736,112.441229 290.267126,114.821684 292.028095,116.467766 C293.786965,118.116977 296.292818,119.001042 299.261864,118.999999 L299.266585,118.999999 C302.231958,118.999999 304.729418,118.114891 306.48042,116.46568 C306.658772,116.298777 306.822962,116.123528 306.974561,115.939935 C307.178093,115.744345 307.358544,115.09238 306.797258,114.773699 C306.100634,114.379391 304.892558,113.594425 304.28511,113.242363 C303.856539,112.995138 303.440558,113.02226 303.121097,113.39727 M334.260925,100.671952 L331.027498,100.671952 L331.027498,109.753567 C331.027498,113.730555 328.19484,116.282086 324.394358,116.282086 C321.161456,116.282086 320.093964,114.658432 320.093964,111.046023 L320.093964,100.671952 L316.860537,100.671952 L316.860537,111.974421 C316.860537,116.978385 319.327048,118.999999 323.66049,118.999999 C326.694581,118.999999 329.060899,117.873403 331.027498,115.486689 L331.027498,118.502941 L334.260925,118.502941 L334.260925,100.671952 M343.299726,116.282086 C340.766596,116.282086 339.332956,115.15549 339.332956,113.465596 C339.332956,111.278123 341.267032,110.979262 344.766413,110.582345 C347.466356,110.283484 349.266143,109.918905 350.199346,109.355607 L350.199346,112.00728 C350.199346,114.260472 347.432784,116.282086 343.299726,116.282086 M345.232753,100.109175 C339.7332,100.109175 336.832873,102.197029 336.599441,106.406117 L339.966107,106.406117 C340.13292,103.853542 341.833563,102.826566 345.466185,102.826566 C348.699611,102.826566 350.199346,103.655345 350.199346,105.577338 C350.199346,107.731953 348.13308,107.632333 344.16631,108.063151 C339.066476,108.626971 335.899145,109.488087 335.899145,113.630935 C335.899145,116.945526 338.266513,118.999999 342.766767,118.999999 C346.066289,118.999999 348.666564,117.807163 350.299014,115.75269 C350.633163,117.674684 351.566366,118.70166 353.432773,118.70166 C354.033401,118.70166 354.966604,118.63542 356,118.46956 L356,115.88517 C355.599231,115.95141 355.300229,115.983747 355.0327,115.983747 C353.766397,115.983747 353.432773,115.089772 353.432773,113.234018 L353.432773,106.008157 C353.432773,101.666068 351.199694,100.109175 345.232753,100.109175 M312.075968,113.784799 C310.627641,113.784799 309.453137,114.952077 309.453137,116.39266 C309.453137,117.83272 310.627641,118.999999 312.075968,118.999999 C313.52482,118.999999 314.6988,117.83272 314.6988,116.39266 C314.6988,114.952077 313.52482,113.784799 312.075968,113.784799 M286.97285,96.607861 C286.97285,98.0484435 285.798346,99.2157221 284.350018,99.2157221 C282.901166,99.2157221 281.727187,98.0484435 281.727187,96.607861 C281.727187,95.1672786 282.901166,94 284.350018,94 C285.798346,94 286.97285,95.1672786 286.97285,96.607861" id="trusted_nic"></path>
            </g>
        </g>
    </g>
</svg>