<svg xmlns="http://www.w3.org/2000/svg" width="200" height="70" viewBox="0 0 200 70">
  <path fill="#FFF" d="M97.8602094,39.3226994 C97.8602094,40.1680982 97.6685864,40.8539877 97.3013089,41.3484663 C96.9340314,41.8429448 96.4230366,42.0981595 95.7842932,42.0981595 C95.097644,42.0981595 94.5706806,41.8269939 94.1874346,41.3165644 C93.8041885,40.806135 93.6125654,40.0723926 93.6125654,39.1153374 L93.6125654,25.5570552 L89.1253927,25.5570552 L89.1253927,39.8331288 C89.1253927,41.9067485 89.7002618,43.5177914 90.85,44.6343558 C91.9997382,45.7509202 93.6445026,46.3092025 95.7842932,46.3092025 C97.8442408,46.3092025 99.4570681,45.7509202 100.622775,44.6662577 C101.788482,43.5815951 102.363351,42.0822086 102.363351,40.1680982 L102.379319,40.1680982 L102.379319,25.5570552 L97.8602094,25.5570552 L97.8602094,39.3226994 Z M85.8039267,37.7595092 C85.3089005,36.9619632 84.478534,36.2920245 83.2808901,35.7337423 C84.2709424,35.1754601 84.9895288,34.5055215 85.4366492,33.7398773 C85.8837696,32.9742331 86.1073298,31.9852761 86.1073298,30.7570552 C86.1073298,29.2576687 85.5324607,27.997546 84.3986911,27.0245399 C83.2649215,26.0515337 81.7958115,25.5570552 80.0232984,25.5570552 L72.8054974,25.5570552 L72.8054974,46.0858896 L81.0772251,46.0858896 C82.6102094,46.0858896 83.8876963,45.5754601 84.941623,44.5865031 C85.9955497,43.5815951 86.5225131,42.3533742 86.5225131,40.9018405 C86.5225131,39.609816 86.2829843,38.5570552 85.8039267,37.7595092 Z M81.236911,42.002454 C80.8217277,42.4650307 80.2308901,42.7042945 79.4643979,42.7042945 L77.260733,42.7042945 L77.260733,28.8429448 L78.7458115,28.8429448 C80.6141361,28.8429448 81.5403141,29.7680982 81.5403141,31.602454 C81.5403141,32.4 81.3167539,33.0380368 80.8696335,33.5165644 C80.4225131,33.995092 79.8316754,34.2343558 79.0811518,34.2343558 L78.7458115,34.2343558 L78.7458115,37.3447853 L79.0811518,37.3447853 C80.9335079,37.3447853 81.8596859,38.2539877 81.8596859,40.0564417 C81.8596859,40.8858896 81.6520942,41.5398773 81.236911,42.002454 Z M113.844764,35.7496933 C113.317801,35.1754601 112.407592,34.393865 111.146073,33.3889571 C109.932461,32.4159509 109.325654,31.5705521 109.325654,30.8527607 C109.325654,30.4539877 109.517277,30.1030675 109.900524,29.7840491 C110.28377,29.4650307 110.714921,29.3055215 111.209948,29.3055215 C112.295812,29.3055215 113.44555,29.991411 114.627225,31.3631902 L114.627225,26.195092 C113.317801,25.4453988 112.008377,25.0785276 110.698953,25.0785276 C108.974346,25.0785276 107.537173,25.5889571 106.419372,26.6257669 C105.301571,27.6625767 104.74267,28.9705521 104.74267,30.5496933 C104.74267,31.2834356 104.886387,32.0171779 105.141885,32.7349693 C105.397382,33.4527607 105.796597,34.1705521 106.32356,34.8723926 C106.850524,35.590184 107.968325,36.6588957 109.660995,38.1104294 C110.73089,39.0196319 111.257853,39.8331288 111.257853,40.5668712 C111.257853,41.0613497 111.050262,41.4760736 110.635079,41.8110429 C110.203927,42.1460123 109.692932,42.3214724 109.070157,42.3214724 C107.68089,42.3214724 106.291623,41.5877301 104.902356,40.0883436 L104.902356,44.9374233 C106.339529,46.006135 107.808639,46.5325153 109.325654,46.5325153 C111.162042,46.5325153 112.679058,45.9582822 113.844764,44.793865 C115.010471,43.6294479 115.601309,42.1460123 115.601309,40.3276074 C115.601309,39.402454 115.441623,38.5570552 115.122251,37.7754601 C114.80288,37.009816 114.371728,36.3239264 113.844764,35.7496933 Z M157.279319,36.7865031 C158.508901,36.1325153 159.403141,35.3828221 159.962042,34.5533742 C160.520942,33.7398773 160.792408,32.7030675 160.792408,31.4269939 C160.792408,30.390184 160.536911,29.3693252 160.041885,28.396319 C159.53089,27.4233129 158.700524,26.7055215 157.534817,26.2429448 C156.36911,25.7803681 155.203403,25.5570552 154.021728,25.5570552 L147.282984,25.5570552 L147.282984,46.0858896 L151.818063,46.0858896 L151.818063,28.8588957 L153.590576,28.8588957 C155.23534,28.8588957 156.049738,29.8319018 156.049738,31.793865 C156.049738,32.6552147 155.842147,33.3730061 155.458901,33.9312883 C155.139529,34.409816 154.45288,34.6809816 153.335079,34.7607362 L153.335079,37.4564417 L156.385079,46.0699387 L161,46.0699387 L157.279319,36.7865031 Z M142.7,27.6625767 C142.013351,26.8331288 141.278796,26.195092 140.480366,25.7644172 C139.681937,25.3337423 138.62801,25.1104294 137.334555,25.1104294 C135.753665,25.1104294 134.460209,25.4773006 133.422251,26.2269939 C132.400262,26.9607362 131.569895,28.0134969 130.94712,29.3693252 C130.340314,30.7251534 130.020942,32.8466258 130.020942,35.7337423 C130.020942,39.6736196 130.691623,42.4650307 132.001047,44.1079755 C133.310471,45.7349693 135.082984,46.5484663 137.302618,46.5484663 C139.474346,46.5484663 141.246859,45.7668712 142.620157,44.1877301 C143.993455,42.608589 144.680105,39.7533742 144.680105,35.606135 C144.680105,33.596319 144.520419,31.9693252 144.201047,30.7411043 C143.881675,29.5128834 143.386649,28.4920245 142.7,27.6625767 Z M139.825654,39.9607362 C139.665969,40.7423313 139.346597,41.3325153 138.915445,41.7153374 C138.484293,42.0981595 138.005236,42.2895706 137.478272,42.2895706 C136.839529,42.2895706 136.280628,42.0981595 135.817539,41.6993865 C135.35445,41.3006135 135.051047,40.7582822 134.90733,40.0723926 C134.763613,39.3865031 134.699738,37.9668712 134.699738,35.797546 L134.699738,34.4736196 C134.699738,32.6871166 134.90733,31.395092 135.290576,30.597546 C135.705759,29.7840491 136.37644,29.3693252 137.318586,29.3693252 C137.973298,29.3693252 138.51623,29.592638 138.963351,30.0711656 C139.410471,30.5337423 139.713874,31.1558282 139.857592,31.9214724 C140.001309,32.6871166 140.081152,33.9631902 140.081152,35.7656442 C140.081152,37.7754601 140.001309,39.1791411 139.825654,39.9607362 Z M117.948691,46.0699387 L122.403927,46.0699387 L122.403927,37.5680982 L126.907068,37.5680982 L126.907068,33.7558282 L122.403927,33.7558282 L122.403927,29.5607362 L127.641623,29.5607362 L127.641623,25.5570552 L117.948691,25.5570552 L117.948691,46.0699387 Z M55.9586387,37.3288344 C54.8089005,35 53.6751309,31.8417178 52.0143979,31.5226994 C52.0143979,31.5226994 51.5513089,31.4588957 51.3117801,31.4588957 L39,31.4588957 L39,29.0184049 L52.6531414,29.0184049 C53.6751309,29.0981595 54.2659686,29.6564417 54.7769634,30.2944785 C56.4696335,32.4159509 58.0824607,35.3349693 58.6413613,37.3447853 C58.0664921,37.3288344 57.0764398,37.3288344 55.9586387,37.3288344 Z M51.1041885,40.9815951 C51.7109948,40.9815951 52.2060209,41.4760736 52.2060209,42.0822086 C52.2060209,42.209816 52.1900524,42.3214724 52.1421466,42.4490798 C51.9984293,42.8797546 51.5832461,43.1828221 51.1041885,43.1828221 C50.6251309,43.1828221 50.2099476,42.8797546 50.0662304,42.4490798 C50.0342932,42.3374233 50.002356,42.209816 50.002356,42.0981595 C50.002356,41.4760736 50.4973822,40.9815951 51.1041885,40.9815951 Z M53.4356021,42.401227 C53.4515707,42.2736196 53.4675393,42.1619632 53.4675393,42.0343558 C53.4675393,41.3803681 53.2120419,40.7742331 52.7649215,40.3116564 C52.3018325,39.8490798 51.6950262,39.593865 51.0562827,39.593865 C49.7149215,39.593865 48.6450262,40.6785276 48.6290576,42.0184049 C48.6290576,42.1460123 48.6450262,42.2576687 48.6609948,42.3852761 C48.7408377,42.8957055 48.9643979,43.3582822 49.3316754,43.7411043 C49.7947644,44.203681 50.4015707,44.4588957 51.0403141,44.4588957 C52.2379581,44.4588957 53.2439791,43.5656442 53.4356021,42.401227 Z M64.7573298,27.6466258 C66.0028796,29.9435583 67.4400524,33.2294479 67.4400524,34.9361963 C67.4400524,36.6429448 65.986911,39.9607362 64.7573298,42.2736196 C61.7073298,48 59.9667539,48 59.3280105,48 L42.2895288,48 C40.4691099,48 39,46.5484663 39,44.7619632 L39,42.209816 C41.858377,42.209816 45.4513089,42.209816 47.8465969,42.209816 C47.8306283,42.0822086 47.8306283,41.9865031 47.8306283,41.8588957 C47.8306283,40.0723926 49.2837696,38.6208589 51.0403141,38.6208589 C51.9185864,38.6208589 52.7329843,38.9558282 53.3397906,39.5779141 C53.9465969,40.1840491 54.2819372,40.997546 54.2819372,41.8748466 C54.2819372,42.002454 54.2659686,42.1141104 54.2659686,42.2417178 C57.3479058,42.2417178 59.232199,42.2576687 59.3918848,42.2576687 C60.0945026,42.2576687 60.158377,41.795092 60.158377,41.5558282 C60.158377,41.4122699 60.158377,40.3754601 60.158377,39.4981595 L58.7691099,39.4981595 L58.7691099,38.5730061 L60.1743455,38.5730061 C60.1743455,38.4134969 60.1743455,38.3177914 60.1743455,38.3177914 C60.1743455,36.4993865 57.8589005,31.9055215 55.5753927,29.3214724 L58.0824607,29.3214724 C58.5774869,29.3214724 58.9926702,29.7202454 59.0246073,30.2147239 L58.6413613,30.2147239 L58.6413613,32.8785276 L58.8010471,32.8466258 C59.3918848,32.7509202 59.8230366,32.3202454 59.8230366,31.8257669 L59.8230366,30.3582822 L59.8230366,30.2785276 C59.8230366,29.8 59.6314136,29.3533742 59.2960733,29.0184049 C58.960733,28.6834356 58.5136126,28.4920245 58.034555,28.4920245 L54.6971204,28.4760736 C54.0104712,27.8380368 53.3397906,27.790184 52.7649215,27.790184 L39,27.790184 L39,25.2380368 C39,23.4515337 40.4691099,22 42.2895288,22 L59.3280105,22 C59.9827225,22 61.7073298,22 64.7573298,27.6466258 Z M51.1520942,34.2662577 C51.471466,34.2662577 51.7748691,34.4417178 51.934555,34.7128834 L52.1900524,35.2871166 L39,35.2871166 L39,34.2662577 L51.1520942,34.2662577 Z M45.2277487,38.7803681 C45.0680628,39.0515337 44.6848168,39.2429448 44.2856021,39.2429448 L39,39.2429448 L39,38.6527607 L45.3075916,38.6527607 L45.2277487,38.7803681 Z" opacity=".55"/>
</svg>
