<?xml version="1.0" encoding="UTF-8"?>
<svg width="143px" height="49px" viewBox="0 0 143 32" version="1.1" xmlns="http://www.w3.org/2000/svg" xmlns:xlink="http://www.w3.org/1999/xlink">
    <!-- Generator: Sketch 46.2 (44496) - http://www.bohemiancoding.com/sketch -->
    <title>trusted_keepsnap</title>
    <desc>Created with Sketch.</desc>
    <defs></defs>
    <g id="mainpage" stroke="none" stroke-width="1" fill="none" fill-rule="evenodd">
        <g id="landing-v4.2" transform="translate(-831.000000, -2123.000000)" opacity="0.4"  fill="#FFFFFF">
            <g id="Group-2" transform="translate(221.000000, 2032.000000)">
                <path d="M645.330071,94.047619 C645.330071,92.1428571 643.793981,91 641.873869,91 L613.456203,91 C611.53609,91 610,92.1428571 610,94.047619 L610,119.190476 C610,121.47619 611.53609,123 613.840225,123 L645.330071,123 C647.01977,123 648.402251,121.628571 648.402251,119.952381 L648.402251,99.3809524 C648.402251,97.704381 647.01977,96.3333333 645.330071,96.3333333 L645.330071,94.047619 Z M645.330071,97.8571429 C645.494049,97.8571429 645.659947,97.8830476 645.825076,97.9340952 L645.595047,98.6613333 C645.504802,98.6331429 645.416092,98.6190476 645.330071,98.6190476 L644.180308,98.6190476 L644.180308,97.8571429 L645.330071,97.8571429 Z M641.873869,92.5238095 C643.409959,92.5238095 643.793981,93.3809524 643.793981,94.4285714 L643.793981,96.3333333 L613.456203,96.3333333 C611.920113,96.3333333 611.53609,95.5714286 611.53609,94.4285714 C611.53609,93.2857143 611.920113,92.5238095 613.456203,92.5238095 L641.873869,92.5238095 Z M641.108128,97.8571429 L642.641914,97.8571429 L642.641914,98.6190476 L641.108128,98.6190476 L641.108128,97.8571429 Z M635.250248,108.608381 L632.282138,110.257143 L632.282138,104.395048 C633.818228,105.280762 634.931894,106.808762 635.250248,108.608381 Z M631.891587,97.8571429 L633.425373,97.8571429 L633.425373,98.6190476 L631.891587,98.6190476 L631.891587,97.8571429 Z M634.963768,97.8571429 L636.497554,97.8571429 L636.497554,98.6190476 L634.963768,98.6190476 L634.963768,97.8571429 Z M631.25603,103.924571 L631.25603,107.33981 L626.024876,104.455619 C626.95229,103.897905 628.037154,103.571429 629.201126,103.571429 C629.92232,103.571429 630.612793,103.697905 631.25603,103.924571 Z M625.747227,97.8571429 L627.281013,97.8571429 L627.281013,98.6190476 L625.747227,98.6190476 L625.747227,97.8571429 Z M628.819407,97.8571429 L630.353193,97.8571429 L630.353193,98.6190476 L628.819407,98.6190476 L628.819407,97.8571429 Z M611.103681,96.9097143 C611.311053,97.2784762 611.605214,97.5062857 612.057977,97.648 L611.827179,98.3744762 C611.181637,98.1725714 610.738859,97.8251429 610.432793,97.2807619 L611.103681,96.9097143 Z M611.447381,119.92381 L612.120956,119.557333 C612.316808,119.910476 612.636699,120.187429 613.07218,120.379048 L612.760354,121.075429 C612.168191,120.814476 611.726565,120.427048 611.447381,119.92381 Z M613.47502,97.8438095 C613.707353,97.8533333 613.957352,97.8571429 614.224248,97.8571429 L614.992293,97.8571429 L614.992293,98.6190476 L614.224248,98.6190476 C613.945831,98.6190476 613.685848,98.6148571 613.44353,98.6049524 L613.47502,97.8438095 Z M615.228467,121.47619 C615.004581,121.47619 614.785689,121.467429 614.577548,121.450667 L614.63976,120.691048 C614.835996,120.707048 615.032999,120.714286 615.228467,120.714286 L616.14436,120.714286 L616.14436,121.47619 L615.228467,121.47619 Z M616.530687,97.8571429 L618.064473,97.8571429 L618.064473,98.6190476 L616.530687,98.6190476 L616.530687,97.8571429 Z M617.68045,120.714286 L619.21654,120.714286 L619.21654,121.47619 L617.68045,121.47619 L617.68045,120.714286 Z M619.602867,97.8571429 L621.136653,97.8571429 L621.136653,98.6190476 L619.602867,98.6190476 L619.602867,97.8571429 Z M620.75263,120.714286 L622.28872,120.714286 L622.28872,121.47619 L620.75263,121.47619 L620.75263,120.714286 Z M622.675047,97.8571429 L624.208833,97.8571429 L624.208833,98.6190476 L622.675047,98.6190476 L622.675047,97.8571429 Z M628.137767,106.786667 L623.056766,109.609905 C623.073663,107.824 623.866669,106.225143 625.115894,105.121143 L628.137767,106.786667 Z M623.824811,120.714286 L625.360901,120.714286 L625.360901,121.47619 L623.824811,121.47619 L623.824811,120.714286 Z M623.152003,110.724571 L626.119345,109.07581 L626.119345,114.939048 C624.584023,114.05219 623.470358,112.524571 623.152003,110.724571 Z M626.896991,120.714286 L628.433081,120.714286 L628.433081,121.47619 L626.896991,121.47619 L626.896991,120.714286 Z M629.969171,120.714286 L631.505261,120.714286 L631.505261,121.47619 L629.969171,121.47619 L629.969171,120.714286 Z M627.146221,115.408381 L627.146221,111.993143 L632.377376,114.877333 C631.449962,115.435048 630.365098,115.761905 629.201126,115.761905 C628.479931,115.761905 627.788691,115.635429 627.146221,115.408381 Z M633.041351,120.714286 L634.577441,120.714286 L634.577441,121.47619 L633.041351,121.47619 L633.041351,120.714286 Z M630.264484,112.546667 L635.345486,109.723048 C635.328973,111.508952 634.535583,113.10819 633.285973,114.212571 L630.264484,112.546667 Z M636.113531,120.714286 L637.649621,120.714286 L637.649621,121.47619 L636.113531,121.47619 L636.113531,120.714286 Z M638.035948,97.8571429 L639.569734,97.8571429 L639.569734,98.6190476 L638.035948,98.6190476 L638.035948,97.8571429 Z M639.185711,120.714286 L640.721801,120.714286 L640.721801,121.47619 L639.185711,121.47619 L639.185711,120.714286 Z M642.257891,120.714286 L643.793981,120.714286 L643.793981,121.47619 L642.257891,121.47619 L642.257891,120.714286 Z M640.337779,102.809524 C639.704142,102.809524 639.185711,102.295238 639.185711,101.666667 C639.185711,101.038095 639.704142,100.52381 640.337779,100.52381 L643.409959,100.52381 C644.043596,100.52381 644.562026,101.038095 644.562026,101.666667 C644.562026,102.295238 644.043596,102.809524 643.409959,102.809524 L640.337779,102.809524 Z M645.094282,121.47619 L645.094282,120.714286 L645.330071,120.714286 C645.615016,120.714286 645.939131,120.550476 646.174537,120.286476 L646.749035,120.792 C646.366548,121.22019 645.835829,121.47619 645.330071,121.47619 L645.094282,121.47619 Z M646.482139,117.666667 L647.250184,117.666667 L647.250184,119.190476 L646.482139,119.190476 L646.482139,117.666667 Z M646.482139,114.619048 L647.250184,114.619048 L647.250184,116.142857 L646.482139,116.142857 L646.482139,114.619048 Z M646.482139,111.571429 L647.250184,111.571429 L647.250184,113.095238 L646.482139,113.095238 L646.482139,111.571429 Z M646.482139,108.52381 L647.250184,108.52381 L647.250184,110.047619 L646.482139,110.047619 L646.482139,108.52381 Z M646.482139,105.47619 L647.250184,105.47619 L647.250184,107 L646.482139,107 L646.482139,105.47619 Z M646.482139,102.428571 L647.250184,102.428571 L647.250184,103.952381 L646.482139,103.952381 L646.482139,102.428571 Z M646.482139,100.832381 L646.482139,99.7619048 C646.482139,99.6613333 646.462554,99.5565714 646.422999,99.4506667 L647.14381,99.1866667 C647.214086,99.3771429 647.250184,99.5710476 647.250184,99.7619048 L647.250184,100.832381 L646.482139,100.832381 Z M664.652164,110.293333 C664.427895,109.856762 664.299248,109.399619 664.267758,108.923429 L664.267758,117.025524 L660.976685,117.025524 L660.976685,101.082667 L661.385285,101.035048 C661.513164,101.019429 661.637203,101.003429 661.757403,100.987429 C661.877218,100.97181 661.993576,100.96381 662.106095,100.96381 C662.313467,100.96381 662.546185,100.987429 662.802328,101.035048 C663.058471,101.082667 663.294645,101.170286 663.510849,101.297143 C663.727438,101.424381 663.907161,101.611048 664.051553,101.857524 C664.195945,102.104 664.267758,102.425524 664.267758,102.822476 L664.267758,108.637333 C664.299248,108.240381 664.407926,107.870857 664.592257,107.529143 C664.775819,107.187429 664.996248,106.857905 665.252775,106.54019 L668.543848,102.250667 C668.912126,101.773714 669.280404,101.440381 669.649065,101.249524 C670.016959,101.059048 670.40943,100.96381 670.826478,100.96381 C671.242375,100.96381 671.618717,101.031238 671.95512,101.166095 C672.29114,101.301333 672.563412,101.472381 672.771936,101.678476 L667.462825,108.708952 L673.444744,116.739429 C672.819939,117.105143 672.18707,117.287619 671.546904,117.287619 C670.473562,117.287619 669.616807,116.875048 668.976258,116.048762 L665.444787,111.520381 C665.140641,111.139429 664.876049,110.730667 664.652164,110.293333 Z M680.161298,114.868952 C680.465443,114.781333 680.737715,114.674286 680.978113,114.547048 C681.218127,114.42019 681.426268,114.281524 681.602534,114.129905 C681.778416,113.979429 681.938938,113.840381 682.08333,113.713143 C682.275341,113.951238 682.475033,114.257143 682.683557,114.630476 C682.891314,115.00381 682.996152,115.309714 682.996152,115.54819 C682.996152,115.897524 682.795308,116.215619 682.395156,116.501714 C682.059137,116.755429 681.581797,116.974095 680.965825,117.156952 C680.349085,117.339048 679.624434,117.430476 678.791873,117.430476 C678.038805,117.430476 677.29841,117.335619 676.569919,117.144762 C675.841044,116.953905 675.192046,116.620571 674.623693,116.143619 C674.05534,115.667429 673.594897,115.02781 673.242364,114.225524 C672.890215,113.423619 672.714333,112.410667 672.714333,111.187048 C672.714333,110.185905 672.870246,109.324571 673.182456,108.601524 C673.495051,107.878857 673.911331,107.278857 674.432066,106.802286 C674.952032,106.325714 675.540739,105.976381 676.197417,105.753524 C676.854096,105.531429 677.526903,105.42019 678.215455,105.42019 C679.112148,105.42019 679.872897,105.559238 680.497317,105.836952 C681.122122,106.115048 681.630568,106.488381 682.023039,106.956952 C682.415126,107.425905 682.699302,107.962286 682.875953,108.565714 C683.051835,109.169524 683.14016,109.804952 683.14016,110.472 L683.14016,110.805714 C683.14016,110.933333 683.135552,111.06819 683.128255,111.210667 C683.119807,111.353905 683.112127,111.492952 683.104062,111.62819 C683.095614,111.763048 683.083325,111.870095 683.06758,111.949714 L676.005022,111.949714 C676.069154,112.824 676.34181,113.550476 676.821838,114.129905 C677.302634,114.710095 678.062998,115 679.104084,115 C679.504235,115 679.856768,114.95619 680.161298,114.868952 Z M679.740793,108.303619 C679.444327,107.827048 678.912072,107.588571 678.143259,107.588571 C677.470452,107.588571 676.942037,107.814857 676.55763,108.26781 C676.173224,108.720381 675.981212,109.352 675.981212,110.162286 L680.185491,110.162286 C680.185491,109.399619 680.036874,108.78019 679.740793,108.303619 Z M691.252252,114.868952 C691.556398,114.781333 691.82867,114.674286 692.069068,114.547048 C692.309466,114.42019 692.517606,114.281524 692.693872,114.129905 C692.869755,113.979429 693.030276,113.840381 693.174668,113.713143 C693.366296,113.951238 693.566371,114.257143 693.774896,114.630476 C693.982652,115.00381 694.08749,115.309714 694.08749,115.54819 C694.08749,115.897524 693.886646,116.215619 693.486495,116.501714 C693.150091,116.755429 692.673135,116.974095 692.057547,117.156952 C691.440423,117.339048 690.715772,117.430476 689.883212,117.430476 C689.130143,117.430476 688.389364,117.335619 687.661257,117.144762 C686.932382,116.953905 686.283384,116.620571 685.715031,116.143619 C685.146294,115.667429 684.685851,115.02781 684.333702,114.225524 C683.981553,113.423619 683.805287,112.410667 683.805287,111.187048 C683.805287,110.185905 683.961584,109.324571 684.273795,108.601524 C684.586389,107.878857 685.002285,107.278857 685.52302,106.802286 C686.04337,106.325714 686.631693,105.976381 687.288755,105.753524 C687.945434,105.531429 688.617857,105.42019 689.306794,105.42019 C690.203486,105.42019 690.964235,105.559238 691.588655,105.836952 C692.21346,106.115048 692.721522,106.488381 693.114377,106.956952 C693.506464,107.425905 693.790257,107.962286 693.966907,108.565714 C694.142789,109.169524 694.231498,109.804952 694.231498,110.472 L694.231498,110.805714 C694.231498,110.933333 694.22689,111.06819 694.21921,111.210667 C694.210761,111.353905 694.203465,111.492952 694.1954,111.62819 C694.186952,111.763048 694.174663,111.870095 694.158918,111.949714 L687.09636,111.949714 C687.160108,112.824 687.432764,113.550476 687.913176,114.129905 C688.393972,114.710095 689.153953,115 690.195422,115 C690.595957,115 690.948106,114.95619 691.252252,114.868952 Z M690.832131,108.303619 C690.535282,107.827048 690.003411,107.588571 689.234597,107.588571 C688.56179,107.588571 688.033375,107.814857 687.648969,108.26781 C687.264562,108.720381 687.072167,109.352 687.072167,110.162286 L691.276829,110.162286 C691.276829,109.399619 691.128212,108.78019 690.832131,108.303619 Z M699.772559,105.884952 C700.317103,105.574857 701.00604,105.42019 701.838984,105.42019 C702.431531,105.42019 702.99566,105.519238 703.533292,105.718095 C704.069387,105.916952 704.545575,106.238476 704.961856,106.683429 C705.37852,107.128 705.710315,107.71619 705.959162,108.446857 C706.207241,109.177524 706.33128,110.075048 706.33128,111.139429 C706.33128,112.378286 706.187271,113.399238 705.899255,114.201524 C705.610854,115.00381 705.238352,115.639619 704.781749,116.10819 C704.32553,116.576762 703.812476,116.906667 703.244507,117.097143 C702.67577,117.287619 702.119321,117.383238 701.575161,117.383238 C701.11011,117.383238 700.705734,117.331048 700.36165,117.22819 C700.016798,117.124952 699.725325,117.009905 699.484542,116.882667 C699.244528,116.755429 699.060198,116.628952 698.932318,116.501714 C698.803671,116.374095 698.724178,116.286857 698.69192,116.239238 L698.69192,122.220571 L695.449234,122.220571 L695.449234,105.753524 L695.737635,105.705905 C695.833256,105.690286 695.945391,105.678476 696.073654,105.670095 C696.201534,105.662476 696.353607,105.658286 696.529873,105.658286 C697.058288,105.658286 697.506442,105.745524 697.875104,105.920381 C698.243382,106.095619 698.476099,106.389333 698.572105,106.802286 C698.827864,106.500571 699.228399,106.194286 699.772559,105.884952 Z M702.799809,109.87619 C702.719164,109.463238 702.587828,109.105905 702.403882,108.80381 C702.219935,108.502476 701.971088,108.26781 701.658494,108.100952 C701.346668,107.934095 700.966101,107.851048 700.517947,107.851048 C699.845524,107.851048 699.376632,107.978286 699.112809,108.232381 C698.847833,108.486476 698.716497,108.764571 698.716497,109.066286 L698.716497,114.118476 C698.843993,114.245714 699.072102,114.396571 699.400826,114.571048 C699.728781,114.746286 700.109347,114.833143 700.54214,114.833143 C701.358188,114.833143 701.959568,114.51581 702.34359,113.88 C702.727613,113.244571 702.920392,112.354667 702.920392,111.210667 C702.920392,110.734095 702.879685,110.289524 702.799809,109.87619 Z M709.353153,114.392 C710.001767,114.733714 710.77442,114.904762 711.671113,114.904762 C712.007517,114.904762 712.335088,114.865143 712.656131,114.785524 C712.976021,114.706286 713.260582,114.582857 713.509429,114.416 C713.757123,114.249524 713.961423,114.031238 714.121561,113.760762 C714.281314,113.490667 714.361575,113.157333 714.361575,112.76 C714.361575,112.347048 714.273249,111.997333 714.097367,111.711238 C713.921101,111.425524 713.689151,111.183619 713.400366,110.984762 C713.112733,110.786286 712.77633,110.615238 712.392307,110.472 C712.007517,110.329143 711.614662,110.185905 711.214894,110.043048 C710.701456,109.868571 710.185714,109.677714 709.665363,109.471238 C709.145013,109.264762 708.676121,108.995048 708.259841,108.661333 C707.843176,108.327238 707.503317,107.902857 707.239109,107.385905 C706.974902,106.870095 706.842798,106.214476 706.842798,105.42019 C706.842798,104.657524 706.994871,103.982476 707.298633,103.394286 C707.602778,102.806857 708.019827,102.318476 708.548242,101.928762 C709.076657,101.53981 709.685332,101.246095 710.373885,101.047238 C711.062437,100.848381 711.791312,100.748952 712.560125,100.748952 C713.08854,100.748952 713.581241,100.788952 714.037844,100.86819 C714.494062,100.94781 714.902278,101.043429 715.262491,101.154286 C715.622705,101.265905 715.92685,101.380571 716.175697,101.49981 C716.423392,101.619048 716.611179,101.726095 716.739826,101.821714 C717.18798,102.07619 717.412634,102.433524 717.412634,102.894095 C717.412634,103.084571 717.328533,103.343238 717.160715,103.668571 C716.992129,103.994286 716.755571,104.31581 716.451425,104.633524 C716.051274,104.31581 715.534763,104.013714 714.902278,103.728 C714.269409,103.442286 713.593146,103.299048 712.872335,103.299048 C712.584318,103.299048 712.287469,103.327238 711.983323,103.382476 C711.679177,103.438476 711.403065,103.533714 711.154603,103.668571 C710.906524,103.80381 710.701456,103.990095 710.541703,104.228571 C710.381949,104.466667 710.301689,104.760762 710.301689,105.110095 C710.301689,105.44381 710.381949,105.734095 710.541703,105.98019 C710.701456,106.226286 710.918429,106.441143 711.190701,106.623619 C711.462973,106.806476 711.779407,106.969143 712.13962,107.112 C712.499834,107.254857 712.872335,107.398095 713.256742,107.540952 C713.769028,107.731429 714.289378,107.938286 714.817793,108.160762 C715.346208,108.383238 715.827389,108.665143 716.259414,109.006476 C716.692207,109.34819 717.043972,109.777524 717.316628,110.293333 C717.588516,110.810286 717.725228,111.457524 717.725228,112.23581 C717.725228,113.078095 717.576611,113.82019 717.280146,114.463619 C716.984064,115.107048 716.572008,115.65181 716.043593,116.096381 C715.515178,116.541333 714.878085,116.875048 714.133465,117.097143 C713.38923,117.319619 712.57587,117.430476 711.694922,117.430476 C710.541703,117.430476 709.608912,117.315429 708.89655,117.084952 C708.183804,116.854857 707.667294,116.64419 707.347403,116.453714 C707.154624,116.326857 706.994871,116.176 706.866607,116.001143 C706.738344,115.826667 706.674596,115.62781 706.674596,115.405333 C706.674596,115.135238 706.782506,114.809143 706.998711,114.42819 C707.214916,114.046857 707.451474,113.689143 707.707617,113.35581 C708.155771,113.705524 708.704155,114.051048 709.353153,114.392 Z M718.873455,117.025524 L718.873455,105.753524 L719.161856,105.705905 C719.257478,105.690286 719.369612,105.678476 719.49826,105.670095 C719.626139,105.662476 719.777828,105.658286 719.954479,105.658286 C720.466765,105.658286 720.910695,105.749714 721.287805,105.93219 C721.663379,106.115048 721.900705,106.436952 721.996326,106.897524 C722.268598,106.532571 722.684495,106.194286 723.245552,105.884952 C723.80584,105.574857 724.566973,105.42019 725.527797,105.42019 C726.664888,105.42019 727.505513,105.642667 728.050057,106.087238 C728.594217,106.532571 728.94675,107.12 729.107271,107.851048 C729.186764,108.216381 729.239375,108.613333 729.263184,109.042667 C729.286994,109.471238 729.299282,109.89219 729.299282,110.305524 L729.299282,117.025524 L726.032019,117.025524 L726.032019,110.448 C726.032019,110.099048 726.020114,109.772952 725.996305,109.471238 C725.972495,109.169524 725.907596,108.911238 725.80391,108.696762 C725.699455,108.482286 725.531638,108.315429 725.299688,108.19619 C725.067354,108.076952 724.742855,108.017524 724.326191,108.017524 C723.734028,108.017524 723.225198,108.140952 722.800853,108.387048 C722.376893,108.633524 722.164144,108.939429 722.164144,109.304381 L722.164144,117.025524 L718.873455,117.025524 Z M740.949758,117.001524 C740.661741,117.112762 740.393309,117.192381 740.14523,117.24 C739.896768,117.287619 739.636401,117.311619 739.364513,117.311619 C738.787711,117.311619 738.351461,117.2 738.05538,116.977905 C737.75853,116.755429 737.570743,116.438095 737.490867,116.024762 C737.138334,116.390476 736.674051,116.70019 736.097249,116.953905 C735.520447,117.208 734.81615,117.335619 733.983205,117.335619 C733.55118,117.335619 733.119154,117.27581 732.686361,117.156952 C732.253568,117.037333 731.861097,116.843048 731.509332,116.572952 C731.156799,116.302857 730.868398,115.941333 730.644513,115.488381 C730.420244,115.03581 730.307726,114.48419 730.307726,113.832381 C730.307726,113.022095 730.503961,112.363048 730.896432,111.854095 C731.288903,111.345905 731.781604,110.944762 732.373767,110.650667 C732.966313,110.356952 733.607247,110.154286 734.295799,110.043048 C734.983968,109.93219 735.616837,109.860952 736.193255,109.828571 C736.38565,109.812952 736.573821,109.804952 736.758152,109.804952 L737.274662,109.804952 L737.274662,109.376 C737.274662,108.772571 737.110684,108.343238 736.782345,108.089143 C736.453622,107.835048 735.920983,107.70781 735.184427,107.70781 C734.495491,107.70781 733.883743,107.819048 733.34688,108.041524 C732.810016,108.264381 732.285826,108.518095 731.773155,108.80381 C731.548886,108.534095 731.36878,108.23619 731.232452,107.910476 C731.096508,107.584762 731.028536,107.342476 731.028536,107.183238 C731.028536,106.977524 731.152575,106.766476 731.401038,106.552 C731.649116,106.337524 731.989744,106.146667 732.422154,105.98019 C732.854179,105.813333 733.350336,105.678476 733.911777,105.574857 C734.471682,105.471619 735.064228,105.42019 735.689417,105.42019 C736.553468,105.42019 737.286567,105.50781 737.887562,105.682286 C738.487405,105.857143 738.975498,106.127238 739.352608,106.492571 C739.728182,106.857905 739.997382,107.314667 740.157519,107.862476 C740.317272,108.410667 740.397533,109.050667 740.397533,109.780952 L740.397533,114.260952 C740.397533,115.500571 740.581096,116.414476 740.949758,117.001524 Z M736.986261,111.496762 C736.874127,111.496762 736.761992,111.505143 736.649857,111.520381 C736.249706,111.552762 735.853011,111.60419 735.460924,111.675429 C735.068453,111.747048 734.720144,111.858667 734.415998,112.009143 C734.111469,112.160762 733.863006,112.363048 733.670995,112.616762 C733.478983,112.871238 733.383362,113.196952 733.383362,113.593905 C733.383362,114.038857 733.510857,114.416 733.767384,114.726095 C734.023143,115.03581 734.455553,115.190857 735.064228,115.190857 C735.368374,115.190857 735.656391,115.151238 735.929431,115.071238 C736.201703,114.992381 736.441717,114.889143 736.649857,114.761524 C736.857614,114.634667 737.022743,114.495619 737.142174,114.344762 C737.262757,114.193524 737.323049,114.054857 737.323049,113.927619 L737.323049,111.496762 L736.986261,111.496762 Z M746.442048,105.884952 C746.985823,105.574857 747.675144,105.42019 748.508089,105.42019 C749.100635,105.42019 749.66438,105.519238 750.201244,105.718095 C750.737339,105.916952 751.213911,106.238476 751.63096,106.683429 C752.046856,107.128 752.37942,107.71619 752.627498,108.446857 C752.876345,109.177524 753,110.075048 753,111.139429 C753,112.378286 752.855608,113.399238 752.567207,114.201524 C752.278806,115.00381 751.906688,115.639619 751.450085,116.10819 C750.993866,116.576762 750.481196,116.906667 749.913227,117.097143 C749.343722,117.287619 748.787273,117.383238 748.243497,117.383238 C747.778446,117.383238 747.374838,117.331048 747.030754,117.22819 C746.685518,117.124952 746.393277,117.009905 746.153263,116.882667 C745.913249,116.755429 745.728918,116.628952 745.601038,116.501714 C745.472775,116.374095 745.39213,116.286857 745.360256,116.239238 L745.360256,122.220571 L742.117954,122.220571 L742.117954,105.753524 L742.405971,105.705905 C742.501977,105.690286 742.614111,105.678476 742.741991,105.670095 C742.870254,105.662476 743.022327,105.658286 743.198977,105.658286 C743.727008,105.658286 744.175163,105.745524 744.543824,105.920381 C744.912102,106.095619 745.144435,106.389333 745.240825,106.802286 C745.496584,106.500571 745.897504,106.194286 746.442048,105.884952 Z M749.468913,109.87619 C749.388268,109.463238 749.256549,109.105905 749.072218,108.80381 C748.887887,108.502476 748.639424,108.26781 748.327214,108.100952 C748.015388,107.934095 747.634821,107.851048 747.186667,107.851048 C746.51386,107.851048 746.045736,107.978286 745.781145,108.232381 C745.516937,108.486476 745.385218,108.764571 745.385218,109.066286 L745.385218,114.118476 C745.512713,114.245714 745.741206,114.396571 746.069546,114.571048 C746.397885,114.746286 746.778067,114.833143 747.210093,114.833143 C748.026908,114.833143 748.62752,114.51581 749.011926,113.88 C749.396333,113.244571 749.588728,112.354667 749.588728,111.210667 C749.588728,110.734095 749.54879,110.289524 749.468913,109.87619 Z" id="trusted_keepsnap"></path>
            </g>
        </g>
    </g>
</svg>