<?xml version="1.0" encoding="UTF-8"?>
<svg width="200px" height="70px" viewBox="0 0 200 70" version="1.1" xmlns="http://www.w3.org/2000/svg" xmlns:xlink="http://www.w3.org/1999/xlink">
    <!-- Generator: Sketch 47.1 (45422) - http://www.bohemiancoding.com/sketch -->
    <title>trusted_nic</title>
    <desc>Created with Sketch.</desc>
    <defs></defs>
    <g id="mainpage" stroke="none" stroke-width="1" fill="none" fill-rule="evenodd">
        <g id="landing-v4.2" transform="translate(-420.000000, -2107.000000)">
            <g id="Group-2" transform="translate(220.000000, 2032.000000)">
                <g id="nic" transform="translate(200.000000, 75.000000)">
                    <rect id="Rectangle-10" x="0" y="0" width="200" height="70"></rect>
                    <path d="M78.383237,26.266544 C78.2363585,26.1210253 78.033876,26.0375738 77.8256231,26.0375738 L74.8738888,26.0375738 C74.6661605,26.0375738 74.4631534,26.1210253 74.3178485,26.266544 C74.17097,26.4131058 74.0859902,26.6144327 74.0859902,26.8199321 L74.0859902,43.1028948 C74.0859902,43.3094375 74.17097,43.5112859 74.3178485,43.6568046 C74.4631534,43.8018016 74.6661605,43.8852531 74.8738888,43.8852531 L77.8256231,43.8852531 C78.0370233,43.8852531 78.2347848,43.8033664 78.3821879,43.6568046 C78.5306402,43.5091996 78.6135217,43.3125669 78.6135217,43.1028948 L78.6135217,26.8199321 C78.6135217,26.6144327 78.5285419,26.4131058 78.383237,26.266544 M66.7247518,43.8852531 C66.5180727,43.8852531 66.3150656,43.8018016 66.1687115,43.6557614 C66.0213084,43.5112859 65.9373778,43.3094375 65.9373778,43.1028948 L65.9373778,33.6598301 C65.9431481,32.0784231 65.4432364,31.2600763 64.9989288,30.6926058 C64.5661616,30.1350451 63.5075868,29.5821786 62.1521076,29.5686177 L61.9092335,29.5686177 C59.2885004,29.5686177 57.5621528,31.6011846 57.5275314,34.8406695 L57.5275314,43.1028948 C57.5275314,43.3115237 57.4456991,43.5081564 57.2972469,43.6557614 C57.1477455,43.8033664 56.9505086,43.8852531 56.740682,43.8852531 L53.787374,43.8852531 C53.5806949,43.8852531 53.3776877,43.8018016 53.2313337,43.6557614 C53.0849797,43.5112859 53,43.3094375 53,43.1028948 L53,26.8194105 C53,26.6139111 53.0849797,26.4120626 53.2313337,26.266544 C53.3776877,26.1205038 53.5806949,26.0370522 53.787374,26.0370522 L56.740682,26.0370522 C56.9473612,26.0370522 57.1503683,26.1205038 57.2972469,26.266544 C57.4436008,26.4120626 57.5275314,26.6139111 57.5275314,26.8194105 L57.5275314,27.6622712 C59.0807722,26.3416504 60.6125057,25.5175663 62.9798732,25.5222605 L63.1713399,25.5222605 C65.7852536,25.5092212 67.6275304,26.4078901 68.7306932,27.8948924 C69.8265121,29.3735496 70.459139,31.2162643 70.4643847,33.417299 L70.4643847,43.1028948 C70.4643847,43.3115237 70.3825524,43.5081564 70.2341001,43.6557614 C70.0851233,43.8033664 69.8873618,43.8852531 69.6775354,43.8852531 L66.7247518,43.8852531 M95.1210975,38.3972704 C94.3421166,39.3100217 92.9829654,39.7074598 91.2618635,39.7105892 C89.5391879,39.7085029 88.2597707,39.2114446 87.3947609,38.3696271 C86.5318495,37.5241585 86.5496847,36.2833382 86.5454882,34.5918795 C86.5496847,32.9004209 86.5318495,31.659079 87.3947609,30.8141321 C88.2597707,29.9723145 89.5391879,29.4752562 91.2618635,29.4726483 C92.9829654,29.4752562 94.2550386,29.9691851 95.1100816,30.8120458 C95.3875772,31.0853496 95.7710351,31.2449507 96.2232112,30.9789489 C97.0934667,30.4662434 98.4772724,29.6009551 98.7542434,29.4298794 C99.1602578,29.1790032 99.2221566,28.6626467 98.9771841,28.3158012 C98.8266336,28.1311646 98.6629689,27.9527869 98.4856655,27.7827544 C96.7388599,26.1027703 94.2351051,25.1806307 91.2618635,25.1827169 C88.2875728,25.1806307 85.7769986,26.1017272 84.022849,27.7817113 C82.265552,29.4580443 81.8317357,31.8619706 81.8359322,34.6529035 C81.8317357,37.4412285 82.2671257,39.8216841 84.0280947,41.467766 C85.7869654,43.1169773 88.2928184,44.0010422 91.2618635,43.9999991 L91.2665845,43.9999991 C94.2319577,43.9999991 96.7294177,43.114891 98.4804199,41.4656797 C98.6587724,41.2987766 98.8229617,41.1235283 98.9745613,40.9399349 C99.1780931,40.7443453 99.3585438,40.09238 98.7972579,39.7736994 C98.1006339,39.3793909 96.8925578,38.5944247 96.2851101,38.2423634 C95.8565394,37.9951382 95.4405584,38.02226 95.1210975,38.3972704 M126.260925,25.6719517 L123.027498,25.6719517 L123.027498,34.7535669 C123.027498,38.730555 120.19484,41.2820863 116.394358,41.2820863 C113.161456,41.2820863 112.093964,39.658432 112.093964,36.0460229 L112.093964,25.6719517 L108.860537,25.6719517 L108.860537,36.9744214 C108.860537,41.9783851 111.327048,43.9999991 115.66049,43.9999991 C118.694581,43.9999991 121.060899,42.873403 123.027498,40.4866886 L123.027498,43.5029407 L126.260925,43.5029407 L126.260925,25.6719517 M135.299726,41.2820863 C132.766596,41.2820863 131.332956,40.1554903 131.332956,38.4655964 C131.332956,36.2781225 133.267032,35.9792616 136.766413,35.5823452 C139.466356,35.2834843 141.266143,34.9189053 142.199346,34.3556074 L142.199346,37.0072804 C142.199346,39.2604724 139.432784,41.2820863 135.299726,41.2820863 M137.232753,25.1091753 C131.7332,25.1091753 128.832873,27.1970288 128.599441,31.4061166 L131.966107,31.4061166 C132.13292,28.8535422 133.833563,27.8265665 137.466185,27.8265665 C140.699611,27.8265665 142.199346,28.6553447 142.199346,30.5773383 C142.199346,32.7319531 140.13308,32.6323327 136.16631,33.0631515 C131.066476,33.626971 127.899145,34.4880867 127.899145,38.6309348 C127.899145,41.9455262 130.266513,43.9999991 134.766767,43.9999991 C138.066289,43.9999991 140.666564,42.8071634 142.299014,40.7526905 C142.633163,42.6746841 143.566366,43.7016598 145.432773,43.7016598 C146.033401,43.7016598 146.966604,43.6354201 148,43.4695601 L148,40.8851699 C147.599231,40.9514095 147.300229,40.983747 147.0327,40.983747 C145.766397,40.983747 145.432773,40.0897722 145.432773,38.2340183 L145.432773,31.0081569 C145.432773,26.6660683 143.199694,25.1091753 137.232753,25.1091753 M104.075968,38.7847985 C102.627641,38.7847985 101.453137,39.9520772 101.453137,41.3926595 C101.453137,42.8327204 102.627641,43.9999991 104.075968,43.9999991 C105.52482,43.9999991 106.6988,42.8327204 106.6988,41.3926595 C106.6988,39.9520772 105.52482,38.7847985 104.075968,38.7847985 M78.9728495,21.607861 C78.9728495,23.0484435 77.7983457,24.2157221 76.3500182,24.2157221 C74.9011662,24.2157221 73.7271869,23.0484435 73.7271869,21.607861 C73.7271869,20.1672786 74.9011662,19 76.3500182,19 C77.7983457,19 78.9728495,20.1672786 78.9728495,21.607861" id="trusted_nic" fill-opacity="0.55" fill="#FFFFFF"></path>
                </g>
            </g>
        </g>
    </g>
</svg>