<?xml version="1.0" encoding="UTF-8"?>
<svg width="200px" height="70px" viewBox="0 0 200 70" version="1.1" xmlns="http://www.w3.org/2000/svg" xmlns:xlink="http://www.w3.org/1999/xlink">
    <!-- Generator: Sketch 47.1 (45422) - http://www.bohemiancoding.com/sketch -->
    <title>trusted_ks</title>
    <desc>Created with Sketch.</desc>
    <defs></defs>
    <g id="mainpage" stroke="none" stroke-width="1" fill="none" fill-rule="evenodd">
        <g id="landing-v4.2" transform="translate(-619.000000, -2107.000000)">
            <g id="Group-2" transform="translate(220.000000, 2032.000000)">
                <g id="Group-5" transform="translate(399.000000, 75.000000)">
                    <rect id="Rectangle-10" x="0" y="0" width="200" height="70"></rect>
                    <path d="M53.1710817,24.3648276 C51.5244515,24.3648276 50.1897828,23.0729131 50.1897828,21.4785128 L50.1897828,10.8886238 C50.1897828,9.29480082 51.5244515,8 53.1710817,8 C54.8165143,8 56.1511829,9.29480082 56.1511829,10.8886238 L56.1511829,21.4785128 C56.1511829,23.0729131 54.8165143,24.3648276 53.1710817,24.3648276 M46.2080514,29.2642892 C45.6996917,30.7813363 44.0183326,31.6108632 42.452537,31.1173033 L32.0608035,27.8459541 C30.4950079,27.3529716 29.6381614,25.7245128 30.146521,24.2063112 C30.6554795,22.6915732 32.335641,21.8614691 33.9020354,22.3550289 L44.2943677,25.6246463 C45.8601633,26.1176288 46.7170098,27.7466649 46.2080514,29.2642892 M60.1332138,29.2652706 C60.642771,30.7823176 62.3241301,31.612999 63.8893269,31.1194392 L74.2828568,27.8469355 C75.8474548,27.3551075 76.7037025,25.7254941 76.1953429,24.2084471 C75.687582,22.6937091 74.0056241,21.8624504 72.4398285,22.3560102 L62.0474962,25.6273594 C60.4822994,26.1191875 59.6248541,27.7488008 60.1332138,29.2652706 M38.9368318,50.4488007 C37.6039595,49.5119029 37.3087636,47.7062244 38.2751859,46.4160417 L44.6964449,37.8454186 C45.6634659,36.5558131 47.5268525,36.2694907 48.8603236,37.2052339 C50.1913995,38.1432862 50.4865954,39.9489648 49.5183769,41.2397248 L43.0989142,49.8091934 C42.1318932,51.0993761 40.2679078,51.3856985 38.9368318,50.4488007 M67.4070679,50.4488007 C68.7387427,49.5119029 69.0333398,47.7062244 68.0675163,46.4160417 L61.6468561,37.8454186 C60.6798351,36.5558131 58.815251,36.2694907 57.4829774,37.2052339 C56.1519015,38.1432862 55.8561068,39.9489648 56.8231278,41.2397248 L63.2431893,49.8091934 C64.2114078,51.0993761 66.0741956,51.3856985 67.4070679,50.4488007 M108.711499,26.3096265 C108.711499,28.0015842 107.288212,29.3743156 105.533203,29.3743156 C103.777596,29.3743156 102.355507,28.0015842 102.355507,26.3096265 C102.355507,24.618246 103.777596,23.2455147 105.533203,23.2455147 C107.288212,23.2455147 108.711499,24.618246 108.711499,26.3096265 M116.941417,26.3096265 C116.941417,28.0015842 115.516932,29.3743156 113.762522,29.3743156 C112.006316,29.3743156 110.58243,28.0015842 110.58243,26.3096265 C110.58243,24.618246 112.006316,23.2455147 113.762522,23.2455147 C115.516932,23.2455147 116.941417,24.618246 116.941417,26.3096265 M111.578133,31.8086334 C111.575737,31.5251973 111.336826,31.2937149 111.041631,31.2937149 L108.254335,31.2937149 C107.957941,31.2937149 107.71903,31.5251973 107.717234,31.8086334 L107.716036,42.8943913 C107.716036,43.1807137 107.955546,43.4121962 108.254335,43.4121962 L111.041631,43.4121962 C111.338024,43.4121962 111.578133,43.1807137 111.578133,42.8943913 L111.578133,31.8086334 Z M105.707147,31.2955621 L102.87195,31.2955621 C102.636631,31.2955621 102.447418,31.4294871 102.339639,31.6621241 L100.148124,36.390485 L97.9566088,31.6621241 C97.8506257,31.4294871 97.6578203,31.2955621 97.424897,31.2955621 L94.5885016,31.2955621 C94.257978,31.2955621 94.0310424,31.5824618 94.1975018,31.8953383 L98.2170758,39.2138781 L98.2170758,42.8956613 C98.2170758,43.182561 98.4571844,43.4140434 98.7541766,43.4140434 L101.542071,43.4140434 C101.840261,43.4140434 102.078573,43.182561 102.078573,42.8956613 L102.078573,39.2138781 L106.099944,31.8953383 C106.267002,31.5824618 106.037671,31.2955621 105.707147,31.2955621 M146.198562,31.2971207 L136.790616,31.2971207 C136.493025,31.297698 136.254114,31.5291805 136.254114,31.8137711 L136.254114,34.1557269 C136.254114,34.4414721 136.493623,34.6746863 136.790616,34.6746863 L139.755748,34.6746863 L139.75455,42.8977972 C139.75455,43.1846968 139.995257,43.4161793 140.291651,43.4161793 L142.732256,43.4161793 C143.02865,43.4161793 143.269956,43.1846968 143.269956,42.8977972 L143.269956,34.6746863 L146.198562,34.6746863 C146.496153,34.6746863 146.736861,34.4414721 146.736861,34.1557269 L146.736861,31.8137711 C146.736861,31.5291805 146.496153,31.2971207 146.198562,31.2971207 M158.969647,42.8129972 L154.659068,31.757257 C154.559672,31.467471 154.318365,31.2966012 153.950119,31.2966012 L150.696977,31.2966012 C150.326335,31.2966012 150.087424,31.467471 149.987429,31.757257 L145.675653,42.8129972 C145.546317,43.1449234 145.742117,43.4173915 146.110363,43.4173915 L148.850954,43.4173915 C149.071303,43.4173915 149.31261,43.2517171 149.384463,43.0508296 L149.941323,41.4275661 L154.705773,41.4275661 L155.262633,43.0508296 C155.335085,43.2517171 155.575193,43.4173915 155.797339,43.4173915 L158.535535,43.4173915 C158.90438,43.4173915 159.100778,43.1449234 158.969647,42.8129972 L158.969647,42.8129972 Z M150.933492,38.6520858 L152.32265,34.6776304 L153.714202,38.6520858 L150.933492,38.6520858 Z M124.593577,31.2971207 L122.026031,31.2971207 C121.804485,31.2971207 121.564376,31.4627952 121.494319,31.6636827 L119.118382,38.6756959 L116.737654,31.6636827 C116.665801,31.4627952 116.425692,31.2971207 116.205343,31.2971207 L113.636001,31.2971207 C113.269551,31.2971207 113.073752,31.5690116 113.203087,31.9003605 L117.128654,42.9561007 C117.228649,43.2476185 117.469356,43.4173338 117.8388,43.4173338 L120.392574,43.4173338 C120.762617,43.4173338 121.001528,43.2476185 121.102122,42.9561007 L125.02709,31.9003605 C125.15882,31.5690116 124.961224,31.2971207 124.593577,31.2971207 M167.611461,39.3904051 C169.48383,38.8847228 170.758621,37.5616361 170.758621,35.4823349 C170.758621,32.9400688 168.551537,31.2966012 165.913336,31.2966012 L160.660287,31.2966012 C160.363295,31.2966012 160.122587,31.5286609 160.122587,31.8138288 L160.122587,42.8972776 C160.122587,43.1841773 160.363295,43.4156598 160.660287,43.4156598 L163.098497,43.4156598 C163.396088,43.4156598 163.635598,43.1841773 163.635598,42.8972776 L163.635598,39.6236194 L163.647573,39.6236194 L166.266015,42.9988759 C166.482771,43.2534489 166.697731,43.4156598 167.011489,43.4156598 L169.85028,43.4156598 C170.26044,43.4156598 170.401751,42.9786717 170.187988,42.7200579 L167.611461,39.3904051 Z M163.635598,34.0969038 L165.600776,34.0969038 C166.848024,34.0969038 167.280938,34.6510763 167.280938,35.4615534 C167.280938,36.154269 166.944426,36.8706523 165.649277,36.8706523 L163.635598,36.8706523 L163.635598,34.0969038 Z M89.0747454,36.709596 L93.1027023,32.0164481 C93.3937067,31.6816356 93.2230559,31.2971785 92.7895431,31.2971785 L89.769324,31.2971785 C89.4807146,31.2971785 89.192704,31.4137856 88.9513978,31.6902945 L86.188053,35.0690146 L86.188053,31.921777 C86.188053,31.5061477 85.9695002,31.2971785 85.5365862,31.2971785 L83.3199225,31.2971785 C82.8870085,31.2971785 82.6702521,31.5061477 82.6702521,31.921777 L82.6702521,42.790484 C82.6702521,43.2089996 82.8870085,43.4173915 83.3199225,43.4173915 L85.5431727,43.4173915 C85.9766855,43.4173915 86.1922444,43.2089996 86.1922444,42.790484 L86.1922444,38.5793507 L89.9082397,42.9988759 C90.1249961,43.2557579 90.3417525,43.4173915 90.6537141,43.4173915 L93.7978796,43.4173915 C94.2068426,43.4173915 94.349351,42.9804035 94.1337921,42.7212124 L89.0747454,36.709596 Z M125.066369,40.8393929 C124.99751,40.7216313 124.974158,40.5813564 125.014276,40.4428132 C125.053196,40.3100428 125.142414,40.2055582 125.254983,40.1397502 L127.100407,39.0019649 C127.226748,38.91653 127.391411,38.8824715 127.550685,38.9251889 C127.686607,38.9638655 127.784207,39.0573821 127.862647,39.1572486 C128.70153,40.1582226 129.572747,40.8255386 130.80742,40.8255386 C131.525351,40.8255386 131.972636,40.4832216 131.972636,39.9348218 C131.972636,39.3044507 131.769651,38.885935 129.497301,38.2982814 C127.05969,37.6667557 125.710052,36.3223102 125.710052,34.5674309 C125.710052,32.7986971 127.290218,30.9173972 130.219423,30.9173972 C133.095937,30.9173972 134.383302,32.0090014 135.061714,32.6122412 L135.061714,32.6133957 C135.162907,32.7074896 135.223982,32.8373738 135.223982,32.9822668 C135.223982,33.1196554 135.167098,33.2426124 135.076683,33.3338199 L133.623457,34.8023769 C133.526456,34.9184067 133.378558,34.9928737 133.2115,34.9928737 C133.068992,34.9928737 132.982768,34.9478471 132.845649,34.8520215 C132.300764,34.4115699 131.396614,33.8337296 130.246967,33.8337296 C129.720045,33.8337296 129.162586,34.0732938 129.162586,34.5166317 C129.162586,34.9617015 129.523647,35.2947822 131.427152,35.7721786 C134.41863,36.5191569 135.64013,37.8422436 135.64013,39.8060922 C135.64013,42.1532434 133.59771,43.7920929 130.675091,43.7920929 C128.017729,43.7920929 126.158534,42.3298859 125.066369,40.8393929" id="trusted_ks" fill-opacity="0.55" fill="#FFFFFF"></path>
                </g>
            </g>
        </g>
    </g>
</svg>