<?xml version="1.0" encoding="UTF-8"?>
<svg width="200px" height="70px" viewBox="0 0 200 70" version="1.1" xmlns="http://www.w3.org/2000/svg" xmlns:xlink="http://www.w3.org/1999/xlink">
    <!-- Generator: Sketch 47.1 (45422) - http://www.bohemiancoding.com/sketch -->
    <title>trusted_keepsnap</title>
    <desc>Created with Sketch.</desc>
    <defs></defs>
    <g id="mainpage" stroke="none" stroke-width="1" fill="none" fill-rule="evenodd">
        <g id="landing-v4.2" transform="translate(-819.000000, -2107.000000)">
            <g id="Group-2" transform="translate(220.000000, 2032.000000)">
                <g id="keep" transform="translate(599.000000, 75.000000)">
                    <rect id="Rectangle-10" x="0" y="0" width="200" height="70"></rect>
                    <path d="M64.3300714,19.047619 C64.3300714,17.1428571 62.7939813,16 60.8738687,16 L32.4562026,16 C30.5360901,16 29,17.1428571 29,19.047619 L29,44.1904762 C29,46.4761905 30.5360901,48 32.8402251,48 L64.3300714,48 C66.0197704,48 67.4022515,46.6285714 67.4022515,44.952381 L67.4022515,24.3809524 C67.4022515,22.704381 66.0197704,21.3333333 64.3300714,21.3333333 L64.3300714,19.047619 Z M64.3300714,22.8571429 C64.494049,22.8571429 64.6599467,22.8830476 64.8250764,22.9340952 L64.5950469,23.6613333 C64.5048016,23.6331429 64.4160924,23.6190476 64.3300714,23.6190476 L63.180308,23.6190476 L63.180308,22.8571429 L64.3300714,22.8571429 Z M60.8738687,17.5238095 C62.4099588,17.5238095 62.7939813,18.3809524 62.7939813,19.4285714 L62.7939813,21.3333333 L32.4562026,21.3333333 C30.9201126,21.3333333 30.5360901,20.5714286 30.5360901,19.4285714 C30.5360901,18.2857143 30.9201126,17.5238095 32.4562026,17.5238095 L60.8738687,17.5238095 Z M60.1081278,22.8571429 L61.6419138,22.8571429 L61.6419138,23.6190476 L60.1081278,23.6190476 L60.1081278,22.8571429 Z M54.2502484,33.608381 L51.2821384,35.2571429 L51.2821384,29.3950476 C52.8182284,30.2807619 53.9318937,31.8087619 54.2502484,33.608381 Z M50.8915875,22.8571429 L52.4253734,22.8571429 L52.4253734,23.6190476 L50.8915875,23.6190476 L50.8915875,22.8571429 Z M53.9637676,22.8571429 L55.4975535,22.8571429 L55.4975535,23.6190476 L53.9637676,23.6190476 L53.9637676,22.8571429 Z M50.2560302,28.9245714 L50.2560302,32.3398095 L45.0248755,29.455619 C45.9522899,28.8979048 47.0371535,28.5714286 48.2011257,28.5714286 C48.92232,28.5714286 49.6127925,28.6979048 50.2560302,28.9245714 Z M44.7472273,22.8571429 L46.2810132,22.8571429 L46.2810132,23.6190476 L44.7472273,23.6190476 L44.7472273,22.8571429 Z M47.8194074,22.8571429 L49.3531933,22.8571429 L49.3531933,23.6190476 L47.8194074,23.6190476 L47.8194074,22.8571429 Z M30.1036807,21.9097143 C30.3110529,22.2784762 30.6052141,22.5062857 31.0579767,22.648 L30.8271791,23.3744762 C30.1816373,23.1725714 29.7388593,22.8251429 29.4327934,22.2807619 L30.1036807,21.9097143 Z M30.4473809,44.9238095 L31.1209564,44.5573333 C31.3168078,44.9104762 31.6366986,45.1874286 32.0721801,45.3790476 L31.7603538,46.0754286 C31.1681911,45.8144762 30.7265652,45.4270476 30.4473809,44.9238095 Z M32.4750197,22.8438095 C32.7073534,22.8533333 32.957352,22.8571429 33.2242477,22.8571429 L33.9922927,22.8571429 L33.9922927,23.6190476 L33.2242477,23.6190476 C32.9458313,23.6190476 32.6858481,23.6148571 32.4435299,23.6049524 L32.4750197,22.8438095 Z M34.2284665,46.4761905 C34.0045814,46.4761905 33.7856886,46.4674286 33.5775484,46.4506667 L33.63976,45.6910476 C33.8359955,45.7070476 34.0329991,45.7142857 34.2284665,45.7142857 L35.1443602,45.7142857 L35.1443602,46.4761905 L34.2284665,46.4761905 Z M35.5306869,22.8571429 L37.0644728,22.8571429 L37.0644728,23.6190476 L35.5306869,23.6190476 L35.5306869,22.8571429 Z M36.6804503,45.7142857 L38.2165404,45.7142857 L38.2165404,46.4761905 L36.6804503,46.4761905 L36.6804503,45.7142857 Z M38.602867,22.8571429 L40.1366529,22.8571429 L40.1366529,23.6190476 L38.602867,23.6190476 L38.602867,22.8571429 Z M39.7526304,45.7142857 L41.2887205,45.7142857 L41.2887205,46.4761905 L39.7526304,46.4761905 L39.7526304,45.7142857 Z M41.6750471,22.8571429 L43.2088331,22.8571429 L43.2088331,23.6190476 L41.6750471,23.6190476 L41.6750471,22.8571429 Z M47.1377674,31.7866667 L42.0567655,34.6099048 C42.0736625,32.824 42.866669,31.2251429 44.1158942,30.1211429 L47.1377674,31.7866667 Z M42.8248105,45.7142857 L44.3609006,45.7142857 L44.3609006,46.4761905 L42.8248105,46.4761905 L42.8248105,45.7142857 Z M42.1520031,35.7245714 L45.1193451,34.0758095 L45.1193451,39.9390476 C43.5840231,39.0521905 42.4703578,37.5245714 42.1520031,35.7245714 Z M45.8969907,45.7142857 L47.4330807,45.7142857 L47.4330807,46.4761905 L45.8969907,46.4761905 L45.8969907,45.7142857 Z M48.9691708,45.7142857 L50.5052608,45.7142857 L50.5052608,46.4761905 L48.9691708,46.4761905 L48.9691708,45.7142857 Z M46.1462213,40.408381 L46.1462213,36.9931429 L51.377376,39.8773333 C50.4499616,40.4350476 49.365098,40.7619048 48.2011257,40.7619048 C47.4799315,40.7619048 46.7886909,40.6354286 46.1462213,40.408381 Z M52.0413509,45.7142857 L53.577441,45.7142857 L53.577441,46.4761905 L52.0413509,46.4761905 L52.0413509,45.7142857 Z M49.2644841,37.5466667 L54.345486,34.7230476 C54.328973,36.5089524 53.5355825,38.1081905 52.2859732,39.2125714 L49.2644841,37.5466667 Z M55.113531,45.7142857 L56.6496211,45.7142857 L56.6496211,46.4761905 L55.113531,46.4761905 L55.113531,45.7142857 Z M57.0359477,22.8571429 L58.5697337,22.8571429 L58.5697337,23.6190476 L57.0359477,23.6190476 L57.0359477,22.8571429 Z M58.1857111,45.7142857 L59.7218012,45.7142857 L59.7218012,46.4761905 L58.1857111,46.4761905 L58.1857111,45.7142857 Z M61.2578913,45.7142857 L62.7939813,45.7142857 L62.7939813,46.4761905 L61.2578913,46.4761905 L61.2578913,45.7142857 Z M59.3377787,27.8095238 C58.7041415,27.8095238 58.1857111,27.2952381 58.1857111,26.6666667 C58.1857111,26.0380952 58.7041415,25.5238095 59.3377787,25.5238095 L62.4099588,25.5238095 C63.043596,25.5238095 63.5620263,26.0380952 63.5620263,26.6666667 C63.5620263,27.2952381 63.043596,27.8095238 62.4099588,27.8095238 L59.3377787,27.8095238 Z M64.0942816,46.4761905 L64.0942816,45.7142857 L64.3300714,45.7142857 C64.6150161,45.7142857 64.9391311,45.5504762 65.1745369,45.2864762 L65.7490346,45.792 C65.3665481,46.2201905 64.835829,46.4761905 64.3300714,46.4761905 L64.0942816,46.4761905 Z M65.4821389,42.6666667 L66.250184,42.6666667 L66.250184,44.1904762 L65.4821389,44.1904762 L65.4821389,42.6666667 Z M65.4821389,39.6190476 L66.250184,39.6190476 L66.250184,41.1428571 L65.4821389,41.1428571 L65.4821389,39.6190476 Z M65.4821389,36.5714286 L66.250184,36.5714286 L66.250184,38.0952381 L65.4821389,38.0952381 L65.4821389,36.5714286 Z M65.4821389,33.5238095 L66.250184,33.5238095 L66.250184,35.047619 L65.4821389,35.047619 L65.4821389,33.5238095 Z M65.4821389,30.4761905 L66.250184,30.4761905 L66.250184,32 L65.4821389,32 L65.4821389,30.4761905 Z M65.4821389,27.4285714 L66.250184,27.4285714 L66.250184,28.952381 L65.4821389,28.952381 L65.4821389,27.4285714 Z M65.4821389,25.832381 L65.4821389,24.7619048 C65.4821389,24.6613333 65.4625538,24.5565714 65.4229995,24.4506667 L66.1438097,24.1866667 C66.2140858,24.3771429 66.250184,24.5710476 66.250184,24.7619048 L66.250184,25.832381 L65.4821389,25.832381 Z M83.6521642,35.2933333 C83.4278951,34.8567619 83.2992475,34.399619 83.2677577,33.9234286 L83.2677577,42.0255238 L79.9766847,42.0255238 L79.9766847,26.0826667 L80.3852847,26.0350476 C80.5131642,26.0194286 80.6372035,26.0034286 80.7574025,25.9874286 C80.8772175,25.9718095 80.9935764,25.9638095 81.1060949,25.9638095 C81.3134671,25.9638095 81.5461847,25.9874286 81.8023278,26.0350476 C82.0584708,26.0826667 82.2946446,26.1702857 82.5108493,26.2971429 C82.727438,26.424381 82.9071605,26.6110476 83.051553,26.8575238 C83.1959455,27.104 83.2677577,27.4255238 83.2677577,27.8224762 L83.2677577,33.6373333 C83.2992475,33.240381 83.4079259,32.8708571 83.5922567,32.5291429 C83.7758195,32.1874286 83.9962484,31.8579048 84.2527754,31.5401905 L87.5438484,27.2506667 C87.912126,26.7737143 88.2804036,26.440381 88.6490652,26.2495238 C89.0169588,26.0590476 89.4094298,25.9638095 89.8264782,25.9638095 C90.2423746,25.9638095 90.6187167,26.0312381 90.9551204,26.1660952 C91.2911401,26.3013333 91.5634121,26.472381 91.7719363,26.6784762 L86.462825,33.7089524 L92.4447437,41.7394286 C91.8199391,42.1051429 91.18707,42.287619 90.5469045,42.287619 C89.4735615,42.287619 88.6168073,41.8750476 87.9762577,41.0487619 L84.4447867,36.520381 C84.1406409,36.1394286 83.8760493,35.7306667 83.6521642,35.2933333 Z M99.1612975,39.8689524 C99.4654433,39.7813333 99.7377153,39.6742857 99.9781134,39.5470476 C100.218127,39.4201905 100.426268,39.2815238 100.602534,39.1299048 C100.778416,38.9794286 100.938938,38.840381 101.08333,38.7131429 C101.275341,38.9512381 101.475033,39.2571429 101.683557,39.6304762 C101.891314,40.0038095 101.996152,40.3097143 101.996152,40.5481905 C101.996152,40.8975238 101.795308,41.215619 101.395156,41.5017143 C101.059137,41.7554286 100.581797,41.9740952 99.9658247,42.1569524 C99.3490845,42.3390476 98.624434,42.4304762 97.7918732,42.4304762 C97.0388051,42.4304762 96.2984097,42.335619 95.569919,42.1447619 C94.8410442,41.9539048 94.1920462,41.6205714 93.6236928,41.143619 C93.0553395,40.6674286 92.5948965,40.0278095 92.2423639,39.2255238 C91.8902152,38.423619 91.7143329,37.4106667 91.7143329,36.1870476 C91.7143329,35.1859048 91.870246,34.3245714 92.1824563,33.6015238 C92.4950507,32.8788571 92.9113311,32.2788571 93.4320656,31.8022857 C93.9520321,31.3257143 94.5407386,30.976381 95.1974171,30.7535238 C95.8540956,30.5314286 96.5269031,30.4201905 97.2154554,30.4201905 C98.112148,30.4201905 98.8728966,30.5592381 99.4973172,30.8369524 C100.122122,31.1150476 100.630568,31.488381 101.023039,31.9569524 C101.415126,32.4259048 101.699302,32.9622857 101.875953,33.5657143 C102.051835,34.1695238 102.14016,34.8049524 102.14016,35.472 L102.14016,35.8057143 C102.14016,35.9333333 102.135552,36.0681905 102.128255,36.2106667 C102.119807,36.3539048 102.112127,36.4929524 102.104062,36.6281905 C102.095614,36.7630476 102.083325,36.8700952 102.06758,36.9497143 L95.0050218,36.9497143 C95.0691536,37.824 95.3418096,38.5504762 95.8218377,39.1299048 C96.3026339,39.7100952 97.0629985,40 98.1040835,40 C98.504235,40 98.8567677,39.9561905 99.1612975,39.8689524 Z M98.7407929,33.303619 C98.4443275,32.8270476 97.9120723,32.5885714 97.1432592,32.5885714 C96.4704518,32.5885714 95.9420368,32.8148571 95.5576302,33.2678095 C95.1732237,33.720381 94.9812124,34.352 94.9812124,35.1622857 L99.1854909,35.1622857 C99.1854909,34.399619 99.0368742,33.7801905 98.7407929,33.303619 Z M110.252252,39.8689524 C110.556398,39.7813333 110.82867,39.6742857 111.069068,39.5470476 C111.309466,39.4201905 111.517606,39.2815238 111.693872,39.1299048 C111.869755,38.9794286 112.030276,38.840381 112.174668,38.7131429 C112.366296,38.9512381 112.566371,39.2571429 112.774896,39.6304762 C112.982652,40.0038095 113.08749,40.3097143 113.08749,40.5481905 C113.08749,40.8975238 112.886646,41.215619 112.486495,41.5017143 C112.150091,41.7554286 111.673135,41.9740952 111.057547,42.1569524 C110.440423,42.3390476 109.715772,42.4304762 108.883212,42.4304762 C108.130143,42.4304762 107.389364,42.335619 106.661257,42.1447619 C105.932382,41.9539048 105.283384,41.6205714 104.715031,41.143619 C104.146294,40.6674286 103.685851,40.0278095 103.333702,39.2255238 C102.981553,38.423619 102.805287,37.4106667 102.805287,36.1870476 C102.805287,35.1859048 102.961584,34.3245714 103.273795,33.6015238 C103.586389,32.8788571 104.002285,32.2788571 104.52302,31.8022857 C105.04337,31.3257143 105.631693,30.976381 106.288755,30.7535238 C106.945434,30.5314286 107.617857,30.4201905 108.306794,30.4201905 C109.203486,30.4201905 109.964235,30.5592381 110.588655,30.8369524 C111.21346,31.1150476 111.721522,31.488381 112.114377,31.9569524 C112.506464,32.4259048 112.790257,32.9622857 112.966907,33.5657143 C113.142789,34.1695238 113.231498,34.8049524 113.231498,35.472 L113.231498,35.8057143 C113.231498,35.9333333 113.22689,36.0681905 113.21921,36.2106667 C113.210761,36.3539048 113.203465,36.4929524 113.1954,36.6281905 C113.186952,36.7630476 113.174663,36.8700952 113.158918,36.9497143 L106.09636,36.9497143 C106.160108,37.824 106.432764,38.5504762 106.913176,39.1299048 C107.393972,39.7100952 108.153953,40 109.195422,40 C109.595957,40 109.948106,39.9561905 110.252252,39.8689524 Z M109.832131,33.303619 C109.535282,32.8270476 109.003411,32.5885714 108.234597,32.5885714 C107.56179,32.5885714 107.033375,32.8148571 106.648969,33.2678095 C106.264562,33.720381 106.072167,34.352 106.072167,35.1622857 L110.276829,35.1622857 C110.276829,34.399619 110.128212,33.7801905 109.832131,33.303619 Z M118.772559,30.8849524 C119.317103,30.5748571 120.00604,30.4201905 120.838984,30.4201905 C121.431531,30.4201905 121.99566,30.5192381 122.533292,30.7180952 C123.069387,30.9169524 123.545575,31.2384762 123.961856,31.6834286 C124.37852,32.128 124.710315,32.7161905 124.959162,33.4468571 C125.207241,34.1775238 125.33128,35.0750476 125.33128,36.1394286 C125.33128,37.3782857 125.187271,38.3992381 124.899255,39.2015238 C124.610854,40.0038095 124.238352,40.639619 123.781749,41.1081905 C123.32553,41.5767619 122.812476,41.9066667 122.244507,42.0971429 C121.67577,42.287619 121.119321,42.3832381 120.575161,42.3832381 C120.11011,42.3832381 119.705734,42.3310476 119.36165,42.2281905 C119.016798,42.1249524 118.725325,42.0099048 118.484542,41.8826667 C118.244528,41.7554286 118.060198,41.6289524 117.932318,41.5017143 C117.803671,41.3740952 117.724178,41.2868571 117.69192,41.2392381 L117.69192,47.2205714 L114.449234,47.2205714 L114.449234,30.7535238 L114.737635,30.7059048 C114.833256,30.6902857 114.945391,30.6784762 115.073654,30.6700952 C115.201534,30.6624762 115.353607,30.6582857 115.529873,30.6582857 C116.058288,30.6582857 116.506442,30.7455238 116.875104,30.920381 C117.243382,31.095619 117.476099,31.3893333 117.572105,31.8022857 C117.827864,31.5005714 118.228399,31.1942857 118.772559,30.8849524 Z M121.799809,34.8761905 C121.719164,34.4632381 121.587828,34.1059048 121.403882,33.8038095 C121.219935,33.5024762 120.971088,33.2678095 120.658494,33.1009524 C120.346668,32.9340952 119.966101,32.8510476 119.517947,32.8510476 C118.845524,32.8510476 118.376632,32.9782857 118.112809,33.232381 C117.847833,33.4864762 117.716497,33.7645714 117.716497,34.0662857 L117.716497,39.1184762 C117.843993,39.2457143 118.072102,39.3965714 118.400826,39.5710476 C118.728781,39.7462857 119.109347,39.8331429 119.54214,39.8331429 C120.358188,39.8331429 120.959568,39.5158095 121.34359,38.88 C121.727613,38.2445714 121.920392,37.3546667 121.920392,36.2106667 C121.920392,35.7340952 121.879685,35.2895238 121.799809,34.8761905 Z M128.353153,39.392 C129.001767,39.7337143 129.77442,39.9047619 130.671113,39.9047619 C131.007517,39.9047619 131.335088,39.8651429 131.656131,39.7855238 C131.976021,39.7062857 132.260582,39.5828571 132.509429,39.416 C132.757123,39.2495238 132.961423,39.0312381 133.121561,38.7607619 C133.281314,38.4906667 133.361575,38.1573333 133.361575,37.76 C133.361575,37.3470476 133.273249,36.9973333 133.097367,36.7112381 C132.921101,36.4255238 132.689151,36.183619 132.400366,35.9847619 C132.112733,35.7862857 131.77633,35.6152381 131.392307,35.472 C131.007517,35.3291429 130.614662,35.1859048 130.214894,35.0430476 C129.701456,34.8685714 129.185714,34.6777143 128.665363,34.4712381 C128.145013,34.2647619 127.676121,33.9950476 127.259841,33.6613333 C126.843176,33.3272381 126.503317,32.9028571 126.239109,32.3859048 C125.974902,31.8700952 125.842798,31.2144762 125.842798,30.4201905 C125.842798,29.6575238 125.994871,28.9824762 126.298633,28.3942857 C126.602778,27.8068571 127.019827,27.3184762 127.548242,26.9287619 C128.076657,26.5398095 128.685332,26.2460952 129.373885,26.0472381 C130.062437,25.848381 130.791312,25.7489524 131.560125,25.7489524 C132.08854,25.7489524 132.581241,25.7889524 133.037844,25.8681905 C133.494062,25.9478095 133.902278,26.0434286 134.262491,26.1542857 C134.622705,26.2659048 134.92685,26.3805714 135.175697,26.4998095 C135.423392,26.6190476 135.611179,26.7260952 135.739826,26.8217143 C136.18798,27.0761905 136.412634,27.4335238 136.412634,27.8940952 C136.412634,28.0845714 136.328533,28.3432381 136.160715,28.6685714 C135.992129,28.9942857 135.755571,29.3158095 135.451425,29.6335238 C135.051274,29.3158095 134.534763,29.0137143 133.902278,28.728 C133.269409,28.4422857 132.593146,28.2990476 131.872335,28.2990476 C131.584318,28.2990476 131.287469,28.3272381 130.983323,28.3824762 C130.679177,28.4384762 130.403065,28.5337143 130.154603,28.6685714 C129.906524,28.8038095 129.701456,28.9900952 129.541703,29.2285714 C129.381949,29.4666667 129.301689,29.7607619 129.301689,30.1100952 C129.301689,30.4438095 129.381949,30.7340952 129.541703,30.9801905 C129.701456,31.2262857 129.918429,31.4411429 130.190701,31.623619 C130.462973,31.8064762 130.779407,31.9691429 131.13962,32.112 C131.499834,32.2548571 131.872335,32.3980952 132.256742,32.5409524 C132.769028,32.7314286 133.289378,32.9382857 133.817793,33.1607619 C134.346208,33.3832381 134.827389,33.6651429 135.259414,34.0064762 C135.692207,34.3481905 136.043972,34.7775238 136.316628,35.2933333 C136.588516,35.8102857 136.725228,36.4575238 136.725228,37.2358095 C136.725228,38.0780952 136.576611,38.8201905 136.280146,39.463619 C135.984064,40.1070476 135.572008,40.6518095 135.043593,41.096381 C134.515178,41.5413333 133.878085,41.8750476 133.133465,42.0971429 C132.38923,42.319619 131.57587,42.4304762 130.694922,42.4304762 C129.541703,42.4304762 128.608912,42.3154286 127.89655,42.0849524 C127.183804,41.8548571 126.667294,41.6441905 126.347403,41.4537143 C126.154624,41.3268571 125.994871,41.176 125.866607,41.0011429 C125.738344,40.8266667 125.674596,40.6278095 125.674596,40.4053333 C125.674596,40.1352381 125.782506,39.8091429 125.998711,39.4281905 C126.214916,39.0468571 126.451474,38.6891429 126.707617,38.3558095 C127.155771,38.7055238 127.704155,39.0510476 128.353153,39.392 Z M137.873455,42.0255238 L137.873455,30.7535238 L138.161856,30.7059048 C138.257478,30.6902857 138.369612,30.6784762 138.49826,30.6700952 C138.626139,30.6624762 138.777828,30.6582857 138.954479,30.6582857 C139.466765,30.6582857 139.910695,30.7497143 140.287805,30.9321905 C140.663379,31.1150476 140.900705,31.4369524 140.996326,31.8975238 C141.268598,31.5325714 141.684495,31.1942857 142.245552,30.8849524 C142.80584,30.5748571 143.566973,30.4201905 144.527797,30.4201905 C145.664888,30.4201905 146.505513,30.6426667 147.050057,31.0872381 C147.594217,31.5325714 147.94675,32.12 148.107271,32.8510476 C148.186764,33.216381 148.239375,33.6133333 148.263184,34.0426667 C148.286994,34.4712381 148.299282,34.8921905 148.299282,35.3055238 L148.299282,42.0255238 L145.032019,42.0255238 L145.032019,35.448 C145.032019,35.0990476 145.020114,34.7729524 144.996305,34.4712381 C144.972495,34.1695238 144.907596,33.9112381 144.80391,33.6967619 C144.699455,33.4822857 144.531638,33.3154286 144.299688,33.1961905 C144.067354,33.0769524 143.742855,33.0175238 143.326191,33.0175238 C142.734028,33.0175238 142.225198,33.1409524 141.800853,33.3870476 C141.376893,33.6335238 141.164144,33.9394286 141.164144,34.304381 L141.164144,42.0255238 L137.873455,42.0255238 Z M159.949758,42.0015238 C159.661741,42.1127619 159.393309,42.192381 159.14523,42.24 C158.896768,42.287619 158.636401,42.311619 158.364513,42.311619 C157.787711,42.311619 157.351461,42.2 157.05538,41.9779048 C156.75853,41.7554286 156.570743,41.4380952 156.490867,41.0247619 C156.138334,41.3904762 155.674051,41.7001905 155.097249,41.9539048 C154.520447,42.208 153.81615,42.335619 152.983205,42.335619 C152.55118,42.335619 152.119154,42.2758095 151.686361,42.1569524 C151.253568,42.0373333 150.861097,41.8430476 150.509332,41.5729524 C150.156799,41.3028571 149.868398,40.9413333 149.644513,40.488381 C149.420244,40.0358095 149.307726,39.4841905 149.307726,38.832381 C149.307726,38.0220952 149.503961,37.3630476 149.896432,36.8540952 C150.288903,36.3459048 150.781604,35.9447619 151.373767,35.6506667 C151.966313,35.3569524 152.607247,35.1542857 153.295799,35.0430476 C153.983968,34.9321905 154.616837,34.8609524 155.193255,34.8285714 C155.38565,34.8129524 155.573821,34.8049524 155.758152,34.8049524 L156.274662,34.8049524 L156.274662,34.376 C156.274662,33.7725714 156.110684,33.3432381 155.782345,33.0891429 C155.453622,32.8350476 154.920983,32.7078095 154.184427,32.7078095 C153.495491,32.7078095 152.883743,32.8190476 152.34688,33.0415238 C151.810016,33.264381 151.285826,33.5180952 150.773155,33.8038095 C150.548886,33.5340952 150.36878,33.2361905 150.232452,32.9104762 C150.096508,32.5847619 150.028536,32.3424762 150.028536,32.1832381 C150.028536,31.9775238 150.152575,31.7664762 150.401038,31.552 C150.649116,31.3375238 150.989744,31.1466667 151.422154,30.9801905 C151.854179,30.8133333 152.350336,30.6784762 152.911777,30.5748571 C153.471682,30.471619 154.064228,30.4201905 154.689417,30.4201905 C155.553468,30.4201905 156.286567,30.5078095 156.887562,30.6822857 C157.487405,30.8571429 157.975498,31.1272381 158.352608,31.4925714 C158.728182,31.8579048 158.997382,32.3146667 159.157519,32.8624762 C159.317272,33.4106667 159.397533,34.0506667 159.397533,34.7809524 L159.397533,39.2609524 C159.397533,40.5005714 159.581096,41.4144762 159.949758,42.0015238 Z M155.986261,36.4967619 C155.874127,36.4967619 155.761992,36.5051429 155.649857,36.520381 C155.249706,36.5527619 154.853011,36.6041905 154.460924,36.6754286 C154.068453,36.7470476 153.720144,36.8586667 153.415998,37.0091429 C153.111469,37.1607619 152.863006,37.3630476 152.670995,37.6167619 C152.478983,37.8712381 152.383362,38.1969524 152.383362,38.5939048 C152.383362,39.0388571 152.510857,39.416 152.767384,39.7260952 C153.023143,40.0358095 153.455553,40.1908571 154.064228,40.1908571 C154.368374,40.1908571 154.656391,40.1512381 154.929431,40.0712381 C155.201703,39.992381 155.441717,39.8891429 155.649857,39.7615238 C155.857614,39.6346667 156.022743,39.495619 156.142174,39.3447619 C156.262757,39.1935238 156.323049,39.0548571 156.323049,38.927619 L156.323049,36.4967619 L155.986261,36.4967619 Z M165.442048,30.8849524 C165.985823,30.5748571 166.675144,30.4201905 167.508089,30.4201905 C168.100635,30.4201905 168.66438,30.5192381 169.201244,30.7180952 C169.737339,30.9169524 170.213911,31.2384762 170.63096,31.6834286 C171.046856,32.128 171.37942,32.7161905 171.627498,33.4468571 C171.876345,34.1775238 172,35.0750476 172,36.1394286 C172,37.3782857 171.855608,38.3992381 171.567207,39.2015238 C171.278806,40.0038095 170.906688,40.639619 170.450085,41.1081905 C169.993866,41.5767619 169.481196,41.9066667 168.913227,42.0971429 C168.343722,42.287619 167.787273,42.3832381 167.243497,42.3832381 C166.778446,42.3832381 166.374838,42.3310476 166.030754,42.2281905 C165.685518,42.1249524 165.393277,42.0099048 165.153263,41.8826667 C164.913249,41.7554286 164.728918,41.6289524 164.601038,41.5017143 C164.472775,41.3740952 164.39213,41.2868571 164.360256,41.2392381 L164.360256,47.2205714 L161.117954,47.2205714 L161.117954,30.7535238 L161.405971,30.7059048 C161.501977,30.6902857 161.614111,30.6784762 161.741991,30.6700952 C161.870254,30.6624762 162.022327,30.6582857 162.198977,30.6582857 C162.727008,30.6582857 163.175163,30.7455238 163.543824,30.920381 C163.912102,31.095619 164.144435,31.3893333 164.240825,31.8022857 C164.496584,31.5005714 164.897504,31.1942857 165.442048,30.8849524 Z M168.468913,34.8761905 C168.388268,34.4632381 168.256549,34.1059048 168.072218,33.8038095 C167.887887,33.5024762 167.639424,33.2678095 167.327214,33.1009524 C167.015388,32.9340952 166.634821,32.8510476 166.186667,32.8510476 C165.51386,32.8510476 165.045736,32.9782857 164.781145,33.232381 C164.516937,33.4864762 164.385218,33.7645714 164.385218,34.0662857 L164.385218,39.1184762 C164.512713,39.2457143 164.741206,39.3965714 165.069546,39.5710476 C165.397885,39.7462857 165.778067,39.8331429 166.210093,39.8331429 C167.026908,39.8331429 167.62752,39.5158095 168.011926,38.88 C168.396333,38.2445714 168.588728,37.3546667 168.588728,36.2106667 C168.588728,35.7340952 168.54879,35.2895238 168.468913,34.8761905 Z" id="trusted_keepsnap" fill-opacity="0.55" fill="#FFFFFF"></path>
                </g>
            </g>
        </g>
    </g>
</svg>