<?xml version="1.0" encoding="UTF-8"?>
<svg width="141px" height="49px" viewBox="0 0 141 43" version="1.1" xmlns="http://www.w3.org/2000/svg" xmlns:xlink="http://www.w3.org/1999/xlink">
    <!-- Generator: Sketch 46.2 (44496) - http://www.bohemiancoding.com/sketch -->
    <title>trusted_ks</title>
    <desc>Created with Sketch.</desc>
    <defs></defs>
    <g id="mainpage" stroke="none" stroke-width="1" fill="none" fill-rule="evenodd">
        <g id="landing-v4.2" transform="translate(-634.000000, -2114.000000)" opacity="0.4"  fill="#FFFFFF">
            <g id="Group-2" transform="translate(221.000000, 2032.000000)">
                <path d="M436.412461,98.3648276 C434.765831,98.3648276 433.431162,97.0729131 433.431162,95.4785128 L433.431162,84.8886238 C433.431162,83.2948008 434.765831,82 436.412461,82 C438.057894,82 439.392562,83.2948008 439.392562,84.8886238 L439.392562,95.4785128 C439.392562,97.0729131 438.057894,98.3648276 436.412461,98.3648276 M429.449431,103.264289 C428.941071,104.781336 427.259712,105.610863 425.693916,105.117303 L415.302183,101.845954 C413.736387,101.352972 412.879541,99.7245128 413.3879,98.2063112 C413.896859,96.6915732 415.57702,95.8614691 417.143415,96.3550289 L427.535747,99.6246463 C429.101543,100.117629 429.958389,101.746665 429.449431,103.264289 M443.374593,103.265271 C443.88415,104.782318 445.565509,105.612999 447.130706,105.119439 L457.524236,101.846935 C459.088834,101.355107 459.945082,99.7254941 459.436722,98.2084471 C458.928961,96.6937091 457.247003,95.8624504 455.681208,96.3560102 L445.288876,99.6273594 C443.723679,100.119187 442.866233,101.748801 443.374593,103.265271 M422.178211,124.448801 C420.845339,123.511903 420.550143,121.706224 421.516565,120.416042 L427.937824,111.845419 C428.904845,110.555813 430.768232,110.269491 432.101703,111.205234 C433.432779,112.143286 433.727975,113.948965 432.759756,115.239725 L426.340293,123.809193 C425.373272,125.099376 423.509287,125.385699 422.178211,124.448801 M450.648447,124.448801 C451.980122,123.511903 452.274719,121.706224 451.308896,120.416042 L444.888235,111.845419 C443.921214,110.555813 442.05663,110.269491 440.724357,111.205234 C439.393281,112.143286 439.097486,113.948965 440.064507,115.239725 L446.484569,123.809193 C447.452787,125.099376 449.315575,125.385699 450.648447,124.448801 M491.952878,100.309627 C491.952878,102.001584 490.529591,103.374316 488.774583,103.374316 C487.018976,103.374316 485.596886,102.001584 485.596886,100.309627 C485.596886,98.618246 487.018976,97.2455147 488.774583,97.2455147 C490.529591,97.2455147 491.952878,98.618246 491.952878,100.309627 M500.182796,100.309627 C500.182796,102.001584 498.758311,103.374316 497.003902,103.374316 C495.247696,103.374316 493.82381,102.001584 493.82381,100.309627 C493.82381,98.618246 495.247696,97.2455147 497.003902,97.2455147 C498.758311,97.2455147 500.182796,98.618246 500.182796,100.309627 M494.819512,105.808633 C494.817117,105.525197 494.578206,105.293715 494.28301,105.293715 L491.495714,105.293715 C491.199321,105.293715 490.960409,105.525197 490.958613,105.808633 L490.957416,116.894391 C490.957416,117.180714 491.196925,117.412196 491.495714,117.412196 L494.28301,117.412196 C494.579403,117.412196 494.819512,117.180714 494.819512,116.894391 L494.819512,105.808633 Z M488.948527,105.295562 L486.113329,105.295562 C485.878011,105.295562 485.688798,105.429487 485.581018,105.662124 L483.389503,110.390485 L481.197988,105.662124 C481.092005,105.429487 480.8992,105.295562 480.666276,105.295562 L477.829881,105.295562 C477.499357,105.295562 477.272422,105.582462 477.438881,105.895338 L481.458455,113.213878 L481.458455,116.895661 C481.458455,117.182561 481.698564,117.414043 481.995556,117.414043 L484.783451,117.414043 C485.08164,117.414043 485.319953,117.182561 485.319953,116.895661 L485.319953,113.213878 L489.341323,105.895338 C489.508381,105.582462 489.27905,105.295562 488.948527,105.295562 M529.439942,105.297121 L520.031995,105.297121 C519.734404,105.297698 519.495493,105.52918 519.495493,105.813771 L519.495493,108.155727 C519.495493,108.441472 519.735003,108.674686 520.031995,108.674686 L522.997127,108.674686 L522.995929,116.897797 C522.995929,117.184697 523.236637,117.416179 523.53303,117.416179 L525.973635,117.416179 C526.270029,117.416179 526.511335,117.184697 526.511335,116.897797 L526.511335,108.674686 L529.439942,108.674686 C529.737533,108.674686 529.97824,108.441472 529.97824,108.155727 L529.97824,105.813771 C529.97824,105.52918 529.737533,105.297121 529.439942,105.297121 M542.211026,116.812997 L537.900447,105.757257 C537.801051,105.467471 537.559745,105.296601 537.191498,105.296601 L533.938356,105.296601 C533.567714,105.296601 533.328803,105.467471 533.228808,105.757257 L528.917032,116.812997 C528.787697,117.144923 528.983496,117.417392 529.351742,117.417392 L532.092334,117.417392 C532.312683,117.417392 532.553989,117.251717 532.625842,117.05083 L533.182702,115.427566 L537.947152,115.427566 L538.504012,117.05083 C538.576464,117.251717 538.816573,117.417392 539.038718,117.417392 L541.776914,117.417392 C542.14576,117.417392 542.342158,117.144923 542.211026,116.812997 L542.211026,116.812997 Z M534.174872,112.652086 L535.564029,108.67763 L536.955581,112.652086 L534.174872,112.652086 Z M507.834956,105.297121 L505.26741,105.297121 C505.045864,105.297121 504.805755,105.462795 504.735699,105.663683 L502.359761,112.675696 L499.979033,105.663683 C499.90718,105.462795 499.667071,105.297121 499.446722,105.297121 L496.877381,105.297121 C496.51093,105.297121 496.315131,105.569012 496.444466,105.900361 L500.370033,116.956101 C500.470028,117.247619 500.710736,117.417334 501.08018,117.417334 L503.633953,117.417334 C504.003996,117.417334 504.242907,117.247619 504.343501,116.956101 L508.268469,105.900361 C508.400199,105.569012 508.202604,105.297121 507.834956,105.297121 M550.852841,113.390405 C552.725209,112.884723 554,111.561636 554,109.482335 C554,106.940069 551.792917,105.296601 549.154716,105.296601 L543.901666,105.296601 C543.604674,105.296601 543.363966,105.528661 543.363966,105.813829 L543.363966,116.897278 C543.363966,117.184177 543.604674,117.41566 543.901666,117.41566 L546.339876,117.41566 C546.637467,117.41566 546.876977,117.184177 546.876977,116.897278 L546.876977,113.623619 L546.888953,113.623619 L549.507394,116.998876 C549.72415,117.253449 549.939111,117.41566 550.252868,117.41566 L553.091659,117.41566 C553.50182,117.41566 553.64313,116.978672 553.429368,116.720058 L550.852841,113.390405 Z M546.876977,108.096904 L548.842155,108.096904 C550.089403,108.096904 550.522317,108.651076 550.522317,109.461553 C550.522317,110.154269 550.185806,110.870652 548.890656,110.870652 L546.876977,110.870652 L546.876977,108.096904 Z M472.316125,110.709596 L476.344082,106.016448 C476.635086,105.681636 476.464435,105.297178 476.030922,105.297178 L473.010703,105.297178 C472.722094,105.297178 472.434083,105.413786 472.192777,105.690295 L469.429432,109.069015 L469.429432,105.921777 C469.429432,105.506148 469.21088,105.297178 468.777965,105.297178 L466.561302,105.297178 C466.128388,105.297178 465.911631,105.506148 465.911631,105.921777 L465.911631,116.790484 C465.911631,117.209 466.128388,117.417392 466.561302,117.417392 L468.784552,117.417392 C469.218065,117.417392 469.433624,117.209 469.433624,116.790484 L469.433624,112.579351 L473.149619,116.998876 C473.366375,117.255758 473.583132,117.417392 473.895093,117.417392 L477.039259,117.417392 C477.448222,117.417392 477.59073,116.980403 477.375171,116.721212 L472.316125,110.709596 Z M508.307748,114.839393 C508.238889,114.721631 508.215537,114.581356 508.255655,114.442813 C508.294575,114.310043 508.383793,114.205558 508.496362,114.13975 L510.341786,113.001965 C510.468127,112.91653 510.63279,112.882471 510.792064,112.925189 C510.927986,112.963866 511.025586,113.057382 511.104026,113.157249 C511.942909,114.158223 512.814126,114.825539 514.048799,114.825539 C514.76673,114.825539 515.214015,114.483222 515.214015,113.934822 C515.214015,113.304451 515.01103,112.885935 512.738681,112.298281 C510.301069,111.666756 508.951431,110.32231 508.951431,108.567431 C508.951431,106.798697 510.531597,104.917397 513.460803,104.917397 C516.337316,104.917397 517.624681,106.009001 518.303093,106.612241 L518.303093,106.613396 C518.404286,106.70749 518.465361,106.837374 518.465361,106.982267 C518.465361,107.119655 518.408477,107.242612 518.318062,107.33382 L516.864837,108.802377 C516.767835,108.918407 516.619938,108.992874 516.45288,108.992874 C516.310371,108.992874 516.224148,108.947847 516.087028,108.852021 C515.542143,108.41157 514.637994,107.83373 513.488346,107.83373 C512.961425,107.83373 512.403966,108.073294 512.403966,108.516632 C512.403966,108.961701 512.765027,109.294782 514.668531,109.772179 C517.660009,110.519157 518.881509,111.842244 518.881509,113.806092 C518.881509,116.153243 516.839089,117.792093 513.91647,117.792093 C511.259109,117.792093 509.399913,116.329886 508.307748,114.839393" id="trusted_ks"></path>
            </g>
        </g>
    </g>
</svg>