<?xml version="1.0" encoding="UTF-8"?>
<svg width="200px" height="70px" viewBox="0 0 200 70" version="1.1" xmlns="http://www.w3.org/2000/svg" xmlns:xlink="http://www.w3.org/1999/xlink">
    <!-- Generator: Sketch 47.1 (45422) - http://www.bohemiancoding.com/sketch -->
    <title>trusted_mfb</title>
    <desc>Created with Sketch.</desc>
    <defs></defs>
    <g id="mainpage" stroke="none" stroke-width="1" fill="none" fill-rule="evenodd">
        <g id="landing-v4.2" transform="translate(-1018.000000, -2107.000000)">
            <g id="Group-2" transform="translate(220.000000, 2032.000000)">
                <g id="mf" transform="translate(798.000000, 75.000000)">
                    <rect id="Rectangle-10-Copy" x="0" y="0" width="200" height="70"></rect>
                    <path d="M190.896115,42.4017094 L190.896115,28.3092186 L198.565602,28.3092186 L198.565602,30.4776557 L193.833608,30.4776557 L193.833608,33.9529304 L198.196657,33.9529304 L198.196657,36.1213675 L193.833608,36.1213675 L193.833608,40.2373016 L198.719607,40.2373016 L198.719607,42.4017094 L190.896115,42.4017094 M48.4722673,42.4017094 L48.4722673,28.3092186 L53.2009134,28.3092186 L55.4005173,37.8935897 L55.4373447,37.8935897 L57.776893,28.3092186 L62.3522029,28.3092186 L62.3522029,42.4017094 L59.4890351,42.4017094 L59.4890351,31.5306471 L59.4481901,31.5306471 L56.7450544,42.4017094 L53.9414802,42.4017094 L51.3736017,31.5306471 L51.3340959,31.5306471 L51.3340959,42.4017094 L48.4722673,42.4017094 M65.1149321,42.4017094 L65.1149321,28.3092186 L72.7870969,28.3092186 L72.7870969,30.4776557 L68.0551028,30.4776557 L68.0551028,33.9529304 L72.4148047,33.9529304 L72.4148047,36.1213675 L68.0551028,36.1213675 L68.0551028,40.2373016 L72.943781,40.2373016 L72.943781,42.4017094 L65.1149321,42.4017094 M75.2197181,28.3092186 L78.1598888,28.3092186 L78.1598888,42.4057387 L75.2197181,42.4057387 L75.2197181,28.3092186 Z M81.0431442,42.4017094 L81.0431442,28.3092186 L85.0097967,28.3092186 L88.7514668,38.0722222 L88.7889639,38.0722222 L88.7889639,28.3092186 L91.5309358,28.3092186 L91.5309358,42.4017094 L87.6633827,42.4017094 L83.8266308,32.0981074 L83.7851162,32.0981074 L83.7851162,42.4017094 L81.0431442,42.4017094 M94.3385276,42.4017094 L94.3385276,28.3092186 L101.635722,28.3092186 L101.635722,30.4776557 L97.2786982,30.4776557 L97.2786982,34.0879121 L101.44288,34.0879121 L101.44288,36.2523199 L97.2786982,36.2523199 L97.2786982,42.4017094 L94.3385276,42.4017094 M103.428884,42.4017094 L103.428884,28.3092186 L111.097701,28.3092186 L111.097701,30.4776557 L106.367046,30.4776557 L106.367046,33.9529304 L110.725409,33.9529304 L110.725409,36.1213675 L106.367046,36.1213675 L106.367046,40.2373016 L111.253046,40.2373016 L111.253046,42.4017094 L103.428884,42.4017094 M116.432996,42.4057387 L113.494834,42.4057387 L113.494834,28.3092186 L118.92722,28.3092186 C120.927955,28.3092186 122.216247,29.5999389 122.216247,31.9987179 C122.216247,33.7944444 121.511838,35.140232 119.607523,35.4538462 L119.607523,35.4948107 C120.25033,35.5693529 122.151966,35.7278388 122.151966,38.2663004 C122.151966,39.1641636 122.216247,41.8181319 122.483413,42.4057387 L119.607523,42.4057387 C119.216483,41.5434676 119.294825,40.5905372 119.294825,39.6718559 C119.294825,37.9956654 119.446822,36.5699634 117.189633,36.5699634 L116.432996,36.5699634 L116.432996,42.4057387 L116.432996,42.4057387 Z M116.432996,34.4021978 L117.736688,34.4021978 C118.903114,34.4021978 119.23724,33.2303419 119.23724,32.3324786 C119.23724,30.9860195 118.673445,30.4769841 117.736688,30.4769841 L116.432996,30.4769841 L116.432996,34.4021978 L116.432996,34.4021978 Z M124.786804,42.4017094 L124.786804,28.3092186 L128.753456,28.3092186 L132.495126,38.0722222 L132.530614,38.0722222 L132.530614,28.3092186 L135.275934,28.3092186 L135.275934,42.4017094 L131.405703,42.4017094 L127.564933,32.0981074 L127.529445,32.0981074 L127.529445,42.4017094 L124.786804,42.4017094 M138.181286,42.4057387 L138.181286,28.3092186 L143.396724,28.3092186 C145.635834,28.3092186 147.484573,28.9559219 147.484573,31.9590965 C147.484573,33.5795482 146.683073,34.7507326 145.08744,35.0656899 L145.08744,35.1053114 C147.171874,35.3947497 147.714912,36.7445665 147.714912,38.6752747 C147.714912,42.2465812 144.624083,42.4057387 143.378646,42.4057387 L138.181286,42.4057387 L138.181286,42.4057387 Z M141.114761,34.0684371 L143.085365,34.0684371 C143.724824,34.0684371 144.624083,33.6393162 144.624083,32.2760684 C144.624083,31.2365079 143.919005,30.4776557 142.927342,30.4776557 L141.114761,30.4776557 L141.114761,34.0684371 L141.114761,34.0684371 Z M141.114761,40.2359585 L142.751239,40.2359585 C143.378646,40.2359585 144.778089,40.2164835 144.778089,38.2461538 C144.778089,36.9990842 144.309376,36.2328449 142.83159,36.2328449 L141.114761,36.2328449 L141.114761,40.2359585 L141.114761,40.2359585 Z M159.92355,28.3092186 L159.92355,38.3065934 C159.92355,40.4119048 158.738376,42.6387668 155.151381,42.6387668 C151.921947,42.6387668 150.365819,40.958547 150.365819,38.3065934 L150.365819,28.3092186 L153.309338,28.3092186 L153.309338,38.1071429 C153.309338,39.8478022 154.046557,40.5300977 155.115892,40.5300977 C156.402845,40.5300977 156.981371,39.6718559 156.981371,38.1071429 L156.981371,28.3092186 L159.92355,28.3092186 M166.527719,42.6387668 C162.883139,42.6387668 162.206183,40.4931624 162.354832,38.0520757 L165.295673,38.0520757 C165.295673,39.395177 165.357944,40.5314408 166.968978,40.5314408 C167.96399,40.5314408 168.449442,39.8874237 168.449442,38.9297924 C168.449442,36.3920024 162.532943,36.2328449 162.532943,32.039011 C162.532943,29.8336386 163.580852,28.0782051 167.164499,28.0782051 C170.024988,28.0782051 171.447198,29.3655678 171.252347,32.3096459 L168.392527,32.3096459 C168.392527,31.2593407 168.219103,30.1875458 167.03125,30.1875458 C166.077084,30.1875458 165.508602,30.7120269 165.508602,31.6884615 C165.508602,34.3625763 171.429788,34.1275336 171.429788,38.5557387 C171.429788,42.2103175 168.760802,42.6387668 166.527719,42.6387668 M173.688316,39.8283272 L176.026525,39.8283272 L176.026525,42.4057387 L173.688316,42.4057387 L173.688316,39.8283272 Z M178.689486,28.3092186 L183.592895,28.3092186 C187.449065,28.3092186 188.168205,30.88663 188.168205,35.2819292 C188.168205,37.4476801 188.503669,42.4057387 183.480404,42.4057387 L178.689486,42.4057387 L178.689486,28.3092186 L178.689486,28.3092186 Z M181.629656,40.2359585 L183.051866,40.2359585 C184.841681,40.2359585 185.194555,38.8861416 185.194555,35.3578144 C185.194555,32.7615995 185.194555,30.4776557 183.150296,30.4776557 L181.629656,30.4776557 L181.629656,40.2359585 L181.629656,40.2359585 Z M22.7332193,18.1876068 L26.3168662,19.4152015 L34.0626858,16.9626984 C33.5082651,16.4079976 32.5701692,15.4107448 32.2467571,14.9090965 L22.2316963,18.0788156 C22.3977546,18.0989621 22.5651522,18.1285104 22.7332193,18.1876068 L22.7332193,18.1876068 Z M27.2643363,13.8446886 C27.1792984,13.9937729 27.0406932,14.234188 26.8632518,14.4974359 L31.3528542,13.0750916 C30.227273,12.2537851 28.1086896,12.3954823 27.2643363,13.8446886 L27.2643363,13.8446886 Z M14.4972597,11 L12.1603898,11.7393773 C12.0994571,12.4015263 12.0552641,13.3940781 12.0291501,14.4074481 L19.1823824,12.1416361 C17.6376378,11.6661783 15.8505015,11.2283272 14.4972597,11 L14.4972597,11 Z M30.3464601,21.6830281 C30.4810477,22.1047619 30.4663168,22.5533578 30.3183373,22.9757631 L35.0784542,21.4674603 C35.1748752,20.4574481 35.2572348,19.5931624 34.8936473,18.8967643 L29.5221945,20.5971306 C29.9165832,20.8644078 30.2058462,21.2371184 30.3464601,21.6830281 L30.3464601,21.6830281 Z M12.3666236,19.0881563 L21.5534014,16.1769841 C22.4352517,15.5175214 23.56552,14.6001832 22.4191815,13.5062271 C22.3649447,13.4538462 22.2906202,13.398779 22.2035735,13.3430403 L12.0063841,16.573199 C12.009732,17.2836996 12.0271413,17.85116 12.0632992,18.1016484 C12.1195448,18.5267399 12.2628371,18.8403541 12.3666236,19.0881563 L12.3666236,19.0881563 Z M16.9385856,35.9957875 L17.1642375,36.7116606 L36.2395236,30.6717338 C36.0948921,29.9565324 35.9629828,29.2634921 35.8591964,28.6852869 C35.8317432,28.5200855 35.8049596,28.354884 35.7801847,28.1903541 L15.4741918,34.6197802 C16.0399955,34.7117827 16.6607057,35.1053114 16.9385856,35.9957875 L16.9385856,35.9957875 Z M19.1776953,45.6452991 L27.4009327,43.0416972 C27.37281,42.2660562 27.0554242,41.7650794 26.4762286,41.2761905 C26.2887434,41.1177045 26.1869657,40.9625763 26.1575037,40.8067766 L19.1448854,43.0282662 L19.4100431,43.8865079 C19.6156073,44.5405983 19.5332477,45.159768 19.1810432,45.6426129 C19.1797041,45.6426129 19.1797041,45.6452991 19.1776953,45.6452991 L19.1776953,45.6452991 Z M28.4408063,25.7277778 L26.0979102,28.9498779 C26.0470213,29.0190476 25.9941237,29.084188 25.9351998,29.1513431 L35.4648077,26.1313797 C35.3871353,25.7056166 35.2913839,25.226801 35.1648313,24.6653846 C35.0844805,24.3161783 35.0389483,23.9763736 35.0121647,23.6486569 L28.4408063,25.7277778 L28.4408063,25.7277778 Z M20.3541653,20.5138584 C20.1499403,19.8611111 20.2322999,19.2405983 20.5845043,18.7577534 C20.6420891,18.6791819 20.7097177,18.6066545 20.7800247,18.5408425 L6.04502235,23.2067766 C6.04502235,23.3558608 6.03899603,23.484127 6.02024751,23.5700855 C5.80664823,24.510928 5.26361056,25.4081197 4.65629224,26.2730769 L20.5798172,21.2337607 L20.3541653,20.5138584 L20.3541653,20.5138584 Z M10.5105195,48.3946276 L17.2285182,46.265812 C17.1622287,46.2470085 17.0999568,46.2355922 17.0323282,46.213431 L13.2116464,44.9092796 L6.04033521,47.1797924 C7.40897762,47.5034799 10.0150227,48.0608669 10.3886541,48.3026252 C10.4382038,48.3315018 10.4710137,48.3617216 10.5105195,48.3946276 L10.5105195,48.3946276 Z M9.41908745,42.7253968 C9.27780392,42.2821734 9.2992308,41.8114164 9.4706459,41.3722222 L3.44232517,43.2787546 C3.44232517,43.2787546 3.44232517,43.2827839 3.44366435,43.2827839 C3.6659683,43.9227717 3.80591266,44.8830891 4.14807326,45.6822344 L10.1864378,43.7710012 C9.82285035,43.509768 9.55099672,43.1504884 9.41908745,42.7253968 L9.41908745,42.7253968 Z M7.45183139,18.7094017 C6.20505441,18.4421245 5.97471537,19.7610501 5.9727066,21.1108669 L10.7047007,19.6133089 C9.56237976,19.3359585 8.11941284,18.8544567 7.45183139,18.7094017 L7.45183139,18.7094017 Z M28.9671043,54.2794261 L18.251652,57.6714286 C18.255,57.6848596 18.2643742,57.7083639 18.266383,57.7184371 C18.2891491,58.0152625 18.4719472,58.585409 18.7732628,58.7506105 C19.3323706,59.0615385 20.8329223,59.1139194 22.5437253,58.9386447 L29.0662036,56.8742979 C29.5021068,56.4700244 29.7130278,56.0187424 29.5858056,55.5164225 C29.439835,54.9355311 29.2931947,54.7481685 28.9671043,54.2794261 L28.9671043,54.2794261 Z M28.4702683,44.8636142 L9.00461111,51.0257631 C8.79235101,51.9551893 8.28881916,52.958486 8.4093454,53.8429182 L30.3544952,46.896398 C29.8790861,46.2 29.1070486,45.5203907 28.4702683,44.8636142 L28.4702683,44.8636142 Z M32.0324883,48.5202076 L8.56067279,55.9529304 C8.68119903,56.0912698 8.91756438,56.2222222 9.37221614,56.4203297 C10.5419902,56.9253358 11.9186677,57.1113553 13.3830615,57.053602 L32.1496666,51.1144078 C32.3846927,50.5529915 32.3733097,49.2730159 32.2447484,48.8862027 C32.1891724,48.718315 32.1148479,48.6054945 32.0324883,48.5202076 L32.0324883,48.5202076 Z M22.8202661,28.4079365 L22.567161,27.5899878 L3.06735465,33.7615385 C2.70041921,34.9199634 1.74625315,35.7016484 2.06363891,36.7049451 L24.0777565,29.7349206 C23.5762334,29.5891941 23.0653361,29.190293 22.8202661,28.4079365 L22.8202661,28.4079365 Z M13.6609415,35.4578755 C13.7600408,35.3188645 13.8685144,35.1966422 13.9850231,35.0918803 L2.76804782,38.6423687 C2.88790447,39.3783883 3.00173481,40.3118437 3.10819965,41.16337 L11.4298669,38.526862 L13.6609415,35.4578755 L13.6609415,35.4578755 Z M2.61939879,31.8234432 L23.2561693,25.3355922 L24.0924875,28.0090354 C24.1875693,28.3125763 24.3603236,28.4703907 24.5498176,28.4703907 C24.7031538,28.4703907 24.8725601,28.3689866 25.0225483,28.1601343 L28.9342943,22.7843712 C29.269759,22.3163004 29.1023615,21.7810745 28.5593238,21.5970696 L22.3020032,19.4507937 C22.1935296,19.4152015 22.0930911,19.3916972 22.0060444,19.3916972 C21.6538399,19.3916972 21.4877815,19.6757631 21.6263867,20.1149573 L22.4600265,22.7877289 L2.86781676,28.9424908 C2.52096903,29.5737485 2.29665631,30.1909035 2.31942238,30.8047009 C2.33281418,31.1438339 2.46271468,31.5004274 2.61939879,31.8234432 M15.668373,36.3953602 C15.5732911,36.0911477 15.401876,35.9326618 15.2097037,35.9326618 C15.0563675,35.9326618 14.8883003,36.0347375 14.7403209,36.2395604 L10.8312532,41.6227106 C10.4924406,42.0880952 10.6631861,42.6260073 11.2062237,42.8106838 L17.4628747,44.9502442 C17.5733571,44.9851648 17.6737957,45.0053114 17.7628512,45.0053114 C18.1130468,45.0053114 18.2791052,44.7286325 18.1391609,44.2860806 L17.3035123,41.6159951 L36.9747337,35.418254 C36.9867863,34.4935287 36.8187191,33.4015873 36.6854707,32.708547 L16.5040215,39.0647741 L15.668373,36.3953602" id="trusted_mfb" fill-opacity="0.55" fill="#FFFFFF"></path>
                </g>
            </g>
        </g>
    </g>
</svg>