<?xml version="1.0" encoding="UTF-8"?>
<svg width="197px" height="49px" viewBox="0 0 197 49" version="1.1" xmlns="http://www.w3.org/2000/svg" xmlns:xlink="http://www.w3.org/1999/xlink">
    <!-- Generator: Sketch 46.2 (44496) - http://www.bohemiancoding.com/sketch -->
    <title>trusted_mfb</title>
    <desc>Created with Sketch.</desc>
    <defs></defs>
    <g id="mainpage" stroke="none" stroke-width="1" fill="none" fill-rule="evenodd">
        <g id="landing-v4.2" transform="translate(-1024.000000, -2118.000000)" opacity="0.4"  fill="#FFFFFF">
            <g id="Group-2" transform="translate(221.000000, 2032.000000)">
                <path d="M992.038592,117.47906 L992.038592,103.386569 L999.708078,103.386569 L999.708078,105.555006 L994.976084,105.555006 L994.976084,109.030281 L999.339134,109.030281 L999.339134,111.198718 L994.976084,111.198718 L994.976084,115.314652 L999.862084,115.314652 L999.862084,117.47906 L992.038592,117.47906 M849.614744,117.47906 L849.614744,103.386569 L854.34339,103.386569 L856.542994,112.97094 L856.579821,112.97094 L858.91937,103.386569 L863.49468,103.386569 L863.49468,117.47906 L860.631512,117.47906 L860.631512,106.607998 L860.590667,106.607998 L857.887531,117.47906 L855.083957,117.47906 L852.516078,106.607998 L852.476573,106.607998 L852.476573,117.47906 L849.614744,117.47906 M866.257409,117.47906 L866.257409,103.386569 L873.929574,103.386569 L873.929574,105.555006 L869.197579,105.555006 L869.197579,109.030281 L873.557281,109.030281 L873.557281,111.198718 L869.197579,111.198718 L869.197579,115.314652 L874.086258,115.314652 L874.086258,117.47906 L866.257409,117.47906 M876.362195,103.386569 L879.302365,103.386569 L879.302365,117.483089 L876.362195,117.483089 L876.362195,103.386569 Z M882.185621,117.47906 L882.185621,103.386569 L886.152273,103.386569 L889.893944,113.149573 L889.931441,113.149573 L889.931441,103.386569 L892.673413,103.386569 L892.673413,117.47906 L888.805859,117.47906 L884.969107,107.175458 L884.927593,107.175458 L884.927593,117.47906 L882.185621,117.47906 M895.481004,117.47906 L895.481004,103.386569 L902.778198,103.386569 L902.778198,105.555006 L898.421175,105.555006 L898.421175,109.165263 L902.585357,109.165263 L902.585357,111.32967 L898.421175,111.32967 L898.421175,117.47906 L895.481004,117.47906 M904.571361,117.47906 L904.571361,103.386569 L912.240178,103.386569 L912.240178,105.555006 L907.509523,105.555006 L907.509523,109.030281 L911.867886,109.030281 L911.867886,111.198718 L907.509523,111.198718 L907.509523,115.314652 L912.395523,115.314652 L912.395523,117.47906 L904.571361,117.47906 M917.575473,117.483089 L914.637311,117.483089 L914.637311,103.386569 L920.069696,103.386569 C922.070432,103.386569 923.358723,104.677289 923.358723,107.076068 C923.358723,108.871795 922.654315,110.217582 920.75,110.531197 L920.75,110.572161 C921.392807,110.646703 923.294443,110.805189 923.294443,113.343651 C923.294443,114.241514 923.358723,116.895482 923.62589,117.483089 L920.75,117.483089 C920.358959,116.620818 920.437301,115.667888 920.437301,114.749206 C920.437301,113.073016 920.589298,111.647314 918.33211,111.647314 L917.575473,111.647314 L917.575473,117.483089 L917.575473,117.483089 Z M917.575473,109.479548 L918.879165,109.479548 C920.045591,109.479548 920.379717,108.307692 920.379717,107.409829 C920.379717,106.06337 919.815922,105.554335 918.879165,105.554335 L917.575473,105.554335 L917.575473,109.479548 L917.575473,109.479548 Z M925.92928,117.47906 L925.92928,103.386569 L929.895933,103.386569 L933.637603,113.149573 L933.673091,113.149573 L933.673091,103.386569 L936.418411,103.386569 L936.418411,117.47906 L932.54818,117.47906 L928.70741,107.175458 L928.671922,107.175458 L928.671922,117.47906 L925.92928,117.47906 M939.323763,117.483089 L939.323763,103.386569 L944.539201,103.386569 C946.778311,103.386569 948.627049,104.033272 948.627049,107.036447 C948.627049,108.656899 947.82555,109.828083 946.229916,110.14304 L946.229916,110.182662 C948.314351,110.4721 948.857388,111.821917 948.857388,113.752625 C948.857388,117.323932 945.76656,117.483089 944.521122,117.483089 L939.323763,117.483089 L939.323763,117.483089 Z M942.257238,109.145788 L944.227842,109.145788 C944.8673,109.145788 945.76656,108.716667 945.76656,107.353419 C945.76656,106.313858 945.061482,105.555006 944.069818,105.555006 L942.257238,105.555006 L942.257238,109.145788 L942.257238,109.145788 Z M942.257238,115.313309 L943.893716,115.313309 C944.521122,115.313309 945.920566,115.293834 945.920566,113.323504 C945.920566,112.076435 945.451853,111.310195 943.974067,111.310195 L942.257238,111.310195 L942.257238,115.313309 L942.257238,115.313309 Z M961.066027,103.386569 L961.066027,113.383944 C961.066027,115.489255 959.880852,117.716117 956.293857,117.716117 C953.064424,117.716117 951.508296,116.035897 951.508296,113.383944 L951.508296,103.386569 L954.451815,103.386569 L954.451815,113.184493 C954.451815,114.925153 955.189034,115.607448 956.258369,115.607448 C957.545322,115.607448 958.123847,114.749206 958.123847,113.184493 L958.123847,103.386569 L961.066027,103.386569 M967.670195,117.716117 C964.025616,117.716117 963.34866,115.570513 963.497309,113.129426 L966.438149,113.129426 C966.438149,114.472527 966.500421,115.608791 968.111455,115.608791 C969.106466,115.608791 969.591919,114.964774 969.591919,114.007143 C969.591919,111.469353 963.67542,111.310195 963.67542,107.116361 C963.67542,104.910989 964.723329,103.155556 968.306976,103.155556 C971.167465,103.155556 972.589675,104.442918 972.394824,107.386996 L969.535004,107.386996 C969.535004,106.336691 969.36158,105.264896 968.173727,105.264896 C967.219561,105.264896 966.651079,105.789377 966.651079,106.765812 C966.651079,109.439927 972.572265,109.204884 972.572265,113.633089 C972.572265,117.287668 969.903279,117.716117 967.670195,117.716117 M974.830793,114.905678 L977.169002,114.905678 L977.169002,117.483089 L974.830793,117.483089 L974.830793,114.905678 Z M979.831962,103.386569 L984.735372,103.386569 C988.591542,103.386569 989.310681,105.96398 989.310681,110.35928 C989.310681,112.525031 989.646146,117.483089 984.62288,117.483089 L979.831962,117.483089 L979.831962,103.386569 L979.831962,103.386569 Z M982.772133,115.313309 L984.194343,115.313309 C985.984157,115.313309 986.337031,113.963492 986.337031,110.435165 C986.337031,107.83895 986.337031,105.555006 984.292772,105.555006 L982.772133,105.555006 L982.772133,115.313309 L982.772133,115.313309 Z M823.875696,93.2649573 L827.459343,94.4925519 L835.205163,92.0400488 C834.650742,91.485348 833.712646,90.4880952 833.389234,89.9864469 L823.374173,93.1561661 C823.540231,93.1763126 823.707629,93.2058608 823.875696,93.2649573 L823.875696,93.2649573 Z M828.406813,88.9220391 C828.321775,89.0711233 828.18317,89.3115385 828.005729,89.5747863 L832.495331,88.152442 C831.36975,87.3311355 829.251166,87.4728327 828.406813,88.9220391 L828.406813,88.9220391 Z M815.639736,86.0773504 L813.302867,86.8167277 C813.241934,87.4788767 813.197741,88.4714286 813.171627,89.4847985 L820.324859,87.2189866 C818.780114,86.7435287 816.992978,86.3056777 815.639736,86.0773504 L815.639736,86.0773504 Z M831.488937,96.7603785 C831.623524,97.1821123 831.608793,97.6307082 831.460814,98.0531136 L836.220931,96.5448107 C836.317352,95.5347985 836.399711,94.6705128 836.036124,93.9741148 L830.664671,95.6744811 C831.05906,95.9417582 831.348323,96.3144689 831.488937,96.7603785 L831.488937,96.7603785 Z M813.5091,94.1655067 L822.695878,91.2543346 C823.577728,90.5948718 824.707997,89.6775336 823.561658,88.5835775 C823.507421,88.5311966 823.433097,88.4761294 823.34605,88.4203907 L813.148861,91.6505495 C813.152209,92.3610501 813.169618,92.9285104 813.205776,93.1789988 C813.262022,93.6040904 813.405314,93.9177045 813.5091,94.1655067 L813.5091,94.1655067 Z M818.081062,111.073138 L818.306714,111.789011 L837.382,105.749084 C837.237369,105.033883 837.10546,104.340842 837.001673,103.762637 C836.97422,103.597436 836.947436,103.432234 836.922661,103.267705 L816.616668,109.697131 C817.182472,109.789133 817.803182,110.182662 818.081062,111.073138 L818.081062,111.073138 Z M820.320172,120.72265 L828.543409,118.119048 C828.515287,117.343407 828.197901,116.84243 827.618705,116.353541 C827.43122,116.195055 827.329442,116.039927 827.29998,115.884127 L820.287362,118.105617 L820.55252,118.963858 C820.758084,119.617949 820.675724,120.237118 820.32352,120.719963 C820.322181,120.719963 820.322181,120.72265 820.320172,120.72265 L820.320172,120.72265 Z M829.583283,100.805128 L827.240387,104.027228 C827.189498,104.096398 827.1366,104.161538 827.077676,104.228694 L836.607284,101.20873 C836.529612,100.782967 836.433861,100.304151 836.307308,99.742735 C836.226957,99.3935287 836.181425,99.0537241 836.154641,98.7260073 L829.583283,100.805128 L829.583283,100.805128 Z M821.496642,95.5912088 C821.292417,94.9384615 821.374777,94.3179487 821.726981,93.8351038 C821.784566,93.7565324 821.852194,93.6840049 821.922501,93.6181929 L807.187499,98.284127 C807.187499,98.4332112 807.181473,98.5614774 807.162724,98.6474359 C806.949125,99.5882784 806.406087,100.48547 805.798769,101.350427 L821.722294,96.3111111 L821.496642,95.5912088 L821.496642,95.5912088 Z M811.652996,123.471978 L818.370995,121.343162 C818.304705,121.324359 818.242434,121.312943 818.174805,121.290781 L814.354123,119.98663 L807.182812,122.257143 C808.551454,122.58083 811.157499,123.138217 811.531131,123.379976 C811.58068,123.408852 811.61349,123.439072 811.652996,123.471978 L811.652996,123.471978 Z M810.561564,117.802747 C810.420281,117.359524 810.441708,116.888767 810.613123,116.449573 L804.584802,118.356105 C804.584802,118.356105 804.584802,118.360134 804.586141,118.360134 C804.808445,119.000122 804.948389,119.96044 805.29055,120.759585 L811.328915,118.848352 C810.965327,118.587118 810.693473,118.227839 810.561564,117.802747 L810.561564,117.802747 Z M808.594308,93.7867521 C807.347531,93.519475 807.117192,94.8384005 807.115183,96.1882173 L811.847177,94.6906593 C810.704856,94.4133089 809.26189,93.9318071 808.594308,93.7867521 L808.594308,93.7867521 Z M830.109581,129.356777 L819.394129,132.748779 C819.397477,132.76221 819.406851,132.785714 819.40886,132.795788 C819.431626,133.092613 819.614424,133.662759 819.915739,133.827961 C820.474847,134.138889 821.975399,134.19127 823.686202,134.015995 L830.20868,131.951648 C830.644584,131.547375 830.855504,131.096093 830.728282,130.593773 C830.582312,130.012882 830.435671,129.825519 830.109581,129.356777 L830.109581,129.356777 Z M829.612745,119.940965 L810.147088,126.103114 C809.934828,127.03254 809.431296,128.035836 809.551822,128.920269 L831.496972,121.973748 C831.021563,121.27735 830.249525,120.597741 829.612745,119.940965 L829.612745,119.940965 Z M833.174965,123.597558 L809.70315,131.030281 C809.823676,131.16862 810.060041,131.299573 810.514693,131.49768 C811.684467,132.002686 813.061144,132.188706 814.525538,132.130952 L833.292143,126.191758 C833.527169,125.630342 833.515786,124.350366 833.387225,123.963553 C833.331649,123.795665 833.257325,123.682845 833.174965,123.597558 L833.174965,123.597558 Z M823.962743,103.485287 L823.709638,102.667338 L804.209831,108.838889 C803.842896,109.997314 802.88873,110.778999 803.206116,111.782295 L825.220233,104.812271 C824.71871,104.666545 824.207813,104.267643 823.962743,103.485287 L823.962743,103.485287 Z M814.803418,110.535226 C814.902518,110.396215 815.010991,110.273993 815.1275,110.169231 L803.910525,113.719719 C804.030381,114.455739 804.144212,115.389194 804.250676,116.24072 L812.572344,113.604212 L814.803418,110.535226 L814.803418,110.535226 Z M803.761876,106.900794 L824.398646,100.412943 L825.234964,103.086386 C825.330046,103.389927 825.5028,103.547741 825.692294,103.547741 C825.84563,103.547741 826.015037,103.446337 826.165025,103.237485 L830.076771,97.8617216 C830.412236,97.3936508 830.244838,96.8584249 829.701801,96.67442 L823.44448,94.5281441 C823.336006,94.4925519 823.235568,94.4690476 823.148521,94.4690476 C822.796317,94.4690476 822.630258,94.7531136 822.768863,95.1923077 L823.602503,97.8650794 L804.010293,104.019841 C803.663446,104.651099 803.439133,105.268254 803.461899,105.882051 C803.475291,106.221184 803.605191,106.577778 803.761876,106.900794 M816.81085,111.472711 C816.715768,111.168498 816.544353,111.010012 816.35218,111.010012 C816.198844,111.010012 816.030777,111.112088 815.882798,111.316911 L811.97373,116.700061 C811.634917,117.165446 811.805663,117.703358 812.3487,117.888034 L818.605351,120.027595 C818.715834,120.062515 818.816272,120.082662 818.905328,120.082662 C819.255524,120.082662 819.421582,119.805983 819.281638,119.363431 L818.445989,116.693346 L838.11721,110.495604 C838.129263,109.570879 837.961196,108.478938 837.827947,107.785897 L817.646498,114.142125 L816.81085,111.472711" id="trusted_mfb"></path>
            </g>
        </g>
    </g>
</svg>