<?xml version="1.0" encoding="UTF-8"?>
<svg width="200px" height="70px" viewBox="0 0 200 70" version="1.1" xmlns="http://www.w3.org/2000/svg" xmlns:xlink="http://www.w3.org/1999/xlink">
    <!-- Generator: Sketch 47.1 (45422) - http://www.bohemiancoding.com/sketch -->
    <title>trusted_np</title>
    <desc>Created with Sketch.</desc>
    <defs></defs>
    <g id="mainpage" stroke="none" stroke-width="1" fill="none" fill-rule="evenodd">
        <g id="landing-v4.2" transform="translate(-220.000000, -2107.000000)">
            <g id="Group-2" transform="translate(220.000000, 2032.000000)">
                <g id="np" transform="translate(0.000000, 75.000000)">
                    <rect id="Rectangle-10" x="0" y="0" width="200" height="70"></rect>
                    <path d="M32.3084343,42.1261868 C32.3084343,42.6025917 32.5890364,42.7167749 32.9313189,42.3802124 L39.2974257,36.1133927 C39.6401426,35.7759748 39.6401426,35.2251584 39.2974257,34.8885959 L32.9313189,28.6204932 C32.5890364,28.2835031 32.3084343,28.3976863 32.3084343,28.8745188 L32.3084343,42.1261868 Z M17.6832421,25.3637484 C18.1671287,25.3637484 18.5628386,25.7533398 18.5628386,26.2301724 L18.5628386,31.0378417 C18.5628386,31.5146743 18.9589828,31.9042657 19.4428694,31.9042657 L24.267402,31.9042657 C24.7508542,31.9042657 25.1465641,31.5146743 25.1465641,31.0378417 L25.1465641,26.2301724 C25.1465641,25.7533398 25.5427083,25.3637484 26.0270293,25.3637484 L28.7435708,25.3637484 C29.2270231,25.3637484 29.3434339,25.0883402 29.000717,24.75135 L22.4000512,18.2527426 C22.0573343,17.9157525 21.4983019,17.9157525 21.155585,18.2527426 L14.5540504,24.75135 C14.2117679,25.0879125 14.3273099,25.3637484 14.8111966,25.3637484 L17.6832421,25.3637484 Z M11.4008815,28.7215903 C11.4008815,28.2451854 11.1202794,28.1305745 10.7779969,28.4679923 L4.25638609,34.887484 C3.91453797,35.2249018 3.91453797,35.7752906 4.25638609,36.1127084 L10.7779969,42.5330554 C11.1202794,42.8691903 11.4008815,42.7554347 11.4008815,42.2790298 L11.4008815,28.7215903 Z M26.0268556,45.7879613 C25.5429689,45.7879613 25.1463903,45.3983699 25.1463903,44.9211097 L25.1463903,39.8217813 C25.1463903,39.3453764 24.7511149,38.9549297 24.2672282,38.9549297 L19.4431301,38.9549297 C18.9592434,38.9549297 18.5626648,39.3453764 18.5626648,39.8217813 L18.5626648,44.9211097 C18.5626648,45.3983699 18.1673894,45.7879613 17.6830683,45.7879613 L14.9639206,45.7879613 C14.480034,45.7879613 14.3644919,46.0633695 14.7067744,46.4003597 L21.1536738,52.7475781 C21.4972594,53.0841406 22.0558574,53.0841406 22.3981399,52.7475781 L28.8463424,46.4003597 C29.1886249,46.0633695 29.0730829,45.7879613 28.5891962,45.7879613 L26.0268556,45.7879613 Z M57.7212151,29.7514203 L57.7212151,36.3175967 C57.7212151,36.539976 57.7307712,36.7858762 57.7451054,37.0279275 C57.567883,36.731992 57.3715484,36.4198057 57.1804262,36.1443975 L51.5683833,28.0716012 L48.6711445,28.0716012 L48.6711445,40.0351799 C48.6711445,40.1485078 48.6463854,40.172884 48.5312777,40.172884 L47.3376327,40.172884 L47.3376327,43.0283198 L50.2757022,43.0283198 C51.4398102,43.0283198 51.9819022,42.4941818 51.9819022,41.3480731 L51.9819022,34.8024239 C51.9819022,34.5834659 51.9723461,34.3409869 51.958012,34.1023568 C52.1352344,34.3982923 52.331569,34.7079127 52.5231256,34.9760508 L58.1560181,43.0283198 L61.0306698,43.0283198 L61.0306698,31.0647411 C61.0306698,30.9514132 61.0562976,30.9266093 61.1709709,30.9266093 L62.3646159,30.9266093 L62.3646159,28.0716012 L59.4274151,28.0716012 C58.2785101,28.0716012 57.7212151,28.6211347 57.7212151,29.7514203 M71.1133216,27.8293361 C66.7162078,27.8293361 63.2712301,31.1761446 63.2712301,35.4492483 C63.2712301,39.8352524 66.7162078,43.2705849 71.1133216,43.2705849 C75.5108697,43.2705849 78.9554131,39.8352524 78.9554131,35.4492483 C78.9554131,31.1761446 75.5108697,27.8293361 71.1133216,27.8293361 M71.1133216,40.1936252 C68.6296017,40.1936252 66.6844989,38.1096745 66.6844989,35.4492483 C66.6844989,32.9021501 68.6296017,30.9067235 71.1133216,30.9067235 C73.5970415,30.9067235 75.5421443,32.9021501 75.5421443,35.4492483 C75.5421443,38.1096745 73.5970415,40.1936252 71.1133216,40.1936252 M92.6018424,30.9266521 L93.2816293,30.9266521 L93.2816293,28.0712164 L91.2674619,28.0712164 C90.1094351,28.0712164 89.6242454,28.4077789 89.2711036,29.449968 L86.4594354,37.449208 C86.359965,37.7301757 86.2626664,38.0650276 86.1788333,38.3849117 C86.0945658,38.0654553 85.9981359,37.7314587 85.8986655,37.4509186 L83.1082814,29.4533892 C82.7547053,28.4077789 82.2686468,28.0712164 81.1101856,28.0712164 L79.0964526,28.0712164 L79.0964526,30.9266521 L79.7766739,30.9266521 C80.0025456,30.9266521 80.0433762,30.9561601 80.1206938,31.1699864 L84.5456072,43.0283625 L87.8320403,43.0283625 L92.2586912,31.1665652 C92.3342713,30.9561601 92.3759707,30.9266521 92.6018424,30.9266521 M104.872887,39.9301057 L100.489673,28.0713019 L97.2427673,28.0713019 L92.8360974,39.9382311 C92.7566079,40.1730123 92.7327177,40.1730123 92.5155333,40.1730123 L91.855293,40.1730123 L91.855293,43.0284481 L93.7873647,43.0284481 C94.9458259,43.0284481 95.4310157,42.6927408 95.7824199,41.6548282 L96.6316106,39.3510642 L101.100395,39.3510642 L101.94698,41.6475581 C102.300556,42.6927408 102.785746,43.0284481 103.94551,43.0284481 L105.856732,43.0284481 L105.856732,40.1730123 L105.216907,40.1730123 C105.002329,40.1730123 104.969317,40.1730123 104.872887,39.9301057 M98.8629623,32.3127594 C98.961564,32.6736981 99.0731967,33.059013 99.1770108,33.3664951 L100.287691,36.5563551 L97.4629922,36.5563551 L98.5558637,33.3639292 C98.6596778,33.0573024 98.76827,32.6728428 98.8629623,32.3127594 M120.647462,28.0714302 L113.668027,28.0714302 L113.668027,30.9268659 L115.001538,30.9268659 L115.001538,43.0281487 L118.311427,43.0281487 L118.311427,38.0784987 L120.647462,38.0784987 C123.561207,38.0784987 125.595789,36.0086606 125.595789,33.0446011 C125.595789,30.1168921 123.561207,28.0714302 120.647462,28.0714302 L120.647462,28.0714302 Z M118.311427,30.9268659 L120.196153,30.9268659 C121.466681,30.9268659 122.22422,31.718023 122.22422,33.0446011 C122.22422,34.4165103 121.47059,35.2033909 120.155757,35.2033909 L118.311427,35.2033909 L118.311427,30.9268659 Z M134.417295,27.8293361 C130.019747,27.8293361 126.575204,31.1761446 126.575204,35.4492483 C126.575204,39.8352524 130.019747,43.2705849 134.417295,43.2705849 C138.813975,43.2705849 142.258518,39.8352524 142.258518,35.4492483 C142.258518,31.1761446 138.813975,27.8293361 134.417295,27.8293361 M134.417295,40.1936252 C131.932707,40.1936252 129.98717,38.1096745 129.98717,35.4492483 C129.98717,32.9021501 131.932707,30.9067235 134.417295,30.9067235 C136.900147,30.9067235 138.846118,32.9021501 138.846118,35.4492483 C138.846118,38.1096745 136.900147,40.1936252 134.417295,40.1936252 M149.147822,33.8991363 C147.857747,33.3547347 146.74446,32.8847446 146.74446,32.0747708 C146.74446,31.3511827 147.493746,30.8456975 148.567071,30.8456975 C149.428858,30.8456975 150.185094,31.2220317 150.185094,31.6509671 L150.185094,32.6037769 L153.248696,32.6037769 L153.248696,30.9637296 C153.248696,28.6804929 150.390551,27.8294644 148.587486,27.8294644 C145.638558,27.8294644 143.413287,29.6978782 143.413287,32.1761244 C143.413287,34.9524444 145.840105,36.0459519 147.789986,36.9252054 C149.119588,37.5243466 150.26719,38.0418061 150.26719,38.8834262 C150.26719,39.9097922 149.318094,40.2741521 148.505391,40.2741521 C146.625878,40.2741521 145.225907,38.6995356 145.212008,38.6837125 L144.969196,38.4070213 L143.038427,40.7390104 L143.193062,40.9318817 C143.27038,41.0276758 145.1108,43.2702855 148.46456,43.2702855 C151.026032,43.2702855 153.618344,41.7144858 153.618344,38.7423009 C153.618344,35.7855115 151.139402,34.7394735 149.147822,33.8991363 M165.185668,29.7514203 L165.185668,34.1528198 L159.385109,34.1528198 L159.385109,29.7514203 C159.385109,28.6211347 158.826945,28.0716012 157.678475,28.0716012 L154.740405,28.0716012 L154.740405,30.9266093 L155.93405,30.9266093 C156.050027,30.9266093 156.074786,30.9514132 156.074786,31.0647411 L156.074786,43.0283198 L159.385109,43.0283198 L159.385109,37.0074002 L165.185668,37.0074002 L165.185668,43.0283198 L168.495557,43.0283198 L168.495557,31.0647411 C168.495557,30.9514132 168.519882,30.9266093 168.636727,30.9266093 L169.829503,30.9266093 L169.829503,28.0716012 L166.891868,28.0716012 C165.759903,28.0716012 165.185668,28.6369579 165.185668,29.7514203 M184.254972,32.2399302 L184.254972,29.6705939 C184.254972,28.5501444 183.76848,28.0716012 182.630868,28.0716012 L172.451873,28.0716012 C171.328162,28.0716012 170.848619,28.5501444 170.848619,29.6705939 L170.848619,32.2399302 L173.830559,32.2399302 L173.830559,31.0647411 C173.830559,30.9411495 173.844459,30.9266093 173.971295,30.9266093 L175.897285,30.9266093 L175.897285,43.0283198 L179.206306,43.0283198 L179.206306,30.9266093 L181.111447,30.9266093 C181.237848,30.9266093 181.252616,30.9411495 181.252616,31.0647411 L181.252616,32.2399302 L184.254972,32.2399302 Z M196.361044,40.1730123 C196.145597,40.1730123 196.112585,40.1730123 196.017024,39.9301057 L191.632941,28.0713019 L188.38647,28.0713019 L183.979366,39.9382311 C183.899876,40.1730123 183.877289,40.1730123 183.657933,40.1730123 L182.999864,40.1730123 L182.999864,43.0284481 L184.931067,43.0284481 C186.089963,43.0284481 186.576021,42.6927408 186.926557,41.6548282 L187.775748,39.3514919 L192.244098,39.3514919 L193.090248,41.6475581 C193.444693,42.6927408 193.930317,43.0284481 195.088778,43.0284481 L197,43.0284481 L197,40.1730123 L196.361044,40.1730123 Z M190.00623,32.3127594 C190.105701,32.6736981 190.217768,33.059013 190.321582,33.3664951 L191.431394,36.5563551 L188.605826,36.5563551 L189.699132,33.3639292 C189.802946,33.0573024 189.911104,32.6728428 190.00623,32.3127594 L190.00623,32.3127594 Z" id="trusted_np" fill-opacity="0.55" fill="#FFFFFF"></path>
                </g>
            </g>
        </g>
    </g>
</svg>