<?xml version="1.0" encoding="UTF-8"?>
<svg width="193px" height="49px" viewBox="0 0 193 35" version="1.1" xmlns="http://www.w3.org/2000/svg" xmlns:xlink="http://www.w3.org/1999/xlink">
    <!-- Generator: Sketch 46.2 (44496) - http://www.bohemiancoding.com/sketch -->
    <title>trusted_np</title>
    <desc>Created with Sketch.</desc>
    <defs></defs>
    <g id="mainpage" stroke="none" stroke-width="1" fill="none" fill-rule="evenodd">
        <g id="landing-v4.2" transform="translate(-221.000000, -2125.000000)" opacity="0.4" fill="#FFFFFF">
            <g id="Group-2" transform="translate(221.000000, 2032.000000)">
                <path d="M28.3084343,117.126187 C28.3084343,117.602592 28.5890364,117.716775 28.9313189,117.380212 L35.2974257,111.113393 C35.6401426,110.775975 35.6401426,110.225158 35.2974257,109.888596 L28.9313189,103.620493 C28.5890364,103.283503 28.3084343,103.397686 28.3084343,103.874519 L28.3084343,117.126187 Z M13.6832421,100.363748 C14.1671287,100.363748 14.5628386,100.75334 14.5628386,101.230172 L14.5628386,106.037842 C14.5628386,106.514674 14.9589828,106.904266 15.4428694,106.904266 L20.267402,106.904266 C20.7508542,106.904266 21.1465641,106.514674 21.1465641,106.037842 L21.1465641,101.230172 C21.1465641,100.75334 21.5427083,100.363748 22.0270293,100.363748 L24.7435708,100.363748 C25.2270231,100.363748 25.3434339,100.08834 25.000717,99.75135 L18.4000512,93.2527426 C18.0573343,92.9157525 17.4983019,92.9157525 17.155585,93.2527426 L10.5540504,99.75135 C10.2117679,100.087913 10.3273099,100.363748 10.8111966,100.363748 L13.6832421,100.363748 Z M7.40088152,103.72159 C7.40088152,103.245185 7.12027938,103.130575 6.77799689,103.467992 L0.256386091,109.887484 C-0.0854620304,110.224902 -0.0854620304,110.775291 0.256386091,111.112708 L6.77799689,117.533055 C7.12027938,117.86919 7.40088152,117.755435 7.40088152,117.27903 L7.40088152,103.72159 Z M22.0268556,120.787961 C21.5429689,120.787961 21.1463903,120.39837 21.1463903,119.92111 L21.1463903,114.821781 C21.1463903,114.345376 20.7511149,113.95493 20.2672282,113.95493 L15.4431301,113.95493 C14.9592434,113.95493 14.5626648,114.345376 14.5626648,114.821781 L14.5626648,119.92111 C14.5626648,120.39837 14.1673894,120.787961 13.6830683,120.787961 L10.9639206,120.787961 C10.480034,120.787961 10.3644919,121.06337 10.7067744,121.40036 L17.1536738,127.747578 C17.4972594,128.084141 18.0558574,128.084141 18.3981399,127.747578 L24.8463424,121.40036 C25.1886249,121.06337 25.0730829,120.787961 24.5891962,120.787961 L22.0268556,120.787961 Z M53.7212151,104.75142 L53.7212151,111.317597 C53.7212151,111.539976 53.7307712,111.785876 53.7451054,112.027928 C53.567883,111.731992 53.3715484,111.419806 53.1804262,111.144397 L47.5683833,103.071601 L44.6711445,103.071601 L44.6711445,115.03518 C44.6711445,115.148508 44.6463854,115.172884 44.5312777,115.172884 L43.3376327,115.172884 L43.3376327,118.02832 L46.2757022,118.02832 C47.4398102,118.02832 47.9819022,117.494182 47.9819022,116.348073 L47.9819022,109.802424 C47.9819022,109.583466 47.9723461,109.340987 47.958012,109.102357 C48.1352344,109.398292 48.331569,109.707913 48.5231256,109.976051 L54.1560181,118.02832 L57.0306698,118.02832 L57.0306698,106.064741 C57.0306698,105.951413 57.0562976,105.926609 57.1709709,105.926609 L58.3646159,105.926609 L58.3646159,103.071601 L55.4274151,103.071601 C54.2785101,103.071601 53.7212151,103.621135 53.7212151,104.75142 M67.1133216,102.829336 C62.7162078,102.829336 59.2712301,106.176145 59.2712301,110.449248 C59.2712301,114.835252 62.7162078,118.270585 67.1133216,118.270585 C71.5108697,118.270585 74.9554131,114.835252 74.9554131,110.449248 C74.9554131,106.176145 71.5108697,102.829336 67.1133216,102.829336 M67.1133216,115.193625 C64.6296017,115.193625 62.6844989,113.109675 62.6844989,110.449248 C62.6844989,107.90215 64.6296017,105.906723 67.1133216,105.906723 C69.5970415,105.906723 71.5421443,107.90215 71.5421443,110.449248 C71.5421443,113.109675 69.5970415,115.193625 67.1133216,115.193625 M88.6018424,105.926652 L89.2816293,105.926652 L89.2816293,103.071216 L87.2674619,103.071216 C86.1094351,103.071216 85.6242454,103.407779 85.2711036,104.449968 L82.4594354,112.449208 C82.359965,112.730176 82.2626664,113.065028 82.1788333,113.384912 C82.0945658,113.065455 81.9981359,112.731459 81.8986655,112.450919 L79.1082814,104.453389 C78.7547053,103.407779 78.2686468,103.071216 77.1101856,103.071216 L75.0964526,103.071216 L75.0964526,105.926652 L75.7766739,105.926652 C76.0025456,105.926652 76.0433762,105.95616 76.1206938,106.169986 L80.5456072,118.028363 L83.8320403,118.028363 L88.2586912,106.166565 C88.3342713,105.95616 88.3759707,105.926652 88.6018424,105.926652 M100.872887,114.930106 L96.4896729,103.071302 L93.2427673,103.071302 L88.8360974,114.938231 C88.7566079,115.173012 88.7327177,115.173012 88.5155333,115.173012 L87.855293,115.173012 L87.855293,118.028448 L89.7873647,118.028448 C90.9458259,118.028448 91.4310157,117.692741 91.7824199,116.654828 L92.6316106,114.351064 L97.1003952,114.351064 L97.9469797,116.647558 C98.3005558,117.692741 98.7857455,118.028448 99.9455098,118.028448 L101.856732,118.028448 L101.856732,115.173012 L101.216907,115.173012 C101.002329,115.173012 100.969317,115.173012 100.872887,114.930106 M94.8629623,107.312759 C94.961564,107.673698 95.0731967,108.059013 95.1770108,108.366495 L96.2876915,111.556355 L93.4629922,111.556355 L94.5558637,108.363929 C94.6596778,108.057302 94.76827,107.672843 94.8629623,107.312759 M116.647462,103.07143 L109.668027,103.07143 L109.668027,105.926866 L111.001538,105.926866 L111.001538,118.028149 L114.311427,118.028149 L114.311427,113.078499 L116.647462,113.078499 C119.561207,113.078499 121.595789,111.008661 121.595789,108.044601 C121.595789,105.116892 119.561207,103.07143 116.647462,103.07143 L116.647462,103.07143 Z M114.311427,105.926866 L116.196153,105.926866 C117.466681,105.926866 118.22422,106.718023 118.22422,108.044601 C118.22422,109.41651 117.47059,110.203391 116.155757,110.203391 L114.311427,110.203391 L114.311427,105.926866 Z M130.417295,102.829336 C126.019747,102.829336 122.575204,106.176145 122.575204,110.449248 C122.575204,114.835252 126.019747,118.270585 130.417295,118.270585 C134.813975,118.270585 138.258518,114.835252 138.258518,110.449248 C138.258518,106.176145 134.813975,102.829336 130.417295,102.829336 M130.417295,115.193625 C127.932707,115.193625 125.98717,113.109675 125.98717,110.449248 C125.98717,107.90215 127.932707,105.906723 130.417295,105.906723 C132.900147,105.906723 134.846118,107.90215 134.846118,110.449248 C134.846118,113.109675 132.900147,115.193625 130.417295,115.193625 M145.147822,108.899136 C143.857747,108.354735 142.74446,107.884745 142.74446,107.074771 C142.74446,106.351183 143.493746,105.845697 144.567071,105.845697 C145.428858,105.845697 146.185094,106.222032 146.185094,106.650967 L146.185094,107.603777 L149.248696,107.603777 L149.248696,105.96373 C149.248696,103.680493 146.390551,102.829464 144.587486,102.829464 C141.638558,102.829464 139.413287,104.697878 139.413287,107.176124 C139.413287,109.952444 141.840105,111.045952 143.789986,111.925205 C145.119588,112.524347 146.26719,113.041806 146.26719,113.883426 C146.26719,114.909792 145.318094,115.274152 144.505391,115.274152 C142.625878,115.274152 141.225907,113.699536 141.212008,113.683712 L140.969196,113.407021 L139.038427,115.73901 L139.193062,115.931882 C139.27038,116.027676 141.1108,118.270286 144.46456,118.270286 C147.026032,118.270286 149.618344,116.714486 149.618344,113.742301 C149.618344,110.785511 147.139402,109.739473 145.147822,108.899136 M161.185668,104.75142 L161.185668,109.15282 L155.385109,109.15282 L155.385109,104.75142 C155.385109,103.621135 154.826945,103.071601 153.678475,103.071601 L150.740405,103.071601 L150.740405,105.926609 L151.93405,105.926609 C152.050027,105.926609 152.074786,105.951413 152.074786,106.064741 L152.074786,118.02832 L155.385109,118.02832 L155.385109,112.0074 L161.185668,112.0074 L161.185668,118.02832 L164.495557,118.02832 L164.495557,106.064741 C164.495557,105.951413 164.519882,105.926609 164.636727,105.926609 L165.829503,105.926609 L165.829503,103.071601 L162.891868,103.071601 C161.759903,103.071601 161.185668,103.636958 161.185668,104.75142 M180.254972,107.23993 L180.254972,104.670594 C180.254972,103.550144 179.76848,103.071601 178.630868,103.071601 L168.451873,103.071601 C167.328162,103.071601 166.848619,103.550144 166.848619,104.670594 L166.848619,107.23993 L169.830559,107.23993 L169.830559,106.064741 C169.830559,105.94115 169.844459,105.926609 169.971295,105.926609 L171.897285,105.926609 L171.897285,118.02832 L175.206306,118.02832 L175.206306,105.926609 L177.111447,105.926609 C177.237848,105.926609 177.252616,105.94115 177.252616,106.064741 L177.252616,107.23993 L180.254972,107.23993 Z M192.361044,115.173012 C192.145597,115.173012 192.112585,115.173012 192.017024,114.930106 L187.632941,103.071302 L184.38647,103.071302 L179.979366,114.938231 C179.899876,115.173012 179.877289,115.173012 179.657933,115.173012 L178.999864,115.173012 L178.999864,118.028448 L180.931067,118.028448 C182.089963,118.028448 182.576021,117.692741 182.926557,116.654828 L183.775748,114.351492 L188.244098,114.351492 L189.090248,116.647558 C189.444693,117.692741 189.930317,118.028448 191.088778,118.028448 L193,118.028448 L193,115.173012 L192.361044,115.173012 Z M186.00623,107.312759 C186.105701,107.673698 186.217768,108.059013 186.321582,108.366495 L187.431394,111.556355 L184.605826,111.556355 L185.699132,108.363929 C185.802946,108.057302 185.911104,107.672843 186.00623,107.312759 L186.00623,107.312759 Z" id="trusted_np"></path>
            </g>
        </g>
    </g>
</svg>