<?xml version="1.0" encoding="UTF-8"?>
<svg width="28px" height="28px" viewBox="0 0 28 28" version="1.1" xmlns="http://www.w3.org/2000/svg" xmlns:xlink="http://www.w3.org/1999/xlink">
    <!-- Generator: sketchtool 51.1 (57501) - http://www.bohemiancoding.com/sketch -->
    <title>F3BDBFAC-A0AC-44FD-AB55-DC95E0C4D8BF</title>
    <desc>Created with sketchtool.</desc>
    <defs></defs>
    <g id="industrial-landings" stroke="none" stroke-width="1" fill="none" fill-rule="evenodd" opacity="0.8">
        <g id="realestate" transform="translate(-716.000000, -4005.000000)">
            <g id="4" transform="translate(0.000000, 3506.000000)">
                <g id="txt" transform="translate(390.000000, 258.000000)">
                    <g id="Group-4" transform="translate(0.000000, 241.000000)">
                        <g id="3-copy-3" transform="translate(326.000000, 0.000000)">
                            <g id="ic_hotels">
                                <rect id="Rectangle-7" x="0" y="0" width="28" height="28"></rect>
                                <g id="Group" transform="translate(1.076092, 1.756269)" fill="#FFFFFF" fill-rule="nonzero">
                                    <path d="M8.98373299,3.24778115 C6.71031718,3.24778115 4.85929214,5.1116881 4.85930867,7.38512044 C4.85934174,9.37868977 6.28286626,11.0446884 8.16660042,11.4255726 L8.16660042,17.6525796 L4.13907975,17.6525796 C2.77920406,17.6525796 1.54879231,18.7068813 1.54879231,20.1298188 L1.54879231,22.6070581 L24.6933688,22.6070581 L24.6933688,20.1298188 C24.6933688,18.8330694 23.6858189,17.6525796 22.3259432,17.6525796 L20.5689445,17.6525796 L20.5689445,15.9924795 C20.5689445,15.0907299 19.8106486,14.3420583 18.9088494,14.3420583 L15.6015576,14.3420583 C14.6998245,14.3420583 13.9511364,15.0907299 13.9511364,15.9924795 L13.9511364,17.6525796 L9.81379708,17.6525796 L9.81379708,11.4255726 C11.6937113,11.0398763 13.1210558,9.37432414 13.1210888,7.38512044 C13.1211054,5.1116881 11.2571653,3.24778115 8.98373299,3.24778115 Z M8.98373299,4.89496127 C10.363469,4.89496127 11.4739087,6.00536794 11.4738922,7.38512044 C11.4738756,8.76480681 10.3634524,9.86241426 8.98373299,9.86236465 C7.6040301,9.86241426 6.50652186,8.76480681 6.50650533,7.38512044 C6.50648879,6.00536794 7.60401356,4.89496127 8.98373299,4.89496127 Z M15.6015576,15.9924795 L18.9088494,15.9924795 L18.9088494,17.6525796 L15.6015576,17.6525796 L15.6015576,15.9924795 Z M4.13907975,19.2997663 L15.6015576,19.2997663 L18.9088494,19.2997663 L22.3259432,19.2997663 C22.7983237,19.2997663 23.0461887,19.5941318 23.0461887,20.1298188 L23.0461887,20.9598713 L3.19921358,20.9598713 L3.19921358,20.1298188 C3.19921358,19.7204439 3.66669927,19.2997663 4.13907975,19.2997663 Z" id="Shape"></path>
                                </g>
                            </g>
                        </g>
                    </g>
                </g>
            </g>
        </g>
    </g>
</svg>