<?xml version="1.0" encoding="UTF-8"?>
<svg width="28px" height="28px" viewBox="0 0 28 28" version="1.1" xmlns="http://www.w3.org/2000/svg" xmlns:xlink="http://www.w3.org/1999/xlink">
    <!-- Generator: sketchtool 51.1 (57501) - http://www.bohemiancoding.com/sketch -->
    <title>F7425785-94E0-4284-B75D-231C189B8265</title>
    <desc>Created with sketchtool.</desc>
    <defs></defs>
    <g id="industrial-landings" stroke="none" stroke-width="1" fill="none" fill-rule="evenodd">
        <g id="realestate" transform="translate(-1320.000000, -3162.000000)">
            <g id="3" transform="translate(-378.000000, 2564.000000)">
                <g id="txt" transform="translate(1372.000000, 296.000000)">
                    <g id="Group-4" transform="translate(0.000000, 212.000000)">
                        <g id="2" transform="translate(326.000000, 90.000000)">
                            <g id="ic_sales_copy">
                                <g id="ic_hotels">
                                    <rect id="Rectangle-7" x="0" y="0" width="28" height="28"></rect>
                                    <g id="Group" opacity="0.8" transform="translate(3.000000, 2.000000)">
                                        <g id="Group-14" transform="translate(6.000000, 0.000000)" stroke="#7C828C" stroke-linecap="round" stroke-linejoin="round" stroke-width="2">
                                            <path d="M0,3.20996094 L0,2 C-1.3527075e-16,0.8954305 0.8954305,2.02906125e-16 2,0 L10.9487305,0 L13,0 C14.1045695,-2.02906125e-16 15,0.8954305 15,2 L15,4.76611328 L15,13.8595082 L15,17 C15,18.1045695 14.1045695,19 13,19 L9.78710938,19" id="Rectangle-25"></path>
                                        </g>
                                        <g id="Group-14" transform="translate(0.000000, 4.000000)">
                                            <path d="M2,0 L13,-2.22044605e-16 C14.1045695,5.56104062e-16 15,0.8954305 15,2 L15,13.8595082 L15,17 C15,18.1045695 14.1045695,19 13,19 L2,19 C0.8954305,19 1.3527075e-16,18.1045695 0,17 L0,2 C-1.3527075e-16,0.8954305 0.8954305,2.02906125e-16 2,0 Z" id="Rectangle-25" stroke="#7C828C" stroke-width="2" stroke-linecap="round" stroke-linejoin="round"></path>
                                            <rect id="Rectangle-21" fill="#7C828C" x="3" y="4" width="9" height="2" rx="1"></rect>
                                            <rect id="Rectangle-21" fill="#7C828C" x="3" y="8" width="9" height="2" rx="1"></rect>
                                            <rect id="Rectangle-21" fill="#7C828C" x="3" y="12" width="5" height="2" rx="1"></rect>
                                        </g>
                                    </g>
                                </g>
                            </g>
                        </g>
                    </g>
                </g>
            </g>
        </g>
    </g>
</svg>