<?xml version="1.0" encoding="UTF-8"?>
<svg width="28px" height="28px" viewBox="0 0 28 28" version="1.1" xmlns="http://www.w3.org/2000/svg" xmlns:xlink="http://www.w3.org/1999/xlink">
    <!-- Generator: sketchtool 51.1 (57501) - http://www.bohemiancoding.com/sketch -->
    <title>DA579057-D35B-4696-A461-40FA12479FDE</title>
    <desc>Created with sketchtool.</desc>
    <defs></defs>
    <g id="industrial-landings" stroke="none" stroke-width="1" fill="none" fill-rule="evenodd">
        <g id="realestate" transform="translate(-390.000000, -2199.000000)">
            <g id="2" transform="translate(0.000000, 1630.000000)">
                <g id="txt" transform="translate(390.000000, 203.000000)">
                    <g id="Group-6" transform="translate(0.000000, 262.000000)">
                        <g id="3" transform="translate(0.000000, 104.000000)">
                            <g id="ic_hotels">
                                <rect id="Rectangle-7" x="0" y="0" width="28" height="28"></rect>
                                <g id="noun_1715551_cc" opacity="0.8" transform="translate(4.000000, 2.000000)" fill-rule="nonzero">
                                    <path d="M21.1621094,5.79101562 C21.1621094,5.79101562 14.9807943,11.5501302 2.61816406,23.0683594" id="Path-6" stroke="#7C828C" stroke-width="2" stroke-linecap="round" stroke-linejoin="round"></path>
                                    <path d="M7.17480469,18.9726562 L16.6459961,18.9726562" id="Path-6" stroke="#7C828C" stroke-width="2" stroke-linecap="round" stroke-linejoin="round"></path>
                                    <path d="M5.5,16 C5.35711018,15.9996174 5.22031682,15.9400758 5.12015625,15.8346667 C4.59765625,15.2888889 0,10.3342222 0,5.68888889 C-6.10622664e-16,2.54700231 2.46243388,6.31593543e-16 5.5,0 C8.53756612,-6.31593543e-16 11,2.54700231 11,5.68888889 C11,10.336 6.40234375,15.2888889 5.878125,15.8346667 C5.7809581,15.9358358 5.6498522,15.9944085 5.51203125,15.9982222 L5.5,16 Z M5.5,1.06666667 C3.03197752,1.06666667 1.03125,3.13610605 1.03125,5.68888889 C1.03125,9.33688889 4.37765625,13.4257778 5.5,14.6951111 C6.62578125,13.424 9.96875,9.34044444 9.96875,5.68888889 C9.96875,4.46299934 9.49793662,3.28731903 8.65988343,2.42048421 C7.82183024,1.5536494 6.68518619,1.06666667 5.5,1.06666667 Z" id="Shape" stroke="#7C828C" fill="#7C828C"></path>
                                    <path d="M5.83318304,7.97759525 C4.77084219,8.12046256 3.73564985,7.57017249 3.25984902,6.60965607 C2.78404819,5.64913965 2.97354321,4.49218982 3.73090542,3.73365105 C4.48826764,2.97511229 5.64492242,2.78382109 6.606177,3.25812962 C7.56743157,3.73243814 8.1193287,4.76677422 7.97811109,5.82933508 C7.8295361,6.94725484 6.95087131,7.82728462 5.83318304,7.97759525 Z" id="Shape" fill="#7C828C"></path>
                                </g>
                            </g>
                        </g>
                    </g>
                </g>
            </g>
        </g>
    </g>
</svg>