<?xml version="1.0" encoding="UTF-8"?>
<svg width="28px" height="28px" viewBox="0 0 28 28" version="1.1" xmlns="http://www.w3.org/2000/svg" xmlns:xlink="http://www.w3.org/1999/xlink">
    <!-- Generator: sketchtool 51.1 (57501) - http://www.bohemiancoding.com/sketch -->
    <title>42FBDBB5-55D7-4181-B7F5-C12A5921A58B</title>
    <desc>Created with sketchtool.</desc>
    <defs></defs>
    <g id="industrial-landings" stroke="none" stroke-width="1" fill="none" fill-rule="evenodd">
        <g id="realestate" transform="translate(-1320.000000, -4902.000000)">
            <g id="3-copy-2" transform="translate(0.000000, 4425.000000)">
                <g id="txt" transform="translate(994.000000, 280.000000)">
                    <g transform="translate(0.000000, 197.000000)" id="Group-9">
                        <g transform="translate(326.000000, 0.000000)">
                            <g id="ic_sales_copy">
                                <rect id="Rectangle-7" x="0" y="0" width="28" height="28"></rect>
                                <g id="Group" opacity="0.8" transform="translate(1.000000, 9.000000)" stroke="#7C828C" stroke-linecap="round" stroke-linejoin="round" stroke-width="1.6">
                                    <circle id="Oval" cx="6" cy="3.16233766" r="2.59415584"></circle>
                                    <path d="M11.7272727,13.5714286 L0.272727273,13.5714286 C0.272727273,11.1168831 1.82727273,8.07142857 3.95454545,7.25324675 L6,10.1168831 L8.04545455,7.25324675 C10.1727273,8.07142857 11.7272727,11.1168831 11.7272727,13.5714286 Z" id="Shape"></path>
                                </g>
                                <g id="Group" opacity="0.8" transform="translate(11.000000, 5.000000)" stroke="#7C828C" stroke-linecap="round" stroke-linejoin="round" stroke-width="1.6">
                                    <circle id="Oval" cx="10" cy="7.16233766" r="2.59415584"></circle>
                                    <circle id="Oval" cx="3" cy="3.16233766" r="2.59415584"></circle>
                                    <path d="M15.7272727,17.5714286 L4.27272727,17.5714286 C4.27272727,15.1168831 5.82727273,12.0714286 7.95454545,11.2532468 L10,14.1168831 L12.0454545,11.2532468 C14.1727273,12.0714286 15.7272727,15.1168831 15.7272727,17.5714286 Z" id="Shape"></path>
                                </g>
                            </g>
                        </g>
                    </g>
                </g>
            </g>
        </g>
    </g>
</svg>