<?xml version="1.0" encoding="UTF-8"?>
<svg width="28px" height="28px" viewBox="0 0 28 28" version="1.1" xmlns="http://www.w3.org/2000/svg" xmlns:xlink="http://www.w3.org/1999/xlink">
    <!-- Generator: sketchtool 51.1 (57501) - http://www.bohemiancoding.com/sketch -->
    <title>D0AAF3E2-9730-4F89-ABDF-D777BCDE4EBC</title>
    <desc>Created with sketchtool.</desc>
    <defs></defs>
    <g id="industrial-landings" stroke="none" stroke-width="1" fill="none" fill-rule="evenodd">
        <g id="realestate" transform="translate(-994.000000, -3072.000000)">
            <g id="3" transform="translate(-378.000000, 2564.000000)">
                <g id="txt" transform="translate(1372.000000, 296.000000)">
                    <g id="Group-4" transform="translate(0.000000, 212.000000)">
                        <g id="1">
                            <g id="ic_sales_copy">
                                <rect id="Rectangle-7" x="0" y="0" width="28" height="28"></rect>
                                <g id="Group" opacity="0.8" transform="translate(2.000000, 2.000000)" stroke="#7C828C" stroke-linecap="round" stroke-linejoin="round" stroke-width="2">
                                    <circle id="Oval" cx="12" cy="11.4545455" r="2.72727273"></circle>
                                    <path d="M19.6363636,24 L4.36363636,24 C4.36363636,20.7272727 6.43636364,18 9.27272727,16.9090909 L12,20.7272727 L14.7272727,16.9090909 C17.5636364,18 19.6363636,20.7272727 19.6363636,24 Z" id="Shape"></path>
                                    <g transform="translate(9.818182, 0.000000)" id="Shape">
                                        <polyline points="0 2.18181818 2.18181818 0 4.36363636 2.18181818"></polyline>
                                        <path d="M2.18181818,0 L2.18181818,5.45454545"></path>
                                    </g>
                                    <g transform="translate(17.454545, 3.272727)" id="Shape">
                                        <polyline points="1.41818182 0.872727273 4.58181818 0.872727273 4.58181818 4.03636364"></polyline>
                                        <path d="M4.58181818,0.872727273 L0.763636364,4.69090909"></path>
                                    </g>
                                    <g transform="translate(17.454545, 3.272727)" id="Shape">
                                        <polyline points="1.41818182 0.872727273 4.58181818 0.872727273 4.58181818 4.03636364"></polyline>
                                        <path d="M4.58181818,0.872727273 L0.763636364,4.69090909"></path>
                                    </g>
                                    <g transform="translate(18.545455, 12.000000)" id="Shape">
                                        <polyline points="3.27272727 0 5.45454545 2.18181818 3.27272727 4.36363636"></polyline>
                                        <path d="M5.45454545,2.18181818 L0,2.18181818"></path>
                                    </g>
                                    <g transform="translate(1.090909, 3.272727)" id="Shape">
                                        <polyline points="0.872727273 4.03636364 0.872727273 0.872727273 4.03636364 0.872727273"></polyline>
                                        <path d="M0.872727273,0.872727273 L4.69090909,4.69090909"></path>
                                    </g>
                                    <g transform="translate(0.000000, 12.000000)" id="Shape">
                                        <polyline points="2.18181818 4.36363636 0 2.18181818 2.18181818 0"></polyline>
                                        <path d="M0,2.18181818 L5.45454545,2.18181818"></path>
                                    </g>
                                </g>
                            </g>
                        </g>
                    </g>
                </g>
            </g>
        </g>
    </g>
</svg>