<?xml version="1.0" encoding="UTF-8"?>
<svg width="28px" height="28px" viewBox="0 0 28 28" version="1.1" xmlns="http://www.w3.org/2000/svg" xmlns:xlink="http://www.w3.org/1999/xlink">
    <!-- Generator: sketchtool 51.1 (57501) - http://www.bohemiancoding.com/sketch -->
    <title>9063FB42-FDEB-4380-BAE3-02E76C40A1AD</title>
    <desc>Created with sketchtool.</desc>
    <defs></defs>
    <g id="industrial-landings" stroke="none" stroke-width="1" fill="none" fill-rule="evenodd">
        <g id="realestate" transform="translate(-994.000000, -4902.000000)">
            <g id="3-copy-2" transform="translate(0.000000, 4425.000000)">
                <g id="txt" transform="translate(994.000000, 280.000000)">
                    <g transform="translate(0.000000, 197.000000)" id="1">
                        <g>
                            <g id="ic_sales_copy-copy-2">
                                <rect id="Rectangle-7" x="0" y="0" width="28" height="28"></rect>
                                <g id="strategy" opacity="0.8" transform="translate(2.000000, 4.000000)" fill="#7C828C" fill-rule="nonzero" stroke="#7C828C" stroke-width="0.5">
                                    <path d="M21.4984848,1.44074074 C19.5677609,1.44074074 17.9968855,3.01153199 17.9968855,4.94225589 C17.9968855,6.8729798 19.5676768,8.44385522 21.4984848,8.44385522 C23.4292088,8.44385522 25,6.8729798 25,4.94225589 C25,3.01153199 23.4292088,1.44074074 21.4984848,1.44074074 Z M21.4984848,6.97828283 C20.3757576,6.97828283 19.4624579,6.06498316 19.4624579,4.94225589 C19.4624579,3.81961279 20.3757576,2.90631313 21.4984848,2.90631313 C22.6211279,2.90631313 23.5344276,3.81961279 23.5344276,4.94225589 C23.5345118,6.06498316 22.6211279,6.97828283 21.4984848,6.97828283 Z" id="Shape"></path>
                                    <path d="M0.906734007,6.15260943 C1.04983165,6.2956229 1.23737374,6.36717172 1.42491582,6.36717172 C1.61245791,6.36717172 1.8,6.2956229 1.94309764,6.15260943 L3.8476431,4.24806397 L5.75218855,6.15260943 C5.8952862,6.2956229 6.08282828,6.36717172 6.27037037,6.36717172 C6.45791246,6.36717172 6.64545455,6.2956229 6.78855219,6.15260943 C7.0746633,5.86649832 7.0746633,5.40244108 6.78855219,5.11624579 L4.88392256,3.21178451 L6.78846801,1.30723906 C7.07457912,1.02112795 7.07457912,0.557070707 6.78846801,0.270875421 C6.50227273,-0.0151515152 6.03838384,-0.0151515152 5.75210438,0.270875421 L3.8476431,2.17542088 L1.94309764,0.270875421 C1.65690236,-0.0151515152 1.19301347,-0.0151515152 0.906734007,0.270875421 C0.620622896,0.556986532 0.620622896,1.02104377 0.906734007,1.30723906 L2.81127946,3.21178451 L0.906734007,5.11624579 C0.620622896,5.40244108 0.620622896,5.86641414 0.906734007,6.15260943 Z" id="Shape"></path>
                                    <path d="M16.4791246,14.8069865 C16.1929293,14.5209596 15.7290404,14.5209596 15.4427609,14.8069865 L13.5382997,16.7114478 L11.6337542,14.8069865 C11.3475589,14.5209596 10.88367,14.5209596 10.5973906,14.8069865 C10.3112795,15.0931818 10.3112795,15.5571549 10.5973906,15.8433502 L12.501936,17.7478114 L10.5973906,19.6523569 C10.3112795,19.938468 10.3112795,20.4025253 10.5973906,20.6887205 C10.7404882,20.831734 10.9280303,20.9032828 11.1155724,20.9032828 C11.3031145,20.9032828 11.4906566,20.831734 11.6337542,20.6887205 L13.5382997,18.7841751 L15.4427609,20.6886364 C15.5858586,20.8316498 15.7734007,20.9031987 15.9609428,20.9031987 C16.1484848,20.9031987 16.3360269,20.8316498 16.4791246,20.6886364 C16.7652357,20.4024411 16.7652357,19.938468 16.4791246,19.6522727 L14.5746633,17.7478114 L16.4791246,15.8433502 C16.7653199,15.5571549 16.7653199,15.0930976 16.4791246,14.8069865 Z" id="Shape"></path>
                                    <path d="M16.5361953,4.53164983 L13.5810606,1.96279461 C13.2756734,1.69722222 12.8127946,1.72979798 12.5473064,2.03510101 C12.2818182,2.34048822 12.3142256,2.80328283 12.6196128,3.06885522 L14.1867845,4.43122896 C9.56119529,5.03619529 6.82239057,7.45345118 5.29983165,9.49654882 C3.96624579,11.2861111 3.34276094,13.0488215 3.09242424,13.9248316 C1.35387205,14.1281145 -1.42108547e-14,15.6093434 -1.42108547e-14,17.4016835 C-1.42108547e-14,19.3324074 1.57079125,20.9032828 3.50151515,20.9032828 C5.43223906,20.9032828 7.00311448,19.3324916 7.00311448,17.4016835 C7.00311448,15.8474747 5.98493266,14.5272727 4.58080808,14.0711279 C4.84452862,13.237963 5.41574074,11.7791246 6.51043771,10.3250842 C8.41616162,7.79385522 11.0635522,6.30319865 14.3939394,5.87929293 L12.93367,7.55917508 C12.6681818,7.86456229 12.7005892,8.3273569 13.0059764,8.59292929 C13.144697,8.71355219 13.3159091,8.7726431 13.4863636,8.7726431 C13.6911616,8.7726431 13.8948653,8.68728956 14.0397306,8.5206229 L16.6085859,5.56540404 C16.8740741,5.25993266 16.8416667,4.79722222 16.5361953,4.53164983 Z M5.53754209,17.4016835 C5.53754209,18.5244108 4.62424242,19.4377104 3.50151515,19.4377104 C2.37887205,19.4377104 1.46557239,18.5244108 1.46557239,17.4016835 C1.46557239,16.2790404 2.37887205,15.3657407 3.50151515,15.3657407 C4.62415825,15.3657407 5.53754209,16.2790404 5.53754209,17.4016835 Z" id="Shape"></path>
                                </g>
                            </g>
                        </g>
                    </g>
                </g>
            </g>
        </g>
    </g>
</svg>