<?xml version="1.0" encoding="UTF-8"?>
<svg width="28px" height="28px" viewBox="0 0 28 28" version="1.1" xmlns="http://www.w3.org/2000/svg" xmlns:xlink="http://www.w3.org/1999/xlink">
    <!-- Generator: sketchtool 51.1 (57501) - http://www.bohemiancoding.com/sketch -->
    <title>8F583BEA-B028-46E9-AF07-7C34967E19CF</title>
    <desc>Created with sketchtool.</desc>
    <defs></defs>
    <g id="industrial-landings" stroke="none" stroke-width="1" fill="none" fill-rule="evenodd">
        <g id="realestate" transform="translate(-390.000000, -4005.000000)">
            <g id="4" transform="translate(0.000000, 3506.000000)">
                <g id="txt" transform="translate(390.000000, 258.000000)">
                    <g id="Group-4" transform="translate(0.000000, 241.000000)">
                        <g id="3">
                            <g id="ic_sales_copy-copy">
                                <rect id="Rectangle-7" x="0" y="0" width="28" height="28"></rect>
                                <g id="view" opacity="0.8" transform="translate(2.000000, 6.000000)" fill="#FFFFFF" fill-rule="nonzero">
                                    <path d="M23.8474219,7.22067188 C23.6330156,6.927375 18.5244375,0.039140625 11.9998594,0.039140625 C5.47528125,0.039140625 0.36646875,6.927375 0.152296875,7.22039063 C-0.050765625,7.49864063 -0.050765625,7.87603125 0.152296875,8.15428125 C0.36646875,8.44757812 5.47528125,15.3358125 11.9998594,15.3358125 C18.5244375,15.3358125 23.6330156,8.44753125 23.8474219,8.15451562 C24.0507656,7.8763125 24.0507656,7.49864063 23.8474219,7.22067188 Z M11.9998594,13.7534062 C7.1938125,13.7534062 3.03126563,9.18154687 1.7990625,7.6869375 C3.02967188,6.19101562 7.1835,1.62154687 11.9998594,1.62154687 C16.8056719,1.62154687 20.9679375,6.19260937 22.2006563,7.68801562 C20.9700469,9.18389062 16.8162187,13.7534062 11.9998594,13.7534062 Z" id="Shape"></path>
                                    <path d="M11.9998594,2.94023438 C9.38226563,2.94023438 7.25259375,5.06990625 7.25259375,7.6875 C7.25259375,10.3050937 9.38226562,12.4347656 11.9998594,12.4347656 C14.6174531,12.4347656 16.747125,10.3050937 16.747125,7.6875 C16.747125,5.06990625 14.6174531,2.94023438 11.9998594,2.94023438 Z M11.9998594,10.8523125 C10.2547031,10.8523125 8.83504687,9.43260938 8.83504687,7.6875 C8.83504687,5.94239062 10.25475,4.5226875 11.9998594,4.5226875 C13.7449687,4.5226875 15.1646719,5.94239062 15.1646719,7.6875 C15.1646719,9.43260938 13.7450156,10.8523125 11.9998594,10.8523125 Z" id="Shape"></path>
                                </g>
                            </g>
                        </g>
                    </g>
                </g>
            </g>
        </g>
    </g>
</svg>