<?xml version="1.0" encoding="UTF-8"?>
<svg width="28px" height="28px" viewBox="0 0 28 28" version="1.1" xmlns="http://www.w3.org/2000/svg" xmlns:xlink="http://www.w3.org/1999/xlink">
    <!-- Generator: sketchtool 51.1 (57501) - http://www.bohemiancoding.com/sketch -->
    <title>62BDE362-6203-48DD-AE10-DCEB29B1390D</title>
    <desc>Created with sketchtool.</desc>
    <defs></defs>
    <g id="industrial-landings" stroke="none" stroke-width="1" fill="none" fill-rule="evenodd">
        <g id="medicine" transform="translate(-390.000000, -2172.000000)">
            <g id="2" transform="translate(0.000000, 1645.000000)">
                <g id="txt" transform="translate(390.000000, 254.000000)">
                    <g id="Group-6" transform="translate(0.000000, 192.000000)">
                        <g id="3" transform="translate(0.000000, 81.000000)">
                            <g id="ic_hotels">
                                <rect id="Rectangle-7" x="0" y="0" width="28" height="28"></rect>
                                <g id="Group" opacity="0.8" transform="translate(2.000000, 4.000000)" fill="#7C828C" fill-rule="nonzero">
                                    <g id="Shape">
                                        <path d="M17.1574642,5 C16.6707566,5 16.2985685,5.35760518 16.2985685,5.82524272 C16.2985685,6.29288026 16.6707566,6.65048544 17.1574642,6.65048544 C19.9631902,6.65048544 22.2535787,8.85113269 22.2535787,11.5469256 C22.2535787,14.2427184 19.9631902,16.4433657 17.1574642,16.4433657 L15.4969325,16.4433657 L15.4969325,13.3074434 C15.4969325,12.9773463 15.2678937,12.6747573 14.9529652,12.5372168 C14.609407,12.4271845 14.2372188,12.5097087 14.00818,12.7572816 L10.2290389,16.7184466 C10.200409,16.7459547 10.200409,16.7459547 10.200409,16.7734628 C10.1717791,16.8009709 10.1717791,16.8009709 10.1431493,16.828479 C10.1145194,16.8559871 10.1145194,16.8834951 10.1145194,16.9110032 C10.1145194,16.9385113 10.0858896,16.9660194 10.0858896,16.9660194 C10.0858896,16.9935275 10.0572597,17.0210356 10.0572597,17.0485437 C10.0572597,17.0760518 10.0572597,17.0760518 10.0286299,17.1035599 C10.0286299,17.1585761 10,17.2135922 10,17.2411003 C10,17.2411003 10,17.2411003 10,17.2411003 C10,17.2411003 10,17.2411003 10,17.2411003 C10,17.2961165 10,17.3511327 10.0286299,17.4061489 C10.0286299,17.433657 10.0286299,17.433657 10.0572597,17.461165 C10.0572597,17.4886731 10.0858896,17.5161812 10.0858896,17.5436893 C10.0858896,17.5711974 10.1145194,17.5987055 10.1145194,17.5987055 C10.1145194,17.6262136 10.1431493,17.6537217 10.1717791,17.6812298 C10.200409,17.7087379 10.200409,17.7087379 10.2290389,17.736246 C10.2290389,17.763754 10.2576687,17.763754 10.2576687,17.7912621 L14.0368098,21.7249191 C14.208589,21.8899676 14.4376278,22 14.6666667,22 C14.7811861,22 14.8670757,21.9724919 14.9815951,21.9449838 C15.3251534,21.8074434 15.5255624,21.5048544 15.5255624,21.1747573 L15.5255624,18.0938511 L17.1860941,18.0938511 C20.9366053,18.0938511 24,15.1504854 24,11.5469256 C24,7.9433657 20.9079755,5 17.1574642,5 Z"></path>
                                        <path d="M13.7714286,5.24058675 C13.8,5.21311148 13.8,5.21311148 13.8285714,5.18563622 C13.8571429,5.15816095 13.8571429,5.13068569 13.8857143,5.10321042 C13.8857143,5.07573516 13.9142857,5.07573516 13.9142857,5.04825989 C13.9142857,5.02078463 13.9428571,4.99330936 13.9428571,4.9658341 C13.9428571,4.93835884 13.9428571,4.93835884 13.9714286,4.91088357 C13.9714286,4.85593304 14,4.80098251 14,4.77350725 C14,4.77350725 14,4.77350725 14,4.77350725 C14,4.77350725 14,4.77350725 14,4.77350725 C14,4.71855672 14,4.66360619 13.9714286,4.60865566 C13.9714286,4.5811804 13.9714286,4.5811804 13.9428571,4.55370513 C13.9428571,4.52622987 13.9142857,4.4987546 13.9142857,4.47127934 C13.9142857,4.44380407 13.8857143,4.41632881 13.8857143,4.41632881 C13.8857143,4.38885354 13.8571429,4.36137828 13.8571429,4.33390301 C13.8285714,4.30642775 13.8285714,4.27895248 13.8,4.27895248 C13.8,4.25147722 13.7714286,4.25147722 13.7714286,4.22400196 L9.94285714,0.267563851 C9.71428571,0.0202864695 9.34285714,-0.0621393244 9,0.0477617341 C8.65714286,0.157662793 8.45714286,0.487365968 8.45714286,0.817069143 L8.45714286,3.92177404 L6.8,3.92177404 C3.05714286,3.92177404 0,6.86162736 0,10.460887 C0,14.0601467 3.05714286,17 6.8,17 C7.28571429,17 7.65714286,16.6428216 7.65714286,16.1757421 C7.65714286,15.7086626 7.28571429,15.3514841 6.8,15.3514841 C4,15.3514841 1.71428571,13.153463 1.71428571,10.460887 C1.71428571,7.76831109 4,5.57028992 6.8,5.57028992 L8.45714286,5.57028992 L8.45714286,8.70247009 C8.45714286,9.03217326 8.68571429,9.33440117 9,9.4717775 C9.11428571,9.49925276 9.2,9.52672803 9.31428571,9.52672803 C9.54285714,9.52672803 9.77142857,9.44430223 9.94285714,9.25197538 L13.7142857,5.29553728 C13.7428571,5.29553728 13.7428571,5.26806201 13.7714286,5.24058675 Z"></path>
                                    </g>
                                </g>
                            </g>
                        </g>
                    </g>
                </g>
            </g>
        </g>
    </g>
</svg>