<?xml version="1.0" encoding="UTF-8"?>
<svg width="28px" height="28px" viewBox="0 0 28 28" version="1.1" xmlns="http://www.w3.org/2000/svg" xmlns:xlink="http://www.w3.org/1999/xlink">
    <!-- Generator: sketchtool 51.1 (57501) - http://www.bohemiancoding.com/sketch -->
    <title>088DDFB5-8D95-419A-AAD9-C24370E4E6CC</title>
    <desc>Created with sketchtool.</desc>
    <defs></defs>
    <g id="industrial-landings" stroke="none" stroke-width="1" fill="none" fill-rule="evenodd">
        <g id="medicine" transform="translate(-1320.000000, -3073.000000)">
            <g id="3" transform="translate(-3.000000, 2575.000000)">
                <g id="txt" transform="translate(997.000000, 270.000000)">
                    <g id="Group-4" transform="translate(0.000000, 168.000000)">
                        <g id="2" transform="translate(326.000000, 60.000000)">
                            <g id="ic_sales_copy">
                                <rect id="Rectangle-7" x="0" y="0" width="28" height="28"></rect>
                                <g id="Group" opacity="0.8" transform="translate(1.000000, 1.000000)" stroke="#7C828C">
                                    <circle id="Oval" stroke-width="2" stroke-linecap="round" stroke-linejoin="round" cx="13.0002272" cy="6.03431814" r="5.03999996"></circle>
                                    <path d="M19.8573119,13 L15.8578587,13 C15.5568868,13 15.2790666,13.168849 15.1343686,13.4366784 L12.9233829,17.6287915 L10.7123972,13.4366784 C10.5734871,13.168849 10.2956669,13 9.98890707,13 L5.98945384,13 C2.92764377,13 0.43304993,15.5094455 0.43304993,18.5894841 L0.43304993,25.6694973 C0.43304993,26.1236429 0.797688936,26.4904528 1.24914675,26.4904528 L24.6034069,26.4904528 C25.0548648,26.4904528 25.4195038,26.1236429 25.4195038,25.6694973 L25.4195038,18.5894841 C25.4137158,15.5094455 22.9249099,13 19.8573119,13 Z M23.7815222,24.8543642 L2.06524358,24.8543642 L2.06524358,18.5894841 C2.06524358,16.9533955 3.06076595,15.5502021 4.46723068,14.9504971 C4.64086831,15.8063868 5.028659,17.1338893 5.87948335,18.6418855 C5.50905642,19.0669192 5.28332751,19.6200452 5.28332751,20.231395 C5.28332751,21.5647199 6.35988077,22.6476824 7.68531462,22.6476824 C9.01074846,22.6476824 10.0873017,21.5647199 10.0873017,20.231395 C10.0873017,18.8980702 9.01074846,17.8151077 7.68531462,17.8151077 C7.55798036,17.8151077 7.4306461,17.8267524 7.30331185,17.8500419 C6.55667007,16.5283618 6.22097067,15.3697084 6.07048473,14.6477333 L9.49693381,14.6477333 L12.1998928,19.7656047 C12.547168,20.3361979 13.3111736,20.3653098 13.6410851,19.7656047 L16.344044,14.6477333 L19.851524,14.6477333 C20.0309496,14.6477333 20.2045872,14.6652005 20.3782248,14.68849 C20.1814355,15.3173069 19.8283723,16.0683939 19.5389763,16.6156975 C17.9820256,16.4584933 16.1067393,17.8733314 14.8739122,20.2663293 C14.7928813,20.4293559 14.7639417,20.6098497 14.7928813,20.7903435 L14.9838827,21.873306 C15.0649136,22.3216292 15.4874318,22.6185705 15.9331017,22.5370572 C16.3787716,22.4555439 16.6739555,22.0305102 16.5929246,21.582187 L16.4540145,20.7786987 C17.5363557,18.8282016 19.0006997,18.0014238 19.5737038,18.2983651 C19.8630999,18.449747 20.0367375,18.9388268 20.0425254,19.6084005 C20.0425254,20.4060664 19.7994327,21.3725814 19.3653387,22.2925173 L18.6302727,22.6418601 C18.2251183,22.8339986 18.0456927,23.3230784 18.2366941,23.7364674 C18.4508472,24.1265668 18.8791533,24.3245277 19.3248232,24.1323892 L20.3145577,23.6665988 C20.4766194,23.5909079 20.6097416,23.4628155 20.6907725,23.2997889 C21.3274438,22.0596221 21.674719,20.7495868 21.674719,19.6084005 C21.6689311,18.6709974 21.4258384,17.9140881 20.9859565,17.3842516 C21.2695646,16.8427703 21.6689311,16.0218148 21.9178117,15.2474384 C23.0290925,15.9461239 23.7757343,17.1862907 23.7757343,18.5953065 L23.7757343,24.8543642 L23.7815222,24.8543642 Z M6.91552116,20.231395 C6.91552116,19.8063614 7.2627964,19.4570186 7.68531462,19.4570186 C8.10783283,19.4570186 8.45510807,19.8063614 8.45510807,20.231395 C8.45510807,20.6564287 8.10783283,21.0057715 7.68531462,21.0057715 C7.2627964,21.0057715 6.91552116,20.6622511 6.91552116,20.231395 Z" id="Shape" stroke-width="0.2" fill="#7C828C" fill-rule="nonzero"></path>
                                </g>
                            </g>
                        </g>
                    </g>
                </g>
            </g>
        </g>
    </g>
</svg>