<?xml version="1.0" encoding="UTF-8"?>
<svg width="28px" height="28px" viewBox="0 0 28 28" version="1.1" xmlns="http://www.w3.org/2000/svg" xmlns:xlink="http://www.w3.org/1999/xlink">
    <!-- Generator: sketchtool 51.1 (57501) - http://www.bohemiancoding.com/sketch -->
    <title>F9EDBA04-7134-48C7-9B7F-DA56F610E120</title>
    <desc>Created with sketchtool.</desc>
    <defs></defs>
    <g id="industrial-landings" stroke="none" stroke-width="1" fill="none" fill-rule="evenodd">
        <g id="medicine" transform="translate(-716.000000, -4049.000000)">
            <g id="4" transform="translate(0.000000, 3521.000000)">
                <g id="txt" transform="translate(390.000000, 277.000000)">
                    <g id="Group-4" transform="translate(0.000000, 170.000000)">
                        <g id="3-copy" transform="translate(326.000000, 81.000000)">
                            <g id="ic_hotels">
                                <rect id="Rectangle-7" x="0" y="0" width="28" height="28"></rect>
                                <g id="Group-11" opacity="0.8" transform="translate(1.000000, 2.000000)" fill="#7C828C" fill-rule="nonzero">
                                    <path d="M24.9660639,4.00600506 C23.5680723,1.47229246 20.9718021,7.78512901e-14 18.0426768,7.78512901e-14 C16.7445418,7.78512901e-14 15.2466936,0.547829751 13.9818441,1.54077118 C13.6489889,1.81468605 13.3494193,2.08860093 13.0165641,2.43099452 C12.7169945,2.08860093 12.3841394,1.81468605 12.0179987,1.50653182 C10.7531492,0.513590392 9.32187203,0 7.99045145,0 C5.06132617,0 2.49834155,1.50653182 1.06706443,4.00600506 C0.368068621,5.27286136 -0.0313575531,6.77939317 0.00192796141,8.25168563 C0.00192796141,8.79951538 0.43463965,9.21038769 0.967207883,9.21038769 C0.967207883,9.21038769 0.967207883,9.21038769 1.0004934,9.21038769 C1.53306163,9.21038769 1.96577332,8.73103666 1.9324878,8.18320691 C1.89920229,7.05330805 2.19877192,5.92340919 2.73134015,4.96470712 C3.79647662,3.08154235 5.76032198,1.95164349 7.99045145,1.95164349 C8.88916034,1.95164349 9.95429681,2.3625158 10.8530057,3.08154235 C11.3855739,3.49241466 11.8515711,3.9717657 12.2177118,4.51959545 C12.3841394,4.79351032 12.683709,4.96470712 13.0165641,4.96470712 C13.3494193,4.96470712 13.6489889,4.79351032 13.8154165,4.51959545 C14.2481282,3.86904762 14.7474109,3.42393595 15.1801226,3.08154235 C16.0788315,2.39675516 17.1439679,1.95164349 18.0426768,1.95164349 C20.2728063,1.95164349 22.2366517,3.08154235 23.3017881,4.96470712 C23.8343564,5.95764855 24.133926,7.05330805 24.1006405,8.18320691 C24.067355,9.41582385 23.7344998,10.6484408 23.0687895,11.812579 C20.8719456,15.6816266 14.1482716,20.6805731 13.0831352,21.2284029 C13.0831352,21.2284029 13.0831352,21.2284029 13.0498497,21.2284029 L13.0165641,21.2284029 C12.9832786,21.2284029 12.9832786,21.2284029 12.9832786,21.2284029 C12.9832786,21.2284029 12.9832786,21.2284029 12.9499931,21.2284029 C12.1178553,20.7832912 8.09030799,17.8044669 5.26103926,14.7914033 C4.8948986,14.380531 4.26247382,14.380531 3.89633316,14.7571639 C3.49690699,15.1337969 3.49690699,15.7843447 3.86304765,16.1609777 C6.82545844,19.3452381 10.9528622,22.3925411 12.0179987,22.9746102 C12.2842828,23.145807 12.617138,23.2142857 12.9832786,23.2142857 L13.0498497,23.2142857 C13.3827048,23.2142857 13.71556,23.1115676 13.9818441,22.9746102 C15.4131212,22.1871049 22.3032227,17.051201 24.6997797,12.8055204 C25.5319176,11.333228 25.9646293,9.82669617 25.9979148,8.21744627 C26.0312003,6.77939317 25.6650597,5.30710072 24.9660639,4.00600506 Z" id="Shape"></path>
                                    <path d="M12.3165337,17.0491803 C12.4485134,17.4119828 12.8114576,17.6428571 13.2073967,17.6428571 C13.2073967,17.6428571 13.2403916,17.6428571 13.2403916,17.6428571 C13.6363307,17.6098751 13.9992748,17.3460187 14.0982596,16.9832162 L16.5068891,9.29839969 L17.5957215,11.9039813 C17.7606962,12.2667838 18.0906454,12.4976581 18.4865845,12.4976581 L20.4002901,12.4976581 C20.9282088,12.4976581 21.3571429,12.0688915 21.3571429,11.5411788 C21.3571429,11.013466 20.9282088,10.5846995 20.4002901,10.5846995 L19.113488,10.5846995 L17.2657723,6.16510539 C17.1007977,5.80230289 16.7378535,5.57142857 16.3419144,5.57142857 C15.9459753,5.60441062 15.5830312,5.86826698 15.4840464,6.23106948 L13.075417,13.882904 L11.8216099,10.8815379 C11.6896302,10.5187354 11.326686,10.287861 10.9307469,10.287861 L2.81399565,10.287861 C2.28607687,10.287861 1.85714286,10.7166276 1.85714286,11.2443404 C1.85714286,11.7720531 2.28607687,12.2008197 2.81399565,12.2008197 L10.3038434,12.2008197 L12.3165337,17.0491803 Z" id="Shape"></path>
                                </g>
                            </g>
                        </g>
                    </g>
                </g>
            </g>
        </g>
    </g>
</svg>