<?xml version="1.0" encoding="UTF-8"?>
<svg width="28px" height="28px" viewBox="0 0 28 28" version="1.1" xmlns="http://www.w3.org/2000/svg" xmlns:xlink="http://www.w3.org/1999/xlink">
    <!-- Generator: sketchtool 51.1 (57501) - http://www.bohemiancoding.com/sketch -->
    <title>092B0C15-A6D5-47B7-BF59-5CACE86DD0C1</title>
    <desc>Created with sketchtool.</desc>
    <defs></defs>
    <g id="industrial-landings" stroke="none" stroke-width="1" fill="none" fill-rule="evenodd">
        <g id="medicine" transform="translate(-994.000000, -3154.000000)">
            <g id="3" transform="translate(-3.000000, 2575.000000)">
                <g id="txt" transform="translate(997.000000, 270.000000)">
                    <g id="Group-4" transform="translate(0.000000, 168.000000)">
                        <g id="3-copy-2" transform="translate(0.000000, 141.000000)">
                            <g id="ic_hotels">
                                <rect id="Rectangle-7" x="0" y="0" width="28" height="28"></rect>
                                <g id="noun_1360334_cc" opacity="0.8" transform="translate(2.857143, 3.000000)" fill="#7C828C" fill-rule="nonzero">
                                    <path d="M16.877977,0.357549826 C16.67061,0.12776883 16.3748711,-0.00235627065 16.0653638,-1.35525272e-20 L3.3858885,-1.35525272e-20 C1.5907129,-9.62337848e-16 0.13543554,1.45527736 0.13543554,3.25045296 L0.13543554,19.5027178 C0.13543554,21.2978934 1.5907129,22.7531707 3.3858885,22.7531707 L18.8255401,22.7531707 C20.6207157,22.7531707 22.075993,21.2978934 22.075993,19.5027178 L22.075993,6.54695401 C22.078269,6.27985993 21.9818055,6.02133765 21.805122,5.82101951 L16.877977,0.357549826 Z M5.95916376,2.16696864 L13.543554,2.16696864 L13.543554,5.28198606 L5.95916376,5.28198606 L5.95916376,2.16696864 Z M19.9090244,19.5027178 C19.9090244,20.1011096 19.4239319,20.5862021 18.8255401,20.5862021 L3.3858885,20.5862021 C2.78749663,20.5862021 2.30240418,20.1011096 2.30240418,19.5027178 L2.30240418,3.25045296 C2.30240418,2.65206109 2.78749663,2.16696864 3.3858885,2.16696864 L3.79219512,2.16696864 L3.79219512,5.28198606 C3.79219512,6.4787698 4.76238003,7.4489547 5.95916376,7.4489547 L13.543554,7.4489547 C14.7403377,7.4489547 15.7105226,6.4787698 15.7105226,5.28198606 L15.7105226,2.30240418 L19.9090244,6.96138676 L19.9090244,19.5027178 Z" id="Shape"></path>
                                    <path d="M11.1057143,9.01458955 C9.14987317,9.01458985 7.38666781,10.192905 6.63845312,11.9999714 C5.89023842,13.8070379 6.30440138,15.886891 7.68777734,17.2694919 C9.0711533,18.6520929 11.1512381,19.0650903 12.957885,18.315863 C14.7645319,17.5666358 15.9418588,15.8027704 15.9407631,13.8469296 C15.9362857,11.1789014 13.7737446,9.01757184 11.1057143,9.01458955 Z M11.1057143,16.5231359 C9.63217431,16.5231359 8.43763415,15.3285957 8.43763415,13.8550557 C8.43763415,12.3815158 9.63217431,11.1869756 11.1057143,11.1869756 C12.5792543,11.1869756 13.7737944,12.3815158 13.7737944,13.8550557 C13.7723013,15.3279768 12.5786354,16.5216428 11.1057143,16.5231359 Z" id="Shape"></path>
                                </g>
                            </g>
                        </g>
                    </g>
                </g>
            </g>
        </g>
    </g>
</svg>