<?xml version="1.0" encoding="UTF-8"?>
<svg width="28px" height="28px" viewBox="0 0 28 28" version="1.1" xmlns="http://www.w3.org/2000/svg" xmlns:xlink="http://www.w3.org/1999/xlink">
    <!-- Generator: sketchtool 51.1 (57501) - http://www.bohemiancoding.com/sketch -->
    <title>60D19A24-0254-47C3-98D9-688A0AE0E234</title>
    <desc>Created with sketchtool.</desc>
    <defs></defs>
    <g id="industrial-landings" stroke="none" stroke-width="1" fill="none" fill-rule="evenodd" opacity="0.8">
        <g id="medicine" transform="translate(-1320.000000, -3013.000000)">
            <g id="3" transform="translate(-3.000000, 2575.000000)">
                <g id="txt" transform="translate(997.000000, 270.000000)">
                    <g id="Group-4" transform="translate(0.000000, 168.000000)">
                        <g id="3-copy" transform="translate(326.000000, 0.000000)">
                            <g id="ic_hotels">
                                <rect id="Rectangle-7" x="0" y="0" width="28" height="28"></rect>
                                <rect id="Rectangle-15" fill="#7C828C" x="6" y="20" width="2" height="7" rx="1"></rect>
                                <path d="M9.46256877,8.87678233 L10.884729,10.2989426 C9.96024204,11.3885212 8.58087276,12.0799999 7.03999996,12.0799999 C4.25648484,12.0799999 2,9.82351508 2,7.03999996 C2,5.49912717 2.69147873,4.11975788 3.78105737,3.19527094 L5.20321759,4.61743115 C4.47210896,5.17261428 4,6.05117364 4,7.03999996 C4,8.71894558 5.36105434,10.0799999 7.03999996,10.0799999 C8.02882628,10.0799999 8.90738564,9.60789097 9.46256877,8.87678233 Z M10.0538744,6.63966084 C9.87513215,5.28092443 8.79907549,4.20486778 7.44033909,4.02612552 L5.61769534,2.20348177 C6.06876105,2.07104809 6.54608342,2 7.03999996,2 C9.82351508,2 12.0799999,4.25648484 12.0799999,7.03999996 C12.0799999,7.5339165 12.0089518,8.01123888 11.8765182,8.46230459 L10.0538744,6.63966084 Z" id="Combined-Shape" fill="#7C828C" fill-rule="nonzero"></path>
                                <path d="M7,14 L7,14 C9.76142375,14 12,16.2385763 12,19 L12,26 L2,26 L2,19 C2,16.2385763 4.23857625,14 7,14 Z" id="Rectangle-14" stroke="#7C828C" stroke-width="2" stroke-linecap="round" stroke-linejoin="round"></path>
                                <path d="M21.04,12.0799999 C18.2564848,12.0799999 16,9.82351508 16,7.03999996 C16,4.25648484 18.2564848,2 21.04,2 C23.8235151,2 26.0799999,4.25648484 26.0799999,7.03999996 C26.0799999,9.82351508 23.8235151,12.0799999 21.04,12.0799999 Z M21.04,10.0799999 C22.7189456,10.0799999 24.0799999,8.71894558 24.0799999,7.03999996 C24.0799999,5.36105434 22.7189456,4 21.04,4 C19.3610543,4 18,5.36105434 18,7.03999996 C18,8.71894558 19.3610543,10.0799999 21.04,10.0799999 Z" id="Oval" fill="#7C828C" fill-rule="nonzero"></path>
                                <rect id="Rectangle-15" fill="#7C828C" x="20" y="20" width="2" height="7" rx="1"></rect>
                                <path d="M27,23.5857864 L17.5234656,14.1092521 C18.5042845,13.410791 19.7041696,13 21,13 C24.3137085,13 27,15.6862915 27,19 L27,23.5857864 Z M27,25.0410463 L27,26 C27,26.5522847 26.5522847,27 26,27 L16,27 C15.4477153,27 15,26.5522847 15,26 L15,19 C15,17.7041696 15.410791,16.5042845 16.1092521,15.5234656 L25.6066017,25.0208153 C25.9902617,25.4044752 26.6081074,25.4112189 27,25.0410463 Z M17.5538191,16.9680327 C17.2019294,17.5635459 17,18.2581914 17,19 L17,25 L25,25 L25,24.4142136 L17.5538191,16.9680327 Z M18.9680327,15.5538191 L25,21.5857864 L25,19 C25,16.790861 23.209139,15 21,15 C20.2581914,15 19.5635459,15.2019294 18.9680327,15.5538191 Z" id="Rectangle-14" fill="#7C828C" fill-rule="nonzero"></path>
                                <rect id="Rectangle-15" fill="#7C828C" transform="translate(14.000000, 14.000000) scale(-1, 1) rotate(45.000000) translate(-14.000000, -14.000000) " x="13" y="-3" width="2" height="34" rx="1"></rect>
                            </g>
                        </g>
                    </g>
                </g>
            </g>
        </g>
    </g>
</svg>