<?xml version="1.0" encoding="UTF-8"?>
<svg width="28px" height="28px" viewBox="0 0 28 28" version="1.1" xmlns="http://www.w3.org/2000/svg" xmlns:xlink="http://www.w3.org/1999/xlink">
    <!-- Generator: sketchtool 51.1 (57501) - http://www.bohemiancoding.com/sketch -->
    <title>5497A988-40AD-4807-8C89-3F16355F2F2D</title>
    <desc>Created with sketchtool.</desc>
    <defs></defs>
    <g id="industrial-landings" stroke="none" stroke-width="1" fill="none" fill-rule="evenodd">
        <g id="medicine" transform="translate(-1320.000000, -3154.000000)">
            <g id="3" transform="translate(-3.000000, 2575.000000)">
                <g id="txt" transform="translate(997.000000, 270.000000)">
                    <g id="Group-4" transform="translate(0.000000, 168.000000)">
                        <g id="3-copy-3" transform="translate(326.000000, 141.000000)">
                            <g id="ic_hotels">
                                <rect id="Rectangle-7" x="0" y="0" width="28" height="28"></rect>
                                <g id="Group-9" opacity="0.8" transform="translate(2.000000, 1.000000)">
                                    <circle id="Oval-4" stroke="#7C828C" stroke-width="2" cx="20" cy="21" r="3"></circle>
                                    <polygon id="Rectangle-19" fill="#7C828C" transform="translate(12.634642, 15.550374) rotate(35.000000) translate(-12.634642, -15.550374) " points="7.13464193 14.5503737 18.1346419 14.5503737 18.1346419 16.5503737 7.13464193 16.5503737"></polygon>
                                    <g id="noun_1715551_cc" fill="#7C828C" fill-rule="nonzero">
                                        <path d="M5.5,16 C5.35711018,15.9996174 5.22031682,15.9400758 5.12015625,15.8346667 C4.59765625,15.2888889 0,10.3342222 0,5.68888889 C-6.10622664e-16,2.54700231 2.46243388,6.31593543e-16 5.5,0 C8.53756612,-6.31593543e-16 11,2.54700231 11,5.68888889 C11,10.336 6.40234375,15.2888889 5.878125,15.8346667 C5.7809581,15.9358358 5.6498522,15.9944085 5.51203125,15.9982222 L5.5,16 Z M5.5,1.06666667 C3.03197752,1.06666667 1.03125,3.13610605 1.03125,5.68888889 C1.03125,9.33688889 4.37765625,13.4257778 5.5,14.6951111 C6.62578125,13.424 9.96875,9.34044444 9.96875,5.68888889 C9.96875,4.46299934 9.49793662,3.28731903 8.65988343,2.42048421 C7.82183024,1.5536494 6.68518619,1.06666667 5.5,1.06666667 Z" id="Shape" stroke="#7C828C"></path>
                                        <path d="M5.83318304,7.97759525 C4.77084219,8.12046256 3.73564985,7.57017249 3.25984902,6.60965607 C2.78404819,5.64913965 2.97354321,4.49218982 3.73090542,3.73365105 C4.48826764,2.97511229 5.64492242,2.78382109 6.606177,3.25812962 C7.56743157,3.73243814 8.1193287,4.76677422 7.97811109,5.82933508 C7.8295361,6.94725484 6.95087131,7.82728462 5.83318304,7.97759525 Z" id="Shape"></path>
                                    </g>
                                </g>
                            </g>
                        </g>
                    </g>
                </g>
            </g>
        </g>
    </g>
</svg>