<?xml version="1.0" encoding="UTF-8"?>
<svg width="28px" height="28px" viewBox="0 0 28 28" version="1.1" xmlns="http://www.w3.org/2000/svg" xmlns:xlink="http://www.w3.org/1999/xlink">
    <!-- Generator: Sketch 51.2 (57519) - http://www.bohemiancoding.com/sketch -->
    <title>ic_apps_forpersonal</title>
    <desc>Created with Sketch.</desc>
    <defs></defs>
    <g id="industrial-landings" stroke="none" stroke-width="1" fill="none" fill-rule="evenodd">
        <g id="Artboard" transform="translate(-21.000000, -17.000000)">
            <g id="ic_hotels" transform="translate(21.000000, 17.000000)">
                <rect id="Rectangle-7" x="0" y="0" width="28" height="28"></rect>
                <path d="M14,7 L14,26 L24,26 L24,7 L14,7 Z M13,5 L25,5 C25.5522847,5 26,5.44771525 26,6 L26,27 C26,27.5522847 25.5522847,28 25,28 L13,28 C12.4477153,28 12,27.5522847 12,27 L12,6 C12,5.44771525 12.4477153,5 13,5 Z" id="Rectangle-18-Copy" fill="#7C828C" fill-rule="nonzero"></path>
                <circle id="Oval-5" fill="#7C828C" fill-rule="nonzero" cx="19" cy="22" r="2"></circle>
                <path d="M5,22 L5,23 C5,22.4477153 4.55228475,22 4,22 L5,22 Z M5,22 L5,3 L15,3 L15,5.14355469 L17,5.14355469 L17,2 C17,1.44771525 16.5522847,1 16,1 L4,1 C3.44771525,1 3,1.44771525 3,2 L3,23 C3,23.5522847 3.44771525,24 4,24 L12.0761719,24 L12.0761719,22 L5,22 Z M5,3 L4,3 C4.55228475,3 5,2.55228475 5,2 L5,3 Z M15,3 L15,5.14355469 L17,5.14355469 L17,2 C17,1.44771525 16.5522847,1 16,1 L4,1 C3.44771525,1 3,1.44771525 3,2 L3,23 C3,23.5522847 3.44771525,24 4,24 L12.0761719,24 L12.0761719,22 L5,22 L5,3 L15,3 Z" id="Rectangle-18-Copy" fill="#7C828C" fill-rule="nonzero"></path>
                <circle id="Oval-5" fill="#7C828C" fill-rule="nonzero" cx="10" cy="18" r="2"></circle>
            </g>
        </g>
    </g>
</svg>