<?xml version="1.0" encoding="UTF-8"?>
<svg width="28px" height="28px" viewBox="0 0 28 28" version="1.1" xmlns="http://www.w3.org/2000/svg" xmlns:xlink="http://www.w3.org/1999/xlink">
    <!-- Generator: sketchtool 51.1 (57501) - http://www.bohemiancoding.com/sketch -->
    <title>E2249818-8B8B-4FB9-8E64-95CCAF4D914A</title>
    <desc>Created with sketchtool.</desc>
    <defs></defs>
    <g id="industrial-landings" stroke="none" stroke-width="1" fill="none" fill-rule="evenodd">
        <g id="medicine" transform="translate(-716.000000, -2091.000000)">
            <g id="2" transform="translate(0.000000, 1645.000000)">
                <g id="txt" transform="translate(390.000000, 254.000000)">
                    <g id="Group-6" transform="translate(0.000000, 192.000000)">
                        <g id="2" transform="translate(326.000000, 0.000000)">
                            <g id="ic_hotels">
                                <rect id="Rectangle-7" x="0" y="0" width="28" height="28"></rect>
                                <g id="Group" opacity="0.8" transform="translate(2.000000, 4.000000)" fill="#7C828C" fill-rule="nonzero">
                                    <g id="Shape">
                                        <path d="M5.66136897,10.9476039 C5.64554035,10.8481516 5.62971174,10.7486993 5.61652122,10.649247 C5.62971174,10.7408478 5.64290225,10.8350658 5.65345466,10.9266666 C5.55056865,10.1519855 5.55056865,9.36945301 5.65345466,8.59738914 C5.64026415,8.68898994 5.62707363,8.7832079 5.61652122,8.8748087 C5.71940724,8.11583066 5.92254117,7.37517279 6.2206468,6.66853806 C6.18635146,6.75228736 6.14941802,6.83603666 6.11512268,6.91978596 C6.40795211,6.2314714 6.79047704,5.58241432 7.24950696,4.98831772 C7.1941068,5.05898119 7.13870664,5.12964466 7.08330647,5.20030814 C7.5476126,4.60359437 8.0884237,4.06707541 8.68991118,3.60645426 C8.6186824,3.66141474 8.54745362,3.71637521 8.47622484,3.77133569 C9.07507421,3.31594887 9.72932375,2.93907702 10.4231448,2.64595447 C10.3387255,2.67997762 10.2543062,2.71661794 10.1698869,2.75064109 C10.8821747,2.45490137 11.6287579,2.25337962 12.3938078,2.15131016 C12.3014741,2.16439599 12.2065024,2.17748182 12.1141688,2.18795048 C12.8924092,2.08588102 13.6785639,2.08588102 14.4568043,2.18795048 C14.3644707,2.17486465 14.269499,2.16177882 14.1771654,2.15131016 C14.9422152,2.25337962 15.6887984,2.45490137 16.4010862,2.75064109 C16.3166669,2.71661794 16.2322476,2.67997762 16.1478283,2.64595447 C16.8416494,2.93645985 17.4958989,3.31594887 18.0947483,3.77133569 C18.0235195,3.71637521 17.9522907,3.66141474 17.8810619,3.60645426 C18.4825494,4.06707541 19.0233605,4.60359437 19.4876666,5.20030814 C19.4322665,5.12964466 19.3768663,5.05898119 19.3214661,4.98831772 C19.7804961,5.58241432 20.1603829,6.2314714 20.4558504,6.91978596 C20.4215551,6.83603666 20.3846216,6.75228736 20.3503263,6.66853806 C20.6484319,7.37517279 20.8515659,8.11583066 20.9544519,8.8748087 C20.9412614,8.7832079 20.9280709,8.68898994 20.9175184,8.59738914 C21.0204045,9.36945301 21.0204045,10.1493684 20.9175184,10.9214322 C20.930709,10.8298314 20.9438995,10.7356135 20.9544519,10.6440127 C20.8515659,11.4029907 20.6484319,12.1436486 20.3503263,12.8502833 C20.3846216,12.766534 20.4215551,12.6827847 20.4558504,12.5990354 C20.163021,13.28735 19.7804961,13.9364071 19.3214661,14.5305037 C19.3768663,14.4598402 19.4322665,14.3891767 19.4876666,14.3185132 C19.0233605,14.915227 18.4825494,15.451746 17.8810619,15.9123671 C17.9522907,15.8574066 18.0235195,15.8024462 18.0947483,15.7474857 C17.4958989,16.2028725 16.8416494,16.5797444 16.1478283,16.8728669 C16.2322476,16.8388438 16.3166669,16.8022034 16.4010862,16.7681803 C15.6887984,17.06392 14.9422152,17.2654418 14.1771654,17.3675112 C14.269499,17.3544254 14.3644707,17.3413396 14.4568043,17.3308709 C13.6732877,17.4329404 12.8818568,17.4329404 12.0983402,17.3282537 C12.1906738,17.3413396 12.2856455,17.3544254 12.3779791,17.364894 C11.6155674,17.2602074 10.8716223,17.0586857 10.1593345,16.762946 C10.2437538,16.7969691 10.3281731,16.8336094 10.4125924,16.8676326 C9.71877134,16.5771272 9.06979801,16.1976382 8.47094863,15.7448685 C8.54217741,15.799829 8.6134062,15.8547895 8.68463498,15.90975 C8.51052018,15.7762745 8.33904349,15.6349476 8.1754811,15.4883863 C7.96707097,15.3025675 7.71645119,15.1821779 7.42889796,15.1821779 C7.17036387,15.1821779 6.86170582,15.2973332 6.68231482,15.4883863 C6.49764761,15.6872909 6.36046626,15.9490074 6.37365677,16.2290442 C6.38684729,16.4986122 6.47390469,16.7838833 6.68231482,16.969702 C7.43153606,17.6344621 8.27309091,18.2050042 9.19378885,18.6106649 C9.69766652,18.833124 10.2094585,19.0294114 10.7423553,19.1707383 C11.2858045,19.3146825 11.8424442,19.4010489 12.4017221,19.4560094 C14.2167369,19.6365938 16.0607709,19.2623391 17.6911185,18.4641036 C19.2212182,17.7155942 20.5191649,16.5378697 21.468882,15.1403033 C22.4449801,13.7034793 22.9884293,11.9970873 23.0913153,10.269758 C23.1942013,8.51887417 22.7852953,6.75228736 21.9674834,5.20030814 C21.1786906,3.70328939 19.9678014,2.43134688 18.5379496,1.5231904 C17.0685262,0.591479436 15.3405688,0.0785149693 13.5994208,0.0183201595 C11.8398061,-0.044491816 10.0643628,0.389957681 8.52371069,1.23268502 C7.03582062,2.04662353 5.76953119,3.26622272 4.8831286,4.70566383 C3.97034497,6.18959675 3.47965782,7.92739474 3.4638292,9.66257556 C3.45855299,10.2776095 3.52186746,10.8900262 3.62475348,11.4972087 C3.66432502,11.7406051 3.90439239,12.0023216 4.11016443,12.1227113 C4.33704128,12.2535695 4.66944226,12.30853 4.92270014,12.2273979 C5.17859613,12.1462658 5.42393971,11.9892358 5.55320675,11.7458394 C5.58750209,11.6620901 5.62443553,11.5783408 5.65873087,11.4945915 C5.71413103,11.3192414 5.71413103,11.1334227 5.66136897,10.9476039 Z"></path>
                                        <path d="M12.2144167,5.10347301 C12.2144167,5.69756961 12.2144167,6.29428337 12.2144167,6.88837998 C12.2144167,7.74157598 12.2144167,8.59477198 12.2144167,9.44535081 C12.2144167,9.84315999 12.2170549,10.1860087 12.5389034,10.5131544 C12.6892753,10.6675672 12.8449234,10.8141284 12.9979333,10.965924 C13.6416305,11.5992781 14.2826895,12.2352494 14.9263866,12.8686035 C15.3933308,13.3292246 15.8523607,13.7950801 16.3245812,14.2478498 C16.3324955,14.2557013 16.3404098,14.2635528 16.3483241,14.2714043 C16.7414014,14.6587448 17.4536892,14.6875336 17.8414904,14.2714043 C18.2266534,13.8552749 18.2609488,13.2036007 17.8414904,12.7900885 C17.4088415,12.3634905 16.9788307,11.9368925 16.5461818,11.5102945 C15.8602751,10.8350658 15.1770064,10.159837 14.4910996,9.48199113 C14.3328134,9.32757836 14.1745273,9.17054842 14.0188792,9.01613564 C14.1217652,9.26214921 14.2246512,9.51077995 14.3275372,9.75679352 C14.3275372,9.23336039 14.3275372,8.7073101 14.3275372,8.18387697 C14.3275372,7.34900113 14.3275372,6.51150812 14.3275372,5.67663228 C14.3275372,5.48296202 14.3275372,5.29190893 14.3275372,5.09823867 C14.3275372,4.55125106 13.8421263,4.02520076 13.272296,4.05137242 C12.6971896,4.08277841 12.2144167,4.5172279 12.2144167,5.10347301 Z"></path>
                                        <path d="M7.43153606,7.40657877 C7.03054441,7.80438795 6.62955276,8.20219713 6.22856111,8.60000631 C5.59014019,9.23336039 4.94908117,9.86933164 4.31066025,10.5026857 C4.16292649,10.649247 4.01783082,10.7931911 3.87009706,10.9397524 C4.36869852,10.9397524 4.86466188,10.9397524 5.36326334,10.9397524 C4.96227169,10.5419432 4.56128003,10.144134 4.16028838,9.74632486 C3.52186746,9.11297077 2.88080844,8.47699952 2.24238752,7.84364544 C2.09465376,7.69708416 1.94955809,7.55314005 1.80182433,7.40657877 C1.41138509,7.01923826 0.693821081,6.99044944 0.308658047,7.40657877 C-0.0791430891,7.82532528 -0.108162222,8.47438236 0.308658047,8.88789453 C0.709649699,9.28570371 1.11064135,9.68351288 1.511633,10.0813221 C2.15005392,10.7146761 2.79111294,11.3506474 3.42953386,11.9840015 C3.57726763,12.1305628 3.72236329,12.2745069 3.87009706,12.4210681 C4.27372681,12.8214945 4.95963358,12.8214945 5.36326334,12.4210681 C5.76425499,12.023259 6.16524664,11.6254498 6.56623829,11.2276406 C7.20465921,10.5942865 7.84571823,9.95831528 8.48413915,9.32496119 C8.63187292,9.17839991 8.77696858,9.0344558 8.92470235,8.88789453 C9.31514158,8.50055401 9.34416072,7.78868496 8.92470235,7.40657877 C8.50260587,7.02185542 7.84835633,6.99044944 7.43153606,7.40657877 Z"></path>
                                    </g>
                                </g>
                            </g>
                        </g>
                    </g>
                </g>
            </g>
        </g>
    </g>
</svg>