<?xml version="1.0" encoding="UTF-8"?>
<svg width="28px" height="28px" viewBox="0 0 28 28" version="1.1" xmlns="http://www.w3.org/2000/svg" xmlns:xlink="http://www.w3.org/1999/xlink">
    <!-- Generator: Sketch 51.2 (57519) - http://www.bohemiancoding.com/sketch -->
    <title>ic_autorent</title>
    <desc>Created with Sketch.</desc>
    <defs></defs>
    <g id="industrial-landings" stroke="none" stroke-width="1" fill="none" fill-rule="evenodd">
        <g id="Artboard-Copy" transform="translate(-25.000000, -648.000000)">
            <g id="ic_tickets-copy-2" transform="translate(25.000000, 648.000000)">
                <rect id="Rectangle-7" x="0" y="0" width="28" height="28"></rect>
                <path d="M6.31873139,14.9132437 L7.22307052,14.9132437 C7.66719914,14.9132437 8.02716578,14.5532771 8.02716578,14.1091485 C8.02716578,13.6650199 7.66719914,13.3050532 7.22307052,13.3050532 L6.31873139,13.3050532 C5.87460277,13.3050532 5.51463613,13.6650199 5.51463613,14.1091485 C5.51463613,14.5532771 5.87460277,14.9132437 6.31873139,14.9132437 Z M19.0344357,20.7495458 C19.0344357,21.1936744 18.6744691,21.5536411 18.2303405,21.5536411 L10.5876731,21.5536411 C10.217968,23.2604673 8.69608369,24.5428205 6.88016857,24.5428205 C5.01797329,24.5428205 3.46490797,23.1939954 3.14657559,21.4220375 C2.50213791,21.2178866 1.9705416,20.787785 1.68517712,20.2140184 C1.54249489,19.9282072 1.46985828,19.6225616 1.46985828,19.3068202 L1.46985828,6.9450237 C1.46985828,6.50089509 1.82982493,6.14092844 2.27395354,6.14092844 C2.71808216,6.14092844 3.0780488,6.50089509 3.0780488,6.9450237 L3.0780488,19.3068202 C3.0780488,19.3710585 3.09368399,19.4349394 3.12459698,19.4968547 C3.15211491,19.5519799 3.19294508,19.6079986 3.24610471,19.6608902 C3.71516028,18.0983544 5.16682026,16.9565391 6.88007922,16.9565391 C8.69581566,16.9565391 10.2177,18.2389817 10.5875838,19.9454506 L18.2302511,19.9454506 C18.6743797,19.9454506 19.0344357,20.3054172 19.0344357,20.7495458 Z M9.06525276,20.7496352 C9.06525276,19.5449218 8.08506064,18.5647297 6.88016857,18.5647297 C5.68126253,18.5647297 4.70482286,19.5351833 4.69517371,20.7317664 C4.6953524,20.7416836 4.69526306,20.7517794 4.69517371,20.7617859 C4.70169582,21.9610493 5.67938631,22.93463 6.88016857,22.93463 C8.0849713,22.93463 9.06525276,21.9544379 9.06525276,20.7496352 Z M26.9966664,17.5772113 L26.9943435,18.1083609 C26.9926459,18.446349 26.990859,18.831868 26.990859,19.3067309 C26.990859,20.2683395 26.2992478,21.1009354 25.3241483,21.4175703 C25.0076921,23.1915831 23.4535547,24.5427312 21.5899299,24.5427312 C19.4982994,24.5427312 17.7966552,22.8410869 17.7966552,20.7495458 C17.7966552,18.6580047 19.4982994,16.9564498 21.5899299,16.9564498 C23.3007766,16.9564498 24.7506496,18.0947806 25.2217601,19.6540107 C25.3226294,19.5518013 25.3826685,19.4312763 25.3826685,19.3066415 C25.3826685,18.8286516 25.3845447,18.4407203 25.3861529,18.100588 L25.3884759,17.5699745 C25.3914242,16.8985549 25.3951767,16.0631 25.3859742,15.6564958 C25.3793628,15.3628223 25.3714112,15.1218618 25.3507727,14.9134224 L12.9805713,14.9134224 C12.6920798,14.9134224 12.016193,14.9134224 9.94806001,12.869591 C9.31800671,12.2468639 8.06549432,10.9218042 7.83498701,10.3636728 C7.6655016,9.9532268 7.86089675,9.4830991 8.27125337,9.31361369 C8.67598131,9.14662991 9.13762134,9.33371607 9.31345017,9.73129651 C9.42280712,9.92713838 10.0767153,10.7294468 11.0244755,11.6722038 C12.2181103,12.8596738 12.8524521,13.24421 13.0252432,13.3052319 L24.4471484,13.3052319 C24.1884977,13.0573025 23.8568531,12.7634504 23.4306826,12.3857936 C23.2092884,12.1897731 22.9662729,11.9743649 22.699224,11.7347445 C22.5046329,11.5602558 22.3107566,11.3750459 22.1233131,11.1959114 C21.8498313,10.9345804 21.5670578,10.6644044 21.2725803,10.4178152 C21.0128575,10.2001734 20.7670724,9.99325288 20.5332594,9.79633888 C17.5490832,7.28363054 16.7470428,6.60819052 14.230314,6.60819052 L5.67919769,6.60819052 C5.23506908,6.60819052 4.87510243,6.24822387 4.87510243,5.80409526 C4.87510243,5.35996664 5.23506908,5 5.67919769,5 L14.230314,5 C17.3338537,5 18.5736792,6.04398368 21.5691127,8.56616248 C21.8018536,8.76218303 22.0467453,8.96829945 22.3052173,9.18486911 C22.6399889,9.46523032 22.9421501,9.75390052 23.2343047,10.0331003 C23.4210335,10.2115201 23.5973984,10.3800227 23.7732272,10.5377147 C24.0375065,10.7748335 24.2780203,10.9880081 24.497181,11.182063 C26.4244186,12.889604 26.9424346,13.3485637 26.9938074,15.6201328 C27.0034565,16.0485369 26.9997041,16.8961426 26.9966664,17.5772113 Z M23.774746,20.7413262 C23.7701895,19.5404546 22.7917843,18.5647297 21.5898405,18.5647297 C20.3850378,18.5647297 19.4047563,19.5449218 19.4047563,20.7496352 C19.4047563,21.9544379 20.3850378,22.93463 21.5898405,22.93463 C22.7940179,22.93463 23.7737633,21.9553313 23.774746,20.7512434 C23.774746,20.7479376 23.774746,20.7446319 23.774746,20.7413262 Z M21.590734,19.9455399 L21.5888577,19.9455399 C21.1447291,19.9455399 20.7857453,20.3055065 20.7857453,20.7496352 C20.7857453,21.1937638 21.1466947,21.5537304 21.5908233,21.5537304 C22.0349519,21.5537304 22.3949186,21.1937638 22.3949186,20.7496352 C22.3949186,20.3055065 22.0348626,19.9455399 21.590734,19.9455399 Z M6.88124069,19.9455399 L6.87918578,19.9455399 C6.43505717,19.9455399 6.07616265,20.3055065 6.07616265,20.7496352 C6.07616265,21.1937638 6.43720142,21.5537304 6.88133004,21.5537304 C7.32545865,21.5537304 7.6854253,21.1937638 7.6854253,20.7496352 C7.6854253,20.3055065 7.32536931,19.9455399 6.88124069,19.9455399 Z" id="Shape" stroke="#7C828C" stroke-width="0.3" fill="#7C828C" fill-rule="nonzero" opacity="0.8"></path>
            </g>
        </g>
    </g>
</svg>