<?xml version="1.0" encoding="UTF-8"?>
<svg width="28px" height="28px" viewBox="0 0 28 28" version="1.1" xmlns="http://www.w3.org/2000/svg" xmlns:xlink="http://www.w3.org/1999/xlink">
    <!-- Generator: Sketch 51.2 (57519) - http://www.bohemiancoding.com/sketch -->
    <title>ic_booking</title>
    <desc>Created with Sketch.</desc>
    <defs></defs>
    <g id="industrial-landings" stroke="none" stroke-width="1" fill="none" fill-rule="evenodd">
        <g id="Artboard-Copy" transform="translate(-25.000000, -576.000000)">
            <g id="ic_tickets-copy" transform="translate(25.000000, 576.000000)">
                <rect id="Rectangle-7" x="0" y="0" width="28" height="28"></rect>
                <g id="Group-5" opacity="0.8" transform="translate(4.000000, 3.000000)" fill-rule="nonzero">
                    <path d="M2,3 L18,3 C19.1045695,3 20,3.8954305 20,5 L20,11.5672679 L20,19 C20,20.1045695 19.1045695,21 18,21 L2,21 C0.8954305,21 1.3527075e-16,20.1045695 0,19 L0,5 C-1.3527075e-16,3.8954305 0.8954305,3 2,3 Z" id="Rectangle-6" stroke="#7C828C" stroke-width="2"></path>
                    <rect id="Rectangle-10" fill="#7C828C" x="4" y="0" width="3" height="6"></rect>
                    <rect id="Rectangle-10-Copy" fill="#7C828C" x="13" y="0" width="3" height="6"></rect>
                    <polyline id="Path-3" stroke="#7C828C" stroke-width="2.5" stroke-linecap="round" stroke-linejoin="round" points="4.84667969 12.7041241 8.54543612 16.2216797 15.6848357 8"></polyline>
                </g>
            </g>
        </g>
    </g>
</svg>