<?xml version="1.0" encoding="UTF-8"?>
<svg width="28px" height="28px" viewBox="0 0 28 28" version="1.1" xmlns="http://www.w3.org/2000/svg" xmlns:xlink="http://www.w3.org/1999/xlink">
    <!-- Generator: Sketch 49.3 (51167) - http://www.bohemiancoding.com/sketch -->
    <title>ic_chats</title>
    <desc>Created with Sketch.</desc>
    <defs></defs>
    <g id="transport&amp;logistic" stroke="none" stroke-width="1" fill="none" fill-rule="evenodd">
        <g id="Travel&amp;Hospitality" transform="translate(-390.000000, -4079.000000)">
            <g id="4" transform="translate(0.000000, 3532.000000)">
                <g id="txt" transform="translate(390.000000, 307.000000)">
                    <g id="icons" transform="translate(0.000000, 194.000000)">
                        <g id="1">
                            <g id="ic_chats" transform="translate(0.000000, 46.000000)">
                                <rect id="Rectangle-7" x="0" y="0" width="28" height="28"></rect>
                                <g id="noun_1272177_cc" opacity="0.8" transform="translate(14.500000, 15.000000) scale(-1, 1) translate(-14.500000, -15.000000) translate(3.000000, 4.000000)" fill="#FFFFFF" fill-rule="nonzero">
                                    <path d="M19.6410515,0.0312765957 L3.35990927,0.0312765957 C1.60052118,0.0312765957 0.174255319,1.45754245 0.174255319,3.21693055 L0.174255319,12.2494848 C0.174255319,14.0088729 1.60052118,15.4351387 3.35990927,15.4351387 L10.4663681,15.4351387 C10.2213178,17.297521 9.25336909,19.1868589 9.24111658,19.2089134 C8.97995804,19.705927 9.0900252,20.3168503 9.50822141,20.6914677 C9.79542223,20.9381637 10.1667177,21.0645621 10.5447842,21.0443402 C10.7007991,21.0419817 10.8564243,21.0280573 11.0103798,21.0026816 C12.0886011,20.8433989 14.835615,19.9783714 17.7835702,15.4351387 L19.638601,15.4351387 C21.3979891,15.4351387 22.8242549,14.0088729 22.8242549,12.2494848 L22.8242549,3.21693055 C22.8242555,1.45849899 21.3994825,0.0326292354 19.6410515,0.0312765957 Z M20.3762024,12.2445838 C20.3762024,12.6505964 20.0470641,12.9797347 19.6410515,12.9797347 L17.1072313,12.9797347 C16.6797264,12.9798058 16.2831691,13.2026951 16.0608665,13.5678554 C14.7081889,15.7733081 13.4412788,17.0255152 12.4659786,17.7165571 C12.8458933,16.5528085 13.0119389,15.3298829 12.9560792,14.1069661 C12.9048673,13.4688282 12.3710139,12.977683 11.7308277,12.9797347 L3.35990927,12.9797347 C2.95389664,12.9797347 2.62475836,12.6505964 2.62475836,12.2445838 L2.62475836,3.21693055 C2.62475836,2.81091791 2.95389664,2.48177964 3.35990927,2.48177964 L19.6410515,2.48177964 C20.0470641,2.48177964 20.3762024,2.81091791 20.3762024,3.21693055 L20.3762024,12.2445838 Z" id="Shape"></path>
                                </g>
                                <path d="M14.2287234,12.3723404 L9.09042553,12.3723404 C8.47351172,12.3723404 7.97340426,12.8724479 7.97340426,13.4893617 C7.97340426,14.1062755 8.47351172,14.606383 9.09042553,14.606383 L14.2287234,14.606383 C14.8456372,14.606383 15.3457447,14.1062755 15.3457447,13.4893617 C15.3457447,12.8724479 14.8456372,12.3723404 14.2287234,12.3723404 Z" id="Shape" fill="#FFFFFF" fill-rule="nonzero" opacity="0.8"></path>
                                <path d="M19.6019755,8.46808511 L9.29483281,8.46808511 C8.56502797,8.46808511 7.97340426,8.96819257 7.97340426,9.58510638 C7.97340426,10.2020202 8.56502797,10.7021277 9.29483281,10.7021277 L19.6019755,10.7021277 C20.3317803,10.7021277 20.9234041,10.2020202 20.9234041,9.58510638 C20.9234041,8.96819257 20.3317803,8.46808511 19.6019755,8.46808511 Z" id="Shape" fill="#FFFFFF" fill-rule="nonzero" opacity="0.8"></path>
                            </g>
                        </g>
                    </g>
                </g>
            </g>
        </g>
    </g>
</svg>