<?xml version="1.0" encoding="UTF-8"?>
<svg width="28px" height="28px" viewBox="0 0 28 28" version="1.1" xmlns="http://www.w3.org/2000/svg" xmlns:xlink="http://www.w3.org/1999/xlink">
    <!-- Generator: Sketch 51.2 (57519) - http://www.bohemiancoding.com/sketch -->
    <title>ic_chat</title>
    <desc>Created with Sketch.</desc>
    <defs></defs>
    <g id="industrial-landings" stroke="none" stroke-width="1" fill="none" fill-rule="evenodd">
        <g id="Artboard-Copy-4" transform="translate(-1047.000000, -725.000000)">
            <g id="ic_hotels" transform="translate(1047.000000, 725.000000)">
                <rect id="Rectangle-7" x="0" y="0" width="28" height="28"></rect>
                <g id="chat" opacity="0.8" transform="translate(2.000000, 4.000000)" fill="#7C828C" fill-rule="nonzero" stroke="#7C828C" stroke-width="0.5">
                    <path d="M17.959378,0.0365661408 L1.39081584,0.0365661408 C0.623891687,0.0365661408 0,0.660457828 0,1.42733374 L0,11.3675352 C0,12.1344111 0.623891687,12.758351 1.39081584,12.758351 L2.46517536,12.758351 L2.46517536,16.4588638 C2.46517536,16.6944694 2.6070983,16.9069678 2.82485498,16.9971772 C2.89692597,17.0270862 2.97266323,17.0415583 3.04772512,17.0415583 C3.1993926,17.0415583 3.34835862,16.9823192 3.45984193,16.8708841 L7.572375,12.7583993 L8.39747694,12.7583993 C8.71928792,12.7583993 8.98012318,12.497564 8.98012318,12.175753 C8.98012318,11.8538938 8.71919144,11.5930586 8.39747694,11.5930586 C8.39747694,11.5930586 7.30290473,11.5938304 7.29147178,11.5949882 C7.15582008,11.6042021 7.02267688,11.6600643 6.91896025,11.7637327 L3.63046784,15.0522251 C3.63046784,15.0522251 3.62945479,12.1388975 3.62757342,12.1237982 C3.60128246,11.8263486 3.35178368,11.5930586 3.04753216,11.5930586 L1.39081584,11.5930586 C1.26645237,11.5930586 1.16534072,11.4918987 1.16534072,11.3675834 L1.16534072,1.42733374 C1.16534072,1.30297027 1.26650061,1.20185862 1.39081584,1.20185862 L17.959378,1.20185862 C18.0837415,1.20185862 18.1848532,1.30301851 18.1848532,1.42733374 L18.1848532,5.24096996 C18.1848532,5.56278095 18.4457849,5.8236162 18.7674994,5.8236162 C19.0892139,5.8236162 19.3501456,5.56278095 19.3501456,5.24096996 L19.3501456,1.42733374 C19.3501456,0.660457828 18.7262539,0.0365661408 17.959378,0.0365661408 Z" id="Shape"></path>
                    <path d="M23.3082133,7.16329733 L11.7105237,7.16329733 C10.9436478,7.16329733 10.3197078,7.78718902 10.3197078,8.55411317 L10.3197078,15.3352509 C10.3197078,16.1021268 10.9435995,16.7260667 11.7105237,16.7260667 L18.9713629,16.7260667 L21.9130558,19.6677597 C22.0245391,19.779243 22.1735534,19.8384339 22.3251726,19.8384339 C22.4002345,19.8384339 22.4759718,19.8239135 22.5480428,19.7940528 C22.765703,19.7038434 22.9077224,19.4914414 22.9077224,19.2557394 L22.9077224,16.7260185 L23.308165,16.7260185 C24.075041,16.7260185 24.6989809,16.1021268 24.6989809,15.3352027 L24.6989809,8.55406493 C24.6990291,7.78718902 24.0751374,7.16329733 23.3082133,7.16329733 Z M23.5337367,15.3352509 C23.5337367,15.4595661 23.4325768,15.560726 23.3082615,15.560726 L22.3253174,15.560726 C22.0187021,15.560726 21.767949,15.7976823 21.7449384,16.0984606 C21.743443,16.111196 21.7424782,17.8491007 21.7424782,17.8491007 L19.6269484,15.7335228 C19.6247294,15.7313037 19.6224138,15.7292294 19.6201948,15.7270103 C19.6118975,15.7189059 19.6040343,15.7118629 19.5966053,15.7055434 C19.4940464,15.6156235 19.3600831,15.5606778 19.2130467,15.5606778 L11.7105237,15.5606778 C11.5861602,15.5606778 11.4850485,15.4595179 11.4850485,15.3352027 L11.4850485,8.55406493 C11.4850485,8.42970146 11.5862084,8.32858981 11.7105237,8.32858981 L23.3082615,8.32858981 C23.4325768,8.32858981 23.5337367,8.4297497 23.5337367,8.55406493 L23.5337367,15.3352509 Z" id="Shape"></path>
                    <path d="M14.9772597,3.88869812 C14.9772597,3.88869812 4.3729824,3.88869812 4.3729824,3.88869812 C4.05121966,3.88869812 3.79033617,4.14953337 3.79033617,4.47134436 C3.79033617,4.79315534 4.0512679,5.05399059 4.3729824,5.05399059 L14.9772597,5.05399059 C15.2990225,5.05399059 15.5599059,4.79315534 15.5599059,4.47134436 C15.5599059,4.14953337 15.2990225,3.88869812 14.9772597,3.88869812 Z" id="Shape"></path>
                    <path d="M8.3974287,7.74087834 L4.3729824,7.74087834 C4.05121966,7.74087834 3.79033617,8.00171359 3.79033617,8.32352458 C3.79033617,8.64533556 4.0512679,8.90617081 4.3729824,8.90617081 L8.3974287,8.90617081 C8.71923968,8.90617081 8.98007494,8.64533556 8.98007494,8.32352458 C8.98007494,8.00171359 8.71919144,7.74087834 8.3974287,7.74087834 Z" id="Shape"></path>
                </g>
            </g>
        </g>
    </g>
</svg>