<?xml version="1.0" encoding="UTF-8"?>
<svg width="28px" height="28px" viewBox="0 0 28 28" version="1.1" xmlns="http://www.w3.org/2000/svg" xmlns:xlink="http://www.w3.org/1999/xlink">
    <!-- Generator: Sketch 51.2 (57519) - http://www.bohemiancoding.com/sketch -->
    <title>ic_crm</title>
    <desc>Created with Sketch.</desc>
    <defs></defs>
    <g id="industrial-landings" stroke="none" stroke-width="1" fill="none" fill-rule="evenodd">
        <g id="Artboard-Copy" transform="translate(-1056.000000, -261.000000)">
            <g id="ic_hotels" transform="translate(1056.000000, 261.000000)">
                <rect id="Rectangle-7" x="0" y="0" width="28" height="28"></rect>
                <g id="icon" opacity="0.8" transform="translate(2.000000, 4.000000)" fill-rule="nonzero">
                    <rect id="Rectangle-16" stroke="#FFFFFF" stroke-width="2" x="1" y="1" width="22" height="19" rx="3"></rect>
                    <g id="Group-11" transform="translate(1.000000, 1.000000)" fill="#FFFFFF">
                        <path d="M0,0 L22,0 L22,6 L0,6 L0,0 Z M4.5,5 C5.32842712,5 6,4.32842712 6,3.5 C6,2.67157288 5.32842712,2 4.5,2 C3.67157288,2 3,2.67157288 3,3.5 C3,4.32842712 3.67157288,5 4.5,5 Z M8.5,5 C9.32842712,5 10,4.32842712 10,3.5 C10,2.67157288 9.32842712,2 8.5,2 C7.67157288,2 7,2.67157288 7,3.5 C7,4.32842712 7.67157288,5 8.5,5 Z M12.5,5 C13.3284271,5 14,4.32842712 14,3.5 C14,2.67157288 13.3284271,2 12.5,2 C11.6715729,2 11,2.67157288 11,3.5 C11,4.32842712 11.6715729,5 12.5,5 Z" id="Combined-Shape"></path>
                        <rect id="Path" x="8" y="6" width="2" height="14"></rect>
                        <rect id="Path" x="2" y="9" width="5" height="2" rx="1"></rect>
                        <rect id="Path" x="2" y="12" width="5" height="2" rx="1"></rect>
                    </g>
                </g>
            </g>
        </g>
    </g>
</svg>