<?xml version="1.0" encoding="UTF-8"?>
<svg width="28px" height="28px" viewBox="0 0 28 28" version="1.1" xmlns="http://www.w3.org/2000/svg" xmlns:xlink="http://www.w3.org/1999/xlink">
    <!-- Generator: Sketch 49.3 (51167) - http://www.bohemiancoding.com/sketch -->
    <title>ic_hotels</title>
    <desc>Created with Sketch.</desc>
    <defs></defs>
    <g id="transport&amp;logistic" stroke="none" stroke-width="1" fill="none" fill-rule="evenodd">
        <g id="Travel&amp;Hospitality" transform="translate(-994.000000, -3190.000000)">
            <g id="3" transform="translate(0.000000, 2732.000000)">
                <g id="txt" transform="translate(994.000000, 236.000000)">
                    <g id="Group-4" transform="translate(0.000000, 206.000000)">
                        <g id="1">
                            <g id="ic_hotels" transform="translate(0.000000, 16.000000)">
                                <rect id="Rectangle-7" x="0" y="0" width="28" height="28"></rect>
                                <g id="Group" opacity="0.8" transform="translate(4.000000, 3.000000)" fill="#7C828C" fill-rule="nonzero" stroke="#7C828C" stroke-width="0.3">
                                    <path d="M19.90625,18.33125 L1.09375,18.33125 C0.6125,18.33125 0.21875,17.9375 0.21875,17.45625 L0.21875,11.76875 C0.21875,11.2875 0.6125,10.89375 1.09375,10.89375 L19.95,10.89375 C20.43125,10.89375 20.825,11.2875 20.825,11.76875 L20.825,17.5 C20.78125,17.9375 20.3875,18.33125 19.90625,18.33125 Z M1.925,16.625 L19.075,16.625 L19.075,12.6 L1.925,12.6 L1.925,16.625 Z" id="Shape"></path>
                                    <path d="M3.7625,21.7357955 C3.28125,21.7357955 2.8875,21.3420455 2.8875,20.8607955 L2.8875,18.4107955 C2.8875,17.9295455 3.28125,17.5357955 3.7625,17.5357955 C4.24375,17.5357955 4.6375,17.9295455 4.6375,18.4107955 L4.6375,20.8607955 C4.6375,21.3420455 4.24375,21.7357955 3.7625,21.7357955 Z" id="Shape"></path>
                                    <path d="M17.2375,21.7357955 C16.75625,21.7357955 16.3625,21.3420455 16.3625,20.8607955 L16.3625,18.4107955 C16.3625,17.9295455 16.75625,17.5357955 17.2375,17.5357955 C17.71875,17.5357955 18.1125,17.9295455 18.1125,18.4107955 L18.1125,20.8607955 C18.1125,21.3420455 17.71875,21.7357955 17.2375,21.7357955 Z" id="Shape"></path>
                                    <path d="M17.9375,7.91875 C17.45625,7.91875 17.0625,7.525 17.0625,7.04375 L17.0625,4.9 C17.0625,3.2375 15.70625,1.925 14.0875,1.925 L6.9125,1.925 C5.25,1.925 3.9375,3.28125 3.9375,4.9 L3.9375,7.04375 C3.9375,7.525 3.54375,7.91875 3.0625,7.91875 C2.58125,7.91875 2.1875,7.525 2.1875,7.04375 L2.1875,4.9 C2.1875,2.31875 4.33125,0.21875 6.9125,0.21875 L14.0875,0.21875 C16.66875,0.21875 18.8125,2.31875 18.8125,4.9 L18.8125,7.04375 C18.8125,7.525 18.41875,7.91875 17.9375,7.91875 Z" id="Shape"></path>
                                    <path d="M13.125,6.16875 L7.875,6.16875 C7.39375,6.16875 7,5.775 7,5.29375 C7,4.8125 7.39375,4.41875 7.875,4.41875 L13.125,4.41875 C13.60625,4.41875 14,4.8125 14,5.29375 C14,5.775 13.5625,6.16875 13.125,6.16875 Z" id="Shape"></path>
                                </g>
                            </g>
                        </g>
                    </g>
                </g>
            </g>
        </g>
    </g>
</svg>