<?xml version="1.0" encoding="UTF-8"?>
<svg width="28px" height="28px" viewBox="0 0 28 28" version="1.1" xmlns="http://www.w3.org/2000/svg" xmlns:xlink="http://www.w3.org/1999/xlink">
    <!-- Generator: Sketch 51.2 (57519) - http://www.bohemiancoding.com/sketch -->
    <title>ic_integration</title>
    <desc>Created with Sketch.</desc>
    <defs></defs>
    <g id="industrial-landings" stroke="none" stroke-width="1" fill="none" fill-rule="evenodd">
        <g id="Artboard-Copy" transform="translate(-761.000000, -337.000000)">
            <g id="ic_hotels-copy-2" transform="translate(761.000000, 337.000000)">
                <rect id="Rectangle-7" x="0" y="0" width="28" height="28"></rect>
                <g id="noun_Shrink-proportionally_1691314" opacity="0.8" transform="translate(2.000000, 2.000000)" fill="#FFFFFF" fill-rule="nonzero" stroke="#FFFFFF">
                    <path d="M5.61366667,6.19433333 L4.31093208,7.49722541 C3.92043139,7.8877733 3.92046966,8.52093828 4.31101755,8.91143897 C4.46944328,9.06984555 4.67647279,9.17046479 4.89891054,9.19716319 L8.66322163,9.6489799 C9.21157065,9.71479626 9.70945007,9.32362624 9.77526643,8.77527722 C9.78476974,8.69610036 9.7847681,8.61607097 9.77526155,8.5368945 L9.32327167,4.77244165 C9.25743288,4.22409531 8.75953747,3.83294566 8.21119114,3.89878444 C7.98872726,3.92549521 7.78167924,4.02614415 7.62325328,4.18458927 L6.321,5.487 L1.041,0.207333333 C0.845666667,0.012 0.529333333,0.012 0.334,0.207333333 C0.138666667,0.402666667 0.138666667,0.719333333 0.334,0.914333333 L5.61366667,6.19433333 Z" id="Shape"></path>
                    <path d="M18.5896667,6.281 L23.666,1.20466667 C23.8613333,1.00966667 23.8613333,0.692666667 23.666,0.497666667 C23.4706667,0.302333333 23.1543333,0.302333333 22.959,0.497666667 L17.8823333,5.574 L16.5795615,4.27122812 C16.1890372,3.88070383 15.5558722,3.88070383 15.1653479,4.27122812 C15.0069045,4.42967154 14.9062662,4.6367381 14.8795747,4.85921552 L14.4279317,8.62373565 C14.3621439,9.1720881 14.7533398,9.66994715 15.3016923,9.73573497 C15.3808215,9.74522838 15.4608018,9.74522838 15.539931,9.73573497 L19.3046081,9.2840731 C19.8529606,9.21828528 20.2441565,8.72042622 20.1783687,8.17207378 C20.1516798,7.94961693 20.0510575,7.74256746 19.8926383,7.58412911 L18.5896667,6.281 Z" id="Shape"></path>
                    <path d="M5.61366667,17.8056667 L0.333666667,23.0856667 C0.138333333,23.2806667 0.138333333,23.5976667 0.333666667,23.7926667 C0.431333333,23.8903333 0.559333333,23.939 0.687333333,23.939 C0.815333333,23.939 0.943333333,23.8903333 1.041,23.7926667 L6.32066667,18.513 L7.62334958,19.8158404 C8.01385027,20.2063883 8.64701524,20.2064266 9.03756314,19.8159259 C9.19599564,19.6575125 9.29664154,19.4504845 9.32336175,19.2280397 L9.7755291,15.4637643 C9.84139643,14.9154214 9.45027269,14.4175056 8.90192979,14.3516383 C8.82275381,14.3421276 8.74272442,14.3421218 8.66354706,14.351621 L4.89921552,14.8032414 C4.35086307,14.8690292 3.95966715,15.3668883 4.02545496,15.9152407 C4.05214638,16.1377181 4.1527847,16.3447847 4.31122812,16.5032281 L5.61366667,17.8056667 Z" id="Shape"></path>
                    <path d="M18.5893333,17.8056667 L19.8921052,16.5028948 C20.2826295,16.1123705 20.2826295,15.4792055 19.8921052,15.0886812 C19.7336618,14.9302378 19.5265952,14.8295995 19.3041178,14.8029081 L15.5396049,14.3512659 C14.9912525,14.2854781 14.4933934,14.676674 14.4276056,15.2250265 C14.418112,15.3041575 14.4181122,15.3841398 14.4276063,15.4632708 L14.8792506,19.227624 C14.9450415,19.7759761 15.4429027,20.1671693 15.9912548,20.1013784 C16.2137096,20.0746884 16.4207569,19.9740665 16.5791939,19.8156486 L17.882,18.513 L22.9583333,23.5893333 C23.056,23.687 23.184,23.7356667 23.312,23.7356667 C23.44,23.7356667 23.568,23.687 23.6656667,23.5893333 C23.861,23.394 23.861,23.0773333 23.6656667,22.8823333 L18.5893333,17.8056667 Z" id="Shape"></path>
                </g>
            </g>
        </g>
    </g>
</svg>