<?xml version="1.0" encoding="UTF-8"?>
<svg width="28px" height="28px" viewBox="0 0 28 28" version="1.1" xmlns="http://www.w3.org/2000/svg" xmlns:xlink="http://www.w3.org/1999/xlink">
    <!-- Generator: Sketch 49.3 (51167) - http://www.bohemiancoding.com/sketch -->
    <title>ic_language</title>
    <desc>Created with Sketch.</desc>
    <defs></defs>
    <g id="transport&amp;logistic" stroke="none" stroke-width="1" fill="none" fill-rule="evenodd">
        <g id="Travel&amp;Hospitality" transform="translate(-390.000000, -4125.000000)">
            <g id="4" transform="translate(0.000000, 3532.000000)">
                <g id="txt" transform="translate(390.000000, 307.000000)">
                    <g id="icons" transform="translate(0.000000, 194.000000)">
                        <g id="1">
                            <g id="ic_language" transform="translate(0.000000, 92.000000)">
                                <rect id="Rectangle-7" x="0" y="0" width="28" height="28"></rect>
                                <path d="M14,3 C7.92489019,3 3,7.92482298 3,14 C3,20.0751098 7.92489019,25 14,25 C20.0751098,25 25,20.0751098 25,14 C25,7.92482298 20.0751098,3 14,3 Z M21.6092956,9.6 L18.5353516,9.6 C18.2526307,8.16323247 17.8341553,6.89290165 17.3183961,5.85460208 C19.1295288,6.59520876 20.6358521,7.9232788 21.6092956,9.6 Z M22.8,14 C22.8,14.7608154 22.6927796,15.4953796 22.5103637,16.2 L18.8505676,16.2 C18.9154907,15.4890686 18.95,14.7534974 18.95,14 C18.95,13.2465026 18.9154907,12.5109314 18.8505676,11.8 L22.5103637,11.8 C22.6927124,12.5046204 22.8,13.2391846 22.8,14 Z M14,22.8 C13.5208313,22.8 12.3669861,21.2655456 11.7166137,18.4 L16.2833862,18.4 C15.6330139,21.2655456 14.4791687,22.8 14,22.8 Z M11.3621216,16.2 C11.2924316,15.5147156 11.25,14.784314 11.25,14 C11.25,13.215686 11.2924316,12.4852844 11.3621216,11.8 L16.6378784,11.8 C16.7075684,12.4852844 16.75,13.215686 16.75,14 C16.75,14.784314 16.7075684,15.5147156 16.6378784,16.2 L11.3621216,16.2 Z M5.2,14 C5.2,13.2391846 5.30728762,12.5046204 5.48963627,11.8 L9.14943241,11.8 C9.08450931,12.5109314 9.05,13.2465026 9.05,14 C9.05,14.7534974 9.08450931,15.4890686 9.14943241,16.2 L5.48963627,16.2 C5.30722041,15.4953796 5.2,14.7608154 5.2,14 Z M14,5.2 C14.4791687,5.2 15.633081,6.73438725 16.2834534,9.6 L11.7165466,9.6 C12.366919,6.73438725 13.5208313,5.2 14,5.2 Z M10.681604,5.85460208 C10.1658447,6.89290165 9.74736942,8.16323247 9.46464841,9.6 L6.39070435,9.6 C7.36414792,7.9232788 8.8704712,6.59520876 10.681604,5.85460208 Z M6.39070435,18.4 L9.46464841,18.4 C9.74736931,19.8367675 10.1657775,21.1069642 10.6816039,22.1453308 C8.8704712,21.4047241 7.36414792,20.0767212 6.39070435,18.4 Z M17.318396,22.1453308 C17.8342224,21.1069642 18.2526306,19.8367675 18.5353516,18.4 L21.6092956,18.4 C20.6358521,20.0767212 19.1295288,21.4047241 17.318396,22.1453308 Z" id="Shape" fill-opacity="0.8" fill="#FFFFFF" fill-rule="nonzero"></path>
                            </g>
                        </g>
                    </g>
                </g>
            </g>
        </g>
    </g>
</svg>