<?xml version="1.0" encoding="UTF-8"?>
<svg width="28px" height="28px" viewBox="0 0 28 28" version="1.1" xmlns="http://www.w3.org/2000/svg" xmlns:xlink="http://www.w3.org/1999/xlink">
    <!-- Generator: Sketch 49.3 (51167) - http://www.bohemiancoding.com/sketch -->
    <title>ic_offers</title>
    <desc>Created with Sketch.</desc>
    <defs></defs>
    <g id="transport&amp;logistic" stroke="none" stroke-width="1" fill="none" fill-rule="evenodd">
        <g id="Travel&amp;Hospitality" transform="translate(-1004.000000, -5037.000000)">
            <g id="3" transform="translate(0.000000, 4460.000000)">
                <g id="txt" transform="translate(1004.000000, 254.000000)">
                    <g id="Group-11" transform="translate(0.000000, 244.000000)">
                        <g id="Group-9" transform="translate(0.000000, 79.000000)">
                            <g id="ic_offers">
                                <rect id="Rectangle-7" x="0" y="0" width="28" height="28"></rect>
                                <g id="noun_1299350_cc" transform="translate(3.000000, 3.000000)" fill="#FFFFFF" fill-opacity="0.8" fill-rule="nonzero">
                                    <path d="M19.7301587,7.70753904 C19.7301587,7.70753904 19.7301587,7.70753904 19.7301587,7.70753904 L15.7891156,7.6327091 C16.0884354,5.91162067 16.3129252,2.86853677 14.7664399,1.17239164 C14.1428571,0.473978946 12.9455782,-0.274320374 10.8253968,0.0998292857 C10.276644,0.199602528 9.92743764,0.698468741 10.0022676,1.24722158 C10.4761905,4.41502203 9.95238095,5.93656398 9.40362812,6.6848633 C8.95464853,7.30844607 8.430839,7.43316262 8.35600907,7.43316262 C7.9569161,7.45810593 7.40816327,7.6327091 6.90929705,7.90708552 C6.51020408,7.23361613 5.78684807,6.78463654 4.93877551,6.78463654 L2.29478458,6.78463654 C1.02267574,6.73474992 0,7.75742566 0,9.0295345 L0,18.6576524 C0,19.9297613 1.02267574,20.952437 2.29478458,20.952437 L4.93877551,20.952437 C5.91156463,20.952437 6.73469388,20.3537975 7.05895692,19.505725 C8.25623583,20.7030039 10.0022676,21.7755662 12.2222222,21.9751127 C13.5442177,22.074886 14.69161,22.1247726 15.6145125,22.1247726 C17.2108844,22.1247726 18.2086168,22.0249994 18.4829932,21.9751127 C19.6802721,21.9252261 20.6530612,20.952437 20.7029478,19.7551581 L22,10.1020969 C22,10.0522102 22,10.0023236 22,9.97738031 C22,8.73021477 20.9773243,7.70753904 19.7301587,7.70753904 Z M5.23809524,18.6576524 C5.23809524,18.8322556 5.11337868,18.9569721 4.93877551,18.9569721 L2.29478458,18.9569721 C2.12018141,18.9569721 1.99546485,18.8322556 1.99546485,18.6576524 L1.99546485,9.0295345 C1.99546485,8.85493133 2.12018141,8.73021477 2.29478458,8.73021477 L4.93877551,8.73021477 C5.11337868,8.73021477 5.23809524,8.85493133 5.23809524,9.0295345 L5.23809524,10.0023236 L5.23809524,16.4626411 L5.23809524,18.6576524 Z M18.707483,19.5556116 C18.707483,19.6054982 18.707483,19.6553848 18.707483,19.6803282 C18.707483,19.8549313 18.5827664,19.9796479 18.4081633,19.9796479 C18.3582766,19.9796479 18.30839,19.9796479 18.2585034,19.9796479 C18.2335601,19.9796479 16.0884354,20.2789676 12.3968254,19.9796479 C9.22902494,19.7052715 7.40816327,17.0113939 7.23356009,16.3878111 L7.23356009,10.1020969 C7.40816327,9.82772044 8.13151927,9.40368416 8.45578231,9.37874085 C8.48072562,9.37874085 8.50566893,9.37874085 8.55555556,9.37874085 C8.70521542,9.37874085 9.95238095,9.22908099 10.9750567,7.93202883 C12.0226757,6.61003337 12.3968254,4.61456851 12.1473923,1.9955209 C12.8956916,2.04540752 13.1950113,2.36967056 13.3197279,2.51933042 C14.4920635,3.81638257 13.9183673,7.25855944 13.6439909,8.35606511 C13.569161,8.65538484 13.6190476,8.97964788 13.8185941,9.20413768 C13.9931973,9.45357078 14.292517,9.60323065 14.5918367,9.60323065 L19.7052154,9.70300389 C19.8548753,9.70300389 19.9795918,9.80277713 20.0045351,9.952437 L18.707483,19.5556116 Z" id="Shape"></path>
                                </g>
                            </g>
                        </g>
                    </g>
                </g>
            </g>
        </g>
    </g>
</svg>