<?xml version="1.0" encoding="UTF-8"?>
<svg width="28px" height="28px" viewBox="0 0 28 28" version="1.1" xmlns="http://www.w3.org/2000/svg" xmlns:xlink="http://www.w3.org/1999/xlink">
    <!-- Generator: Sketch 51.2 (57519) - http://www.bohemiancoding.com/sketch -->
    <title>ic_programms</title>
    <desc>Created with Sketch.</desc>
    <defs></defs>
    <g id="industrial-landings" stroke="none" stroke-width="1" fill="none" fill-rule="evenodd" opacity="0.8">
        <g id="Artboard-Copy" transform="translate(-19.000000, -292.000000)" fill-rule="nonzero">
            <g id="ic_hotels" transform="translate(19.000000, 292.000000)">
                <g id="Group-12" transform="translate(1.000000, 1.000000)">
                    <path d="M4,20 L4,7 L9.03369141,7 L9.03369141,5 L4,5 C2.8954305,5 2,5.8954305 2,7 L2,22 L24,22 L22.2392578,20 L4,20 Z" id="Rectangle-19" fill="#7C828C"></path>
                    <path d="M1.5,20 L24.5,20 C25.3284271,20 26,20.6715729 26,21.5 L26,21.5 C26,22.3284271 25.3284271,23 24.5,23 L1.95166016,23 L1.5,23 C0.671572875,23 1.01453063e-16,22.3284271 0,21.5 L0,21.5 C-1.01453063e-16,20.6715729 0.671572875,20 1.5,20 Z" id="Rectangle-20" fill="#7C828C"></path>
                    <g id="pc" transform="translate(10.000000, 0.000000)" fill="#7C828C">
                        <path d="M15.692,11.835 L13.7931818,9.93618182 L15.3755455,8.35390909 C15.6056364,8.12381818 15.6927273,7.787 15.603,7.47418182 C15.5132727,7.16145455 15.2609091,6.922 14.9438182,6.84872727 L6.71563636,4.94990909 C6.415,4.88072727 6.09972727,4.97090909 5.88136364,5.18918182 C5.66318182,5.40745455 5.57272727,5.72263636 5.64209091,6.02345455 L7.54109091,14.2515455 C7.61427273,14.5685455 7.85372727,14.821 8.16654545,14.9107273 C8.47945455,15.0003636 8.81609091,14.9132727 9.04627273,14.6832727 L10.6285455,13.1009091 L12.5273636,14.9997273 C12.7021818,15.1745455 12.9312727,15.2619091 13.1602727,15.2619091 C13.3892727,15.2619091 13.6184545,15.1745455 13.7931818,14.9997273 L15.692,13.1009091 C16.0414545,12.7513636 16.0414545,12.1846364 15.692,11.835 Z M13.1602727,13.1009091 L11.2614545,11.2020909 C11.0866364,11.0272727 10.8575455,10.9399091 10.6285455,10.9399091 C10.3995455,10.9399091 10.1703636,11.0272727 9.99563636,11.2020909 L8.92236364,12.2754545 L7.70872727,7.01645455 L12.9677273,8.23 L11.8943636,9.30327273 C11.5448182,9.65281818 11.5448182,10.2196364 11.8943636,10.5691818 L13.7931818,12.468 L13.1602727,13.1009091 Z" id="Shape"></path>
                        <path d="M4.67918182,2.721 L3.78409091,1.82590909 C3.43454545,1.47636364 2.86772727,1.47636364 2.51818182,1.82590909 C2.16863636,2.17545455 2.16863636,2.74218182 2.51818182,3.09181818 L3.41336364,3.98690909 C3.58818182,4.16172727 3.81727273,4.24909091 4.04627273,4.24909091 C4.27527273,4.24909091 4.50445455,4.16172727 4.67918182,3.98690909 C5.02872727,3.63745455 5.02872727,3.07063636 4.67918182,2.721 Z" id="Shape"></path>
                        <path d="M2.934,5.14427273 L1.66818182,5.14427273 C1.17381818,5.14427273 0.773090909,5.545 0.773090909,6.03936364 C0.773090909,6.53372727 1.17381818,6.93445455 1.66818182,6.93445455 L2.934,6.93445455 C3.42836364,6.93445455 3.82909091,6.53372727 3.82909091,6.03936364 C3.82909091,5.545 3.42836364,5.14427273 2.934,5.14427273 Z" id="Shape"></path>
                        <path d="M4.67918182,8.09163636 C4.32972727,7.74209091 3.763,7.74209091 3.41336364,8.09163636 L2.51827273,8.98672727 C2.16872727,9.33627273 2.16872727,9.90309091 2.51827273,10.2526364 C2.69309091,10.4274545 2.92218182,10.5148182 3.15118182,10.5148182 C3.38018182,10.5148182 3.60936364,10.4274545 3.78409091,10.2526364 L4.67918182,9.35754545 C5.02872727,9.00809091 5.02872727,8.44127273 4.67918182,8.09163636 Z" id="Shape"></path>
                        <path d="M10.945,1.82590909 C10.5954545,1.47636364 10.0287273,1.47636364 9.67909091,1.82590909 L8.784,2.721 C8.43445455,3.07054545 8.43445455,3.63736364 8.784,3.98690909 C8.95881818,4.16172727 9.18790909,4.24909091 9.417,4.24909091 C9.64609091,4.24909091 9.87518182,4.16172727 10.0499091,3.98690909 L10.945,3.09181818 C11.2945455,2.74236364 11.2945455,2.17554545 10.945,1.82590909 Z" id="Shape"></path>
                        <path d="M6.73172727,0.0807272727 C6.23736364,0.0807272727 5.83663636,0.481454545 5.83663636,0.975818182 L5.83663636,2.24163636 C5.83663636,2.736 6.23736364,3.13672727 6.73172727,3.13672727 C7.22609091,3.13672727 7.62681818,2.736 7.62681818,2.24163636 L7.62681818,0.975818182 C7.62681818,0.481454545 7.22609091,0.0807272727 6.73172727,0.0807272727 Z" id="Shape"></path>
                    </g>
                    <path d="M23.0947266,20.765625 L23.0947266,16.875" id="Path-2" stroke="#7C828C" stroke-width="2"></path>
                </g>
            </g>
        </g>
    </g>
</svg>