<?xml version="1.0" encoding="UTF-8"?>
<svg width="28px" height="28px" viewBox="0 0 28 28" version="1.1" xmlns="http://www.w3.org/2000/svg" xmlns:xlink="http://www.w3.org/1999/xlink">
    <!-- Generator: Sketch 49.3 (51167) - http://www.bohemiancoding.com/sketch -->
    <title>ic_social</title>
    <desc>Created with Sketch.</desc>
    <defs></defs>
    <g id="transport&amp;logistic" stroke="none" stroke-width="1" fill="none" fill-rule="evenodd">
        <g id="Travel&amp;Hospitality" transform="translate(-390.000000, -4033.000000)">
            <g id="4" transform="translate(0.000000, 3532.000000)">
                <g id="txt" transform="translate(390.000000, 307.000000)">
                    <g id="icons" transform="translate(0.000000, 194.000000)">
                        <g id="1">
                            <g id="ic_social">
                                <rect id="Rectangle-7" x="0" y="0" width="28" height="28"></rect>
                                <path d="M22.0557036,18.1167377 C21.2004931,18.1167377 20.4245736,18.4622201 19.8525453,19.0115938 L18.736807,18.4508929 C18.8217617,17.9978012 18.8727345,17.5333822 18.8727345,17.0576359 C18.8727345,15.2452692 18.2157516,13.5801572 17.1339952,12.2888459 L20.5435101,9.22481343 C20.9966018,9.47401386 21.50633,9.6269323 22.0613673,9.6269323 C23.8170975,9.6269323 25.25,8.1996935 25.25,6.43829957 C25.25,4.67690565 23.8227612,3.24966684 22.0613673,3.24966684 C20.2999733,3.24966684 18.8670709,4.67690565 18.8670709,6.43829957 C18.8670709,6.86873667 18.9520256,7.27651919 19.1106077,7.65031983 L15.536847,10.8672708 C14.3588086,10.0856876 12.9485608,9.6269323 11.4363673,9.6269323 C10.8869936,9.6269323 10.3546109,9.68923241 9.83921908,9.80250533 L9.36913646,8.74906716 C9.98081023,8.16571162 10.3716018,7.35014659 10.3716018,6.43829957 C10.3716018,4.6825693 8.94436301,3.24966684 7.18296908,3.24966684 C5.42157516,3.24966684 4,4.67690565 4,6.43829957 C4,8.1996935 5.42723881,9.62126866 7.18863273,9.62126866 C7.26792377,9.62126866 7.34721482,9.60427772 7.42650586,9.59861407 L7.85127932,10.5501066 C5.55750267,11.8187633 4,14.2541311 4,17.0576359 C4,21.1581157 7.33588753,24.4940032 11.4363673,24.4940032 C14.3021722,24.4940032 16.7885128,22.8628731 18.0288513,20.4784781 L18.9067164,20.9202425 C18.8897255,21.0505064 18.8670709,21.1751066 18.8670709,21.3053705 C18.8670709,23.0611007 20.2943097,24.4940032 22.0557036,24.4940032 C23.8170975,24.4940032 25.2443364,23.0667644 25.2443364,21.3053705 C25.2443364,19.5439765 23.8114339,18.1167377 22.0557036,18.1167377 Z M6.12386727,6.43829957 C6.12386727,5.85494403 6.59961354,5.37353412 7.18863273,5.37353412 C7.77198827,5.37353412 8.25339819,5.84928038 8.25339819,6.43829957 C8.25339819,7.02731876 7.77765192,7.50306503 7.18863273,7.50306503 C6.59961354,7.49740139 6.12386727,7.02165512 6.12386727,6.43829957 Z M22.0557036,5.37353412 C22.6390592,5.37353412 23.1204691,5.84928038 23.1204691,6.43829957 C23.1204691,7.02731876 22.6447228,7.50306503 22.0557036,7.50306503 C21.4723481,7.50306503 20.9909382,7.02731876 20.9909382,6.43829957 C20.9909382,5.84928038 21.4666844,5.37353412 22.0557036,5.37353412 Z M9.30683635,21.9113806 L9.30683635,21.2940432 C9.30683635,20.7106876 9.78258262,20.2292777 10.3716018,20.2292777 L12.4954691,20.2292777 C13.0788246,20.2292777 13.5602345,20.705024 13.5602345,21.2940432 L13.5602345,21.9113806 C12.9089152,22.1945629 12.1952958,22.3588086 11.4420309,22.3588086 C10.6774387,22.3644723 9.95815565,22.2002265 9.30683635,21.9113806 Z M10.3716018,15.9928705 C10.3716018,15.4095149 10.8473481,14.928105 11.4363673,14.928105 C12.0197228,14.928105 12.5011327,15.4038513 12.5011327,15.9928705 C12.5011327,16.5818897 12.0253865,17.0576359 11.4363673,17.0576359 C10.8473481,17.0576359 10.3716018,16.576226 10.3716018,15.9928705 Z M15.5311834,20.3878598 C15.2423374,19.4307036 14.528718,18.6661114 13.5942164,18.3149654 C14.2228811,17.7316098 14.6193364,16.9103811 14.6193364,15.9872068 C14.6193364,14.2314765 13.1920975,12.7985741 11.4307036,12.7985741 C9.6693097,12.7985741 8.2420709,14.2258129 8.2420709,15.9872068 C8.2420709,16.9047175 8.63852612,17.7316098 9.26719083,18.3149654 C8.33268923,18.6604478 7.61906983,19.42504 7.33022388,20.3821962 C6.58828625,19.4703491 6.12386727,18.320629 6.12386727,17.0519723 C6.12386727,14.1238673 8.50826226,11.7394723 11.4363673,11.7394723 C14.3644723,11.7394723 16.7488673,14.1238673 16.7488673,17.0519723 C16.7432036,18.3262926 16.2787846,19.4760128 15.5311834,20.3878598 Z M22.0557036,22.3644723 C21.4723481,22.3644723 20.9909382,21.888726 20.9909382,21.2997068 C20.9909382,20.7106876 21.4666844,20.2349414 22.0557036,20.2349414 C22.6390592,20.2349414 23.1204691,20.7106876 23.1204691,21.2997068 C23.1204691,21.888726 22.6390592,22.3644723 22.0557036,22.3644723 Z" id="Shape" fill-opacity="0.8" fill="#FFFFFF" fill-rule="nonzero"></path>
                            </g>
                        </g>
                    </g>
                </g>
            </g>
        </g>
    </g>
</svg>