<?xml version="1.0" encoding="UTF-8"?>
<svg width="28px" height="28px" viewBox="0 0 28 28" version="1.1" xmlns="http://www.w3.org/2000/svg" xmlns:xlink="http://www.w3.org/1999/xlink">
    <!-- Generator: Sketch 51.2 (57519) - http://www.bohemiancoding.com/sketch -->
    <title>ic_search</title>
    <desc>Created with Sketch.</desc>
    <defs></defs>
    <g id="industrial-landings" stroke="none" stroke-width="1" fill="none" fill-rule="evenodd">
        <g id="Artboard-Copy" transform="translate(-19.000000, -234.000000)">
            <g id="ic_hotels" transform="translate(19.000000, 234.000000)">
                <rect id="Rectangle-7" x="0" y="0" width="28" height="28"></rect>
                <g id="Group" opacity="0.8" transform="translate(3.000000, 6.000000)">
                    <rect id="Rectangle-24" fill="#7C828C" x="4" y="7" width="8" height="2" rx="1"></rect>
                    <path d="M14.9450712,7 L23,7 C23.5522847,7 24,7.44771525 24,8 C24,8.55228475 23.5522847,9 23,9 L14.4878829,9 C14.7129668,8.36317903 14.8684128,7.69346243 14.9450712,7 Z" id="Combined-Shape" fill="#7C828C"></path>
                    <rect id="Rectangle-24" fill="#7C828C" x="4" y="3" width="8" height="2" rx="1"></rect>
                    <path d="M14.4878829,3 L17,3 C17.5522847,3 18,3.44771525 18,4 C18,4.55228475 17.5522847,5 17,5 L14.9450712,5 C14.8684128,4.30653757 14.7129668,3.63682097 14.4878829,3 Z" id="Combined-Shape" fill="#7C828C"></path>
                    <circle id="Oval-6" stroke="#7C828C" stroke-width="2" stroke-linecap="round" stroke-linejoin="round" cx="6" cy="6" r="6"></circle>
                    <rect id="Rectangle-23" fill="#7C828C" transform="translate(12.535534, 12.535534) rotate(-45.000000) translate(-12.535534, -12.535534) " x="11.5355339" y="8.53553391" width="2" height="8" rx="1"></rect>
                </g>
            </g>
        </g>
    </g>
</svg>