<?xml version="1.0" encoding="UTF-8"?>
<svg width="28px" height="28px" viewBox="0 0 28 28" version="1.1" xmlns="http://www.w3.org/2000/svg" xmlns:xlink="http://www.w3.org/1999/xlink">
    <!-- Generator: Sketch 51.2 (57519) - http://www.bohemiancoding.com/sketch -->
    <title>ic_tickets</title>
    <desc>Created with Sketch.</desc>
    <defs></defs>
    <g id="industrial-landings" stroke="none" stroke-width="1" fill="none" fill-rule="evenodd">
        <g id="Artboard-Copy" transform="translate(-328.000000, -576.000000)">
            <g id="ic_tickets" transform="translate(328.000000, 576.000000)">
                <rect id="Rectangle-7" x="0" y="0" width="28" height="28"></rect>
                <g id="ticket" opacity="0.8" transform="translate(2.000000, 2.000000)" fill="#7C828C" fill-rule="nonzero">
                    <path d="M23.7071052,13.9924479 L10.0081152,0.292876525 C9.61758871,-0.0976255085 8.98454585,-0.0976255085 8.59401941,0.292876525 L6.22692164,2.65838885 C5.8363952,3.04889088 5.8363952,3.68189418 6.2264216,4.07239621 C6.82046182,4.66689931 6.82046182,5.63440435 6.2279217,6.22840744 C5.94040224,6.51590894 5.55787634,6.67440976 5.15134881,6.67440976 L5.15084878,6.67440976 C4.74382122,6.67440976 4.36079529,6.51540893 4.07327582,6.22690743 C3.69725036,5.85190548 3.03420547,5.85190548 2.65818001,6.22690743 L0.292457331,8.59391976 C-0.0975690761,8.98442179 -0.0975690761,9.61742509 0.292957365,10.0079271 L5.1112836,14.8259522 C5.11178363,14.8264522 5.11228367,14.8274522 5.11328374,14.8279522 C5.1142838,14.8284522 5.11478384,14.8289522 5.11528387,14.8299522 L13.9924474,23.7069985 C14.1869606,23.9024995 14.4429779,24 14.6984952,24 C14.9540125,24 15.2100299,23.9024995 15.4055431,23.7074985 L17.7727034,21.3419862 C17.9602161,21.1544852 18.0657232,20.8999839 18.0657232,20.6344825 C18.0657232,20.3694811 17.9602161,20.1149798 17.7727034,19.9269788 C17.1786631,19.3329757 17.1781631,18.3659707 17.7717033,17.7719676 C18.3657435,17.1779645 19.333309,17.1784645 19.9278493,17.7724676 C20.3028747,18.1479695 20.9669196,18.1474695 21.341945,17.7724676 L23.7071052,15.4064552 C24.0976316,15.0159532 24.0976316,14.3829499 23.7071052,13.9924479 Z M20.5328903,15.753457 C19.1972998,15.0289533 17.486684,15.2294543 16.3571075,16.3579602 C15.2295312,17.4864661 15.0285176,19.195975 15.7535667,20.5319819 L14.6984952,21.5859874 L7.23298975,14.1209485 L7.92603668,13.4274449 C8.31606309,13.0369429 8.31606309,12.4039396 7.92553664,12.0134376 C7.5350102,11.6229355 6.90146731,11.6229355 6.51094087,12.0139376 L5.81889401,12.7064412 L2.41316342,9.30092344 L3.46573468,8.24741796 C3.97626925,8.52591941 4.55130819,8.67442018 5.14884864,8.67442018 C5.14934868,8.67442018 5.14984871,8.67442018 5.15034875,8.67442018 C6.09141246,8.67442018 6.97597235,8.30791827 7.64151741,7.6419148 C8.76809369,6.51340892 8.9691073,4.80440002 8.24505828,3.46839306 L9.29962968,2.41438757 L12.7058603,5.82040531 L12.0133134,6.51290892 C11.622787,6.90341096 11.622787,7.53641425 12.0133134,7.92741629 C12.2088267,8.1224173 12.464344,8.21991781 12.7203613,8.21991781 C12.9763786,8.21991781 13.2318959,8.1224173 13.4274092,7.92691629 L14.1199561,7.23441268 L21.5864616,14.6999516 L20.5328903,15.753457 Z" id="Shape"></path>
                    <path d="M12.6554158,9.34399989 C12.1959703,8.88523539 11.4500331,8.88523539 10.9917641,9.34458804 L9.34458416,10.9920231 C8.88513861,11.4513758 8.88513861,12.196574 9.34458416,12.6559266 C9.57460107,12.8853089 9.87521141,13 10.17641,13 C10.4776086,13 10.7788073,12.8853089 11.0082359,12.6553385 L12.6554158,11.0079034 C13.1148614,10.5485508 13.1148614,9.80335254 12.6554158,9.34399989 Z" id="Shape"></path>
                </g>
            </g>
        </g>
    </g>
</svg>